G04 #@! TF.FileFunction,Legend,Bot*
%FSLAX46Y46*%
G04 Gerber Fmt 4.6, Leading zero omitted, Abs format (unit mm)*
G04 Created by KiCad (PCBNEW 4.0.2-stable) date 11/7/2016 10:49:39 PM*
%MOMM*%
G01*
G04 APERTURE LIST*
%ADD10C,0.100000*%
%ADD11C,0.200000*%
%ADD12C,0.150000*%
%ADD13R,0.800000X0.150000*%
%ADD14R,1.200000X0.550000*%
%ADD15R,1.000000X0.350000*%
%ADD16R,1.200000X1.400000*%
%ADD17R,0.200000X1.050000*%
%ADD18R,0.797560X0.797560*%
%ADD19R,0.600000X0.500000*%
%ADD20R,0.750000X0.800000*%
%ADD21R,0.350000X0.800000*%
%ADD22R,0.800000X0.350000*%
%ADD23R,1.250000X1.250000*%
%ADD24R,0.400000X0.600000*%
%ADD25R,0.500000X0.600000*%
%ADD26R,0.800000X0.750000*%
%ADD27R,0.600000X0.400000*%
%ADD28R,0.650000X1.060000*%
%ADD29C,2.500000*%
%ADD30O,0.280000X0.850000*%
%ADD31R,2.200000X2.200000*%
%ADD32O,0.850000X0.280000*%
%ADD33R,1.060000X0.650000*%
%ADD34O,2.790000X0.740000*%
%ADD35C,0.970000*%
%ADD36R,1.000000X3.500000*%
%ADD37R,1.600000X3.400000*%
%ADD38R,0.590000X0.450000*%
%ADD39R,1.350000X0.400000*%
%ADD40O,0.950000X1.250000*%
%ADD41O,1.550000X1.000000*%
%ADD42R,0.900000X1.700000*%
%ADD43R,1.050000X2.200000*%
%ADD44R,1.000000X1.050000*%
%ADD45R,2.000000X1.250000*%
%ADD46R,0.850000X0.350000*%
%ADD47R,1.650000X2.400000*%
G04 APERTURE END LIST*
D10*
D11*
X7369844Y-1370157D02*
X8709844Y-1370157D01*
D12*
X9621976Y26559843D02*
G75*
G03X9621976Y26559843I-212132J0D01*
G01*
X9359844Y24209843D02*
X9359844Y26309843D01*
X6559844Y24209843D02*
X6559844Y26309843D01*
X6559844Y26309843D02*
X9309844Y26309843D01*
X9359844Y24209843D02*
X6559844Y24209843D01*
X1699844Y25819843D02*
X1699844Y25569843D01*
X699844Y26969843D02*
X399844Y26969843D01*
X699844Y27369843D02*
X699844Y26969843D01*
X2899844Y26969843D02*
X2899844Y27369843D01*
X1699844Y28519843D02*
X1899844Y28519843D01*
X1699844Y25819843D02*
X1899844Y25819843D01*
X22901392Y20249843D02*
G75*
G03X22901392Y20249843I-291548J0D01*
G01*
X22709844Y20699843D02*
X22709844Y23899843D01*
X22709844Y23899843D02*
X18409844Y23899843D01*
X18409844Y23899843D02*
X18309844Y23899843D01*
X18309844Y23899843D02*
X18309844Y20699843D01*
X18309844Y20699843D02*
X22709844Y20699843D01*
X-3850000Y25850000D02*
X-1950000Y25850000D01*
X-3850000Y24750000D02*
X-1950000Y24750000D01*
X-2950000Y25300000D02*
X-2500000Y25300000D01*
X-3000000Y25050000D02*
X-3000000Y25550000D01*
X-3000000Y25300000D02*
X-2750000Y25050000D01*
X-2750000Y25050000D02*
X-2750000Y25550000D01*
X-2750000Y25550000D02*
X-3000000Y25300000D01*
X-3850000Y28890000D02*
X-1950000Y28890000D01*
X-3850000Y27790000D02*
X-1950000Y27790000D01*
X-2950000Y28340000D02*
X-2500000Y28340000D01*
X-3000000Y28090000D02*
X-3000000Y28590000D01*
X-3000000Y28340000D02*
X-2750000Y28090000D01*
X-2750000Y28090000D02*
X-2750000Y28590000D01*
X-2750000Y28590000D02*
X-3000000Y28340000D01*
X-2650000Y-2225000D02*
X-2650000Y-4125000D01*
X-3750000Y-2225000D02*
X-3750000Y-4125000D01*
X-3200000Y-3125000D02*
X-3200000Y-3575000D01*
X-3450000Y-3075000D02*
X-2950000Y-3075000D01*
X-3200000Y-3075000D02*
X-3450000Y-3325000D01*
X-3450000Y-3325000D02*
X-2950000Y-3325000D01*
X-2950000Y-3325000D02*
X-3200000Y-3075000D01*
X5409844Y12674843D02*
X4909844Y12674843D01*
X4909844Y13624843D02*
X5409844Y13624843D01*
X9759844Y27539843D02*
X9759844Y28239843D01*
X8559844Y28239843D02*
X8559844Y27539843D01*
X12029844Y5669843D02*
X12029844Y6369843D01*
X10829844Y6369843D02*
X10829844Y5669843D01*
X10949844Y13469843D02*
X10174844Y13469843D01*
X6649844Y9169843D02*
X7424844Y9169843D01*
X6649844Y13469843D02*
X7424844Y13469843D01*
X10949844Y9169843D02*
X10949844Y9944843D01*
X6649844Y9169843D02*
X6649844Y9944843D01*
X6649844Y13469843D02*
X6649844Y12694843D01*
X10949844Y13469843D02*
X10949844Y12694843D01*
X5359844Y10234843D02*
X4859844Y10234843D01*
X4859844Y11284843D02*
X5359844Y11284843D01*
X5349844Y11374843D02*
X4849844Y11374843D01*
X4849844Y12424843D02*
X5349844Y12424843D01*
X4004844Y12699843D02*
X4004844Y12199843D01*
X3054844Y12199843D02*
X3054844Y12699843D01*
X3054844Y9949843D02*
X3054844Y10449843D01*
X4004844Y10449843D02*
X4004844Y9949843D01*
X6409844Y33469843D02*
X7109844Y33469843D01*
X7109844Y34669843D02*
X6409844Y34669843D01*
X9829844Y7444843D02*
X9329844Y7444843D01*
X9329844Y8494843D02*
X9829844Y8494843D01*
X12704844Y11709843D02*
X12704844Y11209843D01*
X11654844Y11209843D02*
X11654844Y11709843D01*
X6064844Y5869843D02*
X6064844Y6369843D01*
X7114844Y6369843D02*
X7114844Y5869843D01*
X6064844Y2369843D02*
X6064844Y2869843D01*
X7114844Y2869843D02*
X7114844Y2369843D01*
X8494844Y7609843D02*
X8494844Y7109843D01*
X7444844Y7109843D02*
X7444844Y7609843D01*
X-650156Y24834843D02*
X-150156Y24834843D01*
X-150156Y23784843D02*
X-650156Y23784843D01*
X-2570156Y27394843D02*
X-2070156Y27394843D01*
X-2070156Y26344843D02*
X-2570156Y26344843D01*
X13179844Y21214843D02*
X13679844Y21214843D01*
X13679844Y20164843D02*
X13179844Y20164843D01*
X13304844Y24899843D02*
X13304844Y24399843D01*
X12254844Y24399843D02*
X12254844Y24899843D01*
X9674844Y29739843D02*
X9674844Y30239843D01*
X10724844Y30239843D02*
X10724844Y29739843D01*
X10724844Y33139843D02*
X10724844Y32639843D01*
X9674844Y32639843D02*
X9674844Y33139843D01*
X12004844Y2099843D02*
X12004844Y1599843D01*
X10954844Y1599843D02*
X10954844Y2099843D01*
X-2215156Y-3880157D02*
X-2215156Y-3380157D01*
X-1165156Y-3380157D02*
X-1165156Y-3880157D01*
X11969844Y2994843D02*
X11469844Y2994843D01*
X11469844Y3944843D02*
X11969844Y3944843D01*
X13914844Y10119843D02*
X13914844Y9619843D01*
X12964844Y9619843D02*
X12964844Y10119843D01*
X9739844Y14154843D02*
X9239844Y14154843D01*
X9239844Y15104843D02*
X9739844Y15104843D01*
X5139844Y-2020157D02*
X4439844Y-2020157D01*
X4439844Y-3220157D02*
X5139844Y-3220157D01*
X3509844Y1889843D02*
X4209844Y1889843D01*
X4209844Y3089843D02*
X3509844Y3089843D01*
X3134844Y30539843D02*
X3134844Y30039843D01*
X2184844Y30039843D02*
X2184844Y30539843D01*
X21484844Y25349843D02*
X21484844Y24849843D01*
X20534844Y24849843D02*
X20534844Y25349843D01*
X23334844Y18619843D02*
X23334844Y19119843D01*
X24284844Y19119843D02*
X24284844Y18619843D01*
X-25156Y26869843D02*
X-25156Y26369843D01*
X-975156Y26369843D02*
X-975156Y26869843D01*
X11964844Y25459843D02*
X11964844Y24959843D01*
X11014844Y24959843D02*
X11014844Y25459843D01*
X10764844Y25459843D02*
X10764844Y24959843D01*
X9814844Y24959843D02*
X9814844Y25459843D01*
X4749844Y26214843D02*
X5249844Y26214843D01*
X5249844Y25264843D02*
X4749844Y25264843D01*
X2219844Y23444843D02*
X2719844Y23444843D01*
X2719844Y22494843D02*
X2219844Y22494843D01*
X4125000Y19000000D02*
X4125000Y18500000D01*
X3175000Y18500000D02*
X3175000Y19000000D01*
X13879844Y22094843D02*
X13379844Y22094843D01*
X13379844Y23044843D02*
X13879844Y23044843D01*
X14964844Y22889843D02*
X14964844Y23389843D01*
X15914844Y23389843D02*
X15914844Y22889843D01*
X7579844Y-2450157D02*
X7579844Y-3150157D01*
X8779844Y-3150157D02*
X8779844Y-2450157D01*
X6159844Y459843D02*
X6159844Y-240157D01*
X7359844Y-240157D02*
X7359844Y459843D01*
X10539844Y4169843D02*
G75*
G03X10539844Y4169843I-100000J0D01*
G01*
X10189844Y4819843D02*
X10189844Y4319843D01*
X7289844Y4819843D02*
X10189844Y4819843D01*
X7289844Y4319843D02*
X7289844Y4819843D01*
X10189844Y4319843D02*
X7289844Y4319843D01*
X6409844Y32039843D02*
X7109844Y32039843D01*
X7109844Y33239843D02*
X6409844Y33239843D01*
X5609844Y31839843D02*
X4909844Y31839843D01*
X4909844Y30639843D02*
X5609844Y30639843D01*
X15489844Y20089843D02*
X16189844Y20089843D01*
X16189844Y21289843D02*
X15489844Y21289843D01*
X10929844Y249843D02*
G75*
G03X10929844Y249843I-100000J0D01*
G01*
X10579844Y799843D02*
X10579844Y299843D01*
X7679844Y799843D02*
X10579844Y799843D01*
X7679844Y299843D02*
X7679844Y799843D01*
X10579844Y299843D02*
X7679844Y299843D01*
X10950192Y17055000D02*
G75*
G03X10950192Y17055000I-260192J0D01*
G01*
X10560000Y23195000D02*
X9810000Y23195000D01*
X4560000Y17195000D02*
X5310000Y17195000D01*
X4560000Y23195000D02*
X5310000Y23195000D01*
X9810000Y17195000D02*
X10560000Y17945000D01*
X4560000Y17195000D02*
X4560000Y17945000D01*
X4560000Y23195000D02*
X4560000Y22445000D01*
X10560000Y23195000D02*
X10560000Y22445000D01*
X15404844Y2779843D02*
X14704844Y2779843D01*
X14704844Y1579843D02*
X15404844Y1579843D01*
X4019844Y-1590157D02*
G75*
G03X4019844Y-1590157I-100000J0D01*
G01*
X4469844Y-1340157D02*
X3969844Y-1340157D01*
X4469844Y1559843D02*
X4469844Y-1340157D01*
X3969844Y1559843D02*
X4469844Y1559843D01*
X3969844Y-1340157D02*
X3969844Y1559843D01*
X8179844Y-8695157D02*
X7679844Y-8695157D01*
X7679844Y-7645157D02*
X8179844Y-7645157D01*
X-3760156Y13799843D02*
X-1860156Y13799843D01*
X-3760156Y12699843D02*
X-1860156Y12699843D01*
X-2860156Y13249843D02*
X-2410156Y13249843D01*
X-2910156Y12999843D02*
X-2910156Y13499843D01*
X-2910156Y13249843D02*
X-2660156Y12999843D01*
X-2660156Y12999843D02*
X-2660156Y13499843D01*
X-2660156Y13499843D02*
X-2910156Y13249843D01*
X7084844Y-6760157D02*
X7084844Y-6260157D01*
X8134844Y-6260157D02*
X8134844Y-6760157D01*
X-450156Y13774843D02*
X49844Y13774843D01*
X49844Y12724843D02*
X-450156Y12724843D01*
X16429844Y-2355157D02*
G75*
G03X16429844Y-2355157I-250000J0D01*
G01*
X14279844Y-9105157D02*
X14279844Y-8105157D01*
X14279844Y-8105157D02*
X13279844Y-8105157D01*
X13279844Y-8105157D02*
X13279844Y-9105157D01*
X15679844Y-3105157D02*
X16929844Y-3105157D01*
X16929844Y-3105157D02*
X16929844Y-1505157D01*
X16929844Y-1505157D02*
X17729844Y-1505157D01*
X17729844Y-1505157D02*
X17729844Y-5605157D01*
X16929844Y-3105157D02*
X17729844Y-3105157D01*
X11879844Y-3105157D02*
X10629844Y-3105157D01*
X10629844Y-3105157D02*
X10629844Y-1505157D01*
X10629844Y-1505157D02*
X9829844Y-1505157D01*
X9829844Y-1505157D02*
X9829844Y-5605157D01*
X10629844Y-3105157D02*
X9829844Y-3105157D01*
X15979844Y-9105157D02*
X11579844Y-9105157D01*
X15979844Y-4205157D02*
X15979844Y-7605157D01*
X15979844Y-7605157D02*
X14979844Y-7605157D01*
X14979844Y-7605157D02*
X14979844Y-4205157D01*
X14979844Y-4205157D02*
X15979844Y-4205157D01*
X11579844Y-4205157D02*
X11579844Y-7605157D01*
X11579844Y-7605157D02*
X12579844Y-7605157D01*
X12579844Y-7605157D02*
X12579844Y-4205157D01*
X12579844Y-4205157D02*
X11579844Y-4205157D01*
X13879844Y-3105157D02*
X13679844Y-3105157D01*
X3099844Y4629843D02*
X3349844Y4629843D01*
X2599844Y4629843D02*
X2349844Y4629843D01*
X2599844Y4629843D02*
X3099844Y4279843D01*
X3099844Y4279843D02*
X3099844Y4979843D01*
X3099844Y4979843D02*
X2599844Y4629843D01*
X2599844Y4279843D02*
X2599844Y4979843D01*
X1549844Y5429843D02*
X3949844Y5429843D01*
X1549844Y3829843D02*
X3949844Y3829843D01*
X-5567460Y14649100D02*
X-5567460Y23349100D01*
X837540Y14649100D02*
X837540Y23349100D01*
X837540Y23349100D02*
X-5567460Y23349100D01*
X-4337460Y23349100D02*
X-4337460Y14649100D01*
X-5567460Y14649100D02*
X837540Y14649100D01*
X-5567460Y3149100D02*
X-5567460Y11849100D01*
X837540Y3149100D02*
X837540Y11849100D01*
X837540Y11849100D02*
X-5567460Y11849100D01*
X-4337460Y11849100D02*
X-4337460Y3149100D01*
X-5567460Y3149100D02*
X837540Y3149100D01*
X5249844Y-8180157D02*
G75*
G03X5249844Y-8180157I-750000J0D01*
G01*
X6149844Y-9280157D02*
X6149844Y-9580157D01*
X6149844Y-9580157D02*
X2849844Y-9580157D01*
X2849844Y-9580157D02*
X2849844Y-9280157D01*
X6149844Y-7080157D02*
X6149844Y-6780157D01*
X6149844Y-6780157D02*
X2849844Y-6780157D01*
X2849844Y-6780157D02*
X2849844Y-7080157D01*
X3609844Y30479843D02*
X3609844Y26479843D01*
X8409844Y30479843D02*
X3609844Y30479843D01*
X8409844Y26479843D02*
X8409844Y30479843D01*
X3609844Y26479843D02*
X8409844Y26479843D01*
X2100000Y37359843D02*
X2100000Y36159843D01*
X5100000Y39159843D02*
X3600000Y39159843D01*
X9000000Y34534843D02*
X9000000Y44159843D01*
X9000000Y44159843D02*
X1000000Y44159843D01*
X1000000Y44159843D02*
X1000000Y34534843D01*
X1000000Y34534843D02*
X9000000Y34534843D01*
X7239844Y-5520157D02*
X7939844Y-5520157D01*
X7939844Y-4320157D02*
X7239844Y-4320157D01*
X15409844Y1549843D02*
X14709844Y1549843D01*
X14709844Y349843D02*
X15409844Y349843D01*
X2639844Y-3245157D02*
X2139844Y-3245157D01*
X2139844Y-2195157D02*
X2639844Y-2195157D01*
X5319844Y-6410157D02*
X5319844Y-3410157D01*
X5319844Y-3410157D02*
X2319844Y-3410157D01*
X2319844Y-3410157D02*
X2319844Y-6410157D01*
X2319844Y-6410157D02*
X5319844Y-6410157D01*
X2069844Y-6410157D02*
G75*
G03X2069844Y-6410157I-250000J0D01*
G01*
X1554844Y-3880157D02*
X1554844Y-4380157D01*
X504844Y-4380157D02*
X504844Y-3880157D01*
X344844Y-4770157D02*
X344844Y-5270157D01*
X-705156Y-5270157D02*
X-705156Y-4770157D01*
X5382225Y25001748D02*
X6191749Y25001748D01*
X6286987Y24954129D01*
X6334606Y24906510D01*
X6382225Y24811272D01*
X6382225Y24620795D01*
X6334606Y24525557D01*
X6286987Y24477938D01*
X6191749Y24430319D01*
X5382225Y24430319D01*
X5382225Y23525557D02*
X5382225Y23716034D01*
X5429844Y23811272D01*
X5477463Y23858891D01*
X5620320Y23954129D01*
X5810796Y24001748D01*
X6191749Y24001748D01*
X6286987Y23954129D01*
X6334606Y23906510D01*
X6382225Y23811272D01*
X6382225Y23620795D01*
X6334606Y23525557D01*
X6286987Y23477938D01*
X6191749Y23430319D01*
X5953654Y23430319D01*
X5858415Y23477938D01*
X5810796Y23525557D01*
X5763177Y23620795D01*
X5763177Y23811272D01*
X5810796Y23906510D01*
X5858415Y23954129D01*
X5953654Y24001748D01*
X1939368Y30277462D02*
X1272701Y29277462D01*
X1272701Y30277462D02*
X1939368Y29277462D01*
X367939Y29277462D02*
X939368Y29277462D01*
X653654Y29277462D02*
X653654Y30277462D01*
X748892Y30134605D01*
X844130Y30039367D01*
X939368Y29991748D01*
X22962225Y23041748D02*
X23771749Y23041748D01*
X23866987Y22994129D01*
X23914606Y22946510D01*
X23962225Y22851272D01*
X23962225Y22660795D01*
X23914606Y22565557D01*
X23866987Y22517938D01*
X23771749Y22470319D01*
X22962225Y22470319D01*
X22962225Y21517938D02*
X22962225Y21994129D01*
X23438415Y22041748D01*
X23390796Y21994129D01*
X23343177Y21898891D01*
X23343177Y21660795D01*
X23390796Y21565557D01*
X23438415Y21517938D01*
X23533654Y21470319D01*
X23771749Y21470319D01*
X23866987Y21517938D01*
X23914606Y21565557D01*
X23962225Y21660795D01*
X23962225Y21898891D01*
X23914606Y21994129D01*
X23866987Y22041748D01*
X-2062061Y23557462D02*
X-2062061Y24557462D01*
X-2300156Y24557462D01*
X-2443014Y24509843D01*
X-2538252Y24414605D01*
X-2585871Y24319367D01*
X-2633490Y24128891D01*
X-2633490Y23986033D01*
X-2585871Y23795557D01*
X-2538252Y23700319D01*
X-2443014Y23605081D01*
X-2300156Y23557462D01*
X-2062061Y23557462D01*
X-2966823Y24557462D02*
X-3585871Y24557462D01*
X-3252537Y24176510D01*
X-3395395Y24176510D01*
X-3490633Y24128891D01*
X-3538252Y24081272D01*
X-3585871Y23986033D01*
X-3585871Y23747938D01*
X-3538252Y23652700D01*
X-3490633Y23605081D01*
X-3395395Y23557462D01*
X-3109680Y23557462D01*
X-3014442Y23605081D01*
X-2966823Y23652700D01*
X-2702061Y29247462D02*
X-2702061Y30247462D01*
X-2940156Y30247462D01*
X-3083014Y30199843D01*
X-3178252Y30104605D01*
X-3225871Y30009367D01*
X-3273490Y29818891D01*
X-3273490Y29676033D01*
X-3225871Y29485557D01*
X-3178252Y29390319D01*
X-3083014Y29295081D01*
X-2940156Y29247462D01*
X-2702061Y29247462D01*
X-3654442Y30152224D02*
X-3702061Y30199843D01*
X-3797299Y30247462D01*
X-4035395Y30247462D01*
X-4130633Y30199843D01*
X-4178252Y30152224D01*
X-4225871Y30056986D01*
X-4225871Y29961748D01*
X-4178252Y29818891D01*
X-3606823Y29247462D01*
X-4225871Y29247462D01*
X-2727775Y-4842062D02*
X-3727775Y-4842062D01*
X-3727775Y-5080157D01*
X-3680156Y-5223015D01*
X-3584918Y-5318253D01*
X-3489680Y-5365872D01*
X-3299204Y-5413491D01*
X-3156346Y-5413491D01*
X-2965870Y-5365872D01*
X-2870632Y-5318253D01*
X-2775394Y-5223015D01*
X-2727775Y-5080157D01*
X-2727775Y-4842062D01*
X-2727775Y-6365872D02*
X-2727775Y-5794443D01*
X-2727775Y-6080157D02*
X-3727775Y-6080157D01*
X-3584918Y-5984919D01*
X-3489680Y-5889681D01*
X-3442061Y-5794443D01*
X4722701Y15072700D02*
X4770320Y15025081D01*
X4913177Y14977462D01*
X5008415Y14977462D01*
X5151273Y15025081D01*
X5246511Y15120319D01*
X5294130Y15215557D01*
X5341749Y15406033D01*
X5341749Y15548891D01*
X5294130Y15739367D01*
X5246511Y15834605D01*
X5151273Y15929843D01*
X5008415Y15977462D01*
X4913177Y15977462D01*
X4770320Y15929843D01*
X4722701Y15882224D01*
X4341749Y15882224D02*
X4294130Y15929843D01*
X4198892Y15977462D01*
X3960796Y15977462D01*
X3865558Y15929843D01*
X3817939Y15882224D01*
X3770320Y15786986D01*
X3770320Y15691748D01*
X3817939Y15548891D01*
X4389368Y14977462D01*
X3770320Y14977462D01*
X2865558Y15977462D02*
X3341749Y15977462D01*
X3389368Y15501272D01*
X3341749Y15548891D01*
X3246511Y15596510D01*
X3008415Y15596510D01*
X2913177Y15548891D01*
X2865558Y15501272D01*
X2817939Y15406033D01*
X2817939Y15167938D01*
X2865558Y15072700D01*
X2913177Y15025081D01*
X3008415Y14977462D01*
X3246511Y14977462D01*
X3341749Y15025081D01*
X3389368Y15072700D01*
X9536987Y31412700D02*
X9584606Y31460319D01*
X9632225Y31603176D01*
X9632225Y31698414D01*
X9584606Y31841272D01*
X9489368Y31936510D01*
X9394130Y31984129D01*
X9203654Y32031748D01*
X9060796Y32031748D01*
X8870320Y31984129D01*
X8775082Y31936510D01*
X8679844Y31841272D01*
X8632225Y31698414D01*
X8632225Y31603176D01*
X8679844Y31460319D01*
X8727463Y31412700D01*
X9632225Y30460319D02*
X9632225Y31031748D01*
X9632225Y30746034D02*
X8632225Y30746034D01*
X8775082Y30841272D01*
X8870320Y30936510D01*
X8917939Y31031748D01*
X8632225Y30126986D02*
X8632225Y29460319D01*
X9632225Y29888891D01*
X13116987Y6702700D02*
X13164606Y6750319D01*
X13212225Y6893176D01*
X13212225Y6988414D01*
X13164606Y7131272D01*
X13069368Y7226510D01*
X12974130Y7274129D01*
X12783654Y7321748D01*
X12640796Y7321748D01*
X12450320Y7274129D01*
X12355082Y7226510D01*
X12259844Y7131272D01*
X12212225Y6988414D01*
X12212225Y6893176D01*
X12259844Y6750319D01*
X12307463Y6702700D01*
X12307463Y6321748D02*
X12259844Y6274129D01*
X12212225Y6178891D01*
X12212225Y5940795D01*
X12259844Y5845557D01*
X12307463Y5797938D01*
X12402701Y5750319D01*
X12497939Y5750319D01*
X12640796Y5797938D01*
X13212225Y6369367D01*
X13212225Y5750319D01*
X12545558Y4893176D02*
X13212225Y4893176D01*
X12164606Y5131272D02*
X12878892Y5369367D01*
X12878892Y4750319D01*
X13197939Y15117462D02*
X13197939Y14307938D01*
X13150320Y14212700D01*
X13102701Y14165081D01*
X13007463Y14117462D01*
X12816986Y14117462D01*
X12721748Y14165081D01*
X12674129Y14212700D01*
X12626510Y14307938D01*
X12626510Y15117462D01*
X11626510Y14117462D02*
X12197939Y14117462D01*
X11912225Y14117462D02*
X11912225Y15117462D01*
X12007463Y14974605D01*
X12102701Y14879367D01*
X12197939Y14831748D01*
X11007463Y15117462D02*
X10912224Y15117462D01*
X10816986Y15069843D01*
X10769367Y15022224D01*
X10721748Y14926986D01*
X10674129Y14736510D01*
X10674129Y14498414D01*
X10721748Y14307938D01*
X10769367Y14212700D01*
X10816986Y14165081D01*
X10912224Y14117462D01*
X11007463Y14117462D01*
X11102701Y14165081D01*
X11150320Y14212700D01*
X11197939Y14307938D01*
X11245558Y14498414D01*
X11245558Y14736510D01*
X11197939Y14926986D01*
X11150320Y15022224D01*
X11102701Y15069843D01*
X11007463Y15117462D01*
X5882701Y8927462D02*
X6216035Y9403653D01*
X6454130Y8927462D02*
X6454130Y9927462D01*
X6073177Y9927462D01*
X5977939Y9879843D01*
X5930320Y9832224D01*
X5882701Y9736986D01*
X5882701Y9594129D01*
X5930320Y9498891D01*
X5977939Y9451272D01*
X6073177Y9403653D01*
X6454130Y9403653D01*
X4930320Y8927462D02*
X5501749Y8927462D01*
X5216035Y8927462D02*
X5216035Y9927462D01*
X5311273Y9784605D01*
X5406511Y9689367D01*
X5501749Y9641748D01*
X4454130Y8927462D02*
X4263654Y8927462D01*
X4168415Y8975081D01*
X4120796Y9022700D01*
X4025558Y9165557D01*
X3977939Y9356033D01*
X3977939Y9736986D01*
X4025558Y9832224D01*
X4073177Y9879843D01*
X4168415Y9927462D01*
X4358892Y9927462D01*
X4454130Y9879843D01*
X4501749Y9832224D01*
X4549368Y9736986D01*
X4549368Y9498891D01*
X4501749Y9403653D01*
X4454130Y9356033D01*
X4358892Y9308414D01*
X4168415Y9308414D01*
X4073177Y9356033D01*
X4025558Y9403653D01*
X3977939Y9498891D01*
X4642701Y13807462D02*
X4976035Y14283653D01*
X5214130Y13807462D02*
X5214130Y14807462D01*
X4833177Y14807462D01*
X4737939Y14759843D01*
X4690320Y14712224D01*
X4642701Y14616986D01*
X4642701Y14474129D01*
X4690320Y14378891D01*
X4737939Y14331272D01*
X4833177Y14283653D01*
X5214130Y14283653D01*
X3690320Y13807462D02*
X4261749Y13807462D01*
X3976035Y13807462D02*
X3976035Y14807462D01*
X4071273Y14664605D01*
X4166511Y14569367D01*
X4261749Y14521748D01*
X3118892Y14378891D02*
X3214130Y14426510D01*
X3261749Y14474129D01*
X3309368Y14569367D01*
X3309368Y14616986D01*
X3261749Y14712224D01*
X3214130Y14759843D01*
X3118892Y14807462D01*
X2928415Y14807462D01*
X2833177Y14759843D01*
X2785558Y14712224D01*
X2737939Y14616986D01*
X2737939Y14569367D01*
X2785558Y14474129D01*
X2833177Y14426510D01*
X2928415Y14378891D01*
X3118892Y14378891D01*
X3214130Y14331272D01*
X3261749Y14283653D01*
X3309368Y14188414D01*
X3309368Y13997938D01*
X3261749Y13902700D01*
X3214130Y13855081D01*
X3118892Y13807462D01*
X2928415Y13807462D01*
X2833177Y13855081D01*
X2785558Y13902700D01*
X2737939Y13997938D01*
X2737939Y14188414D01*
X2785558Y14283653D01*
X2833177Y14331272D01*
X2928415Y14378891D01*
X2616987Y13262700D02*
X2664606Y13310319D01*
X2712225Y13453176D01*
X2712225Y13548414D01*
X2664606Y13691272D01*
X2569368Y13786510D01*
X2474130Y13834129D01*
X2283654Y13881748D01*
X2140796Y13881748D01*
X1950320Y13834129D01*
X1855082Y13786510D01*
X1759844Y13691272D01*
X1712225Y13548414D01*
X1712225Y13453176D01*
X1759844Y13310319D01*
X1807463Y13262700D01*
X1807463Y12881748D02*
X1759844Y12834129D01*
X1712225Y12738891D01*
X1712225Y12500795D01*
X1759844Y12405557D01*
X1807463Y12357938D01*
X1902701Y12310319D01*
X1997939Y12310319D01*
X2140796Y12357938D01*
X2712225Y12929367D01*
X2712225Y12310319D01*
X1712225Y11976986D02*
X1712225Y11357938D01*
X2093177Y11691272D01*
X2093177Y11548414D01*
X2140796Y11453176D01*
X2188415Y11405557D01*
X2283654Y11357938D01*
X2521749Y11357938D01*
X2616987Y11405557D01*
X2664606Y11453176D01*
X2712225Y11548414D01*
X2712225Y11834129D01*
X2664606Y11929367D01*
X2616987Y11976986D01*
X2686987Y10492700D02*
X2734606Y10540319D01*
X2782225Y10683176D01*
X2782225Y10778414D01*
X2734606Y10921272D01*
X2639368Y11016510D01*
X2544130Y11064129D01*
X2353654Y11111748D01*
X2210796Y11111748D01*
X2020320Y11064129D01*
X1925082Y11016510D01*
X1829844Y10921272D01*
X1782225Y10778414D01*
X1782225Y10683176D01*
X1829844Y10540319D01*
X1877463Y10492700D01*
X1877463Y10111748D02*
X1829844Y10064129D01*
X1782225Y9968891D01*
X1782225Y9730795D01*
X1829844Y9635557D01*
X1877463Y9587938D01*
X1972701Y9540319D01*
X2067939Y9540319D01*
X2210796Y9587938D01*
X2782225Y10159367D01*
X2782225Y9540319D01*
X1877463Y9159367D02*
X1829844Y9111748D01*
X1782225Y9016510D01*
X1782225Y8778414D01*
X1829844Y8683176D01*
X1877463Y8635557D01*
X1972701Y8587938D01*
X2067939Y8587938D01*
X2210796Y8635557D01*
X2782225Y9206986D01*
X2782225Y8587938D01*
X4582701Y33712700D02*
X4630320Y33665081D01*
X4773177Y33617462D01*
X4868415Y33617462D01*
X5011273Y33665081D01*
X5106511Y33760319D01*
X5154130Y33855557D01*
X5201749Y34046033D01*
X5201749Y34188891D01*
X5154130Y34379367D01*
X5106511Y34474605D01*
X5011273Y34569843D01*
X4868415Y34617462D01*
X4773177Y34617462D01*
X4630320Y34569843D01*
X4582701Y34522224D01*
X3630320Y33617462D02*
X4201749Y33617462D01*
X3916035Y33617462D02*
X3916035Y34617462D01*
X4011273Y34474605D01*
X4106511Y34379367D01*
X4201749Y34331748D01*
X3058892Y34188891D02*
X3154130Y34236510D01*
X3201749Y34284129D01*
X3249368Y34379367D01*
X3249368Y34426986D01*
X3201749Y34522224D01*
X3154130Y34569843D01*
X3058892Y34617462D01*
X2868415Y34617462D01*
X2773177Y34569843D01*
X2725558Y34522224D01*
X2677939Y34426986D01*
X2677939Y34379367D01*
X2725558Y34284129D01*
X2773177Y34236510D01*
X2868415Y34188891D01*
X3058892Y34188891D01*
X3154130Y34141272D01*
X3201749Y34093653D01*
X3249368Y33998414D01*
X3249368Y33807938D01*
X3201749Y33712700D01*
X3154130Y33665081D01*
X3058892Y33617462D01*
X2868415Y33617462D01*
X2773177Y33665081D01*
X2725558Y33712700D01*
X2677939Y33807938D01*
X2677939Y33998414D01*
X2725558Y34093653D01*
X2773177Y34141272D01*
X2868415Y34188891D01*
X12472701Y7717462D02*
X12806035Y8193653D01*
X13044130Y7717462D02*
X13044130Y8717462D01*
X12663177Y8717462D01*
X12567939Y8669843D01*
X12520320Y8622224D01*
X12472701Y8526986D01*
X12472701Y8384129D01*
X12520320Y8288891D01*
X12567939Y8241272D01*
X12663177Y8193653D01*
X13044130Y8193653D01*
X11520320Y7717462D02*
X12091749Y7717462D01*
X11806035Y7717462D02*
X11806035Y8717462D01*
X11901273Y8574605D01*
X11996511Y8479367D01*
X12091749Y8431748D01*
X11186987Y8717462D02*
X10520320Y8717462D01*
X10948892Y7717462D01*
X13932225Y13062700D02*
X13456034Y13396034D01*
X13932225Y13634129D02*
X12932225Y13634129D01*
X12932225Y13253176D01*
X12979844Y13157938D01*
X13027463Y13110319D01*
X13122701Y13062700D01*
X13265558Y13062700D01*
X13360796Y13110319D01*
X13408415Y13157938D01*
X13456034Y13253176D01*
X13456034Y13634129D01*
X13932225Y12110319D02*
X13932225Y12681748D01*
X13932225Y12396034D02*
X12932225Y12396034D01*
X13075082Y12491272D01*
X13170320Y12586510D01*
X13217939Y12681748D01*
X12932225Y11253176D02*
X12932225Y11443653D01*
X12979844Y11538891D01*
X13027463Y11586510D01*
X13170320Y11681748D01*
X13360796Y11729367D01*
X13741749Y11729367D01*
X13836987Y11681748D01*
X13884606Y11634129D01*
X13932225Y11538891D01*
X13932225Y11348414D01*
X13884606Y11253176D01*
X13836987Y11205557D01*
X13741749Y11157938D01*
X13503654Y11157938D01*
X13408415Y11205557D01*
X13360796Y11253176D01*
X13313177Y11348414D01*
X13313177Y11538891D01*
X13360796Y11634129D01*
X13408415Y11681748D01*
X13503654Y11729367D01*
X5322701Y5957462D02*
X5656035Y6433653D01*
X5894130Y5957462D02*
X5894130Y6957462D01*
X5513177Y6957462D01*
X5417939Y6909843D01*
X5370320Y6862224D01*
X5322701Y6766986D01*
X5322701Y6624129D01*
X5370320Y6528891D01*
X5417939Y6481272D01*
X5513177Y6433653D01*
X5894130Y6433653D01*
X4370320Y5957462D02*
X4941749Y5957462D01*
X4656035Y5957462D02*
X4656035Y6957462D01*
X4751273Y6814605D01*
X4846511Y6719367D01*
X4941749Y6671748D01*
X3465558Y6957462D02*
X3941749Y6957462D01*
X3989368Y6481272D01*
X3941749Y6528891D01*
X3846511Y6576510D01*
X3608415Y6576510D01*
X3513177Y6528891D01*
X3465558Y6481272D01*
X3417939Y6386033D01*
X3417939Y6147938D01*
X3465558Y6052700D01*
X3513177Y6005081D01*
X3608415Y5957462D01*
X3846511Y5957462D01*
X3941749Y6005081D01*
X3989368Y6052700D01*
X6332701Y3707462D02*
X6666035Y4183653D01*
X6904130Y3707462D02*
X6904130Y4707462D01*
X6523177Y4707462D01*
X6427939Y4659843D01*
X6380320Y4612224D01*
X6332701Y4516986D01*
X6332701Y4374129D01*
X6380320Y4278891D01*
X6427939Y4231272D01*
X6523177Y4183653D01*
X6904130Y4183653D01*
X5380320Y3707462D02*
X5951749Y3707462D01*
X5666035Y3707462D02*
X5666035Y4707462D01*
X5761273Y4564605D01*
X5856511Y4469367D01*
X5951749Y4421748D01*
X4523177Y4374129D02*
X4523177Y3707462D01*
X4761273Y4755081D02*
X4999368Y4040795D01*
X4380320Y4040795D01*
X6712701Y7257462D02*
X7046035Y7733653D01*
X7284130Y7257462D02*
X7284130Y8257462D01*
X6903177Y8257462D01*
X6807939Y8209843D01*
X6760320Y8162224D01*
X6712701Y8066986D01*
X6712701Y7924129D01*
X6760320Y7828891D01*
X6807939Y7781272D01*
X6903177Y7733653D01*
X7284130Y7733653D01*
X5760320Y7257462D02*
X6331749Y7257462D01*
X6046035Y7257462D02*
X6046035Y8257462D01*
X6141273Y8114605D01*
X6236511Y8019367D01*
X6331749Y7971748D01*
X5426987Y8257462D02*
X4807939Y8257462D01*
X5141273Y7876510D01*
X4998415Y7876510D01*
X4903177Y7828891D01*
X4855558Y7781272D01*
X4807939Y7686033D01*
X4807939Y7447938D01*
X4855558Y7352700D01*
X4903177Y7305081D01*
X4998415Y7257462D01*
X5284130Y7257462D01*
X5379368Y7305081D01*
X5426987Y7352700D01*
X2432701Y23787462D02*
X2766035Y24263653D01*
X3004130Y23787462D02*
X3004130Y24787462D01*
X2623177Y24787462D01*
X2527939Y24739843D01*
X2480320Y24692224D01*
X2432701Y24596986D01*
X2432701Y24454129D01*
X2480320Y24358891D01*
X2527939Y24311272D01*
X2623177Y24263653D01*
X3004130Y24263653D01*
X1480320Y23787462D02*
X2051749Y23787462D01*
X1766035Y23787462D02*
X1766035Y24787462D01*
X1861273Y24644605D01*
X1956511Y24549367D01*
X2051749Y24501748D01*
X861273Y24787462D02*
X766034Y24787462D01*
X670796Y24739843D01*
X623177Y24692224D01*
X575558Y24596986D01*
X527939Y24406510D01*
X527939Y24168414D01*
X575558Y23977938D01*
X623177Y23882700D01*
X670796Y23835081D01*
X766034Y23787462D01*
X861273Y23787462D01*
X956511Y23835081D01*
X1004130Y23882700D01*
X1051749Y23977938D01*
X1099368Y24168414D01*
X1099368Y24406510D01*
X1051749Y24596986D01*
X1004130Y24692224D01*
X956511Y24739843D01*
X861273Y24787462D01*
X-1267775Y30066509D02*
X-1743966Y30399843D01*
X-1267775Y30637938D02*
X-2267775Y30637938D01*
X-2267775Y30256985D01*
X-2220156Y30161747D01*
X-2172537Y30114128D01*
X-2077299Y30066509D01*
X-1934442Y30066509D01*
X-1839204Y30114128D01*
X-1791585Y30161747D01*
X-1743966Y30256985D01*
X-1743966Y30637938D01*
X-1267775Y29590319D02*
X-1267775Y29399843D01*
X-1315394Y29304604D01*
X-1363013Y29256985D01*
X-1505870Y29161747D01*
X-1696346Y29114128D01*
X-2077299Y29114128D01*
X-2172537Y29161747D01*
X-2220156Y29209366D01*
X-2267775Y29304604D01*
X-2267775Y29495081D01*
X-2220156Y29590319D01*
X-2172537Y29637938D01*
X-2077299Y29685557D01*
X-1839204Y29685557D01*
X-1743966Y29637938D01*
X-1696346Y29590319D01*
X-1648727Y29495081D01*
X-1648727Y29304604D01*
X-1696346Y29209366D01*
X-1743966Y29161747D01*
X-1839204Y29114128D01*
X11936510Y20417462D02*
X12269844Y20893653D01*
X12507939Y20417462D02*
X12507939Y21417462D01*
X12126986Y21417462D01*
X12031748Y21369843D01*
X11984129Y21322224D01*
X11936510Y21226986D01*
X11936510Y21084129D01*
X11984129Y20988891D01*
X12031748Y20941272D01*
X12126986Y20893653D01*
X12507939Y20893653D01*
X11365082Y20988891D02*
X11460320Y21036510D01*
X11507939Y21084129D01*
X11555558Y21179367D01*
X11555558Y21226986D01*
X11507939Y21322224D01*
X11460320Y21369843D01*
X11365082Y21417462D01*
X11174605Y21417462D01*
X11079367Y21369843D01*
X11031748Y21322224D01*
X10984129Y21226986D01*
X10984129Y21179367D01*
X11031748Y21084129D01*
X11079367Y21036510D01*
X11174605Y20988891D01*
X11365082Y20988891D01*
X11460320Y20941272D01*
X11507939Y20893653D01*
X11555558Y20798414D01*
X11555558Y20607938D01*
X11507939Y20512700D01*
X11460320Y20465081D01*
X11365082Y20417462D01*
X11174605Y20417462D01*
X11079367Y20465081D01*
X11031748Y20512700D01*
X10984129Y20607938D01*
X10984129Y20798414D01*
X11031748Y20893653D01*
X11079367Y20941272D01*
X11174605Y20988891D01*
X14352225Y24686509D02*
X13876034Y25019843D01*
X14352225Y25257938D02*
X13352225Y25257938D01*
X13352225Y24876985D01*
X13399844Y24781747D01*
X13447463Y24734128D01*
X13542701Y24686509D01*
X13685558Y24686509D01*
X13780796Y24734128D01*
X13828415Y24781747D01*
X13876034Y24876985D01*
X13876034Y25257938D01*
X13352225Y23781747D02*
X13352225Y24257938D01*
X13828415Y24305557D01*
X13780796Y24257938D01*
X13733177Y24162700D01*
X13733177Y23924604D01*
X13780796Y23829366D01*
X13828415Y23781747D01*
X13923654Y23734128D01*
X14161749Y23734128D01*
X14256987Y23781747D01*
X14304606Y23829366D01*
X14352225Y23924604D01*
X14352225Y24162700D01*
X14304606Y24257938D01*
X14256987Y24305557D01*
X10772225Y28496509D02*
X10296034Y28829843D01*
X10772225Y29067938D02*
X9772225Y29067938D01*
X9772225Y28686985D01*
X9819844Y28591747D01*
X9867463Y28544128D01*
X9962701Y28496509D01*
X10105558Y28496509D01*
X10200796Y28544128D01*
X10248415Y28591747D01*
X10296034Y28686985D01*
X10296034Y29067938D01*
X10105558Y27639366D02*
X10772225Y27639366D01*
X9724606Y27877462D02*
X10438892Y28115557D01*
X10438892Y27496509D01*
X10366510Y33917462D02*
X10699844Y34393653D01*
X10937939Y33917462D02*
X10937939Y34917462D01*
X10556986Y34917462D01*
X10461748Y34869843D01*
X10414129Y34822224D01*
X10366510Y34726986D01*
X10366510Y34584129D01*
X10414129Y34488891D01*
X10461748Y34441272D01*
X10556986Y34393653D01*
X10937939Y34393653D01*
X10033177Y34917462D02*
X9414129Y34917462D01*
X9747463Y34536510D01*
X9604605Y34536510D01*
X9509367Y34488891D01*
X9461748Y34441272D01*
X9414129Y34346033D01*
X9414129Y34107938D01*
X9461748Y34012700D01*
X9509367Y33965081D01*
X9604605Y33917462D01*
X9890320Y33917462D01*
X9985558Y33965081D01*
X10033177Y34012700D01*
X13342225Y2056509D02*
X12866034Y2389843D01*
X13342225Y2627938D02*
X12342225Y2627938D01*
X12342225Y2246985D01*
X12389844Y2151747D01*
X12437463Y2104128D01*
X12532701Y2056509D01*
X12675558Y2056509D01*
X12770796Y2104128D01*
X12818415Y2151747D01*
X12866034Y2246985D01*
X12866034Y2627938D01*
X12437463Y1675557D02*
X12389844Y1627938D01*
X12342225Y1532700D01*
X12342225Y1294604D01*
X12389844Y1199366D01*
X12437463Y1151747D01*
X12532701Y1104128D01*
X12627939Y1104128D01*
X12770796Y1151747D01*
X13342225Y1723176D01*
X13342225Y1104128D01*
X-1237775Y-5233491D02*
X-1713966Y-4900157D01*
X-1237775Y-4662062D02*
X-2237775Y-4662062D01*
X-2237775Y-5043015D01*
X-2190156Y-5138253D01*
X-2142537Y-5185872D01*
X-2047299Y-5233491D01*
X-1904442Y-5233491D01*
X-1809204Y-5185872D01*
X-1761585Y-5138253D01*
X-1713966Y-5043015D01*
X-1713966Y-4662062D01*
X-1237775Y-6185872D02*
X-1237775Y-5614443D01*
X-1237775Y-5900157D02*
X-2237775Y-5900157D01*
X-2094918Y-5804919D01*
X-1999680Y-5709681D01*
X-1952061Y-5614443D01*
X14722701Y3222700D02*
X14770320Y3175081D01*
X14913177Y3127462D01*
X15008415Y3127462D01*
X15151273Y3175081D01*
X15246511Y3270319D01*
X15294130Y3365557D01*
X15341749Y3556033D01*
X15341749Y3698891D01*
X15294130Y3889367D01*
X15246511Y3984605D01*
X15151273Y4079843D01*
X15008415Y4127462D01*
X14913177Y4127462D01*
X14770320Y4079843D01*
X14722701Y4032224D01*
X14341749Y4032224D02*
X14294130Y4079843D01*
X14198892Y4127462D01*
X13960796Y4127462D01*
X13865558Y4079843D01*
X13817939Y4032224D01*
X13770320Y3936986D01*
X13770320Y3841748D01*
X13817939Y3698891D01*
X14389368Y3127462D01*
X13770320Y3127462D01*
X12817939Y3127462D02*
X13389368Y3127462D01*
X13103654Y3127462D02*
X13103654Y4127462D01*
X13198892Y3984605D01*
X13294130Y3889367D01*
X13389368Y3841748D01*
X15036987Y10802700D02*
X15084606Y10850319D01*
X15132225Y10993176D01*
X15132225Y11088414D01*
X15084606Y11231272D01*
X14989368Y11326510D01*
X14894130Y11374129D01*
X14703654Y11421748D01*
X14560796Y11421748D01*
X14370320Y11374129D01*
X14275082Y11326510D01*
X14179844Y11231272D01*
X14132225Y11088414D01*
X14132225Y10993176D01*
X14179844Y10850319D01*
X14227463Y10802700D01*
X14227463Y10421748D02*
X14179844Y10374129D01*
X14132225Y10278891D01*
X14132225Y10040795D01*
X14179844Y9945557D01*
X14227463Y9897938D01*
X14322701Y9850319D01*
X14417939Y9850319D01*
X14560796Y9897938D01*
X15132225Y10469367D01*
X15132225Y9850319D01*
X14132225Y9231272D02*
X14132225Y9136033D01*
X14179844Y9040795D01*
X14227463Y8993176D01*
X14322701Y8945557D01*
X14513177Y8897938D01*
X14751273Y8897938D01*
X14941749Y8945557D01*
X15036987Y8993176D01*
X15084606Y9040795D01*
X15132225Y9136033D01*
X15132225Y9231272D01*
X15084606Y9326510D01*
X15036987Y9374129D01*
X14941749Y9421748D01*
X14751273Y9469367D01*
X14513177Y9469367D01*
X14322701Y9421748D01*
X14227463Y9374129D01*
X14179844Y9326510D01*
X14132225Y9231272D01*
X11232701Y15412700D02*
X11280320Y15365081D01*
X11423177Y15317462D01*
X11518415Y15317462D01*
X11661273Y15365081D01*
X11756511Y15460319D01*
X11804130Y15555557D01*
X11851749Y15746033D01*
X11851749Y15888891D01*
X11804130Y16079367D01*
X11756511Y16174605D01*
X11661273Y16269843D01*
X11518415Y16317462D01*
X11423177Y16317462D01*
X11280320Y16269843D01*
X11232701Y16222224D01*
X10280320Y15317462D02*
X10851749Y15317462D01*
X10566035Y15317462D02*
X10566035Y16317462D01*
X10661273Y16174605D01*
X10756511Y16079367D01*
X10851749Y16031748D01*
X9804130Y15317462D02*
X9613654Y15317462D01*
X9518415Y15365081D01*
X9470796Y15412700D01*
X9375558Y15555557D01*
X9327939Y15746033D01*
X9327939Y16126986D01*
X9375558Y16222224D01*
X9423177Y16269843D01*
X9518415Y16317462D01*
X9708892Y16317462D01*
X9804130Y16269843D01*
X9851749Y16222224D01*
X9899368Y16126986D01*
X9899368Y15888891D01*
X9851749Y15793653D01*
X9804130Y15746033D01*
X9708892Y15698414D01*
X9518415Y15698414D01*
X9423177Y15746033D01*
X9375558Y15793653D01*
X9327939Y15888891D01*
X2772701Y-2057300D02*
X2820320Y-2104919D01*
X2963177Y-2152538D01*
X3058415Y-2152538D01*
X3201273Y-2104919D01*
X3296511Y-2009681D01*
X3344130Y-1914443D01*
X3391749Y-1723967D01*
X3391749Y-1581109D01*
X3344130Y-1390633D01*
X3296511Y-1295395D01*
X3201273Y-1200157D01*
X3058415Y-1152538D01*
X2963177Y-1152538D01*
X2820320Y-1200157D01*
X2772701Y-1247776D01*
X1820320Y-2152538D02*
X2391749Y-2152538D01*
X2106035Y-2152538D02*
X2106035Y-1152538D01*
X2201273Y-1295395D01*
X2296511Y-1390633D01*
X2391749Y-1438252D01*
X963177Y-1152538D02*
X1153654Y-1152538D01*
X1248892Y-1200157D01*
X1296511Y-1247776D01*
X1391749Y-1390633D01*
X1439368Y-1581109D01*
X1439368Y-1962062D01*
X1391749Y-2057300D01*
X1344130Y-2104919D01*
X1248892Y-2152538D01*
X1058415Y-2152538D01*
X963177Y-2104919D01*
X915558Y-2057300D01*
X867939Y-1962062D01*
X867939Y-1723967D01*
X915558Y-1628728D01*
X963177Y-1581109D01*
X1058415Y-1533490D01*
X1248892Y-1533490D01*
X1344130Y-1581109D01*
X1391749Y-1628728D01*
X1439368Y-1723967D01*
X1892701Y2147700D02*
X1940320Y2100081D01*
X2083177Y2052462D01*
X2178415Y2052462D01*
X2321273Y2100081D01*
X2416511Y2195319D01*
X2464130Y2290557D01*
X2511749Y2481033D01*
X2511749Y2623891D01*
X2464130Y2814367D01*
X2416511Y2909605D01*
X2321273Y3004843D01*
X2178415Y3052462D01*
X2083177Y3052462D01*
X1940320Y3004843D01*
X1892701Y2957224D01*
X940320Y2052462D02*
X1511749Y2052462D01*
X1226035Y2052462D02*
X1226035Y3052462D01*
X1321273Y2909605D01*
X1416511Y2814367D01*
X1511749Y2766748D01*
X35558Y3052462D02*
X511749Y3052462D01*
X559368Y2576272D01*
X511749Y2623891D01*
X416511Y2671510D01*
X178415Y2671510D01*
X83177Y2623891D01*
X35558Y2576272D01*
X-12061Y2481033D01*
X-12061Y2242938D01*
X35558Y2147700D01*
X83177Y2100081D01*
X178415Y2052462D01*
X416511Y2052462D01*
X511749Y2100081D01*
X559368Y2147700D01*
X2352701Y31702700D02*
X2400320Y31655081D01*
X2543177Y31607462D01*
X2638415Y31607462D01*
X2781273Y31655081D01*
X2876511Y31750319D01*
X2924130Y31845557D01*
X2971749Y32036033D01*
X2971749Y32178891D01*
X2924130Y32369367D01*
X2876511Y32464605D01*
X2781273Y32559843D01*
X2638415Y32607462D01*
X2543177Y32607462D01*
X2400320Y32559843D01*
X2352701Y32512224D01*
X1400320Y31607462D02*
X1971749Y31607462D01*
X1686035Y31607462D02*
X1686035Y32607462D01*
X1781273Y32464605D01*
X1876511Y32369367D01*
X1971749Y32321748D01*
X543177Y32274129D02*
X543177Y31607462D01*
X781273Y32655081D02*
X1019368Y31940795D01*
X400320Y31940795D01*
X23602701Y24392700D02*
X23650320Y24345081D01*
X23793177Y24297462D01*
X23888415Y24297462D01*
X24031273Y24345081D01*
X24126511Y24440319D01*
X24174130Y24535557D01*
X24221749Y24726033D01*
X24221749Y24868891D01*
X24174130Y25059367D01*
X24126511Y25154605D01*
X24031273Y25249843D01*
X23888415Y25297462D01*
X23793177Y25297462D01*
X23650320Y25249843D01*
X23602701Y25202224D01*
X22650320Y24297462D02*
X23221749Y24297462D01*
X22936035Y24297462D02*
X22936035Y25297462D01*
X23031273Y25154605D01*
X23126511Y25059367D01*
X23221749Y25011748D01*
X22269368Y25202224D02*
X22221749Y25249843D01*
X22126511Y25297462D01*
X21888415Y25297462D01*
X21793177Y25249843D01*
X21745558Y25202224D01*
X21697939Y25106986D01*
X21697939Y25011748D01*
X21745558Y24868891D01*
X22316987Y24297462D01*
X21697939Y24297462D01*
X25122701Y16752700D02*
X25170320Y16705081D01*
X25313177Y16657462D01*
X25408415Y16657462D01*
X25551273Y16705081D01*
X25646511Y16800319D01*
X25694130Y16895557D01*
X25741749Y17086033D01*
X25741749Y17228891D01*
X25694130Y17419367D01*
X25646511Y17514605D01*
X25551273Y17609843D01*
X25408415Y17657462D01*
X25313177Y17657462D01*
X25170320Y17609843D01*
X25122701Y17562224D01*
X24170320Y16657462D02*
X24741749Y16657462D01*
X24456035Y16657462D02*
X24456035Y17657462D01*
X24551273Y17514605D01*
X24646511Y17419367D01*
X24741749Y17371748D01*
X23217939Y16657462D02*
X23789368Y16657462D01*
X23503654Y16657462D02*
X23503654Y17657462D01*
X23598892Y17514605D01*
X23694130Y17419367D01*
X23789368Y17371748D01*
X-163013Y29782700D02*
X-115394Y29830319D01*
X-67775Y29973176D01*
X-67775Y30068414D01*
X-115394Y30211272D01*
X-210632Y30306510D01*
X-305870Y30354129D01*
X-496346Y30401748D01*
X-639204Y30401748D01*
X-829680Y30354129D01*
X-924918Y30306510D01*
X-1020156Y30211272D01*
X-1067775Y30068414D01*
X-1067775Y29973176D01*
X-1020156Y29830319D01*
X-972537Y29782700D01*
X-67775Y28830319D02*
X-67775Y29401748D01*
X-67775Y29116034D02*
X-1067775Y29116034D01*
X-924918Y29211272D01*
X-829680Y29306510D01*
X-782061Y29401748D01*
X-1067775Y28211272D02*
X-1067775Y28116033D01*
X-1020156Y28020795D01*
X-972537Y27973176D01*
X-877299Y27925557D01*
X-686823Y27877938D01*
X-448727Y27877938D01*
X-258251Y27925557D01*
X-163013Y27973176D01*
X-115394Y28020795D01*
X-67775Y28116033D01*
X-67775Y28211272D01*
X-115394Y28306510D01*
X-163013Y28354129D01*
X-258251Y28401748D01*
X-448727Y28449367D01*
X-686823Y28449367D01*
X-877299Y28401748D01*
X-972537Y28354129D01*
X-1020156Y28306510D01*
X-1067775Y28211272D01*
X12396510Y26492700D02*
X12444129Y26445081D01*
X12586986Y26397462D01*
X12682224Y26397462D01*
X12825082Y26445081D01*
X12920320Y26540319D01*
X12967939Y26635557D01*
X13015558Y26826033D01*
X13015558Y26968891D01*
X12967939Y27159367D01*
X12920320Y27254605D01*
X12825082Y27349843D01*
X12682224Y27397462D01*
X12586986Y27397462D01*
X12444129Y27349843D01*
X12396510Y27302224D01*
X11920320Y26397462D02*
X11729844Y26397462D01*
X11634605Y26445081D01*
X11586986Y26492700D01*
X11491748Y26635557D01*
X11444129Y26826033D01*
X11444129Y27206986D01*
X11491748Y27302224D01*
X11539367Y27349843D01*
X11634605Y27397462D01*
X11825082Y27397462D01*
X11920320Y27349843D01*
X11967939Y27302224D01*
X12015558Y27206986D01*
X12015558Y26968891D01*
X11967939Y26873653D01*
X11920320Y26826033D01*
X11825082Y26778414D01*
X11634605Y26778414D01*
X11539367Y26826033D01*
X11491748Y26873653D01*
X11444129Y26968891D01*
X10626510Y26512700D02*
X10674129Y26465081D01*
X10816986Y26417462D01*
X10912224Y26417462D01*
X11055082Y26465081D01*
X11150320Y26560319D01*
X11197939Y26655557D01*
X11245558Y26846033D01*
X11245558Y26988891D01*
X11197939Y27179367D01*
X11150320Y27274605D01*
X11055082Y27369843D01*
X10912224Y27417462D01*
X10816986Y27417462D01*
X10674129Y27369843D01*
X10626510Y27322224D01*
X10055082Y26988891D02*
X10150320Y27036510D01*
X10197939Y27084129D01*
X10245558Y27179367D01*
X10245558Y27226986D01*
X10197939Y27322224D01*
X10150320Y27369843D01*
X10055082Y27417462D01*
X9864605Y27417462D01*
X9769367Y27369843D01*
X9721748Y27322224D01*
X9674129Y27226986D01*
X9674129Y27179367D01*
X9721748Y27084129D01*
X9769367Y27036510D01*
X9864605Y26988891D01*
X10055082Y26988891D01*
X10150320Y26941272D01*
X10197939Y26893653D01*
X10245558Y26798414D01*
X10245558Y26607938D01*
X10197939Y26512700D01*
X10150320Y26465081D01*
X10055082Y26417462D01*
X9864605Y26417462D01*
X9769367Y26465081D01*
X9721748Y26512700D01*
X9674129Y26607938D01*
X9674129Y26798414D01*
X9721748Y26893653D01*
X9769367Y26941272D01*
X9864605Y26988891D01*
X4746510Y24252700D02*
X4794129Y24205081D01*
X4936986Y24157462D01*
X5032224Y24157462D01*
X5175082Y24205081D01*
X5270320Y24300319D01*
X5317939Y24395557D01*
X5365558Y24586033D01*
X5365558Y24728891D01*
X5317939Y24919367D01*
X5270320Y25014605D01*
X5175082Y25109843D01*
X5032224Y25157462D01*
X4936986Y25157462D01*
X4794129Y25109843D01*
X4746510Y25062224D01*
X4413177Y25157462D02*
X3746510Y25157462D01*
X4175082Y24157462D01*
X2636510Y21372700D02*
X2684129Y21325081D01*
X2826986Y21277462D01*
X2922224Y21277462D01*
X3065082Y21325081D01*
X3160320Y21420319D01*
X3207939Y21515557D01*
X3255558Y21706033D01*
X3255558Y21848891D01*
X3207939Y22039367D01*
X3160320Y22134605D01*
X3065082Y22229843D01*
X2922224Y22277462D01*
X2826986Y22277462D01*
X2684129Y22229843D01*
X2636510Y22182224D01*
X1779367Y22277462D02*
X1969844Y22277462D01*
X2065082Y22229843D01*
X2112701Y22182224D01*
X2207939Y22039367D01*
X2255558Y21848891D01*
X2255558Y21467938D01*
X2207939Y21372700D01*
X2160320Y21325081D01*
X2065082Y21277462D01*
X1874605Y21277462D01*
X1779367Y21325081D01*
X1731748Y21372700D01*
X1684129Y21467938D01*
X1684129Y21706033D01*
X1731748Y21801272D01*
X1779367Y21848891D01*
X1874605Y21896510D01*
X2065082Y21896510D01*
X2160320Y21848891D01*
X2207939Y21801272D01*
X2255558Y21706033D01*
X2896987Y19226509D02*
X2944606Y19274128D01*
X2992225Y19416985D01*
X2992225Y19512223D01*
X2944606Y19655081D01*
X2849368Y19750319D01*
X2754130Y19797938D01*
X2563654Y19845557D01*
X2420796Y19845557D01*
X2230320Y19797938D01*
X2135082Y19750319D01*
X2039844Y19655081D01*
X1992225Y19512223D01*
X1992225Y19416985D01*
X2039844Y19274128D01*
X2087463Y19226509D01*
X1992225Y18321747D02*
X1992225Y18797938D01*
X2468415Y18845557D01*
X2420796Y18797938D01*
X2373177Y18702700D01*
X2373177Y18464604D01*
X2420796Y18369366D01*
X2468415Y18321747D01*
X2563654Y18274128D01*
X2801749Y18274128D01*
X2896987Y18321747D01*
X2944606Y18369366D01*
X2992225Y18464604D01*
X2992225Y18702700D01*
X2944606Y18797938D01*
X2896987Y18845557D01*
X11896510Y22282700D02*
X11944129Y22235081D01*
X12086986Y22187462D01*
X12182224Y22187462D01*
X12325082Y22235081D01*
X12420320Y22330319D01*
X12467939Y22425557D01*
X12515558Y22616033D01*
X12515558Y22758891D01*
X12467939Y22949367D01*
X12420320Y23044605D01*
X12325082Y23139843D01*
X12182224Y23187462D01*
X12086986Y23187462D01*
X11944129Y23139843D01*
X11896510Y23092224D01*
X11039367Y22854129D02*
X11039367Y22187462D01*
X11277463Y23235081D02*
X11515558Y22520795D01*
X10896510Y22520795D01*
X17086987Y23356509D02*
X17134606Y23404128D01*
X17182225Y23546985D01*
X17182225Y23642223D01*
X17134606Y23785081D01*
X17039368Y23880319D01*
X16944130Y23927938D01*
X16753654Y23975557D01*
X16610796Y23975557D01*
X16420320Y23927938D01*
X16325082Y23880319D01*
X16229844Y23785081D01*
X16182225Y23642223D01*
X16182225Y23546985D01*
X16229844Y23404128D01*
X16277463Y23356509D01*
X16182225Y23023176D02*
X16182225Y22404128D01*
X16563177Y22737462D01*
X16563177Y22594604D01*
X16610796Y22499366D01*
X16658415Y22451747D01*
X16753654Y22404128D01*
X16991749Y22404128D01*
X17086987Y22451747D01*
X17134606Y22499366D01*
X17182225Y22594604D01*
X17182225Y22880319D01*
X17134606Y22975557D01*
X17086987Y23023176D01*
X9776987Y-2003491D02*
X9824606Y-1955872D01*
X9872225Y-1813015D01*
X9872225Y-1717777D01*
X9824606Y-1574919D01*
X9729368Y-1479681D01*
X9634130Y-1432062D01*
X9443654Y-1384443D01*
X9300796Y-1384443D01*
X9110320Y-1432062D01*
X9015082Y-1479681D01*
X8919844Y-1574919D01*
X8872225Y-1717777D01*
X8872225Y-1813015D01*
X8919844Y-1955872D01*
X8967463Y-2003491D01*
X8967463Y-2384443D02*
X8919844Y-2432062D01*
X8872225Y-2527300D01*
X8872225Y-2765396D01*
X8919844Y-2860634D01*
X8967463Y-2908253D01*
X9062701Y-2955872D01*
X9157939Y-2955872D01*
X9300796Y-2908253D01*
X9872225Y-2336824D01*
X9872225Y-2955872D01*
X7116987Y-1913491D02*
X7164606Y-1865872D01*
X7212225Y-1723015D01*
X7212225Y-1627777D01*
X7164606Y-1484919D01*
X7069368Y-1389681D01*
X6974130Y-1342062D01*
X6783654Y-1294443D01*
X6640796Y-1294443D01*
X6450320Y-1342062D01*
X6355082Y-1389681D01*
X6259844Y-1484919D01*
X6212225Y-1627777D01*
X6212225Y-1723015D01*
X6259844Y-1865872D01*
X6307463Y-1913491D01*
X7212225Y-2865872D02*
X7212225Y-2294443D01*
X7212225Y-2580157D02*
X6212225Y-2580157D01*
X6355082Y-2484919D01*
X6450320Y-2389681D01*
X6497939Y-2294443D01*
X10411749Y7397462D02*
X10411749Y6587938D01*
X10364130Y6492700D01*
X10316511Y6445081D01*
X10221273Y6397462D01*
X10030796Y6397462D01*
X9935558Y6445081D01*
X9887939Y6492700D01*
X9840320Y6587938D01*
X9840320Y7397462D01*
X9221273Y6968891D02*
X9316511Y7016510D01*
X9364130Y7064129D01*
X9411749Y7159367D01*
X9411749Y7206986D01*
X9364130Y7302224D01*
X9316511Y7349843D01*
X9221273Y7397462D01*
X9030796Y7397462D01*
X8935558Y7349843D01*
X8887939Y7302224D01*
X8840320Y7206986D01*
X8840320Y7159367D01*
X8887939Y7064129D01*
X8935558Y7016510D01*
X9030796Y6968891D01*
X9221273Y6968891D01*
X9316511Y6921272D01*
X9364130Y6873653D01*
X9411749Y6778414D01*
X9411749Y6587938D01*
X9364130Y6492700D01*
X9316511Y6445081D01*
X9221273Y6397462D01*
X9030796Y6397462D01*
X8935558Y6445081D01*
X8887939Y6492700D01*
X8840320Y6587938D01*
X8840320Y6778414D01*
X8887939Y6873653D01*
X8935558Y6921272D01*
X9030796Y6968891D01*
X4576510Y32187462D02*
X5052701Y32187462D01*
X5052701Y33187462D01*
X4338415Y33187462D02*
X3671748Y33187462D01*
X4100320Y32187462D01*
X7676510Y30727462D02*
X8152701Y30727462D01*
X8152701Y31727462D01*
X6914605Y31727462D02*
X7105082Y31727462D01*
X7200320Y31679843D01*
X7247939Y31632224D01*
X7343177Y31489367D01*
X7390796Y31298891D01*
X7390796Y30917938D01*
X7343177Y30822700D01*
X7295558Y30775081D01*
X7200320Y30727462D01*
X7009843Y30727462D01*
X6914605Y30775081D01*
X6866986Y30822700D01*
X6819367Y30917938D01*
X6819367Y31156033D01*
X6866986Y31251272D01*
X6914605Y31298891D01*
X7009843Y31346510D01*
X7200320Y31346510D01*
X7295558Y31298891D01*
X7343177Y31251272D01*
X7390796Y31156033D01*
X16712701Y18852700D02*
X16760320Y18805081D01*
X16903177Y18757462D01*
X16998415Y18757462D01*
X17141273Y18805081D01*
X17236511Y18900319D01*
X17284130Y18995557D01*
X17331749Y19186033D01*
X17331749Y19328891D01*
X17284130Y19519367D01*
X17236511Y19614605D01*
X17141273Y19709843D01*
X16998415Y19757462D01*
X16903177Y19757462D01*
X16760320Y19709843D01*
X16712701Y19662224D01*
X15760320Y18757462D02*
X16331749Y18757462D01*
X16046035Y18757462D02*
X16046035Y19757462D01*
X16141273Y19614605D01*
X16236511Y19519367D01*
X16331749Y19471748D01*
X15426987Y19757462D02*
X14807939Y19757462D01*
X15141273Y19376510D01*
X14998415Y19376510D01*
X14903177Y19328891D01*
X14855558Y19281272D01*
X14807939Y19186033D01*
X14807939Y18947938D01*
X14855558Y18852700D01*
X14903177Y18805081D01*
X14998415Y18757462D01*
X15284130Y18757462D01*
X15379368Y18805081D01*
X15426987Y18852700D01*
X12671749Y877462D02*
X12671749Y67938D01*
X12624130Y-27300D01*
X12576511Y-74919D01*
X12481273Y-122538D01*
X12290796Y-122538D01*
X12195558Y-74919D01*
X12147939Y-27300D01*
X12100320Y67938D01*
X12100320Y877462D01*
X11719368Y877462D02*
X11100320Y877462D01*
X11433654Y496510D01*
X11290796Y496510D01*
X11195558Y448891D01*
X11147939Y401272D01*
X11100320Y306033D01*
X11100320Y67938D01*
X11147939Y-27300D01*
X11195558Y-74919D01*
X11290796Y-122538D01*
X11576511Y-122538D01*
X11671749Y-74919D01*
X11719368Y-27300D01*
X10840225Y19579748D02*
X11649749Y19579748D01*
X11744987Y19532129D01*
X11792606Y19484510D01*
X11840225Y19389272D01*
X11840225Y19198795D01*
X11792606Y19103557D01*
X11744987Y19055938D01*
X11649749Y19008319D01*
X10840225Y19008319D01*
X11173558Y18103557D02*
X11840225Y18103557D01*
X10792606Y18341653D02*
X11506892Y18579748D01*
X11506892Y17960700D01*
X18422701Y1697700D02*
X18470320Y1650081D01*
X18613177Y1602462D01*
X18708415Y1602462D01*
X18851273Y1650081D01*
X18946511Y1745319D01*
X18994130Y1840557D01*
X19041749Y2031033D01*
X19041749Y2173891D01*
X18994130Y2364367D01*
X18946511Y2459605D01*
X18851273Y2554843D01*
X18708415Y2602462D01*
X18613177Y2602462D01*
X18470320Y2554843D01*
X18422701Y2507224D01*
X18041749Y2507224D02*
X17994130Y2554843D01*
X17898892Y2602462D01*
X17660796Y2602462D01*
X17565558Y2554843D01*
X17517939Y2507224D01*
X17470320Y2411986D01*
X17470320Y2316748D01*
X17517939Y2173891D01*
X18089368Y1602462D01*
X17470320Y1602462D01*
X16613177Y2602462D02*
X16803654Y2602462D01*
X16898892Y2554843D01*
X16946511Y2507224D01*
X17041749Y2364367D01*
X17089368Y2173891D01*
X17089368Y1792938D01*
X17041749Y1697700D01*
X16994130Y1650081D01*
X16898892Y1602462D01*
X16708415Y1602462D01*
X16613177Y1650081D01*
X16565558Y1697700D01*
X16517939Y1792938D01*
X16517939Y2031033D01*
X16565558Y2126272D01*
X16613177Y2173891D01*
X16708415Y2221510D01*
X16898892Y2221510D01*
X16994130Y2173891D01*
X17041749Y2126272D01*
X17089368Y2031033D01*
X1352225Y1841748D02*
X2161749Y1841748D01*
X2256987Y1794129D01*
X2304606Y1746510D01*
X2352225Y1651272D01*
X2352225Y1460795D01*
X2304606Y1365557D01*
X2256987Y1317938D01*
X2161749Y1270319D01*
X1352225Y1270319D01*
X1352225Y889367D02*
X1352225Y222700D01*
X2352225Y651272D01*
X8116510Y-9772538D02*
X8449844Y-9296347D01*
X8687939Y-9772538D02*
X8687939Y-8772538D01*
X8306986Y-8772538D01*
X8211748Y-8820157D01*
X8164129Y-8867776D01*
X8116510Y-8963014D01*
X8116510Y-9105871D01*
X8164129Y-9201109D01*
X8211748Y-9248728D01*
X8306986Y-9296347D01*
X8687939Y-9296347D01*
X7259367Y-8772538D02*
X7449844Y-8772538D01*
X7545082Y-8820157D01*
X7592701Y-8867776D01*
X7687939Y-9010633D01*
X7735558Y-9201109D01*
X7735558Y-9582062D01*
X7687939Y-9677300D01*
X7640320Y-9724919D01*
X7545082Y-9772538D01*
X7354605Y-9772538D01*
X7259367Y-9724919D01*
X7211748Y-9677300D01*
X7164129Y-9582062D01*
X7164129Y-9343967D01*
X7211748Y-9248728D01*
X7259367Y-9201109D01*
X7354605Y-9153490D01*
X7545082Y-9153490D01*
X7640320Y-9201109D01*
X7687939Y-9248728D01*
X7735558Y-9343967D01*
X-552061Y11807462D02*
X-552061Y12807462D01*
X-790156Y12807462D01*
X-933014Y12759843D01*
X-1028252Y12664605D01*
X-1075871Y12569367D01*
X-1123490Y12378891D01*
X-1123490Y12236033D01*
X-1075871Y12045557D01*
X-1028252Y11950319D01*
X-933014Y11855081D01*
X-790156Y11807462D01*
X-552061Y11807462D01*
X-1980633Y12807462D02*
X-1790156Y12807462D01*
X-1694918Y12759843D01*
X-1647299Y12712224D01*
X-1552061Y12569367D01*
X-1504442Y12378891D01*
X-1504442Y11997938D01*
X-1552061Y11902700D01*
X-1599680Y11855081D01*
X-1694918Y11807462D01*
X-1885395Y11807462D01*
X-1980633Y11855081D01*
X-2028252Y11902700D01*
X-2075871Y11997938D01*
X-2075871Y12236033D01*
X-2028252Y12331272D01*
X-1980633Y12378891D01*
X-1885395Y12426510D01*
X-1694918Y12426510D01*
X-1599680Y12378891D01*
X-1552061Y12331272D01*
X-1504442Y12236033D01*
X9392225Y-6603491D02*
X8916034Y-6270157D01*
X9392225Y-6032062D02*
X8392225Y-6032062D01*
X8392225Y-6413015D01*
X8439844Y-6508253D01*
X8487463Y-6555872D01*
X8582701Y-6603491D01*
X8725558Y-6603491D01*
X8820796Y-6555872D01*
X8868415Y-6508253D01*
X8916034Y-6413015D01*
X8916034Y-6032062D01*
X8392225Y-6936824D02*
X8392225Y-7603491D01*
X9392225Y-7174919D01*
X1582225Y13732700D02*
X1106034Y14066034D01*
X1582225Y14304129D02*
X582225Y14304129D01*
X582225Y13923176D01*
X629844Y13827938D01*
X677463Y13780319D01*
X772701Y13732700D01*
X915558Y13732700D01*
X1010796Y13780319D01*
X1058415Y13827938D01*
X1106034Y13923176D01*
X1106034Y14304129D01*
X1582225Y12780319D02*
X1582225Y13351748D01*
X1582225Y13066034D02*
X582225Y13066034D01*
X725082Y13161272D01*
X820320Y13256510D01*
X867939Y13351748D01*
X1582225Y11827938D02*
X1582225Y12399367D01*
X1582225Y12113653D02*
X582225Y12113653D01*
X725082Y12208891D01*
X820320Y12304129D01*
X867939Y12399367D01*
X14757939Y26777462D02*
X14757939Y27777462D01*
X14376986Y27777462D01*
X14281748Y27729843D01*
X14234129Y27682224D01*
X14186510Y27586986D01*
X14186510Y27444129D01*
X14234129Y27348891D01*
X14281748Y27301272D01*
X14376986Y27253653D01*
X14757939Y27253653D01*
X13234129Y26777462D02*
X13805558Y26777462D01*
X13519844Y26777462D02*
X13519844Y27777462D01*
X13615082Y27634605D01*
X13710320Y27539367D01*
X13805558Y27491748D01*
X18592225Y-7576824D02*
X19306511Y-7576824D01*
X19449368Y-7529204D01*
X19544606Y-7433966D01*
X19592225Y-7291109D01*
X19592225Y-7195871D01*
X19592225Y-8053014D02*
X18592225Y-8053014D01*
X18592225Y-8433967D01*
X18639844Y-8529205D01*
X18687463Y-8576824D01*
X18782701Y-8624443D01*
X18925558Y-8624443D01*
X19020796Y-8576824D01*
X19068415Y-8529205D01*
X19116034Y-8433967D01*
X19116034Y-8053014D01*
X19592225Y-9576824D02*
X19592225Y-9005395D01*
X19592225Y-9291109D02*
X18592225Y-9291109D01*
X18735082Y-9195871D01*
X18830320Y-9100633D01*
X18877939Y-9005395D01*
X2887939Y5667462D02*
X2887939Y6667462D01*
X2649844Y6667462D01*
X2506986Y6619843D01*
X2411748Y6524605D01*
X2364129Y6429367D01*
X2316510Y6238891D01*
X2316510Y6096033D01*
X2364129Y5905557D01*
X2411748Y5810319D01*
X2506986Y5715081D01*
X2649844Y5667462D01*
X2887939Y5667462D01*
X1411748Y6667462D02*
X1887939Y6667462D01*
X1935558Y6191272D01*
X1887939Y6238891D01*
X1792701Y6286510D01*
X1554605Y6286510D01*
X1459367Y6238891D01*
X1411748Y6191272D01*
X1364129Y6096033D01*
X1364129Y5857938D01*
X1411748Y5762700D01*
X1459367Y5715081D01*
X1554605Y5667462D01*
X1792701Y5667462D01*
X1887939Y5715081D01*
X1935558Y5762700D01*
X2292225Y17417938D02*
X1292225Y17417938D01*
X1292225Y17036985D01*
X1339844Y16941747D01*
X1387463Y16894128D01*
X1482701Y16846509D01*
X1625558Y16846509D01*
X1720796Y16894128D01*
X1768415Y16941747D01*
X1816034Y17036985D01*
X1816034Y17417938D01*
X1292225Y16513176D02*
X1292225Y15846509D01*
X2292225Y16275081D01*
X-2562061Y1947462D02*
X-2562061Y2947462D01*
X-2943014Y2947462D01*
X-3038252Y2899843D01*
X-3085871Y2852224D01*
X-3133490Y2756986D01*
X-3133490Y2614129D01*
X-3085871Y2518891D01*
X-3038252Y2471272D01*
X-2943014Y2423653D01*
X-2562061Y2423653D01*
X-3990633Y2947462D02*
X-3800156Y2947462D01*
X-3704918Y2899843D01*
X-3657299Y2852224D01*
X-3562061Y2709367D01*
X-3514442Y2518891D01*
X-3514442Y2137938D01*
X-3562061Y2042700D01*
X-3609680Y1995081D01*
X-3704918Y1947462D01*
X-3895395Y1947462D01*
X-3990633Y1995081D01*
X-4038252Y2042700D01*
X-4085871Y2137938D01*
X-4085871Y2376033D01*
X-4038252Y2471272D01*
X-3990633Y2518891D01*
X-3895395Y2566510D01*
X-3704918Y2566510D01*
X-3609680Y2518891D01*
X-3562061Y2471272D01*
X-3514442Y2376033D01*
X2143177Y-9644919D02*
X2000320Y-9692538D01*
X1762224Y-9692538D01*
X1666986Y-9644919D01*
X1619367Y-9597300D01*
X1571748Y-9502062D01*
X1571748Y-9406824D01*
X1619367Y-9311586D01*
X1666986Y-9263967D01*
X1762224Y-9216347D01*
X1952701Y-9168728D01*
X2047939Y-9121109D01*
X2095558Y-9073490D01*
X2143177Y-8978252D01*
X2143177Y-8883014D01*
X2095558Y-8787776D01*
X2047939Y-8740157D01*
X1952701Y-8692538D01*
X1714605Y-8692538D01*
X1571748Y-8740157D01*
X1238415Y-8692538D02*
X1000320Y-9692538D01*
X809843Y-8978252D01*
X619367Y-9692538D01*
X381272Y-8692538D01*
X-523490Y-9692538D02*
X47939Y-9692538D01*
X-237775Y-9692538D02*
X-237775Y-8692538D01*
X-142537Y-8835395D01*
X-47299Y-8930633D01*
X47939Y-8978252D01*
X5224130Y29643176D02*
X4747939Y29643176D01*
X5319368Y29357462D02*
X4986035Y30357462D01*
X4652701Y29357462D01*
X4366987Y30262224D02*
X4319368Y30309843D01*
X4224130Y30357462D01*
X3986034Y30357462D01*
X3890796Y30309843D01*
X3843177Y30262224D01*
X3795558Y30166986D01*
X3795558Y30071748D01*
X3843177Y29928891D01*
X4414606Y29357462D01*
X3795558Y29357462D01*
X5966667Y36874129D02*
X5966667Y36397938D01*
X6252381Y36969367D02*
X5252381Y36636034D01*
X6252381Y36302700D01*
X6252381Y35445557D02*
X6252381Y36016986D01*
X6252381Y35731272D02*
X5252381Y35731272D01*
X5395238Y35826510D01*
X5490476Y35921748D01*
X5538095Y36016986D01*
X3742857Y35207462D02*
X3552381Y35207462D01*
X3457142Y35255081D01*
X3409523Y35302700D01*
X3314285Y35445557D01*
X3266666Y35636033D01*
X3266666Y36016986D01*
X3314285Y36112224D01*
X3361904Y36159843D01*
X3457142Y36207462D01*
X3647619Y36207462D01*
X3742857Y36159843D01*
X3790476Y36112224D01*
X3838095Y36016986D01*
X3838095Y35778891D01*
X3790476Y35683653D01*
X3742857Y35636033D01*
X3647619Y35588414D01*
X3457142Y35588414D01*
X3361904Y35636033D01*
X3314285Y35683653D01*
X3266666Y35778891D01*
X2314285Y35207462D02*
X2885714Y35207462D01*
X2600000Y35207462D02*
X2600000Y36207462D01*
X2695238Y36064605D01*
X2790476Y35969367D01*
X2885714Y35921748D01*
X1409523Y36207462D02*
X1885714Y36207462D01*
X1933333Y35731272D01*
X1885714Y35778891D01*
X1790476Y35826510D01*
X1552380Y35826510D01*
X1457142Y35778891D01*
X1409523Y35731272D01*
X1361904Y35636033D01*
X1361904Y35397938D01*
X1409523Y35302700D01*
X1457142Y35255081D01*
X1552380Y35207462D01*
X1790476Y35207462D01*
X1885714Y35255081D01*
X1933333Y35302700D01*
X3080952Y41607462D02*
X3033333Y41702700D01*
X2985714Y41750319D01*
X2890476Y41797938D01*
X2842857Y41797938D01*
X2747619Y41750319D01*
X2700000Y41702700D01*
X2652381Y41607462D01*
X2652381Y41416985D01*
X2700000Y41321747D01*
X2747619Y41274128D01*
X2842857Y41226509D01*
X2890476Y41226509D01*
X2985714Y41274128D01*
X3033333Y41321747D01*
X3080952Y41416985D01*
X3080952Y41607462D01*
X3128571Y41702700D01*
X3176190Y41750319D01*
X3271429Y41797938D01*
X3461905Y41797938D01*
X3557143Y41750319D01*
X3604762Y41702700D01*
X3652381Y41607462D01*
X3652381Y41416985D01*
X3604762Y41321747D01*
X3557143Y41274128D01*
X3461905Y41226509D01*
X3271429Y41226509D01*
X3176190Y41274128D01*
X3128571Y41321747D01*
X3080952Y41416985D01*
X2652381Y40369366D02*
X2652381Y40559843D01*
X2700000Y40655081D01*
X2747619Y40702700D01*
X2890476Y40797938D01*
X3080952Y40845557D01*
X3461905Y40845557D01*
X3557143Y40797938D01*
X3604762Y40750319D01*
X3652381Y40655081D01*
X3652381Y40464604D01*
X3604762Y40369366D01*
X3557143Y40321747D01*
X3461905Y40274128D01*
X3223810Y40274128D01*
X3128571Y40321747D01*
X3080952Y40369366D01*
X3033333Y40464604D01*
X3033333Y40655081D01*
X3080952Y40750319D01*
X3128571Y40797938D01*
X3223810Y40845557D01*
X3080952Y39702700D02*
X3033333Y39797938D01*
X2985714Y39845557D01*
X2890476Y39893176D01*
X2842857Y39893176D01*
X2747619Y39845557D01*
X2700000Y39797938D01*
X2652381Y39702700D01*
X2652381Y39512223D01*
X2700000Y39416985D01*
X2747619Y39369366D01*
X2842857Y39321747D01*
X2890476Y39321747D01*
X2985714Y39369366D01*
X3033333Y39416985D01*
X3080952Y39512223D01*
X3080952Y39702700D01*
X3128571Y39797938D01*
X3176190Y39845557D01*
X3271429Y39893176D01*
X3461905Y39893176D01*
X3557143Y39845557D01*
X3604762Y39797938D01*
X3652381Y39702700D01*
X3652381Y39512223D01*
X3604762Y39416985D01*
X3557143Y39369366D01*
X3461905Y39321747D01*
X3271429Y39321747D01*
X3176190Y39369366D01*
X3128571Y39416985D01*
X3080952Y39512223D01*
X9736987Y-3857300D02*
X9784606Y-3809681D01*
X9832225Y-3666824D01*
X9832225Y-3571586D01*
X9784606Y-3428728D01*
X9689368Y-3333490D01*
X9594130Y-3285871D01*
X9403654Y-3238252D01*
X9260796Y-3238252D01*
X9070320Y-3285871D01*
X8975082Y-3333490D01*
X8879844Y-3428728D01*
X8832225Y-3571586D01*
X8832225Y-3666824D01*
X8879844Y-3809681D01*
X8927463Y-3857300D01*
X8927463Y-4238252D02*
X8879844Y-4285871D01*
X8832225Y-4381109D01*
X8832225Y-4619205D01*
X8879844Y-4714443D01*
X8927463Y-4762062D01*
X9022701Y-4809681D01*
X9117939Y-4809681D01*
X9260796Y-4762062D01*
X9832225Y-4190633D01*
X9832225Y-4809681D01*
X9832225Y-5285871D02*
X9832225Y-5476347D01*
X9784606Y-5571586D01*
X9736987Y-5619205D01*
X9594130Y-5714443D01*
X9403654Y-5762062D01*
X9022701Y-5762062D01*
X8927463Y-5714443D01*
X8879844Y-5666824D01*
X8832225Y-5571586D01*
X8832225Y-5381109D01*
X8879844Y-5285871D01*
X8927463Y-5238252D01*
X9022701Y-5190633D01*
X9260796Y-5190633D01*
X9356034Y-5238252D01*
X9403654Y-5285871D01*
X9451273Y-5381109D01*
X9451273Y-5571586D01*
X9403654Y-5666824D01*
X9356034Y-5714443D01*
X9260796Y-5762062D01*
X18412701Y452700D02*
X18460320Y405081D01*
X18603177Y357462D01*
X18698415Y357462D01*
X18841273Y405081D01*
X18936511Y500319D01*
X18984130Y595557D01*
X19031749Y786033D01*
X19031749Y928891D01*
X18984130Y1119367D01*
X18936511Y1214605D01*
X18841273Y1309843D01*
X18698415Y1357462D01*
X18603177Y1357462D01*
X18460320Y1309843D01*
X18412701Y1262224D01*
X18079368Y1357462D02*
X17460320Y1357462D01*
X17793654Y976510D01*
X17650796Y976510D01*
X17555558Y928891D01*
X17507939Y881272D01*
X17460320Y786033D01*
X17460320Y547938D01*
X17507939Y452700D01*
X17555558Y405081D01*
X17650796Y357462D01*
X17936511Y357462D01*
X18031749Y405081D01*
X18079368Y452700D01*
X16841273Y1357462D02*
X16746034Y1357462D01*
X16650796Y1309843D01*
X16603177Y1262224D01*
X16555558Y1166986D01*
X16507939Y976510D01*
X16507939Y738414D01*
X16555558Y547938D01*
X16603177Y452700D01*
X16650796Y405081D01*
X16746034Y357462D01*
X16841273Y357462D01*
X16936511Y405081D01*
X16984130Y452700D01*
X17031749Y547938D01*
X17079368Y738414D01*
X17079368Y976510D01*
X17031749Y1166986D01*
X16984130Y1262224D01*
X16936511Y1309843D01*
X16841273Y1357462D01*
X902701Y-3272538D02*
X1236035Y-2796347D01*
X1474130Y-3272538D02*
X1474130Y-2272538D01*
X1093177Y-2272538D01*
X997939Y-2320157D01*
X950320Y-2367776D01*
X902701Y-2463014D01*
X902701Y-2605871D01*
X950320Y-2701109D01*
X997939Y-2748728D01*
X1093177Y-2796347D01*
X1474130Y-2796347D01*
X-49680Y-3272538D02*
X521749Y-3272538D01*
X236035Y-3272538D02*
X236035Y-2272538D01*
X331273Y-2415395D01*
X426511Y-2510633D01*
X521749Y-2558252D01*
X-430632Y-2367776D02*
X-478251Y-2320157D01*
X-573489Y-2272538D01*
X-811585Y-2272538D01*
X-906823Y-2320157D01*
X-954442Y-2367776D01*
X-1002061Y-2463014D01*
X-1002061Y-2558252D01*
X-954442Y-2701109D01*
X-383013Y-3272538D01*
X-1002061Y-3272538D01*
X7491749Y-3202538D02*
X7491749Y-4012062D01*
X7444130Y-4107300D01*
X7396511Y-4154919D01*
X7301273Y-4202538D01*
X7110796Y-4202538D01*
X7015558Y-4154919D01*
X6967939Y-4107300D01*
X6920320Y-4012062D01*
X6920320Y-3202538D01*
X6396511Y-4202538D02*
X6206035Y-4202538D01*
X6110796Y-4154919D01*
X6063177Y-4107300D01*
X5967939Y-3964443D01*
X5920320Y-3773967D01*
X5920320Y-3393014D01*
X5967939Y-3297776D01*
X6015558Y-3250157D01*
X6110796Y-3202538D01*
X6301273Y-3202538D01*
X6396511Y-3250157D01*
X6444130Y-3297776D01*
X6491749Y-3393014D01*
X6491749Y-3631109D01*
X6444130Y-3726347D01*
X6396511Y-3773967D01*
X6301273Y-3821586D01*
X6110796Y-3821586D01*
X6015558Y-3773967D01*
X5967939Y-3726347D01*
X5920320Y-3631109D01*
X1502225Y-5707300D02*
X1026034Y-5373966D01*
X1502225Y-5135871D02*
X502225Y-5135871D01*
X502225Y-5516824D01*
X549844Y-5612062D01*
X597463Y-5659681D01*
X692701Y-5707300D01*
X835558Y-5707300D01*
X930796Y-5659681D01*
X978415Y-5612062D01*
X1026034Y-5516824D01*
X1026034Y-5135871D01*
X597463Y-6088252D02*
X549844Y-6135871D01*
X502225Y-6231109D01*
X502225Y-6469205D01*
X549844Y-6564443D01*
X597463Y-6612062D01*
X692701Y-6659681D01*
X787939Y-6659681D01*
X930796Y-6612062D01*
X1502225Y-6040633D01*
X1502225Y-6659681D01*
X502225Y-7278728D02*
X502225Y-7373967D01*
X549844Y-7469205D01*
X597463Y-7516824D01*
X692701Y-7564443D01*
X883177Y-7612062D01*
X1121273Y-7612062D01*
X1311749Y-7564443D01*
X1406987Y-7516824D01*
X1454606Y-7469205D01*
X1502225Y-7373967D01*
X1502225Y-7278728D01*
X1454606Y-7183490D01*
X1406987Y-7135871D01*
X1311749Y-7088252D01*
X1121273Y-7040633D01*
X883177Y-7040633D01*
X692701Y-7088252D01*
X597463Y-7135871D01*
X549844Y-7183490D01*
X502225Y-7278728D01*
X282225Y-6587300D02*
X-193966Y-6253966D01*
X282225Y-6015871D02*
X-717775Y-6015871D01*
X-717775Y-6396824D01*
X-670156Y-6492062D01*
X-622537Y-6539681D01*
X-527299Y-6587300D01*
X-384442Y-6587300D01*
X-289204Y-6539681D01*
X-241585Y-6492062D01*
X-193966Y-6396824D01*
X-193966Y-6015871D01*
X-622537Y-6968252D02*
X-670156Y-7015871D01*
X-717775Y-7111109D01*
X-717775Y-7349205D01*
X-670156Y-7444443D01*
X-622537Y-7492062D01*
X-527299Y-7539681D01*
X-432061Y-7539681D01*
X-289204Y-7492062D01*
X282225Y-6920633D01*
X282225Y-7539681D01*
X282225Y-8492062D02*
X282225Y-7920633D01*
X282225Y-8206347D02*
X-717775Y-8206347D01*
X-574918Y-8111109D01*
X-479680Y-8015871D01*
X-432061Y-7920633D01*
%LPC*%
D13*
X8859844Y25909843D03*
X8859844Y25259843D03*
X8859844Y24609843D03*
X7059844Y24609843D03*
D14*
X7059844Y25259843D03*
D15*
X7059844Y25909843D03*
D16*
X949844Y26069843D03*
X949844Y28269843D03*
X2649844Y28269843D03*
X2649844Y26069843D03*
D17*
X22309844Y21349843D03*
X21909844Y21349843D03*
X21509844Y21349843D03*
X21109844Y21349843D03*
X20709844Y21349843D03*
X20309844Y21349843D03*
X19909844Y21349843D03*
X19509844Y21349843D03*
X19109844Y21349843D03*
X18709844Y21349843D03*
X18709844Y23249843D03*
X19109844Y23249843D03*
X19509844Y23249843D03*
X19909844Y23249843D03*
X20309844Y23249843D03*
X20709844Y23249843D03*
X21109844Y23249843D03*
X21509844Y23249843D03*
X21909844Y23249843D03*
X22309844Y23249843D03*
D18*
X-2000700Y25300000D03*
X-3499300Y25300000D03*
X-2000700Y28340000D03*
X-3499300Y28340000D03*
X-3200000Y-4074300D03*
X-3200000Y-2575700D03*
D19*
X4609844Y13149843D03*
X5709844Y13149843D03*
D20*
X9159844Y27139843D03*
X9159844Y28639843D03*
X11429844Y5269843D03*
X11429844Y6769843D03*
D21*
X9774844Y9319843D03*
X9124844Y9319843D03*
X8474844Y9319843D03*
X7824844Y9319843D03*
D22*
X6799844Y10344843D03*
X6799844Y10994843D03*
X6799844Y11644843D03*
X6799844Y12294843D03*
D21*
X7824844Y13319843D03*
X8474844Y13319843D03*
X9124844Y13319843D03*
X9774844Y13319843D03*
D22*
X10799844Y12294843D03*
X10799844Y11644843D03*
X10799844Y10994843D03*
X10799844Y10344843D03*
D23*
X8174844Y11944843D03*
X9424844Y11944843D03*
X8174844Y10694843D03*
X9424844Y10694843D03*
D24*
X4659844Y10759843D03*
X5559844Y10759843D03*
X4649844Y11899843D03*
X5549844Y11899843D03*
D25*
X3529844Y11899843D03*
X3529844Y12999843D03*
X3529844Y10749843D03*
X3529844Y9649843D03*
D26*
X6009844Y34069843D03*
X7509844Y34069843D03*
D24*
X9129844Y7969843D03*
X10029844Y7969843D03*
D27*
X12179844Y11009843D03*
X12179844Y11909843D03*
X6589844Y6569843D03*
X6589844Y5669843D03*
X6589844Y3069843D03*
X6589844Y2169843D03*
X7969844Y6909843D03*
X7969844Y7809843D03*
D24*
X49844Y24309843D03*
X-850156Y24309843D03*
X-1870156Y26869843D03*
X-2770156Y26869843D03*
X13879844Y20689843D03*
X12979844Y20689843D03*
D27*
X12779844Y24199843D03*
X12779844Y25099843D03*
X10199844Y30439843D03*
X10199844Y29539843D03*
X10199844Y32439843D03*
X10199844Y33339843D03*
X11479844Y1399843D03*
X11479844Y2299843D03*
X-1690156Y-3180157D03*
X-1690156Y-4080157D03*
D19*
X11169844Y3469843D03*
X12269844Y3469843D03*
D25*
X13439844Y9319843D03*
X13439844Y10419843D03*
D19*
X8939844Y14629843D03*
X10039844Y14629843D03*
D26*
X5539844Y-2620157D03*
X4039844Y-2620157D03*
X3109844Y2489843D03*
X4609844Y2489843D03*
D25*
X2659844Y29739843D03*
X2659844Y30839843D03*
X21009844Y24549843D03*
X21009844Y25649843D03*
X23809844Y19419843D03*
X23809844Y18319843D03*
X-500156Y26069843D03*
X-500156Y27169843D03*
X11489844Y24659843D03*
X11489844Y25759843D03*
X10289844Y24659843D03*
X10289844Y25759843D03*
D19*
X5549844Y25739843D03*
X4449844Y25739843D03*
X3019844Y22969843D03*
X1919844Y22969843D03*
D25*
X3650000Y18200000D03*
X3650000Y19300000D03*
D19*
X13079844Y22569843D03*
X14179844Y22569843D03*
D25*
X15439844Y23689843D03*
X15439844Y22589843D03*
D20*
X8179844Y-2050157D03*
X8179844Y-3550157D03*
X6759844Y859843D03*
X6759844Y-640157D03*
D28*
X9689844Y3469843D03*
X8739844Y3469843D03*
X7789844Y3469843D03*
X7789844Y5669843D03*
X9689844Y5669843D03*
X8739844Y5669843D03*
D29*
X0Y0D03*
D26*
X6009844Y32639843D03*
X7509844Y32639843D03*
X6009844Y31239843D03*
X4509844Y31239843D03*
X15089844Y20689843D03*
X16589844Y20689843D03*
D29*
X24170000Y-8000000D03*
X-2500000Y-8000000D03*
X24170000Y32640000D03*
X-2500000Y32640000D03*
X20600000Y28690000D03*
D28*
X10079844Y-550157D03*
X9129844Y-550157D03*
X8179844Y-550157D03*
X8179844Y1649843D03*
X10079844Y1649843D03*
D30*
X9560000Y17420000D03*
D31*
X6460000Y21295000D03*
X8660000Y21295000D03*
X6460000Y19095000D03*
X8660000Y19095000D03*
D30*
X9060000Y17420000D03*
X8560000Y17420000D03*
X8060000Y17420000D03*
X7560000Y17420000D03*
X7060000Y17420000D03*
X6560000Y17420000D03*
X6060000Y17420000D03*
X5560000Y17420000D03*
D32*
X4785000Y18195000D03*
X4785000Y18695000D03*
X4785000Y19195000D03*
X4785000Y19695000D03*
X4785000Y20195000D03*
X4785000Y20695000D03*
X4785000Y21195000D03*
X4785000Y21695000D03*
X4785000Y22195000D03*
D30*
X5560000Y22970000D03*
X6060000Y22970000D03*
X6560000Y22970000D03*
X7060000Y22970000D03*
X7560000Y22970000D03*
X8060000Y22970000D03*
X8560000Y22970000D03*
X9060000Y22970000D03*
X9560000Y22970000D03*
D32*
X10335000Y22195000D03*
X10335000Y21695000D03*
X10335000Y21195000D03*
X10335000Y20695000D03*
X10335000Y20195000D03*
X10335000Y19695000D03*
X10335000Y19195000D03*
X10335000Y18695000D03*
X10335000Y18195000D03*
D26*
X15804844Y2179843D03*
X14304844Y2179843D03*
D33*
X3119844Y-840157D03*
X3119844Y109843D03*
X3119844Y1059843D03*
X5319844Y1059843D03*
X5319844Y-840157D03*
D24*
X7479844Y-8170157D03*
X8379844Y-8170157D03*
D18*
X-1910856Y13249843D03*
X-3409456Y13249843D03*
D27*
X7609844Y-6060157D03*
X7609844Y-6960157D03*
D24*
X249844Y13249843D03*
X-650156Y13249843D03*
D34*
X12444844Y28249843D03*
X16514844Y28249843D03*
X12444844Y29519843D03*
X16514844Y29519843D03*
X12444844Y30789843D03*
X16514844Y30789843D03*
X12444844Y32059843D03*
X16514844Y32059843D03*
X12444844Y33329843D03*
X16514844Y33329843D03*
D35*
X14479844Y32694843D03*
X14479844Y28884843D03*
D36*
X14779844Y-2105157D03*
X12779844Y-2105157D03*
D37*
X17179844Y-7655157D03*
X10379844Y-7655157D03*
D38*
X1794844Y4629843D03*
X3904844Y4629843D03*
D39*
X-187460Y17699100D03*
X-187460Y18349100D03*
X-187460Y18999100D03*
X-187460Y19649100D03*
X-187460Y20299100D03*
D40*
X-187460Y16499100D03*
X-187460Y21499100D03*
D41*
X-2887460Y15499100D03*
X-2887460Y22499100D03*
D39*
X-187460Y6199100D03*
X-187460Y6849100D03*
X-187460Y7499100D03*
X-187460Y8149100D03*
X-187460Y8799100D03*
D40*
X-187460Y4999100D03*
X-187460Y9999100D03*
D41*
X-2887460Y3999100D03*
X-2887460Y10999100D03*
D42*
X6199844Y-8180157D03*
X2799844Y-8180157D03*
D43*
X4534844Y28079843D03*
X7484844Y28079843D03*
D44*
X6009844Y29604843D03*
D45*
X7500000Y36159843D03*
X7500000Y42909843D03*
D26*
X6839844Y-4920157D03*
X8339844Y-4920157D03*
X15809844Y949843D03*
X14309844Y949843D03*
D24*
X1939844Y-2720157D03*
X2839844Y-2720157D03*
D46*
X2344844Y-5885157D03*
X2344844Y-5235157D03*
X2344844Y-4585157D03*
X2344844Y-3935157D03*
X5294844Y-3935157D03*
X5294844Y-4585157D03*
X5294844Y-5235157D03*
X5294844Y-5885157D03*
D47*
X3819844Y-4910157D03*
D27*
X1029844Y-4580157D03*
X1029844Y-3680157D03*
X-180156Y-5470157D03*
X-180156Y-4570157D03*
M02*
