G04 #@! TF.FileFunction,Copper,L2,Bot,Signal*
%FSLAX46Y46*%
G04 Gerber Fmt 4.6, Leading zero omitted, Abs format (unit mm)*
G04 Created by KiCad (PCBNEW 4.0.2-stable) date 7/26/2016 9:47:51 PM*
%MOMM*%
G01*
G04 APERTURE LIST*
%ADD10C,0.100000*%
%ADD11C,0.838200*%
%ADD12R,1.350000X0.400000*%
%ADD13O,1.300000X1.300000*%
%ADD14O,1.550000X1.300000*%
%ADD15R,1.000000X0.350000*%
%ADD16R,0.711200X0.457200*%
%ADD17R,1.200000X1.400000*%
%ADD18R,0.200000X1.050000*%
%ADD19R,0.797560X0.797560*%
%ADD20R,0.600000X0.500000*%
%ADD21R,0.800000X0.750000*%
%ADD22R,0.750000X0.800000*%
%ADD23R,0.350000X0.800000*%
%ADD24R,0.800000X0.350000*%
%ADD25R,1.250000X1.250000*%
%ADD26R,0.400000X0.600000*%
%ADD27R,0.500000X0.600000*%
%ADD28R,0.600000X0.400000*%
%ADD29R,0.650000X1.060000*%
%ADD30C,1.500000*%
%ADD31R,0.800100X0.800100*%
%ADD32R,2.000000X1.250000*%
%ADD33R,6.000000X0.500000*%
%ADD34R,0.500000X7.000000*%
%ADD35R,3.000000X0.500000*%
%ADD36R,0.500000X5.000000*%
%ADD37O,2.790000X0.740000*%
%ADD38C,0.970000*%
%ADD39O,0.280000X0.850000*%
%ADD40R,2.200000X2.200000*%
%ADD41O,0.850000X0.280000*%
%ADD42R,0.700000X1.500000*%
%ADD43R,1.000000X0.800000*%
%ADD44R,1.000000X3.500000*%
%ADD45R,1.600000X3.400000*%
%ADD46R,0.590000X0.450000*%
%ADD47C,0.250000*%
%ADD48C,0.154000*%
%ADD49C,0.300000*%
%ADD50C,0.500000*%
%ADD51C,0.350000*%
G04 APERTURE END LIST*
D10*
D11*
X8929844Y31629843D03*
X8954844Y33404843D03*
X14454844Y34004843D03*
X24854844Y28204843D03*
X24854844Y23704843D03*
X12354844Y26704843D03*
X5854844Y14704843D03*
X1854844Y15204843D03*
X-645156Y13204843D03*
X14854844Y13204843D03*
X17204844Y4704843D03*
X22529844Y33929843D03*
X11029844Y-2070157D03*
X17029844Y929843D03*
X17029844Y-2570157D03*
X7854844Y-3720157D03*
X14029844Y-6570157D03*
X4529844Y-8570157D03*
X-2970156Y7429843D03*
X-2970156Y18929843D03*
X529844Y31429843D03*
X3529844Y31429843D03*
X3529844Y33929843D03*
X529844Y33929843D03*
D12*
X-187460Y17699100D03*
X-187460Y18349100D03*
X-187460Y18999100D03*
X-187460Y19649100D03*
X-187460Y20299100D03*
D13*
X-187460Y16499100D03*
X-187460Y21499100D03*
D14*
X-2887460Y15499100D03*
X-2887460Y22499100D03*
D12*
X-187460Y6199100D03*
X-187460Y6849100D03*
X-187460Y7499100D03*
X-187460Y8149100D03*
X-187460Y8799100D03*
D13*
X-187460Y4999100D03*
X-187460Y9999100D03*
D14*
X-2887460Y3999100D03*
X-2887460Y10999100D03*
D15*
X8859844Y25909843D03*
X8859844Y25259843D03*
X8859844Y24609843D03*
X7059844Y24609843D03*
X7059844Y25259843D03*
X7059844Y25909843D03*
D16*
X1453844Y-4480557D03*
X1453844Y-3159757D03*
X3485844Y-3820157D03*
D17*
X1449844Y27629843D03*
X1449844Y29829843D03*
X3149844Y29829843D03*
X3149844Y27629843D03*
D18*
X22309844Y21349843D03*
X21909844Y21349843D03*
X21509844Y21349843D03*
X21109844Y21349843D03*
X20709844Y21349843D03*
X20309844Y21349843D03*
X19909844Y21349843D03*
X19509844Y21349843D03*
X19109844Y21349843D03*
X18709844Y21349843D03*
X18709844Y23249843D03*
X19109844Y23249843D03*
X19509844Y23249843D03*
X19909844Y23249843D03*
X20309844Y23249843D03*
X20709844Y23249843D03*
X21109844Y23249843D03*
X21509844Y23249843D03*
X21909844Y23249843D03*
X22309844Y23249843D03*
D19*
X-2000700Y25300000D03*
X-3499300Y25300000D03*
X-2000700Y28340000D03*
X-3499300Y28340000D03*
X-3200000Y-4074300D03*
X-3200000Y-2575700D03*
D20*
X4609844Y13149843D03*
X5709844Y13149843D03*
D21*
X8979844Y27149843D03*
X7479844Y27149843D03*
D22*
X11429844Y5269843D03*
X11429844Y6769843D03*
D23*
X9774844Y9319843D03*
X9124844Y9319843D03*
X8474844Y9319843D03*
X7824844Y9319843D03*
D24*
X6799844Y10344843D03*
X6799844Y10994843D03*
X6799844Y11644843D03*
X6799844Y12294843D03*
D23*
X7824844Y13319843D03*
X8474844Y13319843D03*
X9124844Y13319843D03*
X9774844Y13319843D03*
D24*
X10799844Y12294843D03*
X10799844Y11644843D03*
X10799844Y10994843D03*
X10799844Y10344843D03*
D25*
X8174844Y11944843D03*
X9424844Y11944843D03*
X8174844Y10694843D03*
X9424844Y10694843D03*
D26*
X4659844Y10759843D03*
X5559844Y10759843D03*
X4649844Y11899843D03*
X5549844Y11899843D03*
D27*
X3529844Y11899843D03*
X3529844Y12999843D03*
X3529844Y10749843D03*
X3529844Y9649843D03*
D21*
X6169844Y32959843D03*
X7669844Y32959843D03*
D26*
X9129844Y7969843D03*
X10029844Y7969843D03*
D28*
X12179844Y11009843D03*
X12179844Y11909843D03*
X6589844Y6569843D03*
X6589844Y5669843D03*
X6589844Y3069843D03*
X6589844Y2169843D03*
X7969844Y6909843D03*
X7969844Y7809843D03*
D26*
X49844Y24309843D03*
X-850156Y24309843D03*
X49844Y25609843D03*
X-850156Y25609843D03*
X13879844Y20689843D03*
X12979844Y20689843D03*
D28*
X12779844Y24199843D03*
X12779844Y25099843D03*
X10199844Y30439843D03*
X10199844Y29539843D03*
X10199844Y32439843D03*
X10199844Y33339843D03*
X11479844Y1399843D03*
X11479844Y2299843D03*
D26*
X-830156Y-4070157D03*
X-1730156Y-4070157D03*
D20*
X11169844Y3469843D03*
X12269844Y3469843D03*
D27*
X13439844Y9319843D03*
X13439844Y10419843D03*
D20*
X8939844Y14629843D03*
X10039844Y14629843D03*
D21*
X5309844Y-2090157D03*
X3809844Y-2090157D03*
X3639844Y2889843D03*
X5139844Y2889843D03*
D27*
X4699844Y29829843D03*
X4699844Y30929843D03*
X21009844Y24549843D03*
X21009844Y25649843D03*
X23809844Y19419843D03*
X23809844Y18319843D03*
X-10156Y27619843D03*
X-10156Y28719843D03*
X11489844Y24659843D03*
X11489844Y25759843D03*
X10289844Y24659843D03*
X10289844Y25759843D03*
X5649844Y26519843D03*
X5649844Y27619843D03*
X3790000Y23680000D03*
X3790000Y24780000D03*
X3650000Y18200000D03*
X3650000Y19300000D03*
D20*
X13079844Y22569843D03*
X14179844Y22569843D03*
D27*
X15439844Y23689843D03*
X15439844Y22589843D03*
D21*
X8179844Y-2150157D03*
X6679844Y-2150157D03*
D22*
X6759844Y859843D03*
X6759844Y-640157D03*
D29*
X9689844Y3469843D03*
X8739844Y3469843D03*
X7789844Y3469843D03*
X7789844Y5669843D03*
X9689844Y5669843D03*
X8739844Y5669843D03*
D30*
X7669844Y34539843D03*
D31*
X5300604Y1339843D03*
X5300604Y-560157D03*
X3301624Y389843D03*
D22*
X7669844Y30049843D03*
X7669844Y31549843D03*
D21*
X7669844Y28599843D03*
X9169844Y28599843D03*
X15089844Y20689843D03*
X16589844Y20689843D03*
D29*
X10079844Y-550157D03*
X9129844Y-550157D03*
X8179844Y-550157D03*
X8179844Y1649843D03*
X10079844Y1649843D03*
D32*
X7669844Y36159843D03*
X7669844Y42909843D03*
D33*
X4669844Y43284843D03*
D34*
X1919844Y40034843D03*
D35*
X3169844Y36784843D03*
D36*
X4419844Y39039843D03*
D37*
X12444844Y28269843D03*
X16514844Y28269843D03*
X12444844Y29539843D03*
X16514844Y29539843D03*
X12444844Y30809843D03*
X16514844Y30809843D03*
X12444844Y32079843D03*
X16514844Y32079843D03*
X12444844Y33349843D03*
X16514844Y33349843D03*
D38*
X14479844Y32714843D03*
X14479844Y28904843D03*
D39*
X9560000Y17420000D03*
D40*
X6460000Y21295000D03*
X8660000Y21295000D03*
X6460000Y19095000D03*
X8660000Y19095000D03*
D39*
X9060000Y17420000D03*
X8560000Y17420000D03*
X8060000Y17420000D03*
X7560000Y17420000D03*
X7060000Y17420000D03*
X6560000Y17420000D03*
X6060000Y17420000D03*
X5560000Y17420000D03*
D41*
X4785000Y18195000D03*
X4785000Y18695000D03*
X4785000Y19195000D03*
X4785000Y19695000D03*
X4785000Y20195000D03*
X4785000Y20695000D03*
X4785000Y21195000D03*
X4785000Y21695000D03*
X4785000Y22195000D03*
D39*
X5560000Y22970000D03*
X6060000Y22970000D03*
X6560000Y22970000D03*
X7060000Y22970000D03*
X7560000Y22970000D03*
X8060000Y22970000D03*
X8560000Y22970000D03*
X9060000Y22970000D03*
X9560000Y22970000D03*
D41*
X10335000Y22195000D03*
X10335000Y21695000D03*
X10335000Y21195000D03*
X10335000Y20695000D03*
X10335000Y20195000D03*
X10335000Y19695000D03*
X10335000Y19195000D03*
X10335000Y18695000D03*
X10335000Y18195000D03*
D42*
X6930000Y-6335000D03*
X3930000Y-6335000D03*
X2430000Y-6335000D03*
D43*
X8330000Y-9185000D03*
X1030000Y-9185000D03*
X1030000Y-6985000D03*
X8330000Y-6985000D03*
D44*
X14779844Y-2105157D03*
X12779844Y-2105157D03*
D45*
X17179844Y-7655157D03*
X10379844Y-7655157D03*
D46*
X3904844Y4629843D03*
X1794844Y4629843D03*
D47*
X4809844Y-3820157D03*
X5309844Y-3820157D03*
X5809844Y-3820157D03*
X4809844Y-4320157D03*
X5809844Y-4320157D03*
X5309844Y-4320157D03*
D21*
X15804844Y2179843D03*
X14304844Y2179843D03*
D11*
X-2970156Y929843D03*
X4689844Y3949843D03*
X4099844Y-600157D03*
X12779844Y229843D03*
X9129844Y619843D03*
X8660000Y21295000D03*
X10139844Y26889843D03*
X8660000Y19095000D03*
X6460000Y19095000D03*
X6460000Y21295000D03*
X2249844Y21179843D03*
X12069844Y13859843D03*
X13639844Y11689843D03*
X22889844Y13509843D03*
X9054844Y-4495157D03*
X4019844Y-4720157D03*
X5854844Y-6345157D03*
X15829844Y3354843D03*
X7129844Y14479843D03*
X25439844Y13049843D03*
X25389844Y18229843D03*
X15029844Y10079843D03*
X11069844Y9319843D03*
X6589844Y8329843D03*
X11299844Y-550157D03*
X-3200156Y-1480157D03*
X17799844Y26419843D03*
X15069844Y27389843D03*
X10569844Y28749843D03*
X3249844Y21409843D03*
X2429844Y20079843D03*
X18969844Y26149843D03*
X14469844Y30229843D03*
X13289844Y26149843D03*
X14259844Y18369843D03*
X16609844Y25169843D03*
X20349844Y30809843D03*
X14089844Y19439843D03*
X14489844Y31329843D03*
X14119844Y25489843D03*
X13069844Y19329843D03*
X19419844Y32079843D03*
X18729844Y33349843D03*
X12239844Y19989843D03*
X4429844Y6179843D03*
X23159844Y11899843D03*
X14489844Y8669843D03*
X24429844Y9299843D03*
X13849844Y5019843D03*
X5519844Y5309843D03*
X25319844Y8779843D03*
X14699844Y4409843D03*
X6839844Y3879843D03*
X1539844Y7519843D03*
X2519844Y7339843D03*
X13689844Y6079843D03*
X16399844Y10949843D03*
X16139844Y15109843D03*
X8559844Y15649843D03*
X17629844Y21939843D03*
X24849844Y14389843D03*
X25299844Y19279843D03*
X25289844Y20299843D03*
X25299844Y21349843D03*
X24229844Y16299843D03*
X24599844Y15359843D03*
X25429844Y11979843D03*
X15339844Y15969843D03*
X15999844Y17639843D03*
X18559844Y27079843D03*
X22449844Y26109843D03*
X5749844Y25309843D03*
X10199844Y31479843D03*
X17199844Y11579843D03*
X11189844Y23639843D03*
X11549844Y22149843D03*
X11529844Y17609843D03*
X4070000Y22970000D03*
X2539844Y18199843D03*
X7399844Y-4730157D03*
X2469844Y-3820157D03*
D48*
X6759844Y-640157D02*
X6759844Y-70157D01*
X7929844Y619843D02*
X9129844Y619843D01*
X7439844Y129843D02*
X7929844Y619843D01*
X6959844Y129843D02*
X7439844Y129843D01*
X6759844Y-70157D02*
X6959844Y129843D01*
X5300604Y1339843D02*
X5300604Y1950603D01*
X5519844Y2169843D02*
X6589844Y2169843D01*
X5300604Y1950603D02*
X5519844Y2169843D01*
X3809844Y-2090157D02*
X3809844Y-890157D01*
X5139844Y3499843D02*
X5139844Y2889843D01*
X4689844Y3949843D02*
X5139844Y3499843D01*
X3809844Y-890157D02*
X4099844Y-600157D01*
X7059844Y25909843D02*
X6449844Y25909843D01*
X6139844Y27619843D02*
X5649844Y27619843D01*
X6289844Y27469843D02*
X6139844Y27619843D01*
X6289844Y26069843D02*
X6289844Y27469843D01*
X6449844Y25909843D02*
X6289844Y26069843D01*
X7059844Y25909843D02*
X7849844Y25909843D01*
X7989844Y25769843D02*
X7989844Y25259843D01*
X7849844Y25909843D02*
X7989844Y25769843D01*
X8859844Y25259843D02*
X7989844Y25259843D01*
X7989844Y25259843D02*
X7059844Y25259843D01*
X12779844Y-2105157D02*
X12779844Y229843D01*
X9129844Y-550157D02*
X9129844Y619843D01*
X12779844Y229843D02*
X12799844Y209843D01*
D49*
X12734844Y-2150157D02*
X12779844Y-2105157D01*
X13120560Y-2920560D02*
X13120000Y-2920000D01*
D48*
X10289844Y26739843D02*
X10289844Y25759843D01*
X10139844Y26889843D02*
X10289844Y26739843D01*
X6460000Y19095000D02*
X8660000Y19095000D01*
X6460000Y21295000D02*
X6460000Y19095000D01*
X6460000Y19095000D02*
X6460000Y21295000D01*
X1930587Y21499100D02*
X-187460Y21499100D01*
X2249844Y21179843D02*
X1930587Y21499100D01*
X13439844Y10419843D02*
X13439844Y11489843D01*
X10799844Y12589843D02*
X10799844Y12294843D01*
X12069844Y13859843D02*
X10799844Y12589843D01*
X13439844Y11489843D02*
X13639844Y11689843D01*
X6780000Y25900000D02*
X7459687Y25900000D01*
X8780000Y25250000D02*
X9250001Y25250000D01*
X9250001Y25250000D02*
X9759844Y25759843D01*
X9759844Y25759843D02*
X10289844Y25759843D01*
X11489844Y25759843D02*
X12709844Y25759843D01*
X12779844Y25689843D02*
X12779844Y25099843D01*
X12709844Y25759843D02*
X12779844Y25689843D01*
X14179844Y22569843D02*
X14179844Y24459843D01*
X13539844Y25099843D02*
X12779844Y25099843D01*
X14179844Y24459843D02*
X13539844Y25099843D01*
X7969844Y7809843D02*
X8439844Y7809843D01*
X9169844Y6769843D02*
X11429844Y6769843D01*
X8619844Y7319843D02*
X9169844Y6769843D01*
X8619844Y7629843D02*
X8619844Y7319843D01*
X8439844Y7809843D02*
X8619844Y7629843D01*
X25309844Y17199843D02*
X25599844Y16909843D01*
X22929844Y13469843D02*
X22889844Y13509843D01*
X24909844Y13469843D02*
X22929844Y13469843D01*
X25599844Y14159843D02*
X24909844Y13469843D01*
X25599844Y16909843D02*
X25599844Y14159843D01*
X22709844Y17359843D02*
X23649844Y17359843D01*
X23809844Y17519843D02*
X23809844Y18319843D01*
X23649844Y17359843D02*
X23809844Y17519843D01*
X8739844Y3469843D02*
X8739844Y2749843D01*
X7249844Y2169843D02*
X6589844Y2169843D01*
X7639844Y2559843D02*
X7249844Y2169843D01*
X8549844Y2559843D02*
X7639844Y2559843D01*
X8739844Y2749843D02*
X8549844Y2559843D01*
X8474844Y9319843D02*
X8474844Y8774843D01*
X7969844Y8269843D02*
X7969844Y7809843D01*
X8474844Y8774843D02*
X7969844Y8269843D01*
X8660000Y21295000D02*
X8660000Y19095000D01*
X6460000Y21295000D02*
X8660000Y21295000D01*
X20309844Y23249843D02*
X20309844Y25359843D01*
X20599844Y25649843D02*
X21009844Y25649843D01*
X20309844Y25359843D02*
X20599844Y25649843D01*
X10799844Y12294843D02*
X9774844Y12294843D01*
X9774844Y12294843D02*
X9424844Y11944843D01*
X8474844Y9319843D02*
X8474844Y10394843D01*
X8474844Y10394843D02*
X8174844Y10694843D01*
X3149844Y27629843D02*
X3149844Y28439843D01*
X1449844Y28909843D02*
X1449844Y29829843D01*
X1639844Y28719843D02*
X1449844Y28909843D01*
X2869844Y28719843D02*
X1639844Y28719843D01*
X3149844Y28439843D02*
X2869844Y28719843D01*
X23809844Y18319843D02*
X24309844Y18319843D01*
X25309844Y17319843D02*
X25309844Y17199843D01*
X24309844Y18319843D02*
X25309844Y17319843D01*
D49*
X9054844Y-4495157D02*
X9054844Y-3620157D01*
X4019444Y-4480557D02*
X4019844Y-4480957D01*
X4019844Y-4720157D02*
X4019844Y-4480957D01*
X8179844Y-2745157D02*
X8179844Y-2150157D01*
X9054844Y-3620157D02*
X8179844Y-2745157D01*
X8179844Y-2150157D02*
X9239844Y-2150157D01*
X14779844Y-4290157D02*
X14779844Y-2105157D01*
X14289844Y-4780157D02*
X14779844Y-4290157D01*
X11869844Y-4780157D02*
X14289844Y-4780157D01*
X9239844Y-2150157D02*
X11869844Y-4780157D01*
D48*
X4809844Y-4320157D02*
X4179844Y-4320157D01*
X4179844Y-4320157D02*
X4019444Y-4480557D01*
X4019444Y-4480557D02*
X1453844Y-4480557D01*
D49*
X8179844Y-550157D02*
X8179844Y-2150157D01*
X7315001Y-6335000D02*
X7565001Y-6335000D01*
X6930000Y-6335000D02*
X7315001Y-6335000D01*
X8804844Y-6070157D02*
X9529844Y-5345157D01*
X7829844Y-6070157D02*
X8804844Y-6070157D01*
X7565001Y-6335000D02*
X7829844Y-6070157D01*
X5854844Y-6345157D02*
X5865001Y-6335000D01*
X6930000Y-6335000D02*
X5865001Y-6335000D01*
X15804844Y-4395157D02*
X15804844Y2179843D01*
X15804844Y-4395157D02*
X14854844Y-5345157D01*
X14854844Y-5345157D02*
X9529844Y-5345157D01*
X15804844Y3329843D02*
X15804844Y2179843D01*
X15829844Y3354843D02*
X15804844Y3329843D01*
D48*
X20309844Y21349843D02*
X20309844Y20819843D01*
X20309844Y20819843D02*
X20709844Y20419843D01*
D49*
X7824844Y13784843D02*
X7824844Y13319843D01*
X7129844Y14479843D02*
X7824844Y13784843D01*
X15099844Y10149843D02*
X19849844Y10149843D01*
X19849844Y10149843D02*
X22399844Y12699843D01*
X25089844Y12699843D02*
X25439844Y13049843D01*
X15029844Y10079843D02*
X15099844Y10149843D01*
X22399844Y12699843D02*
X25089844Y12699843D01*
D48*
X25349844Y18269843D02*
X25249844Y18269843D01*
X25389844Y18229843D02*
X25349844Y18269843D01*
D49*
X13439844Y9319843D02*
X13879844Y9319843D01*
X14639844Y10079843D02*
X15029844Y10079843D01*
X13879844Y9319843D02*
X14639844Y10079843D01*
X13439844Y9319843D02*
X12119844Y9319843D01*
X12119844Y9319843D02*
X11069844Y9319843D01*
X6589844Y6569843D02*
X6589844Y8329843D01*
X23809844Y19419843D02*
X24099844Y19419843D01*
X24099844Y19419843D02*
X25249844Y18269843D01*
X25249844Y18269843D02*
X25309844Y18269843D01*
D48*
X20709844Y21349843D02*
X20709844Y20419843D01*
X21709844Y19419843D02*
X22809844Y19419843D01*
X22809844Y19419843D02*
X23809844Y19419843D01*
X20709844Y20419843D02*
X21709844Y19419843D01*
D49*
X9774844Y9319843D02*
X11069844Y9319843D01*
D48*
X-3200000Y-2575700D02*
X-3200000Y-1480313D01*
X11299844Y-550157D02*
X10079844Y-550157D01*
X-3200000Y-1480313D02*
X-3200156Y-1480157D01*
X10079844Y1649843D02*
X10599844Y1649843D01*
X10849844Y1399843D02*
X11479844Y1399843D01*
X10599844Y1649843D02*
X10849844Y1399843D01*
X-1730156Y-4070157D02*
X-3195857Y-4070157D01*
X-3195857Y-4070157D02*
X-3200000Y-4074300D01*
X17799844Y26419843D02*
X17779844Y26399843D01*
X17779844Y26399843D02*
X17799844Y26419843D01*
X17799844Y26419843D02*
X17799844Y26379843D01*
X10199844Y29539843D02*
X10199844Y29189843D01*
X16789844Y27389843D02*
X17359844Y26819843D01*
X15069844Y27389843D02*
X16789844Y27389843D01*
X10199844Y29119843D02*
X10569844Y28749843D01*
X10199844Y29189843D02*
X10199844Y29119843D01*
X3464687Y21195000D02*
X3249844Y21409843D01*
X3464687Y21195000D02*
X4785000Y21195000D01*
X12444844Y29539843D02*
X11469844Y29539843D01*
X19509844Y24669843D02*
X19509844Y23249843D01*
X17359844Y26819843D02*
X17799844Y26379843D01*
X17799844Y26379843D02*
X17859844Y26319843D01*
X17859844Y26319843D02*
X19509844Y24669843D01*
X12444844Y29539843D02*
X10199844Y29539843D01*
X12444844Y33349843D02*
X10209844Y33349843D01*
X10209844Y33349843D02*
X10199844Y33339843D01*
X10335000Y21195000D02*
X11595001Y21195000D01*
X15439844Y21989843D02*
X15439844Y22589843D01*
X15179844Y21729843D02*
X15439844Y21989843D01*
X12129844Y21729843D02*
X15179844Y21729843D01*
X11595001Y21195000D02*
X12129844Y21729843D01*
X1449844Y27629843D02*
X-156Y27629843D01*
X-156Y27629843D02*
X-10156Y27619843D01*
X6060000Y22970000D02*
X6060000Y23519687D01*
X1449844Y26759843D02*
X1449844Y27629843D01*
X1689844Y26519843D02*
X1449844Y26759843D01*
X3709844Y26519843D02*
X1689844Y26519843D01*
X4731842Y25497845D02*
X3709844Y26519843D01*
X4731842Y24847845D02*
X4731842Y25497845D01*
X6060000Y23519687D02*
X4731842Y24847845D01*
X4699844Y29829843D02*
X4699844Y26109843D01*
X6560000Y23499687D02*
X6560000Y22970000D01*
X5039844Y25019843D02*
X6560000Y23499687D01*
X5039844Y25769843D02*
X5039844Y25019843D01*
X4699844Y26109843D02*
X5039844Y25769843D01*
X3149844Y29829843D02*
X4699844Y29829843D01*
X6560000Y23279687D02*
X6560000Y22970000D01*
D50*
X7669844Y34539843D02*
X7669844Y36159843D01*
X7669844Y32959843D02*
X7669844Y34539843D01*
X7669844Y31549843D02*
X7669844Y32959843D01*
D48*
X3045001Y20695000D02*
X2429844Y20079843D01*
X4785000Y20695000D02*
X3045001Y20695000D01*
X18969844Y26149843D02*
X18969844Y26419843D01*
X18119844Y29539843D02*
X18949844Y28709843D01*
X18949844Y28709843D02*
X18949844Y27989843D01*
X18119844Y29539843D02*
X16514844Y29539843D01*
X19229844Y27709843D02*
X18949844Y27989843D01*
X19229844Y26679843D02*
X19229844Y27709843D01*
X18969844Y26419843D02*
X19229844Y26679843D01*
X19389844Y26149843D02*
X19909844Y25629843D01*
X18969844Y26149843D02*
X19389844Y26149843D01*
X19909844Y25629843D02*
X19909844Y23249843D01*
X13619844Y26149843D02*
X13289844Y26149843D01*
X13619844Y26149843D02*
X14619844Y26149843D01*
X16609844Y25169843D02*
X15629844Y26149843D01*
X14619844Y26149843D02*
X15629844Y26149843D01*
X13889844Y30809843D02*
X14469844Y30229843D01*
X13889844Y30809843D02*
X12444844Y30809843D01*
X16609844Y25169843D02*
X18499844Y25169843D01*
X18499844Y25169843D02*
X19109844Y24559843D01*
X11419107Y18695000D02*
X10335000Y18695000D01*
X11854264Y18259843D02*
X11419107Y18695000D01*
X14149844Y18259843D02*
X11854264Y18259843D01*
X14259844Y18369843D02*
X14149844Y18259843D01*
X19109844Y24559843D02*
X19109844Y24579843D01*
X19109844Y24559843D02*
X19109844Y23249843D01*
X11354687Y19195000D02*
X11949844Y18599843D01*
X11949844Y18599843D02*
X13529844Y18599843D01*
X13529844Y18599843D02*
X14089844Y19159843D01*
X14089844Y19159843D02*
X14089844Y19439843D01*
X10335000Y19195000D02*
X11354687Y19195000D01*
X16514844Y30809843D02*
X20349844Y30809843D01*
X20349844Y30809843D02*
X22443840Y30809843D01*
X21509844Y24249843D02*
X21509844Y23249843D01*
X23393840Y26133839D02*
X21509844Y24249843D01*
X23393840Y29859843D02*
X23393840Y26133839D01*
X22443840Y30809843D02*
X23393840Y29859843D01*
X15399844Y25339843D02*
X17189844Y23549843D01*
X17189844Y23249843D02*
X17189844Y23549843D01*
X14489844Y31329843D02*
X13739844Y32079843D01*
X15249844Y25489843D02*
X15399844Y25339843D01*
X14119844Y25489843D02*
X15249844Y25489843D01*
X12444844Y32079843D02*
X13739844Y32079843D01*
X18709844Y23249843D02*
X17189844Y23249843D01*
X12979844Y21209843D02*
X12979844Y20689843D01*
X17189844Y23249843D02*
X15361842Y21421841D01*
X15361842Y21421841D02*
X13191842Y21421841D01*
X13191842Y21421841D02*
X12979844Y21209843D01*
X12444844Y32079843D02*
X11319844Y32079843D01*
X10335000Y20695000D02*
X12974687Y20695000D01*
X12974687Y20695000D02*
X12979844Y20689843D01*
X11354687Y19695000D02*
X11719844Y19329843D01*
X11719844Y19329843D02*
X13069844Y19329843D01*
X10335000Y19695000D02*
X11354687Y19695000D01*
X19419844Y32079843D02*
X21869844Y32079843D01*
X21909844Y24149843D02*
X21909844Y23249843D01*
X23701842Y25941841D02*
X21909844Y24149843D01*
X23701842Y30247845D02*
X23701842Y25941841D01*
X21869844Y32079843D02*
X23701842Y30247845D01*
X19419844Y32079843D02*
X16514844Y32079843D01*
X12034687Y20195000D02*
X10335000Y20195000D01*
X12034687Y20195000D02*
X12239844Y19989843D01*
X19009844Y33349843D02*
X21069844Y33349843D01*
X23119844Y23249843D02*
X22309844Y23249843D01*
X24009844Y24139843D02*
X23119844Y23249843D01*
X24009844Y30409843D02*
X24009844Y24139843D01*
X21069844Y33349843D02*
X24009844Y30409843D01*
X19009844Y33349843D02*
X18729844Y33349843D01*
X18729844Y33349843D02*
X16514844Y33349843D01*
X9560000Y22970000D02*
X12200001Y22970000D01*
X12779844Y23549843D02*
X12779844Y24199843D01*
X12200001Y22970000D02*
X12779844Y23549843D01*
X7560000Y22970000D02*
X7560000Y23699687D01*
X7059844Y24199843D02*
X7059844Y24609843D01*
X7560000Y23699687D02*
X7059844Y24199843D01*
X7200000Y24600000D02*
X6780000Y24600000D01*
X8060000Y22970000D02*
X8060000Y23579999D01*
X8859844Y24379843D02*
X8859844Y24609843D01*
X8060000Y23579999D02*
X8859844Y24379843D01*
X8460000Y24600000D02*
X8780000Y24600000D01*
X21009844Y9749843D02*
X15999844Y9749843D01*
X4429844Y6179843D02*
X4429844Y6839843D01*
X4429844Y6839843D02*
X2949844Y8319843D01*
X-187460Y8149100D02*
X1029101Y8149100D01*
X21009844Y9749843D02*
X23159844Y11899843D01*
X1199844Y8319843D02*
X2949844Y8319843D01*
X1029101Y8149100D02*
X1199844Y8319843D01*
X14919844Y8669843D02*
X14489844Y8669843D01*
X15999844Y9749843D02*
X14919844Y8669843D01*
X24429844Y9299843D02*
X23967846Y8837845D01*
X23967846Y8837845D02*
X22577846Y8837845D01*
X13849844Y5025423D02*
X13849844Y5019843D01*
X17662266Y8837845D02*
X22577846Y8837845D01*
X17662266Y8837845D02*
X13849844Y5025423D01*
X5879844Y5669843D02*
X6589844Y5669843D01*
X5519844Y5309843D02*
X5879844Y5669843D01*
X7789844Y5669843D02*
X6589844Y5669843D01*
X25319844Y8779843D02*
X25069844Y8529843D01*
X25069844Y8529843D02*
X24529844Y8529843D01*
X6589844Y3629843D02*
X6589844Y3069843D01*
X24529844Y8529843D02*
X17789844Y8529843D01*
X14699844Y5439843D02*
X17789844Y8529843D01*
X14699844Y4409843D02*
X14699844Y5439843D01*
X6589844Y3629843D02*
X6839844Y3879843D01*
X7789844Y3469843D02*
X7529844Y3469843D01*
X7529844Y3469843D02*
X7129844Y3069843D01*
X7129844Y3069843D02*
X6589844Y3069843D01*
X-187460Y7499100D02*
X1519101Y7499100D01*
X1519101Y7499100D02*
X1539844Y7519843D01*
X-186560Y7500000D02*
X-187460Y7499100D01*
X2029101Y6849100D02*
X-187460Y6849100D01*
X2519844Y7339843D02*
X2029101Y6849100D01*
X-138360Y6800000D02*
X-187460Y6849100D01*
D49*
X11169844Y3469843D02*
X11169844Y3929843D01*
X13009844Y5399843D02*
X13689844Y6079843D01*
X13009844Y4949843D02*
X13009844Y5399843D01*
X12439844Y4379843D02*
X13009844Y4949843D01*
X11619844Y4379843D02*
X12439844Y4379843D01*
X11169844Y3929843D02*
X11619844Y4379843D01*
X16399844Y14849843D02*
X16139844Y15109843D01*
X16399844Y10949843D02*
X16399844Y14849843D01*
X6759844Y859843D02*
X6259844Y859843D01*
X5789844Y389843D02*
X3301624Y389843D01*
X6259844Y859843D02*
X5789844Y389843D01*
X8179844Y1649843D02*
X7809844Y1649843D01*
X7369844Y859843D02*
X6759844Y859843D01*
X7479844Y969843D02*
X7369844Y859843D01*
X7479844Y1319843D02*
X7479844Y969843D01*
X7809844Y1649843D02*
X7479844Y1319843D01*
X1699844Y-1800157D02*
X3301624Y-198377D01*
X3301624Y-198377D02*
X3301624Y389843D01*
X-830156Y-4070157D02*
X-570156Y-4070157D01*
X-570156Y-4070157D02*
X1699844Y-1800157D01*
X3639844Y2889843D02*
X3639844Y3719843D01*
X3904844Y3984843D02*
X3904844Y4629843D01*
X3639844Y3719843D02*
X3904844Y3984843D01*
X3301624Y389843D02*
X3301624Y1081623D01*
X3301624Y1081623D02*
X3639844Y1419843D01*
X3639844Y1419843D02*
X3639844Y2889843D01*
X8559844Y15649843D02*
X8569844Y15649843D01*
X11169844Y3469843D02*
X9689844Y3469843D01*
X8179844Y1649843D02*
X8749844Y1649843D01*
X9689844Y2809843D02*
X9689844Y3469843D01*
X9109844Y2229843D02*
X9689844Y2809843D01*
X9109844Y2009843D02*
X9109844Y2229843D01*
X8749844Y1649843D02*
X9109844Y2009843D01*
X-187460Y17699100D02*
X1180587Y17699100D01*
X1180587Y17699100D02*
X3229844Y15649843D01*
X3229844Y15649843D02*
X8569844Y15649843D01*
X8939844Y15279843D02*
X8939844Y14629843D01*
X8569844Y15649843D02*
X8939844Y15279843D01*
X8474844Y13319843D02*
X8474844Y13834843D01*
X8939844Y14299843D02*
X8939844Y14629843D01*
X8474844Y13834843D02*
X8939844Y14299843D01*
D48*
X18219844Y21349843D02*
X18709844Y21349843D01*
X17629844Y21939843D02*
X18219844Y21349843D01*
X24289844Y14619843D02*
X24239844Y14669843D01*
X20589844Y16434263D02*
X21384264Y15639843D01*
X20589844Y16434263D02*
X20589844Y18573103D01*
X20589844Y18573103D02*
X19109844Y20053103D01*
X19109844Y21349843D02*
X19109844Y20053103D01*
X23269844Y15639843D02*
X24239844Y14669843D01*
X21384264Y15639843D02*
X23269844Y15639843D01*
X24519844Y14389843D02*
X24289844Y14619843D01*
X24849844Y14389843D02*
X24519844Y14389843D01*
X24819844Y19759843D02*
X24407846Y20171841D01*
X25299844Y19279843D02*
X24819844Y19759843D01*
X21509844Y20469843D02*
X21509844Y21349843D01*
X21807846Y20171841D02*
X21509844Y20469843D01*
X24407846Y20171841D02*
X21807846Y20171841D01*
X24369844Y20489843D02*
X24369844Y20479843D01*
X24379844Y20479843D02*
X24369844Y20489843D01*
X25109844Y20479843D02*
X24379844Y20479843D01*
X25289844Y20299843D02*
X25109844Y20479843D01*
X21909844Y20629843D02*
X21909844Y21349843D01*
X22059844Y20479843D02*
X21909844Y20629843D01*
X24459844Y20479843D02*
X24369844Y20479843D01*
X24369844Y20479843D02*
X22059844Y20479843D01*
X25299844Y21349843D02*
X22309844Y21349843D01*
X21619844Y16299843D02*
X21614844Y16294843D01*
X24229844Y16299843D02*
X21619844Y16299843D01*
X19909844Y20124263D02*
X19909844Y21349843D01*
X21239844Y18794263D02*
X19909844Y20124263D01*
X21239844Y16669843D02*
X21239844Y18794263D01*
X21614844Y16294843D02*
X21239844Y16669843D01*
X24599844Y15359843D02*
X24149844Y15359843D01*
X23559844Y15949843D02*
X21509844Y15949843D01*
X24149844Y15359843D02*
X23559844Y15949843D01*
X21509844Y15949843D02*
X20909844Y16549843D01*
X20909844Y16549843D02*
X20909844Y18688683D01*
X20909844Y18688683D02*
X19509844Y20088683D01*
X19509844Y21349843D02*
X19509844Y20088683D01*
X25429844Y11979843D02*
X25429844Y11179843D01*
X25429844Y11179843D02*
X25419844Y11169843D01*
X10029844Y7969843D02*
X14819844Y7969843D01*
X16259844Y9409843D02*
X22079844Y9409843D01*
X14819844Y7969843D02*
X16259844Y9409843D01*
X23539844Y9409843D02*
X22079844Y9409843D01*
X24169844Y10039843D02*
X23539844Y9409843D01*
X24289844Y10039843D02*
X24169844Y10039843D01*
X25419844Y11169843D02*
X24289844Y10039843D01*
X12179844Y11909843D02*
X12179844Y12809843D01*
X15339844Y15969843D02*
X13049844Y13679843D01*
X12179844Y12809843D02*
X13049844Y13679843D01*
X16019844Y17659843D02*
X16069844Y17609843D01*
X15999844Y17639843D02*
X16019844Y17659843D01*
X17369844Y28269843D02*
X18559844Y27079843D01*
X21362054Y24537633D02*
X21022054Y24537633D01*
X21637054Y24812633D02*
X21362054Y24537633D01*
X22449844Y25625423D02*
X21637054Y24812633D01*
X22449844Y26109843D02*
X22449844Y25625423D01*
X21022054Y24537633D02*
X21009844Y24549843D01*
X16514844Y28269843D02*
X17369844Y28269843D01*
X5879844Y24669843D02*
X5749844Y24799843D01*
X7060000Y22970000D02*
X7060000Y23489687D01*
X7060000Y23489687D02*
X5879844Y24669843D01*
X5749844Y24799843D02*
X5749844Y25309843D01*
D49*
X5749844Y25309843D02*
X5649844Y25409843D01*
X5649844Y25409843D02*
X5649844Y26519843D01*
X15089844Y20689843D02*
X15089844Y18589843D01*
X15089844Y18589843D02*
X16069844Y17609843D01*
X11529844Y17609843D02*
X16069844Y17609843D01*
X16069844Y17609843D02*
X17199844Y16479843D01*
X17199844Y11579843D02*
X17199844Y16479843D01*
X10199844Y31479843D02*
X10199844Y32439843D01*
X10199844Y31479843D02*
X10199844Y30439843D01*
X9100000Y23795000D02*
X11034687Y23795000D01*
X11034687Y23795000D02*
X11189844Y23639843D01*
X11489844Y24659843D02*
X10289844Y24659843D01*
X11489844Y23939843D02*
X11489844Y24659843D01*
X11189844Y23639843D02*
X11489844Y23939843D01*
X8789844Y16429843D02*
X10349844Y16429843D01*
X11549844Y22149843D02*
X11595001Y22195000D01*
X10349844Y16429843D02*
X11529844Y17609843D01*
X3650000Y18200000D02*
X3650000Y17159687D01*
X9060000Y16699999D02*
X9060000Y17420000D01*
X8739844Y16379843D02*
X8789844Y16429843D01*
X8789844Y16429843D02*
X9060000Y16699999D01*
X4429844Y16379843D02*
X8739844Y16379843D01*
X3650000Y17159687D02*
X4429844Y16379843D01*
X3650000Y18200000D02*
X2540001Y18200000D01*
X2539844Y18199843D02*
X2540001Y18200000D01*
D48*
X16514844Y28269843D02*
X17619844Y28269843D01*
X20709844Y23249843D02*
X20709844Y23899843D01*
X21009844Y24199843D02*
X21009844Y24549843D01*
X20709844Y23899843D02*
X21009844Y24199843D01*
D49*
X15249844Y20689843D02*
X13879844Y20689843D01*
X10335000Y21695000D02*
X11095001Y21695000D01*
X11095001Y21695000D02*
X11595001Y22195000D01*
X10335000Y22195000D02*
X11595001Y22195000D01*
X11969844Y22569843D02*
X13079844Y22569843D01*
X11595001Y22195000D02*
X11969844Y22569843D01*
X5560000Y22970000D02*
X4070000Y22970000D01*
X3790000Y23250000D02*
X3790000Y23680000D01*
X4070000Y22970000D02*
X3790000Y23250000D01*
X4785000Y18195000D02*
X3655000Y18195000D01*
X3655000Y18195000D02*
X3650000Y18200000D01*
X8560000Y23255000D02*
X9100000Y23795000D01*
X9060000Y22970000D02*
X9060000Y23755000D01*
X9060000Y23755000D02*
X9100000Y23795000D01*
X8560000Y22970000D02*
X8560000Y23255000D01*
D48*
X-850156Y25609843D02*
X-850156Y26269843D01*
X-2000700Y27420387D02*
X-2000700Y28340000D01*
X-850156Y26269843D02*
X-2000700Y27420387D01*
X-2000700Y25300000D02*
X-2000700Y24650387D01*
X-1660156Y24309843D02*
X-850156Y24309843D01*
X-2000700Y24650387D02*
X-1660156Y24309843D01*
X7969844Y6909843D02*
X8459844Y6909843D01*
X8739844Y6629843D02*
X8739844Y5669843D01*
X8459844Y6909843D02*
X8739844Y6629843D01*
X10799844Y10994843D02*
X12164844Y10994843D01*
X12164844Y10994843D02*
X12179844Y11009843D01*
X9124844Y9319843D02*
X9124844Y7974843D01*
X9124844Y7974843D02*
X9129844Y7969843D01*
D50*
X8859844Y25909843D02*
X8859844Y27029843D01*
X8859844Y27029843D02*
X8979844Y27149843D01*
D51*
X8780000Y27149687D02*
X8779844Y27149843D01*
D50*
X7479844Y27149843D02*
X7479844Y28409843D01*
X7479844Y28409843D02*
X7669844Y28599843D01*
X7669844Y28599843D02*
X7669844Y30049843D01*
D51*
X7679844Y28589843D02*
X7669844Y28599843D01*
D48*
X6799844Y11644843D02*
X6234844Y11644843D01*
X5979844Y11899843D02*
X5549844Y11899843D01*
X6234844Y11644843D02*
X5979844Y11899843D01*
X6799844Y10994843D02*
X6294844Y10994843D01*
X6059844Y10759843D02*
X5559844Y10759843D01*
X6294844Y10994843D02*
X6059844Y10759843D01*
X4785000Y22195000D02*
X3884687Y22195000D01*
X469844Y25609843D02*
X49844Y25609843D01*
X3884687Y22195000D02*
X469844Y25609843D01*
X4785000Y21695000D02*
X3949107Y21695000D01*
X1334264Y24309843D02*
X49844Y24309843D01*
X3949107Y21695000D02*
X1334264Y24309843D01*
X6799844Y12294843D02*
X6799844Y12859843D01*
X6509844Y13149843D02*
X5709844Y13149843D01*
X6799844Y12859843D02*
X6509844Y13149843D01*
X-187460Y18999100D02*
X-1120899Y18999100D01*
X2919844Y10749843D02*
X3529844Y10749843D01*
X2579844Y11089843D02*
X2919844Y10749843D01*
X2579844Y11974263D02*
X2579844Y11089843D01*
X-1820156Y16374263D02*
X2579844Y11974263D01*
X-1820156Y18299843D02*
X-1820156Y16374263D01*
X-1120899Y18999100D02*
X-1820156Y18299843D01*
X4659844Y10759843D02*
X3539844Y10759843D01*
X3539844Y10759843D02*
X3529844Y10749843D01*
X3529844Y11899843D02*
X3089844Y11899843D01*
X-1080899Y18349100D02*
X-187460Y18349100D01*
X-1470156Y17959843D02*
X-1080899Y18349100D01*
X-1470156Y16459843D02*
X-1470156Y17959843D01*
X3089844Y11899843D02*
X-1470156Y16459843D01*
X4649844Y11899843D02*
X3529844Y11899843D01*
D49*
X6199844Y4749843D02*
X5959844Y4509843D01*
X9689844Y4959843D02*
X9479844Y4749843D01*
X9479844Y4749843D02*
X6199844Y4749843D01*
X9689844Y5669843D02*
X9689844Y4959843D01*
X2099844Y5389843D02*
X1794844Y5694843D01*
X4309844Y5389843D02*
X2099844Y5389843D01*
X5189844Y4509843D02*
X4309844Y5389843D01*
X5959844Y4509843D02*
X5189844Y4509843D01*
X-187460Y6199100D02*
X1290587Y6199100D01*
X1290587Y6199100D02*
X1794844Y5694843D01*
X1794844Y5694843D02*
X1794844Y4629843D01*
X11429844Y5269843D02*
X10829844Y5269843D01*
X10829844Y5269843D02*
X10429844Y5669843D01*
X10429844Y5669843D02*
X9689844Y5669843D01*
X-187460Y6199100D02*
X287540Y6199100D01*
D48*
X2469844Y-3159757D02*
X2469844Y-3820157D01*
X6989844Y-4320157D02*
X5809844Y-4320157D01*
X7399844Y-4730157D02*
X6989844Y-4320157D01*
D49*
X5300604Y-560157D02*
X5300604Y-2080917D01*
X5300604Y-2080917D02*
X5309844Y-2090157D01*
D48*
X5309844Y-2090157D02*
X5309844Y-3350157D01*
X1453844Y-3159757D02*
X2469844Y-3159757D01*
X2469844Y-3159757D02*
X5119444Y-3159757D01*
X5309844Y-3350157D02*
X5309844Y-3820157D01*
X5119444Y-3159757D02*
X5309844Y-3350157D01*
X4809844Y-3820157D02*
X3485844Y-3820157D01*
X5309844Y-4320157D02*
X5309844Y-5640157D01*
X4615001Y-6335000D02*
X3930000Y-6335000D01*
X5309844Y-5640157D02*
X4615001Y-6335000D01*
D10*
G36*
X6669671Y34341803D02*
X6821591Y33974129D01*
X7102650Y33692579D01*
X7169844Y33664678D01*
X7169844Y33567575D01*
X7096869Y33520616D01*
X7042893Y33650925D01*
X6885926Y33807893D01*
X6680837Y33892843D01*
X6509344Y33892843D01*
X6369844Y33753343D01*
X6369844Y33147343D01*
X6393844Y33147343D01*
X6393844Y32772343D01*
X6369844Y32772343D01*
X6369844Y32166343D01*
X6509344Y32026843D01*
X6680837Y32026843D01*
X6885926Y32111793D01*
X7042893Y32268761D01*
X7097317Y32400152D01*
X7169844Y32350596D01*
X7169844Y32166487D01*
X7117112Y32132555D01*
X7060029Y32049012D01*
X7039947Y31949843D01*
X7039947Y31149843D01*
X7057379Y31057199D01*
X7112132Y30972111D01*
X7195675Y30915028D01*
X7294844Y30894946D01*
X8044844Y30894946D01*
X8137488Y30912378D01*
X8222576Y30967131D01*
X8279659Y31050674D01*
X8299741Y31149843D01*
X8299741Y31949843D01*
X8282309Y32042487D01*
X8227556Y32127575D01*
X8169844Y32167008D01*
X8169844Y32352111D01*
X8247576Y32402131D01*
X8304659Y32485674D01*
X8324741Y32584843D01*
X8324741Y33334843D01*
X8307309Y33427487D01*
X8252556Y33512575D01*
X8169844Y33569090D01*
X8169844Y33664437D01*
X8235558Y33691590D01*
X8517108Y33972649D01*
X8669670Y34340058D01*
X8669862Y34560000D01*
X25775000Y34560000D01*
X25775000Y21820933D01*
X25679353Y21916747D01*
X25433520Y22018826D01*
X25167336Y22019058D01*
X24921325Y21917409D01*
X24732940Y21729352D01*
X24711136Y21676843D01*
X22664741Y21676843D01*
X22664741Y21874843D01*
X22647309Y21967487D01*
X22592556Y22052575D01*
X22509013Y22109658D01*
X22409844Y22129740D01*
X22209844Y22129740D01*
X22117200Y22112308D01*
X22110986Y22108310D01*
X22109013Y22109658D01*
X22009844Y22129740D01*
X21809844Y22129740D01*
X21717200Y22112308D01*
X21710986Y22108310D01*
X21709013Y22109658D01*
X21609844Y22129740D01*
X21409844Y22129740D01*
X21317200Y22112308D01*
X21310986Y22108310D01*
X21309013Y22109658D01*
X21209844Y22129740D01*
X21009844Y22129740D01*
X20917200Y22112308D01*
X20910986Y22108310D01*
X20909013Y22109658D01*
X20809844Y22129740D01*
X20609844Y22129740D01*
X20517200Y22112308D01*
X20510986Y22108310D01*
X20509013Y22109658D01*
X20409844Y22129740D01*
X20209844Y22129740D01*
X20117200Y22112308D01*
X20110986Y22108310D01*
X20109013Y22109658D01*
X20009844Y22129740D01*
X19809844Y22129740D01*
X19717200Y22112308D01*
X19710986Y22108310D01*
X19709013Y22109658D01*
X19609844Y22129740D01*
X19409844Y22129740D01*
X19317200Y22112308D01*
X19310986Y22108310D01*
X19309013Y22109658D01*
X19209844Y22129740D01*
X19009844Y22129740D01*
X18917200Y22112308D01*
X18910986Y22108310D01*
X18909013Y22109658D01*
X18809844Y22129740D01*
X18609844Y22129740D01*
X18517200Y22112308D01*
X18432112Y22057555D01*
X18375029Y21974012D01*
X18354947Y21874843D01*
X18354947Y21677188D01*
X18277450Y21754685D01*
X18298827Y21806167D01*
X18299059Y22072351D01*
X18197410Y22318362D01*
X18009353Y22506747D01*
X17763520Y22608826D01*
X17497336Y22609058D01*
X17251325Y22507409D01*
X17062940Y22319352D01*
X16960861Y22073519D01*
X16960629Y21807335D01*
X17036859Y21622843D01*
X16929344Y21622843D01*
X16789844Y21483343D01*
X16789844Y20877343D01*
X17408344Y20877343D01*
X17547844Y21016843D01*
X17547844Y21175836D01*
X17508488Y21270849D01*
X17762352Y21270628D01*
X17814899Y21292340D01*
X17988620Y21118619D01*
X18094706Y21047734D01*
X18219844Y21022843D01*
X18354947Y21022843D01*
X18354947Y20824843D01*
X18372379Y20732199D01*
X18427132Y20647111D01*
X18510675Y20590028D01*
X18609844Y20569946D01*
X18782844Y20569946D01*
X18782844Y20053103D01*
X18807735Y19927965D01*
X18878620Y19821879D01*
X20262844Y18437655D01*
X20262844Y16434263D01*
X20287735Y16309125D01*
X20358620Y16203039D01*
X21153040Y15408619D01*
X21259126Y15337734D01*
X21384264Y15312843D01*
X23134396Y15312843D01*
X24180637Y14266602D01*
X24180629Y14257335D01*
X24282278Y14011324D01*
X24470335Y13822939D01*
X24716168Y13720860D01*
X24982352Y13720628D01*
X25228363Y13822277D01*
X25416748Y14010334D01*
X25518827Y14256167D01*
X25519059Y14522351D01*
X25417410Y14768362D01*
X25229353Y14956747D01*
X25167601Y14982389D01*
X25268827Y15226167D01*
X25269059Y15492351D01*
X25167410Y15738362D01*
X24979353Y15926747D01*
X24825874Y15990477D01*
X24898827Y16166167D01*
X24899059Y16432351D01*
X24797410Y16678362D01*
X24609353Y16866747D01*
X24363520Y16968826D01*
X24097336Y16969058D01*
X23851325Y16867409D01*
X23662940Y16679352D01*
X23641136Y16626843D01*
X21745292Y16626843D01*
X21566844Y16805291D01*
X21566844Y18030343D01*
X23001844Y18030343D01*
X23001844Y17908850D01*
X23086794Y17703761D01*
X23243762Y17546794D01*
X23448851Y17461843D01*
X23545344Y17461843D01*
X23684844Y17601343D01*
X23684844Y18169843D01*
X23934844Y18169843D01*
X23934844Y17601343D01*
X24074344Y17461843D01*
X24170837Y17461843D01*
X24375926Y17546794D01*
X24532894Y17703761D01*
X24617844Y17908850D01*
X24617844Y18030343D01*
X24478344Y18169843D01*
X23934844Y18169843D01*
X23684844Y18169843D01*
X23141344Y18169843D01*
X23001844Y18030343D01*
X21566844Y18030343D01*
X21566844Y18794263D01*
X21554219Y18857734D01*
X21541953Y18919401D01*
X21471068Y19025487D01*
X20236844Y20259711D01*
X20236844Y20430395D01*
X21478620Y19188619D01*
X21584706Y19117734D01*
X21709844Y19092843D01*
X23243713Y19092843D01*
X23086794Y18935925D01*
X23001844Y18730836D01*
X23001844Y18609343D01*
X23141344Y18469843D01*
X23684844Y18469843D01*
X23684844Y18543843D01*
X23934844Y18543843D01*
X23934844Y18469843D01*
X24478344Y18469843D01*
X24481251Y18472750D01*
X24720747Y18233254D01*
X24720629Y18097335D01*
X24822278Y17851324D01*
X25010335Y17662939D01*
X25256168Y17560860D01*
X25522352Y17560628D01*
X25768363Y17662277D01*
X25775000Y17668902D01*
X25775000Y13635164D01*
X25573520Y13718826D01*
X25307336Y13719058D01*
X25061325Y13617409D01*
X24872940Y13429352D01*
X24770861Y13183519D01*
X24770788Y13099843D01*
X22399849Y13099843D01*
X22399844Y13099844D01*
X22246771Y13069395D01*
X22117001Y12982686D01*
X22116999Y12982683D01*
X19684158Y10549843D01*
X16946221Y10549843D01*
X16966748Y10570334D01*
X17068827Y10816167D01*
X17068910Y10910858D01*
X17332352Y10910628D01*
X17578363Y11012277D01*
X17766748Y11200334D01*
X17868827Y11446167D01*
X17869059Y11712351D01*
X17767410Y11958362D01*
X17599844Y12126220D01*
X17599844Y16479843D01*
X17569396Y16632916D01*
X17482687Y16762686D01*
X17482684Y16762688D01*
X16668888Y17576484D01*
X16669059Y17772351D01*
X16567410Y18018362D01*
X16379353Y18206747D01*
X16133520Y18308826D01*
X15936375Y18308998D01*
X15489844Y18755529D01*
X15489844Y20059946D01*
X15582488Y20077378D01*
X15662819Y20129070D01*
X15716795Y19998761D01*
X15873762Y19841793D01*
X16078851Y19756843D01*
X16250344Y19756843D01*
X16389844Y19896343D01*
X16389844Y20502343D01*
X16789844Y20502343D01*
X16789844Y19896343D01*
X16929344Y19756843D01*
X17100837Y19756843D01*
X17305926Y19841793D01*
X17462893Y19998761D01*
X17547844Y20203850D01*
X17547844Y20362843D01*
X17408344Y20502343D01*
X16789844Y20502343D01*
X16389844Y20502343D01*
X16365844Y20502343D01*
X16365844Y20877343D01*
X16389844Y20877343D01*
X16389844Y21483343D01*
X16250344Y21622843D01*
X16078851Y21622843D01*
X15987421Y21584972D01*
X17325292Y22922843D01*
X18354947Y22922843D01*
X18354947Y22724843D01*
X18372379Y22632199D01*
X18427132Y22547111D01*
X18510675Y22490028D01*
X18609844Y22469946D01*
X18809844Y22469946D01*
X18902488Y22487378D01*
X18908702Y22491376D01*
X18910675Y22490028D01*
X19009844Y22469946D01*
X19209844Y22469946D01*
X19302488Y22487378D01*
X19308702Y22491376D01*
X19310675Y22490028D01*
X19409844Y22469946D01*
X19609844Y22469946D01*
X19702488Y22487378D01*
X19703863Y22488263D01*
X19736794Y22408761D01*
X19893762Y22251794D01*
X20098851Y22166843D01*
X20120344Y22166843D01*
X20259844Y22306343D01*
X20259844Y22700661D01*
X20264741Y22724843D01*
X20264741Y23774843D01*
X20259844Y23800869D01*
X20259844Y24193343D01*
X20236844Y24216343D01*
X20236844Y25154352D01*
X20286794Y25033761D01*
X20443762Y24876794D01*
X20505247Y24851326D01*
X20504947Y24849843D01*
X20504947Y24332843D01*
X20499344Y24332843D01*
X20359844Y24193343D01*
X20359844Y23799025D01*
X20354947Y23774843D01*
X20354947Y22724843D01*
X20359844Y22698817D01*
X20359844Y22306343D01*
X20499344Y22166843D01*
X20520837Y22166843D01*
X20725926Y22251794D01*
X20882894Y22408761D01*
X20916101Y22488929D01*
X21009844Y22469946D01*
X21209844Y22469946D01*
X21302488Y22487378D01*
X21308702Y22491376D01*
X21310675Y22490028D01*
X21409844Y22469946D01*
X21609844Y22469946D01*
X21702488Y22487378D01*
X21708702Y22491376D01*
X21710675Y22490028D01*
X21809844Y22469946D01*
X22009844Y22469946D01*
X22102488Y22487378D01*
X22108702Y22491376D01*
X22110675Y22490028D01*
X22209844Y22469946D01*
X22409844Y22469946D01*
X22502488Y22487378D01*
X22587576Y22542131D01*
X22644659Y22625674D01*
X22664741Y22724843D01*
X22664741Y22922843D01*
X23119844Y22922843D01*
X23244982Y22947734D01*
X23351068Y23018619D01*
X24241068Y23908619D01*
X24277299Y23962843D01*
X24311953Y24014706D01*
X24336844Y24139843D01*
X24336844Y30409843D01*
X24316567Y30511783D01*
X24311953Y30534981D01*
X24241068Y30641067D01*
X23650664Y31231471D01*
X23870323Y31140261D01*
X24467059Y31139740D01*
X25018572Y31367620D01*
X25440897Y31789209D01*
X25669739Y32340323D01*
X25670260Y32937059D01*
X25442380Y33488572D01*
X25020791Y33910897D01*
X24469677Y34139739D01*
X23872941Y34140260D01*
X23321428Y33912380D01*
X22899103Y33490791D01*
X22670261Y32939677D01*
X22669740Y32342941D01*
X22761661Y32120474D01*
X21301068Y33581067D01*
X21194982Y33651952D01*
X21069844Y33676843D01*
X19318697Y33676843D01*
X19297410Y33728362D01*
X19109353Y33916747D01*
X18863520Y34018826D01*
X18597336Y34019058D01*
X18351325Y33917409D01*
X18162940Y33729352D01*
X18141136Y33676843D01*
X18084916Y33676843D01*
X18010477Y33788249D01*
X17809335Y33922648D01*
X17572071Y33969843D01*
X15457617Y33969843D01*
X15220353Y33922648D01*
X15019211Y33788249D01*
X14884812Y33587107D01*
X14839875Y33361192D01*
X14626686Y33449716D01*
X14334285Y33449971D01*
X14119784Y33361340D01*
X14074876Y33587107D01*
X13940477Y33788249D01*
X13739335Y33922648D01*
X13502071Y33969843D01*
X11387617Y33969843D01*
X11150353Y33922648D01*
X10949211Y33788249D01*
X10874772Y33676843D01*
X10708767Y33676843D01*
X10682556Y33717575D01*
X10599013Y33774658D01*
X10499844Y33794740D01*
X9899844Y33794740D01*
X9807200Y33777308D01*
X9722112Y33722555D01*
X9665029Y33639012D01*
X9644947Y33539843D01*
X9644947Y33139843D01*
X9662379Y33047199D01*
X9717132Y32962111D01*
X9800675Y32905028D01*
X9874774Y32890023D01*
X9807200Y32877308D01*
X9722112Y32822555D01*
X9665029Y32739012D01*
X9644947Y32639843D01*
X9644947Y32239843D01*
X9662379Y32147199D01*
X9717132Y32062111D01*
X9787730Y32013873D01*
X9632940Y31859352D01*
X9530861Y31613519D01*
X9530629Y31347335D01*
X9632278Y31101324D01*
X9799844Y30933466D01*
X9799844Y30872575D01*
X9722112Y30822555D01*
X9665029Y30739012D01*
X9644947Y30639843D01*
X9644947Y30239843D01*
X9662379Y30147199D01*
X9717132Y30062111D01*
X9800675Y30005028D01*
X9874774Y29990023D01*
X9807200Y29977308D01*
X9722112Y29922555D01*
X9665029Y29839012D01*
X9644947Y29739843D01*
X9644947Y29532843D01*
X9509344Y29532843D01*
X9369844Y29393343D01*
X9369844Y28787343D01*
X9393844Y28787343D01*
X9393844Y28412343D01*
X9369844Y28412343D01*
X9369844Y28375843D01*
X8969844Y28375843D01*
X8969844Y28412343D01*
X8945844Y28412343D01*
X8945844Y28787343D01*
X8969844Y28787343D01*
X8969844Y29393343D01*
X8830344Y29532843D01*
X8658851Y29532843D01*
X8453762Y29447893D01*
X8296795Y29290925D01*
X8242371Y29159534D01*
X8169844Y29209090D01*
X8169844Y29433199D01*
X8222576Y29467131D01*
X8279659Y29550674D01*
X8299741Y29649843D01*
X8299741Y30449843D01*
X8282309Y30542487D01*
X8227556Y30627575D01*
X8144013Y30684658D01*
X8044844Y30704740D01*
X7294844Y30704740D01*
X7202200Y30687308D01*
X7117112Y30632555D01*
X7060029Y30549012D01*
X7039947Y30449843D01*
X7039947Y29649843D01*
X7057379Y29557199D01*
X7112132Y29472111D01*
X7169844Y29432678D01*
X7169844Y29207575D01*
X7092112Y29157555D01*
X7035029Y29074012D01*
X7014947Y28974843D01*
X7014947Y28586319D01*
X6979844Y28409843D01*
X6979844Y27757575D01*
X6902112Y27707555D01*
X6845029Y27624012D01*
X6824947Y27524843D01*
X6824947Y26774843D01*
X6842379Y26682199D01*
X6867704Y26642843D01*
X6855842Y26642843D01*
X6855842Y26503345D01*
X6716344Y26642843D01*
X6448851Y26642843D01*
X6243762Y26557892D01*
X6154741Y26468872D01*
X6154741Y26819843D01*
X6154460Y26821334D01*
X6215926Y26846794D01*
X6372894Y27003761D01*
X6457844Y27208850D01*
X6457844Y27330343D01*
X6318344Y27469843D01*
X5774844Y27469843D01*
X5774844Y27395843D01*
X5524844Y27395843D01*
X5524844Y27469843D01*
X5425844Y27469843D01*
X5425844Y27769843D01*
X5524844Y27769843D01*
X5524844Y28338343D01*
X5774844Y28338343D01*
X5774844Y27769843D01*
X6318344Y27769843D01*
X6457844Y27909343D01*
X6457844Y28030836D01*
X6372894Y28235925D01*
X6215926Y28392892D01*
X6010837Y28477843D01*
X5914344Y28477843D01*
X5774844Y28338343D01*
X5524844Y28338343D01*
X5385344Y28477843D01*
X5288851Y28477843D01*
X5083762Y28392892D01*
X5026844Y28335974D01*
X5026844Y29289434D01*
X5042488Y29292378D01*
X5127576Y29347131D01*
X5184659Y29430674D01*
X5204741Y29529843D01*
X5204741Y30129843D01*
X5204460Y30131334D01*
X5265926Y30156794D01*
X5422894Y30313761D01*
X5507844Y30518850D01*
X5507844Y30640343D01*
X5368344Y30779843D01*
X4824844Y30779843D01*
X4824844Y30705843D01*
X4574844Y30705843D01*
X4574844Y30779843D01*
X4031344Y30779843D01*
X3942940Y30691439D01*
X3932556Y30707575D01*
X3849013Y30764658D01*
X3749844Y30784740D01*
X2549844Y30784740D01*
X2548354Y30784460D01*
X2522894Y30845925D01*
X2365926Y31002892D01*
X2160837Y31087843D01*
X1793344Y31087843D01*
X1653844Y30948343D01*
X1653844Y30033843D01*
X1673844Y30033843D01*
X1673844Y29625843D01*
X1653844Y29625843D01*
X1653844Y29605843D01*
X1245844Y29605843D01*
X1245844Y29625843D01*
X431344Y29625843D01*
X373823Y29568322D01*
X350837Y29577843D01*
X254344Y29577843D01*
X114844Y29438343D01*
X114844Y28869843D01*
X213844Y28869843D01*
X213844Y28569843D01*
X114844Y28569843D01*
X114844Y28495843D01*
X-135156Y28495843D01*
X-135156Y28569843D01*
X-678656Y28569843D01*
X-818156Y28430343D01*
X-818156Y28308850D01*
X-733206Y28103761D01*
X-576238Y27946794D01*
X-514753Y27921326D01*
X-515053Y27919843D01*
X-515053Y27319843D01*
X-497621Y27227199D01*
X-442868Y27142111D01*
X-359325Y27085028D01*
X-260156Y27064946D01*
X239844Y27064946D01*
X332488Y27082378D01*
X417576Y27137131D01*
X474659Y27220674D01*
X491298Y27302843D01*
X594947Y27302843D01*
X594947Y26929843D01*
X612379Y26837199D01*
X667132Y26752111D01*
X750675Y26695028D01*
X849844Y26674946D01*
X1139731Y26674946D01*
X1147735Y26634705D01*
X1218620Y26528619D01*
X1458620Y26288619D01*
X1564707Y26217734D01*
X1689844Y26192843D01*
X3574396Y26192843D01*
X4129239Y25638000D01*
X4054500Y25638000D01*
X3915000Y25498500D01*
X3915000Y24930000D01*
X4014000Y24930000D01*
X4014000Y24630000D01*
X3915000Y24630000D01*
X3915000Y24556000D01*
X3665000Y24556000D01*
X3665000Y24630000D01*
X3121500Y24630000D01*
X2982000Y24490500D01*
X2982000Y24369007D01*
X3066950Y24163918D01*
X3223918Y24006951D01*
X3285403Y23981483D01*
X3285103Y23980000D01*
X3285103Y23380000D01*
X3302535Y23287356D01*
X3357288Y23202268D01*
X3406133Y23168893D01*
X3413247Y23133129D01*
X3412003Y23130132D01*
X1351142Y25190993D01*
X2982000Y25190993D01*
X2982000Y25069500D01*
X3121500Y24930000D01*
X3665000Y24930000D01*
X3665000Y25498500D01*
X3525500Y25638000D01*
X3429007Y25638000D01*
X3223918Y25553049D01*
X3066950Y25396082D01*
X2982000Y25190993D01*
X1351142Y25190993D01*
X701068Y25841067D01*
X594982Y25911952D01*
X500820Y25930682D01*
X487309Y26002487D01*
X432556Y26087575D01*
X349013Y26144658D01*
X249844Y26164740D01*
X-150156Y26164740D01*
X-242800Y26147308D01*
X-327888Y26092555D01*
X-384971Y26009012D01*
X-399976Y25934913D01*
X-412691Y26002487D01*
X-467444Y26087575D01*
X-523156Y26125642D01*
X-523156Y26269843D01*
X-537323Y26341067D01*
X-548047Y26394981D01*
X-618932Y26501067D01*
X-1673700Y27555835D01*
X-1673700Y27686323D01*
X-1601920Y27686323D01*
X-1509276Y27703755D01*
X-1424188Y27758508D01*
X-1367105Y27842051D01*
X-1347023Y27941220D01*
X-1347023Y28738780D01*
X-1364455Y28831424D01*
X-1419208Y28916512D01*
X-1502751Y28973595D01*
X-1601920Y28993677D01*
X-2399480Y28993677D01*
X-2492124Y28976245D01*
X-2573276Y28924025D01*
X-2627471Y29054862D01*
X-2703444Y29130836D01*
X-818156Y29130836D01*
X-818156Y29009343D01*
X-678656Y28869843D01*
X-135156Y28869843D01*
X-135156Y29438343D01*
X-274656Y29577843D01*
X-371149Y29577843D01*
X-576238Y29492892D01*
X-733206Y29335925D01*
X-818156Y29130836D01*
X-2703444Y29130836D01*
X-2784438Y29211830D01*
X-2989527Y29296780D01*
X-3160410Y29296780D01*
X-3299910Y29157280D01*
X-3299910Y28539390D01*
X-3275300Y28539390D01*
X-3275300Y28140610D01*
X-3299910Y28140610D01*
X-3299910Y27522720D01*
X-3160410Y27383220D01*
X-2989527Y27383220D01*
X-2784438Y27468170D01*
X-2627471Y27625138D01*
X-2572818Y27757083D01*
X-2498649Y27706405D01*
X-2399480Y27686323D01*
X-2327700Y27686323D01*
X-2327700Y27420387D01*
X-2302809Y27295249D01*
X-2231924Y27189163D01*
X-1177156Y26134395D01*
X-1177156Y26125200D01*
X-1227888Y26092555D01*
X-1284971Y26009012D01*
X-1305053Y25909843D01*
X-1305053Y25309843D01*
X-1287621Y25217199D01*
X-1232868Y25132111D01*
X-1149325Y25075028D01*
X-1050156Y25054946D01*
X-650156Y25054946D01*
X-557512Y25072378D01*
X-472424Y25127131D01*
X-415341Y25210674D01*
X-400336Y25284773D01*
X-387621Y25217199D01*
X-332868Y25132111D01*
X-249325Y25075028D01*
X-150156Y25054946D01*
X249844Y25054946D01*
X342488Y25072378D01*
X427576Y25127131D01*
X452959Y25164280D01*
X980396Y24636843D01*
X499661Y24636843D01*
X487309Y24702487D01*
X432556Y24787575D01*
X349013Y24844658D01*
X249844Y24864740D01*
X-150156Y24864740D01*
X-242800Y24847308D01*
X-327888Y24792555D01*
X-384971Y24709012D01*
X-399976Y24634913D01*
X-412691Y24702487D01*
X-467444Y24787575D01*
X-550987Y24844658D01*
X-650156Y24864740D01*
X-1050156Y24864740D01*
X-1142800Y24847308D01*
X-1227888Y24792555D01*
X-1284971Y24709012D01*
X-1299585Y24636843D01*
X-1524708Y24636843D01*
X-1544914Y24657049D01*
X-1509276Y24663755D01*
X-1424188Y24718508D01*
X-1367105Y24802051D01*
X-1347023Y24901220D01*
X-1347023Y25698780D01*
X-1364455Y25791424D01*
X-1419208Y25876512D01*
X-1502751Y25933595D01*
X-1601920Y25953677D01*
X-2399480Y25953677D01*
X-2492124Y25936245D01*
X-2573276Y25884025D01*
X-2627471Y26014862D01*
X-2784438Y26171830D01*
X-2989527Y26256780D01*
X-3160410Y26256780D01*
X-3299910Y26117280D01*
X-3299910Y25499390D01*
X-3275300Y25499390D01*
X-3275300Y25100610D01*
X-3299910Y25100610D01*
X-3299910Y24482720D01*
X-3160410Y24343220D01*
X-2989527Y24343220D01*
X-2784438Y24428170D01*
X-2627471Y24585138D01*
X-2572818Y24717083D01*
X-2498649Y24666405D01*
X-2399480Y24646323D01*
X-2326892Y24646323D01*
X-2302809Y24525249D01*
X-2231924Y24419163D01*
X-1891380Y24078619D01*
X-1785294Y24007734D01*
X-1660156Y23982843D01*
X-1299973Y23982843D01*
X-1287621Y23917199D01*
X-1232868Y23832111D01*
X-1149325Y23775028D01*
X-1050156Y23754946D01*
X-650156Y23754946D01*
X-557512Y23772378D01*
X-472424Y23827131D01*
X-415341Y23910674D01*
X-400336Y23984773D01*
X-387621Y23917199D01*
X-332868Y23832111D01*
X-249325Y23775028D01*
X-150156Y23754946D01*
X249844Y23754946D01*
X342488Y23772378D01*
X427576Y23827131D01*
X484659Y23910674D01*
X499273Y23982843D01*
X1198816Y23982843D01*
X3106909Y22074750D01*
X2871325Y21977409D01*
X2682940Y21789352D01*
X2580861Y21543519D01*
X2580629Y21277335D01*
X2682278Y21031324D01*
X2800474Y20912921D01*
X2615002Y20727449D01*
X2563520Y20748826D01*
X2297336Y20749058D01*
X2051325Y20647409D01*
X1862940Y20459352D01*
X1760861Y20213519D01*
X1760629Y19947335D01*
X1862278Y19701324D01*
X2050335Y19512939D01*
X2296168Y19410860D01*
X2562352Y19410628D01*
X2808363Y19512277D01*
X2863841Y19567659D01*
X2981500Y19450000D01*
X3525000Y19450000D01*
X3525000Y20018500D01*
X3385500Y20158000D01*
X3289007Y20158000D01*
X3098943Y20079273D01*
X3099059Y20212351D01*
X3077347Y20264898D01*
X3180449Y20368000D01*
X4142334Y20368000D01*
X4126463Y20344247D01*
X4096776Y20195000D01*
X4112499Y20115955D01*
X4010993Y20158000D01*
X3914500Y20158000D01*
X3775000Y20018500D01*
X3775000Y19450000D01*
X3874000Y19450000D01*
X3874000Y19150000D01*
X3775000Y19150000D01*
X3775000Y19076000D01*
X3525000Y19076000D01*
X3525000Y19150000D01*
X2981500Y19150000D01*
X2842000Y19010500D01*
X2842000Y18889007D01*
X2887093Y18780143D01*
X2673520Y18868826D01*
X2407336Y18869058D01*
X2161325Y18767409D01*
X1972940Y18579352D01*
X1870861Y18333519D01*
X1870629Y18067335D01*
X1972278Y17821324D01*
X2160335Y17632939D01*
X2406168Y17530860D01*
X2672352Y17530628D01*
X2918363Y17632277D01*
X3086379Y17800000D01*
X3167268Y17800000D01*
X3217288Y17722268D01*
X3250000Y17699917D01*
X3250000Y17159687D01*
X3280448Y17006613D01*
X3367157Y16876844D01*
X4147001Y16097000D01*
X4217576Y16049843D01*
X3395530Y16049843D01*
X1463430Y17981943D01*
X1333661Y18068652D01*
X1180587Y18099100D01*
X732312Y18099100D01*
X742437Y18149100D01*
X742437Y18549100D01*
X725005Y18641744D01*
X704437Y18673707D01*
X722355Y18699931D01*
X742437Y18799100D01*
X742437Y19199100D01*
X725005Y19291744D01*
X704437Y19323707D01*
X722355Y19349931D01*
X742437Y19449100D01*
X742437Y19600707D01*
X803622Y19626050D01*
X960589Y19783018D01*
X1045540Y19988107D01*
X1045540Y20059600D01*
X906040Y20199100D01*
X16540Y20199100D01*
X16540Y20103997D01*
X-391460Y20103997D01*
X-391460Y20199100D01*
X-1280960Y20199100D01*
X-1420460Y20059600D01*
X-1420460Y19988107D01*
X-1335509Y19783018D01*
X-1178542Y19626050D01*
X-1117357Y19600707D01*
X-1117357Y19449100D01*
X-1099925Y19356456D01*
X-1080391Y19326100D01*
X-1120899Y19326100D01*
X-1246037Y19301209D01*
X-1352123Y19230324D01*
X-2051380Y18531067D01*
X-2122265Y18424981D01*
X-2136189Y18354981D01*
X-2147156Y18299843D01*
X-2147156Y16517638D01*
X-2496505Y16673269D01*
X-2683460Y16560918D01*
X-2683460Y15703100D01*
X-1713615Y15703100D01*
X-1678737Y15770396D01*
X2252844Y11838815D01*
X2252844Y11089843D01*
X2277735Y10964705D01*
X2348620Y10858619D01*
X2688620Y10518619D01*
X2794706Y10447734D01*
X2919844Y10422843D01*
X2963713Y10422843D01*
X2806794Y10265925D01*
X2721844Y10060836D01*
X2721844Y9939343D01*
X2861344Y9799843D01*
X3404844Y9799843D01*
X3404844Y9873843D01*
X3654844Y9873843D01*
X3654844Y9799843D01*
X4198344Y9799843D01*
X4337844Y9939343D01*
X4337844Y10060836D01*
X4252894Y10265925D01*
X4095926Y10422892D01*
X4071902Y10432843D01*
X4210027Y10432843D01*
X4222379Y10367199D01*
X4277132Y10282111D01*
X4360675Y10225028D01*
X4459844Y10204946D01*
X4859844Y10204946D01*
X4952488Y10222378D01*
X5037576Y10277131D01*
X5094659Y10360674D01*
X5109664Y10434773D01*
X5122379Y10367199D01*
X5177132Y10282111D01*
X5260675Y10225028D01*
X5359844Y10204946D01*
X5759844Y10204946D01*
X5852488Y10222378D01*
X5937576Y10277131D01*
X5994659Y10360674D01*
X6009273Y10432843D01*
X6059844Y10432843D01*
X6144947Y10449771D01*
X6144947Y10169843D01*
X6162379Y10077199D01*
X6217132Y9992111D01*
X6300675Y9935028D01*
X6399844Y9914946D01*
X7010029Y9914946D01*
X7076794Y9753761D01*
X7233762Y9596794D01*
X7394947Y9530029D01*
X7394947Y8919843D01*
X7412379Y8827199D01*
X7467132Y8742111D01*
X7550675Y8685028D01*
X7649844Y8664946D01*
X7801451Y8664946D01*
X7826794Y8603761D01*
X7862712Y8567843D01*
X7765842Y8567843D01*
X7765842Y8482345D01*
X7680344Y8567843D01*
X7558851Y8567843D01*
X7353762Y8482892D01*
X7258994Y8388125D01*
X7259059Y8462351D01*
X7157410Y8708362D01*
X6969353Y8896747D01*
X6723520Y8998826D01*
X6457336Y8999058D01*
X6211325Y8897409D01*
X6022940Y8709352D01*
X5920861Y8463519D01*
X5920629Y8197335D01*
X6022278Y7951324D01*
X6189844Y7783466D01*
X6189844Y7002575D01*
X6112112Y6952555D01*
X6055029Y6869012D01*
X6034947Y6769843D01*
X6034947Y6369843D01*
X6052379Y6277199D01*
X6107132Y6192111D01*
X6190675Y6135028D01*
X6264774Y6120023D01*
X6197200Y6107308D01*
X6112112Y6052555D01*
X6074045Y5996843D01*
X5879844Y5996843D01*
X5754706Y5971952D01*
X5722270Y5950279D01*
X5653520Y5978826D01*
X5387336Y5979058D01*
X5141325Y5877409D01*
X4952940Y5689352D01*
X4850861Y5443519D01*
X4850836Y5414537D01*
X4698493Y5566880D01*
X4808363Y5612277D01*
X4996748Y5800334D01*
X5098827Y6046167D01*
X5099059Y6312351D01*
X4997410Y6558362D01*
X4809353Y6746747D01*
X4756844Y6768551D01*
X4756844Y6839843D01*
X4731953Y6964980D01*
X4661068Y7071067D01*
X3181068Y8551067D01*
X3074982Y8621952D01*
X2949844Y8646843D01*
X1199844Y8646843D01*
X1074707Y8621952D01*
X1021747Y8586565D01*
X1019845Y8585295D01*
X906040Y8699100D01*
X16540Y8699100D01*
X16540Y8603997D01*
X-391460Y8603997D01*
X-391460Y8699100D01*
X-1280960Y8699100D01*
X-1420460Y8559600D01*
X-1420460Y8488107D01*
X-1335509Y8283018D01*
X-1178542Y8126050D01*
X-1117357Y8100707D01*
X-1117357Y7949100D01*
X-1099925Y7856456D01*
X-1079357Y7824493D01*
X-1097275Y7798269D01*
X-1117357Y7699100D01*
X-1117357Y7299100D01*
X-1099925Y7206456D01*
X-1079357Y7174493D01*
X-1097275Y7148269D01*
X-1117357Y7049100D01*
X-1117357Y6649100D01*
X-1099925Y6556456D01*
X-1079357Y6524493D01*
X-1097275Y6498269D01*
X-1117357Y6399100D01*
X-1117357Y5999100D01*
X-1099925Y5906456D01*
X-1047305Y5824683D01*
X-1270640Y5533918D01*
X-1331538Y5386847D01*
X-1236305Y5203100D01*
X-391460Y5203100D01*
X-391460Y5223100D01*
X16540Y5223100D01*
X16540Y5203100D01*
X861385Y5203100D01*
X956618Y5386847D01*
X895720Y5533918D01*
X692035Y5799100D01*
X1124901Y5799100D01*
X1394844Y5529157D01*
X1394844Y5084357D01*
X1322112Y5037555D01*
X1265029Y4954012D01*
X1244947Y4854843D01*
X1244947Y4404843D01*
X1262379Y4312199D01*
X1317132Y4227111D01*
X1400675Y4170028D01*
X1499844Y4149946D01*
X2089844Y4149946D01*
X2182488Y4167378D01*
X2267576Y4222131D01*
X2324659Y4305674D01*
X2344741Y4404843D01*
X2344741Y4854843D01*
X2327309Y4947487D01*
X2300053Y4989843D01*
X3399511Y4989843D01*
X3375029Y4954012D01*
X3354947Y4854843D01*
X3354947Y4404843D01*
X3372379Y4312199D01*
X3427132Y4227111D01*
X3504844Y4174012D01*
X3504844Y4150528D01*
X3357001Y4002686D01*
X3270292Y3872917D01*
X3243978Y3740628D01*
X3239844Y3719843D01*
X3239844Y3519740D01*
X3147200Y3502308D01*
X3062112Y3447555D01*
X3005029Y3364012D01*
X2984947Y3264843D01*
X2984947Y2514843D01*
X3002379Y2422199D01*
X3057132Y2337111D01*
X3140675Y2280028D01*
X3239844Y2259946D01*
X3239844Y1585528D01*
X3018781Y1364466D01*
X2932072Y1234697D01*
X2913770Y1142686D01*
X2901624Y1081623D01*
X2901624Y1044790D01*
X2901574Y1044790D01*
X2808930Y1027358D01*
X2723842Y972605D01*
X2666759Y889062D01*
X2646677Y789893D01*
X2646677Y-10207D01*
X2664109Y-102851D01*
X2718862Y-187939D01*
X2735207Y-199108D01*
X-589232Y-3523547D01*
X-630156Y-3515260D01*
X-1030156Y-3515260D01*
X-1122800Y-3532692D01*
X-1207888Y-3587445D01*
X-1264971Y-3670988D01*
X-1279976Y-3745087D01*
X-1292691Y-3677513D01*
X-1347444Y-3592425D01*
X-1430987Y-3535342D01*
X-1530156Y-3515260D01*
X-1930156Y-3515260D01*
X-2022800Y-3532692D01*
X-2107888Y-3587445D01*
X-2164971Y-3670988D01*
X-2179585Y-3743157D01*
X-2546323Y-3743157D01*
X-2546323Y-3675520D01*
X-2563755Y-3582876D01*
X-2618508Y-3497788D01*
X-2702051Y-3440705D01*
X-2801220Y-3420623D01*
X-3598780Y-3420623D01*
X-3691424Y-3438055D01*
X-3776512Y-3492808D01*
X-3833595Y-3576351D01*
X-3853677Y-3675520D01*
X-3853677Y-4473080D01*
X-3836245Y-4565724D01*
X-3781492Y-4650812D01*
X-3697949Y-4707895D01*
X-3598780Y-4727977D01*
X-2801220Y-4727977D01*
X-2708576Y-4710545D01*
X-2623488Y-4655792D01*
X-2566405Y-4572249D01*
X-2546323Y-4473080D01*
X-2546323Y-4397157D01*
X-2179973Y-4397157D01*
X-2167621Y-4462801D01*
X-2112868Y-4547889D01*
X-2029325Y-4604972D01*
X-1930156Y-4625054D01*
X-1530156Y-4625054D01*
X-1437512Y-4607622D01*
X-1352424Y-4552869D01*
X-1295341Y-4469326D01*
X-1280336Y-4395227D01*
X-1267621Y-4462801D01*
X-1212868Y-4547889D01*
X-1129325Y-4604972D01*
X-1030156Y-4625054D01*
X-630156Y-4625054D01*
X-537512Y-4607622D01*
X-452424Y-4552869D01*
X-395341Y-4469326D01*
X-385003Y-4418274D01*
X-287313Y-4353000D01*
X843347Y-3222340D01*
X843347Y-3388357D01*
X860779Y-3481001D01*
X915532Y-3566089D01*
X999075Y-3623172D01*
X1098244Y-3643254D01*
X1809444Y-3643254D01*
X1819604Y-3641342D01*
X1800861Y-3686481D01*
X1800629Y-3952665D01*
X1819843Y-3999166D01*
X1809444Y-3997060D01*
X1098244Y-3997060D01*
X1005600Y-4014492D01*
X920512Y-4069245D01*
X863429Y-4152788D01*
X843347Y-4251957D01*
X843347Y-4709157D01*
X860779Y-4801801D01*
X915532Y-4886889D01*
X999075Y-4943972D01*
X1098244Y-4964054D01*
X1809444Y-4964054D01*
X1902088Y-4946622D01*
X1987176Y-4891869D01*
X2044259Y-4808326D01*
X2044415Y-4807557D01*
X3350668Y-4807557D01*
X3350629Y-4852665D01*
X3452278Y-5098676D01*
X3640335Y-5287061D01*
X3743991Y-5330103D01*
X3580000Y-5330103D01*
X3487356Y-5347535D01*
X3402268Y-5402288D01*
X3345185Y-5485831D01*
X3325103Y-5585000D01*
X3325103Y-7085000D01*
X3342535Y-7177644D01*
X3397288Y-7262732D01*
X3480831Y-7319815D01*
X3580000Y-7339897D01*
X4280000Y-7339897D01*
X4372644Y-7322465D01*
X4457732Y-7267712D01*
X4514815Y-7184169D01*
X4534897Y-7085000D01*
X4534897Y-6662000D01*
X4615001Y-6662000D01*
X4740139Y-6637109D01*
X4846225Y-6566224D01*
X5185848Y-6226601D01*
X5185629Y-6477665D01*
X5287278Y-6723676D01*
X5475335Y-6912061D01*
X5721168Y-7014140D01*
X5987352Y-7014372D01*
X6233363Y-6912723D01*
X6325103Y-6821143D01*
X6325103Y-7085000D01*
X6342535Y-7177644D01*
X6397288Y-7262732D01*
X6480831Y-7319815D01*
X6580000Y-7339897D01*
X7280000Y-7339897D01*
X7372644Y-7322465D01*
X7457732Y-7267712D01*
X7514815Y-7184169D01*
X7534897Y-7085000D01*
X7534897Y-6735000D01*
X7565001Y-6735000D01*
X7575103Y-6732991D01*
X7575103Y-7385000D01*
X7592535Y-7477644D01*
X7647288Y-7562732D01*
X7730831Y-7619815D01*
X7830000Y-7639897D01*
X8830000Y-7639897D01*
X8922644Y-7622465D01*
X9007732Y-7567712D01*
X9064815Y-7484169D01*
X9084897Y-7385000D01*
X9084897Y-6585000D01*
X9067465Y-6492356D01*
X9012712Y-6407268D01*
X9009626Y-6405159D01*
X9087687Y-6353000D01*
X9324947Y-6115740D01*
X9324947Y-9355157D01*
X9342379Y-9447801D01*
X9397132Y-9532889D01*
X9480675Y-9589972D01*
X9554886Y-9605000D01*
X9080847Y-9605000D01*
X9084897Y-9585000D01*
X9084897Y-8785000D01*
X9067465Y-8692356D01*
X9012712Y-8607268D01*
X8929169Y-8550185D01*
X8830000Y-8530103D01*
X7830000Y-8530103D01*
X7737356Y-8547535D01*
X7652268Y-8602288D01*
X7595185Y-8685831D01*
X7575103Y-8785000D01*
X7575103Y-9585000D01*
X7578866Y-9605000D01*
X1780847Y-9605000D01*
X1784897Y-9585000D01*
X1784897Y-8785000D01*
X1767465Y-8692356D01*
X1712712Y-8607268D01*
X1629169Y-8550185D01*
X1530000Y-8530103D01*
X530000Y-8530103D01*
X437356Y-8547535D01*
X352268Y-8602288D01*
X295185Y-8685831D01*
X275103Y-8785000D01*
X275103Y-9585000D01*
X278866Y-9605000D01*
X-2470451Y-9605000D01*
X-3111958Y-9477397D01*
X-3630749Y-9130751D01*
X-3977397Y-8611958D01*
X-4040033Y-8297059D01*
X-4000260Y-8297059D01*
X-3772380Y-8848572D01*
X-3350791Y-9270897D01*
X-2799677Y-9499739D01*
X-2202941Y-9500260D01*
X-1651428Y-9272380D01*
X-1229103Y-8850791D01*
X-1000261Y-8299677D01*
X-1000195Y-8223628D01*
X2479879Y-8223628D01*
X2586223Y-8481000D01*
X2782964Y-8678085D01*
X3040150Y-8784878D01*
X3318628Y-8785121D01*
X3576000Y-8678777D01*
X3773085Y-8482036D01*
X3879878Y-8224850D01*
X3879879Y-8223628D01*
X5479879Y-8223628D01*
X5586223Y-8481000D01*
X5782964Y-8678085D01*
X6040150Y-8784878D01*
X6318628Y-8785121D01*
X6576000Y-8678777D01*
X6773085Y-8482036D01*
X6879878Y-8224850D01*
X6880121Y-7946372D01*
X6773777Y-7689000D01*
X6577036Y-7491915D01*
X6319850Y-7385122D01*
X6041372Y-7384879D01*
X5784000Y-7491223D01*
X5586915Y-7687964D01*
X5480122Y-7945150D01*
X5479879Y-8223628D01*
X3879879Y-8223628D01*
X3880121Y-7946372D01*
X3773777Y-7689000D01*
X3577036Y-7491915D01*
X3319850Y-7385122D01*
X3041372Y-7384879D01*
X2784000Y-7491223D01*
X2586915Y-7687964D01*
X2480122Y-7945150D01*
X2479879Y-8223628D01*
X-1000195Y-8223628D01*
X-999740Y-7702941D01*
X-1227620Y-7151428D01*
X-1649209Y-6729103D01*
X-1996248Y-6585000D01*
X275103Y-6585000D01*
X275103Y-7385000D01*
X292535Y-7477644D01*
X347288Y-7562732D01*
X430831Y-7619815D01*
X530000Y-7639897D01*
X1530000Y-7639897D01*
X1622644Y-7622465D01*
X1707732Y-7567712D01*
X1764815Y-7484169D01*
X1784897Y-7385000D01*
X1784897Y-6585000D01*
X1767465Y-6492356D01*
X1712712Y-6407268D01*
X1629169Y-6350185D01*
X1530000Y-6330103D01*
X530000Y-6330103D01*
X437356Y-6347535D01*
X352268Y-6402288D01*
X295185Y-6485831D01*
X275103Y-6585000D01*
X-1996248Y-6585000D01*
X-2200323Y-6500261D01*
X-2797059Y-6499740D01*
X-3348572Y-6727620D01*
X-3770897Y-7149209D01*
X-3999739Y-7700323D01*
X-4000260Y-8297059D01*
X-4040033Y-8297059D01*
X-4105000Y-7970451D01*
X-4105000Y-5585000D01*
X1825103Y-5585000D01*
X1825103Y-7085000D01*
X1842535Y-7177644D01*
X1897288Y-7262732D01*
X1980831Y-7319815D01*
X2080000Y-7339897D01*
X2780000Y-7339897D01*
X2872644Y-7322465D01*
X2957732Y-7267712D01*
X3014815Y-7184169D01*
X3034897Y-7085000D01*
X3034897Y-5585000D01*
X3017465Y-5492356D01*
X2962712Y-5407268D01*
X2879169Y-5350185D01*
X2780000Y-5330103D01*
X2080000Y-5330103D01*
X1987356Y-5347535D01*
X1902268Y-5402288D01*
X1845185Y-5485831D01*
X1825103Y-5585000D01*
X-4105000Y-5585000D01*
X-4105000Y-1612665D01*
X-3869371Y-1612665D01*
X-3767722Y-1858676D01*
X-3687770Y-1938767D01*
X-3691424Y-1939455D01*
X-3776512Y-1994208D01*
X-3833595Y-2077751D01*
X-3853677Y-2176920D01*
X-3853677Y-2974480D01*
X-3836245Y-3067124D01*
X-3781492Y-3152212D01*
X-3697949Y-3209295D01*
X-3598780Y-3229377D01*
X-2801220Y-3229377D01*
X-2708576Y-3211945D01*
X-2623488Y-3157192D01*
X-2566405Y-3073649D01*
X-2546323Y-2974480D01*
X-2546323Y-2176920D01*
X-2563755Y-2084276D01*
X-2618508Y-1999188D01*
X-2702051Y-1942105D01*
X-2713510Y-1939784D01*
X-2633252Y-1859666D01*
X-2531173Y-1613833D01*
X-2530941Y-1347649D01*
X-2632590Y-1101638D01*
X-2820647Y-913253D01*
X-3066480Y-811174D01*
X-3332664Y-810942D01*
X-3578675Y-912591D01*
X-3767060Y-1100648D01*
X-3869139Y-1346481D01*
X-3869371Y-1612665D01*
X-4105000Y-1612665D01*
X-4105000Y-297059D01*
X-1500260Y-297059D01*
X-1272380Y-848572D01*
X-850791Y-1270897D01*
X-299677Y-1499739D01*
X297059Y-1500260D01*
X848572Y-1272380D01*
X1270897Y-850791D01*
X1499739Y-299677D01*
X1500260Y297059D01*
X1272380Y848572D01*
X850791Y1270897D01*
X299677Y1499739D01*
X-297059Y1500260D01*
X-848572Y1272380D01*
X-1270897Y850791D01*
X-1499739Y299677D01*
X-1500260Y-297059D01*
X-4105000Y-297059D01*
X-4105000Y3507071D01*
X-4030781Y3356896D01*
X-3707505Y3016086D01*
X-3278415Y2824931D01*
X-3091460Y2937282D01*
X-3091460Y3795100D01*
X-2683460Y3795100D01*
X-2683460Y2937282D01*
X-2496505Y2824931D01*
X-2067415Y3016086D01*
X-1744139Y3356896D01*
X-1618382Y3611353D01*
X-1713615Y3795100D01*
X-2683460Y3795100D01*
X-3091460Y3795100D01*
X-3111460Y3795100D01*
X-3111460Y4203100D01*
X-3091460Y4203100D01*
X-3091460Y5060918D01*
X-2683460Y5060918D01*
X-2683460Y4203100D01*
X-1713615Y4203100D01*
X-1618382Y4386847D01*
X-1729336Y4611353D01*
X-1331538Y4611353D01*
X-1270640Y4464282D01*
X-983522Y4090477D01*
X-575210Y3855002D01*
X-391460Y3947930D01*
X-391460Y4795100D01*
X16540Y4795100D01*
X16540Y3947930D01*
X200290Y3855002D01*
X608602Y4090477D01*
X895720Y4464282D01*
X956618Y4611353D01*
X861385Y4795100D01*
X16540Y4795100D01*
X-391460Y4795100D01*
X-1236305Y4795100D01*
X-1331538Y4611353D01*
X-1729336Y4611353D01*
X-1744139Y4641304D01*
X-2067415Y4982114D01*
X-2496505Y5173269D01*
X-2683460Y5060918D01*
X-3091460Y5060918D01*
X-3278415Y5173269D01*
X-3707505Y4982114D01*
X-4030781Y4641304D01*
X-4105000Y4491129D01*
X-4105000Y9110093D01*
X-1420460Y9110093D01*
X-1420460Y9038600D01*
X-1280960Y8899100D01*
X-651676Y8899100D01*
X-575210Y8855002D01*
X-488013Y8899100D01*
X-391460Y8899100D01*
X-391460Y9795100D01*
X16540Y9795100D01*
X16540Y8899100D01*
X113093Y8899100D01*
X200290Y8855002D01*
X276756Y8899100D01*
X906040Y8899100D01*
X1045540Y9038600D01*
X1045540Y9110093D01*
X960589Y9315182D01*
X915429Y9360343D01*
X2721844Y9360343D01*
X2721844Y9238850D01*
X2806794Y9033761D01*
X2963762Y8876794D01*
X3168851Y8791843D01*
X3265344Y8791843D01*
X3404844Y8931343D01*
X3404844Y9499843D01*
X3654844Y9499843D01*
X3654844Y8931343D01*
X3794344Y8791843D01*
X3890837Y8791843D01*
X4095926Y8876794D01*
X4252894Y9033761D01*
X4337844Y9238850D01*
X4337844Y9360343D01*
X4198344Y9499843D01*
X3654844Y9499843D01*
X3404844Y9499843D01*
X2861344Y9499843D01*
X2721844Y9360343D01*
X915429Y9360343D01*
X859129Y9416643D01*
X895720Y9464282D01*
X956618Y9611353D01*
X861385Y9795100D01*
X16540Y9795100D01*
X-391460Y9795100D01*
X-1236305Y9795100D01*
X-1331538Y9611353D01*
X-1270640Y9464282D01*
X-1234049Y9416643D01*
X-1335509Y9315182D01*
X-1420460Y9110093D01*
X-4105000Y9110093D01*
X-4105000Y10507071D01*
X-4030781Y10356896D01*
X-3707505Y10016086D01*
X-3278415Y9824931D01*
X-3091460Y9937282D01*
X-3091460Y10795100D01*
X-2683460Y10795100D01*
X-2683460Y9937282D01*
X-2496505Y9824931D01*
X-2067415Y10016086D01*
X-1744139Y10356896D01*
X-1729337Y10386847D01*
X-1331538Y10386847D01*
X-1236305Y10203100D01*
X-391460Y10203100D01*
X-391460Y11050270D01*
X16540Y11050270D01*
X16540Y10203100D01*
X861385Y10203100D01*
X956618Y10386847D01*
X895720Y10533918D01*
X608602Y10907723D01*
X200290Y11143198D01*
X16540Y11050270D01*
X-391460Y11050270D01*
X-575210Y11143198D01*
X-983522Y10907723D01*
X-1270640Y10533918D01*
X-1331538Y10386847D01*
X-1729337Y10386847D01*
X-1618382Y10611353D01*
X-1713615Y10795100D01*
X-2683460Y10795100D01*
X-3091460Y10795100D01*
X-3111460Y10795100D01*
X-3111460Y11203100D01*
X-3091460Y11203100D01*
X-3091460Y12060918D01*
X-2683460Y12060918D01*
X-2683460Y11203100D01*
X-1713615Y11203100D01*
X-1618382Y11386847D01*
X-1744139Y11641304D01*
X-2067415Y11982114D01*
X-2496505Y12173269D01*
X-2683460Y12060918D01*
X-3091460Y12060918D01*
X-3278415Y12173269D01*
X-3707505Y11982114D01*
X-4030781Y11641304D01*
X-4105000Y11491129D01*
X-4105000Y15007071D01*
X-4030781Y14856896D01*
X-3707505Y14516086D01*
X-3278415Y14324931D01*
X-3091460Y14437282D01*
X-3091460Y15295100D01*
X-2683460Y15295100D01*
X-2683460Y14437282D01*
X-2496505Y14324931D01*
X-2067415Y14516086D01*
X-1744139Y14856896D01*
X-1618382Y15111353D01*
X-1713615Y15295100D01*
X-2683460Y15295100D01*
X-3091460Y15295100D01*
X-3111460Y15295100D01*
X-3111460Y15703100D01*
X-3091460Y15703100D01*
X-3091460Y16560918D01*
X-3278415Y16673269D01*
X-3707505Y16482114D01*
X-4030781Y16141304D01*
X-4105000Y15991129D01*
X-4105000Y20610093D01*
X-1420460Y20610093D01*
X-1420460Y20538600D01*
X-1280960Y20399100D01*
X-651676Y20399100D01*
X-575210Y20355002D01*
X-488013Y20399100D01*
X-391460Y20399100D01*
X-391460Y21295100D01*
X16540Y21295100D01*
X16540Y20399100D01*
X113093Y20399100D01*
X200290Y20355002D01*
X276756Y20399100D01*
X906040Y20399100D01*
X1045540Y20538600D01*
X1045540Y20610093D01*
X960589Y20815182D01*
X859129Y20916643D01*
X895720Y20964282D01*
X956618Y21111353D01*
X861385Y21295100D01*
X16540Y21295100D01*
X-391460Y21295100D01*
X-1236305Y21295100D01*
X-1331538Y21111353D01*
X-1270640Y20964282D01*
X-1234049Y20916643D01*
X-1335509Y20815182D01*
X-1420460Y20610093D01*
X-4105000Y20610093D01*
X-4105000Y22007071D01*
X-4030781Y21856896D01*
X-3707505Y21516086D01*
X-3278415Y21324931D01*
X-3091460Y21437282D01*
X-3091460Y22295100D01*
X-2683460Y22295100D01*
X-2683460Y21437282D01*
X-2496505Y21324931D01*
X-2067415Y21516086D01*
X-1744139Y21856896D01*
X-1729337Y21886847D01*
X-1331538Y21886847D01*
X-1236305Y21703100D01*
X-391460Y21703100D01*
X-391460Y22550270D01*
X16540Y22550270D01*
X16540Y21703100D01*
X861385Y21703100D01*
X956618Y21886847D01*
X895720Y22033918D01*
X608602Y22407723D01*
X200290Y22643198D01*
X16540Y22550270D01*
X-391460Y22550270D01*
X-575210Y22643198D01*
X-983522Y22407723D01*
X-1270640Y22033918D01*
X-1331538Y21886847D01*
X-1729337Y21886847D01*
X-1618382Y22111353D01*
X-1713615Y22295100D01*
X-2683460Y22295100D01*
X-3091460Y22295100D01*
X-3111460Y22295100D01*
X-3111460Y22703100D01*
X-3091460Y22703100D01*
X-3091460Y23560918D01*
X-2683460Y23560918D01*
X-2683460Y22703100D01*
X-1713615Y22703100D01*
X-1618382Y22886847D01*
X-1744139Y23141304D01*
X-2067415Y23482114D01*
X-2496505Y23673269D01*
X-2683460Y23560918D01*
X-3091460Y23560918D01*
X-3278415Y23673269D01*
X-3707505Y23482114D01*
X-4030781Y23141304D01*
X-4105000Y22991129D01*
X-4105000Y24382954D01*
X-4009073Y24343220D01*
X-3838190Y24343220D01*
X-3698690Y24482720D01*
X-3698690Y25100610D01*
X-3723300Y25100610D01*
X-3723300Y25499390D01*
X-3698690Y25499390D01*
X-3698690Y26117280D01*
X-3838190Y26256780D01*
X-4009073Y26256780D01*
X-4105000Y26217046D01*
X-4105000Y27422954D01*
X-4009073Y27383220D01*
X-3838190Y27383220D01*
X-3698690Y27522720D01*
X-3698690Y28140610D01*
X-3723300Y28140610D01*
X-3723300Y28539390D01*
X-3698690Y28539390D01*
X-3698690Y29157280D01*
X-3838190Y29296780D01*
X-4009073Y29296780D01*
X-4105000Y29257046D01*
X-4105000Y30640836D01*
X291844Y30640836D01*
X291844Y30173343D01*
X431344Y30033843D01*
X1245844Y30033843D01*
X1245844Y30948343D01*
X1106344Y31087843D01*
X738851Y31087843D01*
X533762Y31002892D01*
X376794Y30845925D01*
X291844Y30640836D01*
X-4105000Y30640836D01*
X-4105000Y32342941D01*
X-4000260Y32342941D01*
X-3772380Y31791428D01*
X-3350791Y31369103D01*
X-2799677Y31140261D01*
X-2202941Y31139740D01*
X-1716251Y31340836D01*
X3891844Y31340836D01*
X3891844Y31219343D01*
X4031344Y31079843D01*
X4574844Y31079843D01*
X4574844Y31648343D01*
X4824844Y31648343D01*
X4824844Y31079843D01*
X5368344Y31079843D01*
X5507844Y31219343D01*
X5507844Y31340836D01*
X5422894Y31545925D01*
X5265926Y31702892D01*
X5060837Y31787843D01*
X4964344Y31787843D01*
X4824844Y31648343D01*
X4574844Y31648343D01*
X4435344Y31787843D01*
X4338851Y31787843D01*
X4133762Y31702892D01*
X3976794Y31545925D01*
X3891844Y31340836D01*
X-1716251Y31340836D01*
X-1651428Y31367620D01*
X-1229103Y31789209D01*
X-1000261Y32340323D01*
X-1000006Y32632843D01*
X5211844Y32632843D01*
X5211844Y32473850D01*
X5296795Y32268761D01*
X5453762Y32111793D01*
X5658851Y32026843D01*
X5830344Y32026843D01*
X5969844Y32166343D01*
X5969844Y32772343D01*
X5351344Y32772343D01*
X5211844Y32632843D01*
X-1000006Y32632843D01*
X-999740Y32937059D01*
X-1209961Y33445836D01*
X5211844Y33445836D01*
X5211844Y33286843D01*
X5351344Y33147343D01*
X5969844Y33147343D01*
X5969844Y33753343D01*
X5830344Y33892843D01*
X5658851Y33892843D01*
X5453762Y33807893D01*
X5296795Y33650925D01*
X5211844Y33445836D01*
X-1209961Y33445836D01*
X-1227620Y33488572D01*
X-1649209Y33910897D01*
X-2200323Y34139739D01*
X-2797059Y34140260D01*
X-3348572Y33912380D01*
X-3770897Y33490791D01*
X-3999739Y32939677D01*
X-4000260Y32342941D01*
X-4105000Y32342941D01*
X-4105000Y34560000D01*
X6669861Y34560000D01*
X6669671Y34341803D01*
X6669671Y34341803D01*
G37*
X6669671Y34341803D02*
X6821591Y33974129D01*
X7102650Y33692579D01*
X7169844Y33664678D01*
X7169844Y33567575D01*
X7096869Y33520616D01*
X7042893Y33650925D01*
X6885926Y33807893D01*
X6680837Y33892843D01*
X6509344Y33892843D01*
X6369844Y33753343D01*
X6369844Y33147343D01*
X6393844Y33147343D01*
X6393844Y32772343D01*
X6369844Y32772343D01*
X6369844Y32166343D01*
X6509344Y32026843D01*
X6680837Y32026843D01*
X6885926Y32111793D01*
X7042893Y32268761D01*
X7097317Y32400152D01*
X7169844Y32350596D01*
X7169844Y32166487D01*
X7117112Y32132555D01*
X7060029Y32049012D01*
X7039947Y31949843D01*
X7039947Y31149843D01*
X7057379Y31057199D01*
X7112132Y30972111D01*
X7195675Y30915028D01*
X7294844Y30894946D01*
X8044844Y30894946D01*
X8137488Y30912378D01*
X8222576Y30967131D01*
X8279659Y31050674D01*
X8299741Y31149843D01*
X8299741Y31949843D01*
X8282309Y32042487D01*
X8227556Y32127575D01*
X8169844Y32167008D01*
X8169844Y32352111D01*
X8247576Y32402131D01*
X8304659Y32485674D01*
X8324741Y32584843D01*
X8324741Y33334843D01*
X8307309Y33427487D01*
X8252556Y33512575D01*
X8169844Y33569090D01*
X8169844Y33664437D01*
X8235558Y33691590D01*
X8517108Y33972649D01*
X8669670Y34340058D01*
X8669862Y34560000D01*
X25775000Y34560000D01*
X25775000Y21820933D01*
X25679353Y21916747D01*
X25433520Y22018826D01*
X25167336Y22019058D01*
X24921325Y21917409D01*
X24732940Y21729352D01*
X24711136Y21676843D01*
X22664741Y21676843D01*
X22664741Y21874843D01*
X22647309Y21967487D01*
X22592556Y22052575D01*
X22509013Y22109658D01*
X22409844Y22129740D01*
X22209844Y22129740D01*
X22117200Y22112308D01*
X22110986Y22108310D01*
X22109013Y22109658D01*
X22009844Y22129740D01*
X21809844Y22129740D01*
X21717200Y22112308D01*
X21710986Y22108310D01*
X21709013Y22109658D01*
X21609844Y22129740D01*
X21409844Y22129740D01*
X21317200Y22112308D01*
X21310986Y22108310D01*
X21309013Y22109658D01*
X21209844Y22129740D01*
X21009844Y22129740D01*
X20917200Y22112308D01*
X20910986Y22108310D01*
X20909013Y22109658D01*
X20809844Y22129740D01*
X20609844Y22129740D01*
X20517200Y22112308D01*
X20510986Y22108310D01*
X20509013Y22109658D01*
X20409844Y22129740D01*
X20209844Y22129740D01*
X20117200Y22112308D01*
X20110986Y22108310D01*
X20109013Y22109658D01*
X20009844Y22129740D01*
X19809844Y22129740D01*
X19717200Y22112308D01*
X19710986Y22108310D01*
X19709013Y22109658D01*
X19609844Y22129740D01*
X19409844Y22129740D01*
X19317200Y22112308D01*
X19310986Y22108310D01*
X19309013Y22109658D01*
X19209844Y22129740D01*
X19009844Y22129740D01*
X18917200Y22112308D01*
X18910986Y22108310D01*
X18909013Y22109658D01*
X18809844Y22129740D01*
X18609844Y22129740D01*
X18517200Y22112308D01*
X18432112Y22057555D01*
X18375029Y21974012D01*
X18354947Y21874843D01*
X18354947Y21677188D01*
X18277450Y21754685D01*
X18298827Y21806167D01*
X18299059Y22072351D01*
X18197410Y22318362D01*
X18009353Y22506747D01*
X17763520Y22608826D01*
X17497336Y22609058D01*
X17251325Y22507409D01*
X17062940Y22319352D01*
X16960861Y22073519D01*
X16960629Y21807335D01*
X17036859Y21622843D01*
X16929344Y21622843D01*
X16789844Y21483343D01*
X16789844Y20877343D01*
X17408344Y20877343D01*
X17547844Y21016843D01*
X17547844Y21175836D01*
X17508488Y21270849D01*
X17762352Y21270628D01*
X17814899Y21292340D01*
X17988620Y21118619D01*
X18094706Y21047734D01*
X18219844Y21022843D01*
X18354947Y21022843D01*
X18354947Y20824843D01*
X18372379Y20732199D01*
X18427132Y20647111D01*
X18510675Y20590028D01*
X18609844Y20569946D01*
X18782844Y20569946D01*
X18782844Y20053103D01*
X18807735Y19927965D01*
X18878620Y19821879D01*
X20262844Y18437655D01*
X20262844Y16434263D01*
X20287735Y16309125D01*
X20358620Y16203039D01*
X21153040Y15408619D01*
X21259126Y15337734D01*
X21384264Y15312843D01*
X23134396Y15312843D01*
X24180637Y14266602D01*
X24180629Y14257335D01*
X24282278Y14011324D01*
X24470335Y13822939D01*
X24716168Y13720860D01*
X24982352Y13720628D01*
X25228363Y13822277D01*
X25416748Y14010334D01*
X25518827Y14256167D01*
X25519059Y14522351D01*
X25417410Y14768362D01*
X25229353Y14956747D01*
X25167601Y14982389D01*
X25268827Y15226167D01*
X25269059Y15492351D01*
X25167410Y15738362D01*
X24979353Y15926747D01*
X24825874Y15990477D01*
X24898827Y16166167D01*
X24899059Y16432351D01*
X24797410Y16678362D01*
X24609353Y16866747D01*
X24363520Y16968826D01*
X24097336Y16969058D01*
X23851325Y16867409D01*
X23662940Y16679352D01*
X23641136Y16626843D01*
X21745292Y16626843D01*
X21566844Y16805291D01*
X21566844Y18030343D01*
X23001844Y18030343D01*
X23001844Y17908850D01*
X23086794Y17703761D01*
X23243762Y17546794D01*
X23448851Y17461843D01*
X23545344Y17461843D01*
X23684844Y17601343D01*
X23684844Y18169843D01*
X23934844Y18169843D01*
X23934844Y17601343D01*
X24074344Y17461843D01*
X24170837Y17461843D01*
X24375926Y17546794D01*
X24532894Y17703761D01*
X24617844Y17908850D01*
X24617844Y18030343D01*
X24478344Y18169843D01*
X23934844Y18169843D01*
X23684844Y18169843D01*
X23141344Y18169843D01*
X23001844Y18030343D01*
X21566844Y18030343D01*
X21566844Y18794263D01*
X21554219Y18857734D01*
X21541953Y18919401D01*
X21471068Y19025487D01*
X20236844Y20259711D01*
X20236844Y20430395D01*
X21478620Y19188619D01*
X21584706Y19117734D01*
X21709844Y19092843D01*
X23243713Y19092843D01*
X23086794Y18935925D01*
X23001844Y18730836D01*
X23001844Y18609343D01*
X23141344Y18469843D01*
X23684844Y18469843D01*
X23684844Y18543843D01*
X23934844Y18543843D01*
X23934844Y18469843D01*
X24478344Y18469843D01*
X24481251Y18472750D01*
X24720747Y18233254D01*
X24720629Y18097335D01*
X24822278Y17851324D01*
X25010335Y17662939D01*
X25256168Y17560860D01*
X25522352Y17560628D01*
X25768363Y17662277D01*
X25775000Y17668902D01*
X25775000Y13635164D01*
X25573520Y13718826D01*
X25307336Y13719058D01*
X25061325Y13617409D01*
X24872940Y13429352D01*
X24770861Y13183519D01*
X24770788Y13099843D01*
X22399849Y13099843D01*
X22399844Y13099844D01*
X22246771Y13069395D01*
X22117001Y12982686D01*
X22116999Y12982683D01*
X19684158Y10549843D01*
X16946221Y10549843D01*
X16966748Y10570334D01*
X17068827Y10816167D01*
X17068910Y10910858D01*
X17332352Y10910628D01*
X17578363Y11012277D01*
X17766748Y11200334D01*
X17868827Y11446167D01*
X17869059Y11712351D01*
X17767410Y11958362D01*
X17599844Y12126220D01*
X17599844Y16479843D01*
X17569396Y16632916D01*
X17482687Y16762686D01*
X17482684Y16762688D01*
X16668888Y17576484D01*
X16669059Y17772351D01*
X16567410Y18018362D01*
X16379353Y18206747D01*
X16133520Y18308826D01*
X15936375Y18308998D01*
X15489844Y18755529D01*
X15489844Y20059946D01*
X15582488Y20077378D01*
X15662819Y20129070D01*
X15716795Y19998761D01*
X15873762Y19841793D01*
X16078851Y19756843D01*
X16250344Y19756843D01*
X16389844Y19896343D01*
X16389844Y20502343D01*
X16789844Y20502343D01*
X16789844Y19896343D01*
X16929344Y19756843D01*
X17100837Y19756843D01*
X17305926Y19841793D01*
X17462893Y19998761D01*
X17547844Y20203850D01*
X17547844Y20362843D01*
X17408344Y20502343D01*
X16789844Y20502343D01*
X16389844Y20502343D01*
X16365844Y20502343D01*
X16365844Y20877343D01*
X16389844Y20877343D01*
X16389844Y21483343D01*
X16250344Y21622843D01*
X16078851Y21622843D01*
X15987421Y21584972D01*
X17325292Y22922843D01*
X18354947Y22922843D01*
X18354947Y22724843D01*
X18372379Y22632199D01*
X18427132Y22547111D01*
X18510675Y22490028D01*
X18609844Y22469946D01*
X18809844Y22469946D01*
X18902488Y22487378D01*
X18908702Y22491376D01*
X18910675Y22490028D01*
X19009844Y22469946D01*
X19209844Y22469946D01*
X19302488Y22487378D01*
X19308702Y22491376D01*
X19310675Y22490028D01*
X19409844Y22469946D01*
X19609844Y22469946D01*
X19702488Y22487378D01*
X19703863Y22488263D01*
X19736794Y22408761D01*
X19893762Y22251794D01*
X20098851Y22166843D01*
X20120344Y22166843D01*
X20259844Y22306343D01*
X20259844Y22700661D01*
X20264741Y22724843D01*
X20264741Y23774843D01*
X20259844Y23800869D01*
X20259844Y24193343D01*
X20236844Y24216343D01*
X20236844Y25154352D01*
X20286794Y25033761D01*
X20443762Y24876794D01*
X20505247Y24851326D01*
X20504947Y24849843D01*
X20504947Y24332843D01*
X20499344Y24332843D01*
X20359844Y24193343D01*
X20359844Y23799025D01*
X20354947Y23774843D01*
X20354947Y22724843D01*
X20359844Y22698817D01*
X20359844Y22306343D01*
X20499344Y22166843D01*
X20520837Y22166843D01*
X20725926Y22251794D01*
X20882894Y22408761D01*
X20916101Y22488929D01*
X21009844Y22469946D01*
X21209844Y22469946D01*
X21302488Y22487378D01*
X21308702Y22491376D01*
X21310675Y22490028D01*
X21409844Y22469946D01*
X21609844Y22469946D01*
X21702488Y22487378D01*
X21708702Y22491376D01*
X21710675Y22490028D01*
X21809844Y22469946D01*
X22009844Y22469946D01*
X22102488Y22487378D01*
X22108702Y22491376D01*
X22110675Y22490028D01*
X22209844Y22469946D01*
X22409844Y22469946D01*
X22502488Y22487378D01*
X22587576Y22542131D01*
X22644659Y22625674D01*
X22664741Y22724843D01*
X22664741Y22922843D01*
X23119844Y22922843D01*
X23244982Y22947734D01*
X23351068Y23018619D01*
X24241068Y23908619D01*
X24277299Y23962843D01*
X24311953Y24014706D01*
X24336844Y24139843D01*
X24336844Y30409843D01*
X24316567Y30511783D01*
X24311953Y30534981D01*
X24241068Y30641067D01*
X23650664Y31231471D01*
X23870323Y31140261D01*
X24467059Y31139740D01*
X25018572Y31367620D01*
X25440897Y31789209D01*
X25669739Y32340323D01*
X25670260Y32937059D01*
X25442380Y33488572D01*
X25020791Y33910897D01*
X24469677Y34139739D01*
X23872941Y34140260D01*
X23321428Y33912380D01*
X22899103Y33490791D01*
X22670261Y32939677D01*
X22669740Y32342941D01*
X22761661Y32120474D01*
X21301068Y33581067D01*
X21194982Y33651952D01*
X21069844Y33676843D01*
X19318697Y33676843D01*
X19297410Y33728362D01*
X19109353Y33916747D01*
X18863520Y34018826D01*
X18597336Y34019058D01*
X18351325Y33917409D01*
X18162940Y33729352D01*
X18141136Y33676843D01*
X18084916Y33676843D01*
X18010477Y33788249D01*
X17809335Y33922648D01*
X17572071Y33969843D01*
X15457617Y33969843D01*
X15220353Y33922648D01*
X15019211Y33788249D01*
X14884812Y33587107D01*
X14839875Y33361192D01*
X14626686Y33449716D01*
X14334285Y33449971D01*
X14119784Y33361340D01*
X14074876Y33587107D01*
X13940477Y33788249D01*
X13739335Y33922648D01*
X13502071Y33969843D01*
X11387617Y33969843D01*
X11150353Y33922648D01*
X10949211Y33788249D01*
X10874772Y33676843D01*
X10708767Y33676843D01*
X10682556Y33717575D01*
X10599013Y33774658D01*
X10499844Y33794740D01*
X9899844Y33794740D01*
X9807200Y33777308D01*
X9722112Y33722555D01*
X9665029Y33639012D01*
X9644947Y33539843D01*
X9644947Y33139843D01*
X9662379Y33047199D01*
X9717132Y32962111D01*
X9800675Y32905028D01*
X9874774Y32890023D01*
X9807200Y32877308D01*
X9722112Y32822555D01*
X9665029Y32739012D01*
X9644947Y32639843D01*
X9644947Y32239843D01*
X9662379Y32147199D01*
X9717132Y32062111D01*
X9787730Y32013873D01*
X9632940Y31859352D01*
X9530861Y31613519D01*
X9530629Y31347335D01*
X9632278Y31101324D01*
X9799844Y30933466D01*
X9799844Y30872575D01*
X9722112Y30822555D01*
X9665029Y30739012D01*
X9644947Y30639843D01*
X9644947Y30239843D01*
X9662379Y30147199D01*
X9717132Y30062111D01*
X9800675Y30005028D01*
X9874774Y29990023D01*
X9807200Y29977308D01*
X9722112Y29922555D01*
X9665029Y29839012D01*
X9644947Y29739843D01*
X9644947Y29532843D01*
X9509344Y29532843D01*
X9369844Y29393343D01*
X9369844Y28787343D01*
X9393844Y28787343D01*
X9393844Y28412343D01*
X9369844Y28412343D01*
X9369844Y28375843D01*
X8969844Y28375843D01*
X8969844Y28412343D01*
X8945844Y28412343D01*
X8945844Y28787343D01*
X8969844Y28787343D01*
X8969844Y29393343D01*
X8830344Y29532843D01*
X8658851Y29532843D01*
X8453762Y29447893D01*
X8296795Y29290925D01*
X8242371Y29159534D01*
X8169844Y29209090D01*
X8169844Y29433199D01*
X8222576Y29467131D01*
X8279659Y29550674D01*
X8299741Y29649843D01*
X8299741Y30449843D01*
X8282309Y30542487D01*
X8227556Y30627575D01*
X8144013Y30684658D01*
X8044844Y30704740D01*
X7294844Y30704740D01*
X7202200Y30687308D01*
X7117112Y30632555D01*
X7060029Y30549012D01*
X7039947Y30449843D01*
X7039947Y29649843D01*
X7057379Y29557199D01*
X7112132Y29472111D01*
X7169844Y29432678D01*
X7169844Y29207575D01*
X7092112Y29157555D01*
X7035029Y29074012D01*
X7014947Y28974843D01*
X7014947Y28586319D01*
X6979844Y28409843D01*
X6979844Y27757575D01*
X6902112Y27707555D01*
X6845029Y27624012D01*
X6824947Y27524843D01*
X6824947Y26774843D01*
X6842379Y26682199D01*
X6867704Y26642843D01*
X6855842Y26642843D01*
X6855842Y26503345D01*
X6716344Y26642843D01*
X6448851Y26642843D01*
X6243762Y26557892D01*
X6154741Y26468872D01*
X6154741Y26819843D01*
X6154460Y26821334D01*
X6215926Y26846794D01*
X6372894Y27003761D01*
X6457844Y27208850D01*
X6457844Y27330343D01*
X6318344Y27469843D01*
X5774844Y27469843D01*
X5774844Y27395843D01*
X5524844Y27395843D01*
X5524844Y27469843D01*
X5425844Y27469843D01*
X5425844Y27769843D01*
X5524844Y27769843D01*
X5524844Y28338343D01*
X5774844Y28338343D01*
X5774844Y27769843D01*
X6318344Y27769843D01*
X6457844Y27909343D01*
X6457844Y28030836D01*
X6372894Y28235925D01*
X6215926Y28392892D01*
X6010837Y28477843D01*
X5914344Y28477843D01*
X5774844Y28338343D01*
X5524844Y28338343D01*
X5385344Y28477843D01*
X5288851Y28477843D01*
X5083762Y28392892D01*
X5026844Y28335974D01*
X5026844Y29289434D01*
X5042488Y29292378D01*
X5127576Y29347131D01*
X5184659Y29430674D01*
X5204741Y29529843D01*
X5204741Y30129843D01*
X5204460Y30131334D01*
X5265926Y30156794D01*
X5422894Y30313761D01*
X5507844Y30518850D01*
X5507844Y30640343D01*
X5368344Y30779843D01*
X4824844Y30779843D01*
X4824844Y30705843D01*
X4574844Y30705843D01*
X4574844Y30779843D01*
X4031344Y30779843D01*
X3942940Y30691439D01*
X3932556Y30707575D01*
X3849013Y30764658D01*
X3749844Y30784740D01*
X2549844Y30784740D01*
X2548354Y30784460D01*
X2522894Y30845925D01*
X2365926Y31002892D01*
X2160837Y31087843D01*
X1793344Y31087843D01*
X1653844Y30948343D01*
X1653844Y30033843D01*
X1673844Y30033843D01*
X1673844Y29625843D01*
X1653844Y29625843D01*
X1653844Y29605843D01*
X1245844Y29605843D01*
X1245844Y29625843D01*
X431344Y29625843D01*
X373823Y29568322D01*
X350837Y29577843D01*
X254344Y29577843D01*
X114844Y29438343D01*
X114844Y28869843D01*
X213844Y28869843D01*
X213844Y28569843D01*
X114844Y28569843D01*
X114844Y28495843D01*
X-135156Y28495843D01*
X-135156Y28569843D01*
X-678656Y28569843D01*
X-818156Y28430343D01*
X-818156Y28308850D01*
X-733206Y28103761D01*
X-576238Y27946794D01*
X-514753Y27921326D01*
X-515053Y27919843D01*
X-515053Y27319843D01*
X-497621Y27227199D01*
X-442868Y27142111D01*
X-359325Y27085028D01*
X-260156Y27064946D01*
X239844Y27064946D01*
X332488Y27082378D01*
X417576Y27137131D01*
X474659Y27220674D01*
X491298Y27302843D01*
X594947Y27302843D01*
X594947Y26929843D01*
X612379Y26837199D01*
X667132Y26752111D01*
X750675Y26695028D01*
X849844Y26674946D01*
X1139731Y26674946D01*
X1147735Y26634705D01*
X1218620Y26528619D01*
X1458620Y26288619D01*
X1564707Y26217734D01*
X1689844Y26192843D01*
X3574396Y26192843D01*
X4129239Y25638000D01*
X4054500Y25638000D01*
X3915000Y25498500D01*
X3915000Y24930000D01*
X4014000Y24930000D01*
X4014000Y24630000D01*
X3915000Y24630000D01*
X3915000Y24556000D01*
X3665000Y24556000D01*
X3665000Y24630000D01*
X3121500Y24630000D01*
X2982000Y24490500D01*
X2982000Y24369007D01*
X3066950Y24163918D01*
X3223918Y24006951D01*
X3285403Y23981483D01*
X3285103Y23980000D01*
X3285103Y23380000D01*
X3302535Y23287356D01*
X3357288Y23202268D01*
X3406133Y23168893D01*
X3413247Y23133129D01*
X3412003Y23130132D01*
X1351142Y25190993D01*
X2982000Y25190993D01*
X2982000Y25069500D01*
X3121500Y24930000D01*
X3665000Y24930000D01*
X3665000Y25498500D01*
X3525500Y25638000D01*
X3429007Y25638000D01*
X3223918Y25553049D01*
X3066950Y25396082D01*
X2982000Y25190993D01*
X1351142Y25190993D01*
X701068Y25841067D01*
X594982Y25911952D01*
X500820Y25930682D01*
X487309Y26002487D01*
X432556Y26087575D01*
X349013Y26144658D01*
X249844Y26164740D01*
X-150156Y26164740D01*
X-242800Y26147308D01*
X-327888Y26092555D01*
X-384971Y26009012D01*
X-399976Y25934913D01*
X-412691Y26002487D01*
X-467444Y26087575D01*
X-523156Y26125642D01*
X-523156Y26269843D01*
X-537323Y26341067D01*
X-548047Y26394981D01*
X-618932Y26501067D01*
X-1673700Y27555835D01*
X-1673700Y27686323D01*
X-1601920Y27686323D01*
X-1509276Y27703755D01*
X-1424188Y27758508D01*
X-1367105Y27842051D01*
X-1347023Y27941220D01*
X-1347023Y28738780D01*
X-1364455Y28831424D01*
X-1419208Y28916512D01*
X-1502751Y28973595D01*
X-1601920Y28993677D01*
X-2399480Y28993677D01*
X-2492124Y28976245D01*
X-2573276Y28924025D01*
X-2627471Y29054862D01*
X-2703444Y29130836D01*
X-818156Y29130836D01*
X-818156Y29009343D01*
X-678656Y28869843D01*
X-135156Y28869843D01*
X-135156Y29438343D01*
X-274656Y29577843D01*
X-371149Y29577843D01*
X-576238Y29492892D01*
X-733206Y29335925D01*
X-818156Y29130836D01*
X-2703444Y29130836D01*
X-2784438Y29211830D01*
X-2989527Y29296780D01*
X-3160410Y29296780D01*
X-3299910Y29157280D01*
X-3299910Y28539390D01*
X-3275300Y28539390D01*
X-3275300Y28140610D01*
X-3299910Y28140610D01*
X-3299910Y27522720D01*
X-3160410Y27383220D01*
X-2989527Y27383220D01*
X-2784438Y27468170D01*
X-2627471Y27625138D01*
X-2572818Y27757083D01*
X-2498649Y27706405D01*
X-2399480Y27686323D01*
X-2327700Y27686323D01*
X-2327700Y27420387D01*
X-2302809Y27295249D01*
X-2231924Y27189163D01*
X-1177156Y26134395D01*
X-1177156Y26125200D01*
X-1227888Y26092555D01*
X-1284971Y26009012D01*
X-1305053Y25909843D01*
X-1305053Y25309843D01*
X-1287621Y25217199D01*
X-1232868Y25132111D01*
X-1149325Y25075028D01*
X-1050156Y25054946D01*
X-650156Y25054946D01*
X-557512Y25072378D01*
X-472424Y25127131D01*
X-415341Y25210674D01*
X-400336Y25284773D01*
X-387621Y25217199D01*
X-332868Y25132111D01*
X-249325Y25075028D01*
X-150156Y25054946D01*
X249844Y25054946D01*
X342488Y25072378D01*
X427576Y25127131D01*
X452959Y25164280D01*
X980396Y24636843D01*
X499661Y24636843D01*
X487309Y24702487D01*
X432556Y24787575D01*
X349013Y24844658D01*
X249844Y24864740D01*
X-150156Y24864740D01*
X-242800Y24847308D01*
X-327888Y24792555D01*
X-384971Y24709012D01*
X-399976Y24634913D01*
X-412691Y24702487D01*
X-467444Y24787575D01*
X-550987Y24844658D01*
X-650156Y24864740D01*
X-1050156Y24864740D01*
X-1142800Y24847308D01*
X-1227888Y24792555D01*
X-1284971Y24709012D01*
X-1299585Y24636843D01*
X-1524708Y24636843D01*
X-1544914Y24657049D01*
X-1509276Y24663755D01*
X-1424188Y24718508D01*
X-1367105Y24802051D01*
X-1347023Y24901220D01*
X-1347023Y25698780D01*
X-1364455Y25791424D01*
X-1419208Y25876512D01*
X-1502751Y25933595D01*
X-1601920Y25953677D01*
X-2399480Y25953677D01*
X-2492124Y25936245D01*
X-2573276Y25884025D01*
X-2627471Y26014862D01*
X-2784438Y26171830D01*
X-2989527Y26256780D01*
X-3160410Y26256780D01*
X-3299910Y26117280D01*
X-3299910Y25499390D01*
X-3275300Y25499390D01*
X-3275300Y25100610D01*
X-3299910Y25100610D01*
X-3299910Y24482720D01*
X-3160410Y24343220D01*
X-2989527Y24343220D01*
X-2784438Y24428170D01*
X-2627471Y24585138D01*
X-2572818Y24717083D01*
X-2498649Y24666405D01*
X-2399480Y24646323D01*
X-2326892Y24646323D01*
X-2302809Y24525249D01*
X-2231924Y24419163D01*
X-1891380Y24078619D01*
X-1785294Y24007734D01*
X-1660156Y23982843D01*
X-1299973Y23982843D01*
X-1287621Y23917199D01*
X-1232868Y23832111D01*
X-1149325Y23775028D01*
X-1050156Y23754946D01*
X-650156Y23754946D01*
X-557512Y23772378D01*
X-472424Y23827131D01*
X-415341Y23910674D01*
X-400336Y23984773D01*
X-387621Y23917199D01*
X-332868Y23832111D01*
X-249325Y23775028D01*
X-150156Y23754946D01*
X249844Y23754946D01*
X342488Y23772378D01*
X427576Y23827131D01*
X484659Y23910674D01*
X499273Y23982843D01*
X1198816Y23982843D01*
X3106909Y22074750D01*
X2871325Y21977409D01*
X2682940Y21789352D01*
X2580861Y21543519D01*
X2580629Y21277335D01*
X2682278Y21031324D01*
X2800474Y20912921D01*
X2615002Y20727449D01*
X2563520Y20748826D01*
X2297336Y20749058D01*
X2051325Y20647409D01*
X1862940Y20459352D01*
X1760861Y20213519D01*
X1760629Y19947335D01*
X1862278Y19701324D01*
X2050335Y19512939D01*
X2296168Y19410860D01*
X2562352Y19410628D01*
X2808363Y19512277D01*
X2863841Y19567659D01*
X2981500Y19450000D01*
X3525000Y19450000D01*
X3525000Y20018500D01*
X3385500Y20158000D01*
X3289007Y20158000D01*
X3098943Y20079273D01*
X3099059Y20212351D01*
X3077347Y20264898D01*
X3180449Y20368000D01*
X4142334Y20368000D01*
X4126463Y20344247D01*
X4096776Y20195000D01*
X4112499Y20115955D01*
X4010993Y20158000D01*
X3914500Y20158000D01*
X3775000Y20018500D01*
X3775000Y19450000D01*
X3874000Y19450000D01*
X3874000Y19150000D01*
X3775000Y19150000D01*
X3775000Y19076000D01*
X3525000Y19076000D01*
X3525000Y19150000D01*
X2981500Y19150000D01*
X2842000Y19010500D01*
X2842000Y18889007D01*
X2887093Y18780143D01*
X2673520Y18868826D01*
X2407336Y18869058D01*
X2161325Y18767409D01*
X1972940Y18579352D01*
X1870861Y18333519D01*
X1870629Y18067335D01*
X1972278Y17821324D01*
X2160335Y17632939D01*
X2406168Y17530860D01*
X2672352Y17530628D01*
X2918363Y17632277D01*
X3086379Y17800000D01*
X3167268Y17800000D01*
X3217288Y17722268D01*
X3250000Y17699917D01*
X3250000Y17159687D01*
X3280448Y17006613D01*
X3367157Y16876844D01*
X4147001Y16097000D01*
X4217576Y16049843D01*
X3395530Y16049843D01*
X1463430Y17981943D01*
X1333661Y18068652D01*
X1180587Y18099100D01*
X732312Y18099100D01*
X742437Y18149100D01*
X742437Y18549100D01*
X725005Y18641744D01*
X704437Y18673707D01*
X722355Y18699931D01*
X742437Y18799100D01*
X742437Y19199100D01*
X725005Y19291744D01*
X704437Y19323707D01*
X722355Y19349931D01*
X742437Y19449100D01*
X742437Y19600707D01*
X803622Y19626050D01*
X960589Y19783018D01*
X1045540Y19988107D01*
X1045540Y20059600D01*
X906040Y20199100D01*
X16540Y20199100D01*
X16540Y20103997D01*
X-391460Y20103997D01*
X-391460Y20199100D01*
X-1280960Y20199100D01*
X-1420460Y20059600D01*
X-1420460Y19988107D01*
X-1335509Y19783018D01*
X-1178542Y19626050D01*
X-1117357Y19600707D01*
X-1117357Y19449100D01*
X-1099925Y19356456D01*
X-1080391Y19326100D01*
X-1120899Y19326100D01*
X-1246037Y19301209D01*
X-1352123Y19230324D01*
X-2051380Y18531067D01*
X-2122265Y18424981D01*
X-2136189Y18354981D01*
X-2147156Y18299843D01*
X-2147156Y16517638D01*
X-2496505Y16673269D01*
X-2683460Y16560918D01*
X-2683460Y15703100D01*
X-1713615Y15703100D01*
X-1678737Y15770396D01*
X2252844Y11838815D01*
X2252844Y11089843D01*
X2277735Y10964705D01*
X2348620Y10858619D01*
X2688620Y10518619D01*
X2794706Y10447734D01*
X2919844Y10422843D01*
X2963713Y10422843D01*
X2806794Y10265925D01*
X2721844Y10060836D01*
X2721844Y9939343D01*
X2861344Y9799843D01*
X3404844Y9799843D01*
X3404844Y9873843D01*
X3654844Y9873843D01*
X3654844Y9799843D01*
X4198344Y9799843D01*
X4337844Y9939343D01*
X4337844Y10060836D01*
X4252894Y10265925D01*
X4095926Y10422892D01*
X4071902Y10432843D01*
X4210027Y10432843D01*
X4222379Y10367199D01*
X4277132Y10282111D01*
X4360675Y10225028D01*
X4459844Y10204946D01*
X4859844Y10204946D01*
X4952488Y10222378D01*
X5037576Y10277131D01*
X5094659Y10360674D01*
X5109664Y10434773D01*
X5122379Y10367199D01*
X5177132Y10282111D01*
X5260675Y10225028D01*
X5359844Y10204946D01*
X5759844Y10204946D01*
X5852488Y10222378D01*
X5937576Y10277131D01*
X5994659Y10360674D01*
X6009273Y10432843D01*
X6059844Y10432843D01*
X6144947Y10449771D01*
X6144947Y10169843D01*
X6162379Y10077199D01*
X6217132Y9992111D01*
X6300675Y9935028D01*
X6399844Y9914946D01*
X7010029Y9914946D01*
X7076794Y9753761D01*
X7233762Y9596794D01*
X7394947Y9530029D01*
X7394947Y8919843D01*
X7412379Y8827199D01*
X7467132Y8742111D01*
X7550675Y8685028D01*
X7649844Y8664946D01*
X7801451Y8664946D01*
X7826794Y8603761D01*
X7862712Y8567843D01*
X7765842Y8567843D01*
X7765842Y8482345D01*
X7680344Y8567843D01*
X7558851Y8567843D01*
X7353762Y8482892D01*
X7258994Y8388125D01*
X7259059Y8462351D01*
X7157410Y8708362D01*
X6969353Y8896747D01*
X6723520Y8998826D01*
X6457336Y8999058D01*
X6211325Y8897409D01*
X6022940Y8709352D01*
X5920861Y8463519D01*
X5920629Y8197335D01*
X6022278Y7951324D01*
X6189844Y7783466D01*
X6189844Y7002575D01*
X6112112Y6952555D01*
X6055029Y6869012D01*
X6034947Y6769843D01*
X6034947Y6369843D01*
X6052379Y6277199D01*
X6107132Y6192111D01*
X6190675Y6135028D01*
X6264774Y6120023D01*
X6197200Y6107308D01*
X6112112Y6052555D01*
X6074045Y5996843D01*
X5879844Y5996843D01*
X5754706Y5971952D01*
X5722270Y5950279D01*
X5653520Y5978826D01*
X5387336Y5979058D01*
X5141325Y5877409D01*
X4952940Y5689352D01*
X4850861Y5443519D01*
X4850836Y5414537D01*
X4698493Y5566880D01*
X4808363Y5612277D01*
X4996748Y5800334D01*
X5098827Y6046167D01*
X5099059Y6312351D01*
X4997410Y6558362D01*
X4809353Y6746747D01*
X4756844Y6768551D01*
X4756844Y6839843D01*
X4731953Y6964980D01*
X4661068Y7071067D01*
X3181068Y8551067D01*
X3074982Y8621952D01*
X2949844Y8646843D01*
X1199844Y8646843D01*
X1074707Y8621952D01*
X1021747Y8586565D01*
X1019845Y8585295D01*
X906040Y8699100D01*
X16540Y8699100D01*
X16540Y8603997D01*
X-391460Y8603997D01*
X-391460Y8699100D01*
X-1280960Y8699100D01*
X-1420460Y8559600D01*
X-1420460Y8488107D01*
X-1335509Y8283018D01*
X-1178542Y8126050D01*
X-1117357Y8100707D01*
X-1117357Y7949100D01*
X-1099925Y7856456D01*
X-1079357Y7824493D01*
X-1097275Y7798269D01*
X-1117357Y7699100D01*
X-1117357Y7299100D01*
X-1099925Y7206456D01*
X-1079357Y7174493D01*
X-1097275Y7148269D01*
X-1117357Y7049100D01*
X-1117357Y6649100D01*
X-1099925Y6556456D01*
X-1079357Y6524493D01*
X-1097275Y6498269D01*
X-1117357Y6399100D01*
X-1117357Y5999100D01*
X-1099925Y5906456D01*
X-1047305Y5824683D01*
X-1270640Y5533918D01*
X-1331538Y5386847D01*
X-1236305Y5203100D01*
X-391460Y5203100D01*
X-391460Y5223100D01*
X16540Y5223100D01*
X16540Y5203100D01*
X861385Y5203100D01*
X956618Y5386847D01*
X895720Y5533918D01*
X692035Y5799100D01*
X1124901Y5799100D01*
X1394844Y5529157D01*
X1394844Y5084357D01*
X1322112Y5037555D01*
X1265029Y4954012D01*
X1244947Y4854843D01*
X1244947Y4404843D01*
X1262379Y4312199D01*
X1317132Y4227111D01*
X1400675Y4170028D01*
X1499844Y4149946D01*
X2089844Y4149946D01*
X2182488Y4167378D01*
X2267576Y4222131D01*
X2324659Y4305674D01*
X2344741Y4404843D01*
X2344741Y4854843D01*
X2327309Y4947487D01*
X2300053Y4989843D01*
X3399511Y4989843D01*
X3375029Y4954012D01*
X3354947Y4854843D01*
X3354947Y4404843D01*
X3372379Y4312199D01*
X3427132Y4227111D01*
X3504844Y4174012D01*
X3504844Y4150528D01*
X3357001Y4002686D01*
X3270292Y3872917D01*
X3243978Y3740628D01*
X3239844Y3719843D01*
X3239844Y3519740D01*
X3147200Y3502308D01*
X3062112Y3447555D01*
X3005029Y3364012D01*
X2984947Y3264843D01*
X2984947Y2514843D01*
X3002379Y2422199D01*
X3057132Y2337111D01*
X3140675Y2280028D01*
X3239844Y2259946D01*
X3239844Y1585528D01*
X3018781Y1364466D01*
X2932072Y1234697D01*
X2913770Y1142686D01*
X2901624Y1081623D01*
X2901624Y1044790D01*
X2901574Y1044790D01*
X2808930Y1027358D01*
X2723842Y972605D01*
X2666759Y889062D01*
X2646677Y789893D01*
X2646677Y-10207D01*
X2664109Y-102851D01*
X2718862Y-187939D01*
X2735207Y-199108D01*
X-589232Y-3523547D01*
X-630156Y-3515260D01*
X-1030156Y-3515260D01*
X-1122800Y-3532692D01*
X-1207888Y-3587445D01*
X-1264971Y-3670988D01*
X-1279976Y-3745087D01*
X-1292691Y-3677513D01*
X-1347444Y-3592425D01*
X-1430987Y-3535342D01*
X-1530156Y-3515260D01*
X-1930156Y-3515260D01*
X-2022800Y-3532692D01*
X-2107888Y-3587445D01*
X-2164971Y-3670988D01*
X-2179585Y-3743157D01*
X-2546323Y-3743157D01*
X-2546323Y-3675520D01*
X-2563755Y-3582876D01*
X-2618508Y-3497788D01*
X-2702051Y-3440705D01*
X-2801220Y-3420623D01*
X-3598780Y-3420623D01*
X-3691424Y-3438055D01*
X-3776512Y-3492808D01*
X-3833595Y-3576351D01*
X-3853677Y-3675520D01*
X-3853677Y-4473080D01*
X-3836245Y-4565724D01*
X-3781492Y-4650812D01*
X-3697949Y-4707895D01*
X-3598780Y-4727977D01*
X-2801220Y-4727977D01*
X-2708576Y-4710545D01*
X-2623488Y-4655792D01*
X-2566405Y-4572249D01*
X-2546323Y-4473080D01*
X-2546323Y-4397157D01*
X-2179973Y-4397157D01*
X-2167621Y-4462801D01*
X-2112868Y-4547889D01*
X-2029325Y-4604972D01*
X-1930156Y-4625054D01*
X-1530156Y-4625054D01*
X-1437512Y-4607622D01*
X-1352424Y-4552869D01*
X-1295341Y-4469326D01*
X-1280336Y-4395227D01*
X-1267621Y-4462801D01*
X-1212868Y-4547889D01*
X-1129325Y-4604972D01*
X-1030156Y-4625054D01*
X-630156Y-4625054D01*
X-537512Y-4607622D01*
X-452424Y-4552869D01*
X-395341Y-4469326D01*
X-385003Y-4418274D01*
X-287313Y-4353000D01*
X843347Y-3222340D01*
X843347Y-3388357D01*
X860779Y-3481001D01*
X915532Y-3566089D01*
X999075Y-3623172D01*
X1098244Y-3643254D01*
X1809444Y-3643254D01*
X1819604Y-3641342D01*
X1800861Y-3686481D01*
X1800629Y-3952665D01*
X1819843Y-3999166D01*
X1809444Y-3997060D01*
X1098244Y-3997060D01*
X1005600Y-4014492D01*
X920512Y-4069245D01*
X863429Y-4152788D01*
X843347Y-4251957D01*
X843347Y-4709157D01*
X860779Y-4801801D01*
X915532Y-4886889D01*
X999075Y-4943972D01*
X1098244Y-4964054D01*
X1809444Y-4964054D01*
X1902088Y-4946622D01*
X1987176Y-4891869D01*
X2044259Y-4808326D01*
X2044415Y-4807557D01*
X3350668Y-4807557D01*
X3350629Y-4852665D01*
X3452278Y-5098676D01*
X3640335Y-5287061D01*
X3743991Y-5330103D01*
X3580000Y-5330103D01*
X3487356Y-5347535D01*
X3402268Y-5402288D01*
X3345185Y-5485831D01*
X3325103Y-5585000D01*
X3325103Y-7085000D01*
X3342535Y-7177644D01*
X3397288Y-7262732D01*
X3480831Y-7319815D01*
X3580000Y-7339897D01*
X4280000Y-7339897D01*
X4372644Y-7322465D01*
X4457732Y-7267712D01*
X4514815Y-7184169D01*
X4534897Y-7085000D01*
X4534897Y-6662000D01*
X4615001Y-6662000D01*
X4740139Y-6637109D01*
X4846225Y-6566224D01*
X5185848Y-6226601D01*
X5185629Y-6477665D01*
X5287278Y-6723676D01*
X5475335Y-6912061D01*
X5721168Y-7014140D01*
X5987352Y-7014372D01*
X6233363Y-6912723D01*
X6325103Y-6821143D01*
X6325103Y-7085000D01*
X6342535Y-7177644D01*
X6397288Y-7262732D01*
X6480831Y-7319815D01*
X6580000Y-7339897D01*
X7280000Y-7339897D01*
X7372644Y-7322465D01*
X7457732Y-7267712D01*
X7514815Y-7184169D01*
X7534897Y-7085000D01*
X7534897Y-6735000D01*
X7565001Y-6735000D01*
X7575103Y-6732991D01*
X7575103Y-7385000D01*
X7592535Y-7477644D01*
X7647288Y-7562732D01*
X7730831Y-7619815D01*
X7830000Y-7639897D01*
X8830000Y-7639897D01*
X8922644Y-7622465D01*
X9007732Y-7567712D01*
X9064815Y-7484169D01*
X9084897Y-7385000D01*
X9084897Y-6585000D01*
X9067465Y-6492356D01*
X9012712Y-6407268D01*
X9009626Y-6405159D01*
X9087687Y-6353000D01*
X9324947Y-6115740D01*
X9324947Y-9355157D01*
X9342379Y-9447801D01*
X9397132Y-9532889D01*
X9480675Y-9589972D01*
X9554886Y-9605000D01*
X9080847Y-9605000D01*
X9084897Y-9585000D01*
X9084897Y-8785000D01*
X9067465Y-8692356D01*
X9012712Y-8607268D01*
X8929169Y-8550185D01*
X8830000Y-8530103D01*
X7830000Y-8530103D01*
X7737356Y-8547535D01*
X7652268Y-8602288D01*
X7595185Y-8685831D01*
X7575103Y-8785000D01*
X7575103Y-9585000D01*
X7578866Y-9605000D01*
X1780847Y-9605000D01*
X1784897Y-9585000D01*
X1784897Y-8785000D01*
X1767465Y-8692356D01*
X1712712Y-8607268D01*
X1629169Y-8550185D01*
X1530000Y-8530103D01*
X530000Y-8530103D01*
X437356Y-8547535D01*
X352268Y-8602288D01*
X295185Y-8685831D01*
X275103Y-8785000D01*
X275103Y-9585000D01*
X278866Y-9605000D01*
X-2470451Y-9605000D01*
X-3111958Y-9477397D01*
X-3630749Y-9130751D01*
X-3977397Y-8611958D01*
X-4040033Y-8297059D01*
X-4000260Y-8297059D01*
X-3772380Y-8848572D01*
X-3350791Y-9270897D01*
X-2799677Y-9499739D01*
X-2202941Y-9500260D01*
X-1651428Y-9272380D01*
X-1229103Y-8850791D01*
X-1000261Y-8299677D01*
X-1000195Y-8223628D01*
X2479879Y-8223628D01*
X2586223Y-8481000D01*
X2782964Y-8678085D01*
X3040150Y-8784878D01*
X3318628Y-8785121D01*
X3576000Y-8678777D01*
X3773085Y-8482036D01*
X3879878Y-8224850D01*
X3879879Y-8223628D01*
X5479879Y-8223628D01*
X5586223Y-8481000D01*
X5782964Y-8678085D01*
X6040150Y-8784878D01*
X6318628Y-8785121D01*
X6576000Y-8678777D01*
X6773085Y-8482036D01*
X6879878Y-8224850D01*
X6880121Y-7946372D01*
X6773777Y-7689000D01*
X6577036Y-7491915D01*
X6319850Y-7385122D01*
X6041372Y-7384879D01*
X5784000Y-7491223D01*
X5586915Y-7687964D01*
X5480122Y-7945150D01*
X5479879Y-8223628D01*
X3879879Y-8223628D01*
X3880121Y-7946372D01*
X3773777Y-7689000D01*
X3577036Y-7491915D01*
X3319850Y-7385122D01*
X3041372Y-7384879D01*
X2784000Y-7491223D01*
X2586915Y-7687964D01*
X2480122Y-7945150D01*
X2479879Y-8223628D01*
X-1000195Y-8223628D01*
X-999740Y-7702941D01*
X-1227620Y-7151428D01*
X-1649209Y-6729103D01*
X-1996248Y-6585000D01*
X275103Y-6585000D01*
X275103Y-7385000D01*
X292535Y-7477644D01*
X347288Y-7562732D01*
X430831Y-7619815D01*
X530000Y-7639897D01*
X1530000Y-7639897D01*
X1622644Y-7622465D01*
X1707732Y-7567712D01*
X1764815Y-7484169D01*
X1784897Y-7385000D01*
X1784897Y-6585000D01*
X1767465Y-6492356D01*
X1712712Y-6407268D01*
X1629169Y-6350185D01*
X1530000Y-6330103D01*
X530000Y-6330103D01*
X437356Y-6347535D01*
X352268Y-6402288D01*
X295185Y-6485831D01*
X275103Y-6585000D01*
X-1996248Y-6585000D01*
X-2200323Y-6500261D01*
X-2797059Y-6499740D01*
X-3348572Y-6727620D01*
X-3770897Y-7149209D01*
X-3999739Y-7700323D01*
X-4000260Y-8297059D01*
X-4040033Y-8297059D01*
X-4105000Y-7970451D01*
X-4105000Y-5585000D01*
X1825103Y-5585000D01*
X1825103Y-7085000D01*
X1842535Y-7177644D01*
X1897288Y-7262732D01*
X1980831Y-7319815D01*
X2080000Y-7339897D01*
X2780000Y-7339897D01*
X2872644Y-7322465D01*
X2957732Y-7267712D01*
X3014815Y-7184169D01*
X3034897Y-7085000D01*
X3034897Y-5585000D01*
X3017465Y-5492356D01*
X2962712Y-5407268D01*
X2879169Y-5350185D01*
X2780000Y-5330103D01*
X2080000Y-5330103D01*
X1987356Y-5347535D01*
X1902268Y-5402288D01*
X1845185Y-5485831D01*
X1825103Y-5585000D01*
X-4105000Y-5585000D01*
X-4105000Y-1612665D01*
X-3869371Y-1612665D01*
X-3767722Y-1858676D01*
X-3687770Y-1938767D01*
X-3691424Y-1939455D01*
X-3776512Y-1994208D01*
X-3833595Y-2077751D01*
X-3853677Y-2176920D01*
X-3853677Y-2974480D01*
X-3836245Y-3067124D01*
X-3781492Y-3152212D01*
X-3697949Y-3209295D01*
X-3598780Y-3229377D01*
X-2801220Y-3229377D01*
X-2708576Y-3211945D01*
X-2623488Y-3157192D01*
X-2566405Y-3073649D01*
X-2546323Y-2974480D01*
X-2546323Y-2176920D01*
X-2563755Y-2084276D01*
X-2618508Y-1999188D01*
X-2702051Y-1942105D01*
X-2713510Y-1939784D01*
X-2633252Y-1859666D01*
X-2531173Y-1613833D01*
X-2530941Y-1347649D01*
X-2632590Y-1101638D01*
X-2820647Y-913253D01*
X-3066480Y-811174D01*
X-3332664Y-810942D01*
X-3578675Y-912591D01*
X-3767060Y-1100648D01*
X-3869139Y-1346481D01*
X-3869371Y-1612665D01*
X-4105000Y-1612665D01*
X-4105000Y-297059D01*
X-1500260Y-297059D01*
X-1272380Y-848572D01*
X-850791Y-1270897D01*
X-299677Y-1499739D01*
X297059Y-1500260D01*
X848572Y-1272380D01*
X1270897Y-850791D01*
X1499739Y-299677D01*
X1500260Y297059D01*
X1272380Y848572D01*
X850791Y1270897D01*
X299677Y1499739D01*
X-297059Y1500260D01*
X-848572Y1272380D01*
X-1270897Y850791D01*
X-1499739Y299677D01*
X-1500260Y-297059D01*
X-4105000Y-297059D01*
X-4105000Y3507071D01*
X-4030781Y3356896D01*
X-3707505Y3016086D01*
X-3278415Y2824931D01*
X-3091460Y2937282D01*
X-3091460Y3795100D01*
X-2683460Y3795100D01*
X-2683460Y2937282D01*
X-2496505Y2824931D01*
X-2067415Y3016086D01*
X-1744139Y3356896D01*
X-1618382Y3611353D01*
X-1713615Y3795100D01*
X-2683460Y3795100D01*
X-3091460Y3795100D01*
X-3111460Y3795100D01*
X-3111460Y4203100D01*
X-3091460Y4203100D01*
X-3091460Y5060918D01*
X-2683460Y5060918D01*
X-2683460Y4203100D01*
X-1713615Y4203100D01*
X-1618382Y4386847D01*
X-1729336Y4611353D01*
X-1331538Y4611353D01*
X-1270640Y4464282D01*
X-983522Y4090477D01*
X-575210Y3855002D01*
X-391460Y3947930D01*
X-391460Y4795100D01*
X16540Y4795100D01*
X16540Y3947930D01*
X200290Y3855002D01*
X608602Y4090477D01*
X895720Y4464282D01*
X956618Y4611353D01*
X861385Y4795100D01*
X16540Y4795100D01*
X-391460Y4795100D01*
X-1236305Y4795100D01*
X-1331538Y4611353D01*
X-1729336Y4611353D01*
X-1744139Y4641304D01*
X-2067415Y4982114D01*
X-2496505Y5173269D01*
X-2683460Y5060918D01*
X-3091460Y5060918D01*
X-3278415Y5173269D01*
X-3707505Y4982114D01*
X-4030781Y4641304D01*
X-4105000Y4491129D01*
X-4105000Y9110093D01*
X-1420460Y9110093D01*
X-1420460Y9038600D01*
X-1280960Y8899100D01*
X-651676Y8899100D01*
X-575210Y8855002D01*
X-488013Y8899100D01*
X-391460Y8899100D01*
X-391460Y9795100D01*
X16540Y9795100D01*
X16540Y8899100D01*
X113093Y8899100D01*
X200290Y8855002D01*
X276756Y8899100D01*
X906040Y8899100D01*
X1045540Y9038600D01*
X1045540Y9110093D01*
X960589Y9315182D01*
X915429Y9360343D01*
X2721844Y9360343D01*
X2721844Y9238850D01*
X2806794Y9033761D01*
X2963762Y8876794D01*
X3168851Y8791843D01*
X3265344Y8791843D01*
X3404844Y8931343D01*
X3404844Y9499843D01*
X3654844Y9499843D01*
X3654844Y8931343D01*
X3794344Y8791843D01*
X3890837Y8791843D01*
X4095926Y8876794D01*
X4252894Y9033761D01*
X4337844Y9238850D01*
X4337844Y9360343D01*
X4198344Y9499843D01*
X3654844Y9499843D01*
X3404844Y9499843D01*
X2861344Y9499843D01*
X2721844Y9360343D01*
X915429Y9360343D01*
X859129Y9416643D01*
X895720Y9464282D01*
X956618Y9611353D01*
X861385Y9795100D01*
X16540Y9795100D01*
X-391460Y9795100D01*
X-1236305Y9795100D01*
X-1331538Y9611353D01*
X-1270640Y9464282D01*
X-1234049Y9416643D01*
X-1335509Y9315182D01*
X-1420460Y9110093D01*
X-4105000Y9110093D01*
X-4105000Y10507071D01*
X-4030781Y10356896D01*
X-3707505Y10016086D01*
X-3278415Y9824931D01*
X-3091460Y9937282D01*
X-3091460Y10795100D01*
X-2683460Y10795100D01*
X-2683460Y9937282D01*
X-2496505Y9824931D01*
X-2067415Y10016086D01*
X-1744139Y10356896D01*
X-1729337Y10386847D01*
X-1331538Y10386847D01*
X-1236305Y10203100D01*
X-391460Y10203100D01*
X-391460Y11050270D01*
X16540Y11050270D01*
X16540Y10203100D01*
X861385Y10203100D01*
X956618Y10386847D01*
X895720Y10533918D01*
X608602Y10907723D01*
X200290Y11143198D01*
X16540Y11050270D01*
X-391460Y11050270D01*
X-575210Y11143198D01*
X-983522Y10907723D01*
X-1270640Y10533918D01*
X-1331538Y10386847D01*
X-1729337Y10386847D01*
X-1618382Y10611353D01*
X-1713615Y10795100D01*
X-2683460Y10795100D01*
X-3091460Y10795100D01*
X-3111460Y10795100D01*
X-3111460Y11203100D01*
X-3091460Y11203100D01*
X-3091460Y12060918D01*
X-2683460Y12060918D01*
X-2683460Y11203100D01*
X-1713615Y11203100D01*
X-1618382Y11386847D01*
X-1744139Y11641304D01*
X-2067415Y11982114D01*
X-2496505Y12173269D01*
X-2683460Y12060918D01*
X-3091460Y12060918D01*
X-3278415Y12173269D01*
X-3707505Y11982114D01*
X-4030781Y11641304D01*
X-4105000Y11491129D01*
X-4105000Y15007071D01*
X-4030781Y14856896D01*
X-3707505Y14516086D01*
X-3278415Y14324931D01*
X-3091460Y14437282D01*
X-3091460Y15295100D01*
X-2683460Y15295100D01*
X-2683460Y14437282D01*
X-2496505Y14324931D01*
X-2067415Y14516086D01*
X-1744139Y14856896D01*
X-1618382Y15111353D01*
X-1713615Y15295100D01*
X-2683460Y15295100D01*
X-3091460Y15295100D01*
X-3111460Y15295100D01*
X-3111460Y15703100D01*
X-3091460Y15703100D01*
X-3091460Y16560918D01*
X-3278415Y16673269D01*
X-3707505Y16482114D01*
X-4030781Y16141304D01*
X-4105000Y15991129D01*
X-4105000Y20610093D01*
X-1420460Y20610093D01*
X-1420460Y20538600D01*
X-1280960Y20399100D01*
X-651676Y20399100D01*
X-575210Y20355002D01*
X-488013Y20399100D01*
X-391460Y20399100D01*
X-391460Y21295100D01*
X16540Y21295100D01*
X16540Y20399100D01*
X113093Y20399100D01*
X200290Y20355002D01*
X276756Y20399100D01*
X906040Y20399100D01*
X1045540Y20538600D01*
X1045540Y20610093D01*
X960589Y20815182D01*
X859129Y20916643D01*
X895720Y20964282D01*
X956618Y21111353D01*
X861385Y21295100D01*
X16540Y21295100D01*
X-391460Y21295100D01*
X-1236305Y21295100D01*
X-1331538Y21111353D01*
X-1270640Y20964282D01*
X-1234049Y20916643D01*
X-1335509Y20815182D01*
X-1420460Y20610093D01*
X-4105000Y20610093D01*
X-4105000Y22007071D01*
X-4030781Y21856896D01*
X-3707505Y21516086D01*
X-3278415Y21324931D01*
X-3091460Y21437282D01*
X-3091460Y22295100D01*
X-2683460Y22295100D01*
X-2683460Y21437282D01*
X-2496505Y21324931D01*
X-2067415Y21516086D01*
X-1744139Y21856896D01*
X-1729337Y21886847D01*
X-1331538Y21886847D01*
X-1236305Y21703100D01*
X-391460Y21703100D01*
X-391460Y22550270D01*
X16540Y22550270D01*
X16540Y21703100D01*
X861385Y21703100D01*
X956618Y21886847D01*
X895720Y22033918D01*
X608602Y22407723D01*
X200290Y22643198D01*
X16540Y22550270D01*
X-391460Y22550270D01*
X-575210Y22643198D01*
X-983522Y22407723D01*
X-1270640Y22033918D01*
X-1331538Y21886847D01*
X-1729337Y21886847D01*
X-1618382Y22111353D01*
X-1713615Y22295100D01*
X-2683460Y22295100D01*
X-3091460Y22295100D01*
X-3111460Y22295100D01*
X-3111460Y22703100D01*
X-3091460Y22703100D01*
X-3091460Y23560918D01*
X-2683460Y23560918D01*
X-2683460Y22703100D01*
X-1713615Y22703100D01*
X-1618382Y22886847D01*
X-1744139Y23141304D01*
X-2067415Y23482114D01*
X-2496505Y23673269D01*
X-2683460Y23560918D01*
X-3091460Y23560918D01*
X-3278415Y23673269D01*
X-3707505Y23482114D01*
X-4030781Y23141304D01*
X-4105000Y22991129D01*
X-4105000Y24382954D01*
X-4009073Y24343220D01*
X-3838190Y24343220D01*
X-3698690Y24482720D01*
X-3698690Y25100610D01*
X-3723300Y25100610D01*
X-3723300Y25499390D01*
X-3698690Y25499390D01*
X-3698690Y26117280D01*
X-3838190Y26256780D01*
X-4009073Y26256780D01*
X-4105000Y26217046D01*
X-4105000Y27422954D01*
X-4009073Y27383220D01*
X-3838190Y27383220D01*
X-3698690Y27522720D01*
X-3698690Y28140610D01*
X-3723300Y28140610D01*
X-3723300Y28539390D01*
X-3698690Y28539390D01*
X-3698690Y29157280D01*
X-3838190Y29296780D01*
X-4009073Y29296780D01*
X-4105000Y29257046D01*
X-4105000Y30640836D01*
X291844Y30640836D01*
X291844Y30173343D01*
X431344Y30033843D01*
X1245844Y30033843D01*
X1245844Y30948343D01*
X1106344Y31087843D01*
X738851Y31087843D01*
X533762Y31002892D01*
X376794Y30845925D01*
X291844Y30640836D01*
X-4105000Y30640836D01*
X-4105000Y32342941D01*
X-4000260Y32342941D01*
X-3772380Y31791428D01*
X-3350791Y31369103D01*
X-2799677Y31140261D01*
X-2202941Y31139740D01*
X-1716251Y31340836D01*
X3891844Y31340836D01*
X3891844Y31219343D01*
X4031344Y31079843D01*
X4574844Y31079843D01*
X4574844Y31648343D01*
X4824844Y31648343D01*
X4824844Y31079843D01*
X5368344Y31079843D01*
X5507844Y31219343D01*
X5507844Y31340836D01*
X5422894Y31545925D01*
X5265926Y31702892D01*
X5060837Y31787843D01*
X4964344Y31787843D01*
X4824844Y31648343D01*
X4574844Y31648343D01*
X4435344Y31787843D01*
X4338851Y31787843D01*
X4133762Y31702892D01*
X3976794Y31545925D01*
X3891844Y31340836D01*
X-1716251Y31340836D01*
X-1651428Y31367620D01*
X-1229103Y31789209D01*
X-1000261Y32340323D01*
X-1000006Y32632843D01*
X5211844Y32632843D01*
X5211844Y32473850D01*
X5296795Y32268761D01*
X5453762Y32111793D01*
X5658851Y32026843D01*
X5830344Y32026843D01*
X5969844Y32166343D01*
X5969844Y32772343D01*
X5351344Y32772343D01*
X5211844Y32632843D01*
X-1000006Y32632843D01*
X-999740Y32937059D01*
X-1209961Y33445836D01*
X5211844Y33445836D01*
X5211844Y33286843D01*
X5351344Y33147343D01*
X5969844Y33147343D01*
X5969844Y33753343D01*
X5830344Y33892843D01*
X5658851Y33892843D01*
X5453762Y33807893D01*
X5296795Y33650925D01*
X5211844Y33445836D01*
X-1209961Y33445836D01*
X-1227620Y33488572D01*
X-1649209Y33910897D01*
X-2200323Y34139739D01*
X-2797059Y34140260D01*
X-3348572Y33912380D01*
X-3770897Y33490791D01*
X-3999739Y32939677D01*
X-4000260Y32342941D01*
X-4105000Y32342941D01*
X-4105000Y34560000D01*
X6669861Y34560000D01*
X6669671Y34341803D01*
G36*
X17690000Y940068D02*
X17690000Y-5700260D01*
X16379844Y-5700260D01*
X16287200Y-5717692D01*
X16202112Y-5772445D01*
X16145029Y-5855988D01*
X16124947Y-5955157D01*
X16124947Y-9355157D01*
X16142379Y-9447801D01*
X16197132Y-9532889D01*
X16280675Y-9589972D01*
X16354886Y-9605000D01*
X11206704Y-9605000D01*
X11272488Y-9592622D01*
X11357576Y-9537869D01*
X11414659Y-9454326D01*
X11434741Y-9355157D01*
X11434741Y-5955157D01*
X11417309Y-5862513D01*
X11362556Y-5777425D01*
X11315331Y-5745157D01*
X14854844Y-5745157D01*
X15007918Y-5714709D01*
X15137687Y-5628000D01*
X16087687Y-4678000D01*
X16174396Y-4548231D01*
X16204844Y-4395157D01*
X16204844Y1549946D01*
X16297488Y1567378D01*
X16382576Y1622131D01*
X16439659Y1705674D01*
X16459741Y1804843D01*
X16459741Y2554843D01*
X16442309Y2647487D01*
X16387556Y2732575D01*
X16304013Y2789658D01*
X16226477Y2805359D01*
X16396748Y2975334D01*
X16498827Y3221167D01*
X16499059Y3487351D01*
X16397410Y3733362D01*
X16209353Y3921747D01*
X15963520Y4023826D01*
X15697336Y4024058D01*
X15451325Y3922409D01*
X15262940Y3734352D01*
X15160861Y3488519D01*
X15160629Y3222335D01*
X15262278Y2976324D01*
X15404844Y2833509D01*
X15404844Y2809740D01*
X15312200Y2792308D01*
X15231869Y2740616D01*
X15177893Y2870925D01*
X15020926Y3027893D01*
X14815837Y3112843D01*
X14644344Y3112843D01*
X14504844Y2973343D01*
X14504844Y2367343D01*
X14528844Y2367343D01*
X14528844Y1992343D01*
X14504844Y1992343D01*
X14504844Y1386343D01*
X14644344Y1246843D01*
X14815837Y1246843D01*
X15020926Y1331793D01*
X15177893Y1488761D01*
X15232317Y1620152D01*
X15305675Y1570028D01*
X15404844Y1549946D01*
X15404844Y-137992D01*
X15379013Y-120342D01*
X15279844Y-100260D01*
X14279844Y-100260D01*
X14187200Y-117692D01*
X14102112Y-172445D01*
X14045029Y-255988D01*
X14024947Y-355157D01*
X14024947Y-3855157D01*
X14042379Y-3947801D01*
X14097132Y-4032889D01*
X14180675Y-4089972D01*
X14279844Y-4110054D01*
X14379844Y-4110054D01*
X14379844Y-4124472D01*
X14124158Y-4380157D01*
X13470507Y-4380157D01*
X13595926Y-4328207D01*
X13752893Y-4171239D01*
X13837844Y-3966150D01*
X13837844Y-2448657D01*
X13698344Y-2309157D01*
X12983844Y-2309157D01*
X12983844Y-2329157D01*
X12575844Y-2329157D01*
X12575844Y-2309157D01*
X11861344Y-2309157D01*
X11721844Y-2448657D01*
X11721844Y-3966150D01*
X11792783Y-4137411D01*
X9522687Y-1867314D01*
X9392918Y-1780605D01*
X9239844Y-1750157D01*
X8830037Y-1750157D01*
X8817309Y-1682513D01*
X8788767Y-1638157D01*
X8827844Y-1638157D01*
X8967344Y-1498657D01*
X8967344Y-754157D01*
X8905844Y-754157D01*
X8905844Y-346157D01*
X8967344Y-346157D01*
X8967344Y398343D01*
X9292344Y398343D01*
X9292344Y-346157D01*
X9353844Y-346157D01*
X9353844Y-754157D01*
X9292344Y-754157D01*
X9292344Y-1498657D01*
X9431844Y-1638157D01*
X9565837Y-1638157D01*
X9770926Y-1553206D01*
X9927894Y-1396239D01*
X9953237Y-1335054D01*
X10404844Y-1335054D01*
X10497488Y-1317622D01*
X10582576Y-1262869D01*
X10639659Y-1179326D01*
X10659741Y-1080157D01*
X10659741Y-877157D01*
X10710991Y-877157D01*
X10732278Y-928676D01*
X10920335Y-1117061D01*
X11166168Y-1219140D01*
X11432352Y-1219372D01*
X11678363Y-1117723D01*
X11721844Y-1074318D01*
X11721844Y-1761657D01*
X11861344Y-1901157D01*
X12575844Y-1901157D01*
X12575844Y63343D01*
X12983844Y63343D01*
X12983844Y-1901157D01*
X13698344Y-1901157D01*
X13837844Y-1761657D01*
X13837844Y-244164D01*
X13752893Y-39075D01*
X13595926Y117893D01*
X13390837Y202843D01*
X13123344Y202843D01*
X12983844Y63343D01*
X12575844Y63343D01*
X12436344Y202843D01*
X12168851Y202843D01*
X11963762Y117893D01*
X11806795Y-39075D01*
X11785764Y-89849D01*
X11679353Y16747D01*
X11433520Y118826D01*
X11167336Y119058D01*
X10921325Y17409D01*
X10732940Y-170648D01*
X10711136Y-223157D01*
X10659741Y-223157D01*
X10659741Y-20157D01*
X10642309Y72487D01*
X10587556Y157575D01*
X10504013Y214658D01*
X10404844Y234740D01*
X9953237Y234740D01*
X9927894Y295925D01*
X9770926Y452892D01*
X9565837Y537843D01*
X9431844Y537843D01*
X9292344Y398343D01*
X8967344Y398343D01*
X8827844Y537843D01*
X8693851Y537843D01*
X8488762Y452892D01*
X8331794Y295925D01*
X8306451Y234740D01*
X7854844Y234740D01*
X7762200Y217308D01*
X7677112Y162555D01*
X7620029Y79012D01*
X7615625Y57262D01*
X7607894Y75925D01*
X7450926Y232892D01*
X7319535Y287316D01*
X7369659Y360674D01*
X7389741Y459843D01*
X7389741Y463801D01*
X7522918Y490291D01*
X7652687Y577000D01*
X7762684Y686998D01*
X7762687Y687000D01*
X7849396Y816770D01*
X7858979Y864946D01*
X8504844Y864946D01*
X8597488Y882378D01*
X8682576Y937131D01*
X8739659Y1020674D01*
X8759741Y1119843D01*
X8759741Y1251812D01*
X8902918Y1280291D01*
X9032687Y1367000D01*
X9392687Y1727000D01*
X9479396Y1856769D01*
X9499947Y1960087D01*
X9499947Y1119843D01*
X9517379Y1027199D01*
X9572132Y942111D01*
X9655675Y885028D01*
X9754844Y864946D01*
X10404844Y864946D01*
X10497488Y882378D01*
X10582576Y937131D01*
X10639659Y1020674D01*
X10659741Y1119843D01*
X10659741Y1141143D01*
X10724707Y1097734D01*
X10849844Y1072843D01*
X10964487Y1072843D01*
X10997132Y1022111D01*
X11080675Y965028D01*
X11179844Y944946D01*
X11779844Y944946D01*
X11872488Y962378D01*
X11957576Y1017131D01*
X12014659Y1100674D01*
X12034741Y1199843D01*
X12034741Y1599843D01*
X12034460Y1601334D01*
X12095926Y1626794D01*
X12252894Y1783761D01*
X12281508Y1852843D01*
X13346844Y1852843D01*
X13346844Y1693850D01*
X13431795Y1488761D01*
X13588762Y1331793D01*
X13793851Y1246843D01*
X13965344Y1246843D01*
X14104844Y1386343D01*
X14104844Y1992343D01*
X13486344Y1992343D01*
X13346844Y1852843D01*
X12281508Y1852843D01*
X12337844Y1988850D01*
X12337844Y2060343D01*
X12198344Y2199843D01*
X11629844Y2199843D01*
X11629844Y2099843D01*
X11329844Y2099843D01*
X11329844Y2199843D01*
X11255844Y2199843D01*
X11255844Y2399843D01*
X11329844Y2399843D01*
X11329844Y2499843D01*
X11629844Y2499843D01*
X11629844Y2399843D01*
X12198344Y2399843D01*
X12337844Y2539343D01*
X12337844Y2610836D01*
X12316716Y2661843D01*
X12473846Y2661843D01*
X12473846Y2747341D01*
X12559344Y2661843D01*
X12680837Y2661843D01*
X12690477Y2665836D01*
X13346844Y2665836D01*
X13346844Y2506843D01*
X13486344Y2367343D01*
X14104844Y2367343D01*
X14104844Y2973343D01*
X13965344Y3112843D01*
X13793851Y3112843D01*
X13588762Y3027893D01*
X13431795Y2870925D01*
X13346844Y2665836D01*
X12690477Y2665836D01*
X12885926Y2746793D01*
X13042893Y2903761D01*
X13127844Y3108850D01*
X13127844Y3205343D01*
X12988344Y3344843D01*
X12419844Y3344843D01*
X12419844Y3245843D01*
X12119844Y3245843D01*
X12119844Y3344843D01*
X12045844Y3344843D01*
X12045844Y3594843D01*
X12119844Y3594843D01*
X12119844Y3693843D01*
X12419844Y3693843D01*
X12419844Y3594843D01*
X12988344Y3594843D01*
X13127844Y3734343D01*
X13127844Y3830836D01*
X13042893Y4035925D01*
X12885926Y4192893D01*
X12838305Y4212618D01*
X13277814Y4652127D01*
X13282278Y4641324D01*
X13470335Y4452939D01*
X13716168Y4350860D01*
X13982352Y4350628D01*
X14030710Y4370609D01*
X14030629Y4277335D01*
X14132278Y4031324D01*
X14320335Y3842939D01*
X14566168Y3740860D01*
X14832352Y3740628D01*
X15078363Y3842277D01*
X15266748Y4030334D01*
X15368827Y4276167D01*
X15369059Y4542351D01*
X15267410Y4788362D01*
X15079353Y4976747D01*
X15026844Y4998551D01*
X15026844Y5304395D01*
X17699587Y7977138D01*
X17690000Y940068D01*
X17690000Y940068D01*
G37*
X17690000Y940068D02*
X17690000Y-5700260D01*
X16379844Y-5700260D01*
X16287200Y-5717692D01*
X16202112Y-5772445D01*
X16145029Y-5855988D01*
X16124947Y-5955157D01*
X16124947Y-9355157D01*
X16142379Y-9447801D01*
X16197132Y-9532889D01*
X16280675Y-9589972D01*
X16354886Y-9605000D01*
X11206704Y-9605000D01*
X11272488Y-9592622D01*
X11357576Y-9537869D01*
X11414659Y-9454326D01*
X11434741Y-9355157D01*
X11434741Y-5955157D01*
X11417309Y-5862513D01*
X11362556Y-5777425D01*
X11315331Y-5745157D01*
X14854844Y-5745157D01*
X15007918Y-5714709D01*
X15137687Y-5628000D01*
X16087687Y-4678000D01*
X16174396Y-4548231D01*
X16204844Y-4395157D01*
X16204844Y1549946D01*
X16297488Y1567378D01*
X16382576Y1622131D01*
X16439659Y1705674D01*
X16459741Y1804843D01*
X16459741Y2554843D01*
X16442309Y2647487D01*
X16387556Y2732575D01*
X16304013Y2789658D01*
X16226477Y2805359D01*
X16396748Y2975334D01*
X16498827Y3221167D01*
X16499059Y3487351D01*
X16397410Y3733362D01*
X16209353Y3921747D01*
X15963520Y4023826D01*
X15697336Y4024058D01*
X15451325Y3922409D01*
X15262940Y3734352D01*
X15160861Y3488519D01*
X15160629Y3222335D01*
X15262278Y2976324D01*
X15404844Y2833509D01*
X15404844Y2809740D01*
X15312200Y2792308D01*
X15231869Y2740616D01*
X15177893Y2870925D01*
X15020926Y3027893D01*
X14815837Y3112843D01*
X14644344Y3112843D01*
X14504844Y2973343D01*
X14504844Y2367343D01*
X14528844Y2367343D01*
X14528844Y1992343D01*
X14504844Y1992343D01*
X14504844Y1386343D01*
X14644344Y1246843D01*
X14815837Y1246843D01*
X15020926Y1331793D01*
X15177893Y1488761D01*
X15232317Y1620152D01*
X15305675Y1570028D01*
X15404844Y1549946D01*
X15404844Y-137992D01*
X15379013Y-120342D01*
X15279844Y-100260D01*
X14279844Y-100260D01*
X14187200Y-117692D01*
X14102112Y-172445D01*
X14045029Y-255988D01*
X14024947Y-355157D01*
X14024947Y-3855157D01*
X14042379Y-3947801D01*
X14097132Y-4032889D01*
X14180675Y-4089972D01*
X14279844Y-4110054D01*
X14379844Y-4110054D01*
X14379844Y-4124472D01*
X14124158Y-4380157D01*
X13470507Y-4380157D01*
X13595926Y-4328207D01*
X13752893Y-4171239D01*
X13837844Y-3966150D01*
X13837844Y-2448657D01*
X13698344Y-2309157D01*
X12983844Y-2309157D01*
X12983844Y-2329157D01*
X12575844Y-2329157D01*
X12575844Y-2309157D01*
X11861344Y-2309157D01*
X11721844Y-2448657D01*
X11721844Y-3966150D01*
X11792783Y-4137411D01*
X9522687Y-1867314D01*
X9392918Y-1780605D01*
X9239844Y-1750157D01*
X8830037Y-1750157D01*
X8817309Y-1682513D01*
X8788767Y-1638157D01*
X8827844Y-1638157D01*
X8967344Y-1498657D01*
X8967344Y-754157D01*
X8905844Y-754157D01*
X8905844Y-346157D01*
X8967344Y-346157D01*
X8967344Y398343D01*
X9292344Y398343D01*
X9292344Y-346157D01*
X9353844Y-346157D01*
X9353844Y-754157D01*
X9292344Y-754157D01*
X9292344Y-1498657D01*
X9431844Y-1638157D01*
X9565837Y-1638157D01*
X9770926Y-1553206D01*
X9927894Y-1396239D01*
X9953237Y-1335054D01*
X10404844Y-1335054D01*
X10497488Y-1317622D01*
X10582576Y-1262869D01*
X10639659Y-1179326D01*
X10659741Y-1080157D01*
X10659741Y-877157D01*
X10710991Y-877157D01*
X10732278Y-928676D01*
X10920335Y-1117061D01*
X11166168Y-1219140D01*
X11432352Y-1219372D01*
X11678363Y-1117723D01*
X11721844Y-1074318D01*
X11721844Y-1761657D01*
X11861344Y-1901157D01*
X12575844Y-1901157D01*
X12575844Y63343D01*
X12983844Y63343D01*
X12983844Y-1901157D01*
X13698344Y-1901157D01*
X13837844Y-1761657D01*
X13837844Y-244164D01*
X13752893Y-39075D01*
X13595926Y117893D01*
X13390837Y202843D01*
X13123344Y202843D01*
X12983844Y63343D01*
X12575844Y63343D01*
X12436344Y202843D01*
X12168851Y202843D01*
X11963762Y117893D01*
X11806795Y-39075D01*
X11785764Y-89849D01*
X11679353Y16747D01*
X11433520Y118826D01*
X11167336Y119058D01*
X10921325Y17409D01*
X10732940Y-170648D01*
X10711136Y-223157D01*
X10659741Y-223157D01*
X10659741Y-20157D01*
X10642309Y72487D01*
X10587556Y157575D01*
X10504013Y214658D01*
X10404844Y234740D01*
X9953237Y234740D01*
X9927894Y295925D01*
X9770926Y452892D01*
X9565837Y537843D01*
X9431844Y537843D01*
X9292344Y398343D01*
X8967344Y398343D01*
X8827844Y537843D01*
X8693851Y537843D01*
X8488762Y452892D01*
X8331794Y295925D01*
X8306451Y234740D01*
X7854844Y234740D01*
X7762200Y217308D01*
X7677112Y162555D01*
X7620029Y79012D01*
X7615625Y57262D01*
X7607894Y75925D01*
X7450926Y232892D01*
X7319535Y287316D01*
X7369659Y360674D01*
X7389741Y459843D01*
X7389741Y463801D01*
X7522918Y490291D01*
X7652687Y577000D01*
X7762684Y686998D01*
X7762687Y687000D01*
X7849396Y816770D01*
X7858979Y864946D01*
X8504844Y864946D01*
X8597488Y882378D01*
X8682576Y937131D01*
X8739659Y1020674D01*
X8759741Y1119843D01*
X8759741Y1251812D01*
X8902918Y1280291D01*
X9032687Y1367000D01*
X9392687Y1727000D01*
X9479396Y1856769D01*
X9499947Y1960087D01*
X9499947Y1119843D01*
X9517379Y1027199D01*
X9572132Y942111D01*
X9655675Y885028D01*
X9754844Y864946D01*
X10404844Y864946D01*
X10497488Y882378D01*
X10582576Y937131D01*
X10639659Y1020674D01*
X10659741Y1119843D01*
X10659741Y1141143D01*
X10724707Y1097734D01*
X10849844Y1072843D01*
X10964487Y1072843D01*
X10997132Y1022111D01*
X11080675Y965028D01*
X11179844Y944946D01*
X11779844Y944946D01*
X11872488Y962378D01*
X11957576Y1017131D01*
X12014659Y1100674D01*
X12034741Y1199843D01*
X12034741Y1599843D01*
X12034460Y1601334D01*
X12095926Y1626794D01*
X12252894Y1783761D01*
X12281508Y1852843D01*
X13346844Y1852843D01*
X13346844Y1693850D01*
X13431795Y1488761D01*
X13588762Y1331793D01*
X13793851Y1246843D01*
X13965344Y1246843D01*
X14104844Y1386343D01*
X14104844Y1992343D01*
X13486344Y1992343D01*
X13346844Y1852843D01*
X12281508Y1852843D01*
X12337844Y1988850D01*
X12337844Y2060343D01*
X12198344Y2199843D01*
X11629844Y2199843D01*
X11629844Y2099843D01*
X11329844Y2099843D01*
X11329844Y2199843D01*
X11255844Y2199843D01*
X11255844Y2399843D01*
X11329844Y2399843D01*
X11329844Y2499843D01*
X11629844Y2499843D01*
X11629844Y2399843D01*
X12198344Y2399843D01*
X12337844Y2539343D01*
X12337844Y2610836D01*
X12316716Y2661843D01*
X12473846Y2661843D01*
X12473846Y2747341D01*
X12559344Y2661843D01*
X12680837Y2661843D01*
X12690477Y2665836D01*
X13346844Y2665836D01*
X13346844Y2506843D01*
X13486344Y2367343D01*
X14104844Y2367343D01*
X14104844Y2973343D01*
X13965344Y3112843D01*
X13793851Y3112843D01*
X13588762Y3027893D01*
X13431795Y2870925D01*
X13346844Y2665836D01*
X12690477Y2665836D01*
X12885926Y2746793D01*
X13042893Y2903761D01*
X13127844Y3108850D01*
X13127844Y3205343D01*
X12988344Y3344843D01*
X12419844Y3344843D01*
X12419844Y3245843D01*
X12119844Y3245843D01*
X12119844Y3344843D01*
X12045844Y3344843D01*
X12045844Y3594843D01*
X12119844Y3594843D01*
X12119844Y3693843D01*
X12419844Y3693843D01*
X12419844Y3594843D01*
X12988344Y3594843D01*
X13127844Y3734343D01*
X13127844Y3830836D01*
X13042893Y4035925D01*
X12885926Y4192893D01*
X12838305Y4212618D01*
X13277814Y4652127D01*
X13282278Y4641324D01*
X13470335Y4452939D01*
X13716168Y4350860D01*
X13982352Y4350628D01*
X14030710Y4370609D01*
X14030629Y4277335D01*
X14132278Y4031324D01*
X14320335Y3842939D01*
X14566168Y3740860D01*
X14832352Y3740628D01*
X15078363Y3842277D01*
X15266748Y4030334D01*
X15368827Y4276167D01*
X15369059Y4542351D01*
X15267410Y4788362D01*
X15079353Y4976747D01*
X15026844Y4998551D01*
X15026844Y5304395D01*
X17699587Y7977138D01*
X17690000Y940068D01*
G36*
X6947344Y-440157D02*
X6983844Y-440157D01*
X6983844Y-840157D01*
X6947344Y-840157D01*
X6947344Y-1289157D01*
X6879844Y-1356657D01*
X6879844Y-1962657D01*
X6903844Y-1962657D01*
X6903844Y-2337657D01*
X6879844Y-2337657D01*
X6879844Y-2943657D01*
X7019344Y-3083157D01*
X7190837Y-3083157D01*
X7395926Y-2998207D01*
X7552893Y-2841239D01*
X7607317Y-2709848D01*
X7680675Y-2759972D01*
X7779844Y-2780054D01*
X7786785Y-2780054D01*
X7810292Y-2898231D01*
X7897001Y-3028000D01*
X8654844Y-3785843D01*
X8654844Y-3949035D01*
X8487940Y-4115648D01*
X8385861Y-4361481D01*
X8385629Y-4627665D01*
X8487278Y-4873676D01*
X8675335Y-5062061D01*
X8921168Y-5164140D01*
X9144980Y-5164335D01*
X8639158Y-5670157D01*
X7829849Y-5670157D01*
X7829844Y-5670156D01*
X7678505Y-5700260D01*
X7676771Y-5700605D01*
X7547001Y-5787314D01*
X7546999Y-5787317D01*
X7534897Y-5799419D01*
X7534897Y-5585000D01*
X7517465Y-5492356D01*
X7462712Y-5407268D01*
X7451052Y-5399301D01*
X7532352Y-5399372D01*
X7778363Y-5297723D01*
X7966748Y-5109666D01*
X8068827Y-4863833D01*
X8069059Y-4597649D01*
X7967410Y-4351638D01*
X7779353Y-4163253D01*
X7533520Y-4061174D01*
X7267336Y-4060942D01*
X7212862Y-4083450D01*
X7114982Y-4018048D01*
X6989844Y-3993157D01*
X6473252Y-3993157D01*
X6498842Y-3921294D01*
X6485098Y-3649928D01*
X6407691Y-3463050D01*
X6245325Y-3473064D01*
X5898232Y-3820157D01*
X5942427Y-3864352D01*
X5861576Y-3945202D01*
X5846488Y-3945189D01*
X5809844Y-3908545D01*
X5773264Y-3945125D01*
X5758022Y-3945112D01*
X5684799Y-3871889D01*
X5684812Y-3856801D01*
X5721456Y-3820157D01*
X5684876Y-3783577D01*
X5684889Y-3768335D01*
X5765650Y-3687575D01*
X5809844Y-3731769D01*
X6156937Y-3384676D01*
X6166951Y-3222310D01*
X5910981Y-3131159D01*
X5639615Y-3144903D01*
X5636844Y-3146051D01*
X5636844Y-2720054D01*
X5709844Y-2720054D01*
X5753218Y-2711893D01*
X5806795Y-2841239D01*
X5963762Y-2998207D01*
X6168851Y-3083157D01*
X6340344Y-3083157D01*
X6479844Y-2943657D01*
X6479844Y-2337657D01*
X6455844Y-2337657D01*
X6455844Y-1962657D01*
X6479844Y-1962657D01*
X6479844Y-1551157D01*
X6572344Y-1458657D01*
X6572344Y-840157D01*
X6535844Y-840157D01*
X6535844Y-440157D01*
X6572344Y-440157D01*
X6572344Y-416157D01*
X6947344Y-416157D01*
X6947344Y-440157D01*
X6947344Y-440157D01*
G37*
X6947344Y-440157D02*
X6983844Y-440157D01*
X6983844Y-840157D01*
X6947344Y-840157D01*
X6947344Y-1289157D01*
X6879844Y-1356657D01*
X6879844Y-1962657D01*
X6903844Y-1962657D01*
X6903844Y-2337657D01*
X6879844Y-2337657D01*
X6879844Y-2943657D01*
X7019344Y-3083157D01*
X7190837Y-3083157D01*
X7395926Y-2998207D01*
X7552893Y-2841239D01*
X7607317Y-2709848D01*
X7680675Y-2759972D01*
X7779844Y-2780054D01*
X7786785Y-2780054D01*
X7810292Y-2898231D01*
X7897001Y-3028000D01*
X8654844Y-3785843D01*
X8654844Y-3949035D01*
X8487940Y-4115648D01*
X8385861Y-4361481D01*
X8385629Y-4627665D01*
X8487278Y-4873676D01*
X8675335Y-5062061D01*
X8921168Y-5164140D01*
X9144980Y-5164335D01*
X8639158Y-5670157D01*
X7829849Y-5670157D01*
X7829844Y-5670156D01*
X7678505Y-5700260D01*
X7676771Y-5700605D01*
X7547001Y-5787314D01*
X7546999Y-5787317D01*
X7534897Y-5799419D01*
X7534897Y-5585000D01*
X7517465Y-5492356D01*
X7462712Y-5407268D01*
X7451052Y-5399301D01*
X7532352Y-5399372D01*
X7778363Y-5297723D01*
X7966748Y-5109666D01*
X8068827Y-4863833D01*
X8069059Y-4597649D01*
X7967410Y-4351638D01*
X7779353Y-4163253D01*
X7533520Y-4061174D01*
X7267336Y-4060942D01*
X7212862Y-4083450D01*
X7114982Y-4018048D01*
X6989844Y-3993157D01*
X6473252Y-3993157D01*
X6498842Y-3921294D01*
X6485098Y-3649928D01*
X6407691Y-3463050D01*
X6245325Y-3473064D01*
X5898232Y-3820157D01*
X5942427Y-3864352D01*
X5861576Y-3945202D01*
X5846488Y-3945189D01*
X5809844Y-3908545D01*
X5773264Y-3945125D01*
X5758022Y-3945112D01*
X5684799Y-3871889D01*
X5684812Y-3856801D01*
X5721456Y-3820157D01*
X5684876Y-3783577D01*
X5684889Y-3768335D01*
X5765650Y-3687575D01*
X5809844Y-3731769D01*
X6156937Y-3384676D01*
X6166951Y-3222310D01*
X5910981Y-3131159D01*
X5639615Y-3144903D01*
X5636844Y-3146051D01*
X5636844Y-2720054D01*
X5709844Y-2720054D01*
X5753218Y-2711893D01*
X5806795Y-2841239D01*
X5963762Y-2998207D01*
X6168851Y-3083157D01*
X6340344Y-3083157D01*
X6479844Y-2943657D01*
X6479844Y-2337657D01*
X6455844Y-2337657D01*
X6455844Y-1962657D01*
X6479844Y-1962657D01*
X6479844Y-1551157D01*
X6572344Y-1458657D01*
X6572344Y-840157D01*
X6535844Y-840157D01*
X6535844Y-440157D01*
X6572344Y-440157D01*
X6572344Y-416157D01*
X6947344Y-416157D01*
X6947344Y-440157D01*
G36*
X4665739Y-60938D02*
X4645657Y-160107D01*
X4645657Y-960207D01*
X4663089Y-1052851D01*
X4717842Y-1137939D01*
X4801385Y-1195022D01*
X4900554Y-1215104D01*
X4900604Y-1215104D01*
X4900604Y-1461999D01*
X4817200Y-1477692D01*
X4736869Y-1529384D01*
X4682893Y-1399075D01*
X4525926Y-1242107D01*
X4320837Y-1157157D01*
X4149344Y-1157157D01*
X4009844Y-1296657D01*
X4009844Y-1902657D01*
X4033844Y-1902657D01*
X4033844Y-2277657D01*
X4009844Y-2277657D01*
X4009844Y-2314157D01*
X3609844Y-2314157D01*
X3609844Y-2277657D01*
X2991344Y-2277657D01*
X2851844Y-2417157D01*
X2851844Y-2576150D01*
X2936795Y-2781239D01*
X2988313Y-2832757D01*
X2043205Y-2832757D01*
X1992156Y-2753425D01*
X1908613Y-2696342D01*
X1809444Y-2676260D01*
X1389427Y-2676260D01*
X2461523Y-1604164D01*
X2851844Y-1604164D01*
X2851844Y-1763157D01*
X2991344Y-1902657D01*
X3609844Y-1902657D01*
X3609844Y-1296657D01*
X3470344Y-1157157D01*
X3298851Y-1157157D01*
X3093762Y-1242107D01*
X2936795Y-1399075D01*
X2851844Y-1604164D01*
X2461523Y-1604164D01*
X3584467Y-481220D01*
X3671176Y-351451D01*
X3688351Y-265104D01*
X3701674Y-265104D01*
X3794318Y-247672D01*
X3879406Y-192919D01*
X3936489Y-109376D01*
X3956571Y-10207D01*
X3956571Y-10157D01*
X4700436Y-10157D01*
X4665739Y-60938D01*
X4665739Y-60938D01*
G37*
X4665739Y-60938D02*
X4645657Y-160107D01*
X4645657Y-960207D01*
X4663089Y-1052851D01*
X4717842Y-1137939D01*
X4801385Y-1195022D01*
X4900554Y-1215104D01*
X4900604Y-1215104D01*
X4900604Y-1461999D01*
X4817200Y-1477692D01*
X4736869Y-1529384D01*
X4682893Y-1399075D01*
X4525926Y-1242107D01*
X4320837Y-1157157D01*
X4149344Y-1157157D01*
X4009844Y-1296657D01*
X4009844Y-1902657D01*
X4033844Y-1902657D01*
X4033844Y-2277657D01*
X4009844Y-2277657D01*
X4009844Y-2314157D01*
X3609844Y-2314157D01*
X3609844Y-2277657D01*
X2991344Y-2277657D01*
X2851844Y-2417157D01*
X2851844Y-2576150D01*
X2936795Y-2781239D01*
X2988313Y-2832757D01*
X2043205Y-2832757D01*
X1992156Y-2753425D01*
X1908613Y-2696342D01*
X1809444Y-2676260D01*
X1389427Y-2676260D01*
X2461523Y-1604164D01*
X2851844Y-1604164D01*
X2851844Y-1763157D01*
X2991344Y-1902657D01*
X3609844Y-1902657D01*
X3609844Y-1296657D01*
X3470344Y-1157157D01*
X3298851Y-1157157D01*
X3093762Y-1242107D01*
X2936795Y-1399075D01*
X2851844Y-1604164D01*
X2461523Y-1604164D01*
X3584467Y-481220D01*
X3671176Y-351451D01*
X3688351Y-265104D01*
X3701674Y-265104D01*
X3794318Y-247672D01*
X3879406Y-192919D01*
X3936489Y-109376D01*
X3956571Y-10207D01*
X3956571Y-10157D01*
X4700436Y-10157D01*
X4665739Y-60938D01*
G36*
X4907001Y4227000D02*
X5036770Y4140291D01*
X5189844Y4109843D01*
X5959844Y4109843D01*
X6112918Y4140291D01*
X6242687Y4227000D01*
X6271450Y4255763D01*
X6170861Y4013519D01*
X6170629Y3747335D01*
X6262844Y3524156D01*
X6262844Y3519660D01*
X6197200Y3507308D01*
X6112112Y3452555D01*
X6083445Y3410599D01*
X6012893Y3580925D01*
X5855926Y3737893D01*
X5650837Y3822843D01*
X5479344Y3822843D01*
X5339844Y3683343D01*
X5339844Y3077343D01*
X5363844Y3077343D01*
X5363844Y2702343D01*
X5339844Y2702343D01*
X5339844Y2096343D01*
X5479344Y1956843D01*
X5500629Y1956843D01*
X5500629Y1539868D01*
X5524604Y1539868D01*
X5524604Y1139818D01*
X5500629Y1139818D01*
X5500629Y1115843D01*
X5100579Y1115843D01*
X5100579Y1139818D01*
X4482054Y1139818D01*
X4342554Y1000318D01*
X4342554Y828800D01*
X4358690Y789843D01*
X3956571Y789843D01*
X3956571Y789893D01*
X3939139Y882537D01*
X3884386Y967625D01*
X3806517Y1020831D01*
X3922684Y1136998D01*
X3922687Y1137000D01*
X4009396Y1266770D01*
X4039844Y1419843D01*
X4039844Y2259946D01*
X4132488Y2277378D01*
X4212819Y2329070D01*
X4266795Y2198761D01*
X4422254Y2043301D01*
X4342554Y1850886D01*
X4342554Y1679368D01*
X4482054Y1539868D01*
X5100579Y1539868D01*
X5100579Y2158393D01*
X4961079Y2297893D01*
X4939844Y2297893D01*
X4939844Y2702343D01*
X4915844Y2702343D01*
X4915844Y3077343D01*
X4939844Y3077343D01*
X4939844Y3683343D01*
X4800344Y3822843D01*
X4628851Y3822843D01*
X4423762Y3737893D01*
X4266795Y3580925D01*
X4212371Y3449534D01*
X4139013Y3499658D01*
X4039844Y3519740D01*
X4039844Y3554157D01*
X4187684Y3701998D01*
X4187687Y3702000D01*
X4274396Y3831770D01*
X4281969Y3869843D01*
X4304845Y3984843D01*
X4304844Y3984848D01*
X4304844Y4175329D01*
X4377576Y4222131D01*
X4434659Y4305674D01*
X4454741Y4404843D01*
X4454741Y4679260D01*
X4907001Y4227000D01*
X4907001Y4227000D01*
G37*
X4907001Y4227000D02*
X5036770Y4140291D01*
X5189844Y4109843D01*
X5959844Y4109843D01*
X6112918Y4140291D01*
X6242687Y4227000D01*
X6271450Y4255763D01*
X6170861Y4013519D01*
X6170629Y3747335D01*
X6262844Y3524156D01*
X6262844Y3519660D01*
X6197200Y3507308D01*
X6112112Y3452555D01*
X6083445Y3410599D01*
X6012893Y3580925D01*
X5855926Y3737893D01*
X5650837Y3822843D01*
X5479344Y3822843D01*
X5339844Y3683343D01*
X5339844Y3077343D01*
X5363844Y3077343D01*
X5363844Y2702343D01*
X5339844Y2702343D01*
X5339844Y2096343D01*
X5479344Y1956843D01*
X5500629Y1956843D01*
X5500629Y1539868D01*
X5524604Y1539868D01*
X5524604Y1139818D01*
X5500629Y1139818D01*
X5500629Y1115843D01*
X5100579Y1115843D01*
X5100579Y1139818D01*
X4482054Y1139818D01*
X4342554Y1000318D01*
X4342554Y828800D01*
X4358690Y789843D01*
X3956571Y789843D01*
X3956571Y789893D01*
X3939139Y882537D01*
X3884386Y967625D01*
X3806517Y1020831D01*
X3922684Y1136998D01*
X3922687Y1137000D01*
X4009396Y1266770D01*
X4039844Y1419843D01*
X4039844Y2259946D01*
X4132488Y2277378D01*
X4212819Y2329070D01*
X4266795Y2198761D01*
X4422254Y2043301D01*
X4342554Y1850886D01*
X4342554Y1679368D01*
X4482054Y1539868D01*
X5100579Y1539868D01*
X5100579Y2158393D01*
X4961079Y2297893D01*
X4939844Y2297893D01*
X4939844Y2702343D01*
X4915844Y2702343D01*
X4915844Y3077343D01*
X4939844Y3077343D01*
X4939844Y3683343D01*
X4800344Y3822843D01*
X4628851Y3822843D01*
X4423762Y3737893D01*
X4266795Y3580925D01*
X4212371Y3449534D01*
X4139013Y3499658D01*
X4039844Y3519740D01*
X4039844Y3554157D01*
X4187684Y3701998D01*
X4187687Y3702000D01*
X4274396Y3831770D01*
X4281969Y3869843D01*
X4304845Y3984843D01*
X4304844Y3984848D01*
X4304844Y4175329D01*
X4377576Y4222131D01*
X4434659Y4305674D01*
X4454741Y4404843D01*
X4454741Y4679260D01*
X4907001Y4227000D01*
G36*
X7365675Y2705028D02*
X7464844Y2684946D01*
X7916451Y2684946D01*
X7941794Y2623761D01*
X8098762Y2466794D01*
X8176147Y2434740D01*
X7854844Y2434740D01*
X7762200Y2417308D01*
X7677112Y2362555D01*
X7620029Y2279012D01*
X7599947Y2179843D01*
X7599947Y1981427D01*
X7527001Y1932686D01*
X7526999Y1932683D01*
X7444081Y1849765D01*
X7447844Y1858850D01*
X7447844Y1930343D01*
X7308344Y2069843D01*
X6739844Y2069843D01*
X6739844Y1969843D01*
X6439844Y1969843D01*
X6439844Y2069843D01*
X6365844Y2069843D01*
X6365844Y2269843D01*
X6439844Y2269843D01*
X6439844Y2369843D01*
X6739844Y2369843D01*
X6739844Y2269843D01*
X7308344Y2269843D01*
X7447844Y2409343D01*
X7447844Y2480836D01*
X7362894Y2685925D01*
X7296579Y2752240D01*
X7365675Y2705028D01*
X7365675Y2705028D01*
G37*
X7365675Y2705028D02*
X7464844Y2684946D01*
X7916451Y2684946D01*
X7941794Y2623761D01*
X8098762Y2466794D01*
X8176147Y2434740D01*
X7854844Y2434740D01*
X7762200Y2417308D01*
X7677112Y2362555D01*
X7620029Y2279012D01*
X7599947Y2179843D01*
X7599947Y1981427D01*
X7527001Y1932686D01*
X7526999Y1932683D01*
X7444081Y1849765D01*
X7447844Y1858850D01*
X7447844Y1930343D01*
X7308344Y2069843D01*
X6739844Y2069843D01*
X6739844Y1969843D01*
X6439844Y1969843D01*
X6439844Y2069843D01*
X6365844Y2069843D01*
X6365844Y2269843D01*
X6439844Y2269843D01*
X6439844Y2369843D01*
X6739844Y2369843D01*
X6739844Y2269843D01*
X7308344Y2269843D01*
X7447844Y2409343D01*
X7447844Y2480836D01*
X7362894Y2685925D01*
X7296579Y2752240D01*
X7365675Y2705028D01*
G36*
X8902344Y3673843D02*
X8963844Y3673843D01*
X8963844Y3265843D01*
X8902344Y3265843D01*
X8902344Y2588029D01*
X8827001Y2512686D01*
X8740292Y2382917D01*
X8737194Y2367343D01*
X8723989Y2300956D01*
X8687556Y2357575D01*
X8604013Y2414658D01*
X8504844Y2434740D01*
X8490741Y2434740D01*
X8577344Y2521343D01*
X8577344Y3265843D01*
X8515844Y3265843D01*
X8515844Y3673843D01*
X8577344Y3673843D01*
X8577344Y3693843D01*
X8902344Y3693843D01*
X8902344Y3673843D01*
X8902344Y3673843D01*
G37*
X8902344Y3673843D02*
X8963844Y3673843D01*
X8963844Y3265843D01*
X8902344Y3265843D01*
X8902344Y2588029D01*
X8827001Y2512686D01*
X8740292Y2382917D01*
X8737194Y2367343D01*
X8723989Y2300956D01*
X8687556Y2357575D01*
X8604013Y2414658D01*
X8504844Y2434740D01*
X8490741Y2434740D01*
X8577344Y2521343D01*
X8577344Y3265843D01*
X8515844Y3265843D01*
X8515844Y3673843D01*
X8577344Y3673843D01*
X8577344Y3693843D01*
X8902344Y3693843D01*
X8902344Y3673843D01*
G36*
X17431042Y9069069D02*
X14358871Y5996898D01*
X14359059Y6212351D01*
X14257410Y6458362D01*
X14069353Y6646747D01*
X13823520Y6748826D01*
X13557336Y6749058D01*
X13311325Y6647409D01*
X13122940Y6459352D01*
X13020861Y6213519D01*
X13020654Y5976339D01*
X12727001Y5682686D01*
X12640292Y5552917D01*
X12631880Y5510628D01*
X12609844Y5399843D01*
X12609844Y5115529D01*
X12274158Y4779843D01*
X12041516Y4779843D01*
X12059741Y4869843D01*
X12059741Y5669843D01*
X12042309Y5762487D01*
X11990617Y5842818D01*
X12120926Y5896794D01*
X12277894Y6053761D01*
X12362844Y6258850D01*
X12362844Y6430343D01*
X12223344Y6569843D01*
X11617344Y6569843D01*
X11617344Y6545843D01*
X11242344Y6545843D01*
X11242344Y6569843D01*
X10636344Y6569843D01*
X10496844Y6430343D01*
X10496844Y6258850D01*
X10581794Y6053761D01*
X10622826Y6012729D01*
X10582918Y6039395D01*
X10429844Y6069843D01*
X10269741Y6069843D01*
X10269741Y6199843D01*
X10252309Y6292487D01*
X10197556Y6377575D01*
X10114013Y6434658D01*
X10014844Y6454740D01*
X9364844Y6454740D01*
X9272200Y6437308D01*
X9214487Y6400170D01*
X9164013Y6434658D01*
X9066844Y6454335D01*
X9066844Y6629843D01*
X9062040Y6653997D01*
X9041953Y6754981D01*
X8971068Y6861067D01*
X8691068Y7141067D01*
X8630602Y7181470D01*
X8742894Y7293761D01*
X8807864Y7450614D01*
X8830675Y7435028D01*
X8929844Y7414946D01*
X9329844Y7414946D01*
X9422488Y7432378D01*
X9507576Y7487131D01*
X9564659Y7570674D01*
X9579664Y7644773D01*
X9592379Y7577199D01*
X9647132Y7492111D01*
X9730675Y7435028D01*
X9829844Y7414946D01*
X10229844Y7414946D01*
X10322488Y7432378D01*
X10407576Y7487131D01*
X10464659Y7570674D01*
X10479273Y7642843D01*
X10738713Y7642843D01*
X10581794Y7485925D01*
X10496844Y7280836D01*
X10496844Y7109343D01*
X10636344Y6969843D01*
X11242344Y6969843D01*
X11242344Y6993843D01*
X11617344Y6993843D01*
X11617344Y6969843D01*
X12223344Y6969843D01*
X12362844Y7109343D01*
X12362844Y7280836D01*
X12277894Y7485925D01*
X12120975Y7642843D01*
X14819844Y7642843D01*
X14944982Y7667734D01*
X15051068Y7738619D01*
X16395292Y9082843D01*
X17451656Y9082843D01*
X17431042Y9069069D01*
X17431042Y9069069D01*
G37*
X17431042Y9069069D02*
X14358871Y5996898D01*
X14359059Y6212351D01*
X14257410Y6458362D01*
X14069353Y6646747D01*
X13823520Y6748826D01*
X13557336Y6749058D01*
X13311325Y6647409D01*
X13122940Y6459352D01*
X13020861Y6213519D01*
X13020654Y5976339D01*
X12727001Y5682686D01*
X12640292Y5552917D01*
X12631880Y5510628D01*
X12609844Y5399843D01*
X12609844Y5115529D01*
X12274158Y4779843D01*
X12041516Y4779843D01*
X12059741Y4869843D01*
X12059741Y5669843D01*
X12042309Y5762487D01*
X11990617Y5842818D01*
X12120926Y5896794D01*
X12277894Y6053761D01*
X12362844Y6258850D01*
X12362844Y6430343D01*
X12223344Y6569843D01*
X11617344Y6569843D01*
X11617344Y6545843D01*
X11242344Y6545843D01*
X11242344Y6569843D01*
X10636344Y6569843D01*
X10496844Y6430343D01*
X10496844Y6258850D01*
X10581794Y6053761D01*
X10622826Y6012729D01*
X10582918Y6039395D01*
X10429844Y6069843D01*
X10269741Y6069843D01*
X10269741Y6199843D01*
X10252309Y6292487D01*
X10197556Y6377575D01*
X10114013Y6434658D01*
X10014844Y6454740D01*
X9364844Y6454740D01*
X9272200Y6437308D01*
X9214487Y6400170D01*
X9164013Y6434658D01*
X9066844Y6454335D01*
X9066844Y6629843D01*
X9062040Y6653997D01*
X9041953Y6754981D01*
X8971068Y6861067D01*
X8691068Y7141067D01*
X8630602Y7181470D01*
X8742894Y7293761D01*
X8807864Y7450614D01*
X8830675Y7435028D01*
X8929844Y7414946D01*
X9329844Y7414946D01*
X9422488Y7432378D01*
X9507576Y7487131D01*
X9564659Y7570674D01*
X9579664Y7644773D01*
X9592379Y7577199D01*
X9647132Y7492111D01*
X9730675Y7435028D01*
X9829844Y7414946D01*
X10229844Y7414946D01*
X10322488Y7432378D01*
X10407576Y7487131D01*
X10464659Y7570674D01*
X10479273Y7642843D01*
X10738713Y7642843D01*
X10581794Y7485925D01*
X10496844Y7280836D01*
X10496844Y7109343D01*
X10636344Y6969843D01*
X11242344Y6969843D01*
X11242344Y6993843D01*
X11617344Y6993843D01*
X11617344Y6969843D01*
X12223344Y6969843D01*
X12362844Y7109343D01*
X12362844Y7280836D01*
X12277894Y7485925D01*
X12120975Y7642843D01*
X14819844Y7642843D01*
X14944982Y7667734D01*
X15051068Y7738619D01*
X16395292Y9082843D01*
X17451656Y9082843D01*
X17431042Y9069069D01*
G36*
X8119844Y7909843D02*
X8193844Y7909843D01*
X8193844Y7709843D01*
X8119844Y7709843D01*
X8119844Y7609843D01*
X7819844Y7609843D01*
X7819844Y7709843D01*
X7251344Y7709843D01*
X7111844Y7570343D01*
X7111844Y7498850D01*
X7196794Y7293761D01*
X7353762Y7136794D01*
X7415247Y7111326D01*
X7414947Y7109843D01*
X7414947Y6709843D01*
X7432379Y6617199D01*
X7487132Y6532111D01*
X7570675Y6475028D01*
X7669844Y6454946D01*
X8269844Y6454946D01*
X8362488Y6472378D01*
X8406524Y6500715D01*
X8412844Y6494395D01*
X8412844Y6454364D01*
X8322200Y6437308D01*
X8264487Y6400170D01*
X8214013Y6434658D01*
X8114844Y6454740D01*
X7464844Y6454740D01*
X7372200Y6437308D01*
X7287112Y6382555D01*
X7230029Y6299012D01*
X7209947Y6199843D01*
X7209947Y5996843D01*
X7105201Y5996843D01*
X7072556Y6047575D01*
X6989013Y6104658D01*
X6914914Y6119663D01*
X6982488Y6132378D01*
X7067576Y6187131D01*
X7124659Y6270674D01*
X7144741Y6369843D01*
X7144741Y6769843D01*
X7127309Y6862487D01*
X7072556Y6947575D01*
X6989844Y7004090D01*
X6989844Y7783721D01*
X7156748Y7950334D01*
X7172623Y7988564D01*
X7251344Y7909843D01*
X7819844Y7909843D01*
X7819844Y8009843D01*
X8119844Y8009843D01*
X8119844Y7909843D01*
X8119844Y7909843D01*
G37*
X8119844Y7909843D02*
X8193844Y7909843D01*
X8193844Y7709843D01*
X8119844Y7709843D01*
X8119844Y7609843D01*
X7819844Y7609843D01*
X7819844Y7709843D01*
X7251344Y7709843D01*
X7111844Y7570343D01*
X7111844Y7498850D01*
X7196794Y7293761D01*
X7353762Y7136794D01*
X7415247Y7111326D01*
X7414947Y7109843D01*
X7414947Y6709843D01*
X7432379Y6617199D01*
X7487132Y6532111D01*
X7570675Y6475028D01*
X7669844Y6454946D01*
X8269844Y6454946D01*
X8362488Y6472378D01*
X8406524Y6500715D01*
X8412844Y6494395D01*
X8412844Y6454364D01*
X8322200Y6437308D01*
X8264487Y6400170D01*
X8214013Y6434658D01*
X8114844Y6454740D01*
X7464844Y6454740D01*
X7372200Y6437308D01*
X7287112Y6382555D01*
X7230029Y6299012D01*
X7209947Y6199843D01*
X7209947Y5996843D01*
X7105201Y5996843D01*
X7072556Y6047575D01*
X6989013Y6104658D01*
X6914914Y6119663D01*
X6982488Y6132378D01*
X7067576Y6187131D01*
X7124659Y6270674D01*
X7144741Y6369843D01*
X7144741Y6769843D01*
X7127309Y6862487D01*
X7072556Y6947575D01*
X6989844Y7004090D01*
X6989844Y7783721D01*
X7156748Y7950334D01*
X7172623Y7988564D01*
X7251344Y7909843D01*
X7819844Y7909843D01*
X7819844Y8009843D01*
X8119844Y8009843D01*
X8119844Y7909843D01*
G36*
X8518344Y9511843D02*
X8649844Y9511843D01*
X8649844Y9119843D01*
X8562344Y9119843D01*
X8562344Y9095843D01*
X8387344Y9095843D01*
X8387344Y9119843D01*
X8299844Y9119843D01*
X8299844Y9511843D01*
X8378846Y9511843D01*
X8378846Y9519843D01*
X8387344Y9519843D01*
X8387344Y9543843D01*
X8486344Y9543843D01*
X8518344Y9511843D01*
X8518344Y9511843D01*
G37*
X8518344Y9511843D02*
X8649844Y9511843D01*
X8649844Y9119843D01*
X8562344Y9119843D01*
X8562344Y9095843D01*
X8387344Y9095843D01*
X8387344Y9119843D01*
X8299844Y9119843D01*
X8299844Y9511843D01*
X8378846Y9511843D01*
X8378846Y9519843D01*
X8387344Y9519843D01*
X8387344Y9543843D01*
X8486344Y9543843D01*
X8518344Y9511843D01*
G36*
X15206168Y15300860D02*
X15472352Y15300628D01*
X15499177Y15311712D01*
X15470861Y15243519D01*
X15470629Y14977335D01*
X15572278Y14731324D01*
X15760335Y14542939D01*
X15999844Y14443486D01*
X15999844Y11495965D01*
X15832940Y11329352D01*
X15730861Y11083519D01*
X15730629Y10817335D01*
X15832278Y10571324D01*
X15853722Y10549843D01*
X15506088Y10549843D01*
X15409353Y10646747D01*
X15163520Y10748826D01*
X14897336Y10749058D01*
X14651325Y10647409D01*
X14462940Y10459352D01*
X14448067Y10423534D01*
X14357001Y10362686D01*
X14356999Y10362683D01*
X14186251Y10191936D01*
X14108344Y10269843D01*
X13564844Y10269843D01*
X13564844Y10195843D01*
X13314844Y10195843D01*
X13314844Y10269843D01*
X12771344Y10269843D01*
X12631844Y10130343D01*
X12631844Y10008850D01*
X12716794Y9803761D01*
X12800713Y9719843D01*
X11615966Y9719843D01*
X11449353Y9886747D01*
X11310911Y9944233D01*
X11377576Y9987131D01*
X11434659Y10070674D01*
X11454741Y10169843D01*
X11454741Y10519843D01*
X11437309Y10612487D01*
X11401688Y10667843D01*
X11674139Y10667843D01*
X11697132Y10632111D01*
X11780675Y10575028D01*
X11879844Y10554946D01*
X12479844Y10554946D01*
X12572488Y10572378D01*
X12657576Y10627131D01*
X12680502Y10660685D01*
X12771344Y10569843D01*
X13314844Y10569843D01*
X13314844Y11138343D01*
X13564844Y11138343D01*
X13564844Y10569843D01*
X14108344Y10569843D01*
X14247844Y10709343D01*
X14247844Y10830836D01*
X14162894Y11035925D01*
X14005926Y11192892D01*
X13800837Y11277843D01*
X13704344Y11277843D01*
X13564844Y11138343D01*
X13314844Y11138343D01*
X13175344Y11277843D01*
X13078851Y11277843D01*
X12873762Y11192892D01*
X12734741Y11053872D01*
X12734741Y11209843D01*
X12717309Y11302487D01*
X12662556Y11387575D01*
X12579013Y11444658D01*
X12504914Y11459663D01*
X12572488Y11472378D01*
X12657576Y11527131D01*
X12714659Y11610674D01*
X12734741Y11709843D01*
X12734741Y12109843D01*
X12717309Y12202487D01*
X12662556Y12287575D01*
X12579013Y12344658D01*
X12506844Y12359272D01*
X12506844Y12674395D01*
X15154686Y15322237D01*
X15206168Y15300860D01*
X15206168Y15300860D01*
G37*
X15206168Y15300860D02*
X15472352Y15300628D01*
X15499177Y15311712D01*
X15470861Y15243519D01*
X15470629Y14977335D01*
X15572278Y14731324D01*
X15760335Y14542939D01*
X15999844Y14443486D01*
X15999844Y11495965D01*
X15832940Y11329352D01*
X15730861Y11083519D01*
X15730629Y10817335D01*
X15832278Y10571324D01*
X15853722Y10549843D01*
X15506088Y10549843D01*
X15409353Y10646747D01*
X15163520Y10748826D01*
X14897336Y10749058D01*
X14651325Y10647409D01*
X14462940Y10459352D01*
X14448067Y10423534D01*
X14357001Y10362686D01*
X14356999Y10362683D01*
X14186251Y10191936D01*
X14108344Y10269843D01*
X13564844Y10269843D01*
X13564844Y10195843D01*
X13314844Y10195843D01*
X13314844Y10269843D01*
X12771344Y10269843D01*
X12631844Y10130343D01*
X12631844Y10008850D01*
X12716794Y9803761D01*
X12800713Y9719843D01*
X11615966Y9719843D01*
X11449353Y9886747D01*
X11310911Y9944233D01*
X11377576Y9987131D01*
X11434659Y10070674D01*
X11454741Y10169843D01*
X11454741Y10519843D01*
X11437309Y10612487D01*
X11401688Y10667843D01*
X11674139Y10667843D01*
X11697132Y10632111D01*
X11780675Y10575028D01*
X11879844Y10554946D01*
X12479844Y10554946D01*
X12572488Y10572378D01*
X12657576Y10627131D01*
X12680502Y10660685D01*
X12771344Y10569843D01*
X13314844Y10569843D01*
X13314844Y11138343D01*
X13564844Y11138343D01*
X13564844Y10569843D01*
X14108344Y10569843D01*
X14247844Y10709343D01*
X14247844Y10830836D01*
X14162894Y11035925D01*
X14005926Y11192892D01*
X13800837Y11277843D01*
X13704344Y11277843D01*
X13564844Y11138343D01*
X13314844Y11138343D01*
X13175344Y11277843D01*
X13078851Y11277843D01*
X12873762Y11192892D01*
X12734741Y11053872D01*
X12734741Y11209843D01*
X12717309Y11302487D01*
X12662556Y11387575D01*
X12579013Y11444658D01*
X12504914Y11459663D01*
X12572488Y11472378D01*
X12657576Y11527131D01*
X12714659Y11610674D01*
X12734741Y11709843D01*
X12734741Y12109843D01*
X12717309Y12202487D01*
X12662556Y12287575D01*
X12579013Y12344658D01*
X12506844Y12359272D01*
X12506844Y12674395D01*
X15154686Y15322237D01*
X15206168Y15300860D01*
G36*
X8378844Y12151343D02*
X8378844Y12148843D01*
X9220844Y12148843D01*
X9220844Y12151343D01*
X9238344Y12168843D01*
X9628844Y12168843D01*
X9628844Y12148843D01*
X9648844Y12148843D01*
X9648844Y11758343D01*
X9631344Y11740843D01*
X9628844Y11740843D01*
X9628844Y10898843D01*
X9631344Y10898843D01*
X9648844Y10881343D01*
X9648844Y10490843D01*
X9628844Y10490843D01*
X9628844Y10470843D01*
X9238344Y10470843D01*
X9220844Y10488343D01*
X9220844Y10490843D01*
X8378844Y10490843D01*
X8378844Y10488343D01*
X8361344Y10470843D01*
X7970844Y10470843D01*
X7970844Y10490843D01*
X7950844Y10490843D01*
X7950844Y10881343D01*
X7968344Y10898843D01*
X7970844Y10898843D01*
X7970844Y11601343D01*
X8241844Y11601343D01*
X8241844Y11038343D01*
X8378844Y10901343D01*
X8378844Y10898843D01*
X8381344Y10898843D01*
X8518344Y10761843D01*
X9081344Y10761843D01*
X9218344Y10898843D01*
X9220844Y10898843D01*
X9220844Y10901343D01*
X9357844Y11038343D01*
X9357844Y11601343D01*
X9220844Y11738343D01*
X9220844Y11740843D01*
X9218344Y11740843D01*
X9081344Y11877843D01*
X8518344Y11877843D01*
X8381344Y11740843D01*
X8378844Y11740843D01*
X8378844Y11738343D01*
X8241844Y11601343D01*
X7970844Y11601343D01*
X7970844Y11740843D01*
X7968344Y11740843D01*
X7950844Y11758343D01*
X7950844Y12148843D01*
X7970844Y12148843D01*
X7970844Y12168843D01*
X8361344Y12168843D01*
X8378844Y12151343D01*
X8378844Y12151343D01*
G37*
X8378844Y12151343D02*
X8378844Y12148843D01*
X9220844Y12148843D01*
X9220844Y12151343D01*
X9238344Y12168843D01*
X9628844Y12168843D01*
X9628844Y12148843D01*
X9648844Y12148843D01*
X9648844Y11758343D01*
X9631344Y11740843D01*
X9628844Y11740843D01*
X9628844Y10898843D01*
X9631344Y10898843D01*
X9648844Y10881343D01*
X9648844Y10490843D01*
X9628844Y10490843D01*
X9628844Y10470843D01*
X9238344Y10470843D01*
X9220844Y10488343D01*
X9220844Y10490843D01*
X8378844Y10490843D01*
X8378844Y10488343D01*
X8361344Y10470843D01*
X7970844Y10470843D01*
X7970844Y10490843D01*
X7950844Y10490843D01*
X7950844Y10881343D01*
X7968344Y10898843D01*
X7970844Y10898843D01*
X7970844Y11601343D01*
X8241844Y11601343D01*
X8241844Y11038343D01*
X8378844Y10901343D01*
X8378844Y10898843D01*
X8381344Y10898843D01*
X8518344Y10761843D01*
X9081344Y10761843D01*
X9218344Y10898843D01*
X9220844Y10898843D01*
X9220844Y10901343D01*
X9357844Y11038343D01*
X9357844Y11601343D01*
X9220844Y11738343D01*
X9220844Y11740843D01*
X9218344Y11740843D01*
X9081344Y11877843D01*
X8518344Y11877843D01*
X8381344Y11740843D01*
X8378844Y11740843D01*
X8378844Y11738343D01*
X8241844Y11601343D01*
X7970844Y11601343D01*
X7970844Y11740843D01*
X7968344Y11740843D01*
X7950844Y11758343D01*
X7950844Y12148843D01*
X7970844Y12148843D01*
X7970844Y12168843D01*
X8361344Y12168843D01*
X8378844Y12151343D01*
G36*
X15620335Y17072939D02*
X15866168Y16970860D01*
X16132352Y16970628D01*
X16140151Y16973850D01*
X16799844Y16314158D01*
X16799844Y15264653D01*
X16707410Y15488362D01*
X16519353Y15676747D01*
X16273520Y15778826D01*
X16007336Y15779058D01*
X15980511Y15767974D01*
X16008827Y15836167D01*
X16009059Y16102351D01*
X15907410Y16348362D01*
X15719353Y16536747D01*
X15473520Y16638826D01*
X15207336Y16639058D01*
X14961325Y16537409D01*
X14772940Y16349352D01*
X14670861Y16103519D01*
X14670629Y15837335D01*
X14692341Y15784788D01*
X11948620Y13041067D01*
X11877735Y12934981D01*
X11874225Y12917335D01*
X11852844Y12809843D01*
X11852844Y12359660D01*
X11787200Y12347308D01*
X11757844Y12328418D01*
X11757844Y12498845D01*
X11734846Y12498845D01*
X11757844Y12521843D01*
X11757844Y12580836D01*
X11672893Y12785925D01*
X11515926Y12942893D01*
X11310837Y13027843D01*
X11139344Y13027843D01*
X10999844Y12888343D01*
X10999844Y12382343D01*
X11023844Y12382343D01*
X11023844Y12207343D01*
X10999844Y12207343D01*
X10999844Y12119843D01*
X10607844Y12119843D01*
X10607844Y12148845D01*
X10599844Y12148845D01*
X10599844Y12207343D01*
X10575844Y12207343D01*
X10575844Y12256343D01*
X10607844Y12288343D01*
X10607844Y12680836D01*
X10599844Y12700150D01*
X10599844Y12888343D01*
X10460344Y13027843D01*
X10380975Y13027843D01*
X10365926Y13042892D01*
X10204741Y13109657D01*
X10204741Y13719843D01*
X10187309Y13812487D01*
X10181289Y13821843D01*
X10243846Y13821843D01*
X10243846Y13907341D01*
X10329344Y13821843D01*
X10450837Y13821843D01*
X10655926Y13906793D01*
X10812893Y14063761D01*
X10897844Y14268850D01*
X10897844Y14365343D01*
X10758344Y14504843D01*
X10189844Y14504843D01*
X10189844Y14405843D01*
X9889844Y14405843D01*
X9889844Y14504843D01*
X9815844Y14504843D01*
X9815844Y14754843D01*
X9889844Y14754843D01*
X9889844Y15298343D01*
X10189844Y15298343D01*
X10189844Y14754843D01*
X10758344Y14754843D01*
X10897844Y14894343D01*
X10897844Y14990836D01*
X10812893Y15195925D01*
X10655926Y15352893D01*
X10450837Y15437843D01*
X10329344Y15437843D01*
X10189844Y15298343D01*
X9889844Y15298343D01*
X9750344Y15437843D01*
X9628851Y15437843D01*
X9423762Y15352893D01*
X9339844Y15268974D01*
X9339844Y15279843D01*
X9335710Y15300628D01*
X9309396Y15432917D01*
X9228859Y15553448D01*
X9229059Y15782351D01*
X9127410Y16028362D01*
X9125932Y16029843D01*
X10349844Y16029843D01*
X10502918Y16060291D01*
X10632687Y16147000D01*
X11426521Y16940834D01*
X11662352Y16940628D01*
X11908363Y17042277D01*
X12076221Y17209843D01*
X15483669Y17209843D01*
X15620335Y17072939D01*
X15620335Y17072939D01*
G37*
X15620335Y17072939D02*
X15866168Y16970860D01*
X16132352Y16970628D01*
X16140151Y16973850D01*
X16799844Y16314158D01*
X16799844Y15264653D01*
X16707410Y15488362D01*
X16519353Y15676747D01*
X16273520Y15778826D01*
X16007336Y15779058D01*
X15980511Y15767974D01*
X16008827Y15836167D01*
X16009059Y16102351D01*
X15907410Y16348362D01*
X15719353Y16536747D01*
X15473520Y16638826D01*
X15207336Y16639058D01*
X14961325Y16537409D01*
X14772940Y16349352D01*
X14670861Y16103519D01*
X14670629Y15837335D01*
X14692341Y15784788D01*
X11948620Y13041067D01*
X11877735Y12934981D01*
X11874225Y12917335D01*
X11852844Y12809843D01*
X11852844Y12359660D01*
X11787200Y12347308D01*
X11757844Y12328418D01*
X11757844Y12498845D01*
X11734846Y12498845D01*
X11757844Y12521843D01*
X11757844Y12580836D01*
X11672893Y12785925D01*
X11515926Y12942893D01*
X11310837Y13027843D01*
X11139344Y13027843D01*
X10999844Y12888343D01*
X10999844Y12382343D01*
X11023844Y12382343D01*
X11023844Y12207343D01*
X10999844Y12207343D01*
X10999844Y12119843D01*
X10607844Y12119843D01*
X10607844Y12148845D01*
X10599844Y12148845D01*
X10599844Y12207343D01*
X10575844Y12207343D01*
X10575844Y12256343D01*
X10607844Y12288343D01*
X10607844Y12680836D01*
X10599844Y12700150D01*
X10599844Y12888343D01*
X10460344Y13027843D01*
X10380975Y13027843D01*
X10365926Y13042892D01*
X10204741Y13109657D01*
X10204741Y13719843D01*
X10187309Y13812487D01*
X10181289Y13821843D01*
X10243846Y13821843D01*
X10243846Y13907341D01*
X10329344Y13821843D01*
X10450837Y13821843D01*
X10655926Y13906793D01*
X10812893Y14063761D01*
X10897844Y14268850D01*
X10897844Y14365343D01*
X10758344Y14504843D01*
X10189844Y14504843D01*
X10189844Y14405843D01*
X9889844Y14405843D01*
X9889844Y14504843D01*
X9815844Y14504843D01*
X9815844Y14754843D01*
X9889844Y14754843D01*
X9889844Y15298343D01*
X10189844Y15298343D01*
X10189844Y14754843D01*
X10758344Y14754843D01*
X10897844Y14894343D01*
X10897844Y14990836D01*
X10812893Y15195925D01*
X10655926Y15352893D01*
X10450837Y15437843D01*
X10329344Y15437843D01*
X10189844Y15298343D01*
X9889844Y15298343D01*
X9750344Y15437843D01*
X9628851Y15437843D01*
X9423762Y15352893D01*
X9339844Y15268974D01*
X9339844Y15279843D01*
X9335710Y15300628D01*
X9309396Y15432917D01*
X9228859Y15553448D01*
X9229059Y15782351D01*
X9127410Y16028362D01*
X9125932Y16029843D01*
X10349844Y16029843D01*
X10502918Y16060291D01*
X10632687Y16147000D01*
X11426521Y16940834D01*
X11662352Y16940628D01*
X11908363Y17042277D01*
X12076221Y17209843D01*
X15483669Y17209843D01*
X15620335Y17072939D01*
G36*
X2947001Y15367000D02*
X3076770Y15280291D01*
X3229844Y15249843D01*
X8013722Y15249843D01*
X8180335Y15082939D01*
X8410685Y14987289D01*
X8405029Y14979012D01*
X8384947Y14879843D01*
X8384947Y14379843D01*
X8395908Y14321592D01*
X8192001Y14117686D01*
X8133139Y14029594D01*
X8107687Y14067686D01*
X8107684Y14067688D01*
X7798853Y14376519D01*
X7799059Y14612351D01*
X7697410Y14858362D01*
X7509353Y15046747D01*
X7263520Y15148826D01*
X6997336Y15149058D01*
X6751325Y15047409D01*
X6562940Y14859352D01*
X6460861Y14613519D01*
X6460629Y14347335D01*
X6562278Y14101324D01*
X6750335Y13912939D01*
X6996168Y13810860D01*
X7233348Y13810653D01*
X7394947Y13649055D01*
X7394947Y13109657D01*
X7233762Y13042892D01*
X7114213Y12923344D01*
X7101953Y12984981D01*
X7031068Y13091067D01*
X6741068Y13381067D01*
X6634982Y13451952D01*
X6509844Y13476843D01*
X6250253Y13476843D01*
X6247309Y13492487D01*
X6192556Y13577575D01*
X6109013Y13634658D01*
X6009844Y13654740D01*
X5409844Y13654740D01*
X5408353Y13654459D01*
X5382893Y13715925D01*
X5225926Y13872893D01*
X5020837Y13957843D01*
X4899344Y13957843D01*
X4759844Y13818343D01*
X4759844Y13274843D01*
X4833844Y13274843D01*
X4833844Y13024843D01*
X4759844Y13024843D01*
X4759844Y12925843D01*
X4459844Y12925843D01*
X4459844Y13024843D01*
X4337844Y13024843D01*
X4337844Y13203845D01*
X4252346Y13203845D01*
X4323344Y13274843D01*
X4459844Y13274843D01*
X4459844Y13818343D01*
X4320344Y13957843D01*
X4198851Y13957843D01*
X3993762Y13872893D01*
X3952974Y13832105D01*
X3890837Y13857843D01*
X3794344Y13857843D01*
X3654844Y13718343D01*
X3654844Y13149843D01*
X3753844Y13149843D01*
X3753844Y12887343D01*
X3751844Y12885343D01*
X3751844Y12849843D01*
X3654844Y12849843D01*
X3654844Y12775843D01*
X3404844Y12775843D01*
X3404844Y12849843D01*
X2861344Y12849843D01*
X2731818Y12720317D01*
X2041299Y13410836D01*
X2721844Y13410836D01*
X2721844Y13289343D01*
X2861344Y13149843D01*
X3404844Y13149843D01*
X3404844Y13718343D01*
X3265344Y13857843D01*
X3168851Y13857843D01*
X2963762Y13772892D01*
X2806794Y13615925D01*
X2721844Y13410836D01*
X2041299Y13410836D01*
X16542Y15435593D01*
X16542Y15447929D01*
X200290Y15355002D01*
X608602Y15590477D01*
X895720Y15964282D01*
X956618Y16111353D01*
X861385Y16295100D01*
X16540Y16295100D01*
X16540Y16275100D01*
X-391460Y16275100D01*
X-391460Y16295100D01*
X-411460Y16295100D01*
X-411460Y16703100D01*
X-391460Y16703100D01*
X-391460Y16723100D01*
X16540Y16723100D01*
X16540Y16703100D01*
X861385Y16703100D01*
X956618Y16886847D01*
X895720Y17033918D01*
X692035Y17299100D01*
X1014901Y17299100D01*
X2947001Y15367000D01*
X2947001Y15367000D01*
G37*
X2947001Y15367000D02*
X3076770Y15280291D01*
X3229844Y15249843D01*
X8013722Y15249843D01*
X8180335Y15082939D01*
X8410685Y14987289D01*
X8405029Y14979012D01*
X8384947Y14879843D01*
X8384947Y14379843D01*
X8395908Y14321592D01*
X8192001Y14117686D01*
X8133139Y14029594D01*
X8107687Y14067686D01*
X8107684Y14067688D01*
X7798853Y14376519D01*
X7799059Y14612351D01*
X7697410Y14858362D01*
X7509353Y15046747D01*
X7263520Y15148826D01*
X6997336Y15149058D01*
X6751325Y15047409D01*
X6562940Y14859352D01*
X6460861Y14613519D01*
X6460629Y14347335D01*
X6562278Y14101324D01*
X6750335Y13912939D01*
X6996168Y13810860D01*
X7233348Y13810653D01*
X7394947Y13649055D01*
X7394947Y13109657D01*
X7233762Y13042892D01*
X7114213Y12923344D01*
X7101953Y12984981D01*
X7031068Y13091067D01*
X6741068Y13381067D01*
X6634982Y13451952D01*
X6509844Y13476843D01*
X6250253Y13476843D01*
X6247309Y13492487D01*
X6192556Y13577575D01*
X6109013Y13634658D01*
X6009844Y13654740D01*
X5409844Y13654740D01*
X5408353Y13654459D01*
X5382893Y13715925D01*
X5225926Y13872893D01*
X5020837Y13957843D01*
X4899344Y13957843D01*
X4759844Y13818343D01*
X4759844Y13274843D01*
X4833844Y13274843D01*
X4833844Y13024843D01*
X4759844Y13024843D01*
X4759844Y12925843D01*
X4459844Y12925843D01*
X4459844Y13024843D01*
X4337844Y13024843D01*
X4337844Y13203845D01*
X4252346Y13203845D01*
X4323344Y13274843D01*
X4459844Y13274843D01*
X4459844Y13818343D01*
X4320344Y13957843D01*
X4198851Y13957843D01*
X3993762Y13872893D01*
X3952974Y13832105D01*
X3890837Y13857843D01*
X3794344Y13857843D01*
X3654844Y13718343D01*
X3654844Y13149843D01*
X3753844Y13149843D01*
X3753844Y12887343D01*
X3751844Y12885343D01*
X3751844Y12849843D01*
X3654844Y12849843D01*
X3654844Y12775843D01*
X3404844Y12775843D01*
X3404844Y12849843D01*
X2861344Y12849843D01*
X2731818Y12720317D01*
X2041299Y13410836D01*
X2721844Y13410836D01*
X2721844Y13289343D01*
X2861344Y13149843D01*
X3404844Y13149843D01*
X3404844Y13718343D01*
X3265344Y13857843D01*
X3168851Y13857843D01*
X2963762Y13772892D01*
X2806794Y13615925D01*
X2721844Y13410836D01*
X2041299Y13410836D01*
X16542Y15435593D01*
X16542Y15447929D01*
X200290Y15355002D01*
X608602Y15590477D01*
X895720Y15964282D01*
X956618Y16111353D01*
X861385Y16295100D01*
X16540Y16295100D01*
X16540Y16275100D01*
X-391460Y16275100D01*
X-391460Y16295100D01*
X-411460Y16295100D01*
X-411460Y16703100D01*
X-391460Y16703100D01*
X-391460Y16723100D01*
X16540Y16723100D01*
X16540Y16703100D01*
X861385Y16703100D01*
X956618Y16886847D01*
X895720Y17033918D01*
X692035Y17299100D01*
X1014901Y17299100D01*
X2947001Y15367000D01*
G36*
X6664000Y21499000D02*
X8456000Y21499000D01*
X8456000Y21519000D01*
X8864000Y21519000D01*
X8864000Y21499000D01*
X8884000Y21499000D01*
X8884000Y21091000D01*
X8864000Y21091000D01*
X8864000Y19299000D01*
X8884000Y19299000D01*
X8884000Y18891000D01*
X8864000Y18891000D01*
X8864000Y18871000D01*
X8456000Y18871000D01*
X8456000Y18891000D01*
X6664000Y18891000D01*
X6664000Y18871000D01*
X6256000Y18871000D01*
X6256000Y18891000D01*
X6236000Y18891000D01*
X6236000Y19299000D01*
X6256000Y19299000D01*
X6256000Y21091000D01*
X6664000Y21091000D01*
X6664000Y19299000D01*
X8456000Y19299000D01*
X8456000Y21091000D01*
X6664000Y21091000D01*
X6256000Y21091000D01*
X6236000Y21091000D01*
X6236000Y21499000D01*
X6256000Y21499000D01*
X6256000Y21519000D01*
X6664000Y21519000D01*
X6664000Y21499000D01*
X6664000Y21499000D01*
G37*
X6664000Y21499000D02*
X8456000Y21499000D01*
X8456000Y21519000D01*
X8864000Y21519000D01*
X8864000Y21499000D01*
X8884000Y21499000D01*
X8884000Y21091000D01*
X8864000Y21091000D01*
X8864000Y19299000D01*
X8884000Y19299000D01*
X8884000Y18891000D01*
X8864000Y18891000D01*
X8864000Y18871000D01*
X8456000Y18871000D01*
X8456000Y18891000D01*
X6664000Y18891000D01*
X6664000Y18871000D01*
X6256000Y18871000D01*
X6256000Y18891000D01*
X6236000Y18891000D01*
X6236000Y19299000D01*
X6256000Y19299000D01*
X6256000Y21091000D01*
X6664000Y21091000D01*
X6664000Y19299000D01*
X8456000Y19299000D01*
X8456000Y21091000D01*
X6664000Y21091000D01*
X6256000Y21091000D01*
X6236000Y21091000D01*
X6236000Y21499000D01*
X6256000Y21499000D01*
X6256000Y21519000D01*
X6664000Y21519000D01*
X6664000Y21499000D01*
G36*
X15729396Y24547843D02*
X15704344Y24547843D01*
X15564844Y24408343D01*
X15564844Y23839843D01*
X16108344Y23839843D01*
X16247844Y23979343D01*
X16247844Y24029395D01*
X16862844Y23414395D01*
X16862844Y23385291D01*
X15944741Y22467188D01*
X15944741Y22889843D01*
X15944460Y22891334D01*
X16005926Y22916794D01*
X16162894Y23073761D01*
X16247844Y23278850D01*
X16247844Y23400343D01*
X16108344Y23539843D01*
X15564844Y23539843D01*
X15564844Y23465843D01*
X15314844Y23465843D01*
X15314844Y23539843D01*
X14771344Y23539843D01*
X14631844Y23400343D01*
X14631844Y23360857D01*
X14590837Y23377843D01*
X14469344Y23377843D01*
X14329844Y23238343D01*
X14329844Y22694843D01*
X14403844Y22694843D01*
X14403844Y22444843D01*
X14329844Y22444843D01*
X14329844Y22345843D01*
X14029844Y22345843D01*
X14029844Y22444843D01*
X13955844Y22444843D01*
X13955844Y22694843D01*
X14029844Y22694843D01*
X14029844Y23238343D01*
X13890344Y23377843D01*
X13768851Y23377843D01*
X13563762Y23292893D01*
X13406795Y23135925D01*
X13381327Y23074440D01*
X13379844Y23074740D01*
X12779844Y23074740D01*
X12764256Y23071807D01*
X13011068Y23318619D01*
X13081953Y23424705D01*
X13106844Y23549843D01*
X13106844Y23750026D01*
X13172488Y23762378D01*
X13257576Y23817131D01*
X13314659Y23900674D01*
X13334741Y23999843D01*
X13334741Y24100836D01*
X14631844Y24100836D01*
X14631844Y23979343D01*
X14771344Y23839843D01*
X15314844Y23839843D01*
X15314844Y24408343D01*
X15175344Y24547843D01*
X15078851Y24547843D01*
X14873762Y24462892D01*
X14716794Y24305925D01*
X14631844Y24100836D01*
X13334741Y24100836D01*
X13334741Y24399843D01*
X13334460Y24401334D01*
X13395926Y24426794D01*
X13552894Y24583761D01*
X13637844Y24788850D01*
X13637844Y24860343D01*
X13602346Y24895841D01*
X13637844Y24895841D01*
X13637844Y25025609D01*
X13740335Y24922939D01*
X13986168Y24820860D01*
X14252352Y24820628D01*
X14498363Y24922277D01*
X14686748Y25110334D01*
X14708552Y25162843D01*
X15114396Y25162843D01*
X15729396Y24547843D01*
X15729396Y24547843D01*
G37*
X15729396Y24547843D02*
X15704344Y24547843D01*
X15564844Y24408343D01*
X15564844Y23839843D01*
X16108344Y23839843D01*
X16247844Y23979343D01*
X16247844Y24029395D01*
X16862844Y23414395D01*
X16862844Y23385291D01*
X15944741Y22467188D01*
X15944741Y22889843D01*
X15944460Y22891334D01*
X16005926Y22916794D01*
X16162894Y23073761D01*
X16247844Y23278850D01*
X16247844Y23400343D01*
X16108344Y23539843D01*
X15564844Y23539843D01*
X15564844Y23465843D01*
X15314844Y23465843D01*
X15314844Y23539843D01*
X14771344Y23539843D01*
X14631844Y23400343D01*
X14631844Y23360857D01*
X14590837Y23377843D01*
X14469344Y23377843D01*
X14329844Y23238343D01*
X14329844Y22694843D01*
X14403844Y22694843D01*
X14403844Y22444843D01*
X14329844Y22444843D01*
X14329844Y22345843D01*
X14029844Y22345843D01*
X14029844Y22444843D01*
X13955844Y22444843D01*
X13955844Y22694843D01*
X14029844Y22694843D01*
X14029844Y23238343D01*
X13890344Y23377843D01*
X13768851Y23377843D01*
X13563762Y23292893D01*
X13406795Y23135925D01*
X13381327Y23074440D01*
X13379844Y23074740D01*
X12779844Y23074740D01*
X12764256Y23071807D01*
X13011068Y23318619D01*
X13081953Y23424705D01*
X13106844Y23549843D01*
X13106844Y23750026D01*
X13172488Y23762378D01*
X13257576Y23817131D01*
X13314659Y23900674D01*
X13334741Y23999843D01*
X13334741Y24100836D01*
X14631844Y24100836D01*
X14631844Y23979343D01*
X14771344Y23839843D01*
X15314844Y23839843D01*
X15314844Y24408343D01*
X15175344Y24547843D01*
X15078851Y24547843D01*
X14873762Y24462892D01*
X14716794Y24305925D01*
X14631844Y24100836D01*
X13334741Y24100836D01*
X13334741Y24399843D01*
X13334460Y24401334D01*
X13395926Y24426794D01*
X13552894Y24583761D01*
X13637844Y24788850D01*
X13637844Y24860343D01*
X13602346Y24895841D01*
X13637844Y24895841D01*
X13637844Y25025609D01*
X13740335Y24922939D01*
X13986168Y24820860D01*
X14252352Y24820628D01*
X14498363Y24922277D01*
X14686748Y25110334D01*
X14708552Y25162843D01*
X15114396Y25162843D01*
X15729396Y24547843D01*
G36*
X12929844Y25199843D02*
X13003844Y25199843D01*
X13003844Y24999843D01*
X12929844Y24999843D01*
X12929844Y24899843D01*
X12629844Y24899843D01*
X12629844Y24999843D01*
X12555844Y24999843D01*
X12555844Y25199843D01*
X12629844Y25199843D01*
X12629844Y25299843D01*
X12929844Y25299843D01*
X12929844Y25199843D01*
X12929844Y25199843D01*
G37*
X12929844Y25199843D02*
X13003844Y25199843D01*
X13003844Y24999843D01*
X12929844Y24999843D01*
X12929844Y24899843D01*
X12629844Y24899843D01*
X12629844Y24999843D01*
X12555844Y24999843D01*
X12555844Y25199843D01*
X12629844Y25199843D01*
X12629844Y25299843D01*
X12929844Y25299843D01*
X12929844Y25199843D01*
G36*
X7263844Y25997343D02*
X7283844Y25997343D01*
X7283844Y25873343D01*
X7263844Y25853343D01*
X7263844Y25316343D01*
X7403344Y25176843D01*
X7670837Y25176843D01*
X7801844Y25231108D01*
X7801844Y25172343D01*
X7263844Y25172343D01*
X7263844Y25084843D01*
X6855844Y25084843D01*
X6855844Y25172343D01*
X6835844Y25172343D01*
X6835844Y25296343D01*
X6855844Y25316343D01*
X6855844Y25853343D01*
X6835844Y25873343D01*
X6835844Y25997343D01*
X6855844Y25997343D01*
X6855844Y26084843D01*
X7263844Y26084843D01*
X7263844Y25997343D01*
X7263844Y25997343D01*
G37*
X7263844Y25997343D02*
X7283844Y25997343D01*
X7283844Y25873343D01*
X7263844Y25853343D01*
X7263844Y25316343D01*
X7403344Y25176843D01*
X7670837Y25176843D01*
X7801844Y25231108D01*
X7801844Y25172343D01*
X7263844Y25172343D01*
X7263844Y25084843D01*
X6855844Y25084843D01*
X6855844Y25172343D01*
X6835844Y25172343D01*
X6835844Y25296343D01*
X6855844Y25316343D01*
X6855844Y25853343D01*
X6835844Y25873343D01*
X6835844Y25997343D01*
X6855844Y25997343D01*
X6855844Y26084843D01*
X7263844Y26084843D01*
X7263844Y25997343D01*
G36*
X8859844Y25409843D02*
X8985528Y25434843D01*
X9063844Y25434843D01*
X9063844Y25347343D01*
X9083844Y25347343D01*
X9083844Y25172343D01*
X9063844Y25172343D01*
X9063844Y25084843D01*
X8655844Y25084843D01*
X8655844Y25172343D01*
X8635844Y25172343D01*
X8635844Y25347343D01*
X8655844Y25347343D01*
X8655844Y25434843D01*
X8734160Y25434843D01*
X8859844Y25409843D01*
X8859844Y25409843D01*
G37*
X8859844Y25409843D02*
X8985528Y25434843D01*
X9063844Y25434843D01*
X9063844Y25347343D01*
X9083844Y25347343D01*
X9083844Y25172343D01*
X9063844Y25172343D01*
X9063844Y25084843D01*
X8655844Y25084843D01*
X8655844Y25172343D01*
X8635844Y25172343D01*
X8635844Y25347343D01*
X8655844Y25347343D01*
X8655844Y25434843D01*
X8734160Y25434843D01*
X8859844Y25409843D01*
G36*
X23066840Y29724395D02*
X23066840Y26368731D01*
X23017410Y26488362D01*
X22829353Y26676747D01*
X22583520Y26778826D01*
X22317336Y26779058D01*
X22071325Y26677409D01*
X21882940Y26489352D01*
X21780861Y26243519D01*
X21780780Y26150318D01*
X21732894Y26265925D01*
X21575926Y26422892D01*
X21370837Y26507843D01*
X21274344Y26507843D01*
X21134844Y26368343D01*
X21134844Y25799843D01*
X21678344Y25799843D01*
X21802618Y25924117D01*
X21882278Y25731324D01*
X21987696Y25625723D01*
X21770080Y25408107D01*
X21678344Y25499843D01*
X21134844Y25499843D01*
X21134844Y25425843D01*
X20884844Y25425843D01*
X20884844Y25499843D01*
X20785844Y25499843D01*
X20785844Y25799843D01*
X20884844Y25799843D01*
X20884844Y26368343D01*
X20745344Y26507843D01*
X20648851Y26507843D01*
X20443762Y26422892D01*
X20286794Y26265925D01*
X20201844Y26060836D01*
X20201844Y25939343D01*
X20287342Y25853845D01*
X20201844Y25853845D01*
X20201844Y25770110D01*
X20141068Y25861067D01*
X19621068Y26381067D01*
X19589576Y26402109D01*
X19537410Y26528362D01*
X19523597Y26542199D01*
X19531953Y26554705D01*
X19556844Y26679843D01*
X19556844Y27611804D01*
X19749209Y27419103D01*
X20300323Y27190261D01*
X20897059Y27189740D01*
X21448572Y27417620D01*
X21870897Y27839209D01*
X22099739Y28390323D01*
X22100260Y28987059D01*
X21872380Y29538572D01*
X21450791Y29960897D01*
X20899677Y30189739D01*
X20601840Y30189999D01*
X20728363Y30242277D01*
X20916748Y30430334D01*
X20938552Y30482843D01*
X22308392Y30482843D01*
X23066840Y29724395D01*
X23066840Y29724395D01*
G37*
X23066840Y29724395D02*
X23066840Y26368731D01*
X23017410Y26488362D01*
X22829353Y26676747D01*
X22583520Y26778826D01*
X22317336Y26779058D01*
X22071325Y26677409D01*
X21882940Y26489352D01*
X21780861Y26243519D01*
X21780780Y26150318D01*
X21732894Y26265925D01*
X21575926Y26422892D01*
X21370837Y26507843D01*
X21274344Y26507843D01*
X21134844Y26368343D01*
X21134844Y25799843D01*
X21678344Y25799843D01*
X21802618Y25924117D01*
X21882278Y25731324D01*
X21987696Y25625723D01*
X21770080Y25408107D01*
X21678344Y25499843D01*
X21134844Y25499843D01*
X21134844Y25425843D01*
X20884844Y25425843D01*
X20884844Y25499843D01*
X20785844Y25499843D01*
X20785844Y25799843D01*
X20884844Y25799843D01*
X20884844Y26368343D01*
X20745344Y26507843D01*
X20648851Y26507843D01*
X20443762Y26422892D01*
X20286794Y26265925D01*
X20201844Y26060836D01*
X20201844Y25939343D01*
X20287342Y25853845D01*
X20201844Y25853845D01*
X20201844Y25770110D01*
X20141068Y25861067D01*
X19621068Y26381067D01*
X19589576Y26402109D01*
X19537410Y26528362D01*
X19523597Y26542199D01*
X19531953Y26554705D01*
X19556844Y26679843D01*
X19556844Y27611804D01*
X19749209Y27419103D01*
X20300323Y27190261D01*
X20897059Y27189740D01*
X21448572Y27417620D01*
X21870897Y27839209D01*
X22099739Y28390323D01*
X22100260Y28987059D01*
X21872380Y29538572D01*
X21450791Y29960897D01*
X20899677Y30189739D01*
X20601840Y30189999D01*
X20728363Y30242277D01*
X20916748Y30430334D01*
X20938552Y30482843D01*
X22308392Y30482843D01*
X23066840Y29724395D01*
G36*
X12648844Y28454843D02*
X12668844Y28454843D01*
X12668844Y28084843D01*
X12648844Y28084843D01*
X12648844Y27341843D01*
X13673844Y27341843D01*
X14013446Y27490550D01*
X14270289Y27757898D01*
X14339081Y27944863D01*
X14250282Y28065841D01*
X14397844Y28065841D01*
X14397844Y28169913D01*
X14625403Y28169715D01*
X14839904Y28258346D01*
X14883934Y28036993D01*
X14691325Y27957409D01*
X14502940Y27769352D01*
X14400861Y27523519D01*
X14400629Y27257335D01*
X14502278Y27011324D01*
X14690335Y26822939D01*
X14936168Y26720860D01*
X15202352Y26720628D01*
X15448363Y26822277D01*
X15636748Y27010334D01*
X15658552Y27062843D01*
X16654396Y27062843D01*
X17140502Y26576737D01*
X17130861Y26553519D01*
X17130629Y26287335D01*
X17232278Y26041324D01*
X17420335Y25852939D01*
X17666168Y25750860D01*
X17932352Y25750628D01*
X17956594Y25760645D01*
X18220396Y25496843D01*
X17198697Y25496843D01*
X17177410Y25548362D01*
X16989353Y25736747D01*
X16743520Y25838826D01*
X16477336Y25839058D01*
X16424789Y25817346D01*
X15861068Y26381067D01*
X15754982Y26451952D01*
X15629844Y26476843D01*
X13878697Y26476843D01*
X13857410Y26528362D01*
X13669353Y26716747D01*
X13423520Y26818826D01*
X13157336Y26819058D01*
X12911325Y26717409D01*
X12722940Y26529352D01*
X12620861Y26283519D01*
X12620629Y26017335D01*
X12686529Y25857843D01*
X12575842Y25857843D01*
X12575842Y25772345D01*
X12490344Y25857843D01*
X12368851Y25857843D01*
X12297844Y25828431D01*
X12297844Y25963845D01*
X12212346Y25963845D01*
X12297844Y26049343D01*
X12297844Y26170836D01*
X12212894Y26375925D01*
X12055926Y26532892D01*
X11850837Y26617843D01*
X11754344Y26617843D01*
X11614844Y26478343D01*
X11614844Y25909843D01*
X11713844Y25909843D01*
X11713844Y25609843D01*
X11614844Y25609843D01*
X11614844Y25535843D01*
X11364844Y25535843D01*
X11364844Y25609843D01*
X10414844Y25609843D01*
X10414844Y25535843D01*
X10164844Y25535843D01*
X10164844Y25609843D01*
X10065844Y25609843D01*
X10065844Y25909843D01*
X10164844Y25909843D01*
X10164844Y26478343D01*
X10414844Y26478343D01*
X10414844Y25909843D01*
X11364844Y25909843D01*
X11364844Y26478343D01*
X11225344Y26617843D01*
X11128851Y26617843D01*
X10923762Y26532892D01*
X10889844Y26498974D01*
X10855926Y26532892D01*
X10650837Y26617843D01*
X10554344Y26617843D01*
X10414844Y26478343D01*
X10164844Y26478343D01*
X10025344Y26617843D01*
X9928851Y26617843D01*
X9723762Y26532892D01*
X9566794Y26375925D01*
X9524853Y26274671D01*
X9459013Y26319658D01*
X9359844Y26339740D01*
X9359844Y26519946D01*
X9379844Y26519946D01*
X9472488Y26537378D01*
X9557576Y26592131D01*
X9614659Y26675674D01*
X9634741Y26774843D01*
X9634741Y27524843D01*
X9617309Y27617487D01*
X9585549Y27666843D01*
X9680837Y27666843D01*
X9885926Y27751793D01*
X10042893Y27908761D01*
X10127844Y28113850D01*
X10127844Y28245539D01*
X10190335Y28182939D01*
X10436168Y28080860D01*
X10491844Y28080811D01*
X10491844Y28065841D01*
X10639406Y28065841D01*
X10550607Y27944863D01*
X10619399Y27757898D01*
X10876242Y27490550D01*
X11215844Y27341843D01*
X12240844Y27341843D01*
X12240844Y28084843D01*
X12220844Y28084843D01*
X12220844Y28454843D01*
X12240844Y28454843D01*
X12240844Y28493843D01*
X12648844Y28493843D01*
X12648844Y28454843D01*
X12648844Y28454843D01*
G37*
X12648844Y28454843D02*
X12668844Y28454843D01*
X12668844Y28084843D01*
X12648844Y28084843D01*
X12648844Y27341843D01*
X13673844Y27341843D01*
X14013446Y27490550D01*
X14270289Y27757898D01*
X14339081Y27944863D01*
X14250282Y28065841D01*
X14397844Y28065841D01*
X14397844Y28169913D01*
X14625403Y28169715D01*
X14839904Y28258346D01*
X14883934Y28036993D01*
X14691325Y27957409D01*
X14502940Y27769352D01*
X14400861Y27523519D01*
X14400629Y27257335D01*
X14502278Y27011324D01*
X14690335Y26822939D01*
X14936168Y26720860D01*
X15202352Y26720628D01*
X15448363Y26822277D01*
X15636748Y27010334D01*
X15658552Y27062843D01*
X16654396Y27062843D01*
X17140502Y26576737D01*
X17130861Y26553519D01*
X17130629Y26287335D01*
X17232278Y26041324D01*
X17420335Y25852939D01*
X17666168Y25750860D01*
X17932352Y25750628D01*
X17956594Y25760645D01*
X18220396Y25496843D01*
X17198697Y25496843D01*
X17177410Y25548362D01*
X16989353Y25736747D01*
X16743520Y25838826D01*
X16477336Y25839058D01*
X16424789Y25817346D01*
X15861068Y26381067D01*
X15754982Y26451952D01*
X15629844Y26476843D01*
X13878697Y26476843D01*
X13857410Y26528362D01*
X13669353Y26716747D01*
X13423520Y26818826D01*
X13157336Y26819058D01*
X12911325Y26717409D01*
X12722940Y26529352D01*
X12620861Y26283519D01*
X12620629Y26017335D01*
X12686529Y25857843D01*
X12575842Y25857843D01*
X12575842Y25772345D01*
X12490344Y25857843D01*
X12368851Y25857843D01*
X12297844Y25828431D01*
X12297844Y25963845D01*
X12212346Y25963845D01*
X12297844Y26049343D01*
X12297844Y26170836D01*
X12212894Y26375925D01*
X12055926Y26532892D01*
X11850837Y26617843D01*
X11754344Y26617843D01*
X11614844Y26478343D01*
X11614844Y25909843D01*
X11713844Y25909843D01*
X11713844Y25609843D01*
X11614844Y25609843D01*
X11614844Y25535843D01*
X11364844Y25535843D01*
X11364844Y25609843D01*
X10414844Y25609843D01*
X10414844Y25535843D01*
X10164844Y25535843D01*
X10164844Y25609843D01*
X10065844Y25609843D01*
X10065844Y25909843D01*
X10164844Y25909843D01*
X10164844Y26478343D01*
X10414844Y26478343D01*
X10414844Y25909843D01*
X11364844Y25909843D01*
X11364844Y26478343D01*
X11225344Y26617843D01*
X11128851Y26617843D01*
X10923762Y26532892D01*
X10889844Y26498974D01*
X10855926Y26532892D01*
X10650837Y26617843D01*
X10554344Y26617843D01*
X10414844Y26478343D01*
X10164844Y26478343D01*
X10025344Y26617843D01*
X9928851Y26617843D01*
X9723762Y26532892D01*
X9566794Y26375925D01*
X9524853Y26274671D01*
X9459013Y26319658D01*
X9359844Y26339740D01*
X9359844Y26519946D01*
X9379844Y26519946D01*
X9472488Y26537378D01*
X9557576Y26592131D01*
X9614659Y26675674D01*
X9634741Y26774843D01*
X9634741Y27524843D01*
X9617309Y27617487D01*
X9585549Y27666843D01*
X9680837Y27666843D01*
X9885926Y27751793D01*
X10042893Y27908761D01*
X10127844Y28113850D01*
X10127844Y28245539D01*
X10190335Y28182939D01*
X10436168Y28080860D01*
X10491844Y28080811D01*
X10491844Y28065841D01*
X10639406Y28065841D01*
X10550607Y27944863D01*
X10619399Y27757898D01*
X10876242Y27490550D01*
X11215844Y27341843D01*
X12240844Y27341843D01*
X12240844Y28084843D01*
X12220844Y28084843D01*
X12220844Y28454843D01*
X12240844Y28454843D01*
X12240844Y28493843D01*
X12648844Y28493843D01*
X12648844Y28454843D01*
G36*
X4212379Y29437199D02*
X4267132Y29352111D01*
X4350675Y29295028D01*
X4372844Y29290539D01*
X4372844Y26319291D01*
X4150634Y26541501D01*
X4222894Y26613761D01*
X4307844Y26818850D01*
X4307844Y27286343D01*
X4168344Y27425843D01*
X3353844Y27425843D01*
X3353844Y27405843D01*
X2945844Y27405843D01*
X2945844Y27425843D01*
X2925844Y27425843D01*
X2925844Y27833843D01*
X2945844Y27833843D01*
X2945844Y27853843D01*
X3353844Y27853843D01*
X3353844Y27833843D01*
X4168344Y27833843D01*
X4307844Y27973343D01*
X4307844Y28440836D01*
X4222894Y28645925D01*
X4065926Y28802892D01*
X3860837Y28887843D01*
X3818386Y28887843D01*
X3842488Y28892378D01*
X3927576Y28947131D01*
X3984659Y29030674D01*
X4004741Y29129843D01*
X4004741Y29502843D01*
X4200027Y29502843D01*
X4212379Y29437199D01*
X4212379Y29437199D01*
G37*
X4212379Y29437199D02*
X4267132Y29352111D01*
X4350675Y29295028D01*
X4372844Y29290539D01*
X4372844Y26319291D01*
X4150634Y26541501D01*
X4222894Y26613761D01*
X4307844Y26818850D01*
X4307844Y27286343D01*
X4168344Y27425843D01*
X3353844Y27425843D01*
X3353844Y27405843D01*
X2945844Y27405843D01*
X2945844Y27425843D01*
X2925844Y27425843D01*
X2925844Y27833843D01*
X2945844Y27833843D01*
X2945844Y27853843D01*
X3353844Y27853843D01*
X3353844Y27833843D01*
X4168344Y27833843D01*
X4307844Y27973343D01*
X4307844Y28440836D01*
X4222894Y28645925D01*
X4065926Y28802892D01*
X3860837Y28887843D01*
X3818386Y28887843D01*
X3842488Y28892378D01*
X3927576Y28947131D01*
X3984659Y29030674D01*
X4004741Y29129843D01*
X4004741Y29502843D01*
X4200027Y29502843D01*
X4212379Y29437199D01*
M02*
