G04 #@! TF.FileFunction,Copper,L1,Top,Signal*
%FSLAX46Y46*%
G04 Gerber Fmt 4.6, Leading zero omitted, Abs format (unit mm)*
G04 Created by KiCad (PCBNEW 4.0.2-stable) date 11/7/2016 10:49:39 PM*
%MOMM*%
G01*
G04 APERTURE LIST*
%ADD10C,0.100000*%
%ADD11C,0.838200*%
%ADD12R,0.800100X0.800100*%
%ADD13R,1.430000X0.200000*%
%ADD14R,0.750000X0.800000*%
%ADD15C,0.970000*%
%ADD16O,0.950000X1.250000*%
%ADD17O,1.550000X1.000000*%
%ADD18C,0.154000*%
%ADD19C,0.300000*%
G04 APERTURE END LIST*
D10*
D11*
X12869844Y1779843D03*
X6339844Y-6540157D03*
X10069844Y-4360157D03*
X809844Y-8580157D03*
X1099844Y-5800157D03*
X22899844Y10239843D03*
X4199844Y8299843D03*
X5989844Y27949843D03*
X17339844Y18009843D03*
X8929844Y31629843D03*
X8954844Y33404843D03*
X14454844Y34004843D03*
X24854844Y28204843D03*
X24854844Y23704843D03*
X12354844Y26704843D03*
X5854844Y14704843D03*
X1854844Y15204843D03*
X1169844Y12439843D03*
X14854844Y13204843D03*
X17204844Y4704843D03*
X22529844Y33929843D03*
X11029844Y-2070157D03*
X17029844Y929843D03*
X17029844Y-2570157D03*
X6769844Y-2110157D03*
X14029844Y-6570157D03*
X4529844Y-8570157D03*
X-2970156Y7429843D03*
X-2970156Y18929843D03*
X529844Y31429843D03*
X3279844Y31949843D03*
X3529844Y33929843D03*
X529844Y33929843D03*
D12*
X-1370156Y28720603D03*
X-3270156Y28720603D03*
X-2320156Y26721623D03*
D13*
X21405000Y11500000D03*
X21405000Y11900000D03*
X21405000Y12300000D03*
X21405000Y12700000D03*
X21405000Y13100000D03*
X21405000Y13500000D03*
X21405000Y13900000D03*
X21405000Y14300000D03*
X21405000Y14700000D03*
X21405000Y15100000D03*
X21405000Y15500000D03*
X21405000Y15900000D03*
X21405000Y16300000D03*
X21405000Y16700000D03*
X21405000Y17100000D03*
X21405000Y17500000D03*
X21405000Y17900000D03*
X21405000Y18300000D03*
X21405000Y18700000D03*
X21405000Y19100000D03*
X21405000Y19500000D03*
X21405000Y19900000D03*
X21405000Y20300000D03*
X21405000Y20700000D03*
X21405000Y21100000D03*
X21405000Y21500000D03*
X21405000Y21900000D03*
X21405000Y22300000D03*
X21405000Y22700000D03*
X21405000Y23100000D03*
X21405000Y23500000D03*
X21405000Y23900000D03*
X21405000Y24300000D03*
X21405000Y24700000D03*
X21405000Y25100000D03*
X19055000Y11500000D03*
X19055000Y11900000D03*
X19055000Y12300000D03*
X19055000Y12700000D03*
X19055000Y13100000D03*
X19055000Y13500000D03*
X19055000Y13900000D03*
X19055000Y14300000D03*
X19055000Y14700000D03*
X19055000Y15100000D03*
X19055000Y15500000D03*
X19055000Y15900000D03*
X19055000Y16300000D03*
X19055000Y16700000D03*
X19055000Y17100000D03*
X19055000Y17500000D03*
X19055000Y17900000D03*
X19055000Y18300000D03*
X19055000Y18700000D03*
X19055000Y19100000D03*
X19055000Y19500000D03*
X19055000Y19900000D03*
X19055000Y20300000D03*
X19055000Y20700000D03*
X19055000Y21100000D03*
X19055000Y21500000D03*
X19055000Y21900000D03*
X19055000Y22300000D03*
X19055000Y22700000D03*
X19055000Y23100000D03*
X19055000Y23500000D03*
X19055000Y23900000D03*
X19055000Y24300000D03*
X19055000Y24700000D03*
X19055000Y25100000D03*
D14*
X-1445156Y25654843D03*
X-1445156Y24154843D03*
X-3020156Y25654843D03*
X-3020156Y24154843D03*
D11*
X-2970156Y929843D03*
D15*
X14479844Y32694843D03*
X14479844Y28884843D03*
D16*
X-187460Y16499100D03*
X-187460Y21499100D03*
D17*
X-2887460Y15499100D03*
X-2887460Y22499100D03*
D16*
X-187460Y4999100D03*
X-187460Y9999100D03*
D17*
X-2887460Y3999100D03*
X-2887460Y10999100D03*
D11*
X3819844Y-4910157D03*
X5029844Y3489843D03*
X1929844Y23949843D03*
X12779844Y229843D03*
X9129844Y619843D03*
X8660000Y21295000D03*
X10139844Y26889843D03*
X8660000Y19095000D03*
X6460000Y19095000D03*
X6460000Y21295000D03*
X2249844Y21179843D03*
X12069844Y13859843D03*
X13639844Y11689843D03*
X22889844Y13509843D03*
X8889844Y-6700157D03*
X15829844Y3354843D03*
X25439844Y13049843D03*
X25389844Y18229843D03*
X15029844Y10079843D03*
X11069844Y9319843D03*
X6589844Y8329843D03*
X11299844Y-550157D03*
X-3200156Y-1480157D03*
X3464687Y21195000D03*
X17799844Y26419843D03*
X15069844Y27389843D03*
X10569844Y28749843D03*
X18969844Y26149843D03*
X2429844Y20079843D03*
X14469844Y30229843D03*
X13289844Y26149843D03*
X14259844Y18369843D03*
X16609844Y25169843D03*
X20349844Y30809843D03*
X14089844Y19439843D03*
X14489844Y31329843D03*
X14119844Y25489843D03*
X13069844Y19329843D03*
X19419844Y32079843D03*
X18729844Y33349843D03*
X12239844Y19989843D03*
X4429844Y6179843D03*
X23159844Y11899843D03*
X14489844Y8669843D03*
X24429844Y9299843D03*
X13849844Y5019843D03*
X5519844Y5309843D03*
X25319844Y8779843D03*
X14699844Y4409843D03*
X6839844Y3879843D03*
X1539844Y7519843D03*
X2519844Y7339843D03*
X13689844Y6079843D03*
X16399844Y10949843D03*
X16139844Y15109843D03*
X8559844Y15649843D03*
X17629844Y21939843D03*
X24849844Y14389843D03*
X25299844Y19279843D03*
X25289844Y20299843D03*
X25299844Y21349843D03*
X24229844Y16299843D03*
X24599844Y15359843D03*
X25429844Y11979843D03*
X15339844Y15969843D03*
X5199844Y24869843D03*
X-910156Y14409843D03*
X15999844Y17639843D03*
X18559844Y27079843D03*
X22449844Y26109843D03*
X10199844Y31479843D03*
X17199844Y11579843D03*
X11189844Y23639843D03*
X11549844Y22149843D03*
X11529844Y17609843D03*
X4070000Y22970000D03*
X2539844Y18199843D03*
X8389844Y-9260157D03*
D18*
X2929844Y-5800157D02*
X1099844Y-5800157D01*
X3819844Y-4910157D02*
X2929844Y-5800157D01*
X1321797Y3489843D02*
X-187460Y4999100D01*
X5029844Y3489843D02*
X1321797Y3489843D01*
X479101Y22499100D02*
X-2887460Y22499100D01*
X1929844Y23949843D02*
X479101Y22499100D01*
X9509844Y239843D02*
X12779844Y229843D01*
X9129844Y619843D02*
X9509844Y239843D01*
X7819844Y22135156D02*
X7819844Y24569843D01*
X8660000Y21295000D02*
X7819844Y22135156D01*
X7819844Y24569843D02*
X10139844Y26889843D01*
X8660000Y19095000D02*
X8694843Y19129843D01*
X8694843Y19129843D02*
X8709844Y19129843D01*
X6460000Y19095000D02*
X6495157Y19059843D01*
X6495157Y19059843D02*
X7789844Y19059843D01*
X2249844Y21619843D02*
X2249844Y21179843D01*
X2849844Y22219843D02*
X2249844Y21619843D01*
X5535157Y22219843D02*
X2849844Y22219843D01*
X6460000Y21295000D02*
X5535157Y22219843D01*
X12069844Y13259843D02*
X12069844Y13859843D01*
X13639844Y11689843D02*
X12069844Y13259843D01*
X22719844Y13679843D02*
X22649844Y13679843D01*
X22889844Y13509843D02*
X22719844Y13679843D01*
X21405000Y11500000D02*
X22139687Y11500000D01*
X23119687Y13100000D02*
X22620001Y13100000D01*
X23879844Y12339843D02*
X23119687Y13100000D01*
X23879844Y11359843D02*
X23879844Y12339843D01*
X23489844Y10969843D02*
X23879844Y11359843D01*
X22669844Y10969843D02*
X23489844Y10969843D01*
X22139687Y11500000D02*
X22669844Y10969843D01*
X21405000Y12300000D02*
X22490001Y12300000D01*
X22719844Y12529843D02*
X22719844Y13199843D01*
X22490001Y12300000D02*
X22719844Y12529843D01*
X21405000Y13500000D02*
X22470001Y13500000D01*
X22470001Y13500000D02*
X22649844Y13679843D01*
X22649844Y13679843D02*
X22719844Y13749843D01*
X21405000Y13900000D02*
X22620001Y13900000D01*
X22620001Y13900000D02*
X22719844Y13999843D01*
X21405000Y14300000D02*
X22419687Y14300000D01*
X22620001Y13100000D02*
X21405000Y13100000D01*
X22719844Y13199843D02*
X22620001Y13100000D01*
X22719844Y13999843D02*
X22719844Y13749843D01*
X22719844Y13749843D02*
X22719844Y13199843D01*
X22419687Y14300000D02*
X22719844Y13999843D01*
D19*
X-690156Y-6340157D02*
X499844Y-7530157D01*
X-4010156Y25314843D02*
X-3670156Y25654843D01*
X-3020156Y25654843D02*
X-3670156Y25654843D01*
X-4010156Y-3020157D02*
X-690156Y-6340157D01*
X-4010156Y23364843D02*
X-4010156Y-3020157D01*
X-4010156Y23364843D02*
X-4010156Y25314843D01*
X8059844Y-7530157D02*
X8889844Y-6700157D01*
X499844Y-7530157D02*
X8059844Y-7530157D01*
X-3020156Y25654843D02*
X-3020156Y26504843D01*
X-3020156Y26504843D02*
X-2803376Y26721623D01*
X-2803376Y26721623D02*
X-2320156Y26721623D01*
X15839844Y5589843D02*
X15839844Y3364843D01*
X15839844Y3364843D02*
X15829844Y3354843D01*
X17939844Y10949843D02*
X17059844Y10069843D01*
X17059844Y10069843D02*
X17059844Y6809843D01*
X15839844Y5589843D02*
X17059844Y6809843D01*
D18*
X17939844Y11339843D02*
X17939844Y10949843D01*
X19055000Y11500000D02*
X18100001Y11500000D01*
X18100001Y11500000D02*
X17939844Y11339843D01*
X19055000Y11900000D02*
X17990001Y11900000D01*
X17990001Y11900000D02*
X17939844Y11849843D01*
X17939844Y12049843D02*
X17939844Y11849843D01*
X17939844Y11849843D02*
X17939844Y11339843D01*
X18190001Y12300000D02*
X17939844Y12049843D01*
X18300000Y12300000D02*
X19055000Y12300000D01*
X18300000Y12300000D02*
X18190001Y12300000D01*
X25649844Y17969843D02*
X25389844Y18229843D01*
X25649844Y13259843D02*
X25649844Y17969843D01*
X25439844Y13049843D02*
X25649844Y13259843D01*
D19*
X15029844Y10079843D02*
X15029844Y10619843D01*
X15029844Y10619843D02*
X17909844Y13499843D01*
D18*
X17909844Y13499843D02*
X19054843Y13499843D01*
X19054843Y13499843D02*
X19055000Y13500000D01*
D19*
X6599844Y8319843D02*
X6589844Y8329843D01*
X10069844Y8319843D02*
X6599844Y8319843D01*
X10069844Y8319843D02*
X11069844Y9319843D01*
D18*
X8869844Y-2980157D02*
X11299844Y-550157D01*
X-1700156Y-2980157D02*
X8869844Y-2980157D01*
X-3200156Y-1480157D02*
X-1700156Y-2980157D01*
X3257634Y20987947D02*
X3257634Y19687633D01*
X3464687Y21195000D02*
X3257634Y20987947D01*
X17269844Y25719843D02*
X17269844Y25889843D01*
X17269844Y25889843D02*
X17799844Y26419843D01*
X14409844Y27389843D02*
X15069844Y27389843D01*
X13049844Y28749843D02*
X14409844Y27389843D01*
X10569844Y28749843D02*
X13049844Y28749843D01*
X3249844Y19695423D02*
X3257634Y19687633D01*
X3257634Y19687633D02*
X6087422Y16857845D01*
X6087422Y16857845D02*
X13767846Y16857845D01*
X13767846Y16857845D02*
X15289844Y18379843D01*
X15289844Y18379843D02*
X15289844Y22869843D01*
X15289844Y22909843D02*
X15289844Y22869843D01*
X17269844Y24889843D02*
X15289844Y22909843D01*
X17269844Y25729843D02*
X17269844Y25719843D01*
X17269844Y25719843D02*
X17269844Y24889843D01*
X17629844Y25435423D02*
X17992266Y25797845D01*
X17992266Y25797845D02*
X18617846Y25797845D01*
X18617846Y25797845D02*
X18969844Y26149843D01*
X17539844Y24649843D02*
X17629844Y24739843D01*
X10389844Y16549843D02*
X13895424Y16549843D01*
X13895424Y16549843D02*
X15597846Y18252265D01*
X15597846Y18252265D02*
X15597846Y22707845D01*
X15597846Y22707845D02*
X17539844Y24649843D01*
X2429844Y20079843D02*
X5959844Y16549843D01*
X5959844Y16549843D02*
X10389844Y16549843D01*
X17629844Y24739843D02*
X17629844Y25069843D01*
X17629844Y25069843D02*
X17629844Y25435423D01*
X15999052Y30229843D02*
X16579052Y29649843D01*
X16579052Y29649843D02*
X16579052Y27880211D01*
X16579052Y27880211D02*
X14858684Y26159843D01*
X14858684Y26159843D02*
X14469844Y26159843D01*
X14469844Y30229843D02*
X15999052Y30229843D01*
X13299844Y26159843D02*
X14469844Y26159843D01*
X13289844Y26149843D02*
X13299844Y26159843D01*
X14859844Y18969843D02*
X14259844Y18369843D01*
X14859844Y23419843D02*
X14859844Y18969843D01*
X16609844Y25169843D02*
X14859844Y23419843D01*
X19009844Y29469843D02*
X19009844Y28559843D01*
X20349844Y30809843D02*
X19009844Y29469843D01*
X14069844Y23529843D02*
X14089844Y23529843D01*
X14089844Y23549843D02*
X14069844Y23529843D01*
X14089844Y23639843D02*
X14089844Y23549843D01*
X19009844Y28559843D02*
X14089844Y23639843D01*
X14089844Y21954263D02*
X14089844Y23529843D01*
X14089844Y19439843D02*
X14089844Y21954263D01*
X14089844Y23529843D02*
X14089844Y23648683D01*
X15819844Y31329843D02*
X16887054Y30262633D01*
X16887054Y30262633D02*
X16887054Y27752633D01*
X14489844Y31329843D02*
X15819844Y31329843D01*
X16887054Y27752633D02*
X14754264Y25619843D01*
X14754264Y25619843D02*
X14624264Y25489843D01*
X14624264Y25489843D02*
X14119844Y25489843D01*
X13069844Y21369843D02*
X13069844Y23064263D01*
X13069844Y19329843D02*
X13069844Y21169843D01*
X13069844Y21169843D02*
X13069844Y21369843D01*
X18701842Y28696261D02*
X18701842Y28689843D01*
X13069844Y23064263D02*
X18701842Y28696261D01*
X19039844Y31699843D02*
X18701842Y31361841D01*
X19419844Y32079843D02*
X19039844Y31699843D01*
X18701842Y31361841D02*
X18701842Y28689843D01*
X18349844Y28779843D02*
X18349844Y32969843D01*
X18729844Y33349843D02*
X18393840Y33013839D01*
X12239844Y22669843D02*
X18349844Y28779843D01*
X12239844Y19989843D02*
X12239844Y21089843D01*
X12239844Y21089843D02*
X12239844Y22669843D01*
X18349844Y32969843D02*
X18393840Y33013839D01*
X4629844Y5979843D02*
X4429844Y6179843D01*
X23159844Y11899843D02*
X21405157Y11899843D01*
X11619844Y5979843D02*
X11709844Y5979843D01*
X5289844Y5979843D02*
X11619844Y5979843D01*
X5289844Y5979843D02*
X4629844Y5979843D01*
X11799844Y5979843D02*
X11709844Y5979843D01*
X14489844Y8669843D02*
X11799844Y5979843D01*
X21405157Y11899843D02*
X21405000Y11900000D01*
X23581842Y13407845D02*
X23581842Y13073425D01*
X6329844Y5019843D02*
X5809844Y5019843D01*
X13849844Y5019843D02*
X6329844Y5019843D01*
X21405000Y15100000D02*
X22434107Y15100000D01*
X23581842Y13952265D02*
X22434107Y15100000D01*
X23581842Y13407845D02*
X23581842Y13952265D01*
X5809844Y5019843D02*
X5519844Y5309843D01*
X24187846Y9541841D02*
X24429844Y9299843D01*
X24187846Y12467421D02*
X24187846Y9541841D01*
X23581842Y13073425D02*
X24187846Y12467421D01*
X23889844Y13579843D02*
X23889844Y13201003D01*
X21405000Y15500000D02*
X22469687Y15500000D01*
X23889844Y14079843D02*
X23889844Y13579843D01*
X22469687Y15500000D02*
X23889844Y14079843D01*
X14169844Y3879843D02*
X14699844Y4409843D01*
X6839844Y3879843D02*
X14169844Y3879843D01*
X25319844Y8779843D02*
X25319844Y10539843D01*
X24495848Y11363839D02*
X25319844Y10539843D01*
X24495848Y12594999D02*
X24495848Y11363839D01*
X23889844Y13201003D02*
X24495848Y12594999D01*
X18150001Y14300000D02*
X19055000Y14300000D01*
X10881842Y7031841D02*
X18150001Y14300000D01*
X3821842Y7031841D02*
X10881842Y7031841D01*
X3429844Y6639843D02*
X3821842Y7031841D01*
X2249844Y6639843D02*
X3429844Y6639843D01*
X1539844Y7349843D02*
X2249844Y6639843D01*
X1539844Y7519843D02*
X1539844Y7349843D01*
X19055000Y14700000D02*
X18100001Y14700000D01*
X10739844Y7339843D02*
X2519844Y7339843D01*
X18100001Y14700000D02*
X10739844Y7339843D01*
D19*
X16399844Y10419843D02*
X16399844Y10949843D01*
X16399844Y8789843D02*
X16399844Y10419843D01*
X13689844Y6079843D02*
X16399844Y8789843D01*
X16139844Y15109843D02*
X16139844Y15100000D01*
X16139844Y15100000D02*
X16139844Y15109843D01*
X16139844Y15109843D02*
X16139844Y15100000D01*
X17520001Y15100000D02*
X16139844Y15100000D01*
X16139844Y15100000D02*
X12529687Y15100000D01*
X11979844Y15649843D02*
X8559844Y15649843D01*
X12529687Y15100000D02*
X11979844Y15649843D01*
D18*
X19055000Y15100000D02*
X17520001Y15100000D01*
X17520001Y15100000D02*
X17519844Y15099843D01*
X19055000Y20700000D02*
X18129687Y20700000D01*
X17629844Y21199843D02*
X17629844Y21939843D01*
X18129687Y20700000D02*
X17629844Y21199843D01*
X25319844Y16149843D02*
X25319844Y14859843D01*
X24407846Y19011841D02*
X24407846Y17061841D01*
X24407846Y17061841D02*
X25279844Y16189843D01*
X23279687Y21900000D02*
X21405000Y21900000D01*
X23899844Y21279843D02*
X23899844Y19519843D01*
X23279687Y21900000D02*
X23899844Y21279843D01*
X23899844Y19519843D02*
X24407846Y19011841D01*
X25279844Y16189843D02*
X25319844Y16149843D01*
X25319844Y14859843D02*
X24849844Y14389843D01*
X24281842Y21367845D02*
X24281842Y20297845D01*
X24281842Y20297845D02*
X25299844Y19279843D01*
X21405000Y22300000D02*
X23349687Y22300000D01*
X23349687Y22300000D02*
X23909844Y21739843D01*
X23909844Y21739843D02*
X24281842Y21367845D01*
X24589844Y21569843D02*
X24589844Y20999843D01*
X23459687Y22700000D02*
X24589844Y21569843D01*
X21405000Y22700000D02*
X23459687Y22700000D01*
X24589844Y20999843D02*
X25289844Y20299843D01*
X21405000Y23100000D02*
X23549687Y23100000D01*
X23549687Y23100000D02*
X25299844Y21349843D01*
X24099844Y18779843D02*
X24099844Y16429843D01*
X22979687Y19900000D02*
X24099844Y18779843D01*
X21405000Y19900000D02*
X22979687Y19900000D01*
X24099844Y16429843D02*
X24229844Y16299843D01*
X23759844Y18359843D02*
X23759844Y16799843D01*
X23759844Y16799843D02*
X23559844Y16599843D01*
X23559844Y16599843D02*
X23559844Y15979843D01*
X23559844Y15979843D02*
X24179844Y15359843D01*
X24179844Y15359843D02*
X24599844Y15359843D01*
X21405000Y19500000D02*
X22619687Y19500000D01*
X22619687Y19500000D02*
X23419844Y18699843D01*
X23419844Y18699843D02*
X23759844Y18359843D01*
X24197846Y13707421D02*
X24197846Y13328581D01*
X23179844Y15225423D02*
X24197846Y14207421D01*
X24197846Y14207421D02*
X24197846Y13707421D01*
X22599687Y16700000D02*
X23179844Y16119843D01*
X23179844Y16119843D02*
X23179844Y15629843D01*
X21405000Y16700000D02*
X22599687Y16700000D01*
X23179844Y15629843D02*
X23179844Y15225423D01*
X24803850Y12605837D02*
X25429844Y11979843D01*
X24803850Y12722577D02*
X24803850Y12605837D01*
X24197846Y13328581D02*
X24803850Y12722577D01*
X18159687Y15500000D02*
X19055000Y15500000D01*
X18159687Y15500000D02*
X17689844Y15969843D01*
X17689844Y15969843D02*
X15339844Y15969843D01*
D19*
X5199844Y24869843D02*
X1989844Y24869843D01*
X1204844Y25654843D02*
X1549844Y25309843D01*
X1204844Y25654843D02*
X-1445156Y25654843D01*
X1989844Y24869843D02*
X1549844Y25309843D01*
X4070000Y23629999D02*
X4070000Y22970000D01*
X4070000Y23739999D02*
X4070000Y23629999D01*
X5199844Y24869843D02*
X4070000Y23739999D01*
D18*
X2539844Y17859843D02*
X2539844Y18199843D01*
X-910156Y14409843D02*
X2539844Y17859843D01*
D19*
X-3020156Y27719843D02*
X-1635156Y27719843D01*
X-1635156Y27719843D02*
X-1445156Y27529843D01*
X-1445156Y27529843D02*
X-1445156Y25654843D01*
X-3020156Y27719843D02*
X-3270156Y27969843D01*
X-3270156Y28720603D02*
X-3270156Y27969843D01*
D18*
X19349844Y25489843D02*
X18119844Y25489843D01*
X19929844Y26069843D02*
X19349844Y25489843D01*
X19929844Y26729843D02*
X19929844Y26069843D01*
X15905848Y17733839D02*
X15999844Y17639843D01*
X15905848Y22580267D02*
X15905848Y17733839D01*
X17937846Y24612265D02*
X15905848Y22580267D01*
X17937846Y25307845D02*
X17937846Y24612265D01*
X18119844Y25489843D02*
X17937846Y25307845D01*
X18559844Y27079843D02*
X19579844Y27079843D01*
X21829844Y26729843D02*
X22449844Y26109843D01*
X19929844Y26729843D02*
X21829844Y26729843D01*
X19579844Y27079843D02*
X19929844Y26729843D01*
D19*
X10199844Y31479843D02*
X9819844Y31099843D01*
X11189844Y27569843D02*
X11189844Y23639843D01*
X10949844Y27809843D02*
X11189844Y27569843D01*
X10339844Y27809843D02*
X10949844Y27809843D01*
X9819844Y28329843D02*
X10339844Y27809843D01*
X9819844Y31099843D02*
X9819844Y28329843D01*
X17199844Y12069843D02*
X17199844Y11579843D01*
D18*
X17809844Y12679843D02*
X17609844Y12479843D01*
D19*
X17609844Y12479843D02*
X17199844Y12069843D01*
D18*
X19055000Y12700000D02*
X17830001Y12700000D01*
X17809844Y12699843D02*
X17809844Y12679843D01*
X17829844Y12699843D02*
X17809844Y12699843D01*
X17830001Y12700000D02*
X17829844Y12699843D01*
X19055000Y13100000D02*
X18230001Y13100000D01*
X18230001Y13100000D02*
X17809844Y12679843D01*
D19*
X11549844Y22149843D02*
X11549844Y23279843D01*
X11549844Y23279843D02*
X11189844Y23639843D01*
X11129844Y21729843D02*
X11549844Y22149843D01*
X11129844Y18009843D02*
X11129844Y21729843D01*
X11529844Y17609843D02*
X11129844Y18009843D01*
X1499844Y19239843D02*
X2539844Y18199843D01*
X2700001Y22970000D02*
X4070000Y22970000D01*
X2700001Y22970000D02*
X1499844Y21769843D01*
X1499844Y21769843D02*
X1499844Y19239843D01*
D18*
X16249844Y-6530157D02*
X14609844Y-8170157D01*
X16249844Y1429843D02*
X16249844Y-6530157D01*
X16529844Y1709843D02*
X16249844Y1429843D01*
X16529844Y3779843D02*
X16529844Y1709843D01*
X16369844Y3939843D02*
X16529844Y3779843D01*
X16369844Y5509843D02*
X16369844Y3939843D01*
X17499844Y6639843D02*
X16369844Y5509843D01*
X17499844Y8469843D02*
X17499844Y6639843D01*
X20209844Y11179843D02*
X17499844Y8469843D01*
X20209844Y14329843D02*
X20209844Y11179843D01*
X20580001Y14700000D02*
X20209844Y14329843D01*
X20580001Y14700000D02*
X21405000Y14700000D01*
X13519844Y-9260157D02*
X14609844Y-8170157D01*
X8389844Y-9260157D02*
X13519844Y-9260157D01*
D10*
G36*
X17690000Y940068D02*
X17690000Y-9555000D01*
X13744123Y-9555000D01*
X13786423Y-9526736D01*
X16516423Y-6796736D01*
X16598147Y-6674429D01*
X16601344Y-6658355D01*
X16626844Y-6530157D01*
X16626844Y1273685D01*
X16796423Y1443264D01*
X16878147Y1565571D01*
X16906844Y1709843D01*
X16906844Y3779843D01*
X16878147Y3924115D01*
X16796423Y4046422D01*
X16746844Y4096001D01*
X16746844Y5353685D01*
X17697308Y6304149D01*
X17690000Y940068D01*
X17690000Y940068D01*
G37*
X17690000Y940068D02*
X17690000Y-9555000D01*
X13744123Y-9555000D01*
X13786423Y-9526736D01*
X16516423Y-6796736D01*
X16598147Y-6674429D01*
X16601344Y-6658355D01*
X16626844Y-6530157D01*
X16626844Y1273685D01*
X16796423Y1443264D01*
X16878147Y1565571D01*
X16906844Y1709843D01*
X16906844Y3779843D01*
X16878147Y3924115D01*
X16796423Y4046422D01*
X16746844Y4096001D01*
X16746844Y5353685D01*
X17697308Y6304149D01*
X17690000Y940068D01*
G36*
X1671646Y24551645D02*
X1817636Y24454097D01*
X1989844Y24419843D01*
X4113448Y24419843D01*
X3751802Y24058197D01*
X3654254Y23912207D01*
X3620000Y23739999D01*
X3620000Y23536859D01*
X3502937Y23420000D01*
X2700001Y23420000D01*
X2527793Y23385746D01*
X2381803Y23288198D01*
X1181646Y22088041D01*
X1084098Y21942051D01*
X1049844Y21769843D01*
X1049844Y19239843D01*
X1084098Y19067635D01*
X1175034Y18931540D01*
X1181646Y18921645D01*
X1820816Y18282475D01*
X1820619Y18057433D01*
X1929865Y17793038D01*
X1934869Y17788026D01*
X845540Y16698697D01*
X845540Y16703102D01*
X700701Y16703102D01*
X819100Y16863197D01*
X660549Y17232094D01*
X372896Y17512235D01*
X172443Y17617376D01*
X16540Y17519000D01*
X16540Y16703100D01*
X36540Y16703100D01*
X36540Y16295100D01*
X16540Y16295100D01*
X16540Y16275100D01*
X-391460Y16275100D01*
X-391460Y16295100D01*
X-1075620Y16295100D01*
X-1194020Y16135003D01*
X-1035469Y15766106D01*
X-747816Y15485965D01*
X-547363Y15380824D01*
X-391462Y15479199D01*
X-391462Y15461695D01*
X-736707Y15116450D01*
X-766491Y15128818D01*
X-1052566Y15129068D01*
X-1316961Y15019822D01*
X-1519424Y14817712D01*
X-1629131Y14553508D01*
X-1629381Y14267433D01*
X-1520135Y14003038D01*
X-1318025Y13800575D01*
X-1053821Y13690868D01*
X-767746Y13690618D01*
X-503351Y13799864D01*
X-300888Y14001974D01*
X-191181Y14266178D01*
X-190931Y14552253D01*
X-203696Y14583145D01*
X2701891Y17488732D01*
X2946649Y17589864D01*
X3149112Y17791974D01*
X3258819Y18056178D01*
X3259069Y18342253D01*
X3149823Y18606648D01*
X2947713Y18809111D01*
X2683509Y18918818D01*
X2457067Y18919016D01*
X1949844Y19426239D01*
X1949844Y19542832D01*
X2021975Y19470575D01*
X2286179Y19360868D01*
X2572254Y19360618D01*
X2603146Y19373383D01*
X5693265Y16283264D01*
X5815572Y16201540D01*
X5959844Y16172843D01*
X8065908Y16172843D01*
X7950576Y16057712D01*
X7840869Y15793508D01*
X7840619Y15507433D01*
X7949865Y15243038D01*
X8151975Y15040575D01*
X8416179Y14930868D01*
X8702254Y14930618D01*
X8966649Y15039864D01*
X9126907Y15199843D01*
X11793448Y15199843D01*
X12211489Y14781802D01*
X12357479Y14684254D01*
X12529687Y14650000D01*
X15582811Y14650000D01*
X15731975Y14500575D01*
X15996179Y14390868D01*
X16282254Y14390618D01*
X16546649Y14499864D01*
X16697047Y14650000D01*
X17516843Y14650000D01*
X10583686Y7716843D01*
X6989338Y7716843D01*
X6996649Y7719864D01*
X7146890Y7869843D01*
X10069844Y7869843D01*
X10242052Y7904097D01*
X10388042Y8001645D01*
X10987212Y8600815D01*
X11212254Y8600618D01*
X11476649Y8709864D01*
X11679112Y8911974D01*
X11788819Y9176178D01*
X11789069Y9462253D01*
X11679823Y9726648D01*
X11477713Y9929111D01*
X11213509Y10038818D01*
X10927434Y10039068D01*
X10663039Y9929822D01*
X10460576Y9727712D01*
X10350869Y9463508D01*
X10350671Y9237066D01*
X9883448Y8769843D01*
X7166686Y8769843D01*
X6997713Y8939111D01*
X6733509Y9048818D01*
X6447434Y9049068D01*
X6183039Y8939822D01*
X5980576Y8737712D01*
X5870869Y8473508D01*
X5870619Y8187433D01*
X5979865Y7923038D01*
X6181975Y7720575D01*
X6190963Y7716843D01*
X3142138Y7716843D01*
X3129823Y7746648D01*
X2927713Y7949111D01*
X2663509Y8058818D01*
X2377434Y8059068D01*
X2122703Y7953815D01*
X1947713Y8129111D01*
X1683509Y8238818D01*
X1397434Y8239068D01*
X1133039Y8129822D01*
X930576Y7927712D01*
X820869Y7663508D01*
X820619Y7377433D01*
X929865Y7113038D01*
X1131975Y6910575D01*
X1396179Y6800868D01*
X1555800Y6800729D01*
X1983265Y6373263D01*
X2050788Y6328146D01*
X2105572Y6291540D01*
X2249844Y6262843D01*
X3429844Y6262843D01*
X3574116Y6291540D01*
X3696423Y6373264D01*
X3756458Y6433299D01*
X3710869Y6323508D01*
X3710619Y6037433D01*
X3819865Y5773038D01*
X4021975Y5570575D01*
X4286179Y5460868D01*
X4572254Y5460618D01*
X4836649Y5569864D01*
X4858059Y5591236D01*
X4800869Y5453508D01*
X4800619Y5167433D01*
X4909865Y4903038D01*
X5111975Y4700575D01*
X5376179Y4590868D01*
X5662254Y4590618D01*
X5795536Y4645689D01*
X5809844Y4642843D01*
X13227550Y4642843D01*
X13239865Y4613038D01*
X13441975Y4410575D01*
X13706179Y4300868D01*
X13980648Y4300628D01*
X13980619Y4267433D01*
X13984995Y4256843D01*
X7462138Y4256843D01*
X7449823Y4286648D01*
X7247713Y4489111D01*
X6983509Y4598818D01*
X6697434Y4599068D01*
X6433039Y4489822D01*
X6230576Y4287712D01*
X6120869Y4023508D01*
X6120619Y3737433D01*
X6229865Y3473038D01*
X6431975Y3270575D01*
X6696179Y3160868D01*
X6982254Y3160618D01*
X7246649Y3269864D01*
X7449112Y3471974D01*
X7461930Y3502843D01*
X14169844Y3502843D01*
X14314116Y3531540D01*
X14436423Y3613264D01*
X14526395Y3703236D01*
X14556179Y3690868D01*
X14842254Y3690618D01*
X15106649Y3799864D01*
X15309112Y4001974D01*
X15389844Y4196398D01*
X15389844Y3931685D01*
X15220576Y3762712D01*
X15110869Y3498508D01*
X15110619Y3212433D01*
X15219865Y2948038D01*
X15421975Y2745575D01*
X15686179Y2635868D01*
X15972254Y2635618D01*
X16152844Y2710236D01*
X16152844Y1866001D01*
X15983265Y1696422D01*
X15901541Y1574115D01*
X15872844Y1429843D01*
X15872844Y-6373999D01*
X13363686Y-8883157D01*
X9012138Y-8883157D01*
X8999823Y-8853352D01*
X8797713Y-8650889D01*
X8533509Y-8541182D01*
X8247434Y-8540932D01*
X7983039Y-8650178D01*
X7780576Y-8852288D01*
X7670869Y-9116492D01*
X7670619Y-9402567D01*
X7733603Y-9555000D01*
X-2465528Y-9555000D01*
X-2490623Y-9550008D01*
X-2193039Y-9550268D01*
X-1623143Y-9314792D01*
X-1186740Y-8879151D01*
X-950270Y-8309667D01*
X-949732Y-7693039D01*
X-1185208Y-7123143D01*
X-1620849Y-6686740D01*
X-2190333Y-6450270D01*
X-2806961Y-6449732D01*
X-3376857Y-6685208D01*
X-3813260Y-7120849D01*
X-4049730Y-7690333D01*
X-4049992Y-7990705D01*
X-4055000Y-7965528D01*
X-4055000Y-3611709D01*
X181646Y-7848355D01*
X327636Y-7945903D01*
X499844Y-7980157D01*
X8059844Y-7980157D01*
X8232052Y-7945903D01*
X8378042Y-7848355D01*
X8807212Y-7419185D01*
X9032254Y-7419382D01*
X9296649Y-7310136D01*
X9499112Y-7108026D01*
X9608819Y-6843822D01*
X9609069Y-6557747D01*
X9499823Y-6293352D01*
X9297713Y-6090889D01*
X9033509Y-5981182D01*
X8747434Y-5980932D01*
X8483039Y-6090178D01*
X8280576Y-6292288D01*
X8170869Y-6556492D01*
X8170671Y-6782934D01*
X7873448Y-7080157D01*
X686240Y-7080157D01*
X-3560156Y-2833761D01*
X-3560156Y-2109302D01*
X-3343821Y-2199132D01*
X-3057746Y-2199382D01*
X-3026854Y-2186617D01*
X-1966735Y-3246736D01*
X-1844428Y-3328460D01*
X-1700156Y-3357157D01*
X8869844Y-3357157D01*
X9014116Y-3328460D01*
X9136423Y-3246736D01*
X11126395Y-1256764D01*
X11156179Y-1269132D01*
X11442254Y-1269382D01*
X11706649Y-1160136D01*
X11909112Y-958026D01*
X12018819Y-693822D01*
X12019069Y-407747D01*
X11909823Y-143352D01*
X11707713Y59111D01*
X11443509Y168818D01*
X11157434Y169068D01*
X10893039Y59822D01*
X10690576Y-142288D01*
X10580869Y-406492D01*
X10580619Y-692567D01*
X10593384Y-723459D01*
X8713686Y-2603157D01*
X-1543998Y-2603157D01*
X-2493549Y-1653606D01*
X-2481181Y-1623822D01*
X-2480931Y-1337747D01*
X-2590177Y-1073352D01*
X-2792287Y-870889D01*
X-3056491Y-761182D01*
X-3342566Y-760932D01*
X-3560156Y-850839D01*
X-3560156Y-306961D01*
X-1550268Y-306961D01*
X-1314792Y-876857D01*
X-879151Y-1313260D01*
X-309667Y-1549730D01*
X306961Y-1550268D01*
X876857Y-1314792D01*
X1313260Y-879151D01*
X1549730Y-309667D01*
X1550268Y306961D01*
X1314792Y876857D01*
X879151Y1313260D01*
X309667Y1549730D01*
X-306961Y1550268D01*
X-876857Y1314792D01*
X-1313260Y879151D01*
X-1549730Y309667D01*
X-1550268Y-306961D01*
X-3560156Y-306961D01*
X-3560156Y3025152D01*
X-3258908Y2936288D01*
X-3091460Y3073785D01*
X-3091460Y3795100D01*
X-2683460Y3795100D01*
X-2683460Y3073785D01*
X-2516012Y2936288D01*
X-2116633Y3054099D01*
X-1792739Y3315778D01*
X-1619008Y3635210D01*
X-1716901Y3795100D01*
X-2683460Y3795100D01*
X-3091460Y3795100D01*
X-3111460Y3795100D01*
X-3111460Y4203100D01*
X-3091460Y4203100D01*
X-3091460Y4924415D01*
X-2683460Y4924415D01*
X-2683460Y4203100D01*
X-1716901Y4203100D01*
X-1619008Y4362990D01*
X-1766949Y4635003D01*
X-1194020Y4635003D01*
X-1035469Y4266106D01*
X-747816Y3985965D01*
X-547363Y3880824D01*
X-391460Y3979200D01*
X-391460Y4795100D01*
X16540Y4795100D01*
X16540Y3979200D01*
X172443Y3880824D01*
X372896Y3985965D01*
X660549Y4266106D01*
X819100Y4635003D01*
X700700Y4795100D01*
X16540Y4795100D01*
X-391460Y4795100D01*
X-1075620Y4795100D01*
X-1194020Y4635003D01*
X-1766949Y4635003D01*
X-1792739Y4682422D01*
X-2116633Y4944101D01*
X-2516012Y5061912D01*
X-2683460Y4924415D01*
X-3091460Y4924415D01*
X-3258908Y5061912D01*
X-3560156Y4973048D01*
X-3560156Y5363197D01*
X-1194020Y5363197D01*
X-1075620Y5203100D01*
X-391460Y5203100D01*
X-391460Y6019000D01*
X16540Y6019000D01*
X16540Y5203100D01*
X700700Y5203100D01*
X819100Y5363197D01*
X660549Y5732094D01*
X372896Y6012235D01*
X172443Y6117376D01*
X16540Y6019000D01*
X-391460Y6019000D01*
X-547363Y6117376D01*
X-747816Y6012235D01*
X-1035469Y5732094D01*
X-1194020Y5363197D01*
X-3560156Y5363197D01*
X-3560156Y9635003D01*
X-1194020Y9635003D01*
X-1035469Y9266106D01*
X-747816Y8985965D01*
X-547363Y8880824D01*
X-391460Y8979200D01*
X-391460Y9795100D01*
X16540Y9795100D01*
X16540Y8979200D01*
X172443Y8880824D01*
X372896Y8985965D01*
X660549Y9266106D01*
X819100Y9635003D01*
X700700Y9795100D01*
X16540Y9795100D01*
X-391460Y9795100D01*
X-1075620Y9795100D01*
X-1194020Y9635003D01*
X-3560156Y9635003D01*
X-3560156Y10025152D01*
X-3258908Y9936288D01*
X-3091460Y10073785D01*
X-3091460Y10795100D01*
X-2683460Y10795100D01*
X-2683460Y10073785D01*
X-2516012Y9936288D01*
X-2116633Y10054099D01*
X-1792739Y10315778D01*
X-1766950Y10363197D01*
X-1194020Y10363197D01*
X-1075620Y10203100D01*
X-391460Y10203100D01*
X-391460Y11019000D01*
X16540Y11019000D01*
X16540Y10203100D01*
X700700Y10203100D01*
X819100Y10363197D01*
X660549Y10732094D01*
X372896Y11012235D01*
X172443Y11117376D01*
X16540Y11019000D01*
X-391460Y11019000D01*
X-547363Y11117376D01*
X-747816Y11012235D01*
X-1035469Y10732094D01*
X-1194020Y10363197D01*
X-1766950Y10363197D01*
X-1619008Y10635210D01*
X-1716901Y10795100D01*
X-2683460Y10795100D01*
X-3091460Y10795100D01*
X-3111460Y10795100D01*
X-3111460Y11203100D01*
X-3091460Y11203100D01*
X-3091460Y11924415D01*
X-2683460Y11924415D01*
X-2683460Y11203100D01*
X-1716901Y11203100D01*
X-1619008Y11362990D01*
X-1792739Y11682422D01*
X-2116633Y11944101D01*
X-2516012Y12061912D01*
X-2683460Y11924415D01*
X-3091460Y11924415D01*
X-3258908Y12061912D01*
X-3560156Y11973048D01*
X-3560156Y14525152D01*
X-3258908Y14436288D01*
X-3091460Y14573785D01*
X-3091460Y15295100D01*
X-2683460Y15295100D01*
X-2683460Y14573785D01*
X-2516012Y14436288D01*
X-2116633Y14554099D01*
X-1792739Y14815778D01*
X-1619008Y15135210D01*
X-1716901Y15295100D01*
X-2683460Y15295100D01*
X-3091460Y15295100D01*
X-3111460Y15295100D01*
X-3111460Y15703100D01*
X-3091460Y15703100D01*
X-3091460Y16424415D01*
X-2683460Y16424415D01*
X-2683460Y15703100D01*
X-1716901Y15703100D01*
X-1619008Y15862990D01*
X-1792739Y16182422D01*
X-2116633Y16444101D01*
X-2516012Y16561912D01*
X-2683460Y16424415D01*
X-3091460Y16424415D01*
X-3258908Y16561912D01*
X-3560156Y16473048D01*
X-3560156Y16863197D01*
X-1194020Y16863197D01*
X-1075620Y16703100D01*
X-391460Y16703100D01*
X-391460Y17519000D01*
X-547363Y17617376D01*
X-747816Y17512235D01*
X-1035469Y17232094D01*
X-1194020Y16863197D01*
X-3560156Y16863197D01*
X-3560156Y21135003D01*
X-1194020Y21135003D01*
X-1035469Y20766106D01*
X-747816Y20485965D01*
X-547363Y20380824D01*
X-391460Y20479200D01*
X-391460Y21295100D01*
X16540Y21295100D01*
X16540Y20479200D01*
X172443Y20380824D01*
X372896Y20485965D01*
X660549Y20766106D01*
X819100Y21135003D01*
X700700Y21295100D01*
X16540Y21295100D01*
X-391460Y21295100D01*
X-1075620Y21295100D01*
X-1194020Y21135003D01*
X-3560156Y21135003D01*
X-3560156Y21525152D01*
X-3258908Y21436288D01*
X-3091460Y21573785D01*
X-3091460Y22295100D01*
X-2683460Y22295100D01*
X-2683460Y21573785D01*
X-2516012Y21436288D01*
X-2116633Y21554099D01*
X-1792739Y21815778D01*
X-1766950Y21863197D01*
X-1194020Y21863197D01*
X-1075620Y21703100D01*
X-391460Y21703100D01*
X-391460Y22519000D01*
X16540Y22519000D01*
X16540Y21703100D01*
X700700Y21703100D01*
X819100Y21863197D01*
X660549Y22232094D01*
X372896Y22512235D01*
X172443Y22617376D01*
X16540Y22519000D01*
X-391460Y22519000D01*
X-547363Y22617376D01*
X-747816Y22512235D01*
X-1035469Y22232094D01*
X-1194020Y21863197D01*
X-1766950Y21863197D01*
X-1619008Y22135210D01*
X-1716901Y22295100D01*
X-2683460Y22295100D01*
X-3091460Y22295100D01*
X-3111460Y22295100D01*
X-3111460Y22703100D01*
X-3091460Y22703100D01*
X-3091460Y23424415D01*
X-3207656Y23519827D01*
X-3207656Y23954843D01*
X-2832656Y23954843D01*
X-2832656Y23336343D01*
X-2693156Y23196843D01*
X-2683460Y23196843D01*
X-2683460Y22703100D01*
X-1716901Y22703100D01*
X-1619008Y22862990D01*
X-1792739Y23182422D01*
X-1810589Y23196843D01*
X-1772156Y23196843D01*
X-1632656Y23336343D01*
X-1632656Y23954843D01*
X-1257656Y23954843D01*
X-1257656Y23336343D01*
X-1118156Y23196843D01*
X-959163Y23196843D01*
X-754074Y23281794D01*
X-597106Y23438761D01*
X-512156Y23643850D01*
X-512156Y23815343D01*
X-651656Y23954843D01*
X-1257656Y23954843D01*
X-1632656Y23954843D01*
X-2832656Y23954843D01*
X-3207656Y23954843D01*
X-3244156Y23954843D01*
X-3244156Y24354843D01*
X-3207656Y24354843D01*
X-3207656Y24378843D01*
X-2832656Y24378843D01*
X-2832656Y24354843D01*
X-1632656Y24354843D01*
X-1632656Y24378843D01*
X-1257656Y24378843D01*
X-1257656Y24354843D01*
X-651656Y24354843D01*
X-512156Y24494343D01*
X-512156Y24665836D01*
X-597106Y24870925D01*
X-754074Y25027892D01*
X-838298Y25062779D01*
X-788378Y25135840D01*
X-774404Y25204843D01*
X1018448Y25204843D01*
X1671646Y24551645D01*
X1671646Y24551645D01*
G37*
X1671646Y24551645D02*
X1817636Y24454097D01*
X1989844Y24419843D01*
X4113448Y24419843D01*
X3751802Y24058197D01*
X3654254Y23912207D01*
X3620000Y23739999D01*
X3620000Y23536859D01*
X3502937Y23420000D01*
X2700001Y23420000D01*
X2527793Y23385746D01*
X2381803Y23288198D01*
X1181646Y22088041D01*
X1084098Y21942051D01*
X1049844Y21769843D01*
X1049844Y19239843D01*
X1084098Y19067635D01*
X1175034Y18931540D01*
X1181646Y18921645D01*
X1820816Y18282475D01*
X1820619Y18057433D01*
X1929865Y17793038D01*
X1934869Y17788026D01*
X845540Y16698697D01*
X845540Y16703102D01*
X700701Y16703102D01*
X819100Y16863197D01*
X660549Y17232094D01*
X372896Y17512235D01*
X172443Y17617376D01*
X16540Y17519000D01*
X16540Y16703100D01*
X36540Y16703100D01*
X36540Y16295100D01*
X16540Y16295100D01*
X16540Y16275100D01*
X-391460Y16275100D01*
X-391460Y16295100D01*
X-1075620Y16295100D01*
X-1194020Y16135003D01*
X-1035469Y15766106D01*
X-747816Y15485965D01*
X-547363Y15380824D01*
X-391462Y15479199D01*
X-391462Y15461695D01*
X-736707Y15116450D01*
X-766491Y15128818D01*
X-1052566Y15129068D01*
X-1316961Y15019822D01*
X-1519424Y14817712D01*
X-1629131Y14553508D01*
X-1629381Y14267433D01*
X-1520135Y14003038D01*
X-1318025Y13800575D01*
X-1053821Y13690868D01*
X-767746Y13690618D01*
X-503351Y13799864D01*
X-300888Y14001974D01*
X-191181Y14266178D01*
X-190931Y14552253D01*
X-203696Y14583145D01*
X2701891Y17488732D01*
X2946649Y17589864D01*
X3149112Y17791974D01*
X3258819Y18056178D01*
X3259069Y18342253D01*
X3149823Y18606648D01*
X2947713Y18809111D01*
X2683509Y18918818D01*
X2457067Y18919016D01*
X1949844Y19426239D01*
X1949844Y19542832D01*
X2021975Y19470575D01*
X2286179Y19360868D01*
X2572254Y19360618D01*
X2603146Y19373383D01*
X5693265Y16283264D01*
X5815572Y16201540D01*
X5959844Y16172843D01*
X8065908Y16172843D01*
X7950576Y16057712D01*
X7840869Y15793508D01*
X7840619Y15507433D01*
X7949865Y15243038D01*
X8151975Y15040575D01*
X8416179Y14930868D01*
X8702254Y14930618D01*
X8966649Y15039864D01*
X9126907Y15199843D01*
X11793448Y15199843D01*
X12211489Y14781802D01*
X12357479Y14684254D01*
X12529687Y14650000D01*
X15582811Y14650000D01*
X15731975Y14500575D01*
X15996179Y14390868D01*
X16282254Y14390618D01*
X16546649Y14499864D01*
X16697047Y14650000D01*
X17516843Y14650000D01*
X10583686Y7716843D01*
X6989338Y7716843D01*
X6996649Y7719864D01*
X7146890Y7869843D01*
X10069844Y7869843D01*
X10242052Y7904097D01*
X10388042Y8001645D01*
X10987212Y8600815D01*
X11212254Y8600618D01*
X11476649Y8709864D01*
X11679112Y8911974D01*
X11788819Y9176178D01*
X11789069Y9462253D01*
X11679823Y9726648D01*
X11477713Y9929111D01*
X11213509Y10038818D01*
X10927434Y10039068D01*
X10663039Y9929822D01*
X10460576Y9727712D01*
X10350869Y9463508D01*
X10350671Y9237066D01*
X9883448Y8769843D01*
X7166686Y8769843D01*
X6997713Y8939111D01*
X6733509Y9048818D01*
X6447434Y9049068D01*
X6183039Y8939822D01*
X5980576Y8737712D01*
X5870869Y8473508D01*
X5870619Y8187433D01*
X5979865Y7923038D01*
X6181975Y7720575D01*
X6190963Y7716843D01*
X3142138Y7716843D01*
X3129823Y7746648D01*
X2927713Y7949111D01*
X2663509Y8058818D01*
X2377434Y8059068D01*
X2122703Y7953815D01*
X1947713Y8129111D01*
X1683509Y8238818D01*
X1397434Y8239068D01*
X1133039Y8129822D01*
X930576Y7927712D01*
X820869Y7663508D01*
X820619Y7377433D01*
X929865Y7113038D01*
X1131975Y6910575D01*
X1396179Y6800868D01*
X1555800Y6800729D01*
X1983265Y6373263D01*
X2050788Y6328146D01*
X2105572Y6291540D01*
X2249844Y6262843D01*
X3429844Y6262843D01*
X3574116Y6291540D01*
X3696423Y6373264D01*
X3756458Y6433299D01*
X3710869Y6323508D01*
X3710619Y6037433D01*
X3819865Y5773038D01*
X4021975Y5570575D01*
X4286179Y5460868D01*
X4572254Y5460618D01*
X4836649Y5569864D01*
X4858059Y5591236D01*
X4800869Y5453508D01*
X4800619Y5167433D01*
X4909865Y4903038D01*
X5111975Y4700575D01*
X5376179Y4590868D01*
X5662254Y4590618D01*
X5795536Y4645689D01*
X5809844Y4642843D01*
X13227550Y4642843D01*
X13239865Y4613038D01*
X13441975Y4410575D01*
X13706179Y4300868D01*
X13980648Y4300628D01*
X13980619Y4267433D01*
X13984995Y4256843D01*
X7462138Y4256843D01*
X7449823Y4286648D01*
X7247713Y4489111D01*
X6983509Y4598818D01*
X6697434Y4599068D01*
X6433039Y4489822D01*
X6230576Y4287712D01*
X6120869Y4023508D01*
X6120619Y3737433D01*
X6229865Y3473038D01*
X6431975Y3270575D01*
X6696179Y3160868D01*
X6982254Y3160618D01*
X7246649Y3269864D01*
X7449112Y3471974D01*
X7461930Y3502843D01*
X14169844Y3502843D01*
X14314116Y3531540D01*
X14436423Y3613264D01*
X14526395Y3703236D01*
X14556179Y3690868D01*
X14842254Y3690618D01*
X15106649Y3799864D01*
X15309112Y4001974D01*
X15389844Y4196398D01*
X15389844Y3931685D01*
X15220576Y3762712D01*
X15110869Y3498508D01*
X15110619Y3212433D01*
X15219865Y2948038D01*
X15421975Y2745575D01*
X15686179Y2635868D01*
X15972254Y2635618D01*
X16152844Y2710236D01*
X16152844Y1866001D01*
X15983265Y1696422D01*
X15901541Y1574115D01*
X15872844Y1429843D01*
X15872844Y-6373999D01*
X13363686Y-8883157D01*
X9012138Y-8883157D01*
X8999823Y-8853352D01*
X8797713Y-8650889D01*
X8533509Y-8541182D01*
X8247434Y-8540932D01*
X7983039Y-8650178D01*
X7780576Y-8852288D01*
X7670869Y-9116492D01*
X7670619Y-9402567D01*
X7733603Y-9555000D01*
X-2465528Y-9555000D01*
X-2490623Y-9550008D01*
X-2193039Y-9550268D01*
X-1623143Y-9314792D01*
X-1186740Y-8879151D01*
X-950270Y-8309667D01*
X-949732Y-7693039D01*
X-1185208Y-7123143D01*
X-1620849Y-6686740D01*
X-2190333Y-6450270D01*
X-2806961Y-6449732D01*
X-3376857Y-6685208D01*
X-3813260Y-7120849D01*
X-4049730Y-7690333D01*
X-4049992Y-7990705D01*
X-4055000Y-7965528D01*
X-4055000Y-3611709D01*
X181646Y-7848355D01*
X327636Y-7945903D01*
X499844Y-7980157D01*
X8059844Y-7980157D01*
X8232052Y-7945903D01*
X8378042Y-7848355D01*
X8807212Y-7419185D01*
X9032254Y-7419382D01*
X9296649Y-7310136D01*
X9499112Y-7108026D01*
X9608819Y-6843822D01*
X9609069Y-6557747D01*
X9499823Y-6293352D01*
X9297713Y-6090889D01*
X9033509Y-5981182D01*
X8747434Y-5980932D01*
X8483039Y-6090178D01*
X8280576Y-6292288D01*
X8170869Y-6556492D01*
X8170671Y-6782934D01*
X7873448Y-7080157D01*
X686240Y-7080157D01*
X-3560156Y-2833761D01*
X-3560156Y-2109302D01*
X-3343821Y-2199132D01*
X-3057746Y-2199382D01*
X-3026854Y-2186617D01*
X-1966735Y-3246736D01*
X-1844428Y-3328460D01*
X-1700156Y-3357157D01*
X8869844Y-3357157D01*
X9014116Y-3328460D01*
X9136423Y-3246736D01*
X11126395Y-1256764D01*
X11156179Y-1269132D01*
X11442254Y-1269382D01*
X11706649Y-1160136D01*
X11909112Y-958026D01*
X12018819Y-693822D01*
X12019069Y-407747D01*
X11909823Y-143352D01*
X11707713Y59111D01*
X11443509Y168818D01*
X11157434Y169068D01*
X10893039Y59822D01*
X10690576Y-142288D01*
X10580869Y-406492D01*
X10580619Y-692567D01*
X10593384Y-723459D01*
X8713686Y-2603157D01*
X-1543998Y-2603157D01*
X-2493549Y-1653606D01*
X-2481181Y-1623822D01*
X-2480931Y-1337747D01*
X-2590177Y-1073352D01*
X-2792287Y-870889D01*
X-3056491Y-761182D01*
X-3342566Y-760932D01*
X-3560156Y-850839D01*
X-3560156Y-306961D01*
X-1550268Y-306961D01*
X-1314792Y-876857D01*
X-879151Y-1313260D01*
X-309667Y-1549730D01*
X306961Y-1550268D01*
X876857Y-1314792D01*
X1313260Y-879151D01*
X1549730Y-309667D01*
X1550268Y306961D01*
X1314792Y876857D01*
X879151Y1313260D01*
X309667Y1549730D01*
X-306961Y1550268D01*
X-876857Y1314792D01*
X-1313260Y879151D01*
X-1549730Y309667D01*
X-1550268Y-306961D01*
X-3560156Y-306961D01*
X-3560156Y3025152D01*
X-3258908Y2936288D01*
X-3091460Y3073785D01*
X-3091460Y3795100D01*
X-2683460Y3795100D01*
X-2683460Y3073785D01*
X-2516012Y2936288D01*
X-2116633Y3054099D01*
X-1792739Y3315778D01*
X-1619008Y3635210D01*
X-1716901Y3795100D01*
X-2683460Y3795100D01*
X-3091460Y3795100D01*
X-3111460Y3795100D01*
X-3111460Y4203100D01*
X-3091460Y4203100D01*
X-3091460Y4924415D01*
X-2683460Y4924415D01*
X-2683460Y4203100D01*
X-1716901Y4203100D01*
X-1619008Y4362990D01*
X-1766949Y4635003D01*
X-1194020Y4635003D01*
X-1035469Y4266106D01*
X-747816Y3985965D01*
X-547363Y3880824D01*
X-391460Y3979200D01*
X-391460Y4795100D01*
X16540Y4795100D01*
X16540Y3979200D01*
X172443Y3880824D01*
X372896Y3985965D01*
X660549Y4266106D01*
X819100Y4635003D01*
X700700Y4795100D01*
X16540Y4795100D01*
X-391460Y4795100D01*
X-1075620Y4795100D01*
X-1194020Y4635003D01*
X-1766949Y4635003D01*
X-1792739Y4682422D01*
X-2116633Y4944101D01*
X-2516012Y5061912D01*
X-2683460Y4924415D01*
X-3091460Y4924415D01*
X-3258908Y5061912D01*
X-3560156Y4973048D01*
X-3560156Y5363197D01*
X-1194020Y5363197D01*
X-1075620Y5203100D01*
X-391460Y5203100D01*
X-391460Y6019000D01*
X16540Y6019000D01*
X16540Y5203100D01*
X700700Y5203100D01*
X819100Y5363197D01*
X660549Y5732094D01*
X372896Y6012235D01*
X172443Y6117376D01*
X16540Y6019000D01*
X-391460Y6019000D01*
X-547363Y6117376D01*
X-747816Y6012235D01*
X-1035469Y5732094D01*
X-1194020Y5363197D01*
X-3560156Y5363197D01*
X-3560156Y9635003D01*
X-1194020Y9635003D01*
X-1035469Y9266106D01*
X-747816Y8985965D01*
X-547363Y8880824D01*
X-391460Y8979200D01*
X-391460Y9795100D01*
X16540Y9795100D01*
X16540Y8979200D01*
X172443Y8880824D01*
X372896Y8985965D01*
X660549Y9266106D01*
X819100Y9635003D01*
X700700Y9795100D01*
X16540Y9795100D01*
X-391460Y9795100D01*
X-1075620Y9795100D01*
X-1194020Y9635003D01*
X-3560156Y9635003D01*
X-3560156Y10025152D01*
X-3258908Y9936288D01*
X-3091460Y10073785D01*
X-3091460Y10795100D01*
X-2683460Y10795100D01*
X-2683460Y10073785D01*
X-2516012Y9936288D01*
X-2116633Y10054099D01*
X-1792739Y10315778D01*
X-1766950Y10363197D01*
X-1194020Y10363197D01*
X-1075620Y10203100D01*
X-391460Y10203100D01*
X-391460Y11019000D01*
X16540Y11019000D01*
X16540Y10203100D01*
X700700Y10203100D01*
X819100Y10363197D01*
X660549Y10732094D01*
X372896Y11012235D01*
X172443Y11117376D01*
X16540Y11019000D01*
X-391460Y11019000D01*
X-547363Y11117376D01*
X-747816Y11012235D01*
X-1035469Y10732094D01*
X-1194020Y10363197D01*
X-1766950Y10363197D01*
X-1619008Y10635210D01*
X-1716901Y10795100D01*
X-2683460Y10795100D01*
X-3091460Y10795100D01*
X-3111460Y10795100D01*
X-3111460Y11203100D01*
X-3091460Y11203100D01*
X-3091460Y11924415D01*
X-2683460Y11924415D01*
X-2683460Y11203100D01*
X-1716901Y11203100D01*
X-1619008Y11362990D01*
X-1792739Y11682422D01*
X-2116633Y11944101D01*
X-2516012Y12061912D01*
X-2683460Y11924415D01*
X-3091460Y11924415D01*
X-3258908Y12061912D01*
X-3560156Y11973048D01*
X-3560156Y14525152D01*
X-3258908Y14436288D01*
X-3091460Y14573785D01*
X-3091460Y15295100D01*
X-2683460Y15295100D01*
X-2683460Y14573785D01*
X-2516012Y14436288D01*
X-2116633Y14554099D01*
X-1792739Y14815778D01*
X-1619008Y15135210D01*
X-1716901Y15295100D01*
X-2683460Y15295100D01*
X-3091460Y15295100D01*
X-3111460Y15295100D01*
X-3111460Y15703100D01*
X-3091460Y15703100D01*
X-3091460Y16424415D01*
X-2683460Y16424415D01*
X-2683460Y15703100D01*
X-1716901Y15703100D01*
X-1619008Y15862990D01*
X-1792739Y16182422D01*
X-2116633Y16444101D01*
X-2516012Y16561912D01*
X-2683460Y16424415D01*
X-3091460Y16424415D01*
X-3258908Y16561912D01*
X-3560156Y16473048D01*
X-3560156Y16863197D01*
X-1194020Y16863197D01*
X-1075620Y16703100D01*
X-391460Y16703100D01*
X-391460Y17519000D01*
X-547363Y17617376D01*
X-747816Y17512235D01*
X-1035469Y17232094D01*
X-1194020Y16863197D01*
X-3560156Y16863197D01*
X-3560156Y21135003D01*
X-1194020Y21135003D01*
X-1035469Y20766106D01*
X-747816Y20485965D01*
X-547363Y20380824D01*
X-391460Y20479200D01*
X-391460Y21295100D01*
X16540Y21295100D01*
X16540Y20479200D01*
X172443Y20380824D01*
X372896Y20485965D01*
X660549Y20766106D01*
X819100Y21135003D01*
X700700Y21295100D01*
X16540Y21295100D01*
X-391460Y21295100D01*
X-1075620Y21295100D01*
X-1194020Y21135003D01*
X-3560156Y21135003D01*
X-3560156Y21525152D01*
X-3258908Y21436288D01*
X-3091460Y21573785D01*
X-3091460Y22295100D01*
X-2683460Y22295100D01*
X-2683460Y21573785D01*
X-2516012Y21436288D01*
X-2116633Y21554099D01*
X-1792739Y21815778D01*
X-1766950Y21863197D01*
X-1194020Y21863197D01*
X-1075620Y21703100D01*
X-391460Y21703100D01*
X-391460Y22519000D01*
X16540Y22519000D01*
X16540Y21703100D01*
X700700Y21703100D01*
X819100Y21863197D01*
X660549Y22232094D01*
X372896Y22512235D01*
X172443Y22617376D01*
X16540Y22519000D01*
X-391460Y22519000D01*
X-547363Y22617376D01*
X-747816Y22512235D01*
X-1035469Y22232094D01*
X-1194020Y21863197D01*
X-1766950Y21863197D01*
X-1619008Y22135210D01*
X-1716901Y22295100D01*
X-2683460Y22295100D01*
X-3091460Y22295100D01*
X-3111460Y22295100D01*
X-3111460Y22703100D01*
X-3091460Y22703100D01*
X-3091460Y23424415D01*
X-3207656Y23519827D01*
X-3207656Y23954843D01*
X-2832656Y23954843D01*
X-2832656Y23336343D01*
X-2693156Y23196843D01*
X-2683460Y23196843D01*
X-2683460Y22703100D01*
X-1716901Y22703100D01*
X-1619008Y22862990D01*
X-1792739Y23182422D01*
X-1810589Y23196843D01*
X-1772156Y23196843D01*
X-1632656Y23336343D01*
X-1632656Y23954843D01*
X-1257656Y23954843D01*
X-1257656Y23336343D01*
X-1118156Y23196843D01*
X-959163Y23196843D01*
X-754074Y23281794D01*
X-597106Y23438761D01*
X-512156Y23643850D01*
X-512156Y23815343D01*
X-651656Y23954843D01*
X-1257656Y23954843D01*
X-1632656Y23954843D01*
X-2832656Y23954843D01*
X-3207656Y23954843D01*
X-3244156Y23954843D01*
X-3244156Y24354843D01*
X-3207656Y24354843D01*
X-3207656Y24378843D01*
X-2832656Y24378843D01*
X-2832656Y24354843D01*
X-1632656Y24354843D01*
X-1632656Y24378843D01*
X-1257656Y24378843D01*
X-1257656Y24354843D01*
X-651656Y24354843D01*
X-512156Y24494343D01*
X-512156Y24665836D01*
X-597106Y24870925D01*
X-754074Y25027892D01*
X-838298Y25062779D01*
X-788378Y25135840D01*
X-774404Y25204843D01*
X1018448Y25204843D01*
X1671646Y24551645D01*
G36*
X23810846Y9684280D02*
X23710869Y9443508D01*
X23710619Y9157433D01*
X23819865Y8893038D01*
X24021975Y8690575D01*
X24286179Y8580868D01*
X24572254Y8580618D01*
X24616535Y8598914D01*
X24709865Y8373038D01*
X24752828Y8330000D01*
X17893159Y8330000D01*
X20456078Y10892919D01*
X20579007Y10842000D01*
X21061500Y10842000D01*
X21201000Y10981500D01*
X21201000Y11450000D01*
X21181000Y11450000D01*
X21181000Y11494123D01*
X21629000Y11494123D01*
X21629000Y11450000D01*
X21609000Y11450000D01*
X21609000Y10981500D01*
X21748500Y10842000D01*
X22230993Y10842000D01*
X22436082Y10926950D01*
X22593049Y11083918D01*
X22678000Y11289007D01*
X22678000Y11364679D01*
X22751975Y11290575D01*
X23016179Y11180868D01*
X23302254Y11180618D01*
X23566649Y11289864D01*
X23769112Y11491974D01*
X23810846Y11592481D01*
X23810846Y9684280D01*
X23810846Y9684280D01*
G37*
X23810846Y9684280D02*
X23710869Y9443508D01*
X23710619Y9157433D01*
X23819865Y8893038D01*
X24021975Y8690575D01*
X24286179Y8580868D01*
X24572254Y8580618D01*
X24616535Y8598914D01*
X24709865Y8373038D01*
X24752828Y8330000D01*
X17893159Y8330000D01*
X20456078Y10892919D01*
X20579007Y10842000D01*
X21061500Y10842000D01*
X21201000Y10981500D01*
X21201000Y11450000D01*
X21181000Y11450000D01*
X21181000Y11494123D01*
X21629000Y11494123D01*
X21629000Y11450000D01*
X21609000Y11450000D01*
X21609000Y10981500D01*
X21748500Y10842000D01*
X22230993Y10842000D01*
X22436082Y10926950D01*
X22593049Y11083918D01*
X22678000Y11289007D01*
X22678000Y11364679D01*
X22751975Y11290575D01*
X23016179Y11180868D01*
X23302254Y11180618D01*
X23566649Y11289864D01*
X23769112Y11491974D01*
X23810846Y11592481D01*
X23810846Y9684280D01*
G36*
X23204842Y13796106D02*
X23204842Y13073425D01*
X23233539Y12929153D01*
X23315263Y12806846D01*
X23810846Y12311263D01*
X23810846Y12207365D01*
X23769823Y12306648D01*
X23567713Y12509111D01*
X23303509Y12618818D01*
X23017434Y12619068D01*
X22753039Y12509822D01*
X22678000Y12434914D01*
X22678000Y12510993D01*
X22599710Y12700000D01*
X22678000Y12889007D01*
X22678000Y12910500D01*
X22548816Y13039684D01*
X22593049Y13083918D01*
X22678000Y13289007D01*
X22678000Y13310993D01*
X22599710Y13500000D01*
X22678000Y13689007D01*
X22678000Y13710993D01*
X22599710Y13900000D01*
X22678000Y14089007D01*
X22678000Y14110993D01*
X22593049Y14316082D01*
X22548816Y14360316D01*
X22594724Y14406224D01*
X23204842Y13796106D01*
X23204842Y13796106D01*
G37*
X23204842Y13796106D02*
X23204842Y13073425D01*
X23233539Y12929153D01*
X23315263Y12806846D01*
X23810846Y12311263D01*
X23810846Y12207365D01*
X23769823Y12306648D01*
X23567713Y12509111D01*
X23303509Y12618818D01*
X23017434Y12619068D01*
X22753039Y12509822D01*
X22678000Y12434914D01*
X22678000Y12510993D01*
X22599710Y12700000D01*
X22678000Y12889007D01*
X22678000Y12910500D01*
X22548816Y13039684D01*
X22593049Y13083918D01*
X22678000Y13289007D01*
X22678000Y13310993D01*
X22599710Y13500000D01*
X22678000Y13689007D01*
X22678000Y13710993D01*
X22599710Y13900000D01*
X22678000Y14089007D01*
X22678000Y14110993D01*
X22593049Y14316082D01*
X22548816Y14360316D01*
X22594724Y14406224D01*
X23204842Y13796106D01*
G36*
X21609000Y13400000D02*
X21201000Y13400000D01*
X21201000Y14000000D01*
X21609000Y14000000D01*
X21609000Y13400000D01*
X21609000Y13400000D01*
G37*
X21609000Y13400000D02*
X21201000Y13400000D01*
X21201000Y14000000D01*
X21609000Y14000000D01*
X21609000Y13400000D01*
G36*
X18053630Y24096329D02*
X18034123Y24000000D01*
X18034123Y23800000D01*
X18053630Y23696329D01*
X18034123Y23600000D01*
X18034123Y23400000D01*
X18053630Y23296329D01*
X18034123Y23200000D01*
X18034123Y23000000D01*
X18053630Y22896329D01*
X18034123Y22800000D01*
X18034123Y22600000D01*
X18045089Y22541722D01*
X18037713Y22549111D01*
X17773509Y22658818D01*
X17487434Y22659068D01*
X17223039Y22549822D01*
X17020576Y22347712D01*
X16910869Y22083508D01*
X16910619Y21797433D01*
X17019865Y21533038D01*
X17221975Y21330575D01*
X17252844Y21317757D01*
X17252844Y21199843D01*
X17281541Y21055571D01*
X17363265Y20933264D01*
X17863108Y20433421D01*
X17985415Y20351697D01*
X18034123Y20342009D01*
X18034123Y20200000D01*
X18053630Y20096329D01*
X18034123Y20000000D01*
X18034123Y19800000D01*
X18053630Y19696329D01*
X18034123Y19600000D01*
X18034123Y19400000D01*
X18053630Y19296329D01*
X18034123Y19200000D01*
X18034123Y19000000D01*
X18053630Y18896329D01*
X18034123Y18800000D01*
X18034123Y18600000D01*
X18053630Y18496329D01*
X18034123Y18400000D01*
X18034123Y18200000D01*
X18053630Y18096329D01*
X18034123Y18000000D01*
X18034123Y17800000D01*
X18053630Y17696329D01*
X18034123Y17600000D01*
X18034123Y17400000D01*
X18053630Y17296329D01*
X18034123Y17200000D01*
X18034123Y17000000D01*
X18053630Y16896329D01*
X18034123Y16800000D01*
X18034123Y16600000D01*
X18053630Y16496329D01*
X18034123Y16400000D01*
X18034123Y16200000D01*
X18043690Y16149155D01*
X17956423Y16236422D01*
X17834116Y16318146D01*
X17689844Y16346843D01*
X15962138Y16346843D01*
X15949823Y16376648D01*
X15747713Y16579111D01*
X15483509Y16688818D01*
X15197434Y16689068D01*
X14933039Y16579822D01*
X14730576Y16377712D01*
X14620869Y16113508D01*
X14620619Y15827433D01*
X14729865Y15563038D01*
X14742880Y15550000D01*
X12716083Y15550000D01*
X12298042Y15968041D01*
X12279029Y15980745D01*
X12152052Y16065589D01*
X11979844Y16099843D01*
X9126703Y16099843D01*
X9053831Y16172843D01*
X13895424Y16172843D01*
X14039696Y16201540D01*
X14162003Y16283264D01*
X15308557Y17429818D01*
X15389865Y17233038D01*
X15591975Y17030575D01*
X15856179Y16920868D01*
X16142254Y16920618D01*
X16406649Y17029864D01*
X16609112Y17231974D01*
X16718819Y17496178D01*
X16719069Y17782253D01*
X16609823Y18046648D01*
X16407713Y18249111D01*
X16282848Y18300959D01*
X16282848Y22424109D01*
X18038021Y24179282D01*
X18053630Y24096329D01*
X18053630Y24096329D01*
G37*
X18053630Y24096329D02*
X18034123Y24000000D01*
X18034123Y23800000D01*
X18053630Y23696329D01*
X18034123Y23600000D01*
X18034123Y23400000D01*
X18053630Y23296329D01*
X18034123Y23200000D01*
X18034123Y23000000D01*
X18053630Y22896329D01*
X18034123Y22800000D01*
X18034123Y22600000D01*
X18045089Y22541722D01*
X18037713Y22549111D01*
X17773509Y22658818D01*
X17487434Y22659068D01*
X17223039Y22549822D01*
X17020576Y22347712D01*
X16910869Y22083508D01*
X16910619Y21797433D01*
X17019865Y21533038D01*
X17221975Y21330575D01*
X17252844Y21317757D01*
X17252844Y21199843D01*
X17281541Y21055571D01*
X17363265Y20933264D01*
X17863108Y20433421D01*
X17985415Y20351697D01*
X18034123Y20342009D01*
X18034123Y20200000D01*
X18053630Y20096329D01*
X18034123Y20000000D01*
X18034123Y19800000D01*
X18053630Y19696329D01*
X18034123Y19600000D01*
X18034123Y19400000D01*
X18053630Y19296329D01*
X18034123Y19200000D01*
X18034123Y19000000D01*
X18053630Y18896329D01*
X18034123Y18800000D01*
X18034123Y18600000D01*
X18053630Y18496329D01*
X18034123Y18400000D01*
X18034123Y18200000D01*
X18053630Y18096329D01*
X18034123Y18000000D01*
X18034123Y17800000D01*
X18053630Y17696329D01*
X18034123Y17600000D01*
X18034123Y17400000D01*
X18053630Y17296329D01*
X18034123Y17200000D01*
X18034123Y17000000D01*
X18053630Y16896329D01*
X18034123Y16800000D01*
X18034123Y16600000D01*
X18053630Y16496329D01*
X18034123Y16400000D01*
X18034123Y16200000D01*
X18043690Y16149155D01*
X17956423Y16236422D01*
X17834116Y16318146D01*
X17689844Y16346843D01*
X15962138Y16346843D01*
X15949823Y16376648D01*
X15747713Y16579111D01*
X15483509Y16688818D01*
X15197434Y16689068D01*
X14933039Y16579822D01*
X14730576Y16377712D01*
X14620869Y16113508D01*
X14620619Y15827433D01*
X14729865Y15563038D01*
X14742880Y15550000D01*
X12716083Y15550000D01*
X12298042Y15968041D01*
X12279029Y15980745D01*
X12152052Y16065589D01*
X11979844Y16099843D01*
X9126703Y16099843D01*
X9053831Y16172843D01*
X13895424Y16172843D01*
X14039696Y16201540D01*
X14162003Y16283264D01*
X15308557Y17429818D01*
X15389865Y17233038D01*
X15591975Y17030575D01*
X15856179Y16920868D01*
X16142254Y16920618D01*
X16406649Y17029864D01*
X16609112Y17231974D01*
X16718819Y17496178D01*
X16719069Y17782253D01*
X16609823Y18046648D01*
X16407713Y18249111D01*
X16282848Y18300959D01*
X16282848Y22424109D01*
X18038021Y24179282D01*
X18053630Y24096329D01*
G36*
X25725000Y21941794D02*
X25707713Y21959111D01*
X25443509Y22068818D01*
X25157434Y22069068D01*
X25126542Y22056303D01*
X23816266Y23366579D01*
X23693959Y23448303D01*
X23549687Y23477000D01*
X22425877Y23477000D01*
X22425877Y23600000D01*
X22406370Y23703671D01*
X22425877Y23800000D01*
X22425877Y24000000D01*
X22406370Y24103671D01*
X22425877Y24200000D01*
X22425877Y24400000D01*
X22406370Y24503671D01*
X22425877Y24600000D01*
X22425877Y24800000D01*
X22406370Y24903671D01*
X22425877Y25000000D01*
X22425877Y25200000D01*
X22404958Y25311173D01*
X22353703Y25390826D01*
X22592254Y25390618D01*
X22856649Y25499864D01*
X23059112Y25701974D01*
X23168819Y25966178D01*
X23169069Y26252253D01*
X23059823Y26516648D01*
X22857713Y26719111D01*
X22593509Y26828818D01*
X22307434Y26829068D01*
X22276542Y26816304D01*
X22096423Y26996422D01*
X21974116Y27078146D01*
X21829844Y27106843D01*
X20086002Y27106843D01*
X19883745Y27309100D01*
X20290333Y27140270D01*
X20906961Y27139732D01*
X21476857Y27375208D01*
X21913260Y27810849D01*
X22149730Y28380333D01*
X22150268Y28996961D01*
X21914792Y29566857D01*
X21479151Y30003260D01*
X20909667Y30239730D01*
X20796683Y30239829D01*
X20959112Y30401974D01*
X21068819Y30666178D01*
X21069069Y30952253D01*
X20959823Y31216648D01*
X20757713Y31419111D01*
X20493509Y31528818D01*
X20207434Y31529068D01*
X19943039Y31419822D01*
X19740576Y31217712D01*
X19630869Y30953508D01*
X19630619Y30667433D01*
X19643384Y30636541D01*
X19078842Y30071999D01*
X19078842Y31205683D01*
X19246395Y31373236D01*
X19276179Y31360868D01*
X19562254Y31360618D01*
X19826649Y31469864D01*
X20029112Y31671974D01*
X20138819Y31936178D01*
X20139069Y32222253D01*
X20093294Y32333039D01*
X22619732Y32333039D01*
X22855208Y31763143D01*
X23290849Y31326740D01*
X23860333Y31090270D01*
X24476961Y31089732D01*
X25046857Y31325208D01*
X25483260Y31760849D01*
X25719730Y32330333D01*
X25720268Y32946961D01*
X25484792Y33516857D01*
X25049151Y33953260D01*
X24479667Y34189730D01*
X23863039Y34190268D01*
X23293143Y33954792D01*
X22856740Y33519151D01*
X22620270Y32949667D01*
X22619732Y32333039D01*
X20093294Y32333039D01*
X20029823Y32486648D01*
X19827713Y32689111D01*
X19563509Y32798818D01*
X19277434Y32799068D01*
X19138414Y32741626D01*
X19339112Y32941974D01*
X19448819Y33206178D01*
X19449069Y33492253D01*
X19339823Y33756648D01*
X19137713Y33959111D01*
X18873509Y34068818D01*
X18587434Y34069068D01*
X18323039Y33959822D01*
X18120576Y33757712D01*
X18010869Y33493508D01*
X18010619Y33207433D01*
X18030976Y33158166D01*
X18001541Y33114115D01*
X17972844Y32969843D01*
X17972844Y28936001D01*
X17264054Y28227211D01*
X17264054Y30262633D01*
X17235357Y30406905D01*
X17153633Y30529212D01*
X16086423Y31596422D01*
X15964116Y31678146D01*
X15819844Y31706843D01*
X15112138Y31706843D01*
X15099823Y31736648D01*
X14897713Y31939111D01*
X14802327Y31978719D01*
X14923930Y32028964D01*
X15144947Y32249596D01*
X15264707Y32538012D01*
X15264980Y32850304D01*
X15145723Y33138929D01*
X14925091Y33359946D01*
X14636675Y33479706D01*
X14324383Y33479979D01*
X14035758Y33360722D01*
X13814741Y33140090D01*
X13694981Y32851674D01*
X13694708Y32539382D01*
X13813965Y32250757D01*
X14034597Y32029740D01*
X14167299Y31974638D01*
X14083039Y31939822D01*
X13880576Y31737712D01*
X13770869Y31473508D01*
X13770619Y31187433D01*
X13879865Y30923038D01*
X14012900Y30789771D01*
X13860576Y30637712D01*
X13750869Y30373508D01*
X13750619Y30087433D01*
X13859865Y29823038D01*
X14061975Y29620575D01*
X14133219Y29590992D01*
X14035758Y29550722D01*
X13814741Y29330090D01*
X13694981Y29041674D01*
X13694708Y28729382D01*
X13758956Y28573889D01*
X13316423Y29016422D01*
X13194116Y29098146D01*
X13049844Y29126843D01*
X11192138Y29126843D01*
X11179823Y29156648D01*
X10977713Y29359111D01*
X10713509Y29468818D01*
X10427434Y29469068D01*
X10269844Y29403953D01*
X10269844Y30760681D01*
X10342254Y30760618D01*
X10606649Y30869864D01*
X10809112Y31071974D01*
X10918819Y31336178D01*
X10919069Y31622253D01*
X10809823Y31886648D01*
X10607713Y32089111D01*
X10343509Y32198818D01*
X10057434Y32199068D01*
X9793039Y32089822D01*
X9590576Y31887712D01*
X9480869Y31623508D01*
X9480662Y31386636D01*
X9404098Y31272051D01*
X9369844Y31099843D01*
X9369844Y28329843D01*
X9404098Y28157635D01*
X9483518Y28038775D01*
X9501646Y28011645D01*
X10021646Y27491645D01*
X10167636Y27394097D01*
X10339844Y27359843D01*
X10739844Y27359843D01*
X10739844Y24206702D01*
X10580576Y24047712D01*
X10470869Y23783508D01*
X10470619Y23497433D01*
X10579865Y23233038D01*
X10781975Y23030575D01*
X11046179Y22920868D01*
X11099844Y22920821D01*
X11099844Y22716702D01*
X10940576Y22557712D01*
X10830869Y22293508D01*
X10830671Y22067066D01*
X10811646Y22048041D01*
X10714098Y21902051D01*
X10679844Y21729843D01*
X10679844Y18009843D01*
X10714098Y17837635D01*
X10770310Y17753508D01*
X10810816Y17692887D01*
X10810619Y17467433D01*
X10906723Y17234845D01*
X6243581Y17234845D01*
X3634634Y19843791D01*
X3634634Y20487153D01*
X3871492Y20585021D01*
X4073955Y20787131D01*
X4183662Y21051335D01*
X4183912Y21337410D01*
X4074666Y21601805D01*
X3872556Y21804268D01*
X3608352Y21913975D01*
X3322277Y21914225D01*
X3057882Y21804979D01*
X2855419Y21602869D01*
X2745712Y21338665D01*
X2745462Y21052590D01*
X2854708Y20788195D01*
X2880634Y20762224D01*
X2880634Y20646115D01*
X2837713Y20689111D01*
X2573509Y20798818D01*
X2287434Y20799068D01*
X2023039Y20689822D01*
X1949844Y20616755D01*
X1949844Y21583447D01*
X2886397Y22520000D01*
X3503141Y22520000D01*
X3662131Y22360732D01*
X3926335Y22251025D01*
X4212410Y22250775D01*
X4476805Y22360021D01*
X4679268Y22562131D01*
X4788975Y22826335D01*
X4789225Y23112410D01*
X4679979Y23376805D01*
X4520000Y23537063D01*
X4520000Y23553603D01*
X5117212Y24150815D01*
X5342254Y24150618D01*
X5606649Y24259864D01*
X5809112Y24461974D01*
X5918819Y24726178D01*
X5919069Y25012253D01*
X5809823Y25276648D01*
X5607713Y25479111D01*
X5343509Y25588818D01*
X5057434Y25589068D01*
X4793039Y25479822D01*
X4632781Y25319843D01*
X2176240Y25319843D01*
X1523042Y25973041D01*
X1487420Y25996843D01*
X1377052Y26070589D01*
X1204844Y26104843D01*
X-773687Y26104843D01*
X-785198Y26166016D01*
X-850901Y26268122D01*
X-951153Y26336621D01*
X-995156Y26345532D01*
X-995156Y27529843D01*
X-1010774Y27608362D01*
X-1029409Y27702050D01*
X-1126958Y27848041D01*
X-1166154Y27887237D01*
X-1166154Y27898076D01*
X-1030631Y27762553D01*
X-859113Y27762553D01*
X-654024Y27847503D01*
X-497057Y28004471D01*
X-412106Y28209560D01*
X-412106Y28381078D01*
X-551606Y28520578D01*
X-1170131Y28520578D01*
X-1170131Y28496603D01*
X-1570181Y28496603D01*
X-1570181Y28520578D01*
X-2188706Y28520578D01*
X-2328206Y28381078D01*
X-2328206Y28209560D01*
X-2311755Y28169843D01*
X-2609992Y28169843D01*
X-2588328Y28201550D01*
X-2564229Y28320553D01*
X-2564229Y29120653D01*
X-2585114Y29231646D01*
X-2328206Y29231646D01*
X-2328206Y29060128D01*
X-2188706Y28920628D01*
X-1570181Y28920628D01*
X-1570181Y29539153D01*
X-1170131Y29539153D01*
X-1170131Y28920628D01*
X-551606Y28920628D01*
X-412106Y29060128D01*
X-412106Y29231646D01*
X-497057Y29436735D01*
X-654024Y29593703D01*
X-859113Y29678653D01*
X-1030631Y29678653D01*
X-1170131Y29539153D01*
X-1570181Y29539153D01*
X-1709681Y29678653D01*
X-1881199Y29678653D01*
X-2086288Y29593703D01*
X-2243255Y29436735D01*
X-2328206Y29231646D01*
X-2585114Y29231646D01*
X-2585148Y29231826D01*
X-2650851Y29333932D01*
X-2751103Y29402431D01*
X-2870106Y29426530D01*
X-3670206Y29426530D01*
X-3781379Y29405611D01*
X-3883485Y29339908D01*
X-3951984Y29239656D01*
X-3976083Y29120653D01*
X-3976083Y28320553D01*
X-3955164Y28209380D01*
X-3889461Y28107274D01*
X-3789209Y28038775D01*
X-3720156Y28024791D01*
X-3720156Y27969843D01*
X-3685902Y27797635D01*
X-3622034Y27702051D01*
X-3588354Y27651645D01*
X-3338354Y27401645D01*
X-3192364Y27304097D01*
X-3020156Y27269843D01*
X-2982055Y27269843D01*
X-3001984Y27240676D01*
X-3026083Y27121673D01*
X-3026083Y27103626D01*
X-3121574Y27039821D01*
X-3338354Y26823041D01*
X-3435902Y26677051D01*
X-3470156Y26504843D01*
X-3470156Y26346608D01*
X-3506329Y26339801D01*
X-3608435Y26274098D01*
X-3676934Y26173846D01*
X-3691779Y26100542D01*
X-3842363Y26070590D01*
X-3988354Y25973041D01*
X-4055000Y25906395D01*
X-4055000Y32333039D01*
X-4050268Y32333039D01*
X-3814792Y31763143D01*
X-3379151Y31326740D01*
X-2809667Y31090270D01*
X-2193039Y31089732D01*
X-1623143Y31325208D01*
X-1186740Y31760849D01*
X-950270Y32330333D01*
X-949732Y32946961D01*
X-1185208Y33516857D01*
X-1620849Y33953260D01*
X-2190333Y34189730D01*
X-2806961Y34190268D01*
X-3376857Y33954792D01*
X-3813260Y33519151D01*
X-4049730Y32949667D01*
X-4050268Y32333039D01*
X-4055000Y32333039D01*
X-4055000Y34560000D01*
X25725000Y34560000D01*
X25725000Y21941794D01*
X25725000Y21941794D01*
G37*
X25725000Y21941794D02*
X25707713Y21959111D01*
X25443509Y22068818D01*
X25157434Y22069068D01*
X25126542Y22056303D01*
X23816266Y23366579D01*
X23693959Y23448303D01*
X23549687Y23477000D01*
X22425877Y23477000D01*
X22425877Y23600000D01*
X22406370Y23703671D01*
X22425877Y23800000D01*
X22425877Y24000000D01*
X22406370Y24103671D01*
X22425877Y24200000D01*
X22425877Y24400000D01*
X22406370Y24503671D01*
X22425877Y24600000D01*
X22425877Y24800000D01*
X22406370Y24903671D01*
X22425877Y25000000D01*
X22425877Y25200000D01*
X22404958Y25311173D01*
X22353703Y25390826D01*
X22592254Y25390618D01*
X22856649Y25499864D01*
X23059112Y25701974D01*
X23168819Y25966178D01*
X23169069Y26252253D01*
X23059823Y26516648D01*
X22857713Y26719111D01*
X22593509Y26828818D01*
X22307434Y26829068D01*
X22276542Y26816304D01*
X22096423Y26996422D01*
X21974116Y27078146D01*
X21829844Y27106843D01*
X20086002Y27106843D01*
X19883745Y27309100D01*
X20290333Y27140270D01*
X20906961Y27139732D01*
X21476857Y27375208D01*
X21913260Y27810849D01*
X22149730Y28380333D01*
X22150268Y28996961D01*
X21914792Y29566857D01*
X21479151Y30003260D01*
X20909667Y30239730D01*
X20796683Y30239829D01*
X20959112Y30401974D01*
X21068819Y30666178D01*
X21069069Y30952253D01*
X20959823Y31216648D01*
X20757713Y31419111D01*
X20493509Y31528818D01*
X20207434Y31529068D01*
X19943039Y31419822D01*
X19740576Y31217712D01*
X19630869Y30953508D01*
X19630619Y30667433D01*
X19643384Y30636541D01*
X19078842Y30071999D01*
X19078842Y31205683D01*
X19246395Y31373236D01*
X19276179Y31360868D01*
X19562254Y31360618D01*
X19826649Y31469864D01*
X20029112Y31671974D01*
X20138819Y31936178D01*
X20139069Y32222253D01*
X20093294Y32333039D01*
X22619732Y32333039D01*
X22855208Y31763143D01*
X23290849Y31326740D01*
X23860333Y31090270D01*
X24476961Y31089732D01*
X25046857Y31325208D01*
X25483260Y31760849D01*
X25719730Y32330333D01*
X25720268Y32946961D01*
X25484792Y33516857D01*
X25049151Y33953260D01*
X24479667Y34189730D01*
X23863039Y34190268D01*
X23293143Y33954792D01*
X22856740Y33519151D01*
X22620270Y32949667D01*
X22619732Y32333039D01*
X20093294Y32333039D01*
X20029823Y32486648D01*
X19827713Y32689111D01*
X19563509Y32798818D01*
X19277434Y32799068D01*
X19138414Y32741626D01*
X19339112Y32941974D01*
X19448819Y33206178D01*
X19449069Y33492253D01*
X19339823Y33756648D01*
X19137713Y33959111D01*
X18873509Y34068818D01*
X18587434Y34069068D01*
X18323039Y33959822D01*
X18120576Y33757712D01*
X18010869Y33493508D01*
X18010619Y33207433D01*
X18030976Y33158166D01*
X18001541Y33114115D01*
X17972844Y32969843D01*
X17972844Y28936001D01*
X17264054Y28227211D01*
X17264054Y30262633D01*
X17235357Y30406905D01*
X17153633Y30529212D01*
X16086423Y31596422D01*
X15964116Y31678146D01*
X15819844Y31706843D01*
X15112138Y31706843D01*
X15099823Y31736648D01*
X14897713Y31939111D01*
X14802327Y31978719D01*
X14923930Y32028964D01*
X15144947Y32249596D01*
X15264707Y32538012D01*
X15264980Y32850304D01*
X15145723Y33138929D01*
X14925091Y33359946D01*
X14636675Y33479706D01*
X14324383Y33479979D01*
X14035758Y33360722D01*
X13814741Y33140090D01*
X13694981Y32851674D01*
X13694708Y32539382D01*
X13813965Y32250757D01*
X14034597Y32029740D01*
X14167299Y31974638D01*
X14083039Y31939822D01*
X13880576Y31737712D01*
X13770869Y31473508D01*
X13770619Y31187433D01*
X13879865Y30923038D01*
X14012900Y30789771D01*
X13860576Y30637712D01*
X13750869Y30373508D01*
X13750619Y30087433D01*
X13859865Y29823038D01*
X14061975Y29620575D01*
X14133219Y29590992D01*
X14035758Y29550722D01*
X13814741Y29330090D01*
X13694981Y29041674D01*
X13694708Y28729382D01*
X13758956Y28573889D01*
X13316423Y29016422D01*
X13194116Y29098146D01*
X13049844Y29126843D01*
X11192138Y29126843D01*
X11179823Y29156648D01*
X10977713Y29359111D01*
X10713509Y29468818D01*
X10427434Y29469068D01*
X10269844Y29403953D01*
X10269844Y30760681D01*
X10342254Y30760618D01*
X10606649Y30869864D01*
X10809112Y31071974D01*
X10918819Y31336178D01*
X10919069Y31622253D01*
X10809823Y31886648D01*
X10607713Y32089111D01*
X10343509Y32198818D01*
X10057434Y32199068D01*
X9793039Y32089822D01*
X9590576Y31887712D01*
X9480869Y31623508D01*
X9480662Y31386636D01*
X9404098Y31272051D01*
X9369844Y31099843D01*
X9369844Y28329843D01*
X9404098Y28157635D01*
X9483518Y28038775D01*
X9501646Y28011645D01*
X10021646Y27491645D01*
X10167636Y27394097D01*
X10339844Y27359843D01*
X10739844Y27359843D01*
X10739844Y24206702D01*
X10580576Y24047712D01*
X10470869Y23783508D01*
X10470619Y23497433D01*
X10579865Y23233038D01*
X10781975Y23030575D01*
X11046179Y22920868D01*
X11099844Y22920821D01*
X11099844Y22716702D01*
X10940576Y22557712D01*
X10830869Y22293508D01*
X10830671Y22067066D01*
X10811646Y22048041D01*
X10714098Y21902051D01*
X10679844Y21729843D01*
X10679844Y18009843D01*
X10714098Y17837635D01*
X10770310Y17753508D01*
X10810816Y17692887D01*
X10810619Y17467433D01*
X10906723Y17234845D01*
X6243581Y17234845D01*
X3634634Y19843791D01*
X3634634Y20487153D01*
X3871492Y20585021D01*
X4073955Y20787131D01*
X4183662Y21051335D01*
X4183912Y21337410D01*
X4074666Y21601805D01*
X3872556Y21804268D01*
X3608352Y21913975D01*
X3322277Y21914225D01*
X3057882Y21804979D01*
X2855419Y21602869D01*
X2745712Y21338665D01*
X2745462Y21052590D01*
X2854708Y20788195D01*
X2880634Y20762224D01*
X2880634Y20646115D01*
X2837713Y20689111D01*
X2573509Y20798818D01*
X2287434Y20799068D01*
X2023039Y20689822D01*
X1949844Y20616755D01*
X1949844Y21583447D01*
X2886397Y22520000D01*
X3503141Y22520000D01*
X3662131Y22360732D01*
X3926335Y22251025D01*
X4212410Y22250775D01*
X4476805Y22360021D01*
X4679268Y22562131D01*
X4788975Y22826335D01*
X4789225Y23112410D01*
X4679979Y23376805D01*
X4520000Y23537063D01*
X4520000Y23553603D01*
X5117212Y24150815D01*
X5342254Y24150618D01*
X5606649Y24259864D01*
X5809112Y24461974D01*
X5918819Y24726178D01*
X5919069Y25012253D01*
X5809823Y25276648D01*
X5607713Y25479111D01*
X5343509Y25588818D01*
X5057434Y25589068D01*
X4793039Y25479822D01*
X4632781Y25319843D01*
X2176240Y25319843D01*
X1523042Y25973041D01*
X1487420Y25996843D01*
X1377052Y26070589D01*
X1204844Y26104843D01*
X-773687Y26104843D01*
X-785198Y26166016D01*
X-850901Y26268122D01*
X-951153Y26336621D01*
X-995156Y26345532D01*
X-995156Y27529843D01*
X-1010774Y27608362D01*
X-1029409Y27702050D01*
X-1126958Y27848041D01*
X-1166154Y27887237D01*
X-1166154Y27898076D01*
X-1030631Y27762553D01*
X-859113Y27762553D01*
X-654024Y27847503D01*
X-497057Y28004471D01*
X-412106Y28209560D01*
X-412106Y28381078D01*
X-551606Y28520578D01*
X-1170131Y28520578D01*
X-1170131Y28496603D01*
X-1570181Y28496603D01*
X-1570181Y28520578D01*
X-2188706Y28520578D01*
X-2328206Y28381078D01*
X-2328206Y28209560D01*
X-2311755Y28169843D01*
X-2609992Y28169843D01*
X-2588328Y28201550D01*
X-2564229Y28320553D01*
X-2564229Y29120653D01*
X-2585114Y29231646D01*
X-2328206Y29231646D01*
X-2328206Y29060128D01*
X-2188706Y28920628D01*
X-1570181Y28920628D01*
X-1570181Y29539153D01*
X-1170131Y29539153D01*
X-1170131Y28920628D01*
X-551606Y28920628D01*
X-412106Y29060128D01*
X-412106Y29231646D01*
X-497057Y29436735D01*
X-654024Y29593703D01*
X-859113Y29678653D01*
X-1030631Y29678653D01*
X-1170131Y29539153D01*
X-1570181Y29539153D01*
X-1709681Y29678653D01*
X-1881199Y29678653D01*
X-2086288Y29593703D01*
X-2243255Y29436735D01*
X-2328206Y29231646D01*
X-2585114Y29231646D01*
X-2585148Y29231826D01*
X-2650851Y29333932D01*
X-2751103Y29402431D01*
X-2870106Y29426530D01*
X-3670206Y29426530D01*
X-3781379Y29405611D01*
X-3883485Y29339908D01*
X-3951984Y29239656D01*
X-3976083Y29120653D01*
X-3976083Y28320553D01*
X-3955164Y28209380D01*
X-3889461Y28107274D01*
X-3789209Y28038775D01*
X-3720156Y28024791D01*
X-3720156Y27969843D01*
X-3685902Y27797635D01*
X-3622034Y27702051D01*
X-3588354Y27651645D01*
X-3338354Y27401645D01*
X-3192364Y27304097D01*
X-3020156Y27269843D01*
X-2982055Y27269843D01*
X-3001984Y27240676D01*
X-3026083Y27121673D01*
X-3026083Y27103626D01*
X-3121574Y27039821D01*
X-3338354Y26823041D01*
X-3435902Y26677051D01*
X-3470156Y26504843D01*
X-3470156Y26346608D01*
X-3506329Y26339801D01*
X-3608435Y26274098D01*
X-3676934Y26173846D01*
X-3691779Y26100542D01*
X-3842363Y26070590D01*
X-3988354Y25973041D01*
X-4055000Y25906395D01*
X-4055000Y32333039D01*
X-4050268Y32333039D01*
X-3814792Y31763143D01*
X-3379151Y31326740D01*
X-2809667Y31090270D01*
X-2193039Y31089732D01*
X-1623143Y31325208D01*
X-1186740Y31760849D01*
X-950270Y32330333D01*
X-949732Y32946961D01*
X-1185208Y33516857D01*
X-1620849Y33953260D01*
X-2190333Y34189730D01*
X-2806961Y34190268D01*
X-3376857Y33954792D01*
X-3813260Y33519151D01*
X-4049730Y32949667D01*
X-4050268Y32333039D01*
X-4055000Y32333039D01*
X-4055000Y34560000D01*
X25725000Y34560000D01*
X25725000Y21941794D01*
G36*
X14143264Y27123264D02*
X14167840Y27106843D01*
X14265572Y27041540D01*
X14409844Y27012843D01*
X14447550Y27012843D01*
X14459865Y26983038D01*
X14661975Y26780575D01*
X14862848Y26697165D01*
X14702526Y26536843D01*
X13908006Y26536843D01*
X13899823Y26556648D01*
X13697713Y26759111D01*
X13433509Y26868818D01*
X13147434Y26869068D01*
X12883039Y26759822D01*
X12680576Y26557712D01*
X12570869Y26293508D01*
X12570619Y26007433D01*
X12679865Y25743038D01*
X12881975Y25540575D01*
X13146179Y25430868D01*
X13400692Y25430646D01*
X13400619Y25347433D01*
X13509865Y25083038D01*
X13711975Y24880575D01*
X13857140Y24820297D01*
X11999844Y22963001D01*
X11999844Y23279843D01*
X11965590Y23452051D01*
X11908855Y23536961D01*
X11909069Y23782253D01*
X11799823Y24046648D01*
X11639844Y24206906D01*
X11639844Y27569843D01*
X11605590Y27742051D01*
X11508042Y27888041D01*
X11268042Y28128041D01*
X11239982Y28146790D01*
X11122052Y28225589D01*
X11072414Y28235462D01*
X11179112Y28341974D01*
X11191930Y28372843D01*
X12893686Y28372843D01*
X14143264Y27123264D01*
X14143264Y27123264D01*
G37*
X14143264Y27123264D02*
X14167840Y27106843D01*
X14265572Y27041540D01*
X14409844Y27012843D01*
X14447550Y27012843D01*
X14459865Y26983038D01*
X14661975Y26780575D01*
X14862848Y26697165D01*
X14702526Y26536843D01*
X13908006Y26536843D01*
X13899823Y26556648D01*
X13697713Y26759111D01*
X13433509Y26868818D01*
X13147434Y26869068D01*
X12883039Y26759822D01*
X12680576Y26557712D01*
X12570869Y26293508D01*
X12570619Y26007433D01*
X12679865Y25743038D01*
X12881975Y25540575D01*
X13146179Y25430868D01*
X13400692Y25430646D01*
X13400619Y25347433D01*
X13509865Y25083038D01*
X13711975Y24880575D01*
X13857140Y24820297D01*
X11999844Y22963001D01*
X11999844Y23279843D01*
X11965590Y23452051D01*
X11908855Y23536961D01*
X11909069Y23782253D01*
X11799823Y24046648D01*
X11639844Y24206906D01*
X11639844Y27569843D01*
X11605590Y27742051D01*
X11508042Y27888041D01*
X11268042Y28128041D01*
X11239982Y28146790D01*
X11122052Y28225589D01*
X11072414Y28235462D01*
X11179112Y28341974D01*
X11191930Y28372843D01*
X12893686Y28372843D01*
X14143264Y27123264D01*
M02*
