M48
;DRILL file {KiCad 4.0.2-stable} date 1/27/2017 1:12:28 PM
;FORMAT={2:4/ absolute / inch / keep zeros}
FMAT,2
INCH,TZ
T1C0.013
T2C0.020
T3C0.022
T4C0.038
T5C0.098
%
G90
G05
M72
T1
X000421Y003303
X000512Y011339
X000512Y006811
X000547Y004213
X001323Y009559
X001504Y005197
X001890Y017244
X001890Y016260
X002000Y000508
X002114Y001602
X002142Y008783
X002287Y006846
X002411Y009872
X002441Y013315
X002567Y012224
X002638Y011791
X002673Y006776
X002681Y011051
X002953Y010047
X002972Y016465
X003045Y012230
X003071Y017244
X003185Y001953
X003284Y012929
X003335Y007154
X003425Y006319
X003465Y000512
X003661Y005260
X003728Y013677
X003854Y005976
X003986Y009675
X004039Y014890
X004177Y001311
X004224Y012270
X004224Y011404
X004276Y007165
X004346Y003055
X004374Y005413
X004984Y000240
X005091Y012270
X005091Y011404
X005181Y001248
X005197Y016339
X005207Y017037
X005646Y002169
X005673Y014472
X005697Y016280
X005843Y015205
X006024Y003071
X006039Y007555
X006087Y013193
X006220Y010819
X006228Y012606
X006433Y009343
X006500Y011756
X006545Y014400
X006748Y006516
X006827Y011496
X006886Y005213
X006913Y014181
X007051Y008488
X007169Y009205
X007205Y001299
X007228Y011539
X007240Y013921
X007295Y011118
X007372Y017274
X007378Y015787
X007386Y016220
X007614Y014669
X007614Y004272
X007697Y007169
X007720Y010173
X007965Y008850
X007980Y010831
X008028Y009902
X008118Y008232
X008220Y013795
X008248Y007417
X008386Y004252
X008386Y002874
X008425Y006197
X008453Y008445
X008455Y005738
X008508Y010976
X008622Y012524
X008689Y014287
X008988Y014547
X009055Y017016
X009150Y014181
X009327Y016516
X009646Y008185
X009693Y016016
X010520Y014165
X010551Y017244
X010701Y008870
X011220Y010303
X011366Y009933
X011465Y009551
X011467Y014990
X011467Y013219
X011638Y011878
X011642Y012291
X011642Y011476
X011677Y011063
X011693Y008602
X011697Y009024
T4
X007382Y016758
X007382Y015258
T5
X000697Y016736
X000697Y000736
X001681Y003886
X009791Y015181
X011197Y016736
X011197Y000736
T2
X000416Y012744G85X000672Y012744
G05
X000416Y009988G85X000672Y009988
G05
X000416Y008216G85X000672Y008216
G05
X000416Y005460G85X000672Y005460
G05
T3
X001607Y012409G85X001607Y012291
G05
X001607Y010441G85X001607Y010323
G05
X001607Y007882G85X001607Y007763
G05
X001607Y005913G85X001607Y005795
G05
T0
M30
