G04 #@! TF.FileFunction,Legend,Bot*
%FSLAX46Y46*%
G04 Gerber Fmt 4.6, Leading zero omitted, Abs format (unit mm)*
G04 Created by KiCad (PCBNEW 4.0.2-stable) date 1/27/2017 1:12:26 PM*
%MOMM*%
G01*
G04 APERTURE LIST*
%ADD10C,0.100000*%
%ADD11C,0.500000*%
%ADD12C,0.150000*%
%ADD13R,1.060000X0.650000*%
%ADD14R,0.800000X0.150000*%
%ADD15R,1.200000X0.550000*%
%ADD16R,1.000000X0.350000*%
%ADD17R,1.200000X1.400000*%
%ADD18R,0.200000X1.050000*%
%ADD19R,0.797560X0.797560*%
%ADD20R,0.600000X0.500000*%
%ADD21R,0.750000X0.800000*%
%ADD22R,0.350000X0.800000*%
%ADD23R,0.800000X0.350000*%
%ADD24R,1.250000X1.250000*%
%ADD25R,0.400000X0.600000*%
%ADD26R,0.500000X0.600000*%
%ADD27R,0.800000X0.750000*%
%ADD28R,0.600000X0.400000*%
%ADD29R,0.650000X1.060000*%
%ADD30C,2.500000*%
%ADD31O,0.280000X0.850000*%
%ADD32R,2.200000X2.200000*%
%ADD33O,0.850000X0.280000*%
%ADD34O,2.790000X0.740000*%
%ADD35C,0.970000*%
%ADD36R,1.000000X3.500000*%
%ADD37R,1.600000X3.400000*%
%ADD38R,0.590000X0.450000*%
%ADD39R,1.350000X0.400000*%
%ADD40O,0.950000X1.250000*%
%ADD41O,1.550000X1.000000*%
%ADD42R,0.900000X1.700000*%
%ADD43R,1.050000X2.200000*%
%ADD44R,1.000000X1.050000*%
%ADD45R,2.000000X1.250000*%
%ADD46R,0.850000X0.350000*%
%ADD47R,1.650000X2.400000*%
%ADD48C,1.500000*%
G04 APERTURE END LIST*
D10*
D11*
X15612857Y7798095D02*
X15612857Y9321905D01*
X19988095Y8777143D02*
X21511905Y8777143D01*
X20750000Y8015238D02*
X20750000Y9539048D01*
D12*
X17970000Y14940000D02*
G75*
G03X17970000Y14940000I-100000J0D01*
G01*
X17320000Y14690000D02*
X17820000Y14690000D01*
X17320000Y11790000D02*
X17320000Y14690000D01*
X17820000Y11790000D02*
X17320000Y11790000D01*
X17820000Y14690000D02*
X17820000Y11790000D01*
X13892132Y36430000D02*
G75*
G03X13892132Y36430000I-212132J0D01*
G01*
X13630000Y34080000D02*
X13630000Y36180000D01*
X10830000Y34080000D02*
X10830000Y36180000D01*
X10830000Y36180000D02*
X13580000Y36180000D01*
X13630000Y34080000D02*
X10830000Y34080000D01*
X5970000Y35690000D02*
X5970000Y35440000D01*
X4970000Y36840000D02*
X4670000Y36840000D01*
X4970000Y37240000D02*
X4970000Y36840000D01*
X7170000Y36840000D02*
X7170000Y37240000D01*
X5970000Y38390000D02*
X6170000Y38390000D01*
X5970000Y35690000D02*
X6170000Y35690000D01*
X27171548Y30120000D02*
G75*
G03X27171548Y30120000I-291548J0D01*
G01*
X26980000Y30570000D02*
X26980000Y33770000D01*
X26980000Y33770000D02*
X22680000Y33770000D01*
X22680000Y33770000D02*
X22580000Y33770000D01*
X22580000Y33770000D02*
X22580000Y30570000D01*
X22580000Y30570000D02*
X26980000Y30570000D01*
X420156Y35720157D02*
X2320156Y35720157D01*
X420156Y34620157D02*
X2320156Y34620157D01*
X1320156Y35170157D02*
X1770156Y35170157D01*
X1270156Y34920157D02*
X1270156Y35420157D01*
X1270156Y35170157D02*
X1520156Y34920157D01*
X1520156Y34920157D02*
X1520156Y35420157D01*
X1520156Y35420157D02*
X1270156Y35170157D01*
X420156Y38760157D02*
X2320156Y38760157D01*
X420156Y37660157D02*
X2320156Y37660157D01*
X1320156Y38210157D02*
X1770156Y38210157D01*
X1270156Y37960157D02*
X1270156Y38460157D01*
X1270156Y38210157D02*
X1520156Y37960157D01*
X1520156Y37960157D02*
X1520156Y38460157D01*
X1520156Y38460157D02*
X1270156Y38210157D01*
X1620156Y7645157D02*
X1620156Y5745157D01*
X520156Y7645157D02*
X520156Y5745157D01*
X1070156Y6745157D02*
X1070156Y6295157D01*
X820156Y6795157D02*
X1320156Y6795157D01*
X1070156Y6795157D02*
X820156Y6545157D01*
X820156Y6545157D02*
X1320156Y6545157D01*
X1320156Y6545157D02*
X1070156Y6795157D01*
X9680000Y22545000D02*
X9180000Y22545000D01*
X9180000Y23495000D02*
X9680000Y23495000D01*
X14030000Y37410000D02*
X14030000Y38110000D01*
X12830000Y38110000D02*
X12830000Y37410000D01*
X16220000Y15940000D02*
X16220000Y16640000D01*
X15020000Y16640000D02*
X15020000Y15940000D01*
X15220000Y23340000D02*
X14445000Y23340000D01*
X10920000Y19040000D02*
X11695000Y19040000D01*
X10920000Y23340000D02*
X11695000Y23340000D01*
X15220000Y19040000D02*
X15220000Y19815000D01*
X10920000Y19040000D02*
X10920000Y19815000D01*
X10920000Y23340000D02*
X10920000Y22565000D01*
X15220000Y23340000D02*
X15220000Y22565000D01*
X9630000Y20105000D02*
X9130000Y20105000D01*
X9130000Y21155000D02*
X9630000Y21155000D01*
X9620000Y21245000D02*
X9120000Y21245000D01*
X9120000Y22295000D02*
X9620000Y22295000D01*
X8275000Y22570000D02*
X8275000Y22070000D01*
X7325000Y22070000D02*
X7325000Y22570000D01*
X7325000Y19820000D02*
X7325000Y20320000D01*
X8275000Y20320000D02*
X8275000Y19820000D01*
X10680000Y43340000D02*
X11380000Y43340000D01*
X11380000Y44540000D02*
X10680000Y44540000D01*
X14100000Y17315000D02*
X13600000Y17315000D01*
X13600000Y18365000D02*
X14100000Y18365000D01*
X16975000Y21580000D02*
X16975000Y21080000D01*
X15925000Y21080000D02*
X15925000Y21580000D01*
X10335000Y15740000D02*
X10335000Y16240000D01*
X11385000Y16240000D02*
X11385000Y15740000D01*
X10335000Y12240000D02*
X10335000Y12740000D01*
X11385000Y12740000D02*
X11385000Y12240000D01*
X12765000Y17480000D02*
X12765000Y16980000D01*
X11715000Y16980000D02*
X11715000Y17480000D01*
X3620000Y34705000D02*
X4120000Y34705000D01*
X4120000Y33655000D02*
X3620000Y33655000D01*
X1700000Y37265000D02*
X2200000Y37265000D01*
X2200000Y36215000D02*
X1700000Y36215000D01*
X17450000Y31085000D02*
X17950000Y31085000D01*
X17950000Y30035000D02*
X17450000Y30035000D01*
X17575000Y34770000D02*
X17575000Y34270000D01*
X16525000Y34270000D02*
X16525000Y34770000D01*
X13945000Y39610000D02*
X13945000Y40110000D01*
X14995000Y40110000D02*
X14995000Y39610000D01*
X14995000Y43010000D02*
X14995000Y42510000D01*
X13945000Y42510000D02*
X13945000Y43010000D01*
X14595000Y13510000D02*
X14595000Y14010000D01*
X15645000Y14010000D02*
X15645000Y13510000D01*
X2055000Y5990000D02*
X2055000Y6490000D01*
X3105000Y6490000D02*
X3105000Y5990000D01*
X14025000Y11220000D02*
X14025000Y11720000D01*
X14975000Y11720000D02*
X14975000Y11220000D01*
X18185000Y19990000D02*
X18185000Y19490000D01*
X17235000Y19490000D02*
X17235000Y19990000D01*
X14010000Y24025000D02*
X13510000Y24025000D01*
X13510000Y24975000D02*
X14010000Y24975000D01*
X9410000Y7850000D02*
X8710000Y7850000D01*
X8710000Y6650000D02*
X9410000Y6650000D01*
X7780000Y11760000D02*
X8480000Y11760000D01*
X8480000Y12960000D02*
X7780000Y12960000D01*
X7405000Y40410000D02*
X7405000Y39910000D01*
X6455000Y39910000D02*
X6455000Y40410000D01*
X25755000Y35220000D02*
X25755000Y34720000D01*
X24805000Y34720000D02*
X24805000Y35220000D01*
X27605000Y28490000D02*
X27605000Y28990000D01*
X28555000Y28990000D02*
X28555000Y28490000D01*
X4245000Y36740000D02*
X4245000Y36240000D01*
X3295000Y36240000D02*
X3295000Y36740000D01*
X16235000Y35330000D02*
X16235000Y34830000D01*
X15285000Y34830000D02*
X15285000Y35330000D01*
X15035000Y35330000D02*
X15035000Y34830000D01*
X14085000Y34830000D02*
X14085000Y35330000D01*
X9020000Y36085000D02*
X9520000Y36085000D01*
X9520000Y35135000D02*
X9020000Y35135000D01*
X6490000Y33315000D02*
X6990000Y33315000D01*
X6990000Y32365000D02*
X6490000Y32365000D01*
X8395156Y28870157D02*
X8395156Y28370157D01*
X7445156Y28370157D02*
X7445156Y28870157D01*
X18150000Y31965000D02*
X17650000Y31965000D01*
X17650000Y32915000D02*
X18150000Y32915000D01*
X19235000Y32760000D02*
X19235000Y33260000D01*
X20185000Y33260000D02*
X20185000Y32760000D01*
X17780000Y11420000D02*
X17080000Y11420000D01*
X17080000Y10220000D02*
X17780000Y10220000D01*
X10430000Y10330000D02*
X10430000Y9630000D01*
X11630000Y9630000D02*
X11630000Y10330000D01*
X14810000Y14040000D02*
G75*
G03X14810000Y14040000I-100000J0D01*
G01*
X14460000Y14690000D02*
X14460000Y14190000D01*
X11560000Y14690000D02*
X14460000Y14690000D01*
X11560000Y14190000D02*
X11560000Y14690000D01*
X14460000Y14190000D02*
X11560000Y14190000D01*
X10680000Y41910000D02*
X11380000Y41910000D01*
X11380000Y43110000D02*
X10680000Y43110000D01*
X9880000Y41710000D02*
X9180000Y41710000D01*
X9180000Y40510000D02*
X9880000Y40510000D01*
X19760000Y29960000D02*
X20460000Y29960000D01*
X20460000Y31160000D02*
X19760000Y31160000D01*
X15220348Y26925157D02*
G75*
G03X15220348Y26925157I-260192J0D01*
G01*
X14830156Y33065157D02*
X14080156Y33065157D01*
X8830156Y27065157D02*
X9580156Y27065157D01*
X8830156Y33065157D02*
X9580156Y33065157D01*
X14080156Y27065157D02*
X14830156Y27815157D01*
X8830156Y27065157D02*
X8830156Y27815157D01*
X8830156Y33065157D02*
X8830156Y32315157D01*
X14830156Y33065157D02*
X14830156Y32315157D01*
X19750000Y17580000D02*
X19050000Y17580000D01*
X19050000Y16380000D02*
X19750000Y16380000D01*
X8290000Y8280000D02*
G75*
G03X8290000Y8280000I-100000J0D01*
G01*
X8740000Y8530000D02*
X8240000Y8530000D01*
X8740000Y11430000D02*
X8740000Y8530000D01*
X8240000Y11430000D02*
X8740000Y11430000D01*
X8240000Y8530000D02*
X8240000Y11430000D01*
X12450000Y1175000D02*
X11950000Y1175000D01*
X11950000Y2225000D02*
X12450000Y2225000D01*
X510000Y23670000D02*
X2410000Y23670000D01*
X510000Y22570000D02*
X2410000Y22570000D01*
X1410000Y23120000D02*
X1860000Y23120000D01*
X1360000Y22870000D02*
X1360000Y23370000D01*
X1360000Y23120000D02*
X1610000Y22870000D01*
X1610000Y22870000D02*
X1610000Y23370000D01*
X1610000Y23370000D02*
X1360000Y23120000D01*
X11355000Y3110000D02*
X11355000Y3610000D01*
X12405000Y3610000D02*
X12405000Y3110000D01*
X3820000Y23645000D02*
X4320000Y23645000D01*
X4320000Y22595000D02*
X3820000Y22595000D01*
X20700000Y7515000D02*
G75*
G03X20700000Y7515000I-250000J0D01*
G01*
X18550000Y765000D02*
X18550000Y1765000D01*
X18550000Y1765000D02*
X17550000Y1765000D01*
X17550000Y1765000D02*
X17550000Y765000D01*
X19950000Y6765000D02*
X21200000Y6765000D01*
X21200000Y6765000D02*
X21200000Y8365000D01*
X21200000Y8365000D02*
X22000000Y8365000D01*
X22000000Y8365000D02*
X22000000Y4265000D01*
X21200000Y6765000D02*
X22000000Y6765000D01*
X16150000Y6765000D02*
X14900000Y6765000D01*
X14900000Y6765000D02*
X14900000Y8365000D01*
X14900000Y8365000D02*
X14100000Y8365000D01*
X14100000Y8365000D02*
X14100000Y4265000D01*
X14900000Y6765000D02*
X14100000Y6765000D01*
X20250000Y765000D02*
X15850000Y765000D01*
X20250000Y5665000D02*
X20250000Y2265000D01*
X20250000Y2265000D02*
X19250000Y2265000D01*
X19250000Y2265000D02*
X19250000Y5665000D01*
X19250000Y5665000D02*
X20250000Y5665000D01*
X15850000Y5665000D02*
X15850000Y2265000D01*
X15850000Y2265000D02*
X16850000Y2265000D01*
X16850000Y2265000D02*
X16850000Y5665000D01*
X16850000Y5665000D02*
X15850000Y5665000D01*
X18150000Y6765000D02*
X17950000Y6765000D01*
X7370000Y14500000D02*
X7620000Y14500000D01*
X6870000Y14500000D02*
X6620000Y14500000D01*
X6870000Y14500000D02*
X7370000Y14150000D01*
X7370000Y14150000D02*
X7370000Y14850000D01*
X7370000Y14850000D02*
X6870000Y14500000D01*
X6870000Y14150000D02*
X6870000Y14850000D01*
X5820000Y15300000D02*
X8220000Y15300000D01*
X5820000Y13700000D02*
X8220000Y13700000D01*
X-1297304Y24519257D02*
X-1297304Y33219257D01*
X5107696Y24519257D02*
X5107696Y33219257D01*
X5107696Y33219257D02*
X-1297304Y33219257D01*
X-67304Y33219257D02*
X-67304Y24519257D01*
X-1297304Y24519257D02*
X5107696Y24519257D01*
X-1297304Y13019257D02*
X-1297304Y21719257D01*
X5107696Y13019257D02*
X5107696Y21719257D01*
X5107696Y21719257D02*
X-1297304Y21719257D01*
X-67304Y21719257D02*
X-67304Y13019257D01*
X-1297304Y13019257D02*
X5107696Y13019257D01*
X9520000Y1690000D02*
G75*
G03X9520000Y1690000I-750000J0D01*
G01*
X10420000Y590000D02*
X10420000Y290000D01*
X10420000Y290000D02*
X7120000Y290000D01*
X7120000Y290000D02*
X7120000Y590000D01*
X10420000Y2790000D02*
X10420000Y3090000D01*
X10420000Y3090000D02*
X7120000Y3090000D01*
X7120000Y3090000D02*
X7120000Y2790000D01*
X7880000Y40350000D02*
X7880000Y36350000D01*
X12680000Y40350000D02*
X7880000Y40350000D01*
X12680000Y36350000D02*
X12680000Y40350000D01*
X7880000Y36350000D02*
X12680000Y36350000D01*
X6370156Y47230000D02*
X6370156Y46030000D01*
X9370156Y49030000D02*
X7870156Y49030000D01*
X13270156Y44405000D02*
X13270156Y54030000D01*
X13270156Y54030000D02*
X5270156Y54030000D01*
X5270156Y54030000D02*
X5270156Y44405000D01*
X5270156Y44405000D02*
X13270156Y44405000D01*
X11510000Y4350000D02*
X12210000Y4350000D01*
X12210000Y5550000D02*
X11510000Y5550000D01*
X19750000Y16230000D02*
X19050000Y16230000D01*
X19050000Y15030000D02*
X19750000Y15030000D01*
X6910000Y6625000D02*
X6410000Y6625000D01*
X6410000Y7675000D02*
X6910000Y7675000D01*
X9590000Y3460000D02*
X9590000Y6460000D01*
X9590000Y6460000D02*
X6590000Y6460000D01*
X6590000Y6460000D02*
X6590000Y3460000D01*
X6590000Y3460000D02*
X9590000Y3460000D01*
X6340000Y3460000D02*
G75*
G03X6340000Y3460000I-250000J0D01*
G01*
X5825000Y5990000D02*
X5825000Y5490000D01*
X4775000Y5490000D02*
X4775000Y5990000D01*
X4615000Y5100000D02*
X4615000Y4600000D01*
X3565000Y4600000D02*
X3565000Y5100000D01*
X20712381Y13511905D02*
X21521905Y13511905D01*
X21617143Y13464286D01*
X21664762Y13416667D01*
X21712381Y13321429D01*
X21712381Y13130952D01*
X21664762Y13035714D01*
X21617143Y12988095D01*
X21521905Y12940476D01*
X20712381Y12940476D01*
X20712381Y12559524D02*
X20712381Y11940476D01*
X21093333Y12273810D01*
X21093333Y12130952D01*
X21140952Y12035714D01*
X21188571Y11988095D01*
X21283810Y11940476D01*
X21521905Y11940476D01*
X21617143Y11988095D01*
X21664762Y12035714D01*
X21712381Y12130952D01*
X21712381Y12416667D01*
X21664762Y12511905D01*
X21617143Y12559524D01*
X9652381Y34871905D02*
X10461905Y34871905D01*
X10557143Y34824286D01*
X10604762Y34776667D01*
X10652381Y34681429D01*
X10652381Y34490952D01*
X10604762Y34395714D01*
X10557143Y34348095D01*
X10461905Y34300476D01*
X9652381Y34300476D01*
X9652381Y33395714D02*
X9652381Y33586191D01*
X9700000Y33681429D01*
X9747619Y33729048D01*
X9890476Y33824286D01*
X10080952Y33871905D01*
X10461905Y33871905D01*
X10557143Y33824286D01*
X10604762Y33776667D01*
X10652381Y33681429D01*
X10652381Y33490952D01*
X10604762Y33395714D01*
X10557143Y33348095D01*
X10461905Y33300476D01*
X10223810Y33300476D01*
X10128571Y33348095D01*
X10080952Y33395714D01*
X10033333Y33490952D01*
X10033333Y33681429D01*
X10080952Y33776667D01*
X10128571Y33824286D01*
X10223810Y33871905D01*
X6209524Y40147619D02*
X5542857Y39147619D01*
X5542857Y40147619D02*
X6209524Y39147619D01*
X4638095Y39147619D02*
X5209524Y39147619D01*
X4923810Y39147619D02*
X4923810Y40147619D01*
X5019048Y40004762D01*
X5114286Y39909524D01*
X5209524Y39861905D01*
X27232381Y32911905D02*
X28041905Y32911905D01*
X28137143Y32864286D01*
X28184762Y32816667D01*
X28232381Y32721429D01*
X28232381Y32530952D01*
X28184762Y32435714D01*
X28137143Y32388095D01*
X28041905Y32340476D01*
X27232381Y32340476D01*
X27232381Y31388095D02*
X27232381Y31864286D01*
X27708571Y31911905D01*
X27660952Y31864286D01*
X27613333Y31769048D01*
X27613333Y31530952D01*
X27660952Y31435714D01*
X27708571Y31388095D01*
X27803810Y31340476D01*
X28041905Y31340476D01*
X28137143Y31388095D01*
X28184762Y31435714D01*
X28232381Y31530952D01*
X28232381Y31769048D01*
X28184762Y31864286D01*
X28137143Y31911905D01*
X2208095Y33427619D02*
X2208095Y34427619D01*
X1970000Y34427619D01*
X1827142Y34380000D01*
X1731904Y34284762D01*
X1684285Y34189524D01*
X1636666Y33999048D01*
X1636666Y33856190D01*
X1684285Y33665714D01*
X1731904Y33570476D01*
X1827142Y33475238D01*
X1970000Y33427619D01*
X2208095Y33427619D01*
X1303333Y34427619D02*
X684285Y34427619D01*
X1017619Y34046667D01*
X874761Y34046667D01*
X779523Y33999048D01*
X731904Y33951429D01*
X684285Y33856190D01*
X684285Y33618095D01*
X731904Y33522857D01*
X779523Y33475238D01*
X874761Y33427619D01*
X1160476Y33427619D01*
X1255714Y33475238D01*
X1303333Y33522857D01*
X1568095Y39117619D02*
X1568095Y40117619D01*
X1330000Y40117619D01*
X1187142Y40070000D01*
X1091904Y39974762D01*
X1044285Y39879524D01*
X996666Y39689048D01*
X996666Y39546190D01*
X1044285Y39355714D01*
X1091904Y39260476D01*
X1187142Y39165238D01*
X1330000Y39117619D01*
X1568095Y39117619D01*
X615714Y40022381D02*
X568095Y40070000D01*
X472857Y40117619D01*
X234761Y40117619D01*
X139523Y40070000D01*
X91904Y40022381D01*
X44285Y39927143D01*
X44285Y39831905D01*
X91904Y39689048D01*
X663333Y39117619D01*
X44285Y39117619D01*
X1542381Y5028095D02*
X542381Y5028095D01*
X542381Y4790000D01*
X590000Y4647142D01*
X685238Y4551904D01*
X780476Y4504285D01*
X970952Y4456666D01*
X1113810Y4456666D01*
X1304286Y4504285D01*
X1399524Y4551904D01*
X1494762Y4647142D01*
X1542381Y4790000D01*
X1542381Y5028095D01*
X1542381Y3504285D02*
X1542381Y4075714D01*
X1542381Y3790000D02*
X542381Y3790000D01*
X685238Y3885238D01*
X780476Y3980476D01*
X828095Y4075714D01*
X8992857Y24942857D02*
X9040476Y24895238D01*
X9183333Y24847619D01*
X9278571Y24847619D01*
X9421429Y24895238D01*
X9516667Y24990476D01*
X9564286Y25085714D01*
X9611905Y25276190D01*
X9611905Y25419048D01*
X9564286Y25609524D01*
X9516667Y25704762D01*
X9421429Y25800000D01*
X9278571Y25847619D01*
X9183333Y25847619D01*
X9040476Y25800000D01*
X8992857Y25752381D01*
X8611905Y25752381D02*
X8564286Y25800000D01*
X8469048Y25847619D01*
X8230952Y25847619D01*
X8135714Y25800000D01*
X8088095Y25752381D01*
X8040476Y25657143D01*
X8040476Y25561905D01*
X8088095Y25419048D01*
X8659524Y24847619D01*
X8040476Y24847619D01*
X7135714Y25847619D02*
X7611905Y25847619D01*
X7659524Y25371429D01*
X7611905Y25419048D01*
X7516667Y25466667D01*
X7278571Y25466667D01*
X7183333Y25419048D01*
X7135714Y25371429D01*
X7088095Y25276190D01*
X7088095Y25038095D01*
X7135714Y24942857D01*
X7183333Y24895238D01*
X7278571Y24847619D01*
X7516667Y24847619D01*
X7611905Y24895238D01*
X7659524Y24942857D01*
X13807143Y41282857D02*
X13854762Y41330476D01*
X13902381Y41473333D01*
X13902381Y41568571D01*
X13854762Y41711429D01*
X13759524Y41806667D01*
X13664286Y41854286D01*
X13473810Y41901905D01*
X13330952Y41901905D01*
X13140476Y41854286D01*
X13045238Y41806667D01*
X12950000Y41711429D01*
X12902381Y41568571D01*
X12902381Y41473333D01*
X12950000Y41330476D01*
X12997619Y41282857D01*
X13902381Y40330476D02*
X13902381Y40901905D01*
X13902381Y40616191D02*
X12902381Y40616191D01*
X13045238Y40711429D01*
X13140476Y40806667D01*
X13188095Y40901905D01*
X12902381Y39997143D02*
X12902381Y39330476D01*
X13902381Y39759048D01*
X17307143Y16972857D02*
X17354762Y17020476D01*
X17402381Y17163333D01*
X17402381Y17258571D01*
X17354762Y17401429D01*
X17259524Y17496667D01*
X17164286Y17544286D01*
X16973810Y17591905D01*
X16830952Y17591905D01*
X16640476Y17544286D01*
X16545238Y17496667D01*
X16450000Y17401429D01*
X16402381Y17258571D01*
X16402381Y17163333D01*
X16450000Y17020476D01*
X16497619Y16972857D01*
X16497619Y16591905D02*
X16450000Y16544286D01*
X16402381Y16449048D01*
X16402381Y16210952D01*
X16450000Y16115714D01*
X16497619Y16068095D01*
X16592857Y16020476D01*
X16688095Y16020476D01*
X16830952Y16068095D01*
X17402381Y16639524D01*
X17402381Y16020476D01*
X16735714Y15163333D02*
X17402381Y15163333D01*
X16354762Y15401429D02*
X17069048Y15639524D01*
X17069048Y15020476D01*
X17468095Y24987619D02*
X17468095Y24178095D01*
X17420476Y24082857D01*
X17372857Y24035238D01*
X17277619Y23987619D01*
X17087142Y23987619D01*
X16991904Y24035238D01*
X16944285Y24082857D01*
X16896666Y24178095D01*
X16896666Y24987619D01*
X15896666Y23987619D02*
X16468095Y23987619D01*
X16182381Y23987619D02*
X16182381Y24987619D01*
X16277619Y24844762D01*
X16372857Y24749524D01*
X16468095Y24701905D01*
X15277619Y24987619D02*
X15182380Y24987619D01*
X15087142Y24940000D01*
X15039523Y24892381D01*
X14991904Y24797143D01*
X14944285Y24606667D01*
X14944285Y24368571D01*
X14991904Y24178095D01*
X15039523Y24082857D01*
X15087142Y24035238D01*
X15182380Y23987619D01*
X15277619Y23987619D01*
X15372857Y24035238D01*
X15420476Y24082857D01*
X15468095Y24178095D01*
X15515714Y24368571D01*
X15515714Y24606667D01*
X15468095Y24797143D01*
X15420476Y24892381D01*
X15372857Y24940000D01*
X15277619Y24987619D01*
X10152857Y18797619D02*
X10486191Y19273810D01*
X10724286Y18797619D02*
X10724286Y19797619D01*
X10343333Y19797619D01*
X10248095Y19750000D01*
X10200476Y19702381D01*
X10152857Y19607143D01*
X10152857Y19464286D01*
X10200476Y19369048D01*
X10248095Y19321429D01*
X10343333Y19273810D01*
X10724286Y19273810D01*
X9200476Y18797619D02*
X9771905Y18797619D01*
X9486191Y18797619D02*
X9486191Y19797619D01*
X9581429Y19654762D01*
X9676667Y19559524D01*
X9771905Y19511905D01*
X8724286Y18797619D02*
X8533810Y18797619D01*
X8438571Y18845238D01*
X8390952Y18892857D01*
X8295714Y19035714D01*
X8248095Y19226190D01*
X8248095Y19607143D01*
X8295714Y19702381D01*
X8343333Y19750000D01*
X8438571Y19797619D01*
X8629048Y19797619D01*
X8724286Y19750000D01*
X8771905Y19702381D01*
X8819524Y19607143D01*
X8819524Y19369048D01*
X8771905Y19273810D01*
X8724286Y19226190D01*
X8629048Y19178571D01*
X8438571Y19178571D01*
X8343333Y19226190D01*
X8295714Y19273810D01*
X8248095Y19369048D01*
X8912857Y23677619D02*
X9246191Y24153810D01*
X9484286Y23677619D02*
X9484286Y24677619D01*
X9103333Y24677619D01*
X9008095Y24630000D01*
X8960476Y24582381D01*
X8912857Y24487143D01*
X8912857Y24344286D01*
X8960476Y24249048D01*
X9008095Y24201429D01*
X9103333Y24153810D01*
X9484286Y24153810D01*
X7960476Y23677619D02*
X8531905Y23677619D01*
X8246191Y23677619D02*
X8246191Y24677619D01*
X8341429Y24534762D01*
X8436667Y24439524D01*
X8531905Y24391905D01*
X7389048Y24249048D02*
X7484286Y24296667D01*
X7531905Y24344286D01*
X7579524Y24439524D01*
X7579524Y24487143D01*
X7531905Y24582381D01*
X7484286Y24630000D01*
X7389048Y24677619D01*
X7198571Y24677619D01*
X7103333Y24630000D01*
X7055714Y24582381D01*
X7008095Y24487143D01*
X7008095Y24439524D01*
X7055714Y24344286D01*
X7103333Y24296667D01*
X7198571Y24249048D01*
X7389048Y24249048D01*
X7484286Y24201429D01*
X7531905Y24153810D01*
X7579524Y24058571D01*
X7579524Y23868095D01*
X7531905Y23772857D01*
X7484286Y23725238D01*
X7389048Y23677619D01*
X7198571Y23677619D01*
X7103333Y23725238D01*
X7055714Y23772857D01*
X7008095Y23868095D01*
X7008095Y24058571D01*
X7055714Y24153810D01*
X7103333Y24201429D01*
X7198571Y24249048D01*
X6887143Y23132857D02*
X6934762Y23180476D01*
X6982381Y23323333D01*
X6982381Y23418571D01*
X6934762Y23561429D01*
X6839524Y23656667D01*
X6744286Y23704286D01*
X6553810Y23751905D01*
X6410952Y23751905D01*
X6220476Y23704286D01*
X6125238Y23656667D01*
X6030000Y23561429D01*
X5982381Y23418571D01*
X5982381Y23323333D01*
X6030000Y23180476D01*
X6077619Y23132857D01*
X6077619Y22751905D02*
X6030000Y22704286D01*
X5982381Y22609048D01*
X5982381Y22370952D01*
X6030000Y22275714D01*
X6077619Y22228095D01*
X6172857Y22180476D01*
X6268095Y22180476D01*
X6410952Y22228095D01*
X6982381Y22799524D01*
X6982381Y22180476D01*
X5982381Y21847143D02*
X5982381Y21228095D01*
X6363333Y21561429D01*
X6363333Y21418571D01*
X6410952Y21323333D01*
X6458571Y21275714D01*
X6553810Y21228095D01*
X6791905Y21228095D01*
X6887143Y21275714D01*
X6934762Y21323333D01*
X6982381Y21418571D01*
X6982381Y21704286D01*
X6934762Y21799524D01*
X6887143Y21847143D01*
X6957143Y20362857D02*
X7004762Y20410476D01*
X7052381Y20553333D01*
X7052381Y20648571D01*
X7004762Y20791429D01*
X6909524Y20886667D01*
X6814286Y20934286D01*
X6623810Y20981905D01*
X6480952Y20981905D01*
X6290476Y20934286D01*
X6195238Y20886667D01*
X6100000Y20791429D01*
X6052381Y20648571D01*
X6052381Y20553333D01*
X6100000Y20410476D01*
X6147619Y20362857D01*
X6147619Y19981905D02*
X6100000Y19934286D01*
X6052381Y19839048D01*
X6052381Y19600952D01*
X6100000Y19505714D01*
X6147619Y19458095D01*
X6242857Y19410476D01*
X6338095Y19410476D01*
X6480952Y19458095D01*
X7052381Y20029524D01*
X7052381Y19410476D01*
X6147619Y19029524D02*
X6100000Y18981905D01*
X6052381Y18886667D01*
X6052381Y18648571D01*
X6100000Y18553333D01*
X6147619Y18505714D01*
X6242857Y18458095D01*
X6338095Y18458095D01*
X6480952Y18505714D01*
X7052381Y19077143D01*
X7052381Y18458095D01*
X8852857Y43582857D02*
X8900476Y43535238D01*
X9043333Y43487619D01*
X9138571Y43487619D01*
X9281429Y43535238D01*
X9376667Y43630476D01*
X9424286Y43725714D01*
X9471905Y43916190D01*
X9471905Y44059048D01*
X9424286Y44249524D01*
X9376667Y44344762D01*
X9281429Y44440000D01*
X9138571Y44487619D01*
X9043333Y44487619D01*
X8900476Y44440000D01*
X8852857Y44392381D01*
X7900476Y43487619D02*
X8471905Y43487619D01*
X8186191Y43487619D02*
X8186191Y44487619D01*
X8281429Y44344762D01*
X8376667Y44249524D01*
X8471905Y44201905D01*
X7329048Y44059048D02*
X7424286Y44106667D01*
X7471905Y44154286D01*
X7519524Y44249524D01*
X7519524Y44297143D01*
X7471905Y44392381D01*
X7424286Y44440000D01*
X7329048Y44487619D01*
X7138571Y44487619D01*
X7043333Y44440000D01*
X6995714Y44392381D01*
X6948095Y44297143D01*
X6948095Y44249524D01*
X6995714Y44154286D01*
X7043333Y44106667D01*
X7138571Y44059048D01*
X7329048Y44059048D01*
X7424286Y44011429D01*
X7471905Y43963810D01*
X7519524Y43868571D01*
X7519524Y43678095D01*
X7471905Y43582857D01*
X7424286Y43535238D01*
X7329048Y43487619D01*
X7138571Y43487619D01*
X7043333Y43535238D01*
X6995714Y43582857D01*
X6948095Y43678095D01*
X6948095Y43868571D01*
X6995714Y43963810D01*
X7043333Y44011429D01*
X7138571Y44059048D01*
X16742857Y17587619D02*
X17076191Y18063810D01*
X17314286Y17587619D02*
X17314286Y18587619D01*
X16933333Y18587619D01*
X16838095Y18540000D01*
X16790476Y18492381D01*
X16742857Y18397143D01*
X16742857Y18254286D01*
X16790476Y18159048D01*
X16838095Y18111429D01*
X16933333Y18063810D01*
X17314286Y18063810D01*
X15790476Y17587619D02*
X16361905Y17587619D01*
X16076191Y17587619D02*
X16076191Y18587619D01*
X16171429Y18444762D01*
X16266667Y18349524D01*
X16361905Y18301905D01*
X15457143Y18587619D02*
X14790476Y18587619D01*
X15219048Y17587619D01*
X18202381Y22932857D02*
X17726190Y23266191D01*
X18202381Y23504286D02*
X17202381Y23504286D01*
X17202381Y23123333D01*
X17250000Y23028095D01*
X17297619Y22980476D01*
X17392857Y22932857D01*
X17535714Y22932857D01*
X17630952Y22980476D01*
X17678571Y23028095D01*
X17726190Y23123333D01*
X17726190Y23504286D01*
X18202381Y21980476D02*
X18202381Y22551905D01*
X18202381Y22266191D02*
X17202381Y22266191D01*
X17345238Y22361429D01*
X17440476Y22456667D01*
X17488095Y22551905D01*
X17202381Y21123333D02*
X17202381Y21313810D01*
X17250000Y21409048D01*
X17297619Y21456667D01*
X17440476Y21551905D01*
X17630952Y21599524D01*
X18011905Y21599524D01*
X18107143Y21551905D01*
X18154762Y21504286D01*
X18202381Y21409048D01*
X18202381Y21218571D01*
X18154762Y21123333D01*
X18107143Y21075714D01*
X18011905Y21028095D01*
X17773810Y21028095D01*
X17678571Y21075714D01*
X17630952Y21123333D01*
X17583333Y21218571D01*
X17583333Y21409048D01*
X17630952Y21504286D01*
X17678571Y21551905D01*
X17773810Y21599524D01*
X9592857Y15827619D02*
X9926191Y16303810D01*
X10164286Y15827619D02*
X10164286Y16827619D01*
X9783333Y16827619D01*
X9688095Y16780000D01*
X9640476Y16732381D01*
X9592857Y16637143D01*
X9592857Y16494286D01*
X9640476Y16399048D01*
X9688095Y16351429D01*
X9783333Y16303810D01*
X10164286Y16303810D01*
X8640476Y15827619D02*
X9211905Y15827619D01*
X8926191Y15827619D02*
X8926191Y16827619D01*
X9021429Y16684762D01*
X9116667Y16589524D01*
X9211905Y16541905D01*
X7735714Y16827619D02*
X8211905Y16827619D01*
X8259524Y16351429D01*
X8211905Y16399048D01*
X8116667Y16446667D01*
X7878571Y16446667D01*
X7783333Y16399048D01*
X7735714Y16351429D01*
X7688095Y16256190D01*
X7688095Y16018095D01*
X7735714Y15922857D01*
X7783333Y15875238D01*
X7878571Y15827619D01*
X8116667Y15827619D01*
X8211905Y15875238D01*
X8259524Y15922857D01*
X10602857Y13577619D02*
X10936191Y14053810D01*
X11174286Y13577619D02*
X11174286Y14577619D01*
X10793333Y14577619D01*
X10698095Y14530000D01*
X10650476Y14482381D01*
X10602857Y14387143D01*
X10602857Y14244286D01*
X10650476Y14149048D01*
X10698095Y14101429D01*
X10793333Y14053810D01*
X11174286Y14053810D01*
X9650476Y13577619D02*
X10221905Y13577619D01*
X9936191Y13577619D02*
X9936191Y14577619D01*
X10031429Y14434762D01*
X10126667Y14339524D01*
X10221905Y14291905D01*
X8793333Y14244286D02*
X8793333Y13577619D01*
X9031429Y14625238D02*
X9269524Y13910952D01*
X8650476Y13910952D01*
X10982857Y17127619D02*
X11316191Y17603810D01*
X11554286Y17127619D02*
X11554286Y18127619D01*
X11173333Y18127619D01*
X11078095Y18080000D01*
X11030476Y18032381D01*
X10982857Y17937143D01*
X10982857Y17794286D01*
X11030476Y17699048D01*
X11078095Y17651429D01*
X11173333Y17603810D01*
X11554286Y17603810D01*
X10030476Y17127619D02*
X10601905Y17127619D01*
X10316191Y17127619D02*
X10316191Y18127619D01*
X10411429Y17984762D01*
X10506667Y17889524D01*
X10601905Y17841905D01*
X9697143Y18127619D02*
X9078095Y18127619D01*
X9411429Y17746667D01*
X9268571Y17746667D01*
X9173333Y17699048D01*
X9125714Y17651429D01*
X9078095Y17556190D01*
X9078095Y17318095D01*
X9125714Y17222857D01*
X9173333Y17175238D01*
X9268571Y17127619D01*
X9554286Y17127619D01*
X9649524Y17175238D01*
X9697143Y17222857D01*
X6702857Y33657619D02*
X7036191Y34133810D01*
X7274286Y33657619D02*
X7274286Y34657619D01*
X6893333Y34657619D01*
X6798095Y34610000D01*
X6750476Y34562381D01*
X6702857Y34467143D01*
X6702857Y34324286D01*
X6750476Y34229048D01*
X6798095Y34181429D01*
X6893333Y34133810D01*
X7274286Y34133810D01*
X5750476Y33657619D02*
X6321905Y33657619D01*
X6036191Y33657619D02*
X6036191Y34657619D01*
X6131429Y34514762D01*
X6226667Y34419524D01*
X6321905Y34371905D01*
X5131429Y34657619D02*
X5036190Y34657619D01*
X4940952Y34610000D01*
X4893333Y34562381D01*
X4845714Y34467143D01*
X4798095Y34276667D01*
X4798095Y34038571D01*
X4845714Y33848095D01*
X4893333Y33752857D01*
X4940952Y33705238D01*
X5036190Y33657619D01*
X5131429Y33657619D01*
X5226667Y33705238D01*
X5274286Y33752857D01*
X5321905Y33848095D01*
X5369524Y34038571D01*
X5369524Y34276667D01*
X5321905Y34467143D01*
X5274286Y34562381D01*
X5226667Y34610000D01*
X5131429Y34657619D01*
X3002381Y39936666D02*
X2526190Y40270000D01*
X3002381Y40508095D02*
X2002381Y40508095D01*
X2002381Y40127142D01*
X2050000Y40031904D01*
X2097619Y39984285D01*
X2192857Y39936666D01*
X2335714Y39936666D01*
X2430952Y39984285D01*
X2478571Y40031904D01*
X2526190Y40127142D01*
X2526190Y40508095D01*
X3002381Y39460476D02*
X3002381Y39270000D01*
X2954762Y39174761D01*
X2907143Y39127142D01*
X2764286Y39031904D01*
X2573810Y38984285D01*
X2192857Y38984285D01*
X2097619Y39031904D01*
X2050000Y39079523D01*
X2002381Y39174761D01*
X2002381Y39365238D01*
X2050000Y39460476D01*
X2097619Y39508095D01*
X2192857Y39555714D01*
X2430952Y39555714D01*
X2526190Y39508095D01*
X2573810Y39460476D01*
X2621429Y39365238D01*
X2621429Y39174761D01*
X2573810Y39079523D01*
X2526190Y39031904D01*
X2430952Y38984285D01*
X16206666Y30287619D02*
X16540000Y30763810D01*
X16778095Y30287619D02*
X16778095Y31287619D01*
X16397142Y31287619D01*
X16301904Y31240000D01*
X16254285Y31192381D01*
X16206666Y31097143D01*
X16206666Y30954286D01*
X16254285Y30859048D01*
X16301904Y30811429D01*
X16397142Y30763810D01*
X16778095Y30763810D01*
X15635238Y30859048D02*
X15730476Y30906667D01*
X15778095Y30954286D01*
X15825714Y31049524D01*
X15825714Y31097143D01*
X15778095Y31192381D01*
X15730476Y31240000D01*
X15635238Y31287619D01*
X15444761Y31287619D01*
X15349523Y31240000D01*
X15301904Y31192381D01*
X15254285Y31097143D01*
X15254285Y31049524D01*
X15301904Y30954286D01*
X15349523Y30906667D01*
X15444761Y30859048D01*
X15635238Y30859048D01*
X15730476Y30811429D01*
X15778095Y30763810D01*
X15825714Y30668571D01*
X15825714Y30478095D01*
X15778095Y30382857D01*
X15730476Y30335238D01*
X15635238Y30287619D01*
X15444761Y30287619D01*
X15349523Y30335238D01*
X15301904Y30382857D01*
X15254285Y30478095D01*
X15254285Y30668571D01*
X15301904Y30763810D01*
X15349523Y30811429D01*
X15444761Y30859048D01*
X18622381Y34556666D02*
X18146190Y34890000D01*
X18622381Y35128095D02*
X17622381Y35128095D01*
X17622381Y34747142D01*
X17670000Y34651904D01*
X17717619Y34604285D01*
X17812857Y34556666D01*
X17955714Y34556666D01*
X18050952Y34604285D01*
X18098571Y34651904D01*
X18146190Y34747142D01*
X18146190Y35128095D01*
X17622381Y33651904D02*
X17622381Y34128095D01*
X18098571Y34175714D01*
X18050952Y34128095D01*
X18003333Y34032857D01*
X18003333Y33794761D01*
X18050952Y33699523D01*
X18098571Y33651904D01*
X18193810Y33604285D01*
X18431905Y33604285D01*
X18527143Y33651904D01*
X18574762Y33699523D01*
X18622381Y33794761D01*
X18622381Y34032857D01*
X18574762Y34128095D01*
X18527143Y34175714D01*
X15042381Y38366666D02*
X14566190Y38700000D01*
X15042381Y38938095D02*
X14042381Y38938095D01*
X14042381Y38557142D01*
X14090000Y38461904D01*
X14137619Y38414285D01*
X14232857Y38366666D01*
X14375714Y38366666D01*
X14470952Y38414285D01*
X14518571Y38461904D01*
X14566190Y38557142D01*
X14566190Y38938095D01*
X14375714Y37509523D02*
X15042381Y37509523D01*
X13994762Y37747619D02*
X14709048Y37985714D01*
X14709048Y37366666D01*
X14636666Y43787619D02*
X14970000Y44263810D01*
X15208095Y43787619D02*
X15208095Y44787619D01*
X14827142Y44787619D01*
X14731904Y44740000D01*
X14684285Y44692381D01*
X14636666Y44597143D01*
X14636666Y44454286D01*
X14684285Y44359048D01*
X14731904Y44311429D01*
X14827142Y44263810D01*
X15208095Y44263810D01*
X14303333Y44787619D02*
X13684285Y44787619D01*
X14017619Y44406667D01*
X13874761Y44406667D01*
X13779523Y44359048D01*
X13731904Y44311429D01*
X13684285Y44216190D01*
X13684285Y43978095D01*
X13731904Y43882857D01*
X13779523Y43835238D01*
X13874761Y43787619D01*
X14160476Y43787619D01*
X14255714Y43835238D01*
X14303333Y43882857D01*
X20412381Y13876666D02*
X19936190Y14210000D01*
X20412381Y14448095D02*
X19412381Y14448095D01*
X19412381Y14067142D01*
X19460000Y13971904D01*
X19507619Y13924285D01*
X19602857Y13876666D01*
X19745714Y13876666D01*
X19840952Y13924285D01*
X19888571Y13971904D01*
X19936190Y14067142D01*
X19936190Y14448095D01*
X19507619Y13495714D02*
X19460000Y13448095D01*
X19412381Y13352857D01*
X19412381Y13114761D01*
X19460000Y13019523D01*
X19507619Y12971904D01*
X19602857Y12924285D01*
X19698095Y12924285D01*
X19840952Y12971904D01*
X20412381Y13543333D01*
X20412381Y12924285D01*
X3032381Y4636666D02*
X2556190Y4970000D01*
X3032381Y5208095D02*
X2032381Y5208095D01*
X2032381Y4827142D01*
X2080000Y4731904D01*
X2127619Y4684285D01*
X2222857Y4636666D01*
X2365714Y4636666D01*
X2460952Y4684285D01*
X2508571Y4731904D01*
X2556190Y4827142D01*
X2556190Y5208095D01*
X3032381Y3684285D02*
X3032381Y4255714D01*
X3032381Y3970000D02*
X2032381Y3970000D01*
X2175238Y4065238D01*
X2270476Y4160476D01*
X2318095Y4255714D01*
X15482857Y9382857D02*
X15530476Y9335238D01*
X15673333Y9287619D01*
X15768571Y9287619D01*
X15911429Y9335238D01*
X16006667Y9430476D01*
X16054286Y9525714D01*
X16101905Y9716190D01*
X16101905Y9859048D01*
X16054286Y10049524D01*
X16006667Y10144762D01*
X15911429Y10240000D01*
X15768571Y10287619D01*
X15673333Y10287619D01*
X15530476Y10240000D01*
X15482857Y10192381D01*
X15101905Y10192381D02*
X15054286Y10240000D01*
X14959048Y10287619D01*
X14720952Y10287619D01*
X14625714Y10240000D01*
X14578095Y10192381D01*
X14530476Y10097143D01*
X14530476Y10001905D01*
X14578095Y9859048D01*
X15149524Y9287619D01*
X14530476Y9287619D01*
X13578095Y9287619D02*
X14149524Y9287619D01*
X13863810Y9287619D02*
X13863810Y10287619D01*
X13959048Y10144762D01*
X14054286Y10049524D01*
X14149524Y10001905D01*
X19307143Y20672857D02*
X19354762Y20720476D01*
X19402381Y20863333D01*
X19402381Y20958571D01*
X19354762Y21101429D01*
X19259524Y21196667D01*
X19164286Y21244286D01*
X18973810Y21291905D01*
X18830952Y21291905D01*
X18640476Y21244286D01*
X18545238Y21196667D01*
X18450000Y21101429D01*
X18402381Y20958571D01*
X18402381Y20863333D01*
X18450000Y20720476D01*
X18497619Y20672857D01*
X18497619Y20291905D02*
X18450000Y20244286D01*
X18402381Y20149048D01*
X18402381Y19910952D01*
X18450000Y19815714D01*
X18497619Y19768095D01*
X18592857Y19720476D01*
X18688095Y19720476D01*
X18830952Y19768095D01*
X19402381Y20339524D01*
X19402381Y19720476D01*
X18402381Y19101429D02*
X18402381Y19006190D01*
X18450000Y18910952D01*
X18497619Y18863333D01*
X18592857Y18815714D01*
X18783333Y18768095D01*
X19021429Y18768095D01*
X19211905Y18815714D01*
X19307143Y18863333D01*
X19354762Y18910952D01*
X19402381Y19006190D01*
X19402381Y19101429D01*
X19354762Y19196667D01*
X19307143Y19244286D01*
X19211905Y19291905D01*
X19021429Y19339524D01*
X18783333Y19339524D01*
X18592857Y19291905D01*
X18497619Y19244286D01*
X18450000Y19196667D01*
X18402381Y19101429D01*
X15502857Y25282857D02*
X15550476Y25235238D01*
X15693333Y25187619D01*
X15788571Y25187619D01*
X15931429Y25235238D01*
X16026667Y25330476D01*
X16074286Y25425714D01*
X16121905Y25616190D01*
X16121905Y25759048D01*
X16074286Y25949524D01*
X16026667Y26044762D01*
X15931429Y26140000D01*
X15788571Y26187619D01*
X15693333Y26187619D01*
X15550476Y26140000D01*
X15502857Y26092381D01*
X14550476Y25187619D02*
X15121905Y25187619D01*
X14836191Y25187619D02*
X14836191Y26187619D01*
X14931429Y26044762D01*
X15026667Y25949524D01*
X15121905Y25901905D01*
X14074286Y25187619D02*
X13883810Y25187619D01*
X13788571Y25235238D01*
X13740952Y25282857D01*
X13645714Y25425714D01*
X13598095Y25616190D01*
X13598095Y25997143D01*
X13645714Y26092381D01*
X13693333Y26140000D01*
X13788571Y26187619D01*
X13979048Y26187619D01*
X14074286Y26140000D01*
X14121905Y26092381D01*
X14169524Y25997143D01*
X14169524Y25759048D01*
X14121905Y25663810D01*
X14074286Y25616190D01*
X13979048Y25568571D01*
X13788571Y25568571D01*
X13693333Y25616190D01*
X13645714Y25663810D01*
X13598095Y25759048D01*
X7042857Y7812857D02*
X7090476Y7765238D01*
X7233333Y7717619D01*
X7328571Y7717619D01*
X7471429Y7765238D01*
X7566667Y7860476D01*
X7614286Y7955714D01*
X7661905Y8146190D01*
X7661905Y8289048D01*
X7614286Y8479524D01*
X7566667Y8574762D01*
X7471429Y8670000D01*
X7328571Y8717619D01*
X7233333Y8717619D01*
X7090476Y8670000D01*
X7042857Y8622381D01*
X6090476Y7717619D02*
X6661905Y7717619D01*
X6376191Y7717619D02*
X6376191Y8717619D01*
X6471429Y8574762D01*
X6566667Y8479524D01*
X6661905Y8431905D01*
X5233333Y8717619D02*
X5423810Y8717619D01*
X5519048Y8670000D01*
X5566667Y8622381D01*
X5661905Y8479524D01*
X5709524Y8289048D01*
X5709524Y7908095D01*
X5661905Y7812857D01*
X5614286Y7765238D01*
X5519048Y7717619D01*
X5328571Y7717619D01*
X5233333Y7765238D01*
X5185714Y7812857D01*
X5138095Y7908095D01*
X5138095Y8146190D01*
X5185714Y8241429D01*
X5233333Y8289048D01*
X5328571Y8336667D01*
X5519048Y8336667D01*
X5614286Y8289048D01*
X5661905Y8241429D01*
X5709524Y8146190D01*
X6162857Y12017857D02*
X6210476Y11970238D01*
X6353333Y11922619D01*
X6448571Y11922619D01*
X6591429Y11970238D01*
X6686667Y12065476D01*
X6734286Y12160714D01*
X6781905Y12351190D01*
X6781905Y12494048D01*
X6734286Y12684524D01*
X6686667Y12779762D01*
X6591429Y12875000D01*
X6448571Y12922619D01*
X6353333Y12922619D01*
X6210476Y12875000D01*
X6162857Y12827381D01*
X5210476Y11922619D02*
X5781905Y11922619D01*
X5496191Y11922619D02*
X5496191Y12922619D01*
X5591429Y12779762D01*
X5686667Y12684524D01*
X5781905Y12636905D01*
X4305714Y12922619D02*
X4781905Y12922619D01*
X4829524Y12446429D01*
X4781905Y12494048D01*
X4686667Y12541667D01*
X4448571Y12541667D01*
X4353333Y12494048D01*
X4305714Y12446429D01*
X4258095Y12351190D01*
X4258095Y12113095D01*
X4305714Y12017857D01*
X4353333Y11970238D01*
X4448571Y11922619D01*
X4686667Y11922619D01*
X4781905Y11970238D01*
X4829524Y12017857D01*
X6622857Y41572857D02*
X6670476Y41525238D01*
X6813333Y41477619D01*
X6908571Y41477619D01*
X7051429Y41525238D01*
X7146667Y41620476D01*
X7194286Y41715714D01*
X7241905Y41906190D01*
X7241905Y42049048D01*
X7194286Y42239524D01*
X7146667Y42334762D01*
X7051429Y42430000D01*
X6908571Y42477619D01*
X6813333Y42477619D01*
X6670476Y42430000D01*
X6622857Y42382381D01*
X5670476Y41477619D02*
X6241905Y41477619D01*
X5956191Y41477619D02*
X5956191Y42477619D01*
X6051429Y42334762D01*
X6146667Y42239524D01*
X6241905Y42191905D01*
X4813333Y42144286D02*
X4813333Y41477619D01*
X5051429Y42525238D02*
X5289524Y41810952D01*
X4670476Y41810952D01*
X27872857Y34262857D02*
X27920476Y34215238D01*
X28063333Y34167619D01*
X28158571Y34167619D01*
X28301429Y34215238D01*
X28396667Y34310476D01*
X28444286Y34405714D01*
X28491905Y34596190D01*
X28491905Y34739048D01*
X28444286Y34929524D01*
X28396667Y35024762D01*
X28301429Y35120000D01*
X28158571Y35167619D01*
X28063333Y35167619D01*
X27920476Y35120000D01*
X27872857Y35072381D01*
X26920476Y34167619D02*
X27491905Y34167619D01*
X27206191Y34167619D02*
X27206191Y35167619D01*
X27301429Y35024762D01*
X27396667Y34929524D01*
X27491905Y34881905D01*
X26539524Y35072381D02*
X26491905Y35120000D01*
X26396667Y35167619D01*
X26158571Y35167619D01*
X26063333Y35120000D01*
X26015714Y35072381D01*
X25968095Y34977143D01*
X25968095Y34881905D01*
X26015714Y34739048D01*
X26587143Y34167619D01*
X25968095Y34167619D01*
X29392857Y26622857D02*
X29440476Y26575238D01*
X29583333Y26527619D01*
X29678571Y26527619D01*
X29821429Y26575238D01*
X29916667Y26670476D01*
X29964286Y26765714D01*
X30011905Y26956190D01*
X30011905Y27099048D01*
X29964286Y27289524D01*
X29916667Y27384762D01*
X29821429Y27480000D01*
X29678571Y27527619D01*
X29583333Y27527619D01*
X29440476Y27480000D01*
X29392857Y27432381D01*
X28440476Y26527619D02*
X29011905Y26527619D01*
X28726191Y26527619D02*
X28726191Y27527619D01*
X28821429Y27384762D01*
X28916667Y27289524D01*
X29011905Y27241905D01*
X27488095Y26527619D02*
X28059524Y26527619D01*
X27773810Y26527619D02*
X27773810Y27527619D01*
X27869048Y27384762D01*
X27964286Y27289524D01*
X28059524Y27241905D01*
X4107143Y39652857D02*
X4154762Y39700476D01*
X4202381Y39843333D01*
X4202381Y39938571D01*
X4154762Y40081429D01*
X4059524Y40176667D01*
X3964286Y40224286D01*
X3773810Y40271905D01*
X3630952Y40271905D01*
X3440476Y40224286D01*
X3345238Y40176667D01*
X3250000Y40081429D01*
X3202381Y39938571D01*
X3202381Y39843333D01*
X3250000Y39700476D01*
X3297619Y39652857D01*
X4202381Y38700476D02*
X4202381Y39271905D01*
X4202381Y38986191D02*
X3202381Y38986191D01*
X3345238Y39081429D01*
X3440476Y39176667D01*
X3488095Y39271905D01*
X3202381Y38081429D02*
X3202381Y37986190D01*
X3250000Y37890952D01*
X3297619Y37843333D01*
X3392857Y37795714D01*
X3583333Y37748095D01*
X3821429Y37748095D01*
X4011905Y37795714D01*
X4107143Y37843333D01*
X4154762Y37890952D01*
X4202381Y37986190D01*
X4202381Y38081429D01*
X4154762Y38176667D01*
X4107143Y38224286D01*
X4011905Y38271905D01*
X3821429Y38319524D01*
X3583333Y38319524D01*
X3392857Y38271905D01*
X3297619Y38224286D01*
X3250000Y38176667D01*
X3202381Y38081429D01*
X16666666Y36362857D02*
X16714285Y36315238D01*
X16857142Y36267619D01*
X16952380Y36267619D01*
X17095238Y36315238D01*
X17190476Y36410476D01*
X17238095Y36505714D01*
X17285714Y36696190D01*
X17285714Y36839048D01*
X17238095Y37029524D01*
X17190476Y37124762D01*
X17095238Y37220000D01*
X16952380Y37267619D01*
X16857142Y37267619D01*
X16714285Y37220000D01*
X16666666Y37172381D01*
X16190476Y36267619D02*
X16000000Y36267619D01*
X15904761Y36315238D01*
X15857142Y36362857D01*
X15761904Y36505714D01*
X15714285Y36696190D01*
X15714285Y37077143D01*
X15761904Y37172381D01*
X15809523Y37220000D01*
X15904761Y37267619D01*
X16095238Y37267619D01*
X16190476Y37220000D01*
X16238095Y37172381D01*
X16285714Y37077143D01*
X16285714Y36839048D01*
X16238095Y36743810D01*
X16190476Y36696190D01*
X16095238Y36648571D01*
X15904761Y36648571D01*
X15809523Y36696190D01*
X15761904Y36743810D01*
X15714285Y36839048D01*
X14896666Y36382857D02*
X14944285Y36335238D01*
X15087142Y36287619D01*
X15182380Y36287619D01*
X15325238Y36335238D01*
X15420476Y36430476D01*
X15468095Y36525714D01*
X15515714Y36716190D01*
X15515714Y36859048D01*
X15468095Y37049524D01*
X15420476Y37144762D01*
X15325238Y37240000D01*
X15182380Y37287619D01*
X15087142Y37287619D01*
X14944285Y37240000D01*
X14896666Y37192381D01*
X14325238Y36859048D02*
X14420476Y36906667D01*
X14468095Y36954286D01*
X14515714Y37049524D01*
X14515714Y37097143D01*
X14468095Y37192381D01*
X14420476Y37240000D01*
X14325238Y37287619D01*
X14134761Y37287619D01*
X14039523Y37240000D01*
X13991904Y37192381D01*
X13944285Y37097143D01*
X13944285Y37049524D01*
X13991904Y36954286D01*
X14039523Y36906667D01*
X14134761Y36859048D01*
X14325238Y36859048D01*
X14420476Y36811429D01*
X14468095Y36763810D01*
X14515714Y36668571D01*
X14515714Y36478095D01*
X14468095Y36382857D01*
X14420476Y36335238D01*
X14325238Y36287619D01*
X14134761Y36287619D01*
X14039523Y36335238D01*
X13991904Y36382857D01*
X13944285Y36478095D01*
X13944285Y36668571D01*
X13991904Y36763810D01*
X14039523Y36811429D01*
X14134761Y36859048D01*
X9016666Y34122857D02*
X9064285Y34075238D01*
X9207142Y34027619D01*
X9302380Y34027619D01*
X9445238Y34075238D01*
X9540476Y34170476D01*
X9588095Y34265714D01*
X9635714Y34456190D01*
X9635714Y34599048D01*
X9588095Y34789524D01*
X9540476Y34884762D01*
X9445238Y34980000D01*
X9302380Y35027619D01*
X9207142Y35027619D01*
X9064285Y34980000D01*
X9016666Y34932381D01*
X8683333Y35027619D02*
X8016666Y35027619D01*
X8445238Y34027619D01*
X6906666Y31242857D02*
X6954285Y31195238D01*
X7097142Y31147619D01*
X7192380Y31147619D01*
X7335238Y31195238D01*
X7430476Y31290476D01*
X7478095Y31385714D01*
X7525714Y31576190D01*
X7525714Y31719048D01*
X7478095Y31909524D01*
X7430476Y32004762D01*
X7335238Y32100000D01*
X7192380Y32147619D01*
X7097142Y32147619D01*
X6954285Y32100000D01*
X6906666Y32052381D01*
X6049523Y32147619D02*
X6240000Y32147619D01*
X6335238Y32100000D01*
X6382857Y32052381D01*
X6478095Y31909524D01*
X6525714Y31719048D01*
X6525714Y31338095D01*
X6478095Y31242857D01*
X6430476Y31195238D01*
X6335238Y31147619D01*
X6144761Y31147619D01*
X6049523Y31195238D01*
X6001904Y31242857D01*
X5954285Y31338095D01*
X5954285Y31576190D01*
X6001904Y31671429D01*
X6049523Y31719048D01*
X6144761Y31766667D01*
X6335238Y31766667D01*
X6430476Y31719048D01*
X6478095Y31671429D01*
X6525714Y31576190D01*
X7167143Y29096666D02*
X7214762Y29144285D01*
X7262381Y29287142D01*
X7262381Y29382380D01*
X7214762Y29525238D01*
X7119524Y29620476D01*
X7024286Y29668095D01*
X6833810Y29715714D01*
X6690952Y29715714D01*
X6500476Y29668095D01*
X6405238Y29620476D01*
X6310000Y29525238D01*
X6262381Y29382380D01*
X6262381Y29287142D01*
X6310000Y29144285D01*
X6357619Y29096666D01*
X6262381Y28191904D02*
X6262381Y28668095D01*
X6738571Y28715714D01*
X6690952Y28668095D01*
X6643333Y28572857D01*
X6643333Y28334761D01*
X6690952Y28239523D01*
X6738571Y28191904D01*
X6833810Y28144285D01*
X7071905Y28144285D01*
X7167143Y28191904D01*
X7214762Y28239523D01*
X7262381Y28334761D01*
X7262381Y28572857D01*
X7214762Y28668095D01*
X7167143Y28715714D01*
X16166666Y32152857D02*
X16214285Y32105238D01*
X16357142Y32057619D01*
X16452380Y32057619D01*
X16595238Y32105238D01*
X16690476Y32200476D01*
X16738095Y32295714D01*
X16785714Y32486190D01*
X16785714Y32629048D01*
X16738095Y32819524D01*
X16690476Y32914762D01*
X16595238Y33010000D01*
X16452380Y33057619D01*
X16357142Y33057619D01*
X16214285Y33010000D01*
X16166666Y32962381D01*
X15309523Y32724286D02*
X15309523Y32057619D01*
X15547619Y33105238D02*
X15785714Y32390952D01*
X15166666Y32390952D01*
X21357143Y33226666D02*
X21404762Y33274285D01*
X21452381Y33417142D01*
X21452381Y33512380D01*
X21404762Y33655238D01*
X21309524Y33750476D01*
X21214286Y33798095D01*
X21023810Y33845714D01*
X20880952Y33845714D01*
X20690476Y33798095D01*
X20595238Y33750476D01*
X20500000Y33655238D01*
X20452381Y33512380D01*
X20452381Y33417142D01*
X20500000Y33274285D01*
X20547619Y33226666D01*
X20452381Y32893333D02*
X20452381Y32274285D01*
X20833333Y32607619D01*
X20833333Y32464761D01*
X20880952Y32369523D01*
X20928571Y32321904D01*
X21023810Y32274285D01*
X21261905Y32274285D01*
X21357143Y32321904D01*
X21404762Y32369523D01*
X21452381Y32464761D01*
X21452381Y32750476D01*
X21404762Y32845714D01*
X21357143Y32893333D01*
X19916666Y10422857D02*
X19964285Y10375238D01*
X20107142Y10327619D01*
X20202380Y10327619D01*
X20345238Y10375238D01*
X20440476Y10470476D01*
X20488095Y10565714D01*
X20535714Y10756190D01*
X20535714Y10899048D01*
X20488095Y11089524D01*
X20440476Y11184762D01*
X20345238Y11280000D01*
X20202380Y11327619D01*
X20107142Y11327619D01*
X19964285Y11280000D01*
X19916666Y11232381D01*
X19535714Y11232381D02*
X19488095Y11280000D01*
X19392857Y11327619D01*
X19154761Y11327619D01*
X19059523Y11280000D01*
X19011904Y11232381D01*
X18964285Y11137143D01*
X18964285Y11041905D01*
X19011904Y10899048D01*
X19583333Y10327619D01*
X18964285Y10327619D01*
X11387143Y7956666D02*
X11434762Y8004285D01*
X11482381Y8147142D01*
X11482381Y8242380D01*
X11434762Y8385238D01*
X11339524Y8480476D01*
X11244286Y8528095D01*
X11053810Y8575714D01*
X10910952Y8575714D01*
X10720476Y8528095D01*
X10625238Y8480476D01*
X10530000Y8385238D01*
X10482381Y8242380D01*
X10482381Y8147142D01*
X10530000Y8004285D01*
X10577619Y7956666D01*
X11482381Y7004285D02*
X11482381Y7575714D01*
X11482381Y7290000D02*
X10482381Y7290000D01*
X10625238Y7385238D01*
X10720476Y7480476D01*
X10768095Y7575714D01*
X14681905Y17267619D02*
X14681905Y16458095D01*
X14634286Y16362857D01*
X14586667Y16315238D01*
X14491429Y16267619D01*
X14300952Y16267619D01*
X14205714Y16315238D01*
X14158095Y16362857D01*
X14110476Y16458095D01*
X14110476Y17267619D01*
X13491429Y16839048D02*
X13586667Y16886667D01*
X13634286Y16934286D01*
X13681905Y17029524D01*
X13681905Y17077143D01*
X13634286Y17172381D01*
X13586667Y17220000D01*
X13491429Y17267619D01*
X13300952Y17267619D01*
X13205714Y17220000D01*
X13158095Y17172381D01*
X13110476Y17077143D01*
X13110476Y17029524D01*
X13158095Y16934286D01*
X13205714Y16886667D01*
X13300952Y16839048D01*
X13491429Y16839048D01*
X13586667Y16791429D01*
X13634286Y16743810D01*
X13681905Y16648571D01*
X13681905Y16458095D01*
X13634286Y16362857D01*
X13586667Y16315238D01*
X13491429Y16267619D01*
X13300952Y16267619D01*
X13205714Y16315238D01*
X13158095Y16362857D01*
X13110476Y16458095D01*
X13110476Y16648571D01*
X13158095Y16743810D01*
X13205714Y16791429D01*
X13300952Y16839048D01*
X8846666Y42057619D02*
X9322857Y42057619D01*
X9322857Y43057619D01*
X8608571Y43057619D02*
X7941904Y43057619D01*
X8370476Y42057619D01*
X11946666Y40597619D02*
X12422857Y40597619D01*
X12422857Y41597619D01*
X11184761Y41597619D02*
X11375238Y41597619D01*
X11470476Y41550000D01*
X11518095Y41502381D01*
X11613333Y41359524D01*
X11660952Y41169048D01*
X11660952Y40788095D01*
X11613333Y40692857D01*
X11565714Y40645238D01*
X11470476Y40597619D01*
X11279999Y40597619D01*
X11184761Y40645238D01*
X11137142Y40692857D01*
X11089523Y40788095D01*
X11089523Y41026190D01*
X11137142Y41121429D01*
X11184761Y41169048D01*
X11279999Y41216667D01*
X11470476Y41216667D01*
X11565714Y41169048D01*
X11613333Y41121429D01*
X11660952Y41026190D01*
X20982857Y28722857D02*
X21030476Y28675238D01*
X21173333Y28627619D01*
X21268571Y28627619D01*
X21411429Y28675238D01*
X21506667Y28770476D01*
X21554286Y28865714D01*
X21601905Y29056190D01*
X21601905Y29199048D01*
X21554286Y29389524D01*
X21506667Y29484762D01*
X21411429Y29580000D01*
X21268571Y29627619D01*
X21173333Y29627619D01*
X21030476Y29580000D01*
X20982857Y29532381D01*
X20030476Y28627619D02*
X20601905Y28627619D01*
X20316191Y28627619D02*
X20316191Y29627619D01*
X20411429Y29484762D01*
X20506667Y29389524D01*
X20601905Y29341905D01*
X19697143Y29627619D02*
X19078095Y29627619D01*
X19411429Y29246667D01*
X19268571Y29246667D01*
X19173333Y29199048D01*
X19125714Y29151429D01*
X19078095Y29056190D01*
X19078095Y28818095D01*
X19125714Y28722857D01*
X19173333Y28675238D01*
X19268571Y28627619D01*
X19554286Y28627619D01*
X19649524Y28675238D01*
X19697143Y28722857D01*
X15110381Y29449905D02*
X15919905Y29449905D01*
X16015143Y29402286D01*
X16062762Y29354667D01*
X16110381Y29259429D01*
X16110381Y29068952D01*
X16062762Y28973714D01*
X16015143Y28926095D01*
X15919905Y28878476D01*
X15110381Y28878476D01*
X15443714Y27973714D02*
X16110381Y27973714D01*
X15062762Y28211810D02*
X15777048Y28449905D01*
X15777048Y27830857D01*
X22767857Y16497857D02*
X22815476Y16450238D01*
X22958333Y16402619D01*
X23053571Y16402619D01*
X23196429Y16450238D01*
X23291667Y16545476D01*
X23339286Y16640714D01*
X23386905Y16831190D01*
X23386905Y16974048D01*
X23339286Y17164524D01*
X23291667Y17259762D01*
X23196429Y17355000D01*
X23053571Y17402619D01*
X22958333Y17402619D01*
X22815476Y17355000D01*
X22767857Y17307381D01*
X22386905Y17307381D02*
X22339286Y17355000D01*
X22244048Y17402619D01*
X22005952Y17402619D01*
X21910714Y17355000D01*
X21863095Y17307381D01*
X21815476Y17212143D01*
X21815476Y17116905D01*
X21863095Y16974048D01*
X22434524Y16402619D01*
X21815476Y16402619D01*
X20958333Y17402619D02*
X21148810Y17402619D01*
X21244048Y17355000D01*
X21291667Y17307381D01*
X21386905Y17164524D01*
X21434524Y16974048D01*
X21434524Y16593095D01*
X21386905Y16497857D01*
X21339286Y16450238D01*
X21244048Y16402619D01*
X21053571Y16402619D01*
X20958333Y16450238D01*
X20910714Y16497857D01*
X20863095Y16593095D01*
X20863095Y16831190D01*
X20910714Y16926429D01*
X20958333Y16974048D01*
X21053571Y17021667D01*
X21244048Y17021667D01*
X21339286Y16974048D01*
X21386905Y16926429D01*
X21434524Y16831190D01*
X5622381Y11711905D02*
X6431905Y11711905D01*
X6527143Y11664286D01*
X6574762Y11616667D01*
X6622381Y11521429D01*
X6622381Y11330952D01*
X6574762Y11235714D01*
X6527143Y11188095D01*
X6431905Y11140476D01*
X5622381Y11140476D01*
X5622381Y10759524D02*
X5622381Y10092857D01*
X6622381Y10521429D01*
X12386666Y97619D02*
X12720000Y573810D01*
X12958095Y97619D02*
X12958095Y1097619D01*
X12577142Y1097619D01*
X12481904Y1050000D01*
X12434285Y1002381D01*
X12386666Y907143D01*
X12386666Y764286D01*
X12434285Y669048D01*
X12481904Y621429D01*
X12577142Y573810D01*
X12958095Y573810D01*
X11529523Y1097619D02*
X11720000Y1097619D01*
X11815238Y1050000D01*
X11862857Y1002381D01*
X11958095Y859524D01*
X12005714Y669048D01*
X12005714Y288095D01*
X11958095Y192857D01*
X11910476Y145238D01*
X11815238Y97619D01*
X11624761Y97619D01*
X11529523Y145238D01*
X11481904Y192857D01*
X11434285Y288095D01*
X11434285Y526190D01*
X11481904Y621429D01*
X11529523Y669048D01*
X11624761Y716667D01*
X11815238Y716667D01*
X11910476Y669048D01*
X11958095Y621429D01*
X12005714Y526190D01*
X3718095Y21677619D02*
X3718095Y22677619D01*
X3480000Y22677619D01*
X3337142Y22630000D01*
X3241904Y22534762D01*
X3194285Y22439524D01*
X3146666Y22249048D01*
X3146666Y22106190D01*
X3194285Y21915714D01*
X3241904Y21820476D01*
X3337142Y21725238D01*
X3480000Y21677619D01*
X3718095Y21677619D01*
X2289523Y22677619D02*
X2480000Y22677619D01*
X2575238Y22630000D01*
X2622857Y22582381D01*
X2718095Y22439524D01*
X2765714Y22249048D01*
X2765714Y21868095D01*
X2718095Y21772857D01*
X2670476Y21725238D01*
X2575238Y21677619D01*
X2384761Y21677619D01*
X2289523Y21725238D01*
X2241904Y21772857D01*
X2194285Y21868095D01*
X2194285Y22106190D01*
X2241904Y22201429D01*
X2289523Y22249048D01*
X2384761Y22296667D01*
X2575238Y22296667D01*
X2670476Y22249048D01*
X2718095Y22201429D01*
X2765714Y22106190D01*
X13662381Y3266666D02*
X13186190Y3600000D01*
X13662381Y3838095D02*
X12662381Y3838095D01*
X12662381Y3457142D01*
X12710000Y3361904D01*
X12757619Y3314285D01*
X12852857Y3266666D01*
X12995714Y3266666D01*
X13090952Y3314285D01*
X13138571Y3361904D01*
X13186190Y3457142D01*
X13186190Y3838095D01*
X12662381Y2933333D02*
X12662381Y2266666D01*
X13662381Y2695238D01*
X5852381Y23602857D02*
X5376190Y23936191D01*
X5852381Y24174286D02*
X4852381Y24174286D01*
X4852381Y23793333D01*
X4900000Y23698095D01*
X4947619Y23650476D01*
X5042857Y23602857D01*
X5185714Y23602857D01*
X5280952Y23650476D01*
X5328571Y23698095D01*
X5376190Y23793333D01*
X5376190Y24174286D01*
X5852381Y22650476D02*
X5852381Y23221905D01*
X5852381Y22936191D02*
X4852381Y22936191D01*
X4995238Y23031429D01*
X5090476Y23126667D01*
X5138095Y23221905D01*
X5852381Y21698095D02*
X5852381Y22269524D01*
X5852381Y21983810D02*
X4852381Y21983810D01*
X4995238Y22079048D01*
X5090476Y22174286D01*
X5138095Y22269524D01*
X23422381Y41378095D02*
X22422381Y41378095D01*
X22422381Y40997142D01*
X22470000Y40901904D01*
X22517619Y40854285D01*
X22612857Y40806666D01*
X22755714Y40806666D01*
X22850952Y40854285D01*
X22898571Y40901904D01*
X22946190Y40997142D01*
X22946190Y41378095D01*
X23422381Y39854285D02*
X23422381Y40425714D01*
X23422381Y40140000D02*
X22422381Y40140000D01*
X22565238Y40235238D01*
X22660476Y40330476D01*
X22708095Y40425714D01*
X22862381Y2293333D02*
X23576667Y2293333D01*
X23719524Y2340953D01*
X23814762Y2436191D01*
X23862381Y2579048D01*
X23862381Y2674286D01*
X23862381Y1817143D02*
X22862381Y1817143D01*
X22862381Y1436190D01*
X22910000Y1340952D01*
X22957619Y1293333D01*
X23052857Y1245714D01*
X23195714Y1245714D01*
X23290952Y1293333D01*
X23338571Y1340952D01*
X23386190Y1436190D01*
X23386190Y1817143D01*
X23862381Y293333D02*
X23862381Y864762D01*
X23862381Y579048D02*
X22862381Y579048D01*
X23005238Y674286D01*
X23100476Y769524D01*
X23148095Y864762D01*
X7158095Y15537619D02*
X7158095Y16537619D01*
X6920000Y16537619D01*
X6777142Y16490000D01*
X6681904Y16394762D01*
X6634285Y16299524D01*
X6586666Y16109048D01*
X6586666Y15966190D01*
X6634285Y15775714D01*
X6681904Y15680476D01*
X6777142Y15585238D01*
X6920000Y15537619D01*
X7158095Y15537619D01*
X5681904Y16537619D02*
X6158095Y16537619D01*
X6205714Y16061429D01*
X6158095Y16109048D01*
X6062857Y16156667D01*
X5824761Y16156667D01*
X5729523Y16109048D01*
X5681904Y16061429D01*
X5634285Y15966190D01*
X5634285Y15728095D01*
X5681904Y15632857D01*
X5729523Y15585238D01*
X5824761Y15537619D01*
X6062857Y15537619D01*
X6158095Y15585238D01*
X6205714Y15632857D01*
X6562381Y27288095D02*
X5562381Y27288095D01*
X5562381Y26907142D01*
X5610000Y26811904D01*
X5657619Y26764285D01*
X5752857Y26716666D01*
X5895714Y26716666D01*
X5990952Y26764285D01*
X6038571Y26811904D01*
X6086190Y26907142D01*
X6086190Y27288095D01*
X5562381Y26383333D02*
X5562381Y25716666D01*
X6562381Y26145238D01*
X1968095Y11727619D02*
X1968095Y12727619D01*
X1587142Y12727619D01*
X1491904Y12680000D01*
X1444285Y12632381D01*
X1396666Y12537143D01*
X1396666Y12394286D01*
X1444285Y12299048D01*
X1491904Y12251429D01*
X1587142Y12203810D01*
X1968095Y12203810D01*
X539523Y12727619D02*
X730000Y12727619D01*
X825238Y12680000D01*
X872857Y12632381D01*
X968095Y12489524D01*
X1015714Y12299048D01*
X1015714Y11918095D01*
X968095Y11822857D01*
X920476Y11775238D01*
X825238Y11727619D01*
X634761Y11727619D01*
X539523Y11775238D01*
X491904Y11822857D01*
X444285Y11918095D01*
X444285Y12156190D01*
X491904Y12251429D01*
X539523Y12299048D01*
X634761Y12346667D01*
X825238Y12346667D01*
X920476Y12299048D01*
X968095Y12251429D01*
X1015714Y12156190D01*
X6413333Y225238D02*
X6270476Y177619D01*
X6032380Y177619D01*
X5937142Y225238D01*
X5889523Y272857D01*
X5841904Y368095D01*
X5841904Y463333D01*
X5889523Y558571D01*
X5937142Y606190D01*
X6032380Y653810D01*
X6222857Y701429D01*
X6318095Y749048D01*
X6365714Y796667D01*
X6413333Y891905D01*
X6413333Y987143D01*
X6365714Y1082381D01*
X6318095Y1130000D01*
X6222857Y1177619D01*
X5984761Y1177619D01*
X5841904Y1130000D01*
X5508571Y1177619D02*
X5270476Y177619D01*
X5079999Y891905D01*
X4889523Y177619D01*
X4651428Y1177619D01*
X3746666Y177619D02*
X4318095Y177619D01*
X4032381Y177619D02*
X4032381Y1177619D01*
X4127619Y1034762D01*
X4222857Y939524D01*
X4318095Y891905D01*
X9494286Y39513333D02*
X9018095Y39513333D01*
X9589524Y39227619D02*
X9256191Y40227619D01*
X8922857Y39227619D01*
X8637143Y40132381D02*
X8589524Y40180000D01*
X8494286Y40227619D01*
X8256190Y40227619D01*
X8160952Y40180000D01*
X8113333Y40132381D01*
X8065714Y40037143D01*
X8065714Y39941905D01*
X8113333Y39799048D01*
X8684762Y39227619D01*
X8065714Y39227619D01*
X10236823Y46744286D02*
X10236823Y46268095D01*
X10522537Y46839524D02*
X9522537Y46506191D01*
X10522537Y46172857D01*
X10522537Y45315714D02*
X10522537Y45887143D01*
X10522537Y45601429D02*
X9522537Y45601429D01*
X9665394Y45696667D01*
X9760632Y45791905D01*
X9808251Y45887143D01*
X8013013Y45077619D02*
X7822537Y45077619D01*
X7727298Y45125238D01*
X7679679Y45172857D01*
X7584441Y45315714D01*
X7536822Y45506190D01*
X7536822Y45887143D01*
X7584441Y45982381D01*
X7632060Y46030000D01*
X7727298Y46077619D01*
X7917775Y46077619D01*
X8013013Y46030000D01*
X8060632Y45982381D01*
X8108251Y45887143D01*
X8108251Y45649048D01*
X8060632Y45553810D01*
X8013013Y45506190D01*
X7917775Y45458571D01*
X7727298Y45458571D01*
X7632060Y45506190D01*
X7584441Y45553810D01*
X7536822Y45649048D01*
X6584441Y45077619D02*
X7155870Y45077619D01*
X6870156Y45077619D02*
X6870156Y46077619D01*
X6965394Y45934762D01*
X7060632Y45839524D01*
X7155870Y45791905D01*
X5679679Y46077619D02*
X6155870Y46077619D01*
X6203489Y45601429D01*
X6155870Y45649048D01*
X6060632Y45696667D01*
X5822536Y45696667D01*
X5727298Y45649048D01*
X5679679Y45601429D01*
X5632060Y45506190D01*
X5632060Y45268095D01*
X5679679Y45172857D01*
X5727298Y45125238D01*
X5822536Y45077619D01*
X6060632Y45077619D01*
X6155870Y45125238D01*
X6203489Y45172857D01*
X7351108Y51477619D02*
X7303489Y51572857D01*
X7255870Y51620476D01*
X7160632Y51668095D01*
X7113013Y51668095D01*
X7017775Y51620476D01*
X6970156Y51572857D01*
X6922537Y51477619D01*
X6922537Y51287142D01*
X6970156Y51191904D01*
X7017775Y51144285D01*
X7113013Y51096666D01*
X7160632Y51096666D01*
X7255870Y51144285D01*
X7303489Y51191904D01*
X7351108Y51287142D01*
X7351108Y51477619D01*
X7398727Y51572857D01*
X7446346Y51620476D01*
X7541585Y51668095D01*
X7732061Y51668095D01*
X7827299Y51620476D01*
X7874918Y51572857D01*
X7922537Y51477619D01*
X7922537Y51287142D01*
X7874918Y51191904D01*
X7827299Y51144285D01*
X7732061Y51096666D01*
X7541585Y51096666D01*
X7446346Y51144285D01*
X7398727Y51191904D01*
X7351108Y51287142D01*
X6922537Y50239523D02*
X6922537Y50430000D01*
X6970156Y50525238D01*
X7017775Y50572857D01*
X7160632Y50668095D01*
X7351108Y50715714D01*
X7732061Y50715714D01*
X7827299Y50668095D01*
X7874918Y50620476D01*
X7922537Y50525238D01*
X7922537Y50334761D01*
X7874918Y50239523D01*
X7827299Y50191904D01*
X7732061Y50144285D01*
X7493966Y50144285D01*
X7398727Y50191904D01*
X7351108Y50239523D01*
X7303489Y50334761D01*
X7303489Y50525238D01*
X7351108Y50620476D01*
X7398727Y50668095D01*
X7493966Y50715714D01*
X7351108Y49572857D02*
X7303489Y49668095D01*
X7255870Y49715714D01*
X7160632Y49763333D01*
X7113013Y49763333D01*
X7017775Y49715714D01*
X6970156Y49668095D01*
X6922537Y49572857D01*
X6922537Y49382380D01*
X6970156Y49287142D01*
X7017775Y49239523D01*
X7113013Y49191904D01*
X7160632Y49191904D01*
X7255870Y49239523D01*
X7303489Y49287142D01*
X7351108Y49382380D01*
X7351108Y49572857D01*
X7398727Y49668095D01*
X7446346Y49715714D01*
X7541585Y49763333D01*
X7732061Y49763333D01*
X7827299Y49715714D01*
X7874918Y49668095D01*
X7922537Y49572857D01*
X7922537Y49382380D01*
X7874918Y49287142D01*
X7827299Y49239523D01*
X7732061Y49191904D01*
X7541585Y49191904D01*
X7446346Y49239523D01*
X7398727Y49287142D01*
X7351108Y49382380D01*
X13247143Y7532857D02*
X13294762Y7580476D01*
X13342381Y7723333D01*
X13342381Y7818571D01*
X13294762Y7961429D01*
X13199524Y8056667D01*
X13104286Y8104286D01*
X12913810Y8151905D01*
X12770952Y8151905D01*
X12580476Y8104286D01*
X12485238Y8056667D01*
X12390000Y7961429D01*
X12342381Y7818571D01*
X12342381Y7723333D01*
X12390000Y7580476D01*
X12437619Y7532857D01*
X12437619Y7151905D02*
X12390000Y7104286D01*
X12342381Y7009048D01*
X12342381Y6770952D01*
X12390000Y6675714D01*
X12437619Y6628095D01*
X12532857Y6580476D01*
X12628095Y6580476D01*
X12770952Y6628095D01*
X13342381Y7199524D01*
X13342381Y6580476D01*
X13342381Y6104286D02*
X13342381Y5913810D01*
X13294762Y5818571D01*
X13247143Y5770952D01*
X13104286Y5675714D01*
X12913810Y5628095D01*
X12532857Y5628095D01*
X12437619Y5675714D01*
X12390000Y5723333D01*
X12342381Y5818571D01*
X12342381Y6009048D01*
X12390000Y6104286D01*
X12437619Y6151905D01*
X12532857Y6199524D01*
X12770952Y6199524D01*
X12866190Y6151905D01*
X12913810Y6104286D01*
X12961429Y6009048D01*
X12961429Y5818571D01*
X12913810Y5723333D01*
X12866190Y5675714D01*
X12770952Y5628095D01*
X22752857Y15132857D02*
X22800476Y15085238D01*
X22943333Y15037619D01*
X23038571Y15037619D01*
X23181429Y15085238D01*
X23276667Y15180476D01*
X23324286Y15275714D01*
X23371905Y15466190D01*
X23371905Y15609048D01*
X23324286Y15799524D01*
X23276667Y15894762D01*
X23181429Y15990000D01*
X23038571Y16037619D01*
X22943333Y16037619D01*
X22800476Y15990000D01*
X22752857Y15942381D01*
X22419524Y16037619D02*
X21800476Y16037619D01*
X22133810Y15656667D01*
X21990952Y15656667D01*
X21895714Y15609048D01*
X21848095Y15561429D01*
X21800476Y15466190D01*
X21800476Y15228095D01*
X21848095Y15132857D01*
X21895714Y15085238D01*
X21990952Y15037619D01*
X22276667Y15037619D01*
X22371905Y15085238D01*
X22419524Y15132857D01*
X21181429Y16037619D02*
X21086190Y16037619D01*
X20990952Y15990000D01*
X20943333Y15942381D01*
X20895714Y15847143D01*
X20848095Y15656667D01*
X20848095Y15418571D01*
X20895714Y15228095D01*
X20943333Y15132857D01*
X20990952Y15085238D01*
X21086190Y15037619D01*
X21181429Y15037619D01*
X21276667Y15085238D01*
X21324286Y15132857D01*
X21371905Y15228095D01*
X21419524Y15418571D01*
X21419524Y15656667D01*
X21371905Y15847143D01*
X21324286Y15942381D01*
X21276667Y15990000D01*
X21181429Y16037619D01*
X5172857Y6597619D02*
X5506191Y7073810D01*
X5744286Y6597619D02*
X5744286Y7597619D01*
X5363333Y7597619D01*
X5268095Y7550000D01*
X5220476Y7502381D01*
X5172857Y7407143D01*
X5172857Y7264286D01*
X5220476Y7169048D01*
X5268095Y7121429D01*
X5363333Y7073810D01*
X5744286Y7073810D01*
X4220476Y6597619D02*
X4791905Y6597619D01*
X4506191Y6597619D02*
X4506191Y7597619D01*
X4601429Y7454762D01*
X4696667Y7359524D01*
X4791905Y7311905D01*
X3839524Y7502381D02*
X3791905Y7550000D01*
X3696667Y7597619D01*
X3458571Y7597619D01*
X3363333Y7550000D01*
X3315714Y7502381D01*
X3268095Y7407143D01*
X3268095Y7311905D01*
X3315714Y7169048D01*
X3887143Y6597619D01*
X3268095Y6597619D01*
X11761905Y6667619D02*
X11761905Y5858095D01*
X11714286Y5762857D01*
X11666667Y5715238D01*
X11571429Y5667619D01*
X11380952Y5667619D01*
X11285714Y5715238D01*
X11238095Y5762857D01*
X11190476Y5858095D01*
X11190476Y6667619D01*
X10666667Y5667619D02*
X10476191Y5667619D01*
X10380952Y5715238D01*
X10333333Y5762857D01*
X10238095Y5905714D01*
X10190476Y6096190D01*
X10190476Y6477143D01*
X10238095Y6572381D01*
X10285714Y6620000D01*
X10380952Y6667619D01*
X10571429Y6667619D01*
X10666667Y6620000D01*
X10714286Y6572381D01*
X10761905Y6477143D01*
X10761905Y6239048D01*
X10714286Y6143810D01*
X10666667Y6096190D01*
X10571429Y6048571D01*
X10380952Y6048571D01*
X10285714Y6096190D01*
X10238095Y6143810D01*
X10190476Y6239048D01*
X5772381Y4162857D02*
X5296190Y4496191D01*
X5772381Y4734286D02*
X4772381Y4734286D01*
X4772381Y4353333D01*
X4820000Y4258095D01*
X4867619Y4210476D01*
X4962857Y4162857D01*
X5105714Y4162857D01*
X5200952Y4210476D01*
X5248571Y4258095D01*
X5296190Y4353333D01*
X5296190Y4734286D01*
X4867619Y3781905D02*
X4820000Y3734286D01*
X4772381Y3639048D01*
X4772381Y3400952D01*
X4820000Y3305714D01*
X4867619Y3258095D01*
X4962857Y3210476D01*
X5058095Y3210476D01*
X5200952Y3258095D01*
X5772381Y3829524D01*
X5772381Y3210476D01*
X4772381Y2591429D02*
X4772381Y2496190D01*
X4820000Y2400952D01*
X4867619Y2353333D01*
X4962857Y2305714D01*
X5153333Y2258095D01*
X5391429Y2258095D01*
X5581905Y2305714D01*
X5677143Y2353333D01*
X5724762Y2400952D01*
X5772381Y2496190D01*
X5772381Y2591429D01*
X5724762Y2686667D01*
X5677143Y2734286D01*
X5581905Y2781905D01*
X5391429Y2829524D01*
X5153333Y2829524D01*
X4962857Y2781905D01*
X4867619Y2734286D01*
X4820000Y2686667D01*
X4772381Y2591429D01*
X4552381Y3282857D02*
X4076190Y3616191D01*
X4552381Y3854286D02*
X3552381Y3854286D01*
X3552381Y3473333D01*
X3600000Y3378095D01*
X3647619Y3330476D01*
X3742857Y3282857D01*
X3885714Y3282857D01*
X3980952Y3330476D01*
X4028571Y3378095D01*
X4076190Y3473333D01*
X4076190Y3854286D01*
X3647619Y2901905D02*
X3600000Y2854286D01*
X3552381Y2759048D01*
X3552381Y2520952D01*
X3600000Y2425714D01*
X3647619Y2378095D01*
X3742857Y2330476D01*
X3838095Y2330476D01*
X3980952Y2378095D01*
X4552381Y2949524D01*
X4552381Y2330476D01*
X4552381Y1378095D02*
X4552381Y1949524D01*
X4552381Y1663810D02*
X3552381Y1663810D01*
X3695238Y1759048D01*
X3790476Y1854286D01*
X3838095Y1949524D01*
X12890476Y9797619D02*
X13366667Y9797619D01*
X13414286Y9321429D01*
X13366667Y9369048D01*
X13271429Y9416667D01*
X13033333Y9416667D01*
X12938095Y9369048D01*
X12890476Y9321429D01*
X12842857Y9226190D01*
X12842857Y8988095D01*
X12890476Y8892857D01*
X12938095Y8845238D01*
X13033333Y8797619D01*
X13271429Y8797619D01*
X13366667Y8845238D01*
X13414286Y8892857D01*
X12557143Y9797619D02*
X12223810Y8797619D01*
X11890476Y9797619D01*
%LPC*%
D13*
X18670000Y14190000D03*
X18670000Y13240000D03*
X18670000Y12290000D03*
X16470000Y12290000D03*
X16470000Y14190000D03*
D14*
X13130000Y35780000D03*
X13130000Y35130000D03*
X13130000Y34480000D03*
X11330000Y34480000D03*
D15*
X11330000Y35130000D03*
D16*
X11330000Y35780000D03*
D17*
X5220000Y35940000D03*
X5220000Y38140000D03*
X6920000Y38140000D03*
X6920000Y35940000D03*
D18*
X26580000Y31220000D03*
X26180000Y31220000D03*
X25780000Y31220000D03*
X25380000Y31220000D03*
X24980000Y31220000D03*
X24580000Y31220000D03*
X24180000Y31220000D03*
X23780000Y31220000D03*
X23380000Y31220000D03*
X22980000Y31220000D03*
X22980000Y33120000D03*
X23380000Y33120000D03*
X23780000Y33120000D03*
X24180000Y33120000D03*
X24580000Y33120000D03*
X24980000Y33120000D03*
X25380000Y33120000D03*
X25780000Y33120000D03*
X26180000Y33120000D03*
X26580000Y33120000D03*
D19*
X2269456Y35170157D03*
X770856Y35170157D03*
X2269456Y38210157D03*
X770856Y38210157D03*
X1070156Y5795857D03*
X1070156Y7294457D03*
D20*
X8880000Y23020000D03*
X9980000Y23020000D03*
D21*
X13430000Y37010000D03*
X13430000Y38510000D03*
X15620000Y15540000D03*
X15620000Y17040000D03*
D22*
X14045000Y19190000D03*
X13395000Y19190000D03*
X12745000Y19190000D03*
X12095000Y19190000D03*
D23*
X11070000Y20215000D03*
X11070000Y20865000D03*
X11070000Y21515000D03*
X11070000Y22165000D03*
D22*
X12095000Y23190000D03*
X12745000Y23190000D03*
X13395000Y23190000D03*
X14045000Y23190000D03*
D23*
X15070000Y22165000D03*
X15070000Y21515000D03*
X15070000Y20865000D03*
X15070000Y20215000D03*
D24*
X12445000Y21815000D03*
X13695000Y21815000D03*
X12445000Y20565000D03*
X13695000Y20565000D03*
D25*
X8930000Y20630000D03*
X9830000Y20630000D03*
X8920000Y21770000D03*
X9820000Y21770000D03*
D26*
X7800000Y21770000D03*
X7800000Y22870000D03*
X7800000Y20620000D03*
X7800000Y19520000D03*
D27*
X10280000Y43940000D03*
X11780000Y43940000D03*
D25*
X13400000Y17840000D03*
X14300000Y17840000D03*
D28*
X16450000Y20880000D03*
X16450000Y21780000D03*
X10860000Y16440000D03*
X10860000Y15540000D03*
X10860000Y12940000D03*
X10860000Y12040000D03*
X12240000Y16780000D03*
X12240000Y17680000D03*
D25*
X4320000Y34180000D03*
X3420000Y34180000D03*
X2400000Y36740000D03*
X1500000Y36740000D03*
X18150000Y30560000D03*
X17250000Y30560000D03*
D28*
X17050000Y34070000D03*
X17050000Y34970000D03*
X14470000Y40310000D03*
X14470000Y39410000D03*
X14470000Y42310000D03*
X14470000Y43210000D03*
X15120000Y14210000D03*
X15120000Y13310000D03*
X2580000Y6690000D03*
X2580000Y5790000D03*
D26*
X14500000Y12020000D03*
X14500000Y10920000D03*
X17710000Y19190000D03*
X17710000Y20290000D03*
D20*
X13210000Y24500000D03*
X14310000Y24500000D03*
D27*
X9810000Y7250000D03*
X8310000Y7250000D03*
X7380000Y12360000D03*
X8880000Y12360000D03*
D26*
X6930000Y39610000D03*
X6930000Y40710000D03*
X25280000Y34420000D03*
X25280000Y35520000D03*
X28080000Y29290000D03*
X28080000Y28190000D03*
X3770000Y35940000D03*
X3770000Y37040000D03*
X15760000Y34530000D03*
X15760000Y35630000D03*
X14560000Y34530000D03*
X14560000Y35630000D03*
D20*
X9820000Y35610000D03*
X8720000Y35610000D03*
X7290000Y32840000D03*
X6190000Y32840000D03*
D26*
X7920156Y28070157D03*
X7920156Y29170157D03*
D20*
X17350000Y32440000D03*
X18450000Y32440000D03*
D26*
X19710000Y33560000D03*
X19710000Y32460000D03*
D27*
X18180000Y10820000D03*
X16680000Y10820000D03*
D21*
X11030000Y10730000D03*
X11030000Y9230000D03*
D29*
X13960000Y13340000D03*
X13010000Y13340000D03*
X12060000Y13340000D03*
X12060000Y15540000D03*
X13960000Y15540000D03*
X13010000Y15540000D03*
D30*
X4270156Y9870157D03*
D27*
X10280000Y42510000D03*
X11780000Y42510000D03*
X10280000Y41110000D03*
X8780000Y41110000D03*
X19360000Y30560000D03*
X20860000Y30560000D03*
D30*
X28440156Y1870157D03*
X1770156Y1870157D03*
X28440156Y42510157D03*
X1770156Y42510157D03*
X24870156Y38560157D03*
D31*
X13830156Y27290157D03*
D32*
X10730156Y31165157D03*
X12930156Y31165157D03*
X10730156Y28965157D03*
X12930156Y28965157D03*
D31*
X13330156Y27290157D03*
X12830156Y27290157D03*
X12330156Y27290157D03*
X11830156Y27290157D03*
X11330156Y27290157D03*
X10830156Y27290157D03*
X10330156Y27290157D03*
X9830156Y27290157D03*
D33*
X9055156Y28065157D03*
X9055156Y28565157D03*
X9055156Y29065157D03*
X9055156Y29565157D03*
X9055156Y30065157D03*
X9055156Y30565157D03*
X9055156Y31065157D03*
X9055156Y31565157D03*
X9055156Y32065157D03*
D31*
X9830156Y32840157D03*
X10330156Y32840157D03*
X10830156Y32840157D03*
X11330156Y32840157D03*
X11830156Y32840157D03*
X12330156Y32840157D03*
X12830156Y32840157D03*
X13330156Y32840157D03*
X13830156Y32840157D03*
D33*
X14605156Y32065157D03*
X14605156Y31565157D03*
X14605156Y31065157D03*
X14605156Y30565157D03*
X14605156Y30065157D03*
X14605156Y29565157D03*
X14605156Y29065157D03*
X14605156Y28565157D03*
X14605156Y28065157D03*
D27*
X20150000Y16980000D03*
X18650000Y16980000D03*
D13*
X7390000Y9030000D03*
X7390000Y9980000D03*
X7390000Y10930000D03*
X9590000Y10930000D03*
X9590000Y9030000D03*
D25*
X11750000Y1700000D03*
X12650000Y1700000D03*
D19*
X2359300Y23120000D03*
X860700Y23120000D03*
D28*
X11880000Y3810000D03*
X11880000Y2910000D03*
D25*
X4520000Y23120000D03*
X3620000Y23120000D03*
D34*
X16715000Y38120000D03*
X20785000Y38120000D03*
X16715000Y39390000D03*
X20785000Y39390000D03*
X16715000Y40660000D03*
X20785000Y40660000D03*
X16715000Y41930000D03*
X20785000Y41930000D03*
X16715000Y43200000D03*
X20785000Y43200000D03*
D35*
X18750000Y42565000D03*
X18750000Y38755000D03*
D36*
X19050000Y7765000D03*
X17050000Y7765000D03*
D37*
X21450000Y2215000D03*
X14650000Y2215000D03*
D38*
X6065000Y14500000D03*
X8175000Y14500000D03*
D39*
X4082696Y27569257D03*
X4082696Y28219257D03*
X4082696Y28869257D03*
X4082696Y29519257D03*
X4082696Y30169257D03*
D40*
X4082696Y26369257D03*
X4082696Y31369257D03*
D41*
X1382696Y25369257D03*
X1382696Y32369257D03*
D39*
X4082696Y16069257D03*
X4082696Y16719257D03*
X4082696Y17369257D03*
X4082696Y18019257D03*
X4082696Y18669257D03*
D40*
X4082696Y14869257D03*
X4082696Y19869257D03*
D41*
X1382696Y13869257D03*
X1382696Y20869257D03*
D42*
X10470000Y1690000D03*
X7070000Y1690000D03*
D43*
X8805000Y37950000D03*
X11755000Y37950000D03*
D44*
X10280000Y39475000D03*
D45*
X11770156Y46030000D03*
X11770156Y52780000D03*
D27*
X11110000Y4950000D03*
X12610000Y4950000D03*
X20150000Y15630000D03*
X18650000Y15630000D03*
D25*
X6210000Y7150000D03*
X7110000Y7150000D03*
D46*
X6615000Y3985000D03*
X6615000Y4635000D03*
X6615000Y5285000D03*
X6615000Y5935000D03*
X9565000Y5935000D03*
X9565000Y5285000D03*
X9565000Y4635000D03*
X9565000Y3985000D03*
D47*
X8090000Y4960000D03*
D28*
X5300000Y5290000D03*
X5300000Y6190000D03*
X4090000Y4400000D03*
X4090000Y5300000D03*
D48*
X12860000Y10900000D03*
M02*
