G04 #@! TF.FileFunction,Copper,L1,Top,Signal*
%FSLAX46Y46*%
G04 Gerber Fmt 4.6, Leading zero omitted, Abs format (unit mm)*
G04 Created by KiCad (PCBNEW 4.0.2-stable) date 1/27/2017 1:12:26 PM*
%MOMM*%
G01*
G04 APERTURE LIST*
%ADD10C,0.100000*%
%ADD11C,0.838200*%
%ADD12R,0.800100X0.800100*%
%ADD13R,1.430000X0.200000*%
%ADD14R,0.750000X0.800000*%
%ADD15C,0.970000*%
%ADD16O,0.950000X1.250000*%
%ADD17O,1.550000X1.000000*%
%ADD18C,0.154000*%
%ADD19C,0.300000*%
G04 APERTURE END LIST*
D10*
D11*
X17490000Y13240000D03*
X10610000Y3330000D03*
X14340000Y5510000D03*
X5080000Y1290000D03*
X5370000Y4070000D03*
X24500000Y20790000D03*
X8470000Y18170000D03*
X10260000Y37820000D03*
X21610000Y27880000D03*
X13200000Y41500000D03*
X13225000Y43275000D03*
X18725000Y43875000D03*
X29125000Y38075000D03*
X29125000Y33575000D03*
X16625000Y36575000D03*
X10125000Y24575000D03*
X6125000Y25075000D03*
X5440000Y22310000D03*
X18210000Y23380000D03*
X21475000Y14575000D03*
X26800000Y43800000D03*
X15300000Y7800000D03*
X21300000Y10800000D03*
X21300000Y7300000D03*
X11040000Y7760000D03*
X18300000Y3300000D03*
X8800000Y1300000D03*
X1300000Y17300000D03*
X1300000Y28800000D03*
X4800000Y41300000D03*
X7550000Y41820000D03*
X7800000Y43800000D03*
X4800000Y43800000D03*
D12*
X2900000Y38590760D03*
X1000000Y38590760D03*
X1950000Y36591780D03*
D13*
X25675156Y21370157D03*
X25675156Y21770157D03*
X25675156Y22170157D03*
X25675156Y22570157D03*
X25675156Y22970157D03*
X25675156Y23370157D03*
X25675156Y23770157D03*
X25675156Y24170157D03*
X25675156Y24570157D03*
X25675156Y24970157D03*
X25675156Y25370157D03*
X25675156Y25770157D03*
X25675156Y26170157D03*
X25675156Y26570157D03*
X25675156Y26970157D03*
X25675156Y27370157D03*
X25675156Y27770157D03*
X25675156Y28170157D03*
X25675156Y28570157D03*
X25675156Y28970157D03*
X25675156Y29370157D03*
X25675156Y29770157D03*
X25675156Y30170157D03*
X25675156Y30570157D03*
X25675156Y30970157D03*
X25675156Y31370157D03*
X25675156Y31770157D03*
X25675156Y32170157D03*
X25675156Y32570157D03*
X25675156Y32970157D03*
X25675156Y33370157D03*
X25675156Y33770157D03*
X25675156Y34170157D03*
X25675156Y34570157D03*
X25675156Y34970157D03*
X23325156Y21370157D03*
X23325156Y21770157D03*
X23325156Y22170157D03*
X23325156Y22570157D03*
X23325156Y22970157D03*
X23325156Y23370157D03*
X23325156Y23770157D03*
X23325156Y24170157D03*
X23325156Y24570157D03*
X23325156Y24970157D03*
X23325156Y25370157D03*
X23325156Y25770157D03*
X23325156Y26170157D03*
X23325156Y26570157D03*
X23325156Y26970157D03*
X23325156Y27370157D03*
X23325156Y27770157D03*
X23325156Y28170157D03*
X23325156Y28570157D03*
X23325156Y28970157D03*
X23325156Y29370157D03*
X23325156Y29770157D03*
X23325156Y30170157D03*
X23325156Y30570157D03*
X23325156Y30970157D03*
X23325156Y31370157D03*
X23325156Y31770157D03*
X23325156Y32170157D03*
X23325156Y32570157D03*
X23325156Y32970157D03*
X23325156Y33370157D03*
X23325156Y33770157D03*
X23325156Y34170157D03*
X23325156Y34570157D03*
X23325156Y34970157D03*
D14*
X2825000Y35525000D03*
X2825000Y34025000D03*
X1250000Y35525000D03*
X1250000Y34025000D03*
D11*
X1390000Y10700000D03*
D15*
X18750000Y42565000D03*
X18750000Y38755000D03*
D16*
X4082696Y26369257D03*
X4082696Y31369257D03*
D17*
X1382696Y25369257D03*
X1382696Y32369257D03*
D16*
X4082696Y14869257D03*
X4082696Y19869257D03*
D17*
X1382696Y13869257D03*
X1382696Y20869257D03*
D11*
X27180000Y22530000D03*
X8090000Y4960000D03*
X9300000Y13360000D03*
X6200000Y33820000D03*
X12930156Y31165157D03*
X14410000Y36760000D03*
X12930156Y28965157D03*
X10730156Y28965157D03*
X10730156Y31165157D03*
X6520000Y31050000D03*
X16340000Y23730000D03*
X17910000Y21560000D03*
X19550000Y18210000D03*
X13160000Y3170000D03*
X29710000Y22920000D03*
X29660000Y28100000D03*
X20230000Y22480000D03*
X15340000Y19190000D03*
X10860000Y18200000D03*
X1070000Y8390000D03*
X19340000Y10850000D03*
X7734843Y31065157D03*
X22070000Y36290000D03*
X19340000Y37260000D03*
X14840000Y38620000D03*
X23240000Y36020000D03*
X6700000Y29950000D03*
X18740000Y40100000D03*
X17560000Y36020000D03*
X18530000Y28240000D03*
X20880000Y35040000D03*
X24620000Y40680000D03*
X18360000Y29310000D03*
X18760000Y41200000D03*
X18390000Y35360000D03*
X17340000Y29200000D03*
X23690000Y41950000D03*
X23000000Y43220000D03*
X16510000Y29860000D03*
X8700000Y16050000D03*
X9790000Y15180000D03*
X11110000Y13750000D03*
X5810000Y17390000D03*
X6790000Y17210000D03*
X17140000Y16550000D03*
X20620000Y20910000D03*
X20390000Y25150000D03*
X21900000Y31810000D03*
X29120000Y24260000D03*
X29570000Y29150000D03*
X29560000Y30170000D03*
X29570000Y31220000D03*
X28500000Y26170000D03*
X28870000Y25230000D03*
X29700000Y21850000D03*
X19610000Y25840000D03*
X9470000Y34740000D03*
X3360000Y24280000D03*
X20270000Y27510000D03*
X22830000Y36950000D03*
X26720000Y35980000D03*
X14470000Y41350000D03*
X21470000Y21450000D03*
X15460000Y33510000D03*
X15820000Y32020000D03*
X15800000Y27480000D03*
X8340156Y32840157D03*
X6810000Y28070000D03*
X20950000Y18840000D03*
X21400000Y15740000D03*
X12660000Y610000D03*
X7500000Y25520000D03*
X3820000Y13200000D03*
D18*
X25675156Y21370157D02*
X25675156Y20925156D01*
X25540000Y20790000D02*
X24500000Y20790000D01*
X25675156Y20925156D02*
X25540000Y20790000D01*
X25675156Y22170157D02*
X24760157Y22170157D01*
X24679843Y21370157D02*
X25675156Y21370157D01*
X24560000Y21490000D02*
X24679843Y21370157D01*
X24560000Y21970000D02*
X24560000Y21490000D01*
X24760157Y22170157D02*
X24560000Y21970000D01*
X27170000Y22540000D02*
X26990000Y22540000D01*
X27180000Y22530000D02*
X27170000Y22540000D01*
X26960000Y23550000D02*
X26960000Y23650157D01*
X26960000Y23650157D02*
X26840000Y23770157D01*
X25675156Y24170157D02*
X26569843Y24170157D01*
X26569843Y24170157D02*
X26840000Y23900000D01*
X26840000Y23900000D02*
X26840000Y23770157D01*
X7200000Y4070000D02*
X5370000Y4070000D01*
X8090000Y4960000D02*
X7200000Y4070000D01*
X5591953Y13360000D02*
X4082696Y14869257D01*
X9300000Y13360000D02*
X5591953Y13360000D01*
X4749257Y32369257D02*
X1382696Y32369257D01*
X6200000Y33820000D02*
X4749257Y32369257D01*
X12090000Y32005313D02*
X12090000Y34440000D01*
X12930156Y31165157D02*
X12090000Y32005313D01*
X12090000Y34440000D02*
X14410000Y36760000D01*
X12930156Y28965157D02*
X12964999Y29000000D01*
X12964999Y29000000D02*
X12980000Y29000000D01*
X10730156Y28965157D02*
X10765313Y28930000D01*
X10765313Y28930000D02*
X12060000Y28930000D01*
X6520000Y31490000D02*
X6520000Y31050000D01*
X7120000Y32090000D02*
X6520000Y31490000D01*
X9805313Y32090000D02*
X7120000Y32090000D01*
X10730156Y31165157D02*
X9805313Y32090000D01*
X16340000Y23130000D02*
X16340000Y23730000D01*
X17910000Y21560000D02*
X16340000Y23130000D01*
X26990000Y23550000D02*
X26960000Y23550000D01*
X26960000Y23550000D02*
X26920000Y23550000D01*
X25675156Y22170157D02*
X26760157Y22170157D01*
X26990000Y22400000D02*
X26990000Y22540000D01*
X26990000Y22540000D02*
X26990000Y23070000D01*
X26760157Y22170157D02*
X26990000Y22400000D01*
X25675156Y23370157D02*
X26740157Y23370157D01*
X26740157Y23370157D02*
X26920000Y23550000D01*
X26920000Y23550000D02*
X26990000Y23620000D01*
X25675156Y23770157D02*
X26840000Y23770157D01*
X26840000Y23770157D02*
X26890157Y23770157D01*
X26890157Y22970157D02*
X25675156Y22970157D01*
X26990000Y23070000D02*
X26890157Y22970157D01*
X26990000Y23620000D02*
X26990000Y23070000D01*
X22210000Y20820000D02*
X22210000Y21210000D01*
D19*
X21580000Y20190000D02*
X22210000Y20820000D01*
X20780000Y20190000D02*
X21580000Y20190000D01*
X19550000Y18960000D02*
X20780000Y20190000D01*
X19550000Y18210000D02*
X19550000Y18960000D01*
X3580000Y3530000D02*
X4770000Y2340000D01*
X260000Y35185000D02*
X600000Y35525000D01*
X1250000Y35525000D02*
X600000Y35525000D01*
X260000Y6850000D02*
X3580000Y3530000D01*
X260000Y33235000D02*
X260000Y6850000D01*
X260000Y33235000D02*
X260000Y35185000D01*
X12330000Y2340000D02*
X13160000Y3170000D01*
X4770000Y2340000D02*
X12330000Y2340000D01*
X1250000Y35525000D02*
X1250000Y36375000D01*
X1250000Y36375000D02*
X1466780Y36591780D01*
X1466780Y36591780D02*
X1950000Y36591780D01*
D18*
X23325156Y21370157D02*
X22370157Y21370157D01*
X22370157Y21370157D02*
X22210000Y21210000D01*
X23325156Y21770157D02*
X22260157Y21770157D01*
X22260157Y21770157D02*
X22210000Y21720000D01*
X22210000Y21920000D02*
X22210000Y21720000D01*
X22210000Y21720000D02*
X22210000Y21210000D01*
X22460157Y22170157D02*
X22210000Y21920000D01*
X22570156Y22170157D02*
X23325156Y22170157D01*
X22570156Y22170157D02*
X22460157Y22170157D01*
X29920000Y27840000D02*
X29660000Y28100000D01*
X29920000Y23130000D02*
X29920000Y27840000D01*
X29710000Y22920000D02*
X29920000Y23130000D01*
D19*
X22180000Y23370000D02*
X21120000Y23370000D01*
X21120000Y23370000D02*
X20230000Y22480000D01*
D18*
X23324999Y23370000D02*
X22180000Y23370000D01*
X23324999Y23370000D02*
X23325156Y23370157D01*
D19*
X10870000Y18190000D02*
X10860000Y18200000D01*
X14340000Y18190000D02*
X10870000Y18190000D01*
X14340000Y18190000D02*
X15340000Y19190000D01*
D18*
X12020000Y11880000D02*
X18310000Y11880000D01*
X12020000Y11880000D02*
X3180000Y11880000D01*
X3180000Y11880000D02*
X2350000Y11050000D01*
X2350000Y11050000D02*
X2350000Y10480000D01*
X2350000Y10480000D02*
X1070000Y9200000D01*
X1070000Y9200000D02*
X1070000Y8390000D01*
X18310000Y11880000D02*
X19340000Y10850000D01*
X7527790Y30858104D02*
X7527790Y29557790D01*
X7734843Y31065157D02*
X7527790Y30858104D01*
X21540000Y35590000D02*
X21540000Y35760000D01*
X21540000Y35760000D02*
X22070000Y36290000D01*
X18680000Y37260000D02*
X19340000Y37260000D01*
X17320000Y38620000D02*
X18680000Y37260000D01*
X14840000Y38620000D02*
X17320000Y38620000D01*
X7520000Y29565580D02*
X7527790Y29557790D01*
X7527790Y29557790D02*
X10357578Y26728002D01*
X10357578Y26728002D02*
X18038002Y26728002D01*
X18038002Y26728002D02*
X19560000Y28250000D01*
X19560000Y28250000D02*
X19560000Y32740000D01*
X19560000Y32780000D02*
X19560000Y32740000D01*
X21540000Y34760000D02*
X19560000Y32780000D01*
X21540000Y35600000D02*
X21540000Y35590000D01*
X21540000Y35590000D02*
X21540000Y34760000D01*
X21900000Y35305580D02*
X22262422Y35668002D01*
X22262422Y35668002D02*
X22888002Y35668002D01*
X22888002Y35668002D02*
X23240000Y36020000D01*
X21810000Y34520000D02*
X21900000Y34610000D01*
X14660000Y26420000D02*
X18165580Y26420000D01*
X18165580Y26420000D02*
X19868002Y28122422D01*
X19868002Y28122422D02*
X19868002Y32578002D01*
X19868002Y32578002D02*
X21810000Y34520000D01*
X6700000Y29950000D02*
X10230000Y26420000D01*
X10230000Y26420000D02*
X14660000Y26420000D01*
X21900000Y34610000D02*
X21900000Y34940000D01*
X21900000Y34940000D02*
X21900000Y35305580D01*
X20269208Y40100000D02*
X20849208Y39520000D01*
X20849208Y39520000D02*
X20849208Y37750368D01*
X20849208Y37750368D02*
X19128840Y36030000D01*
X19128840Y36030000D02*
X18740000Y36030000D01*
X18740000Y40100000D02*
X20269208Y40100000D01*
X17570000Y36030000D02*
X18740000Y36030000D01*
X17560000Y36020000D02*
X17570000Y36030000D01*
X19130000Y28840000D02*
X18530000Y28240000D01*
X19130000Y33290000D02*
X19130000Y28840000D01*
X20880000Y35040000D02*
X19130000Y33290000D01*
X23280000Y39340000D02*
X23280000Y38430000D01*
X24620000Y40680000D02*
X23280000Y39340000D01*
X18340000Y33400000D02*
X18360000Y33400000D01*
X18360000Y33420000D02*
X18340000Y33400000D01*
X18360000Y33510000D02*
X18360000Y33420000D01*
X23280000Y38430000D02*
X18360000Y33510000D01*
X18360000Y31824420D02*
X18360000Y33400000D01*
X18360000Y29310000D02*
X18360000Y31824420D01*
X18360000Y33400000D02*
X18360000Y33518840D01*
X20090000Y41200000D02*
X21157210Y40132790D01*
X21157210Y40132790D02*
X21157210Y37622790D01*
X18760000Y41200000D02*
X20090000Y41200000D01*
X21157210Y37622790D02*
X19024420Y35490000D01*
X19024420Y35490000D02*
X18894420Y35360000D01*
X18894420Y35360000D02*
X18390000Y35360000D01*
X17340000Y31240000D02*
X17340000Y32934420D01*
X17340000Y29200000D02*
X17340000Y31040000D01*
X17340000Y31040000D02*
X17340000Y31240000D01*
X22971998Y38566418D02*
X22971998Y38560000D01*
X17340000Y32934420D02*
X22971998Y38566418D01*
X23310000Y41570000D02*
X22971998Y41231998D01*
X23690000Y41950000D02*
X23310000Y41570000D01*
X22971998Y41231998D02*
X22971998Y38560000D01*
X22620000Y38650000D02*
X22620000Y42840000D01*
X23000000Y43220000D02*
X22663996Y42883996D01*
X16510000Y32540000D02*
X22620000Y38650000D01*
X16510000Y29860000D02*
X16510000Y30960000D01*
X16510000Y30960000D02*
X16510000Y32540000D01*
X22620000Y42840000D02*
X22663996Y42883996D01*
X25675156Y21770157D02*
X26639843Y21770157D01*
X19668840Y15850000D02*
X16070000Y15850000D01*
X8900000Y15850000D02*
X8700000Y16050000D01*
X15890000Y15850000D02*
X15980000Y15850000D01*
X9560000Y15850000D02*
X15890000Y15850000D01*
X9560000Y15850000D02*
X8900000Y15850000D01*
X16070000Y15850000D02*
X15980000Y15850000D01*
X20230000Y16411160D02*
X19668840Y15850000D01*
X20230000Y19060000D02*
X20230000Y16411160D01*
X20726004Y19556004D02*
X20230000Y19060000D01*
X27660000Y19556004D02*
X20726004Y19556004D01*
X27807992Y19703996D02*
X27660000Y19556004D01*
X27807992Y20602008D02*
X27807992Y19703996D01*
X26639843Y21770157D02*
X27807992Y20602008D01*
X25675313Y21770000D02*
X25675156Y21770157D01*
X10600000Y14890000D02*
X11498002Y14890000D01*
X27851998Y23636842D02*
X28194420Y23294420D01*
X28423996Y20370000D02*
X28423996Y23064844D01*
X28423996Y19433996D02*
X28423996Y20360000D01*
X28423996Y20360000D02*
X28423996Y20370000D01*
X10080000Y14890000D02*
X9790000Y15180000D01*
X10600000Y14890000D02*
X10080000Y14890000D01*
X27930000Y18940000D02*
X22370000Y18940000D01*
X22370000Y18940000D02*
X22000000Y18940000D01*
X22000000Y18940000D02*
X21590000Y18530000D01*
X21281998Y18221998D02*
X21590000Y18530000D01*
X21281998Y17027578D02*
X21281998Y18221998D01*
X27930000Y18940000D02*
X28423996Y19433996D01*
X28423996Y23064844D02*
X28194420Y23294420D01*
X26704263Y24970157D02*
X25675156Y24970157D01*
X27851998Y23822422D02*
X26704263Y24970157D01*
X27851998Y23822422D02*
X27851998Y23636842D01*
X19796418Y15541998D02*
X21281998Y17027578D01*
X12150000Y15541998D02*
X19796418Y15541998D01*
X11498002Y14890000D02*
X12150000Y15541998D01*
X11941998Y14581998D02*
X12593996Y15233996D01*
X28731998Y22590000D02*
X28731998Y19306418D01*
X28057578Y18631998D02*
X22127578Y18631998D01*
X22127578Y18631998D02*
X21590000Y18094420D01*
X21590000Y18094420D02*
X21590000Y16900000D01*
X28160000Y23764420D02*
X28731998Y23192422D01*
X28731998Y23192422D02*
X28731998Y22800000D01*
X28731998Y22800000D02*
X28731998Y22590000D01*
X26739843Y25370157D02*
X28160000Y23950000D01*
X26739843Y25370157D02*
X25675156Y25370157D01*
X28160000Y23950000D02*
X28160000Y23764420D01*
X28731998Y19306418D02*
X28057578Y18631998D01*
X11110000Y13750000D02*
X11941998Y14581998D01*
X19923996Y15233996D02*
X21590000Y16900000D01*
X12593996Y15233996D02*
X19923996Y15233996D01*
X19450000Y20175580D02*
X19450000Y19834398D01*
X19450000Y20175580D02*
X19450000Y22830000D01*
X20790157Y24170157D02*
X22420157Y24170157D01*
X19450000Y22830000D02*
X20790157Y24170157D01*
X23325156Y24170157D02*
X22420157Y24170157D01*
X15151998Y16901998D02*
X16176418Y16901998D01*
X5810000Y17390000D02*
X5810000Y17220000D01*
X5810000Y17220000D02*
X6520000Y16510000D01*
X6520000Y16510000D02*
X7700000Y16510000D01*
X7700000Y16510000D02*
X8091998Y16901998D01*
X8091998Y16901998D02*
X15151998Y16901998D01*
X16504420Y17230000D02*
X16176418Y16901998D01*
X18010000Y17230000D02*
X16504420Y17230000D01*
X18441998Y17661998D02*
X18010000Y17230000D01*
X18441998Y18826396D02*
X18441998Y17661998D01*
X19450000Y19834398D02*
X18441998Y18826396D01*
X16048840Y17210000D02*
X16376842Y17538002D01*
X22370157Y24570157D02*
X20754577Y24570157D01*
X15010000Y17210000D02*
X6790000Y17210000D01*
X22370157Y24570157D02*
X23325156Y24570157D01*
X16048840Y17210000D02*
X15010000Y17210000D01*
X19141998Y22957578D02*
X19141998Y20303158D01*
X20754577Y24570157D02*
X19141998Y22957578D01*
X19141998Y19961976D02*
X19141998Y20303158D01*
X18133996Y18953974D02*
X19141998Y19961976D01*
X18133996Y17789576D02*
X18133996Y18953974D01*
X17882422Y17538002D02*
X18133996Y17789576D01*
X17410000Y17538002D02*
X17882422Y17538002D01*
X16376842Y17538002D02*
X17410000Y17538002D01*
X20620000Y20910000D02*
X20620000Y20568818D01*
X18110000Y16550000D02*
X17140000Y16550000D01*
X18750000Y17190000D02*
X18110000Y16550000D01*
X18750000Y18698818D02*
X18750000Y17190000D01*
X20620000Y20568818D02*
X18750000Y18698818D01*
X20569843Y24970157D02*
X23325156Y24970157D01*
X20390000Y25150000D02*
X20569843Y24970157D01*
X23325156Y30570157D02*
X22399843Y30570157D01*
X21900000Y31070000D02*
X21900000Y31810000D01*
X22399843Y30570157D02*
X21900000Y31070000D01*
X29590000Y26020000D02*
X29590000Y24730000D01*
X28678002Y28881998D02*
X28678002Y26931998D01*
X28678002Y26931998D02*
X29550000Y26060000D01*
X27549843Y31770157D02*
X25675156Y31770157D01*
X28170000Y31150000D02*
X28170000Y29390000D01*
X27549843Y31770157D02*
X28170000Y31150000D01*
X28170000Y29390000D02*
X28678002Y28881998D01*
X29550000Y26060000D02*
X29590000Y26020000D01*
X29590000Y24730000D02*
X29120000Y24260000D01*
X28551998Y31238002D02*
X28551998Y30168002D01*
X28551998Y30168002D02*
X29570000Y29150000D01*
X25675156Y32170157D02*
X27619843Y32170157D01*
X27619843Y32170157D02*
X28180000Y31610000D01*
X28180000Y31610000D02*
X28551998Y31238002D01*
X28860000Y31440000D02*
X28860000Y30870000D01*
X27729843Y32570157D02*
X28860000Y31440000D01*
X25675156Y32570157D02*
X27729843Y32570157D01*
X28860000Y30870000D02*
X29560000Y30170000D01*
X25675156Y32970157D02*
X27819843Y32970157D01*
X27819843Y32970157D02*
X29570000Y31220000D01*
X28370000Y28650000D02*
X28370000Y26300000D01*
X27249843Y29770157D02*
X28370000Y28650000D01*
X25675156Y29770157D02*
X27249843Y29770157D01*
X28370000Y26300000D02*
X28500000Y26170000D01*
X28030000Y28230000D02*
X28030000Y26670000D01*
X28030000Y26670000D02*
X27830000Y26470000D01*
X27830000Y26470000D02*
X27830000Y25850000D01*
X27830000Y25850000D02*
X28450000Y25230000D01*
X28450000Y25230000D02*
X28870000Y25230000D01*
X25675156Y29370157D02*
X26889843Y29370157D01*
X26889843Y29370157D02*
X27690000Y28570000D01*
X27690000Y28570000D02*
X28030000Y28230000D01*
X29040000Y22510000D02*
X29040000Y23410000D01*
X29040000Y23410000D02*
X28740000Y23710000D01*
X28740000Y23710000D02*
X28650000Y23710000D01*
X28650000Y23710000D02*
X28468002Y23891998D01*
X28468002Y23891998D02*
X28468002Y24077578D01*
X29074006Y22475994D02*
X29700000Y21850000D01*
X27450000Y25500000D02*
X27450000Y25095580D01*
X25675156Y26570157D02*
X26869843Y26570157D01*
X27450000Y25990000D02*
X27450000Y25500000D01*
X26869843Y26570157D02*
X27450000Y25990000D01*
X27450000Y25095580D02*
X28468002Y24077578D01*
X29074006Y22475994D02*
X29040000Y22510000D01*
X22429843Y25370157D02*
X23325156Y25370157D01*
X22429843Y25370157D02*
X21960000Y25840000D01*
X21960000Y25840000D02*
X19610000Y25840000D01*
D19*
X9470000Y34740000D02*
X6260000Y34740000D01*
X5475000Y35525000D02*
X5820000Y35180000D01*
X5475000Y35525000D02*
X2825000Y35525000D01*
X6260000Y34740000D02*
X5820000Y35180000D01*
X8340156Y33500156D02*
X8340156Y32840157D01*
X8340156Y33610156D02*
X8340156Y33500156D01*
X9470000Y34740000D02*
X8340156Y33610156D01*
D18*
X6810000Y27730000D02*
X6810000Y28070000D01*
X3360000Y24280000D02*
X6810000Y27730000D01*
D19*
X1250000Y37590000D02*
X2635000Y37590000D01*
X2635000Y37590000D02*
X2825000Y37400000D01*
X2825000Y37400000D02*
X2825000Y35525000D01*
X1250000Y37590000D02*
X1000000Y37840000D01*
X1000000Y38590760D02*
X1000000Y37840000D01*
D18*
X23620000Y35360000D02*
X22390000Y35360000D01*
X24200000Y35940000D02*
X23620000Y35360000D01*
X24200000Y36600000D02*
X24200000Y35940000D01*
X20176004Y27603996D02*
X20270000Y27510000D01*
X20176004Y32450424D02*
X20176004Y27603996D01*
X22208002Y34482422D02*
X20176004Y32450424D01*
X22208002Y35178002D02*
X22208002Y34482422D01*
X22390000Y35360000D02*
X22208002Y35178002D01*
X22830000Y36950000D02*
X23850000Y36950000D01*
X26100000Y36600000D02*
X26720000Y35980000D01*
X24200000Y36600000D02*
X26100000Y36600000D01*
X23850000Y36950000D02*
X24200000Y36600000D01*
D19*
X14470000Y41350000D02*
X14090000Y40970000D01*
X15460000Y37440000D02*
X15460000Y33510000D01*
X15220000Y37680000D02*
X15460000Y37440000D01*
X14610000Y37680000D02*
X15220000Y37680000D01*
X14090000Y38200000D02*
X14610000Y37680000D01*
X14090000Y40970000D02*
X14090000Y38200000D01*
X21470000Y21940000D02*
X21470000Y21450000D01*
D18*
X22080000Y22550000D02*
X21880000Y22350000D01*
D19*
X21880000Y22350000D02*
X21470000Y21940000D01*
D18*
X23325156Y22570157D02*
X22100157Y22570157D01*
X22080000Y22570000D02*
X22080000Y22550000D01*
X22100000Y22570000D02*
X22080000Y22570000D01*
X22100157Y22570157D02*
X22100000Y22570000D01*
X23325156Y22970157D02*
X22500157Y22970157D01*
X22500157Y22970157D02*
X22080000Y22550000D01*
D19*
X15820000Y32020000D02*
X15820000Y33150000D01*
X15820000Y33150000D02*
X15460000Y33510000D01*
X15400000Y31600000D02*
X15820000Y32020000D01*
X15400000Y27880000D02*
X15400000Y31600000D01*
X15800000Y27480000D02*
X15400000Y27880000D01*
X5770000Y29110000D02*
X6810000Y28070000D01*
X6970157Y32840157D02*
X8340156Y32840157D01*
X6970157Y32840157D02*
X5770000Y31640000D01*
X5770000Y31640000D02*
X5770000Y29110000D01*
D18*
X27543996Y23694844D02*
X27543996Y23509264D01*
X25675156Y24570157D02*
X26668683Y24570157D01*
X26668683Y24570157D02*
X27169420Y24069420D01*
X27169420Y24069420D02*
X27543996Y23694844D01*
X27802422Y19248002D02*
X21358002Y19248002D01*
X21358002Y19248002D02*
X20950000Y18840000D01*
X21400000Y15740000D02*
X20620000Y14960000D01*
X20620000Y14960000D02*
X20620000Y3440000D01*
X20620000Y3440000D02*
X20520000Y3340000D01*
X12660000Y610000D02*
X17790000Y610000D01*
X17790000Y610000D02*
X18880000Y1700000D01*
X20520000Y3340000D02*
X18880000Y1700000D01*
X28115994Y19561574D02*
X27802422Y19248002D01*
X28115994Y22937266D02*
X28115994Y19561574D01*
X27543996Y23509264D02*
X28115994Y22937266D01*
D19*
X2690000Y14330000D02*
X3820000Y13200000D01*
X2690000Y21590000D02*
X2690000Y14330000D01*
X4450000Y23350000D02*
X2690000Y21590000D01*
X5900000Y23350000D02*
X4450000Y23350000D01*
X7500000Y24950000D02*
X5900000Y23350000D01*
X7500000Y24950000D02*
X7500000Y25520000D01*
D10*
G36*
X21960156Y10810225D02*
X21960156Y315157D01*
X18014279Y315157D01*
X18056579Y343421D01*
X20786579Y3073421D01*
X20886579Y3173420D01*
X20968303Y3295728D01*
X20980648Y3357793D01*
X20997000Y3440000D01*
X20997000Y14803842D01*
X21226551Y15033392D01*
X21256335Y15021025D01*
X21542410Y15020775D01*
X21806805Y15130021D01*
X21966258Y15289196D01*
X21960156Y10810225D01*
X21960156Y10810225D01*
G37*
X21960156Y10810225D02*
X21960156Y315157D01*
X18014279Y315157D01*
X18056579Y343421D01*
X20786579Y3073421D01*
X20886579Y3173420D01*
X20968303Y3295728D01*
X20980648Y3357793D01*
X20997000Y3440000D01*
X20997000Y14803842D01*
X21226551Y15033392D01*
X21256335Y15021025D01*
X21542410Y15020775D01*
X21806805Y15130021D01*
X21966258Y15289196D01*
X21960156Y10810225D01*
G36*
X5941802Y34421802D02*
X6087792Y34324254D01*
X6260000Y34290000D01*
X8383604Y34290000D01*
X8021958Y33928354D01*
X7924410Y33782364D01*
X7890156Y33610156D01*
X7890156Y33407016D01*
X7773093Y33290157D01*
X6970157Y33290157D01*
X6797949Y33255903D01*
X6651959Y33158355D01*
X5451802Y31958198D01*
X5354254Y31812208D01*
X5320000Y31640000D01*
X5320000Y29110000D01*
X5354254Y28937792D01*
X5445190Y28801697D01*
X5451802Y28791802D01*
X6090972Y28152632D01*
X6090775Y27927590D01*
X6200021Y27663195D01*
X6205025Y27658183D01*
X5115696Y26568854D01*
X5115696Y26573259D01*
X4970857Y26573259D01*
X5089256Y26733354D01*
X4930705Y27102251D01*
X4643052Y27382392D01*
X4442599Y27487533D01*
X4286696Y27389157D01*
X4286696Y26573257D01*
X4306696Y26573257D01*
X4306696Y26165257D01*
X4286696Y26165257D01*
X4286696Y26145257D01*
X3878696Y26145257D01*
X3878696Y26165257D01*
X3194536Y26165257D01*
X3076136Y26005160D01*
X3234687Y25636263D01*
X3522340Y25356122D01*
X3722793Y25250981D01*
X3878694Y25349356D01*
X3878694Y25331852D01*
X3533449Y24986607D01*
X3503665Y24998975D01*
X3217590Y24999225D01*
X2953195Y24889979D01*
X2750732Y24687869D01*
X2641025Y24423665D01*
X2640775Y24137590D01*
X2750021Y23873195D01*
X2952131Y23670732D01*
X3216335Y23561025D01*
X3502410Y23560775D01*
X3766805Y23670021D01*
X3969268Y23872131D01*
X4078975Y24136335D01*
X4079225Y24422410D01*
X4066460Y24453302D01*
X6972047Y27358889D01*
X7216805Y27460021D01*
X7419268Y27662131D01*
X7528975Y27926335D01*
X7529225Y28212410D01*
X7419979Y28476805D01*
X7217869Y28679268D01*
X6953665Y28788975D01*
X6727223Y28789173D01*
X6220000Y29296396D01*
X6220000Y29412989D01*
X6292131Y29340732D01*
X6556335Y29231025D01*
X6842410Y29230775D01*
X6873302Y29243540D01*
X9963421Y26153421D01*
X10085728Y26071697D01*
X10230000Y26043000D01*
X18165580Y26043000D01*
X18309852Y26071697D01*
X18432159Y26153421D01*
X19578713Y27299975D01*
X19660021Y27103195D01*
X19862131Y26900732D01*
X20126335Y26791025D01*
X20412410Y26790775D01*
X20676805Y26900021D01*
X20879268Y27102131D01*
X20988975Y27366335D01*
X20989225Y27652410D01*
X20879979Y27916805D01*
X20677869Y28119268D01*
X20553004Y28171116D01*
X20553004Y32294266D01*
X22308177Y34049439D01*
X22323786Y33966486D01*
X22304279Y33870157D01*
X22304279Y33670157D01*
X22323786Y33566486D01*
X22304279Y33470157D01*
X22304279Y33270157D01*
X22323786Y33166486D01*
X22304279Y33070157D01*
X22304279Y32870157D01*
X22323786Y32766486D01*
X22304279Y32670157D01*
X22304279Y32470157D01*
X22315245Y32411879D01*
X22307869Y32419268D01*
X22043665Y32528975D01*
X21757590Y32529225D01*
X21493195Y32419979D01*
X21290732Y32217869D01*
X21181025Y31953665D01*
X21180775Y31667590D01*
X21290021Y31403195D01*
X21492131Y31200732D01*
X21523000Y31187914D01*
X21523000Y31070000D01*
X21551697Y30925728D01*
X21633421Y30803421D01*
X22133264Y30303578D01*
X22255571Y30221854D01*
X22304279Y30212166D01*
X22304279Y30070157D01*
X22323786Y29966486D01*
X22304279Y29870157D01*
X22304279Y29670157D01*
X22323786Y29566486D01*
X22304279Y29470157D01*
X22304279Y29270157D01*
X22323786Y29166486D01*
X22304279Y29070157D01*
X22304279Y28870157D01*
X22323786Y28766486D01*
X22304279Y28670157D01*
X22304279Y28470157D01*
X22323786Y28366486D01*
X22304279Y28270157D01*
X22304279Y28070157D01*
X22323786Y27966486D01*
X22304279Y27870157D01*
X22304279Y27670157D01*
X22323786Y27566486D01*
X22304279Y27470157D01*
X22304279Y27270157D01*
X22323786Y27166486D01*
X22304279Y27070157D01*
X22304279Y26870157D01*
X22323786Y26766486D01*
X22304279Y26670157D01*
X22304279Y26470157D01*
X22323786Y26366486D01*
X22304279Y26270157D01*
X22304279Y26070157D01*
X22313846Y26019312D01*
X22226579Y26106579D01*
X22104272Y26188303D01*
X21960000Y26217000D01*
X20232294Y26217000D01*
X20219979Y26246805D01*
X20017869Y26449268D01*
X19753665Y26558975D01*
X19467590Y26559225D01*
X19203195Y26449979D01*
X19000732Y26247869D01*
X18891025Y25983665D01*
X18890775Y25697590D01*
X19000021Y25433195D01*
X19202131Y25230732D01*
X19466335Y25121025D01*
X19670874Y25120846D01*
X19670775Y25007590D01*
X19780021Y24743195D01*
X19982131Y24540732D01*
X20130419Y24479157D01*
X18875419Y23224157D01*
X18793695Y23101850D01*
X18764998Y22957578D01*
X18764998Y20118134D01*
X17867417Y19220553D01*
X17785693Y19098246D01*
X17756996Y18953974D01*
X17756996Y17945735D01*
X17726264Y17915002D01*
X16376842Y17915002D01*
X16232570Y17886305D01*
X16110263Y17804581D01*
X15892682Y17587000D01*
X11259494Y17587000D01*
X11266805Y17590021D01*
X11417046Y17740000D01*
X14340000Y17740000D01*
X14512208Y17774254D01*
X14658198Y17871802D01*
X15257368Y18470972D01*
X15482410Y18470775D01*
X15746805Y18580021D01*
X15949268Y18782131D01*
X16058975Y19046335D01*
X16059225Y19332410D01*
X15949979Y19596805D01*
X15747869Y19799268D01*
X15483665Y19908975D01*
X15197590Y19909225D01*
X14933195Y19799979D01*
X14730732Y19597869D01*
X14621025Y19333665D01*
X14620827Y19107223D01*
X14153604Y18640000D01*
X11436842Y18640000D01*
X11267869Y18809268D01*
X11003665Y18918975D01*
X10717590Y18919225D01*
X10453195Y18809979D01*
X10250732Y18607869D01*
X10141025Y18343665D01*
X10140775Y18057590D01*
X10250021Y17793195D01*
X10452131Y17590732D01*
X10461119Y17587000D01*
X7412294Y17587000D01*
X7399979Y17616805D01*
X7197869Y17819268D01*
X6933665Y17928975D01*
X6647590Y17929225D01*
X6392859Y17823972D01*
X6217869Y17999268D01*
X5953665Y18108975D01*
X5667590Y18109225D01*
X5403195Y17999979D01*
X5200732Y17797869D01*
X5091025Y17533665D01*
X5090775Y17247590D01*
X5200021Y16983195D01*
X5402131Y16780732D01*
X5666335Y16671025D01*
X5825956Y16670886D01*
X6253421Y16243420D01*
X6320944Y16198303D01*
X6375728Y16161697D01*
X6520000Y16133000D01*
X7700000Y16133000D01*
X7844272Y16161697D01*
X7966579Y16243421D01*
X8026614Y16303456D01*
X7981025Y16193665D01*
X7980775Y15907590D01*
X8090021Y15643195D01*
X8292131Y15440732D01*
X8556335Y15331025D01*
X8842410Y15330775D01*
X9106805Y15440021D01*
X9128215Y15461393D01*
X9071025Y15323665D01*
X9070775Y15037590D01*
X9180021Y14773195D01*
X9382131Y14570732D01*
X9646335Y14461025D01*
X9932410Y14460775D01*
X10065692Y14515846D01*
X10080000Y14513000D01*
X11339842Y14513000D01*
X11283449Y14456607D01*
X11253665Y14468975D01*
X10967590Y14469225D01*
X10703195Y14359979D01*
X10500732Y14157869D01*
X10391025Y13893665D01*
X10390775Y13607590D01*
X10500021Y13343195D01*
X10702131Y13140732D01*
X10966335Y13031025D01*
X11252410Y13030775D01*
X11516805Y13140021D01*
X11719268Y13342131D01*
X11828975Y13606335D01*
X11829225Y13892410D01*
X11816460Y13923302D01*
X12208577Y14315419D01*
X12750155Y14856996D01*
X19923996Y14856996D01*
X20068268Y14885693D01*
X20190575Y14967417D01*
X20257859Y15034701D01*
X20243000Y14960000D01*
X20243000Y3596158D01*
X17633842Y987000D01*
X13282294Y987000D01*
X13269979Y1016805D01*
X13067869Y1219268D01*
X12803665Y1328975D01*
X12517590Y1329225D01*
X12253195Y1219979D01*
X12050732Y1017869D01*
X11941025Y753665D01*
X11940775Y467590D01*
X12003759Y315157D01*
X1804628Y315157D01*
X1779533Y320149D01*
X2077117Y319889D01*
X2647013Y555365D01*
X3083416Y991006D01*
X3319886Y1560490D01*
X3320424Y2177118D01*
X3084948Y2747014D01*
X2649307Y3183417D01*
X2079823Y3419887D01*
X1463195Y3420425D01*
X893299Y3184949D01*
X456896Y2749308D01*
X220426Y2179824D01*
X220164Y1879452D01*
X215156Y1904629D01*
X215156Y6258448D01*
X4451802Y2021802D01*
X4597792Y1924254D01*
X4770000Y1890000D01*
X12330000Y1890000D01*
X12502208Y1924254D01*
X12648198Y2021802D01*
X13077368Y2450972D01*
X13302410Y2450775D01*
X13566805Y2560021D01*
X13769268Y2762131D01*
X13878975Y3026335D01*
X13879225Y3312410D01*
X13769979Y3576805D01*
X13567869Y3779268D01*
X13303665Y3888975D01*
X13017590Y3889225D01*
X12753195Y3779979D01*
X12550732Y3577869D01*
X12441025Y3313665D01*
X12440827Y3087223D01*
X12143604Y2790000D01*
X4956396Y2790000D01*
X710000Y7036396D01*
X710000Y7760855D01*
X926335Y7671025D01*
X1212410Y7670775D01*
X1476805Y7780021D01*
X1679268Y7982131D01*
X1788975Y8246335D01*
X1789225Y8532410D01*
X1679979Y8796805D01*
X1477869Y8999268D01*
X1447000Y9012086D01*
X1447000Y9043842D01*
X1966354Y9563196D01*
X2719888Y9563196D01*
X2955364Y8993300D01*
X3391005Y8556897D01*
X3960489Y8320427D01*
X4577117Y8319889D01*
X5147013Y8555365D01*
X5583416Y8991006D01*
X5819886Y9560490D01*
X5820424Y10177118D01*
X5584948Y10747014D01*
X5149307Y11183417D01*
X4579823Y11419887D01*
X3963195Y11420425D01*
X3393299Y11184949D01*
X2956896Y10749308D01*
X2720426Y10179824D01*
X2719888Y9563196D01*
X1966354Y9563196D01*
X2616579Y10213420D01*
X2698303Y10335728D01*
X2727000Y10480000D01*
X2727000Y10893842D01*
X3336158Y11503000D01*
X18153842Y11503000D01*
X18633393Y11023449D01*
X18621025Y10993665D01*
X18620775Y10707590D01*
X18730021Y10443195D01*
X18932131Y10240732D01*
X19196335Y10131025D01*
X19482410Y10130775D01*
X19746805Y10240021D01*
X19949268Y10442131D01*
X20058975Y10706335D01*
X20059225Y10992410D01*
X19949979Y11256805D01*
X19747869Y11459268D01*
X19483665Y11568975D01*
X19197590Y11569225D01*
X19166698Y11556460D01*
X18576579Y12146579D01*
X18454272Y12228303D01*
X18310000Y12257000D01*
X3180000Y12257000D01*
X3035728Y12228303D01*
X2913421Y12146579D01*
X2083421Y11316579D01*
X2001697Y11194272D01*
X1973000Y11050000D01*
X1973000Y10636159D01*
X803421Y9466579D01*
X721697Y9344272D01*
X710000Y9285466D01*
X710000Y12895309D01*
X1011248Y12806445D01*
X1178696Y12943942D01*
X1178696Y13665257D01*
X1158696Y13665257D01*
X1158696Y14073257D01*
X1178696Y14073257D01*
X1178696Y14794572D01*
X1011248Y14932069D01*
X710000Y14843205D01*
X710000Y19895309D01*
X1011248Y19806445D01*
X1178696Y19943942D01*
X1178696Y20665257D01*
X1158696Y20665257D01*
X1158696Y21073257D01*
X1178696Y21073257D01*
X1178696Y21794572D01*
X1586696Y21794572D01*
X1586696Y21073257D01*
X1606696Y21073257D01*
X1606696Y20665257D01*
X1586696Y20665257D01*
X1586696Y19943942D01*
X1754144Y19806445D01*
X2153523Y19924256D01*
X2240000Y19994122D01*
X2240000Y14744392D01*
X2153523Y14814258D01*
X1754144Y14932069D01*
X1586696Y14794572D01*
X1586696Y14073257D01*
X1606696Y14073257D01*
X1606696Y13665257D01*
X1586696Y13665257D01*
X1586696Y12943942D01*
X1754144Y12806445D01*
X2153523Y12924256D01*
X2477417Y13185935D01*
X2651148Y13505367D01*
X2553256Y13665255D01*
X2715696Y13665255D01*
X2715696Y13667908D01*
X3100972Y13282632D01*
X3100775Y13057590D01*
X3210021Y12793195D01*
X3412131Y12590732D01*
X3676335Y12481025D01*
X3962410Y12480775D01*
X4226805Y12590021D01*
X4429268Y12792131D01*
X4538975Y13056335D01*
X4539225Y13342410D01*
X4429979Y13606805D01*
X4286698Y13750336D01*
X4286698Y13849356D01*
X4442599Y13750981D01*
X4643052Y13856122D01*
X4930705Y14136263D01*
X5089256Y14505160D01*
X4970856Y14665257D01*
X4286696Y14665257D01*
X4286696Y14645257D01*
X3878696Y14645257D01*
X3878696Y14665257D01*
X3858696Y14665257D01*
X3858696Y15073257D01*
X3878696Y15073257D01*
X3878696Y15889157D01*
X4286696Y15889157D01*
X4286696Y15073257D01*
X4970856Y15073257D01*
X5089256Y15233354D01*
X4930705Y15602251D01*
X4643052Y15882392D01*
X4442599Y15987533D01*
X4286696Y15889157D01*
X3878696Y15889157D01*
X3722793Y15987533D01*
X3522340Y15882392D01*
X3234687Y15602251D01*
X3140000Y15381945D01*
X3140000Y19356569D01*
X3234687Y19136263D01*
X3522340Y18856122D01*
X3722793Y18750981D01*
X3878696Y18849357D01*
X3878696Y19665257D01*
X4286696Y19665257D01*
X4286696Y18849357D01*
X4442599Y18750981D01*
X4643052Y18856122D01*
X4930705Y19136263D01*
X5089256Y19505160D01*
X4970856Y19665257D01*
X4286696Y19665257D01*
X3878696Y19665257D01*
X3858696Y19665257D01*
X3858696Y20073257D01*
X3878696Y20073257D01*
X3878696Y20889157D01*
X4286696Y20889157D01*
X4286696Y20073257D01*
X4970856Y20073257D01*
X5089256Y20233354D01*
X4930705Y20602251D01*
X4643052Y20882392D01*
X4442599Y20987533D01*
X4286696Y20889157D01*
X3878696Y20889157D01*
X3722793Y20987533D01*
X3522340Y20882392D01*
X3234687Y20602251D01*
X3140000Y20381945D01*
X3140000Y21403604D01*
X4636396Y22900000D01*
X5900000Y22900000D01*
X6072208Y22934254D01*
X6218198Y23031802D01*
X7818198Y24631802D01*
X7843826Y24670157D01*
X7915746Y24777792D01*
X7950000Y24950000D01*
X7950000Y24953141D01*
X8109268Y25112131D01*
X8218975Y25376335D01*
X8219225Y25662410D01*
X8109979Y25926805D01*
X7907869Y26129268D01*
X7643665Y26238975D01*
X7357590Y26239225D01*
X7093195Y26129979D01*
X6890732Y25927869D01*
X6781025Y25663665D01*
X6780775Y25377590D01*
X6890021Y25113195D01*
X6958350Y25044746D01*
X5713604Y23800000D01*
X4450000Y23800000D01*
X4277792Y23765746D01*
X4168053Y23692420D01*
X4131802Y23668198D01*
X2371802Y21908198D01*
X2274254Y21762208D01*
X2266458Y21723016D01*
X2153523Y21814258D01*
X1754144Y21932069D01*
X1586696Y21794572D01*
X1178696Y21794572D01*
X1011248Y21932069D01*
X710000Y21843205D01*
X710000Y24395309D01*
X1011248Y24306445D01*
X1178696Y24443942D01*
X1178696Y25165257D01*
X1586696Y25165257D01*
X1586696Y24443942D01*
X1754144Y24306445D01*
X2153523Y24424256D01*
X2477417Y24685935D01*
X2651148Y25005367D01*
X2553255Y25165257D01*
X1586696Y25165257D01*
X1178696Y25165257D01*
X1158696Y25165257D01*
X1158696Y25573257D01*
X1178696Y25573257D01*
X1178696Y26294572D01*
X1586696Y26294572D01*
X1586696Y25573257D01*
X2553255Y25573257D01*
X2651148Y25733147D01*
X2477417Y26052579D01*
X2153523Y26314258D01*
X1754144Y26432069D01*
X1586696Y26294572D01*
X1178696Y26294572D01*
X1011248Y26432069D01*
X710000Y26343205D01*
X710000Y26733354D01*
X3076136Y26733354D01*
X3194536Y26573257D01*
X3878696Y26573257D01*
X3878696Y27389157D01*
X3722793Y27487533D01*
X3522340Y27382392D01*
X3234687Y27102251D01*
X3076136Y26733354D01*
X710000Y26733354D01*
X710000Y31005160D01*
X3076136Y31005160D01*
X3234687Y30636263D01*
X3522340Y30356122D01*
X3722793Y30250981D01*
X3878696Y30349357D01*
X3878696Y31165257D01*
X4286696Y31165257D01*
X4286696Y30349357D01*
X4442599Y30250981D01*
X4643052Y30356122D01*
X4930705Y30636263D01*
X5089256Y31005160D01*
X4970856Y31165257D01*
X4286696Y31165257D01*
X3878696Y31165257D01*
X3194536Y31165257D01*
X3076136Y31005160D01*
X710000Y31005160D01*
X710000Y31395309D01*
X1011248Y31306445D01*
X1178696Y31443942D01*
X1178696Y32165257D01*
X1586696Y32165257D01*
X1586696Y31443942D01*
X1754144Y31306445D01*
X2153523Y31424256D01*
X2477417Y31685935D01*
X2503206Y31733354D01*
X3076136Y31733354D01*
X3194536Y31573257D01*
X3878696Y31573257D01*
X3878696Y32389157D01*
X4286696Y32389157D01*
X4286696Y31573257D01*
X4970856Y31573257D01*
X5089256Y31733354D01*
X4930705Y32102251D01*
X4643052Y32382392D01*
X4442599Y32487533D01*
X4286696Y32389157D01*
X3878696Y32389157D01*
X3722793Y32487533D01*
X3522340Y32382392D01*
X3234687Y32102251D01*
X3076136Y31733354D01*
X2503206Y31733354D01*
X2651148Y32005367D01*
X2553255Y32165257D01*
X1586696Y32165257D01*
X1178696Y32165257D01*
X1158696Y32165257D01*
X1158696Y32573257D01*
X1178696Y32573257D01*
X1178696Y33294572D01*
X1062500Y33389984D01*
X1062500Y33825000D01*
X1437500Y33825000D01*
X1437500Y33206500D01*
X1577000Y33067000D01*
X1586696Y33067000D01*
X1586696Y32573257D01*
X2553255Y32573257D01*
X2651148Y32733147D01*
X2477417Y33052579D01*
X2459567Y33067000D01*
X2498000Y33067000D01*
X2637500Y33206500D01*
X2637500Y33825000D01*
X3012500Y33825000D01*
X3012500Y33206500D01*
X3152000Y33067000D01*
X3310993Y33067000D01*
X3516082Y33151951D01*
X3673050Y33308918D01*
X3758000Y33514007D01*
X3758000Y33685500D01*
X3618500Y33825000D01*
X3012500Y33825000D01*
X2637500Y33825000D01*
X1437500Y33825000D01*
X1062500Y33825000D01*
X1026000Y33825000D01*
X1026000Y34225000D01*
X1062500Y34225000D01*
X1062500Y34249000D01*
X1437500Y34249000D01*
X1437500Y34225000D01*
X2637500Y34225000D01*
X2637500Y34249000D01*
X3012500Y34249000D01*
X3012500Y34225000D01*
X3618500Y34225000D01*
X3758000Y34364500D01*
X3758000Y34535993D01*
X3673050Y34741082D01*
X3516082Y34898049D01*
X3431858Y34932936D01*
X3481778Y35005997D01*
X3495752Y35075000D01*
X5288604Y35075000D01*
X5941802Y34421802D01*
X5941802Y34421802D01*
G37*
X5941802Y34421802D02*
X6087792Y34324254D01*
X6260000Y34290000D01*
X8383604Y34290000D01*
X8021958Y33928354D01*
X7924410Y33782364D01*
X7890156Y33610156D01*
X7890156Y33407016D01*
X7773093Y33290157D01*
X6970157Y33290157D01*
X6797949Y33255903D01*
X6651959Y33158355D01*
X5451802Y31958198D01*
X5354254Y31812208D01*
X5320000Y31640000D01*
X5320000Y29110000D01*
X5354254Y28937792D01*
X5445190Y28801697D01*
X5451802Y28791802D01*
X6090972Y28152632D01*
X6090775Y27927590D01*
X6200021Y27663195D01*
X6205025Y27658183D01*
X5115696Y26568854D01*
X5115696Y26573259D01*
X4970857Y26573259D01*
X5089256Y26733354D01*
X4930705Y27102251D01*
X4643052Y27382392D01*
X4442599Y27487533D01*
X4286696Y27389157D01*
X4286696Y26573257D01*
X4306696Y26573257D01*
X4306696Y26165257D01*
X4286696Y26165257D01*
X4286696Y26145257D01*
X3878696Y26145257D01*
X3878696Y26165257D01*
X3194536Y26165257D01*
X3076136Y26005160D01*
X3234687Y25636263D01*
X3522340Y25356122D01*
X3722793Y25250981D01*
X3878694Y25349356D01*
X3878694Y25331852D01*
X3533449Y24986607D01*
X3503665Y24998975D01*
X3217590Y24999225D01*
X2953195Y24889979D01*
X2750732Y24687869D01*
X2641025Y24423665D01*
X2640775Y24137590D01*
X2750021Y23873195D01*
X2952131Y23670732D01*
X3216335Y23561025D01*
X3502410Y23560775D01*
X3766805Y23670021D01*
X3969268Y23872131D01*
X4078975Y24136335D01*
X4079225Y24422410D01*
X4066460Y24453302D01*
X6972047Y27358889D01*
X7216805Y27460021D01*
X7419268Y27662131D01*
X7528975Y27926335D01*
X7529225Y28212410D01*
X7419979Y28476805D01*
X7217869Y28679268D01*
X6953665Y28788975D01*
X6727223Y28789173D01*
X6220000Y29296396D01*
X6220000Y29412989D01*
X6292131Y29340732D01*
X6556335Y29231025D01*
X6842410Y29230775D01*
X6873302Y29243540D01*
X9963421Y26153421D01*
X10085728Y26071697D01*
X10230000Y26043000D01*
X18165580Y26043000D01*
X18309852Y26071697D01*
X18432159Y26153421D01*
X19578713Y27299975D01*
X19660021Y27103195D01*
X19862131Y26900732D01*
X20126335Y26791025D01*
X20412410Y26790775D01*
X20676805Y26900021D01*
X20879268Y27102131D01*
X20988975Y27366335D01*
X20989225Y27652410D01*
X20879979Y27916805D01*
X20677869Y28119268D01*
X20553004Y28171116D01*
X20553004Y32294266D01*
X22308177Y34049439D01*
X22323786Y33966486D01*
X22304279Y33870157D01*
X22304279Y33670157D01*
X22323786Y33566486D01*
X22304279Y33470157D01*
X22304279Y33270157D01*
X22323786Y33166486D01*
X22304279Y33070157D01*
X22304279Y32870157D01*
X22323786Y32766486D01*
X22304279Y32670157D01*
X22304279Y32470157D01*
X22315245Y32411879D01*
X22307869Y32419268D01*
X22043665Y32528975D01*
X21757590Y32529225D01*
X21493195Y32419979D01*
X21290732Y32217869D01*
X21181025Y31953665D01*
X21180775Y31667590D01*
X21290021Y31403195D01*
X21492131Y31200732D01*
X21523000Y31187914D01*
X21523000Y31070000D01*
X21551697Y30925728D01*
X21633421Y30803421D01*
X22133264Y30303578D01*
X22255571Y30221854D01*
X22304279Y30212166D01*
X22304279Y30070157D01*
X22323786Y29966486D01*
X22304279Y29870157D01*
X22304279Y29670157D01*
X22323786Y29566486D01*
X22304279Y29470157D01*
X22304279Y29270157D01*
X22323786Y29166486D01*
X22304279Y29070157D01*
X22304279Y28870157D01*
X22323786Y28766486D01*
X22304279Y28670157D01*
X22304279Y28470157D01*
X22323786Y28366486D01*
X22304279Y28270157D01*
X22304279Y28070157D01*
X22323786Y27966486D01*
X22304279Y27870157D01*
X22304279Y27670157D01*
X22323786Y27566486D01*
X22304279Y27470157D01*
X22304279Y27270157D01*
X22323786Y27166486D01*
X22304279Y27070157D01*
X22304279Y26870157D01*
X22323786Y26766486D01*
X22304279Y26670157D01*
X22304279Y26470157D01*
X22323786Y26366486D01*
X22304279Y26270157D01*
X22304279Y26070157D01*
X22313846Y26019312D01*
X22226579Y26106579D01*
X22104272Y26188303D01*
X21960000Y26217000D01*
X20232294Y26217000D01*
X20219979Y26246805D01*
X20017869Y26449268D01*
X19753665Y26558975D01*
X19467590Y26559225D01*
X19203195Y26449979D01*
X19000732Y26247869D01*
X18891025Y25983665D01*
X18890775Y25697590D01*
X19000021Y25433195D01*
X19202131Y25230732D01*
X19466335Y25121025D01*
X19670874Y25120846D01*
X19670775Y25007590D01*
X19780021Y24743195D01*
X19982131Y24540732D01*
X20130419Y24479157D01*
X18875419Y23224157D01*
X18793695Y23101850D01*
X18764998Y22957578D01*
X18764998Y20118134D01*
X17867417Y19220553D01*
X17785693Y19098246D01*
X17756996Y18953974D01*
X17756996Y17945735D01*
X17726264Y17915002D01*
X16376842Y17915002D01*
X16232570Y17886305D01*
X16110263Y17804581D01*
X15892682Y17587000D01*
X11259494Y17587000D01*
X11266805Y17590021D01*
X11417046Y17740000D01*
X14340000Y17740000D01*
X14512208Y17774254D01*
X14658198Y17871802D01*
X15257368Y18470972D01*
X15482410Y18470775D01*
X15746805Y18580021D01*
X15949268Y18782131D01*
X16058975Y19046335D01*
X16059225Y19332410D01*
X15949979Y19596805D01*
X15747869Y19799268D01*
X15483665Y19908975D01*
X15197590Y19909225D01*
X14933195Y19799979D01*
X14730732Y19597869D01*
X14621025Y19333665D01*
X14620827Y19107223D01*
X14153604Y18640000D01*
X11436842Y18640000D01*
X11267869Y18809268D01*
X11003665Y18918975D01*
X10717590Y18919225D01*
X10453195Y18809979D01*
X10250732Y18607869D01*
X10141025Y18343665D01*
X10140775Y18057590D01*
X10250021Y17793195D01*
X10452131Y17590732D01*
X10461119Y17587000D01*
X7412294Y17587000D01*
X7399979Y17616805D01*
X7197869Y17819268D01*
X6933665Y17928975D01*
X6647590Y17929225D01*
X6392859Y17823972D01*
X6217869Y17999268D01*
X5953665Y18108975D01*
X5667590Y18109225D01*
X5403195Y17999979D01*
X5200732Y17797869D01*
X5091025Y17533665D01*
X5090775Y17247590D01*
X5200021Y16983195D01*
X5402131Y16780732D01*
X5666335Y16671025D01*
X5825956Y16670886D01*
X6253421Y16243420D01*
X6320944Y16198303D01*
X6375728Y16161697D01*
X6520000Y16133000D01*
X7700000Y16133000D01*
X7844272Y16161697D01*
X7966579Y16243421D01*
X8026614Y16303456D01*
X7981025Y16193665D01*
X7980775Y15907590D01*
X8090021Y15643195D01*
X8292131Y15440732D01*
X8556335Y15331025D01*
X8842410Y15330775D01*
X9106805Y15440021D01*
X9128215Y15461393D01*
X9071025Y15323665D01*
X9070775Y15037590D01*
X9180021Y14773195D01*
X9382131Y14570732D01*
X9646335Y14461025D01*
X9932410Y14460775D01*
X10065692Y14515846D01*
X10080000Y14513000D01*
X11339842Y14513000D01*
X11283449Y14456607D01*
X11253665Y14468975D01*
X10967590Y14469225D01*
X10703195Y14359979D01*
X10500732Y14157869D01*
X10391025Y13893665D01*
X10390775Y13607590D01*
X10500021Y13343195D01*
X10702131Y13140732D01*
X10966335Y13031025D01*
X11252410Y13030775D01*
X11516805Y13140021D01*
X11719268Y13342131D01*
X11828975Y13606335D01*
X11829225Y13892410D01*
X11816460Y13923302D01*
X12208577Y14315419D01*
X12750155Y14856996D01*
X19923996Y14856996D01*
X20068268Y14885693D01*
X20190575Y14967417D01*
X20257859Y15034701D01*
X20243000Y14960000D01*
X20243000Y3596158D01*
X17633842Y987000D01*
X13282294Y987000D01*
X13269979Y1016805D01*
X13067869Y1219268D01*
X12803665Y1328975D01*
X12517590Y1329225D01*
X12253195Y1219979D01*
X12050732Y1017869D01*
X11941025Y753665D01*
X11940775Y467590D01*
X12003759Y315157D01*
X1804628Y315157D01*
X1779533Y320149D01*
X2077117Y319889D01*
X2647013Y555365D01*
X3083416Y991006D01*
X3319886Y1560490D01*
X3320424Y2177118D01*
X3084948Y2747014D01*
X2649307Y3183417D01*
X2079823Y3419887D01*
X1463195Y3420425D01*
X893299Y3184949D01*
X456896Y2749308D01*
X220426Y2179824D01*
X220164Y1879452D01*
X215156Y1904629D01*
X215156Y6258448D01*
X4451802Y2021802D01*
X4597792Y1924254D01*
X4770000Y1890000D01*
X12330000Y1890000D01*
X12502208Y1924254D01*
X12648198Y2021802D01*
X13077368Y2450972D01*
X13302410Y2450775D01*
X13566805Y2560021D01*
X13769268Y2762131D01*
X13878975Y3026335D01*
X13879225Y3312410D01*
X13769979Y3576805D01*
X13567869Y3779268D01*
X13303665Y3888975D01*
X13017590Y3889225D01*
X12753195Y3779979D01*
X12550732Y3577869D01*
X12441025Y3313665D01*
X12440827Y3087223D01*
X12143604Y2790000D01*
X4956396Y2790000D01*
X710000Y7036396D01*
X710000Y7760855D01*
X926335Y7671025D01*
X1212410Y7670775D01*
X1476805Y7780021D01*
X1679268Y7982131D01*
X1788975Y8246335D01*
X1789225Y8532410D01*
X1679979Y8796805D01*
X1477869Y8999268D01*
X1447000Y9012086D01*
X1447000Y9043842D01*
X1966354Y9563196D01*
X2719888Y9563196D01*
X2955364Y8993300D01*
X3391005Y8556897D01*
X3960489Y8320427D01*
X4577117Y8319889D01*
X5147013Y8555365D01*
X5583416Y8991006D01*
X5819886Y9560490D01*
X5820424Y10177118D01*
X5584948Y10747014D01*
X5149307Y11183417D01*
X4579823Y11419887D01*
X3963195Y11420425D01*
X3393299Y11184949D01*
X2956896Y10749308D01*
X2720426Y10179824D01*
X2719888Y9563196D01*
X1966354Y9563196D01*
X2616579Y10213420D01*
X2698303Y10335728D01*
X2727000Y10480000D01*
X2727000Y10893842D01*
X3336158Y11503000D01*
X18153842Y11503000D01*
X18633393Y11023449D01*
X18621025Y10993665D01*
X18620775Y10707590D01*
X18730021Y10443195D01*
X18932131Y10240732D01*
X19196335Y10131025D01*
X19482410Y10130775D01*
X19746805Y10240021D01*
X19949268Y10442131D01*
X20058975Y10706335D01*
X20059225Y10992410D01*
X19949979Y11256805D01*
X19747869Y11459268D01*
X19483665Y11568975D01*
X19197590Y11569225D01*
X19166698Y11556460D01*
X18576579Y12146579D01*
X18454272Y12228303D01*
X18310000Y12257000D01*
X3180000Y12257000D01*
X3035728Y12228303D01*
X2913421Y12146579D01*
X2083421Y11316579D01*
X2001697Y11194272D01*
X1973000Y11050000D01*
X1973000Y10636159D01*
X803421Y9466579D01*
X721697Y9344272D01*
X710000Y9285466D01*
X710000Y12895309D01*
X1011248Y12806445D01*
X1178696Y12943942D01*
X1178696Y13665257D01*
X1158696Y13665257D01*
X1158696Y14073257D01*
X1178696Y14073257D01*
X1178696Y14794572D01*
X1011248Y14932069D01*
X710000Y14843205D01*
X710000Y19895309D01*
X1011248Y19806445D01*
X1178696Y19943942D01*
X1178696Y20665257D01*
X1158696Y20665257D01*
X1158696Y21073257D01*
X1178696Y21073257D01*
X1178696Y21794572D01*
X1586696Y21794572D01*
X1586696Y21073257D01*
X1606696Y21073257D01*
X1606696Y20665257D01*
X1586696Y20665257D01*
X1586696Y19943942D01*
X1754144Y19806445D01*
X2153523Y19924256D01*
X2240000Y19994122D01*
X2240000Y14744392D01*
X2153523Y14814258D01*
X1754144Y14932069D01*
X1586696Y14794572D01*
X1586696Y14073257D01*
X1606696Y14073257D01*
X1606696Y13665257D01*
X1586696Y13665257D01*
X1586696Y12943942D01*
X1754144Y12806445D01*
X2153523Y12924256D01*
X2477417Y13185935D01*
X2651148Y13505367D01*
X2553256Y13665255D01*
X2715696Y13665255D01*
X2715696Y13667908D01*
X3100972Y13282632D01*
X3100775Y13057590D01*
X3210021Y12793195D01*
X3412131Y12590732D01*
X3676335Y12481025D01*
X3962410Y12480775D01*
X4226805Y12590021D01*
X4429268Y12792131D01*
X4538975Y13056335D01*
X4539225Y13342410D01*
X4429979Y13606805D01*
X4286698Y13750336D01*
X4286698Y13849356D01*
X4442599Y13750981D01*
X4643052Y13856122D01*
X4930705Y14136263D01*
X5089256Y14505160D01*
X4970856Y14665257D01*
X4286696Y14665257D01*
X4286696Y14645257D01*
X3878696Y14645257D01*
X3878696Y14665257D01*
X3858696Y14665257D01*
X3858696Y15073257D01*
X3878696Y15073257D01*
X3878696Y15889157D01*
X4286696Y15889157D01*
X4286696Y15073257D01*
X4970856Y15073257D01*
X5089256Y15233354D01*
X4930705Y15602251D01*
X4643052Y15882392D01*
X4442599Y15987533D01*
X4286696Y15889157D01*
X3878696Y15889157D01*
X3722793Y15987533D01*
X3522340Y15882392D01*
X3234687Y15602251D01*
X3140000Y15381945D01*
X3140000Y19356569D01*
X3234687Y19136263D01*
X3522340Y18856122D01*
X3722793Y18750981D01*
X3878696Y18849357D01*
X3878696Y19665257D01*
X4286696Y19665257D01*
X4286696Y18849357D01*
X4442599Y18750981D01*
X4643052Y18856122D01*
X4930705Y19136263D01*
X5089256Y19505160D01*
X4970856Y19665257D01*
X4286696Y19665257D01*
X3878696Y19665257D01*
X3858696Y19665257D01*
X3858696Y20073257D01*
X3878696Y20073257D01*
X3878696Y20889157D01*
X4286696Y20889157D01*
X4286696Y20073257D01*
X4970856Y20073257D01*
X5089256Y20233354D01*
X4930705Y20602251D01*
X4643052Y20882392D01*
X4442599Y20987533D01*
X4286696Y20889157D01*
X3878696Y20889157D01*
X3722793Y20987533D01*
X3522340Y20882392D01*
X3234687Y20602251D01*
X3140000Y20381945D01*
X3140000Y21403604D01*
X4636396Y22900000D01*
X5900000Y22900000D01*
X6072208Y22934254D01*
X6218198Y23031802D01*
X7818198Y24631802D01*
X7843826Y24670157D01*
X7915746Y24777792D01*
X7950000Y24950000D01*
X7950000Y24953141D01*
X8109268Y25112131D01*
X8218975Y25376335D01*
X8219225Y25662410D01*
X8109979Y25926805D01*
X7907869Y26129268D01*
X7643665Y26238975D01*
X7357590Y26239225D01*
X7093195Y26129979D01*
X6890732Y25927869D01*
X6781025Y25663665D01*
X6780775Y25377590D01*
X6890021Y25113195D01*
X6958350Y25044746D01*
X5713604Y23800000D01*
X4450000Y23800000D01*
X4277792Y23765746D01*
X4168053Y23692420D01*
X4131802Y23668198D01*
X2371802Y21908198D01*
X2274254Y21762208D01*
X2266458Y21723016D01*
X2153523Y21814258D01*
X1754144Y21932069D01*
X1586696Y21794572D01*
X1178696Y21794572D01*
X1011248Y21932069D01*
X710000Y21843205D01*
X710000Y24395309D01*
X1011248Y24306445D01*
X1178696Y24443942D01*
X1178696Y25165257D01*
X1586696Y25165257D01*
X1586696Y24443942D01*
X1754144Y24306445D01*
X2153523Y24424256D01*
X2477417Y24685935D01*
X2651148Y25005367D01*
X2553255Y25165257D01*
X1586696Y25165257D01*
X1178696Y25165257D01*
X1158696Y25165257D01*
X1158696Y25573257D01*
X1178696Y25573257D01*
X1178696Y26294572D01*
X1586696Y26294572D01*
X1586696Y25573257D01*
X2553255Y25573257D01*
X2651148Y25733147D01*
X2477417Y26052579D01*
X2153523Y26314258D01*
X1754144Y26432069D01*
X1586696Y26294572D01*
X1178696Y26294572D01*
X1011248Y26432069D01*
X710000Y26343205D01*
X710000Y26733354D01*
X3076136Y26733354D01*
X3194536Y26573257D01*
X3878696Y26573257D01*
X3878696Y27389157D01*
X3722793Y27487533D01*
X3522340Y27382392D01*
X3234687Y27102251D01*
X3076136Y26733354D01*
X710000Y26733354D01*
X710000Y31005160D01*
X3076136Y31005160D01*
X3234687Y30636263D01*
X3522340Y30356122D01*
X3722793Y30250981D01*
X3878696Y30349357D01*
X3878696Y31165257D01*
X4286696Y31165257D01*
X4286696Y30349357D01*
X4442599Y30250981D01*
X4643052Y30356122D01*
X4930705Y30636263D01*
X5089256Y31005160D01*
X4970856Y31165257D01*
X4286696Y31165257D01*
X3878696Y31165257D01*
X3194536Y31165257D01*
X3076136Y31005160D01*
X710000Y31005160D01*
X710000Y31395309D01*
X1011248Y31306445D01*
X1178696Y31443942D01*
X1178696Y32165257D01*
X1586696Y32165257D01*
X1586696Y31443942D01*
X1754144Y31306445D01*
X2153523Y31424256D01*
X2477417Y31685935D01*
X2503206Y31733354D01*
X3076136Y31733354D01*
X3194536Y31573257D01*
X3878696Y31573257D01*
X3878696Y32389157D01*
X4286696Y32389157D01*
X4286696Y31573257D01*
X4970856Y31573257D01*
X5089256Y31733354D01*
X4930705Y32102251D01*
X4643052Y32382392D01*
X4442599Y32487533D01*
X4286696Y32389157D01*
X3878696Y32389157D01*
X3722793Y32487533D01*
X3522340Y32382392D01*
X3234687Y32102251D01*
X3076136Y31733354D01*
X2503206Y31733354D01*
X2651148Y32005367D01*
X2553255Y32165257D01*
X1586696Y32165257D01*
X1178696Y32165257D01*
X1158696Y32165257D01*
X1158696Y32573257D01*
X1178696Y32573257D01*
X1178696Y33294572D01*
X1062500Y33389984D01*
X1062500Y33825000D01*
X1437500Y33825000D01*
X1437500Y33206500D01*
X1577000Y33067000D01*
X1586696Y33067000D01*
X1586696Y32573257D01*
X2553255Y32573257D01*
X2651148Y32733147D01*
X2477417Y33052579D01*
X2459567Y33067000D01*
X2498000Y33067000D01*
X2637500Y33206500D01*
X2637500Y33825000D01*
X3012500Y33825000D01*
X3012500Y33206500D01*
X3152000Y33067000D01*
X3310993Y33067000D01*
X3516082Y33151951D01*
X3673050Y33308918D01*
X3758000Y33514007D01*
X3758000Y33685500D01*
X3618500Y33825000D01*
X3012500Y33825000D01*
X2637500Y33825000D01*
X1437500Y33825000D01*
X1062500Y33825000D01*
X1026000Y33825000D01*
X1026000Y34225000D01*
X1062500Y34225000D01*
X1062500Y34249000D01*
X1437500Y34249000D01*
X1437500Y34225000D01*
X2637500Y34225000D01*
X2637500Y34249000D01*
X3012500Y34249000D01*
X3012500Y34225000D01*
X3618500Y34225000D01*
X3758000Y34364500D01*
X3758000Y34535993D01*
X3673050Y34741082D01*
X3516082Y34898049D01*
X3431858Y34932936D01*
X3481778Y35005997D01*
X3495752Y35075000D01*
X5288604Y35075000D01*
X5941802Y34421802D01*
G36*
X26013392Y36153449D02*
X26001025Y36123665D01*
X26000775Y35837590D01*
X26110021Y35573195D01*
X26306838Y35376034D01*
X24960156Y35376034D01*
X24848983Y35355115D01*
X24746877Y35289412D01*
X24678378Y35189160D01*
X24654279Y35070157D01*
X24654279Y34870157D01*
X24673786Y34766486D01*
X24654279Y34670157D01*
X24654279Y34470157D01*
X24673786Y34366486D01*
X24654279Y34270157D01*
X24654279Y34070157D01*
X24673786Y33966486D01*
X24654279Y33870157D01*
X24654279Y33670157D01*
X24673786Y33566486D01*
X24654279Y33470157D01*
X24654279Y33270157D01*
X24673786Y33166486D01*
X24654279Y33070157D01*
X24654279Y32870157D01*
X24673786Y32766486D01*
X24654279Y32670157D01*
X24654279Y32470157D01*
X24673786Y32366486D01*
X24654279Y32270157D01*
X24654279Y32070157D01*
X24673786Y31966486D01*
X24654279Y31870157D01*
X24654279Y31670157D01*
X24673786Y31566486D01*
X24654279Y31470157D01*
X24654279Y31270157D01*
X24673786Y31166486D01*
X24654279Y31070157D01*
X24654279Y30870157D01*
X24673786Y30766486D01*
X24654279Y30670157D01*
X24654279Y30470157D01*
X24673786Y30366486D01*
X24654279Y30270157D01*
X24654279Y30070157D01*
X24673786Y29966486D01*
X24654279Y29870157D01*
X24654279Y29670157D01*
X24673786Y29566486D01*
X24654279Y29470157D01*
X24654279Y29270157D01*
X24673786Y29166486D01*
X24654279Y29070157D01*
X24654279Y28870157D01*
X24673786Y28766486D01*
X24654279Y28670157D01*
X24654279Y28470157D01*
X24673786Y28366486D01*
X24654279Y28270157D01*
X24654279Y28070157D01*
X24673786Y27966486D01*
X24654279Y27870157D01*
X24654279Y27670157D01*
X24673786Y27566486D01*
X24654279Y27470157D01*
X24654279Y27270157D01*
X24673786Y27166486D01*
X24654279Y27070157D01*
X24654279Y26870157D01*
X24673786Y26766486D01*
X24654279Y26670157D01*
X24654279Y26470157D01*
X24673786Y26366486D01*
X24654279Y26270157D01*
X24654279Y26070157D01*
X24673786Y25966486D01*
X24654279Y25870157D01*
X24654279Y25670157D01*
X24673786Y25566486D01*
X24654279Y25470157D01*
X24654279Y25270157D01*
X24673786Y25166486D01*
X24654279Y25070157D01*
X24654279Y24870157D01*
X24673786Y24766486D01*
X24671361Y24754510D01*
X24644074Y24743207D01*
X24487107Y24586239D01*
X24402156Y24381150D01*
X24402156Y24359657D01*
X24531340Y24230473D01*
X24487107Y24186239D01*
X24402156Y23981150D01*
X24402156Y23959164D01*
X24480446Y23770157D01*
X24402156Y23581150D01*
X24402156Y23559164D01*
X24480446Y23370157D01*
X24402156Y23181150D01*
X24402156Y23159164D01*
X24487107Y22954075D01*
X24531340Y22909841D01*
X24402156Y22780657D01*
X24402156Y22759164D01*
X24480446Y22570157D01*
X24402156Y22381150D01*
X24402156Y22359657D01*
X24541656Y22220157D01*
X24794644Y22220157D01*
X24841153Y22188379D01*
X24930070Y22170373D01*
X24848983Y22155115D01*
X24794656Y22120157D01*
X24541656Y22120157D01*
X24402156Y21980657D01*
X24402156Y21959164D01*
X24480446Y21770157D01*
X24402156Y21581150D01*
X24402156Y21559657D01*
X24541656Y21420157D01*
X24794644Y21420157D01*
X24841153Y21388379D01*
X24960156Y21364280D01*
X25899156Y21364280D01*
X25899156Y21320157D01*
X25879156Y21320157D01*
X25879156Y20851657D01*
X26018656Y20712157D01*
X26501149Y20712157D01*
X26706238Y20797107D01*
X26863205Y20954075D01*
X26880650Y20996192D01*
X27430992Y20445850D01*
X27430992Y19933004D01*
X21959400Y19933004D01*
X22528198Y20501802D01*
X22625747Y20647793D01*
X22660000Y20820000D01*
X22631302Y20964280D01*
X24040156Y20964280D01*
X24151329Y20985199D01*
X24253435Y21050902D01*
X24321934Y21151154D01*
X24327908Y21180657D01*
X24402156Y21180657D01*
X24402156Y21159164D01*
X24487107Y20954075D01*
X24644074Y20797107D01*
X24849163Y20712157D01*
X25331656Y20712157D01*
X25471156Y20851657D01*
X25471156Y21320157D01*
X24541656Y21320157D01*
X24402156Y21180657D01*
X24327908Y21180657D01*
X24346033Y21270157D01*
X24346033Y21470157D01*
X24326526Y21573828D01*
X24346033Y21670157D01*
X24346033Y21870157D01*
X24326526Y21973828D01*
X24346033Y22070157D01*
X24346033Y22270157D01*
X24326526Y22373828D01*
X24346033Y22470157D01*
X24346033Y22670157D01*
X24326526Y22773828D01*
X24346033Y22870157D01*
X24346033Y23070157D01*
X24326526Y23173828D01*
X24346033Y23270157D01*
X24346033Y23470157D01*
X24326526Y23573828D01*
X24346033Y23670157D01*
X24346033Y23870157D01*
X24326526Y23973828D01*
X24346033Y24070157D01*
X24346033Y24270157D01*
X24326526Y24373828D01*
X24346033Y24470157D01*
X24346033Y24670157D01*
X24326526Y24773828D01*
X24346033Y24870157D01*
X24346033Y25070157D01*
X24326526Y25173828D01*
X24346033Y25270157D01*
X24346033Y25470157D01*
X24326526Y25573828D01*
X24346033Y25670157D01*
X24346033Y25870157D01*
X24326526Y25973828D01*
X24346033Y26070157D01*
X24346033Y26270157D01*
X24326526Y26373828D01*
X24346033Y26470157D01*
X24346033Y26670157D01*
X24326526Y26773828D01*
X24346033Y26870157D01*
X24346033Y27070157D01*
X24326526Y27173828D01*
X24346033Y27270157D01*
X24346033Y27470157D01*
X24326526Y27573828D01*
X24346033Y27670157D01*
X24346033Y27870157D01*
X24326526Y27973828D01*
X24346033Y28070157D01*
X24346033Y28270157D01*
X24326526Y28373828D01*
X24346033Y28470157D01*
X24346033Y28670157D01*
X24326526Y28773828D01*
X24346033Y28870157D01*
X24346033Y29070157D01*
X24326526Y29173828D01*
X24346033Y29270157D01*
X24346033Y29470157D01*
X24326526Y29573828D01*
X24346033Y29670157D01*
X24346033Y29870157D01*
X24326526Y29973828D01*
X24346033Y30070157D01*
X24346033Y30270157D01*
X24326526Y30373828D01*
X24346033Y30470157D01*
X24346033Y30670157D01*
X24326526Y30773828D01*
X24346033Y30870157D01*
X24346033Y31070157D01*
X24326526Y31173828D01*
X24346033Y31270157D01*
X24346033Y31470157D01*
X24326526Y31573828D01*
X24346033Y31670157D01*
X24346033Y31870157D01*
X24326526Y31973828D01*
X24346033Y32070157D01*
X24346033Y32270157D01*
X24326526Y32373828D01*
X24346033Y32470157D01*
X24346033Y32670157D01*
X24326526Y32773828D01*
X24346033Y32870157D01*
X24346033Y33070157D01*
X24326526Y33173828D01*
X24346033Y33270157D01*
X24346033Y33470157D01*
X24326526Y33573828D01*
X24346033Y33670157D01*
X24346033Y33870157D01*
X24326526Y33973828D01*
X24346033Y34070157D01*
X24346033Y34270157D01*
X24326526Y34373828D01*
X24346033Y34470157D01*
X24346033Y34670157D01*
X24326526Y34773828D01*
X24346033Y34870157D01*
X24346033Y35070157D01*
X24325114Y35181330D01*
X24259411Y35283436D01*
X24159159Y35351935D01*
X24147462Y35354304D01*
X24466579Y35673421D01*
X24548303Y35795728D01*
X24577000Y35940000D01*
X24577000Y36223000D01*
X25943842Y36223000D01*
X26013392Y36153449D01*
X26013392Y36153449D01*
G37*
X26013392Y36153449D02*
X26001025Y36123665D01*
X26000775Y35837590D01*
X26110021Y35573195D01*
X26306838Y35376034D01*
X24960156Y35376034D01*
X24848983Y35355115D01*
X24746877Y35289412D01*
X24678378Y35189160D01*
X24654279Y35070157D01*
X24654279Y34870157D01*
X24673786Y34766486D01*
X24654279Y34670157D01*
X24654279Y34470157D01*
X24673786Y34366486D01*
X24654279Y34270157D01*
X24654279Y34070157D01*
X24673786Y33966486D01*
X24654279Y33870157D01*
X24654279Y33670157D01*
X24673786Y33566486D01*
X24654279Y33470157D01*
X24654279Y33270157D01*
X24673786Y33166486D01*
X24654279Y33070157D01*
X24654279Y32870157D01*
X24673786Y32766486D01*
X24654279Y32670157D01*
X24654279Y32470157D01*
X24673786Y32366486D01*
X24654279Y32270157D01*
X24654279Y32070157D01*
X24673786Y31966486D01*
X24654279Y31870157D01*
X24654279Y31670157D01*
X24673786Y31566486D01*
X24654279Y31470157D01*
X24654279Y31270157D01*
X24673786Y31166486D01*
X24654279Y31070157D01*
X24654279Y30870157D01*
X24673786Y30766486D01*
X24654279Y30670157D01*
X24654279Y30470157D01*
X24673786Y30366486D01*
X24654279Y30270157D01*
X24654279Y30070157D01*
X24673786Y29966486D01*
X24654279Y29870157D01*
X24654279Y29670157D01*
X24673786Y29566486D01*
X24654279Y29470157D01*
X24654279Y29270157D01*
X24673786Y29166486D01*
X24654279Y29070157D01*
X24654279Y28870157D01*
X24673786Y28766486D01*
X24654279Y28670157D01*
X24654279Y28470157D01*
X24673786Y28366486D01*
X24654279Y28270157D01*
X24654279Y28070157D01*
X24673786Y27966486D01*
X24654279Y27870157D01*
X24654279Y27670157D01*
X24673786Y27566486D01*
X24654279Y27470157D01*
X24654279Y27270157D01*
X24673786Y27166486D01*
X24654279Y27070157D01*
X24654279Y26870157D01*
X24673786Y26766486D01*
X24654279Y26670157D01*
X24654279Y26470157D01*
X24673786Y26366486D01*
X24654279Y26270157D01*
X24654279Y26070157D01*
X24673786Y25966486D01*
X24654279Y25870157D01*
X24654279Y25670157D01*
X24673786Y25566486D01*
X24654279Y25470157D01*
X24654279Y25270157D01*
X24673786Y25166486D01*
X24654279Y25070157D01*
X24654279Y24870157D01*
X24673786Y24766486D01*
X24671361Y24754510D01*
X24644074Y24743207D01*
X24487107Y24586239D01*
X24402156Y24381150D01*
X24402156Y24359657D01*
X24531340Y24230473D01*
X24487107Y24186239D01*
X24402156Y23981150D01*
X24402156Y23959164D01*
X24480446Y23770157D01*
X24402156Y23581150D01*
X24402156Y23559164D01*
X24480446Y23370157D01*
X24402156Y23181150D01*
X24402156Y23159164D01*
X24487107Y22954075D01*
X24531340Y22909841D01*
X24402156Y22780657D01*
X24402156Y22759164D01*
X24480446Y22570157D01*
X24402156Y22381150D01*
X24402156Y22359657D01*
X24541656Y22220157D01*
X24794644Y22220157D01*
X24841153Y22188379D01*
X24930070Y22170373D01*
X24848983Y22155115D01*
X24794656Y22120157D01*
X24541656Y22120157D01*
X24402156Y21980657D01*
X24402156Y21959164D01*
X24480446Y21770157D01*
X24402156Y21581150D01*
X24402156Y21559657D01*
X24541656Y21420157D01*
X24794644Y21420157D01*
X24841153Y21388379D01*
X24960156Y21364280D01*
X25899156Y21364280D01*
X25899156Y21320157D01*
X25879156Y21320157D01*
X25879156Y20851657D01*
X26018656Y20712157D01*
X26501149Y20712157D01*
X26706238Y20797107D01*
X26863205Y20954075D01*
X26880650Y20996192D01*
X27430992Y20445850D01*
X27430992Y19933004D01*
X21959400Y19933004D01*
X22528198Y20501802D01*
X22625747Y20647793D01*
X22660000Y20820000D01*
X22631302Y20964280D01*
X24040156Y20964280D01*
X24151329Y20985199D01*
X24253435Y21050902D01*
X24321934Y21151154D01*
X24327908Y21180657D01*
X24402156Y21180657D01*
X24402156Y21159164D01*
X24487107Y20954075D01*
X24644074Y20797107D01*
X24849163Y20712157D01*
X25331656Y20712157D01*
X25471156Y20851657D01*
X25471156Y21320157D01*
X24541656Y21320157D01*
X24402156Y21180657D01*
X24327908Y21180657D01*
X24346033Y21270157D01*
X24346033Y21470157D01*
X24326526Y21573828D01*
X24346033Y21670157D01*
X24346033Y21870157D01*
X24326526Y21973828D01*
X24346033Y22070157D01*
X24346033Y22270157D01*
X24326526Y22373828D01*
X24346033Y22470157D01*
X24346033Y22670157D01*
X24326526Y22773828D01*
X24346033Y22870157D01*
X24346033Y23070157D01*
X24326526Y23173828D01*
X24346033Y23270157D01*
X24346033Y23470157D01*
X24326526Y23573828D01*
X24346033Y23670157D01*
X24346033Y23870157D01*
X24326526Y23973828D01*
X24346033Y24070157D01*
X24346033Y24270157D01*
X24326526Y24373828D01*
X24346033Y24470157D01*
X24346033Y24670157D01*
X24326526Y24773828D01*
X24346033Y24870157D01*
X24346033Y25070157D01*
X24326526Y25173828D01*
X24346033Y25270157D01*
X24346033Y25470157D01*
X24326526Y25573828D01*
X24346033Y25670157D01*
X24346033Y25870157D01*
X24326526Y25973828D01*
X24346033Y26070157D01*
X24346033Y26270157D01*
X24326526Y26373828D01*
X24346033Y26470157D01*
X24346033Y26670157D01*
X24326526Y26773828D01*
X24346033Y26870157D01*
X24346033Y27070157D01*
X24326526Y27173828D01*
X24346033Y27270157D01*
X24346033Y27470157D01*
X24326526Y27573828D01*
X24346033Y27670157D01*
X24346033Y27870157D01*
X24326526Y27973828D01*
X24346033Y28070157D01*
X24346033Y28270157D01*
X24326526Y28373828D01*
X24346033Y28470157D01*
X24346033Y28670157D01*
X24326526Y28773828D01*
X24346033Y28870157D01*
X24346033Y29070157D01*
X24326526Y29173828D01*
X24346033Y29270157D01*
X24346033Y29470157D01*
X24326526Y29573828D01*
X24346033Y29670157D01*
X24346033Y29870157D01*
X24326526Y29973828D01*
X24346033Y30070157D01*
X24346033Y30270157D01*
X24326526Y30373828D01*
X24346033Y30470157D01*
X24346033Y30670157D01*
X24326526Y30773828D01*
X24346033Y30870157D01*
X24346033Y31070157D01*
X24326526Y31173828D01*
X24346033Y31270157D01*
X24346033Y31470157D01*
X24326526Y31573828D01*
X24346033Y31670157D01*
X24346033Y31870157D01*
X24326526Y31973828D01*
X24346033Y32070157D01*
X24346033Y32270157D01*
X24326526Y32373828D01*
X24346033Y32470157D01*
X24346033Y32670157D01*
X24326526Y32773828D01*
X24346033Y32870157D01*
X24346033Y33070157D01*
X24326526Y33173828D01*
X24346033Y33270157D01*
X24346033Y33470157D01*
X24326526Y33573828D01*
X24346033Y33670157D01*
X24346033Y33870157D01*
X24326526Y33973828D01*
X24346033Y34070157D01*
X24346033Y34270157D01*
X24326526Y34373828D01*
X24346033Y34470157D01*
X24346033Y34670157D01*
X24326526Y34773828D01*
X24346033Y34870157D01*
X24346033Y35070157D01*
X24325114Y35181330D01*
X24259411Y35283436D01*
X24159159Y35351935D01*
X24147462Y35354304D01*
X24466579Y35673421D01*
X24548303Y35795728D01*
X24577000Y35940000D01*
X24577000Y36223000D01*
X25943842Y36223000D01*
X26013392Y36153449D01*
G36*
X27166996Y23538685D02*
X27166996Y23509264D01*
X27195693Y23364992D01*
X27277417Y23242685D01*
X27738994Y22781108D01*
X27738994Y21204164D01*
X26906422Y22036736D01*
X26863190Y22065623D01*
X26808656Y22120157D01*
X26775583Y22120157D01*
X26639843Y22147157D01*
X26516152Y22147157D01*
X26509159Y22151935D01*
X26420242Y22169941D01*
X26501329Y22185199D01*
X26555656Y22220157D01*
X26808656Y22220157D01*
X26948156Y22359657D01*
X26948156Y22381150D01*
X26869866Y22570157D01*
X26948156Y22759164D01*
X26948156Y22780657D01*
X26818972Y22909841D01*
X26863205Y22954075D01*
X26948156Y23159164D01*
X26948156Y23181150D01*
X26869866Y23370157D01*
X26948156Y23559164D01*
X26948156Y23757526D01*
X27166996Y23538685D01*
X27166996Y23538685D01*
G37*
X27166996Y23538685D02*
X27166996Y23509264D01*
X27195693Y23364992D01*
X27277417Y23242685D01*
X27738994Y22781108D01*
X27738994Y21204164D01*
X26906422Y22036736D01*
X26863190Y22065623D01*
X26808656Y22120157D01*
X26775583Y22120157D01*
X26639843Y22147157D01*
X26516152Y22147157D01*
X26509159Y22151935D01*
X26420242Y22169941D01*
X26501329Y22185199D01*
X26555656Y22220157D01*
X26808656Y22220157D01*
X26948156Y22359657D01*
X26948156Y22381150D01*
X26869866Y22570157D01*
X26948156Y22759164D01*
X26948156Y22780657D01*
X26818972Y22909841D01*
X26863205Y22954075D01*
X26948156Y23159164D01*
X26948156Y23181150D01*
X26869866Y23370157D01*
X26948156Y23559164D01*
X26948156Y23757526D01*
X27166996Y23538685D01*
G36*
X25879156Y23270157D02*
X25471156Y23270157D01*
X25471156Y23870157D01*
X25879156Y23870157D01*
X25879156Y23270157D01*
X25879156Y23270157D01*
G37*
X25879156Y23270157D02*
X25471156Y23270157D01*
X25471156Y23870157D01*
X25879156Y23870157D01*
X25879156Y23270157D01*
G36*
X29995156Y31811951D02*
X29977869Y31829268D01*
X29713665Y31938975D01*
X29427590Y31939225D01*
X29396698Y31926460D01*
X28086422Y33236736D01*
X27964115Y33318460D01*
X27819843Y33347157D01*
X26696033Y33347157D01*
X26696033Y33470157D01*
X26676526Y33573828D01*
X26696033Y33670157D01*
X26696033Y33870157D01*
X26676526Y33973828D01*
X26696033Y34070157D01*
X26696033Y34270157D01*
X26676526Y34373828D01*
X26696033Y34470157D01*
X26696033Y34670157D01*
X26676526Y34773828D01*
X26696033Y34870157D01*
X26696033Y35070157D01*
X26675114Y35181330D01*
X26623859Y35260983D01*
X26862410Y35260775D01*
X27126805Y35370021D01*
X27329268Y35572131D01*
X27438975Y35836335D01*
X27439225Y36122410D01*
X27329979Y36386805D01*
X27127869Y36589268D01*
X26863665Y36698975D01*
X26577590Y36699225D01*
X26546698Y36686461D01*
X26366579Y36866579D01*
X26244272Y36948303D01*
X26100000Y36977000D01*
X24356158Y36977000D01*
X24153901Y37179257D01*
X24560489Y37010427D01*
X25177117Y37009889D01*
X25747013Y37245365D01*
X26183416Y37681006D01*
X26419886Y38250490D01*
X26420424Y38867118D01*
X26184948Y39437014D01*
X25749307Y39873417D01*
X25179823Y40109887D01*
X25066839Y40109986D01*
X25229268Y40272131D01*
X25338975Y40536335D01*
X25339225Y40822410D01*
X25229979Y41086805D01*
X25027869Y41289268D01*
X24763665Y41398975D01*
X24477590Y41399225D01*
X24213195Y41289979D01*
X24010732Y41087869D01*
X23901025Y40823665D01*
X23900775Y40537590D01*
X23913540Y40506698D01*
X23348998Y39942156D01*
X23348998Y41075840D01*
X23516551Y41243393D01*
X23546335Y41231025D01*
X23832410Y41230775D01*
X24096805Y41340021D01*
X24299268Y41542131D01*
X24408975Y41806335D01*
X24409225Y42092410D01*
X24363450Y42203196D01*
X26889888Y42203196D01*
X27125364Y41633300D01*
X27561005Y41196897D01*
X28130489Y40960427D01*
X28747117Y40959889D01*
X29317013Y41195365D01*
X29753416Y41631006D01*
X29989886Y42200490D01*
X29990424Y42817118D01*
X29754948Y43387014D01*
X29319307Y43823417D01*
X28749823Y44059887D01*
X28133195Y44060425D01*
X27563299Y43824949D01*
X27126896Y43389308D01*
X26890426Y42819824D01*
X26889888Y42203196D01*
X24363450Y42203196D01*
X24299979Y42356805D01*
X24097869Y42559268D01*
X23833665Y42668975D01*
X23547590Y42669225D01*
X23408570Y42611783D01*
X23609268Y42812131D01*
X23718975Y43076335D01*
X23719225Y43362410D01*
X23609979Y43626805D01*
X23407869Y43829268D01*
X23143665Y43938975D01*
X22857590Y43939225D01*
X22593195Y43829979D01*
X22390732Y43627869D01*
X22281025Y43363665D01*
X22280775Y43077590D01*
X22301132Y43028323D01*
X22271697Y42984272D01*
X22243000Y42840000D01*
X22243000Y38806158D01*
X21534210Y38097368D01*
X21534210Y40132790D01*
X21505513Y40277062D01*
X21423789Y40399369D01*
X20356579Y41466579D01*
X20234272Y41548303D01*
X20090000Y41577000D01*
X19382294Y41577000D01*
X19369979Y41606805D01*
X19167869Y41809268D01*
X19072483Y41848876D01*
X19194086Y41899121D01*
X19415103Y42119753D01*
X19534863Y42408169D01*
X19535136Y42720461D01*
X19415879Y43009086D01*
X19195247Y43230103D01*
X18906831Y43349863D01*
X18594539Y43350136D01*
X18305914Y43230879D01*
X18084897Y43010247D01*
X17965137Y42721831D01*
X17964864Y42409539D01*
X18084121Y42120914D01*
X18304753Y41899897D01*
X18437455Y41844795D01*
X18353195Y41809979D01*
X18150732Y41607869D01*
X18041025Y41343665D01*
X18040775Y41057590D01*
X18150021Y40793195D01*
X18283056Y40659928D01*
X18130732Y40507869D01*
X18021025Y40243665D01*
X18020775Y39957590D01*
X18130021Y39693195D01*
X18332131Y39490732D01*
X18403375Y39461149D01*
X18305914Y39420879D01*
X18084897Y39200247D01*
X17965137Y38911831D01*
X17964864Y38599539D01*
X18029112Y38444046D01*
X17586579Y38886579D01*
X17464272Y38968303D01*
X17320000Y38997000D01*
X15462294Y38997000D01*
X15449979Y39026805D01*
X15247869Y39229268D01*
X14983665Y39338975D01*
X14697590Y39339225D01*
X14540000Y39274110D01*
X14540000Y40630838D01*
X14612410Y40630775D01*
X14876805Y40740021D01*
X15079268Y40942131D01*
X15188975Y41206335D01*
X15189225Y41492410D01*
X15079979Y41756805D01*
X14877869Y41959268D01*
X14613665Y42068975D01*
X14327590Y42069225D01*
X14063195Y41959979D01*
X13860732Y41757869D01*
X13751025Y41493665D01*
X13750818Y41256793D01*
X13674254Y41142208D01*
X13640000Y40970000D01*
X13640000Y38200000D01*
X13674254Y38027792D01*
X13753674Y37908932D01*
X13771802Y37881802D01*
X14291802Y37361802D01*
X14437792Y37264254D01*
X14610000Y37230000D01*
X15010000Y37230000D01*
X15010000Y34076859D01*
X14850732Y33917869D01*
X14741025Y33653665D01*
X14740775Y33367590D01*
X14850021Y33103195D01*
X15052131Y32900732D01*
X15316335Y32791025D01*
X15370000Y32790978D01*
X15370000Y32586859D01*
X15210732Y32427869D01*
X15101025Y32163665D01*
X15100827Y31937223D01*
X15081802Y31918198D01*
X14984254Y31772208D01*
X14950000Y31600000D01*
X14950000Y27880000D01*
X14984254Y27707792D01*
X15040466Y27623665D01*
X15080972Y27563044D01*
X15080775Y27337590D01*
X15176879Y27105002D01*
X10513737Y27105002D01*
X7904790Y29713948D01*
X7904790Y30357310D01*
X8141648Y30455178D01*
X8344111Y30657288D01*
X8453818Y30921492D01*
X8454068Y31207567D01*
X8344822Y31471962D01*
X8142712Y31674425D01*
X7878508Y31784132D01*
X7592433Y31784382D01*
X7328038Y31675136D01*
X7125575Y31473026D01*
X7015868Y31208822D01*
X7015618Y30922747D01*
X7124864Y30658352D01*
X7150790Y30632381D01*
X7150790Y30516272D01*
X7107869Y30559268D01*
X6843665Y30668975D01*
X6557590Y30669225D01*
X6293195Y30559979D01*
X6220000Y30486912D01*
X6220000Y31453604D01*
X7156553Y32390157D01*
X7773297Y32390157D01*
X7932287Y32230889D01*
X8196491Y32121182D01*
X8482566Y32120932D01*
X8746961Y32230178D01*
X8949424Y32432288D01*
X9059131Y32696492D01*
X9059381Y32982567D01*
X8950135Y33246962D01*
X8790156Y33407220D01*
X8790156Y33423760D01*
X9387368Y34020972D01*
X9612410Y34020775D01*
X9876805Y34130021D01*
X10079268Y34332131D01*
X10188975Y34596335D01*
X10189225Y34882410D01*
X10079979Y35146805D01*
X9877869Y35349268D01*
X9613665Y35458975D01*
X9327590Y35459225D01*
X9063195Y35349979D01*
X8902937Y35190000D01*
X6446396Y35190000D01*
X5793198Y35843198D01*
X5757576Y35867000D01*
X5647208Y35940746D01*
X5475000Y35975000D01*
X3496469Y35975000D01*
X3484958Y36036173D01*
X3419255Y36138279D01*
X3319003Y36206778D01*
X3275000Y36215689D01*
X3275000Y37400000D01*
X3259382Y37478519D01*
X3240747Y37572207D01*
X3143198Y37718198D01*
X3104002Y37757394D01*
X3104002Y37768233D01*
X3239525Y37632710D01*
X3411043Y37632710D01*
X3616132Y37717660D01*
X3773099Y37874628D01*
X3858050Y38079717D01*
X3858050Y38251235D01*
X3718550Y38390735D01*
X3100025Y38390735D01*
X3100025Y38366760D01*
X2699975Y38366760D01*
X2699975Y38390735D01*
X2081450Y38390735D01*
X1941950Y38251235D01*
X1941950Y38079717D01*
X1958401Y38040000D01*
X1660164Y38040000D01*
X1681828Y38071707D01*
X1705927Y38190710D01*
X1705927Y38990810D01*
X1685042Y39101803D01*
X1941950Y39101803D01*
X1941950Y38930285D01*
X2081450Y38790785D01*
X2699975Y38790785D01*
X2699975Y39409310D01*
X3100025Y39409310D01*
X3100025Y38790785D01*
X3718550Y38790785D01*
X3858050Y38930285D01*
X3858050Y39101803D01*
X3773099Y39306892D01*
X3616132Y39463860D01*
X3411043Y39548810D01*
X3239525Y39548810D01*
X3100025Y39409310D01*
X2699975Y39409310D01*
X2560475Y39548810D01*
X2388957Y39548810D01*
X2183868Y39463860D01*
X2026901Y39306892D01*
X1941950Y39101803D01*
X1685042Y39101803D01*
X1685008Y39101983D01*
X1619305Y39204089D01*
X1519053Y39272588D01*
X1400050Y39296687D01*
X599950Y39296687D01*
X488777Y39275768D01*
X386671Y39210065D01*
X318172Y39109813D01*
X294073Y38990810D01*
X294073Y38190710D01*
X314992Y38079537D01*
X380695Y37977431D01*
X480947Y37908932D01*
X550000Y37894948D01*
X550000Y37840000D01*
X584254Y37667792D01*
X648122Y37572208D01*
X681802Y37521802D01*
X931802Y37271802D01*
X1077792Y37174254D01*
X1250000Y37140000D01*
X1288101Y37140000D01*
X1268172Y37110833D01*
X1244073Y36991830D01*
X1244073Y36973783D01*
X1148582Y36909978D01*
X931802Y36693198D01*
X834254Y36547208D01*
X800000Y36375000D01*
X800000Y36216765D01*
X763827Y36209958D01*
X661721Y36144255D01*
X593222Y36044003D01*
X578377Y35970699D01*
X427793Y35940747D01*
X281802Y35843198D01*
X215156Y35776552D01*
X215156Y42203196D01*
X219888Y42203196D01*
X455364Y41633300D01*
X891005Y41196897D01*
X1460489Y40960427D01*
X2077117Y40959889D01*
X2647013Y41195365D01*
X3083416Y41631006D01*
X3319886Y42200490D01*
X3320424Y42817118D01*
X3084948Y43387014D01*
X2649307Y43823417D01*
X2079823Y44059887D01*
X1463195Y44060425D01*
X893299Y43824949D01*
X456896Y43389308D01*
X220426Y42819824D01*
X219888Y42203196D01*
X215156Y42203196D01*
X215156Y44430157D01*
X29995156Y44430157D01*
X29995156Y31811951D01*
X29995156Y31811951D01*
G37*
X29995156Y31811951D02*
X29977869Y31829268D01*
X29713665Y31938975D01*
X29427590Y31939225D01*
X29396698Y31926460D01*
X28086422Y33236736D01*
X27964115Y33318460D01*
X27819843Y33347157D01*
X26696033Y33347157D01*
X26696033Y33470157D01*
X26676526Y33573828D01*
X26696033Y33670157D01*
X26696033Y33870157D01*
X26676526Y33973828D01*
X26696033Y34070157D01*
X26696033Y34270157D01*
X26676526Y34373828D01*
X26696033Y34470157D01*
X26696033Y34670157D01*
X26676526Y34773828D01*
X26696033Y34870157D01*
X26696033Y35070157D01*
X26675114Y35181330D01*
X26623859Y35260983D01*
X26862410Y35260775D01*
X27126805Y35370021D01*
X27329268Y35572131D01*
X27438975Y35836335D01*
X27439225Y36122410D01*
X27329979Y36386805D01*
X27127869Y36589268D01*
X26863665Y36698975D01*
X26577590Y36699225D01*
X26546698Y36686461D01*
X26366579Y36866579D01*
X26244272Y36948303D01*
X26100000Y36977000D01*
X24356158Y36977000D01*
X24153901Y37179257D01*
X24560489Y37010427D01*
X25177117Y37009889D01*
X25747013Y37245365D01*
X26183416Y37681006D01*
X26419886Y38250490D01*
X26420424Y38867118D01*
X26184948Y39437014D01*
X25749307Y39873417D01*
X25179823Y40109887D01*
X25066839Y40109986D01*
X25229268Y40272131D01*
X25338975Y40536335D01*
X25339225Y40822410D01*
X25229979Y41086805D01*
X25027869Y41289268D01*
X24763665Y41398975D01*
X24477590Y41399225D01*
X24213195Y41289979D01*
X24010732Y41087869D01*
X23901025Y40823665D01*
X23900775Y40537590D01*
X23913540Y40506698D01*
X23348998Y39942156D01*
X23348998Y41075840D01*
X23516551Y41243393D01*
X23546335Y41231025D01*
X23832410Y41230775D01*
X24096805Y41340021D01*
X24299268Y41542131D01*
X24408975Y41806335D01*
X24409225Y42092410D01*
X24363450Y42203196D01*
X26889888Y42203196D01*
X27125364Y41633300D01*
X27561005Y41196897D01*
X28130489Y40960427D01*
X28747117Y40959889D01*
X29317013Y41195365D01*
X29753416Y41631006D01*
X29989886Y42200490D01*
X29990424Y42817118D01*
X29754948Y43387014D01*
X29319307Y43823417D01*
X28749823Y44059887D01*
X28133195Y44060425D01*
X27563299Y43824949D01*
X27126896Y43389308D01*
X26890426Y42819824D01*
X26889888Y42203196D01*
X24363450Y42203196D01*
X24299979Y42356805D01*
X24097869Y42559268D01*
X23833665Y42668975D01*
X23547590Y42669225D01*
X23408570Y42611783D01*
X23609268Y42812131D01*
X23718975Y43076335D01*
X23719225Y43362410D01*
X23609979Y43626805D01*
X23407869Y43829268D01*
X23143665Y43938975D01*
X22857590Y43939225D01*
X22593195Y43829979D01*
X22390732Y43627869D01*
X22281025Y43363665D01*
X22280775Y43077590D01*
X22301132Y43028323D01*
X22271697Y42984272D01*
X22243000Y42840000D01*
X22243000Y38806158D01*
X21534210Y38097368D01*
X21534210Y40132790D01*
X21505513Y40277062D01*
X21423789Y40399369D01*
X20356579Y41466579D01*
X20234272Y41548303D01*
X20090000Y41577000D01*
X19382294Y41577000D01*
X19369979Y41606805D01*
X19167869Y41809268D01*
X19072483Y41848876D01*
X19194086Y41899121D01*
X19415103Y42119753D01*
X19534863Y42408169D01*
X19535136Y42720461D01*
X19415879Y43009086D01*
X19195247Y43230103D01*
X18906831Y43349863D01*
X18594539Y43350136D01*
X18305914Y43230879D01*
X18084897Y43010247D01*
X17965137Y42721831D01*
X17964864Y42409539D01*
X18084121Y42120914D01*
X18304753Y41899897D01*
X18437455Y41844795D01*
X18353195Y41809979D01*
X18150732Y41607869D01*
X18041025Y41343665D01*
X18040775Y41057590D01*
X18150021Y40793195D01*
X18283056Y40659928D01*
X18130732Y40507869D01*
X18021025Y40243665D01*
X18020775Y39957590D01*
X18130021Y39693195D01*
X18332131Y39490732D01*
X18403375Y39461149D01*
X18305914Y39420879D01*
X18084897Y39200247D01*
X17965137Y38911831D01*
X17964864Y38599539D01*
X18029112Y38444046D01*
X17586579Y38886579D01*
X17464272Y38968303D01*
X17320000Y38997000D01*
X15462294Y38997000D01*
X15449979Y39026805D01*
X15247869Y39229268D01*
X14983665Y39338975D01*
X14697590Y39339225D01*
X14540000Y39274110D01*
X14540000Y40630838D01*
X14612410Y40630775D01*
X14876805Y40740021D01*
X15079268Y40942131D01*
X15188975Y41206335D01*
X15189225Y41492410D01*
X15079979Y41756805D01*
X14877869Y41959268D01*
X14613665Y42068975D01*
X14327590Y42069225D01*
X14063195Y41959979D01*
X13860732Y41757869D01*
X13751025Y41493665D01*
X13750818Y41256793D01*
X13674254Y41142208D01*
X13640000Y40970000D01*
X13640000Y38200000D01*
X13674254Y38027792D01*
X13753674Y37908932D01*
X13771802Y37881802D01*
X14291802Y37361802D01*
X14437792Y37264254D01*
X14610000Y37230000D01*
X15010000Y37230000D01*
X15010000Y34076859D01*
X14850732Y33917869D01*
X14741025Y33653665D01*
X14740775Y33367590D01*
X14850021Y33103195D01*
X15052131Y32900732D01*
X15316335Y32791025D01*
X15370000Y32790978D01*
X15370000Y32586859D01*
X15210732Y32427869D01*
X15101025Y32163665D01*
X15100827Y31937223D01*
X15081802Y31918198D01*
X14984254Y31772208D01*
X14950000Y31600000D01*
X14950000Y27880000D01*
X14984254Y27707792D01*
X15040466Y27623665D01*
X15080972Y27563044D01*
X15080775Y27337590D01*
X15176879Y27105002D01*
X10513737Y27105002D01*
X7904790Y29713948D01*
X7904790Y30357310D01*
X8141648Y30455178D01*
X8344111Y30657288D01*
X8453818Y30921492D01*
X8454068Y31207567D01*
X8344822Y31471962D01*
X8142712Y31674425D01*
X7878508Y31784132D01*
X7592433Y31784382D01*
X7328038Y31675136D01*
X7125575Y31473026D01*
X7015868Y31208822D01*
X7015618Y30922747D01*
X7124864Y30658352D01*
X7150790Y30632381D01*
X7150790Y30516272D01*
X7107869Y30559268D01*
X6843665Y30668975D01*
X6557590Y30669225D01*
X6293195Y30559979D01*
X6220000Y30486912D01*
X6220000Y31453604D01*
X7156553Y32390157D01*
X7773297Y32390157D01*
X7932287Y32230889D01*
X8196491Y32121182D01*
X8482566Y32120932D01*
X8746961Y32230178D01*
X8949424Y32432288D01*
X9059131Y32696492D01*
X9059381Y32982567D01*
X8950135Y33246962D01*
X8790156Y33407220D01*
X8790156Y33423760D01*
X9387368Y34020972D01*
X9612410Y34020775D01*
X9876805Y34130021D01*
X10079268Y34332131D01*
X10188975Y34596335D01*
X10189225Y34882410D01*
X10079979Y35146805D01*
X9877869Y35349268D01*
X9613665Y35458975D01*
X9327590Y35459225D01*
X9063195Y35349979D01*
X8902937Y35190000D01*
X6446396Y35190000D01*
X5793198Y35843198D01*
X5757576Y35867000D01*
X5647208Y35940746D01*
X5475000Y35975000D01*
X3496469Y35975000D01*
X3484958Y36036173D01*
X3419255Y36138279D01*
X3319003Y36206778D01*
X3275000Y36215689D01*
X3275000Y37400000D01*
X3259382Y37478519D01*
X3240747Y37572207D01*
X3143198Y37718198D01*
X3104002Y37757394D01*
X3104002Y37768233D01*
X3239525Y37632710D01*
X3411043Y37632710D01*
X3616132Y37717660D01*
X3773099Y37874628D01*
X3858050Y38079717D01*
X3858050Y38251235D01*
X3718550Y38390735D01*
X3100025Y38390735D01*
X3100025Y38366760D01*
X2699975Y38366760D01*
X2699975Y38390735D01*
X2081450Y38390735D01*
X1941950Y38251235D01*
X1941950Y38079717D01*
X1958401Y38040000D01*
X1660164Y38040000D01*
X1681828Y38071707D01*
X1705927Y38190710D01*
X1705927Y38990810D01*
X1685042Y39101803D01*
X1941950Y39101803D01*
X1941950Y38930285D01*
X2081450Y38790785D01*
X2699975Y38790785D01*
X2699975Y39409310D01*
X3100025Y39409310D01*
X3100025Y38790785D01*
X3718550Y38790785D01*
X3858050Y38930285D01*
X3858050Y39101803D01*
X3773099Y39306892D01*
X3616132Y39463860D01*
X3411043Y39548810D01*
X3239525Y39548810D01*
X3100025Y39409310D01*
X2699975Y39409310D01*
X2560475Y39548810D01*
X2388957Y39548810D01*
X2183868Y39463860D01*
X2026901Y39306892D01*
X1941950Y39101803D01*
X1685042Y39101803D01*
X1685008Y39101983D01*
X1619305Y39204089D01*
X1519053Y39272588D01*
X1400050Y39296687D01*
X599950Y39296687D01*
X488777Y39275768D01*
X386671Y39210065D01*
X318172Y39109813D01*
X294073Y38990810D01*
X294073Y38190710D01*
X314992Y38079537D01*
X380695Y37977431D01*
X480947Y37908932D01*
X550000Y37894948D01*
X550000Y37840000D01*
X584254Y37667792D01*
X648122Y37572208D01*
X681802Y37521802D01*
X931802Y37271802D01*
X1077792Y37174254D01*
X1250000Y37140000D01*
X1288101Y37140000D01*
X1268172Y37110833D01*
X1244073Y36991830D01*
X1244073Y36973783D01*
X1148582Y36909978D01*
X931802Y36693198D01*
X834254Y36547208D01*
X800000Y36375000D01*
X800000Y36216765D01*
X763827Y36209958D01*
X661721Y36144255D01*
X593222Y36044003D01*
X578377Y35970699D01*
X427793Y35940747D01*
X281802Y35843198D01*
X215156Y35776552D01*
X215156Y42203196D01*
X219888Y42203196D01*
X455364Y41633300D01*
X891005Y41196897D01*
X1460489Y40960427D01*
X2077117Y40959889D01*
X2647013Y41195365D01*
X3083416Y41631006D01*
X3319886Y42200490D01*
X3320424Y42817118D01*
X3084948Y43387014D01*
X2649307Y43823417D01*
X2079823Y44059887D01*
X1463195Y44060425D01*
X893299Y43824949D01*
X456896Y43389308D01*
X220426Y42819824D01*
X219888Y42203196D01*
X215156Y42203196D01*
X215156Y44430157D01*
X29995156Y44430157D01*
X29995156Y31811951D01*
G36*
X18413420Y36993421D02*
X18437996Y36977000D01*
X18535728Y36911697D01*
X18680000Y36883000D01*
X18717706Y36883000D01*
X18730021Y36853195D01*
X18932131Y36650732D01*
X19133004Y36567322D01*
X18972682Y36407000D01*
X18178162Y36407000D01*
X18169979Y36426805D01*
X17967869Y36629268D01*
X17703665Y36738975D01*
X17417590Y36739225D01*
X17153195Y36629979D01*
X16950732Y36427869D01*
X16841025Y36163665D01*
X16840775Y35877590D01*
X16950021Y35613195D01*
X17152131Y35410732D01*
X17416335Y35301025D01*
X17670848Y35300803D01*
X17670775Y35217590D01*
X17780021Y34953195D01*
X17982131Y34750732D01*
X18127296Y34690454D01*
X16270000Y32833158D01*
X16270000Y33150000D01*
X16235746Y33322208D01*
X16179011Y33407118D01*
X16179225Y33652410D01*
X16069979Y33916805D01*
X15910000Y34077063D01*
X15910000Y37440000D01*
X15875746Y37612208D01*
X15778198Y37758198D01*
X15538198Y37998198D01*
X15510138Y38016947D01*
X15392208Y38095746D01*
X15342570Y38105619D01*
X15449268Y38212131D01*
X15462086Y38243000D01*
X17163842Y38243000D01*
X18413420Y36993421D01*
X18413420Y36993421D01*
G37*
X18413420Y36993421D02*
X18437996Y36977000D01*
X18535728Y36911697D01*
X18680000Y36883000D01*
X18717706Y36883000D01*
X18730021Y36853195D01*
X18932131Y36650732D01*
X19133004Y36567322D01*
X18972682Y36407000D01*
X18178162Y36407000D01*
X18169979Y36426805D01*
X17967869Y36629268D01*
X17703665Y36738975D01*
X17417590Y36739225D01*
X17153195Y36629979D01*
X16950732Y36427869D01*
X16841025Y36163665D01*
X16840775Y35877590D01*
X16950021Y35613195D01*
X17152131Y35410732D01*
X17416335Y35301025D01*
X17670848Y35300803D01*
X17670775Y35217590D01*
X17780021Y34953195D01*
X17982131Y34750732D01*
X18127296Y34690454D01*
X16270000Y32833158D01*
X16270000Y33150000D01*
X16235746Y33322208D01*
X16179011Y33407118D01*
X16179225Y33652410D01*
X16069979Y33916805D01*
X15910000Y34077063D01*
X15910000Y37440000D01*
X15875746Y37612208D01*
X15778198Y37758198D01*
X15538198Y37998198D01*
X15510138Y38016947D01*
X15392208Y38095746D01*
X15342570Y38105619D01*
X15449268Y38212131D01*
X15462086Y38243000D01*
X17163842Y38243000D01*
X18413420Y36993421D01*
M02*
