G04 #@! TF.FileFunction,Soldermask,Top*
%FSLAX46Y46*%
G04 Gerber Fmt 4.6, Leading zero omitted, Abs format (unit mm)*
G04 Created by KiCad (PCBNEW 4.0.2-stable) date 11/7/2016 10:49:39 PM*
%MOMM*%
G01*
G04 APERTURE LIST*
%ADD10C,0.100000*%
%ADD11R,0.800100X0.800100*%
%ADD12R,1.430000X0.200000*%
%ADD13C,2.500000*%
%ADD14R,0.750000X0.800000*%
%ADD15C,0.970000*%
%ADD16O,0.950000X1.250000*%
%ADD17O,1.550000X1.000000*%
G04 APERTURE END LIST*
D10*
D11*
X-1370156Y28720603D03*
X-3270156Y28720603D03*
X-2320156Y26721623D03*
D12*
X21405000Y11500000D03*
X21405000Y11900000D03*
X21405000Y12300000D03*
X21405000Y12700000D03*
X21405000Y13100000D03*
X21405000Y13500000D03*
X21405000Y13900000D03*
X21405000Y14300000D03*
X21405000Y14700000D03*
X21405000Y15100000D03*
X21405000Y15500000D03*
X21405000Y15900000D03*
X21405000Y16300000D03*
X21405000Y16700000D03*
X21405000Y17100000D03*
X21405000Y17500000D03*
X21405000Y17900000D03*
X21405000Y18300000D03*
X21405000Y18700000D03*
X21405000Y19100000D03*
X21405000Y19500000D03*
X21405000Y19900000D03*
X21405000Y20300000D03*
X21405000Y20700000D03*
X21405000Y21100000D03*
X21405000Y21500000D03*
X21405000Y21900000D03*
X21405000Y22300000D03*
X21405000Y22700000D03*
X21405000Y23100000D03*
X21405000Y23500000D03*
X21405000Y23900000D03*
X21405000Y24300000D03*
X21405000Y24700000D03*
X21405000Y25100000D03*
X19055000Y11500000D03*
X19055000Y11900000D03*
X19055000Y12300000D03*
X19055000Y12700000D03*
X19055000Y13100000D03*
X19055000Y13500000D03*
X19055000Y13900000D03*
X19055000Y14300000D03*
X19055000Y14700000D03*
X19055000Y15100000D03*
X19055000Y15500000D03*
X19055000Y15900000D03*
X19055000Y16300000D03*
X19055000Y16700000D03*
X19055000Y17100000D03*
X19055000Y17500000D03*
X19055000Y17900000D03*
X19055000Y18300000D03*
X19055000Y18700000D03*
X19055000Y19100000D03*
X19055000Y19500000D03*
X19055000Y19900000D03*
X19055000Y20300000D03*
X19055000Y20700000D03*
X19055000Y21100000D03*
X19055000Y21500000D03*
X19055000Y21900000D03*
X19055000Y22300000D03*
X19055000Y22700000D03*
X19055000Y23100000D03*
X19055000Y23500000D03*
X19055000Y23900000D03*
X19055000Y24300000D03*
X19055000Y24700000D03*
X19055000Y25100000D03*
D13*
X0Y0D03*
X24170000Y-8000000D03*
X-2500000Y-8000000D03*
X24170000Y32640000D03*
X-2500000Y32640000D03*
X20600000Y28690000D03*
D14*
X-1445156Y25654843D03*
X-1445156Y24154843D03*
X-3020156Y25654843D03*
X-3020156Y24154843D03*
D15*
X14479844Y32694843D03*
X14479844Y28884843D03*
D16*
X-187460Y16499100D03*
X-187460Y21499100D03*
D17*
X-2887460Y15499100D03*
X-2887460Y22499100D03*
D16*
X-187460Y4999100D03*
X-187460Y9999100D03*
D17*
X-2887460Y3999100D03*
X-2887460Y10999100D03*
M02*
