G04 #@! TF.FileFunction,Legend,Bot*
%FSLAX46Y46*%
G04 Gerber Fmt 4.6, Leading zero omitted, Abs format (unit mm)*
G04 Created by KiCad (PCBNEW 4.0.2-stable) date 7/26/2016 9:47:51 PM*
%MOMM*%
G01*
G04 APERTURE LIST*
%ADD10C,0.100000*%
%ADD11C,0.200000*%
%ADD12C,0.150000*%
%ADD13R,1.350000X0.400000*%
%ADD14O,1.300000X1.300000*%
%ADD15O,1.550000X1.300000*%
%ADD16R,0.800000X0.150000*%
%ADD17R,1.200000X0.550000*%
%ADD18R,1.000000X0.350000*%
%ADD19R,0.711200X0.457200*%
%ADD20R,1.200000X1.400000*%
%ADD21R,0.200000X1.050000*%
%ADD22R,0.797560X0.797560*%
%ADD23R,0.600000X0.500000*%
%ADD24R,0.800000X0.750000*%
%ADD25R,0.750000X0.800000*%
%ADD26R,0.350000X0.800000*%
%ADD27R,0.800000X0.350000*%
%ADD28R,1.250000X1.250000*%
%ADD29R,0.400000X0.600000*%
%ADD30R,0.500000X0.600000*%
%ADD31R,0.600000X0.400000*%
%ADD32R,0.650000X1.060000*%
%ADD33C,1.500000*%
%ADD34C,2.500000*%
%ADD35R,0.800100X0.800100*%
%ADD36R,2.000000X1.250000*%
%ADD37O,2.790000X0.740000*%
%ADD38C,0.970000*%
%ADD39O,0.280000X0.850000*%
%ADD40R,2.200000X2.200000*%
%ADD41O,0.850000X0.280000*%
%ADD42C,0.900000*%
%ADD43R,0.700000X1.500000*%
%ADD44R,1.000000X0.800000*%
%ADD45R,1.000000X3.500000*%
%ADD46R,1.600000X3.400000*%
%ADD47R,0.590000X0.450000*%
%ADD48C,0.450000*%
%ADD49C,0.250000*%
G04 APERTURE END LIST*
D10*
D11*
X6979844Y29359843D02*
X7159844Y29179843D01*
X6559844Y27959843D02*
X6819844Y27699843D01*
D12*
X-5567460Y14649100D02*
X-5567460Y23349100D01*
X837540Y14649100D02*
X837540Y23349100D01*
X837540Y23349100D02*
X-5567460Y23349100D01*
X-4337460Y23349100D02*
X-4337460Y14649100D01*
X-5567460Y14649100D02*
X837540Y14649100D01*
X-5567460Y3149100D02*
X-5567460Y11849100D01*
X837540Y3149100D02*
X837540Y11849100D01*
X837540Y11849100D02*
X-5567460Y11849100D01*
X-4337460Y11849100D02*
X-4337460Y3149100D01*
X-5567460Y3149100D02*
X837540Y3149100D01*
X9621976Y26559843D02*
G75*
G03X9621976Y26559843I-212132J0D01*
G01*
X9359844Y24209843D02*
X9359844Y26309843D01*
X6559844Y24209843D02*
X6559844Y26309843D01*
X6559844Y26309843D02*
X9309844Y26309843D01*
X9359844Y24209843D02*
X6559844Y24209843D01*
X3019844Y-4920157D02*
X1919844Y-4920157D01*
X1919844Y-4920157D02*
X1919844Y-2720157D01*
X1919844Y-2720157D02*
X3019844Y-2720157D01*
X3019844Y-2720157D02*
X3019844Y-4870157D01*
X3019844Y-4870157D02*
X3019844Y-4920157D01*
X2199844Y27379843D02*
X2199844Y27129843D01*
X1199844Y28529843D02*
X899844Y28529843D01*
X1199844Y28929843D02*
X1199844Y28529843D01*
X3399844Y28529843D02*
X3399844Y28929843D01*
X2199844Y30079843D02*
X2399844Y30079843D01*
X2199844Y27379843D02*
X2399844Y27379843D01*
X22901392Y20249843D02*
G75*
G03X22901392Y20249843I-291548J0D01*
G01*
X22709844Y20699843D02*
X22709844Y23899843D01*
X22709844Y23899843D02*
X18409844Y23899843D01*
X18409844Y23899843D02*
X18309844Y23899843D01*
X18309844Y23899843D02*
X18309844Y20699843D01*
X18309844Y20699843D02*
X22709844Y20699843D01*
X-3850000Y25850000D02*
X-1950000Y25850000D01*
X-3850000Y24750000D02*
X-1950000Y24750000D01*
X-2950000Y25300000D02*
X-2500000Y25300000D01*
X-3000000Y25050000D02*
X-3000000Y25550000D01*
X-3000000Y25300000D02*
X-2750000Y25050000D01*
X-2750000Y25050000D02*
X-2750000Y25550000D01*
X-2750000Y25550000D02*
X-3000000Y25300000D01*
X-3850000Y28890000D02*
X-1950000Y28890000D01*
X-3850000Y27790000D02*
X-1950000Y27790000D01*
X-2950000Y28340000D02*
X-2500000Y28340000D01*
X-3000000Y28090000D02*
X-3000000Y28590000D01*
X-3000000Y28340000D02*
X-2750000Y28090000D01*
X-2750000Y28090000D02*
X-2750000Y28590000D01*
X-2750000Y28590000D02*
X-3000000Y28340000D01*
X-2650000Y-2225000D02*
X-2650000Y-4125000D01*
X-3750000Y-2225000D02*
X-3750000Y-4125000D01*
X-3200000Y-3125000D02*
X-3200000Y-3575000D01*
X-3450000Y-3075000D02*
X-2950000Y-3075000D01*
X-3200000Y-3075000D02*
X-3450000Y-3325000D01*
X-3450000Y-3325000D02*
X-2950000Y-3325000D01*
X-2950000Y-3325000D02*
X-3200000Y-3075000D01*
X5409844Y12674843D02*
X4909844Y12674843D01*
X4909844Y13624843D02*
X5409844Y13624843D01*
X8579844Y27749843D02*
X7879844Y27749843D01*
X7879844Y26549843D02*
X8579844Y26549843D01*
X12029844Y5669843D02*
X12029844Y6369843D01*
X10829844Y6369843D02*
X10829844Y5669843D01*
X10949844Y13469843D02*
X10174844Y13469843D01*
X6649844Y9169843D02*
X7424844Y9169843D01*
X6649844Y13469843D02*
X7424844Y13469843D01*
X10949844Y9169843D02*
X10949844Y9944843D01*
X6649844Y9169843D02*
X6649844Y9944843D01*
X6649844Y13469843D02*
X6649844Y12694843D01*
X10949844Y13469843D02*
X10949844Y12694843D01*
X5359844Y10234843D02*
X4859844Y10234843D01*
X4859844Y11284843D02*
X5359844Y11284843D01*
X5349844Y11374843D02*
X4849844Y11374843D01*
X4849844Y12424843D02*
X5349844Y12424843D01*
X4004844Y12699843D02*
X4004844Y12199843D01*
X3054844Y12199843D02*
X3054844Y12699843D01*
X3054844Y9949843D02*
X3054844Y10449843D01*
X4004844Y10449843D02*
X4004844Y9949843D01*
X6569844Y32359843D02*
X7269844Y32359843D01*
X7269844Y33559843D02*
X6569844Y33559843D01*
X9829844Y7444843D02*
X9329844Y7444843D01*
X9329844Y8494843D02*
X9829844Y8494843D01*
X12704844Y11709843D02*
X12704844Y11209843D01*
X11654844Y11209843D02*
X11654844Y11709843D01*
X6064844Y5869843D02*
X6064844Y6369843D01*
X7114844Y6369843D02*
X7114844Y5869843D01*
X6064844Y2369843D02*
X6064844Y2869843D01*
X7114844Y2869843D02*
X7114844Y2369843D01*
X8494844Y7609843D02*
X8494844Y7109843D01*
X7444844Y7109843D02*
X7444844Y7609843D01*
X-650156Y24834843D02*
X-150156Y24834843D01*
X-150156Y23784843D02*
X-650156Y23784843D01*
X-650156Y26134843D02*
X-150156Y26134843D01*
X-150156Y25084843D02*
X-650156Y25084843D01*
X13179844Y21214843D02*
X13679844Y21214843D01*
X13679844Y20164843D02*
X13179844Y20164843D01*
X13304844Y24899843D02*
X13304844Y24399843D01*
X12254844Y24399843D02*
X12254844Y24899843D01*
X9674844Y29739843D02*
X9674844Y30239843D01*
X10724844Y30239843D02*
X10724844Y29739843D01*
X10724844Y33139843D02*
X10724844Y32639843D01*
X9674844Y32639843D02*
X9674844Y33139843D01*
X12004844Y2099843D02*
X12004844Y1599843D01*
X10954844Y1599843D02*
X10954844Y2099843D01*
X-1530156Y-3545157D02*
X-1030156Y-3545157D01*
X-1030156Y-4595157D02*
X-1530156Y-4595157D01*
X11969844Y2994843D02*
X11469844Y2994843D01*
X11469844Y3944843D02*
X11969844Y3944843D01*
X13914844Y10119843D02*
X13914844Y9619843D01*
X12964844Y9619843D02*
X12964844Y10119843D01*
X9739844Y14154843D02*
X9239844Y14154843D01*
X9239844Y15104843D02*
X9739844Y15104843D01*
X4909844Y-1490157D02*
X4209844Y-1490157D01*
X4209844Y-2690157D02*
X4909844Y-2690157D01*
X4039844Y2289843D02*
X4739844Y2289843D01*
X4739844Y3489843D02*
X4039844Y3489843D01*
X5174844Y30629843D02*
X5174844Y30129843D01*
X4224844Y30129843D02*
X4224844Y30629843D01*
X21484844Y25349843D02*
X21484844Y24849843D01*
X20534844Y24849843D02*
X20534844Y25349843D01*
X23334844Y18619843D02*
X23334844Y19119843D01*
X24284844Y19119843D02*
X24284844Y18619843D01*
X464844Y28419843D02*
X464844Y27919843D01*
X-485156Y27919843D02*
X-485156Y28419843D01*
X11964844Y25459843D02*
X11964844Y24959843D01*
X11014844Y24959843D02*
X11014844Y25459843D01*
X10764844Y25459843D02*
X10764844Y24959843D01*
X9814844Y24959843D02*
X9814844Y25459843D01*
X6124844Y27319843D02*
X6124844Y26819843D01*
X5174844Y26819843D02*
X5174844Y27319843D01*
X4265000Y24480000D02*
X4265000Y23980000D01*
X3315000Y23980000D02*
X3315000Y24480000D01*
X4125000Y19000000D02*
X4125000Y18500000D01*
X3175000Y18500000D02*
X3175000Y19000000D01*
X13879844Y22094843D02*
X13379844Y22094843D01*
X13379844Y23044843D02*
X13879844Y23044843D01*
X14964844Y22889843D02*
X14964844Y23389843D01*
X15914844Y23389843D02*
X15914844Y22889843D01*
X7779844Y-1550157D02*
X7079844Y-1550157D01*
X7079844Y-2750157D02*
X7779844Y-2750157D01*
X6159844Y459843D02*
X6159844Y-240157D01*
X7359844Y-240157D02*
X7359844Y459843D01*
X10539844Y4169843D02*
G75*
G03X10539844Y4169843I-100000J0D01*
G01*
X10189844Y4819843D02*
X10189844Y4319843D01*
X7289844Y4819843D02*
X10189844Y4819843D01*
X7289844Y4319843D02*
X7289844Y4819843D01*
X10189844Y4319843D02*
X7289844Y4319843D01*
X3649604Y-909317D02*
X3649604Y-861057D01*
X4350644Y1889663D02*
X3649604Y1889663D01*
X3649604Y1889663D02*
X3649604Y1640743D01*
X3649604Y-909317D02*
X3649604Y-1109977D01*
X3649604Y-1109977D02*
X4350644Y-1109977D01*
X8269844Y30449843D02*
X8269844Y31149843D01*
X7069844Y31149843D02*
X7069844Y30449843D01*
X8069844Y27999843D02*
X8769844Y27999843D01*
X8769844Y29199843D02*
X8069844Y29199843D01*
X15489844Y20089843D02*
X16189844Y20089843D01*
X16189844Y21289843D02*
X15489844Y21289843D01*
X10929844Y249843D02*
G75*
G03X10929844Y249843I-100000J0D01*
G01*
X10579844Y799843D02*
X10579844Y299843D01*
X7679844Y799843D02*
X10579844Y799843D01*
X7679844Y299843D02*
X7679844Y799843D01*
X10579844Y299843D02*
X7679844Y299843D01*
X9169844Y34534843D02*
X9169844Y44159843D01*
X9169844Y44159843D02*
X1169844Y44159843D01*
X1169844Y44159843D02*
X1169844Y34534843D01*
X1169844Y34534843D02*
X9169844Y34534843D01*
X10950192Y17055000D02*
G75*
G03X10950192Y17055000I-260192J0D01*
G01*
X10560000Y23195000D02*
X9810000Y23195000D01*
X4560000Y17195000D02*
X5310000Y17195000D01*
X4560000Y23195000D02*
X5310000Y23195000D01*
X9810000Y17195000D02*
X10560000Y17945000D01*
X4560000Y17195000D02*
X4560000Y17945000D01*
X4560000Y23195000D02*
X4560000Y22445000D01*
X10560000Y23195000D02*
X10560000Y22445000D01*
X3930000Y-9085000D02*
X3930000Y-9385000D01*
X5430000Y-9085000D02*
X5430000Y-9385000D01*
X3280000Y-6785000D02*
X3080000Y-6785000D01*
X6080000Y-10685000D02*
X5880000Y-10885000D01*
X4780000Y-10685000D02*
X4980000Y-10885000D01*
X6080000Y-9385000D02*
X6080000Y-10685000D01*
X5880000Y-10885000D02*
X4980000Y-10885000D01*
X4780000Y-10685000D02*
X4780000Y-9385000D01*
X7530000Y-9385000D02*
X1830000Y-9385000D01*
X6280000Y-6785000D02*
X4580000Y-6785000D01*
X8030000Y-7685000D02*
X8030000Y-8485000D01*
X1330000Y-8485000D02*
X1330000Y-7685000D01*
X16429844Y-2355157D02*
G75*
G03X16429844Y-2355157I-250000J0D01*
G01*
X14279844Y-9105157D02*
X14279844Y-8105157D01*
X14279844Y-8105157D02*
X13279844Y-8105157D01*
X13279844Y-8105157D02*
X13279844Y-9105157D01*
X15679844Y-3105157D02*
X16929844Y-3105157D01*
X16929844Y-3105157D02*
X16929844Y-1505157D01*
X16929844Y-1505157D02*
X17729844Y-1505157D01*
X17729844Y-1505157D02*
X17729844Y-5605157D01*
X16929844Y-3105157D02*
X17729844Y-3105157D01*
X11879844Y-3105157D02*
X10629844Y-3105157D01*
X10629844Y-3105157D02*
X10629844Y-1505157D01*
X10629844Y-1505157D02*
X9829844Y-1505157D01*
X9829844Y-1505157D02*
X9829844Y-5605157D01*
X10629844Y-3105157D02*
X9829844Y-3105157D01*
X15979844Y-9105157D02*
X11579844Y-9105157D01*
X15979844Y-4205157D02*
X15979844Y-7605157D01*
X15979844Y-7605157D02*
X14979844Y-7605157D01*
X14979844Y-7605157D02*
X14979844Y-4205157D01*
X14979844Y-4205157D02*
X15979844Y-4205157D01*
X11579844Y-4205157D02*
X11579844Y-7605157D01*
X11579844Y-7605157D02*
X12579844Y-7605157D01*
X12579844Y-7605157D02*
X12579844Y-4205157D01*
X12579844Y-4205157D02*
X11579844Y-4205157D01*
X13879844Y-3105157D02*
X13679844Y-3105157D01*
X2599844Y4629843D02*
X2349844Y4629843D01*
X3099844Y4629843D02*
X3349844Y4629843D01*
X3099844Y4629843D02*
X2599844Y4979843D01*
X2599844Y4979843D02*
X2599844Y4279843D01*
X2599844Y4279843D02*
X3099844Y4629843D01*
X3099844Y4979843D02*
X3099844Y4279843D01*
X4149844Y3829843D02*
X1749844Y3829843D01*
X4149844Y5429843D02*
X1749844Y5429843D01*
X6059844Y-3570157D02*
X6059844Y-4570157D01*
X6059844Y-4570157D02*
X4559844Y-4570157D01*
X4559844Y-4570157D02*
X4559844Y-3570157D01*
X4559844Y-3570157D02*
X6059844Y-3570157D01*
X15404844Y2779843D02*
X14704844Y2779843D01*
X14704844Y1579843D02*
X15404844Y1579843D01*
X-2581905Y13277619D02*
X-2581905Y14277619D01*
X-2962858Y14277619D01*
X-3058096Y14230000D01*
X-3105715Y14182381D01*
X-3153334Y14087143D01*
X-3153334Y13944286D01*
X-3105715Y13849048D01*
X-3058096Y13801429D01*
X-2962858Y13753810D01*
X-2581905Y13753810D01*
X-3486667Y14277619D02*
X-4153334Y14277619D01*
X-3724762Y13277619D01*
X-2581905Y1777619D02*
X-2581905Y2777619D01*
X-2962858Y2777619D01*
X-3058096Y2730000D01*
X-3105715Y2682381D01*
X-3153334Y2587143D01*
X-3153334Y2444286D01*
X-3105715Y2349048D01*
X-3058096Y2301429D01*
X-2962858Y2253810D01*
X-2581905Y2253810D01*
X-4010477Y2777619D02*
X-3820000Y2777619D01*
X-3724762Y2730000D01*
X-3677143Y2682381D01*
X-3581905Y2539524D01*
X-3534286Y2349048D01*
X-3534286Y1968095D01*
X-3581905Y1872857D01*
X-3629524Y1825238D01*
X-3724762Y1777619D01*
X-3915239Y1777619D01*
X-4010477Y1825238D01*
X-4058096Y1872857D01*
X-4105715Y1968095D01*
X-4105715Y2206190D01*
X-4058096Y2301429D01*
X-4010477Y2349048D01*
X-3915239Y2396667D01*
X-3724762Y2396667D01*
X-3629524Y2349048D01*
X-3581905Y2301429D01*
X-3534286Y2206190D01*
X5382225Y25001748D02*
X6191749Y25001748D01*
X6286987Y24954129D01*
X6334606Y24906510D01*
X6382225Y24811272D01*
X6382225Y24620795D01*
X6334606Y24525557D01*
X6286987Y24477938D01*
X6191749Y24430319D01*
X5382225Y24430319D01*
X5382225Y23525557D02*
X5382225Y23716034D01*
X5429844Y23811272D01*
X5477463Y23858891D01*
X5620320Y23954129D01*
X5810796Y24001748D01*
X6191749Y24001748D01*
X6286987Y23954129D01*
X6334606Y23906510D01*
X6382225Y23811272D01*
X6382225Y23620795D01*
X6334606Y23525557D01*
X6286987Y23477938D01*
X6191749Y23430319D01*
X5953654Y23430319D01*
X5858415Y23477938D01*
X5810796Y23525557D01*
X5763177Y23620795D01*
X5763177Y23811272D01*
X5810796Y23906510D01*
X5858415Y23954129D01*
X5953654Y24001748D01*
X842225Y-3042062D02*
X-157775Y-3042062D01*
X-157775Y-3280157D01*
X-110156Y-3423015D01*
X-14918Y-3518253D01*
X80320Y-3565872D01*
X270796Y-3613491D01*
X413654Y-3613491D01*
X604130Y-3565872D01*
X699368Y-3518253D01*
X794606Y-3423015D01*
X842225Y-3280157D01*
X842225Y-3042062D01*
X175558Y-4470634D02*
X842225Y-4470634D01*
X-205394Y-4232538D02*
X508892Y-3994443D01*
X508892Y-4613491D01*
X2229368Y31887462D02*
X1562701Y30887462D01*
X1562701Y31887462D02*
X2229368Y30887462D01*
X657939Y30887462D02*
X1229368Y30887462D01*
X943654Y30887462D02*
X943654Y31887462D01*
X1038892Y31744605D01*
X1134130Y31649367D01*
X1229368Y31601748D01*
X22962225Y23041748D02*
X23771749Y23041748D01*
X23866987Y22994129D01*
X23914606Y22946510D01*
X23962225Y22851272D01*
X23962225Y22660795D01*
X23914606Y22565557D01*
X23866987Y22517938D01*
X23771749Y22470319D01*
X22962225Y22470319D01*
X22962225Y21517938D02*
X22962225Y21994129D01*
X23438415Y22041748D01*
X23390796Y21994129D01*
X23343177Y21898891D01*
X23343177Y21660795D01*
X23390796Y21565557D01*
X23438415Y21517938D01*
X23533654Y21470319D01*
X23771749Y21470319D01*
X23866987Y21517938D01*
X23914606Y21565557D01*
X23962225Y21660795D01*
X23962225Y21898891D01*
X23914606Y21994129D01*
X23866987Y22041748D01*
X-2062061Y23557462D02*
X-2062061Y24557462D01*
X-2300156Y24557462D01*
X-2443014Y24509843D01*
X-2538252Y24414605D01*
X-2585871Y24319367D01*
X-2633490Y24128891D01*
X-2633490Y23986033D01*
X-2585871Y23795557D01*
X-2538252Y23700319D01*
X-2443014Y23605081D01*
X-2300156Y23557462D01*
X-2062061Y23557462D01*
X-2966823Y24557462D02*
X-3585871Y24557462D01*
X-3252537Y24176510D01*
X-3395395Y24176510D01*
X-3490633Y24128891D01*
X-3538252Y24081272D01*
X-3585871Y23986033D01*
X-3585871Y23747938D01*
X-3538252Y23652700D01*
X-3490633Y23605081D01*
X-3395395Y23557462D01*
X-3109680Y23557462D01*
X-3014442Y23605081D01*
X-2966823Y23652700D01*
X-2002061Y26517462D02*
X-2002061Y27517462D01*
X-2240156Y27517462D01*
X-2383014Y27469843D01*
X-2478252Y27374605D01*
X-2525871Y27279367D01*
X-2573490Y27088891D01*
X-2573490Y26946033D01*
X-2525871Y26755557D01*
X-2478252Y26660319D01*
X-2383014Y26565081D01*
X-2240156Y26517462D01*
X-2002061Y26517462D01*
X-2954442Y27422224D02*
X-3002061Y27469843D01*
X-3097299Y27517462D01*
X-3335395Y27517462D01*
X-3430633Y27469843D01*
X-3478252Y27422224D01*
X-3525871Y27326986D01*
X-3525871Y27231748D01*
X-3478252Y27088891D01*
X-2906823Y26517462D01*
X-3525871Y26517462D01*
X-2727775Y-4842062D02*
X-3727775Y-4842062D01*
X-3727775Y-5080157D01*
X-3680156Y-5223015D01*
X-3584918Y-5318253D01*
X-3489680Y-5365872D01*
X-3299204Y-5413491D01*
X-3156346Y-5413491D01*
X-2965870Y-5365872D01*
X-2870632Y-5318253D01*
X-2775394Y-5223015D01*
X-2727775Y-5080157D01*
X-2727775Y-4842062D01*
X-2727775Y-6365872D02*
X-2727775Y-5794443D01*
X-2727775Y-6080157D02*
X-3727775Y-6080157D01*
X-3584918Y-5984919D01*
X-3489680Y-5889681D01*
X-3442061Y-5794443D01*
X4722701Y15072700D02*
X4770320Y15025081D01*
X4913177Y14977462D01*
X5008415Y14977462D01*
X5151273Y15025081D01*
X5246511Y15120319D01*
X5294130Y15215557D01*
X5341749Y15406033D01*
X5341749Y15548891D01*
X5294130Y15739367D01*
X5246511Y15834605D01*
X5151273Y15929843D01*
X5008415Y15977462D01*
X4913177Y15977462D01*
X4770320Y15929843D01*
X4722701Y15882224D01*
X4341749Y15882224D02*
X4294130Y15929843D01*
X4198892Y15977462D01*
X3960796Y15977462D01*
X3865558Y15929843D01*
X3817939Y15882224D01*
X3770320Y15786986D01*
X3770320Y15691748D01*
X3817939Y15548891D01*
X4389368Y14977462D01*
X3770320Y14977462D01*
X2865558Y15977462D02*
X3341749Y15977462D01*
X3389368Y15501272D01*
X3341749Y15548891D01*
X3246511Y15596510D01*
X3008415Y15596510D01*
X2913177Y15548891D01*
X2865558Y15501272D01*
X2817939Y15406033D01*
X2817939Y15167938D01*
X2865558Y15072700D01*
X2913177Y15025081D01*
X3008415Y14977462D01*
X3246511Y14977462D01*
X3341749Y15025081D01*
X3389368Y15072700D01*
X6282701Y28312700D02*
X6330320Y28265081D01*
X6473177Y28217462D01*
X6568415Y28217462D01*
X6711273Y28265081D01*
X6806511Y28360319D01*
X6854130Y28455557D01*
X6901749Y28646033D01*
X6901749Y28788891D01*
X6854130Y28979367D01*
X6806511Y29074605D01*
X6711273Y29169843D01*
X6568415Y29217462D01*
X6473177Y29217462D01*
X6330320Y29169843D01*
X6282701Y29122224D01*
X5330320Y28217462D02*
X5901749Y28217462D01*
X5616035Y28217462D02*
X5616035Y29217462D01*
X5711273Y29074605D01*
X5806511Y28979367D01*
X5901749Y28931748D01*
X4996987Y29217462D02*
X4330320Y29217462D01*
X4758892Y28217462D01*
X13116987Y6702700D02*
X13164606Y6750319D01*
X13212225Y6893176D01*
X13212225Y6988414D01*
X13164606Y7131272D01*
X13069368Y7226510D01*
X12974130Y7274129D01*
X12783654Y7321748D01*
X12640796Y7321748D01*
X12450320Y7274129D01*
X12355082Y7226510D01*
X12259844Y7131272D01*
X12212225Y6988414D01*
X12212225Y6893176D01*
X12259844Y6750319D01*
X12307463Y6702700D01*
X12307463Y6321748D02*
X12259844Y6274129D01*
X12212225Y6178891D01*
X12212225Y5940795D01*
X12259844Y5845557D01*
X12307463Y5797938D01*
X12402701Y5750319D01*
X12497939Y5750319D01*
X12640796Y5797938D01*
X13212225Y6369367D01*
X13212225Y5750319D01*
X12545558Y4893176D02*
X13212225Y4893176D01*
X12164606Y5131272D02*
X12878892Y5369367D01*
X12878892Y4750319D01*
X13197939Y15117462D02*
X13197939Y14307938D01*
X13150320Y14212700D01*
X13102701Y14165081D01*
X13007463Y14117462D01*
X12816986Y14117462D01*
X12721748Y14165081D01*
X12674129Y14212700D01*
X12626510Y14307938D01*
X12626510Y15117462D01*
X11626510Y14117462D02*
X12197939Y14117462D01*
X11912225Y14117462D02*
X11912225Y15117462D01*
X12007463Y14974605D01*
X12102701Y14879367D01*
X12197939Y14831748D01*
X11007463Y15117462D02*
X10912224Y15117462D01*
X10816986Y15069843D01*
X10769367Y15022224D01*
X10721748Y14926986D01*
X10674129Y14736510D01*
X10674129Y14498414D01*
X10721748Y14307938D01*
X10769367Y14212700D01*
X10816986Y14165081D01*
X10912224Y14117462D01*
X11007463Y14117462D01*
X11102701Y14165081D01*
X11150320Y14212700D01*
X11197939Y14307938D01*
X11245558Y14498414D01*
X11245558Y14736510D01*
X11197939Y14926986D01*
X11150320Y15022224D01*
X11102701Y15069843D01*
X11007463Y15117462D01*
X5882701Y8927462D02*
X6216035Y9403653D01*
X6454130Y8927462D02*
X6454130Y9927462D01*
X6073177Y9927462D01*
X5977939Y9879843D01*
X5930320Y9832224D01*
X5882701Y9736986D01*
X5882701Y9594129D01*
X5930320Y9498891D01*
X5977939Y9451272D01*
X6073177Y9403653D01*
X6454130Y9403653D01*
X4930320Y8927462D02*
X5501749Y8927462D01*
X5216035Y8927462D02*
X5216035Y9927462D01*
X5311273Y9784605D01*
X5406511Y9689367D01*
X5501749Y9641748D01*
X4454130Y8927462D02*
X4263654Y8927462D01*
X4168415Y8975081D01*
X4120796Y9022700D01*
X4025558Y9165557D01*
X3977939Y9356033D01*
X3977939Y9736986D01*
X4025558Y9832224D01*
X4073177Y9879843D01*
X4168415Y9927462D01*
X4358892Y9927462D01*
X4454130Y9879843D01*
X4501749Y9832224D01*
X4549368Y9736986D01*
X4549368Y9498891D01*
X4501749Y9403653D01*
X4454130Y9356033D01*
X4358892Y9308414D01*
X4168415Y9308414D01*
X4073177Y9356033D01*
X4025558Y9403653D01*
X3977939Y9498891D01*
X4642701Y13807462D02*
X4976035Y14283653D01*
X5214130Y13807462D02*
X5214130Y14807462D01*
X4833177Y14807462D01*
X4737939Y14759843D01*
X4690320Y14712224D01*
X4642701Y14616986D01*
X4642701Y14474129D01*
X4690320Y14378891D01*
X4737939Y14331272D01*
X4833177Y14283653D01*
X5214130Y14283653D01*
X3690320Y13807462D02*
X4261749Y13807462D01*
X3976035Y13807462D02*
X3976035Y14807462D01*
X4071273Y14664605D01*
X4166511Y14569367D01*
X4261749Y14521748D01*
X3118892Y14378891D02*
X3214130Y14426510D01*
X3261749Y14474129D01*
X3309368Y14569367D01*
X3309368Y14616986D01*
X3261749Y14712224D01*
X3214130Y14759843D01*
X3118892Y14807462D01*
X2928415Y14807462D01*
X2833177Y14759843D01*
X2785558Y14712224D01*
X2737939Y14616986D01*
X2737939Y14569367D01*
X2785558Y14474129D01*
X2833177Y14426510D01*
X2928415Y14378891D01*
X3118892Y14378891D01*
X3214130Y14331272D01*
X3261749Y14283653D01*
X3309368Y14188414D01*
X3309368Y13997938D01*
X3261749Y13902700D01*
X3214130Y13855081D01*
X3118892Y13807462D01*
X2928415Y13807462D01*
X2833177Y13855081D01*
X2785558Y13902700D01*
X2737939Y13997938D01*
X2737939Y14188414D01*
X2785558Y14283653D01*
X2833177Y14331272D01*
X2928415Y14378891D01*
X2616987Y13262700D02*
X2664606Y13310319D01*
X2712225Y13453176D01*
X2712225Y13548414D01*
X2664606Y13691272D01*
X2569368Y13786510D01*
X2474130Y13834129D01*
X2283654Y13881748D01*
X2140796Y13881748D01*
X1950320Y13834129D01*
X1855082Y13786510D01*
X1759844Y13691272D01*
X1712225Y13548414D01*
X1712225Y13453176D01*
X1759844Y13310319D01*
X1807463Y13262700D01*
X1807463Y12881748D02*
X1759844Y12834129D01*
X1712225Y12738891D01*
X1712225Y12500795D01*
X1759844Y12405557D01*
X1807463Y12357938D01*
X1902701Y12310319D01*
X1997939Y12310319D01*
X2140796Y12357938D01*
X2712225Y12929367D01*
X2712225Y12310319D01*
X1712225Y11976986D02*
X1712225Y11357938D01*
X2093177Y11691272D01*
X2093177Y11548414D01*
X2140796Y11453176D01*
X2188415Y11405557D01*
X2283654Y11357938D01*
X2521749Y11357938D01*
X2616987Y11405557D01*
X2664606Y11453176D01*
X2712225Y11548414D01*
X2712225Y11834129D01*
X2664606Y11929367D01*
X2616987Y11976986D01*
X2686987Y10492700D02*
X2734606Y10540319D01*
X2782225Y10683176D01*
X2782225Y10778414D01*
X2734606Y10921272D01*
X2639368Y11016510D01*
X2544130Y11064129D01*
X2353654Y11111748D01*
X2210796Y11111748D01*
X2020320Y11064129D01*
X1925082Y11016510D01*
X1829844Y10921272D01*
X1782225Y10778414D01*
X1782225Y10683176D01*
X1829844Y10540319D01*
X1877463Y10492700D01*
X1877463Y10111748D02*
X1829844Y10064129D01*
X1782225Y9968891D01*
X1782225Y9730795D01*
X1829844Y9635557D01*
X1877463Y9587938D01*
X1972701Y9540319D01*
X2067939Y9540319D01*
X2210796Y9587938D01*
X2782225Y10159367D01*
X2782225Y9540319D01*
X1877463Y9159367D02*
X1829844Y9111748D01*
X1782225Y9016510D01*
X1782225Y8778414D01*
X1829844Y8683176D01*
X1877463Y8635557D01*
X1972701Y8587938D01*
X2067939Y8587938D01*
X2210796Y8635557D01*
X2782225Y9206986D01*
X2782225Y8587938D01*
X4742701Y33012700D02*
X4790320Y32965081D01*
X4933177Y32917462D01*
X5028415Y32917462D01*
X5171273Y32965081D01*
X5266511Y33060319D01*
X5314130Y33155557D01*
X5361749Y33346033D01*
X5361749Y33488891D01*
X5314130Y33679367D01*
X5266511Y33774605D01*
X5171273Y33869843D01*
X5028415Y33917462D01*
X4933177Y33917462D01*
X4790320Y33869843D01*
X4742701Y33822224D01*
X3790320Y32917462D02*
X4361749Y32917462D01*
X4076035Y32917462D02*
X4076035Y33917462D01*
X4171273Y33774605D01*
X4266511Y33679367D01*
X4361749Y33631748D01*
X3218892Y33488891D02*
X3314130Y33536510D01*
X3361749Y33584129D01*
X3409368Y33679367D01*
X3409368Y33726986D01*
X3361749Y33822224D01*
X3314130Y33869843D01*
X3218892Y33917462D01*
X3028415Y33917462D01*
X2933177Y33869843D01*
X2885558Y33822224D01*
X2837939Y33726986D01*
X2837939Y33679367D01*
X2885558Y33584129D01*
X2933177Y33536510D01*
X3028415Y33488891D01*
X3218892Y33488891D01*
X3314130Y33441272D01*
X3361749Y33393653D01*
X3409368Y33298414D01*
X3409368Y33107938D01*
X3361749Y33012700D01*
X3314130Y32965081D01*
X3218892Y32917462D01*
X3028415Y32917462D01*
X2933177Y32965081D01*
X2885558Y33012700D01*
X2837939Y33107938D01*
X2837939Y33298414D01*
X2885558Y33393653D01*
X2933177Y33441272D01*
X3028415Y33488891D01*
X12472701Y7717462D02*
X12806035Y8193653D01*
X13044130Y7717462D02*
X13044130Y8717462D01*
X12663177Y8717462D01*
X12567939Y8669843D01*
X12520320Y8622224D01*
X12472701Y8526986D01*
X12472701Y8384129D01*
X12520320Y8288891D01*
X12567939Y8241272D01*
X12663177Y8193653D01*
X13044130Y8193653D01*
X11520320Y7717462D02*
X12091749Y7717462D01*
X11806035Y7717462D02*
X11806035Y8717462D01*
X11901273Y8574605D01*
X11996511Y8479367D01*
X12091749Y8431748D01*
X11186987Y8717462D02*
X10520320Y8717462D01*
X10948892Y7717462D01*
X13932225Y13062700D02*
X13456034Y13396034D01*
X13932225Y13634129D02*
X12932225Y13634129D01*
X12932225Y13253176D01*
X12979844Y13157938D01*
X13027463Y13110319D01*
X13122701Y13062700D01*
X13265558Y13062700D01*
X13360796Y13110319D01*
X13408415Y13157938D01*
X13456034Y13253176D01*
X13456034Y13634129D01*
X13932225Y12110319D02*
X13932225Y12681748D01*
X13932225Y12396034D02*
X12932225Y12396034D01*
X13075082Y12491272D01*
X13170320Y12586510D01*
X13217939Y12681748D01*
X12932225Y11253176D02*
X12932225Y11443653D01*
X12979844Y11538891D01*
X13027463Y11586510D01*
X13170320Y11681748D01*
X13360796Y11729367D01*
X13741749Y11729367D01*
X13836987Y11681748D01*
X13884606Y11634129D01*
X13932225Y11538891D01*
X13932225Y11348414D01*
X13884606Y11253176D01*
X13836987Y11205557D01*
X13741749Y11157938D01*
X13503654Y11157938D01*
X13408415Y11205557D01*
X13360796Y11253176D01*
X13313177Y11348414D01*
X13313177Y11538891D01*
X13360796Y11634129D01*
X13408415Y11681748D01*
X13503654Y11729367D01*
X5322701Y5957462D02*
X5656035Y6433653D01*
X5894130Y5957462D02*
X5894130Y6957462D01*
X5513177Y6957462D01*
X5417939Y6909843D01*
X5370320Y6862224D01*
X5322701Y6766986D01*
X5322701Y6624129D01*
X5370320Y6528891D01*
X5417939Y6481272D01*
X5513177Y6433653D01*
X5894130Y6433653D01*
X4370320Y5957462D02*
X4941749Y5957462D01*
X4656035Y5957462D02*
X4656035Y6957462D01*
X4751273Y6814605D01*
X4846511Y6719367D01*
X4941749Y6671748D01*
X3465558Y6957462D02*
X3941749Y6957462D01*
X3989368Y6481272D01*
X3941749Y6528891D01*
X3846511Y6576510D01*
X3608415Y6576510D01*
X3513177Y6528891D01*
X3465558Y6481272D01*
X3417939Y6386033D01*
X3417939Y6147938D01*
X3465558Y6052700D01*
X3513177Y6005081D01*
X3608415Y5957462D01*
X3846511Y5957462D01*
X3941749Y6005081D01*
X3989368Y6052700D01*
X6332701Y3707462D02*
X6666035Y4183653D01*
X6904130Y3707462D02*
X6904130Y4707462D01*
X6523177Y4707462D01*
X6427939Y4659843D01*
X6380320Y4612224D01*
X6332701Y4516986D01*
X6332701Y4374129D01*
X6380320Y4278891D01*
X6427939Y4231272D01*
X6523177Y4183653D01*
X6904130Y4183653D01*
X5380320Y3707462D02*
X5951749Y3707462D01*
X5666035Y3707462D02*
X5666035Y4707462D01*
X5761273Y4564605D01*
X5856511Y4469367D01*
X5951749Y4421748D01*
X4523177Y4374129D02*
X4523177Y3707462D01*
X4761273Y4755081D02*
X4999368Y4040795D01*
X4380320Y4040795D01*
X6712701Y7257462D02*
X7046035Y7733653D01*
X7284130Y7257462D02*
X7284130Y8257462D01*
X6903177Y8257462D01*
X6807939Y8209843D01*
X6760320Y8162224D01*
X6712701Y8066986D01*
X6712701Y7924129D01*
X6760320Y7828891D01*
X6807939Y7781272D01*
X6903177Y7733653D01*
X7284130Y7733653D01*
X5760320Y7257462D02*
X6331749Y7257462D01*
X6046035Y7257462D02*
X6046035Y8257462D01*
X6141273Y8114605D01*
X6236511Y8019367D01*
X6331749Y7971748D01*
X5426987Y8257462D02*
X4807939Y8257462D01*
X5141273Y7876510D01*
X4998415Y7876510D01*
X4903177Y7828891D01*
X4855558Y7781272D01*
X4807939Y7686033D01*
X4807939Y7447938D01*
X4855558Y7352700D01*
X4903177Y7305081D01*
X4998415Y7257462D01*
X5284130Y7257462D01*
X5379368Y7305081D01*
X5426987Y7352700D01*
X2432701Y23787462D02*
X2766035Y24263653D01*
X3004130Y23787462D02*
X3004130Y24787462D01*
X2623177Y24787462D01*
X2527939Y24739843D01*
X2480320Y24692224D01*
X2432701Y24596986D01*
X2432701Y24454129D01*
X2480320Y24358891D01*
X2527939Y24311272D01*
X2623177Y24263653D01*
X3004130Y24263653D01*
X1480320Y23787462D02*
X2051749Y23787462D01*
X1766035Y23787462D02*
X1766035Y24787462D01*
X1861273Y24644605D01*
X1956511Y24549367D01*
X2051749Y24501748D01*
X861273Y24787462D02*
X766034Y24787462D01*
X670796Y24739843D01*
X623177Y24692224D01*
X575558Y24596986D01*
X527939Y24406510D01*
X527939Y24168414D01*
X575558Y23977938D01*
X623177Y23882700D01*
X670796Y23835081D01*
X766034Y23787462D01*
X861273Y23787462D01*
X956511Y23835081D01*
X1004130Y23882700D01*
X1051749Y23977938D01*
X1099368Y24168414D01*
X1099368Y24406510D01*
X1051749Y24596986D01*
X1004130Y24692224D01*
X956511Y24739843D01*
X861273Y24787462D01*
X1706510Y25157462D02*
X2039844Y25633653D01*
X2277939Y25157462D02*
X2277939Y26157462D01*
X1896986Y26157462D01*
X1801748Y26109843D01*
X1754129Y26062224D01*
X1706510Y25966986D01*
X1706510Y25824129D01*
X1754129Y25728891D01*
X1801748Y25681272D01*
X1896986Y25633653D01*
X2277939Y25633653D01*
X1230320Y25157462D02*
X1039844Y25157462D01*
X944605Y25205081D01*
X896986Y25252700D01*
X801748Y25395557D01*
X754129Y25586033D01*
X754129Y25966986D01*
X801748Y26062224D01*
X849367Y26109843D01*
X944605Y26157462D01*
X1135082Y26157462D01*
X1230320Y26109843D01*
X1277939Y26062224D01*
X1325558Y25966986D01*
X1325558Y25728891D01*
X1277939Y25633653D01*
X1230320Y25586033D01*
X1135082Y25538414D01*
X944605Y25538414D01*
X849367Y25586033D01*
X801748Y25633653D01*
X754129Y25728891D01*
X11936510Y20417462D02*
X12269844Y20893653D01*
X12507939Y20417462D02*
X12507939Y21417462D01*
X12126986Y21417462D01*
X12031748Y21369843D01*
X11984129Y21322224D01*
X11936510Y21226986D01*
X11936510Y21084129D01*
X11984129Y20988891D01*
X12031748Y20941272D01*
X12126986Y20893653D01*
X12507939Y20893653D01*
X11365082Y20988891D02*
X11460320Y21036510D01*
X11507939Y21084129D01*
X11555558Y21179367D01*
X11555558Y21226986D01*
X11507939Y21322224D01*
X11460320Y21369843D01*
X11365082Y21417462D01*
X11174605Y21417462D01*
X11079367Y21369843D01*
X11031748Y21322224D01*
X10984129Y21226986D01*
X10984129Y21179367D01*
X11031748Y21084129D01*
X11079367Y21036510D01*
X11174605Y20988891D01*
X11365082Y20988891D01*
X11460320Y20941272D01*
X11507939Y20893653D01*
X11555558Y20798414D01*
X11555558Y20607938D01*
X11507939Y20512700D01*
X11460320Y20465081D01*
X11365082Y20417462D01*
X11174605Y20417462D01*
X11079367Y20465081D01*
X11031748Y20512700D01*
X10984129Y20607938D01*
X10984129Y20798414D01*
X11031748Y20893653D01*
X11079367Y20941272D01*
X11174605Y20988891D01*
X14352225Y24686509D02*
X13876034Y25019843D01*
X14352225Y25257938D02*
X13352225Y25257938D01*
X13352225Y24876985D01*
X13399844Y24781747D01*
X13447463Y24734128D01*
X13542701Y24686509D01*
X13685558Y24686509D01*
X13780796Y24734128D01*
X13828415Y24781747D01*
X13876034Y24876985D01*
X13876034Y25257938D01*
X13352225Y23781747D02*
X13352225Y24257938D01*
X13828415Y24305557D01*
X13780796Y24257938D01*
X13733177Y24162700D01*
X13733177Y23924604D01*
X13780796Y23829366D01*
X13828415Y23781747D01*
X13923654Y23734128D01*
X14161749Y23734128D01*
X14256987Y23781747D01*
X14304606Y23829366D01*
X14352225Y23924604D01*
X14352225Y24162700D01*
X14304606Y24257938D01*
X14256987Y24305557D01*
X9672225Y30426509D02*
X9196034Y30759843D01*
X9672225Y30997938D02*
X8672225Y30997938D01*
X8672225Y30616985D01*
X8719844Y30521747D01*
X8767463Y30474128D01*
X8862701Y30426509D01*
X9005558Y30426509D01*
X9100796Y30474128D01*
X9148415Y30521747D01*
X9196034Y30616985D01*
X9196034Y30997938D01*
X9005558Y29569366D02*
X9672225Y29569366D01*
X8624606Y29807462D02*
X9338892Y30045557D01*
X9338892Y29426509D01*
X10366510Y33917462D02*
X10699844Y34393653D01*
X10937939Y33917462D02*
X10937939Y34917462D01*
X10556986Y34917462D01*
X10461748Y34869843D01*
X10414129Y34822224D01*
X10366510Y34726986D01*
X10366510Y34584129D01*
X10414129Y34488891D01*
X10461748Y34441272D01*
X10556986Y34393653D01*
X10937939Y34393653D01*
X10033177Y34917462D02*
X9414129Y34917462D01*
X9747463Y34536510D01*
X9604605Y34536510D01*
X9509367Y34488891D01*
X9461748Y34441272D01*
X9414129Y34346033D01*
X9414129Y34107938D01*
X9461748Y34012700D01*
X9509367Y33965081D01*
X9604605Y33917462D01*
X9890320Y33917462D01*
X9985558Y33965081D01*
X10033177Y34012700D01*
X13342225Y2056509D02*
X12866034Y2389843D01*
X13342225Y2627938D02*
X12342225Y2627938D01*
X12342225Y2246985D01*
X12389844Y2151747D01*
X12437463Y2104128D01*
X12532701Y2056509D01*
X12675558Y2056509D01*
X12770796Y2104128D01*
X12818415Y2151747D01*
X12866034Y2246985D01*
X12866034Y2627938D01*
X12437463Y1675557D02*
X12389844Y1627938D01*
X12342225Y1532700D01*
X12342225Y1294604D01*
X12389844Y1199366D01*
X12437463Y1151747D01*
X12532701Y1104128D01*
X12627939Y1104128D01*
X12770796Y1151747D01*
X13342225Y1723176D01*
X13342225Y1104128D01*
X-1143490Y-3272538D02*
X-810156Y-2796347D01*
X-572061Y-3272538D02*
X-572061Y-2272538D01*
X-953014Y-2272538D01*
X-1048252Y-2320157D01*
X-1095871Y-2367776D01*
X-1143490Y-2463014D01*
X-1143490Y-2605871D01*
X-1095871Y-2701109D01*
X-1048252Y-2748728D01*
X-953014Y-2796347D01*
X-572061Y-2796347D01*
X-2095871Y-3272538D02*
X-1524442Y-3272538D01*
X-1810156Y-3272538D02*
X-1810156Y-2272538D01*
X-1714918Y-2415395D01*
X-1619680Y-2510633D01*
X-1524442Y-2558252D01*
X14722701Y3222700D02*
X14770320Y3175081D01*
X14913177Y3127462D01*
X15008415Y3127462D01*
X15151273Y3175081D01*
X15246511Y3270319D01*
X15294130Y3365557D01*
X15341749Y3556033D01*
X15341749Y3698891D01*
X15294130Y3889367D01*
X15246511Y3984605D01*
X15151273Y4079843D01*
X15008415Y4127462D01*
X14913177Y4127462D01*
X14770320Y4079843D01*
X14722701Y4032224D01*
X14341749Y4032224D02*
X14294130Y4079843D01*
X14198892Y4127462D01*
X13960796Y4127462D01*
X13865558Y4079843D01*
X13817939Y4032224D01*
X13770320Y3936986D01*
X13770320Y3841748D01*
X13817939Y3698891D01*
X14389368Y3127462D01*
X13770320Y3127462D01*
X12817939Y3127462D02*
X13389368Y3127462D01*
X13103654Y3127462D02*
X13103654Y4127462D01*
X13198892Y3984605D01*
X13294130Y3889367D01*
X13389368Y3841748D01*
X15036987Y10802700D02*
X15084606Y10850319D01*
X15132225Y10993176D01*
X15132225Y11088414D01*
X15084606Y11231272D01*
X14989368Y11326510D01*
X14894130Y11374129D01*
X14703654Y11421748D01*
X14560796Y11421748D01*
X14370320Y11374129D01*
X14275082Y11326510D01*
X14179844Y11231272D01*
X14132225Y11088414D01*
X14132225Y10993176D01*
X14179844Y10850319D01*
X14227463Y10802700D01*
X14227463Y10421748D02*
X14179844Y10374129D01*
X14132225Y10278891D01*
X14132225Y10040795D01*
X14179844Y9945557D01*
X14227463Y9897938D01*
X14322701Y9850319D01*
X14417939Y9850319D01*
X14560796Y9897938D01*
X15132225Y10469367D01*
X15132225Y9850319D01*
X14132225Y9231272D02*
X14132225Y9136033D01*
X14179844Y9040795D01*
X14227463Y8993176D01*
X14322701Y8945557D01*
X14513177Y8897938D01*
X14751273Y8897938D01*
X14941749Y8945557D01*
X15036987Y8993176D01*
X15084606Y9040795D01*
X15132225Y9136033D01*
X15132225Y9231272D01*
X15084606Y9326510D01*
X15036987Y9374129D01*
X14941749Y9421748D01*
X14751273Y9469367D01*
X14513177Y9469367D01*
X14322701Y9421748D01*
X14227463Y9374129D01*
X14179844Y9326510D01*
X14132225Y9231272D01*
X11232701Y15412700D02*
X11280320Y15365081D01*
X11423177Y15317462D01*
X11518415Y15317462D01*
X11661273Y15365081D01*
X11756511Y15460319D01*
X11804130Y15555557D01*
X11851749Y15746033D01*
X11851749Y15888891D01*
X11804130Y16079367D01*
X11756511Y16174605D01*
X11661273Y16269843D01*
X11518415Y16317462D01*
X11423177Y16317462D01*
X11280320Y16269843D01*
X11232701Y16222224D01*
X10280320Y15317462D02*
X10851749Y15317462D01*
X10566035Y15317462D02*
X10566035Y16317462D01*
X10661273Y16174605D01*
X10756511Y16079367D01*
X10851749Y16031748D01*
X9804130Y15317462D02*
X9613654Y15317462D01*
X9518415Y15365081D01*
X9470796Y15412700D01*
X9375558Y15555557D01*
X9327939Y15746033D01*
X9327939Y16126986D01*
X9375558Y16222224D01*
X9423177Y16269843D01*
X9518415Y16317462D01*
X9708892Y16317462D01*
X9804130Y16269843D01*
X9851749Y16222224D01*
X9899368Y16126986D01*
X9899368Y15888891D01*
X9851749Y15793653D01*
X9804130Y15746033D01*
X9708892Y15698414D01*
X9518415Y15698414D01*
X9423177Y15746033D01*
X9375558Y15793653D01*
X9327939Y15888891D01*
X2462701Y-2347300D02*
X2510320Y-2394919D01*
X2653177Y-2442538D01*
X2748415Y-2442538D01*
X2891273Y-2394919D01*
X2986511Y-2299681D01*
X3034130Y-2204443D01*
X3081749Y-2013967D01*
X3081749Y-1871109D01*
X3034130Y-1680633D01*
X2986511Y-1585395D01*
X2891273Y-1490157D01*
X2748415Y-1442538D01*
X2653177Y-1442538D01*
X2510320Y-1490157D01*
X2462701Y-1537776D01*
X1510320Y-2442538D02*
X2081749Y-2442538D01*
X1796035Y-2442538D02*
X1796035Y-1442538D01*
X1891273Y-1585395D01*
X1986511Y-1680633D01*
X2081749Y-1728252D01*
X653177Y-1442538D02*
X843654Y-1442538D01*
X938892Y-1490157D01*
X986511Y-1537776D01*
X1081749Y-1680633D01*
X1129368Y-1871109D01*
X1129368Y-2252062D01*
X1081749Y-2347300D01*
X1034130Y-2394919D01*
X938892Y-2442538D01*
X748415Y-2442538D01*
X653177Y-2394919D01*
X605558Y-2347300D01*
X557939Y-2252062D01*
X557939Y-2013967D01*
X605558Y-1918728D01*
X653177Y-1871109D01*
X748415Y-1823490D01*
X938892Y-1823490D01*
X1034130Y-1871109D01*
X1081749Y-1918728D01*
X1129368Y-2013967D01*
X2422701Y2547700D02*
X2470320Y2500081D01*
X2613177Y2452462D01*
X2708415Y2452462D01*
X2851273Y2500081D01*
X2946511Y2595319D01*
X2994130Y2690557D01*
X3041749Y2881033D01*
X3041749Y3023891D01*
X2994130Y3214367D01*
X2946511Y3309605D01*
X2851273Y3404843D01*
X2708415Y3452462D01*
X2613177Y3452462D01*
X2470320Y3404843D01*
X2422701Y3357224D01*
X1470320Y2452462D02*
X2041749Y2452462D01*
X1756035Y2452462D02*
X1756035Y3452462D01*
X1851273Y3309605D01*
X1946511Y3214367D01*
X2041749Y3166748D01*
X565558Y3452462D02*
X1041749Y3452462D01*
X1089368Y2976272D01*
X1041749Y3023891D01*
X946511Y3071510D01*
X708415Y3071510D01*
X613177Y3023891D01*
X565558Y2976272D01*
X517939Y2881033D01*
X517939Y2642938D01*
X565558Y2547700D01*
X613177Y2500081D01*
X708415Y2452462D01*
X946511Y2452462D01*
X1041749Y2500081D01*
X1089368Y2547700D01*
X4322701Y31702700D02*
X4370320Y31655081D01*
X4513177Y31607462D01*
X4608415Y31607462D01*
X4751273Y31655081D01*
X4846511Y31750319D01*
X4894130Y31845557D01*
X4941749Y32036033D01*
X4941749Y32178891D01*
X4894130Y32369367D01*
X4846511Y32464605D01*
X4751273Y32559843D01*
X4608415Y32607462D01*
X4513177Y32607462D01*
X4370320Y32559843D01*
X4322701Y32512224D01*
X3370320Y31607462D02*
X3941749Y31607462D01*
X3656035Y31607462D02*
X3656035Y32607462D01*
X3751273Y32464605D01*
X3846511Y32369367D01*
X3941749Y32321748D01*
X2513177Y32274129D02*
X2513177Y31607462D01*
X2751273Y32655081D02*
X2989368Y31940795D01*
X2370320Y31940795D01*
X23602701Y24392700D02*
X23650320Y24345081D01*
X23793177Y24297462D01*
X23888415Y24297462D01*
X24031273Y24345081D01*
X24126511Y24440319D01*
X24174130Y24535557D01*
X24221749Y24726033D01*
X24221749Y24868891D01*
X24174130Y25059367D01*
X24126511Y25154605D01*
X24031273Y25249843D01*
X23888415Y25297462D01*
X23793177Y25297462D01*
X23650320Y25249843D01*
X23602701Y25202224D01*
X22650320Y24297462D02*
X23221749Y24297462D01*
X22936035Y24297462D02*
X22936035Y25297462D01*
X23031273Y25154605D01*
X23126511Y25059367D01*
X23221749Y25011748D01*
X22269368Y25202224D02*
X22221749Y25249843D01*
X22126511Y25297462D01*
X21888415Y25297462D01*
X21793177Y25249843D01*
X21745558Y25202224D01*
X21697939Y25106986D01*
X21697939Y25011748D01*
X21745558Y24868891D01*
X22316987Y24297462D01*
X21697939Y24297462D01*
X25122701Y16752700D02*
X25170320Y16705081D01*
X25313177Y16657462D01*
X25408415Y16657462D01*
X25551273Y16705081D01*
X25646511Y16800319D01*
X25694130Y16895557D01*
X25741749Y17086033D01*
X25741749Y17228891D01*
X25694130Y17419367D01*
X25646511Y17514605D01*
X25551273Y17609843D01*
X25408415Y17657462D01*
X25313177Y17657462D01*
X25170320Y17609843D01*
X25122701Y17562224D01*
X24170320Y16657462D02*
X24741749Y16657462D01*
X24456035Y16657462D02*
X24456035Y17657462D01*
X24551273Y17514605D01*
X24646511Y17419367D01*
X24741749Y17371748D01*
X23217939Y16657462D02*
X23789368Y16657462D01*
X23503654Y16657462D02*
X23503654Y17657462D01*
X23598892Y17514605D01*
X23694130Y17419367D01*
X23789368Y17371748D01*
X326987Y31332700D02*
X374606Y31380319D01*
X422225Y31523176D01*
X422225Y31618414D01*
X374606Y31761272D01*
X279368Y31856510D01*
X184130Y31904129D01*
X-6346Y31951748D01*
X-149204Y31951748D01*
X-339680Y31904129D01*
X-434918Y31856510D01*
X-530156Y31761272D01*
X-577775Y31618414D01*
X-577775Y31523176D01*
X-530156Y31380319D01*
X-482537Y31332700D01*
X422225Y30380319D02*
X422225Y30951748D01*
X422225Y30666034D02*
X-577775Y30666034D01*
X-434918Y30761272D01*
X-339680Y30856510D01*
X-292061Y30951748D01*
X-577775Y29761272D02*
X-577775Y29666033D01*
X-530156Y29570795D01*
X-482537Y29523176D01*
X-387299Y29475557D01*
X-196823Y29427938D01*
X41273Y29427938D01*
X231749Y29475557D01*
X326987Y29523176D01*
X374606Y29570795D01*
X422225Y29666033D01*
X422225Y29761272D01*
X374606Y29856510D01*
X326987Y29904129D01*
X231749Y29951748D01*
X41273Y29999367D01*
X-196823Y29999367D01*
X-387299Y29951748D01*
X-482537Y29904129D01*
X-530156Y29856510D01*
X-577775Y29761272D01*
X12396510Y26492700D02*
X12444129Y26445081D01*
X12586986Y26397462D01*
X12682224Y26397462D01*
X12825082Y26445081D01*
X12920320Y26540319D01*
X12967939Y26635557D01*
X13015558Y26826033D01*
X13015558Y26968891D01*
X12967939Y27159367D01*
X12920320Y27254605D01*
X12825082Y27349843D01*
X12682224Y27397462D01*
X12586986Y27397462D01*
X12444129Y27349843D01*
X12396510Y27302224D01*
X11920320Y26397462D02*
X11729844Y26397462D01*
X11634605Y26445081D01*
X11586986Y26492700D01*
X11491748Y26635557D01*
X11444129Y26826033D01*
X11444129Y27206986D01*
X11491748Y27302224D01*
X11539367Y27349843D01*
X11634605Y27397462D01*
X11825082Y27397462D01*
X11920320Y27349843D01*
X11967939Y27302224D01*
X12015558Y27206986D01*
X12015558Y26968891D01*
X11967939Y26873653D01*
X11920320Y26826033D01*
X11825082Y26778414D01*
X11634605Y26778414D01*
X11539367Y26826033D01*
X11491748Y26873653D01*
X11444129Y26968891D01*
X10626510Y26512700D02*
X10674129Y26465081D01*
X10816986Y26417462D01*
X10912224Y26417462D01*
X11055082Y26465081D01*
X11150320Y26560319D01*
X11197939Y26655557D01*
X11245558Y26846033D01*
X11245558Y26988891D01*
X11197939Y27179367D01*
X11150320Y27274605D01*
X11055082Y27369843D01*
X10912224Y27417462D01*
X10816986Y27417462D01*
X10674129Y27369843D01*
X10626510Y27322224D01*
X10055082Y26988891D02*
X10150320Y27036510D01*
X10197939Y27084129D01*
X10245558Y27179367D01*
X10245558Y27226986D01*
X10197939Y27322224D01*
X10150320Y27369843D01*
X10055082Y27417462D01*
X9864605Y27417462D01*
X9769367Y27369843D01*
X9721748Y27322224D01*
X9674129Y27226986D01*
X9674129Y27179367D01*
X9721748Y27084129D01*
X9769367Y27036510D01*
X9864605Y26988891D01*
X10055082Y26988891D01*
X10150320Y26941272D01*
X10197939Y26893653D01*
X10245558Y26798414D01*
X10245558Y26607938D01*
X10197939Y26512700D01*
X10150320Y26465081D01*
X10055082Y26417462D01*
X9864605Y26417462D01*
X9769367Y26465081D01*
X9721748Y26512700D01*
X9674129Y26607938D01*
X9674129Y26798414D01*
X9721748Y26893653D01*
X9769367Y26941272D01*
X9864605Y26988891D01*
X4886987Y27486509D02*
X4934606Y27534128D01*
X4982225Y27676985D01*
X4982225Y27772223D01*
X4934606Y27915081D01*
X4839368Y28010319D01*
X4744130Y28057938D01*
X4553654Y28105557D01*
X4410796Y28105557D01*
X4220320Y28057938D01*
X4125082Y28010319D01*
X4029844Y27915081D01*
X3982225Y27772223D01*
X3982225Y27676985D01*
X4029844Y27534128D01*
X4077463Y27486509D01*
X3982225Y27153176D02*
X3982225Y26486509D01*
X4982225Y26915081D01*
X3846510Y25432700D02*
X3894129Y25385081D01*
X4036986Y25337462D01*
X4132224Y25337462D01*
X4275082Y25385081D01*
X4370320Y25480319D01*
X4417939Y25575557D01*
X4465558Y25766033D01*
X4465558Y25908891D01*
X4417939Y26099367D01*
X4370320Y26194605D01*
X4275082Y26289843D01*
X4132224Y26337462D01*
X4036986Y26337462D01*
X3894129Y26289843D01*
X3846510Y26242224D01*
X2989367Y26337462D02*
X3179844Y26337462D01*
X3275082Y26289843D01*
X3322701Y26242224D01*
X3417939Y26099367D01*
X3465558Y25908891D01*
X3465558Y25527938D01*
X3417939Y25432700D01*
X3370320Y25385081D01*
X3275082Y25337462D01*
X3084605Y25337462D01*
X2989367Y25385081D01*
X2941748Y25432700D01*
X2894129Y25527938D01*
X2894129Y25766033D01*
X2941748Y25861272D01*
X2989367Y25908891D01*
X3084605Y25956510D01*
X3275082Y25956510D01*
X3370320Y25908891D01*
X3417939Y25861272D01*
X3465558Y25766033D01*
X2896987Y19226509D02*
X2944606Y19274128D01*
X2992225Y19416985D01*
X2992225Y19512223D01*
X2944606Y19655081D01*
X2849368Y19750319D01*
X2754130Y19797938D01*
X2563654Y19845557D01*
X2420796Y19845557D01*
X2230320Y19797938D01*
X2135082Y19750319D01*
X2039844Y19655081D01*
X1992225Y19512223D01*
X1992225Y19416985D01*
X2039844Y19274128D01*
X2087463Y19226509D01*
X1992225Y18321747D02*
X1992225Y18797938D01*
X2468415Y18845557D01*
X2420796Y18797938D01*
X2373177Y18702700D01*
X2373177Y18464604D01*
X2420796Y18369366D01*
X2468415Y18321747D01*
X2563654Y18274128D01*
X2801749Y18274128D01*
X2896987Y18321747D01*
X2944606Y18369366D01*
X2992225Y18464604D01*
X2992225Y18702700D01*
X2944606Y18797938D01*
X2896987Y18845557D01*
X11896510Y22282700D02*
X11944129Y22235081D01*
X12086986Y22187462D01*
X12182224Y22187462D01*
X12325082Y22235081D01*
X12420320Y22330319D01*
X12467939Y22425557D01*
X12515558Y22616033D01*
X12515558Y22758891D01*
X12467939Y22949367D01*
X12420320Y23044605D01*
X12325082Y23139843D01*
X12182224Y23187462D01*
X12086986Y23187462D01*
X11944129Y23139843D01*
X11896510Y23092224D01*
X11039367Y22854129D02*
X11039367Y22187462D01*
X11277463Y23235081D02*
X11515558Y22520795D01*
X10896510Y22520795D01*
X17086987Y23356509D02*
X17134606Y23404128D01*
X17182225Y23546985D01*
X17182225Y23642223D01*
X17134606Y23785081D01*
X17039368Y23880319D01*
X16944130Y23927938D01*
X16753654Y23975557D01*
X16610796Y23975557D01*
X16420320Y23927938D01*
X16325082Y23880319D01*
X16229844Y23785081D01*
X16182225Y23642223D01*
X16182225Y23546985D01*
X16229844Y23404128D01*
X16277463Y23356509D01*
X16182225Y23023176D02*
X16182225Y22404128D01*
X16563177Y22737462D01*
X16563177Y22594604D01*
X16610796Y22499366D01*
X16658415Y22451747D01*
X16753654Y22404128D01*
X16991749Y22404128D01*
X17086987Y22451747D01*
X17134606Y22499366D01*
X17182225Y22594604D01*
X17182225Y22880319D01*
X17134606Y22975557D01*
X17086987Y23023176D01*
X8526510Y-3747300D02*
X8574129Y-3794919D01*
X8716986Y-3842538D01*
X8812224Y-3842538D01*
X8955082Y-3794919D01*
X9050320Y-3699681D01*
X9097939Y-3604443D01*
X9145558Y-3413967D01*
X9145558Y-3271109D01*
X9097939Y-3080633D01*
X9050320Y-2985395D01*
X8955082Y-2890157D01*
X8812224Y-2842538D01*
X8716986Y-2842538D01*
X8574129Y-2890157D01*
X8526510Y-2937776D01*
X8145558Y-2937776D02*
X8097939Y-2890157D01*
X8002701Y-2842538D01*
X7764605Y-2842538D01*
X7669367Y-2890157D01*
X7621748Y-2937776D01*
X7574129Y-3033014D01*
X7574129Y-3128252D01*
X7621748Y-3271109D01*
X8193177Y-3842538D01*
X7574129Y-3842538D01*
X2561987Y-328491D02*
X2609606Y-280872D01*
X2657225Y-138015D01*
X2657225Y-42777D01*
X2609606Y100081D01*
X2514368Y195319D01*
X2419130Y242938D01*
X2228654Y290557D01*
X2085796Y290557D01*
X1895320Y242938D01*
X1800082Y195319D01*
X1704844Y100081D01*
X1657225Y-42777D01*
X1657225Y-138015D01*
X1704844Y-280872D01*
X1752463Y-328491D01*
X2657225Y-1280872D02*
X2657225Y-709443D01*
X2657225Y-995157D02*
X1657225Y-995157D01*
X1800082Y-899919D01*
X1895320Y-804681D01*
X1942939Y-709443D01*
X10411749Y7397462D02*
X10411749Y6587938D01*
X10364130Y6492700D01*
X10316511Y6445081D01*
X10221273Y6397462D01*
X10030796Y6397462D01*
X9935558Y6445081D01*
X9887939Y6492700D01*
X9840320Y6587938D01*
X9840320Y7397462D01*
X9221273Y6968891D02*
X9316511Y7016510D01*
X9364130Y7064129D01*
X9411749Y7159367D01*
X9411749Y7206986D01*
X9364130Y7302224D01*
X9316511Y7349843D01*
X9221273Y7397462D01*
X9030796Y7397462D01*
X8935558Y7349843D01*
X8887939Y7302224D01*
X8840320Y7206986D01*
X8840320Y7159367D01*
X8887939Y7064129D01*
X8935558Y7016510D01*
X9030796Y6968891D01*
X9221273Y6968891D01*
X9316511Y6921272D01*
X9364130Y6873653D01*
X9411749Y6778414D01*
X9411749Y6587938D01*
X9364130Y6492700D01*
X9316511Y6445081D01*
X9221273Y6397462D01*
X9030796Y6397462D01*
X8935558Y6445081D01*
X8887939Y6492700D01*
X8840320Y6587938D01*
X8840320Y6778414D01*
X8887939Y6873653D01*
X8935558Y6921272D01*
X9030796Y6968891D01*
X1557225Y2066748D02*
X2366749Y2066748D01*
X2461987Y2019129D01*
X2509606Y1971510D01*
X2557225Y1876272D01*
X2557225Y1685795D01*
X2509606Y1590557D01*
X2461987Y1542938D01*
X2366749Y1495319D01*
X1557225Y1495319D01*
X1557225Y1114367D02*
X1557225Y447700D01*
X2557225Y876272D01*
X6772225Y31576509D02*
X6772225Y32052700D01*
X5772225Y32052700D01*
X5772225Y31338414D02*
X5772225Y30671747D01*
X6772225Y31100319D01*
X6256510Y29387462D02*
X6732701Y29387462D01*
X6732701Y30387462D01*
X5494605Y30387462D02*
X5685082Y30387462D01*
X5780320Y30339843D01*
X5827939Y30292224D01*
X5923177Y30149367D01*
X5970796Y29958891D01*
X5970796Y29577938D01*
X5923177Y29482700D01*
X5875558Y29435081D01*
X5780320Y29387462D01*
X5589843Y29387462D01*
X5494605Y29435081D01*
X5446986Y29482700D01*
X5399367Y29577938D01*
X5399367Y29816033D01*
X5446986Y29911272D01*
X5494605Y29958891D01*
X5589843Y30006510D01*
X5780320Y30006510D01*
X5875558Y29958891D01*
X5923177Y29911272D01*
X5970796Y29816033D01*
X16712701Y18852700D02*
X16760320Y18805081D01*
X16903177Y18757462D01*
X16998415Y18757462D01*
X17141273Y18805081D01*
X17236511Y18900319D01*
X17284130Y18995557D01*
X17331749Y19186033D01*
X17331749Y19328891D01*
X17284130Y19519367D01*
X17236511Y19614605D01*
X17141273Y19709843D01*
X16998415Y19757462D01*
X16903177Y19757462D01*
X16760320Y19709843D01*
X16712701Y19662224D01*
X15760320Y18757462D02*
X16331749Y18757462D01*
X16046035Y18757462D02*
X16046035Y19757462D01*
X16141273Y19614605D01*
X16236511Y19519367D01*
X16331749Y19471748D01*
X15426987Y19757462D02*
X14807939Y19757462D01*
X15141273Y19376510D01*
X14998415Y19376510D01*
X14903177Y19328891D01*
X14855558Y19281272D01*
X14807939Y19186033D01*
X14807939Y18947938D01*
X14855558Y18852700D01*
X14903177Y18805081D01*
X14998415Y18757462D01*
X15284130Y18757462D01*
X15379368Y18805081D01*
X15426987Y18852700D01*
X12671749Y877462D02*
X12671749Y67938D01*
X12624130Y-27300D01*
X12576511Y-74919D01*
X12481273Y-122538D01*
X12290796Y-122538D01*
X12195558Y-74919D01*
X12147939Y-27300D01*
X12100320Y67938D01*
X12100320Y877462D01*
X11719368Y877462D02*
X11100320Y877462D01*
X11433654Y496510D01*
X11290796Y496510D01*
X11195558Y448891D01*
X11147939Y401272D01*
X11100320Y306033D01*
X11100320Y67938D01*
X11147939Y-27300D01*
X11195558Y-74919D01*
X11290796Y-122538D01*
X11576511Y-122538D01*
X11671749Y-74919D01*
X11719368Y-27300D01*
X5686511Y39864129D02*
X5686511Y39387938D01*
X5972225Y39959367D02*
X4972225Y39626034D01*
X5972225Y39292700D01*
X5972225Y38435557D02*
X5972225Y39006986D01*
X5972225Y38721272D02*
X4972225Y38721272D01*
X5115082Y38816510D01*
X5210320Y38911748D01*
X5257939Y39006986D01*
X17217939Y34017462D02*
X17217939Y35017462D01*
X16836986Y35017462D01*
X16741748Y34969843D01*
X16694129Y34922224D01*
X16646510Y34826986D01*
X16646510Y34684129D01*
X16694129Y34588891D01*
X16741748Y34541272D01*
X16836986Y34493653D01*
X17217939Y34493653D01*
X15694129Y34017462D02*
X16265558Y34017462D01*
X15979844Y34017462D02*
X15979844Y35017462D01*
X16075082Y34874605D01*
X16170320Y34779367D01*
X16265558Y34731748D01*
X10840225Y19579748D02*
X11649749Y19579748D01*
X11744987Y19532129D01*
X11792606Y19484510D01*
X11840225Y19389272D01*
X11840225Y19198795D01*
X11792606Y19103557D01*
X11744987Y19055938D01*
X11649749Y19008319D01*
X10840225Y19008319D01*
X11173558Y18103557D02*
X11840225Y18103557D01*
X10792606Y18341653D02*
X11506892Y18579748D01*
X11506892Y17960700D01*
X104606Y-5556824D02*
X152225Y-5699681D01*
X152225Y-5937777D01*
X104606Y-6033015D01*
X56987Y-6080634D01*
X-38251Y-6128253D01*
X-133489Y-6128253D01*
X-228727Y-6080634D01*
X-276346Y-6033015D01*
X-323966Y-5937777D01*
X-371585Y-5747300D01*
X-419204Y-5652062D01*
X-466823Y-5604443D01*
X-562061Y-5556824D01*
X-657299Y-5556824D01*
X-752537Y-5604443D01*
X-800156Y-5652062D01*
X-847775Y-5747300D01*
X-847775Y-5985396D01*
X-800156Y-6128253D01*
X-847775Y-6461586D02*
X152225Y-6699681D01*
X-562061Y-6890158D01*
X152225Y-7080634D01*
X-847775Y-7318729D01*
X152225Y-8223491D02*
X152225Y-7652062D01*
X152225Y-7937776D02*
X-847775Y-7937776D01*
X-704918Y-7842538D01*
X-609680Y-7747300D01*
X-562061Y-7652062D01*
X18592225Y-7576824D02*
X19306511Y-7576824D01*
X19449368Y-7529204D01*
X19544606Y-7433966D01*
X19592225Y-7291109D01*
X19592225Y-7195871D01*
X19592225Y-8053014D02*
X18592225Y-8053014D01*
X18592225Y-8433967D01*
X18639844Y-8529205D01*
X18687463Y-8576824D01*
X18782701Y-8624443D01*
X18925558Y-8624443D01*
X19020796Y-8576824D01*
X19068415Y-8529205D01*
X19116034Y-8433967D01*
X19116034Y-8053014D01*
X19592225Y-9576824D02*
X19592225Y-9005395D01*
X19592225Y-9291109D02*
X18592225Y-9291109D01*
X18735082Y-9195871D01*
X18830320Y-9100633D01*
X18877939Y-9005395D01*
X2727939Y5597462D02*
X2727939Y6597462D01*
X2489844Y6597462D01*
X2346986Y6549843D01*
X2251748Y6454605D01*
X2204129Y6359367D01*
X2156510Y6168891D01*
X2156510Y6026033D01*
X2204129Y5835557D01*
X2251748Y5740319D01*
X2346986Y5645081D01*
X2489844Y5597462D01*
X2727939Y5597462D01*
X1251748Y6597462D02*
X1727939Y6597462D01*
X1775558Y6121272D01*
X1727939Y6168891D01*
X1632701Y6216510D01*
X1394605Y6216510D01*
X1299367Y6168891D01*
X1251748Y6121272D01*
X1204129Y6026033D01*
X1204129Y5787938D01*
X1251748Y5692700D01*
X1299367Y5645081D01*
X1394605Y5597462D01*
X1632701Y5597462D01*
X1727939Y5645081D01*
X1775558Y5692700D01*
X7841749Y-4192538D02*
X7841749Y-5002062D01*
X7794130Y-5097300D01*
X7746511Y-5144919D01*
X7651273Y-5192538D01*
X7460796Y-5192538D01*
X7365558Y-5144919D01*
X7317939Y-5097300D01*
X7270320Y-5002062D01*
X7270320Y-4192538D01*
X6746511Y-5192538D02*
X6556035Y-5192538D01*
X6460796Y-5144919D01*
X6413177Y-5097300D01*
X6317939Y-4954443D01*
X6270320Y-4763967D01*
X6270320Y-4383014D01*
X6317939Y-4287776D01*
X6365558Y-4240157D01*
X6460796Y-4192538D01*
X6651273Y-4192538D01*
X6746511Y-4240157D01*
X6794130Y-4287776D01*
X6841749Y-4383014D01*
X6841749Y-4621109D01*
X6794130Y-4716347D01*
X6746511Y-4763967D01*
X6651273Y-4811586D01*
X6460796Y-4811586D01*
X6365558Y-4763967D01*
X6317939Y-4716347D01*
X6270320Y-4621109D01*
X18422701Y1697700D02*
X18470320Y1650081D01*
X18613177Y1602462D01*
X18708415Y1602462D01*
X18851273Y1650081D01*
X18946511Y1745319D01*
X18994130Y1840557D01*
X19041749Y2031033D01*
X19041749Y2173891D01*
X18994130Y2364367D01*
X18946511Y2459605D01*
X18851273Y2554843D01*
X18708415Y2602462D01*
X18613177Y2602462D01*
X18470320Y2554843D01*
X18422701Y2507224D01*
X18041749Y2507224D02*
X17994130Y2554843D01*
X17898892Y2602462D01*
X17660796Y2602462D01*
X17565558Y2554843D01*
X17517939Y2507224D01*
X17470320Y2411986D01*
X17470320Y2316748D01*
X17517939Y2173891D01*
X18089368Y1602462D01*
X17470320Y1602462D01*
X16613177Y2602462D02*
X16803654Y2602462D01*
X16898892Y2554843D01*
X16946511Y2507224D01*
X17041749Y2364367D01*
X17089368Y2173891D01*
X17089368Y1792938D01*
X17041749Y1697700D01*
X16994130Y1650081D01*
X16898892Y1602462D01*
X16708415Y1602462D01*
X16613177Y1650081D01*
X16565558Y1697700D01*
X16517939Y1792938D01*
X16517939Y2031033D01*
X16565558Y2126272D01*
X16613177Y2173891D01*
X16708415Y2221510D01*
X16898892Y2221510D01*
X16994130Y2173891D01*
X17041749Y2126272D01*
X17089368Y2031033D01*
%LPC*%
D13*
X-187460Y17699100D03*
X-187460Y18349100D03*
X-187460Y18999100D03*
X-187460Y19649100D03*
X-187460Y20299100D03*
D14*
X-187460Y16499100D03*
X-187460Y21499100D03*
D15*
X-2887460Y15499100D03*
X-2887460Y22499100D03*
D13*
X-187460Y6199100D03*
X-187460Y6849100D03*
X-187460Y7499100D03*
X-187460Y8149100D03*
X-187460Y8799100D03*
D14*
X-187460Y4999100D03*
X-187460Y9999100D03*
D15*
X-2887460Y3999100D03*
X-2887460Y10999100D03*
D16*
X8859844Y25909843D03*
X8859844Y25259843D03*
X8859844Y24609843D03*
X7059844Y24609843D03*
D17*
X7059844Y25259843D03*
D18*
X7059844Y25909843D03*
D19*
X1453844Y-4480557D03*
X1453844Y-3159757D03*
X3485844Y-3820157D03*
D20*
X1449844Y27629843D03*
X1449844Y29829843D03*
X3149844Y29829843D03*
X3149844Y27629843D03*
D21*
X22309844Y21349843D03*
X21909844Y21349843D03*
X21509844Y21349843D03*
X21109844Y21349843D03*
X20709844Y21349843D03*
X20309844Y21349843D03*
X19909844Y21349843D03*
X19509844Y21349843D03*
X19109844Y21349843D03*
X18709844Y21349843D03*
X18709844Y23249843D03*
X19109844Y23249843D03*
X19509844Y23249843D03*
X19909844Y23249843D03*
X20309844Y23249843D03*
X20709844Y23249843D03*
X21109844Y23249843D03*
X21509844Y23249843D03*
X21909844Y23249843D03*
X22309844Y23249843D03*
D22*
X-2000700Y25300000D03*
X-3499300Y25300000D03*
X-2000700Y28340000D03*
X-3499300Y28340000D03*
X-3200000Y-4074300D03*
X-3200000Y-2575700D03*
D23*
X4609844Y13149843D03*
X5709844Y13149843D03*
D24*
X8979844Y27149843D03*
X7479844Y27149843D03*
D25*
X11429844Y5269843D03*
X11429844Y6769843D03*
D26*
X9774844Y9319843D03*
X9124844Y9319843D03*
X8474844Y9319843D03*
X7824844Y9319843D03*
D27*
X6799844Y10344843D03*
X6799844Y10994843D03*
X6799844Y11644843D03*
X6799844Y12294843D03*
D26*
X7824844Y13319843D03*
X8474844Y13319843D03*
X9124844Y13319843D03*
X9774844Y13319843D03*
D27*
X10799844Y12294843D03*
X10799844Y11644843D03*
X10799844Y10994843D03*
X10799844Y10344843D03*
D28*
X8174844Y11944843D03*
X9424844Y11944843D03*
X8174844Y10694843D03*
X9424844Y10694843D03*
D29*
X4659844Y10759843D03*
X5559844Y10759843D03*
X4649844Y11899843D03*
X5549844Y11899843D03*
D30*
X3529844Y11899843D03*
X3529844Y12999843D03*
X3529844Y10749843D03*
X3529844Y9649843D03*
D24*
X6169844Y32959843D03*
X7669844Y32959843D03*
D29*
X9129844Y7969843D03*
X10029844Y7969843D03*
D31*
X12179844Y11009843D03*
X12179844Y11909843D03*
X6589844Y6569843D03*
X6589844Y5669843D03*
X6589844Y3069843D03*
X6589844Y2169843D03*
X7969844Y6909843D03*
X7969844Y7809843D03*
D29*
X49844Y24309843D03*
X-850156Y24309843D03*
X49844Y25609843D03*
X-850156Y25609843D03*
X13879844Y20689843D03*
X12979844Y20689843D03*
D31*
X12779844Y24199843D03*
X12779844Y25099843D03*
X10199844Y30439843D03*
X10199844Y29539843D03*
X10199844Y32439843D03*
X10199844Y33339843D03*
X11479844Y1399843D03*
X11479844Y2299843D03*
D29*
X-830156Y-4070157D03*
X-1730156Y-4070157D03*
D23*
X11169844Y3469843D03*
X12269844Y3469843D03*
D30*
X13439844Y9319843D03*
X13439844Y10419843D03*
D23*
X8939844Y14629843D03*
X10039844Y14629843D03*
D24*
X5309844Y-2090157D03*
X3809844Y-2090157D03*
X3639844Y2889843D03*
X5139844Y2889843D03*
D30*
X4699844Y29829843D03*
X4699844Y30929843D03*
X21009844Y24549843D03*
X21009844Y25649843D03*
X23809844Y19419843D03*
X23809844Y18319843D03*
X-10156Y27619843D03*
X-10156Y28719843D03*
X11489844Y24659843D03*
X11489844Y25759843D03*
X10289844Y24659843D03*
X10289844Y25759843D03*
X5649844Y26519843D03*
X5649844Y27619843D03*
X3790000Y23680000D03*
X3790000Y24780000D03*
X3650000Y18200000D03*
X3650000Y19300000D03*
D23*
X13079844Y22569843D03*
X14179844Y22569843D03*
D30*
X15439844Y23689843D03*
X15439844Y22589843D03*
D24*
X8179844Y-2150157D03*
X6679844Y-2150157D03*
D25*
X6759844Y859843D03*
X6759844Y-640157D03*
D32*
X9689844Y3469843D03*
X8739844Y3469843D03*
X7789844Y3469843D03*
X7789844Y5669843D03*
X9689844Y5669843D03*
X8739844Y5669843D03*
D33*
X7669844Y34539843D03*
D34*
X0Y0D03*
D35*
X5300604Y1339843D03*
X5300604Y-560157D03*
X3301624Y389843D03*
D25*
X7669844Y30049843D03*
X7669844Y31549843D03*
D24*
X7669844Y28599843D03*
X9169844Y28599843D03*
X15089844Y20689843D03*
X16589844Y20689843D03*
D34*
X24170000Y-8000000D03*
X-2500000Y-8000000D03*
X24170000Y32640000D03*
X-2500000Y32640000D03*
X20600000Y28690000D03*
D32*
X10079844Y-550157D03*
X9129844Y-550157D03*
X8179844Y-550157D03*
X8179844Y1649843D03*
X10079844Y1649843D03*
D36*
X7669844Y36159843D03*
X7669844Y42909843D03*
D37*
X12444844Y28269843D03*
X16514844Y28269843D03*
X12444844Y29539843D03*
X16514844Y29539843D03*
X12444844Y30809843D03*
X16514844Y30809843D03*
X12444844Y32079843D03*
X16514844Y32079843D03*
X12444844Y33349843D03*
X16514844Y33349843D03*
D38*
X14479844Y32714843D03*
X14479844Y28904843D03*
D39*
X9560000Y17420000D03*
D40*
X6460000Y21295000D03*
X8660000Y21295000D03*
X6460000Y19095000D03*
X8660000Y19095000D03*
D39*
X9060000Y17420000D03*
X8560000Y17420000D03*
X8060000Y17420000D03*
X7560000Y17420000D03*
X7060000Y17420000D03*
X6560000Y17420000D03*
X6060000Y17420000D03*
X5560000Y17420000D03*
D41*
X4785000Y18195000D03*
X4785000Y18695000D03*
X4785000Y19195000D03*
X4785000Y19695000D03*
X4785000Y20195000D03*
X4785000Y20695000D03*
X4785000Y21195000D03*
X4785000Y21695000D03*
X4785000Y22195000D03*
D39*
X5560000Y22970000D03*
X6060000Y22970000D03*
X6560000Y22970000D03*
X7060000Y22970000D03*
X7560000Y22970000D03*
X8060000Y22970000D03*
X8560000Y22970000D03*
X9060000Y22970000D03*
X9560000Y22970000D03*
D41*
X10335000Y22195000D03*
X10335000Y21695000D03*
X10335000Y21195000D03*
X10335000Y20695000D03*
X10335000Y20195000D03*
X10335000Y19695000D03*
X10335000Y19195000D03*
X10335000Y18695000D03*
X10335000Y18195000D03*
D42*
X6180000Y-8085000D03*
X3180000Y-8085000D03*
D43*
X6930000Y-6335000D03*
X3930000Y-6335000D03*
X2430000Y-6335000D03*
D44*
X8330000Y-9185000D03*
X1030000Y-9185000D03*
X1030000Y-6985000D03*
X8330000Y-6985000D03*
D45*
X14779844Y-2105157D03*
X12779844Y-2105157D03*
D46*
X17179844Y-7655157D03*
X10379844Y-7655157D03*
D47*
X3904844Y4629843D03*
X1794844Y4629843D03*
D48*
X4809844Y-3820157D03*
D49*
X5309844Y-3820157D03*
X5809844Y-3820157D03*
X4809844Y-4320157D03*
X5809844Y-4320157D03*
X5309844Y-4320157D03*
D24*
X15804844Y2179843D03*
X14304844Y2179843D03*
M02*
