G04 #@! TF.FileFunction,Copper,L2,Bot,Signal*
%FSLAX46Y46*%
G04 Gerber Fmt 4.6, Leading zero omitted, Abs format (unit mm)*
G04 Created by KiCad (PCBNEW 4.0.2-stable) date 11/7/2016 10:49:39 PM*
%MOMM*%
G01*
G04 APERTURE LIST*
%ADD10C,0.100000*%
%ADD11C,0.838200*%
%ADD12R,1.000000X0.350000*%
%ADD13R,1.200000X1.400000*%
%ADD14R,0.200000X1.050000*%
%ADD15R,0.797560X0.797560*%
%ADD16R,0.600000X0.500000*%
%ADD17R,0.750000X0.800000*%
%ADD18R,0.350000X0.800000*%
%ADD19R,0.800000X0.350000*%
%ADD20R,1.250000X1.250000*%
%ADD21R,0.400000X0.600000*%
%ADD22R,0.500000X0.600000*%
%ADD23R,0.800000X0.750000*%
%ADD24R,0.600000X0.400000*%
%ADD25R,0.650000X1.060000*%
%ADD26O,0.280000X0.850000*%
%ADD27R,2.200000X2.200000*%
%ADD28O,0.850000X0.280000*%
%ADD29R,1.060000X0.650000*%
%ADD30O,2.790000X0.740000*%
%ADD31C,0.970000*%
%ADD32R,1.000000X3.500000*%
%ADD33R,1.600000X3.400000*%
%ADD34R,0.590000X0.450000*%
%ADD35R,1.350000X0.400000*%
%ADD36O,0.950000X1.250000*%
%ADD37O,1.550000X1.000000*%
%ADD38R,0.900000X1.700000*%
%ADD39R,1.050000X2.200000*%
%ADD40R,1.000000X1.050000*%
%ADD41R,2.000000X1.250000*%
%ADD42R,6.000000X0.500000*%
%ADD43R,0.500000X7.000000*%
%ADD44R,3.000000X0.500000*%
%ADD45R,0.500000X2.600000*%
%ADD46R,0.850000X0.350000*%
%ADD47R,1.650000X2.400000*%
%ADD48C,0.154000*%
%ADD49C,0.300000*%
%ADD50C,0.500000*%
G04 APERTURE END LIST*
D10*
D11*
X12869844Y1779843D03*
X6339844Y-6540157D03*
X10069844Y-4360157D03*
X809844Y-8580157D03*
X1099844Y-5800157D03*
X22899844Y10239843D03*
X4199844Y8299843D03*
X5989844Y27949843D03*
X17339844Y18009843D03*
X8929844Y31629843D03*
X8954844Y33404843D03*
X14454844Y34004843D03*
X24854844Y28204843D03*
X24854844Y23704843D03*
X12354844Y26704843D03*
X5854844Y14704843D03*
X1854844Y15204843D03*
X1169844Y12439843D03*
X14854844Y13204843D03*
X17204844Y4704843D03*
X22529844Y33929843D03*
X11029844Y-2070157D03*
X17029844Y929843D03*
X17029844Y-2570157D03*
X6769844Y-2110157D03*
X14029844Y-6570157D03*
X4529844Y-8570157D03*
X-2970156Y7429843D03*
X-2970156Y18929843D03*
X529844Y31429843D03*
X3279844Y31949843D03*
X3529844Y33929843D03*
X529844Y33929843D03*
D12*
X8859844Y25909843D03*
X8859844Y25259843D03*
X8859844Y24609843D03*
X7059844Y24609843D03*
X7059844Y25259843D03*
X7059844Y25909843D03*
D13*
X949844Y26069843D03*
X949844Y28269843D03*
X2649844Y28269843D03*
X2649844Y26069843D03*
D14*
X22309844Y21349843D03*
X21909844Y21349843D03*
X21509844Y21349843D03*
X21109844Y21349843D03*
X20709844Y21349843D03*
X20309844Y21349843D03*
X19909844Y21349843D03*
X19509844Y21349843D03*
X19109844Y21349843D03*
X18709844Y21349843D03*
X18709844Y23249843D03*
X19109844Y23249843D03*
X19509844Y23249843D03*
X19909844Y23249843D03*
X20309844Y23249843D03*
X20709844Y23249843D03*
X21109844Y23249843D03*
X21509844Y23249843D03*
X21909844Y23249843D03*
X22309844Y23249843D03*
D15*
X-2000700Y25300000D03*
X-3499300Y25300000D03*
X-2000700Y28340000D03*
X-3499300Y28340000D03*
X-3200000Y-4074300D03*
X-3200000Y-2575700D03*
D16*
X4609844Y13149843D03*
X5709844Y13149843D03*
D17*
X9159844Y27139843D03*
X9159844Y28639843D03*
X11429844Y5269843D03*
X11429844Y6769843D03*
D18*
X9774844Y9319843D03*
X9124844Y9319843D03*
X8474844Y9319843D03*
X7824844Y9319843D03*
D19*
X6799844Y10344843D03*
X6799844Y10994843D03*
X6799844Y11644843D03*
X6799844Y12294843D03*
D18*
X7824844Y13319843D03*
X8474844Y13319843D03*
X9124844Y13319843D03*
X9774844Y13319843D03*
D19*
X10799844Y12294843D03*
X10799844Y11644843D03*
X10799844Y10994843D03*
X10799844Y10344843D03*
D20*
X8174844Y11944843D03*
X9424844Y11944843D03*
X8174844Y10694843D03*
X9424844Y10694843D03*
D21*
X4659844Y10759843D03*
X5559844Y10759843D03*
X4649844Y11899843D03*
X5549844Y11899843D03*
D22*
X3529844Y11899843D03*
X3529844Y12999843D03*
X3529844Y10749843D03*
X3529844Y9649843D03*
D23*
X6009844Y34069843D03*
X7509844Y34069843D03*
D21*
X9129844Y7969843D03*
X10029844Y7969843D03*
D24*
X12179844Y11009843D03*
X12179844Y11909843D03*
X6589844Y6569843D03*
X6589844Y5669843D03*
X6589844Y3069843D03*
X6589844Y2169843D03*
X7969844Y6909843D03*
X7969844Y7809843D03*
D21*
X49844Y24309843D03*
X-850156Y24309843D03*
X-1870156Y26869843D03*
X-2770156Y26869843D03*
X13879844Y20689843D03*
X12979844Y20689843D03*
D24*
X12779844Y24199843D03*
X12779844Y25099843D03*
X10199844Y30439843D03*
X10199844Y29539843D03*
X10199844Y32439843D03*
X10199844Y33339843D03*
X11479844Y1399843D03*
X11479844Y2299843D03*
X-1690156Y-3180157D03*
X-1690156Y-4080157D03*
D16*
X11169844Y3469843D03*
X12269844Y3469843D03*
D22*
X13439844Y9319843D03*
X13439844Y10419843D03*
D16*
X8939844Y14629843D03*
X10039844Y14629843D03*
D23*
X5539844Y-2620157D03*
X4039844Y-2620157D03*
X3109844Y2489843D03*
X4609844Y2489843D03*
D22*
X2659844Y29739843D03*
X2659844Y30839843D03*
X21009844Y24549843D03*
X21009844Y25649843D03*
X23809844Y19419843D03*
X23809844Y18319843D03*
X-500156Y26069843D03*
X-500156Y27169843D03*
X11489844Y24659843D03*
X11489844Y25759843D03*
X10289844Y24659843D03*
X10289844Y25759843D03*
D16*
X5549844Y25739843D03*
X4449844Y25739843D03*
X3019844Y22969843D03*
X1919844Y22969843D03*
D22*
X3650000Y18200000D03*
X3650000Y19300000D03*
D16*
X13079844Y22569843D03*
X14179844Y22569843D03*
D22*
X15439844Y23689843D03*
X15439844Y22589843D03*
D17*
X8179844Y-2050157D03*
X8179844Y-3550157D03*
X6759844Y859843D03*
X6759844Y-640157D03*
D25*
X9689844Y3469843D03*
X8739844Y3469843D03*
X7789844Y3469843D03*
X7789844Y5669843D03*
X9689844Y5669843D03*
X8739844Y5669843D03*
D23*
X6009844Y32639843D03*
X7509844Y32639843D03*
X6009844Y31239843D03*
X4509844Y31239843D03*
X15089844Y20689843D03*
X16589844Y20689843D03*
D25*
X10079844Y-550157D03*
X9129844Y-550157D03*
X8179844Y-550157D03*
X8179844Y1649843D03*
X10079844Y1649843D03*
D26*
X9560000Y17420000D03*
D27*
X6460000Y21295000D03*
X8660000Y21295000D03*
X6460000Y19095000D03*
X8660000Y19095000D03*
D26*
X9060000Y17420000D03*
X8560000Y17420000D03*
X8060000Y17420000D03*
X7560000Y17420000D03*
X7060000Y17420000D03*
X6560000Y17420000D03*
X6060000Y17420000D03*
X5560000Y17420000D03*
D28*
X4785000Y18195000D03*
X4785000Y18695000D03*
X4785000Y19195000D03*
X4785000Y19695000D03*
X4785000Y20195000D03*
X4785000Y20695000D03*
X4785000Y21195000D03*
X4785000Y21695000D03*
X4785000Y22195000D03*
D26*
X5560000Y22970000D03*
X6060000Y22970000D03*
X6560000Y22970000D03*
X7060000Y22970000D03*
X7560000Y22970000D03*
X8060000Y22970000D03*
X8560000Y22970000D03*
X9060000Y22970000D03*
X9560000Y22970000D03*
D28*
X10335000Y22195000D03*
X10335000Y21695000D03*
X10335000Y21195000D03*
X10335000Y20695000D03*
X10335000Y20195000D03*
X10335000Y19695000D03*
X10335000Y19195000D03*
X10335000Y18695000D03*
X10335000Y18195000D03*
D23*
X15804844Y2179843D03*
X14304844Y2179843D03*
D11*
X-2970156Y929843D03*
D29*
X3119844Y-840157D03*
X3119844Y109843D03*
X3119844Y1059843D03*
X5319844Y1059843D03*
X5319844Y-840157D03*
D21*
X7479844Y-8170157D03*
X8379844Y-8170157D03*
D15*
X-1910856Y13249843D03*
X-3409456Y13249843D03*
D24*
X7609844Y-6060157D03*
X7609844Y-6960157D03*
D21*
X249844Y13249843D03*
X-650156Y13249843D03*
D30*
X12444844Y28249843D03*
X16514844Y28249843D03*
X12444844Y29519843D03*
X16514844Y29519843D03*
X12444844Y30789843D03*
X16514844Y30789843D03*
X12444844Y32059843D03*
X16514844Y32059843D03*
X12444844Y33329843D03*
X16514844Y33329843D03*
D31*
X14479844Y32694843D03*
X14479844Y28884843D03*
D32*
X14779844Y-2105157D03*
X12779844Y-2105157D03*
D33*
X17179844Y-7655157D03*
X10379844Y-7655157D03*
D34*
X1794844Y4629843D03*
X3904844Y4629843D03*
D35*
X-187460Y17699100D03*
X-187460Y18349100D03*
X-187460Y18999100D03*
X-187460Y19649100D03*
X-187460Y20299100D03*
D36*
X-187460Y16499100D03*
X-187460Y21499100D03*
D37*
X-2887460Y15499100D03*
X-2887460Y22499100D03*
D35*
X-187460Y6199100D03*
X-187460Y6849100D03*
X-187460Y7499100D03*
X-187460Y8149100D03*
X-187460Y8799100D03*
D36*
X-187460Y4999100D03*
X-187460Y9999100D03*
D37*
X-2887460Y3999100D03*
X-2887460Y10999100D03*
D38*
X6199844Y-8180157D03*
X2799844Y-8180157D03*
D39*
X4534844Y28079843D03*
X7484844Y28079843D03*
D40*
X6009844Y29604843D03*
D41*
X7500000Y36159843D03*
X7500000Y42909843D03*
D42*
X4500000Y43284843D03*
D43*
X1750000Y40034843D03*
D44*
X3000000Y36784843D03*
D45*
X4250000Y37839843D03*
D23*
X6839844Y-4920157D03*
X8339844Y-4920157D03*
X15809844Y949843D03*
X14309844Y949843D03*
D21*
X1939844Y-2720157D03*
X2839844Y-2720157D03*
D46*
X2344844Y-5885157D03*
X2344844Y-5235157D03*
X2344844Y-4585157D03*
X2344844Y-3935157D03*
X5294844Y-3935157D03*
X5294844Y-4585157D03*
X5294844Y-5235157D03*
X5294844Y-5885157D03*
D47*
X3819844Y-4910157D03*
D24*
X1029844Y-4580157D03*
X1029844Y-3680157D03*
X-180156Y-5470157D03*
X-180156Y-4570157D03*
D11*
X3819844Y-4910157D03*
X5029844Y3489843D03*
X1929844Y23949843D03*
X12779844Y229843D03*
X9129844Y619843D03*
X8660000Y21295000D03*
X10139844Y26889843D03*
X8660000Y19095000D03*
X6460000Y19095000D03*
X6460000Y21295000D03*
X2249844Y21179843D03*
X12069844Y13859843D03*
X13639844Y11689843D03*
X22889844Y13509843D03*
X8889844Y-6700157D03*
X15829844Y3354843D03*
X25439844Y13049843D03*
X25389844Y18229843D03*
X15029844Y10079843D03*
X11069844Y9319843D03*
X6589844Y8329843D03*
X11299844Y-550157D03*
X-3200156Y-1480157D03*
X3464687Y21195000D03*
X17799844Y26419843D03*
X15069844Y27389843D03*
X10569844Y28749843D03*
X18969844Y26149843D03*
X2429844Y20079843D03*
X14469844Y30229843D03*
X13289844Y26149843D03*
X14259844Y18369843D03*
X16609844Y25169843D03*
X20349844Y30809843D03*
X14089844Y19439843D03*
X14489844Y31329843D03*
X14119844Y25489843D03*
X13069844Y19329843D03*
X19419844Y32079843D03*
X18729844Y33349843D03*
X12239844Y19989843D03*
X4429844Y6179843D03*
X23159844Y11899843D03*
X14489844Y8669843D03*
X24429844Y9299843D03*
X13849844Y5019843D03*
X5519844Y5309843D03*
X25319844Y8779843D03*
X14699844Y4409843D03*
X6839844Y3879843D03*
X1539844Y7519843D03*
X2519844Y7339843D03*
X13689844Y6079843D03*
X16399844Y10949843D03*
X16139844Y15109843D03*
X8559844Y15649843D03*
X17629844Y21939843D03*
X24849844Y14389843D03*
X25299844Y19279843D03*
X25289844Y20299843D03*
X25299844Y21349843D03*
X24229844Y16299843D03*
X24599844Y15359843D03*
X25429844Y11979843D03*
X15339844Y15969843D03*
X5199844Y24869843D03*
X-910156Y14409843D03*
X15999844Y17639843D03*
X18559844Y27079843D03*
X22449844Y26109843D03*
X10199844Y31479843D03*
X17199844Y11579843D03*
X11189844Y23639843D03*
X11549844Y22149843D03*
X11529844Y17609843D03*
X4070000Y22970000D03*
X2539844Y18199843D03*
X8389844Y-9260157D03*
D48*
X5294844Y-3935157D02*
X5634844Y-3935157D01*
X5634844Y-3935157D02*
X6769844Y-2800157D01*
X6769844Y-2800157D02*
X6769844Y-2110157D01*
X2344844Y-5235157D02*
X1664844Y-5235157D01*
X1664844Y-5235157D02*
X1099844Y-5800157D01*
X2344844Y-5235157D02*
X3494844Y-5235157D01*
X3494844Y-5235157D02*
X3819844Y-4910157D01*
X5294844Y-3935157D02*
X4664844Y-3935157D01*
X4664844Y-3935157D02*
X3819844Y-4780157D01*
X3819844Y-4780157D02*
X3819844Y-4910157D01*
X3819844Y-4910157D02*
X3819844Y-3490157D01*
X4039844Y-3270157D02*
X4039844Y-2620157D01*
X3819844Y-3490157D02*
X4039844Y-3270157D01*
X3079844Y-4870157D02*
X3079844Y-5010157D01*
X4609844Y2489843D02*
X4609844Y3069843D01*
X4609844Y3069843D02*
X5029844Y3489843D01*
X1919844Y22969843D02*
X1919844Y23939843D01*
X1919844Y23939843D02*
X1929844Y23949843D01*
X949844Y28269843D02*
X949844Y27439843D01*
X2649844Y26979843D02*
X2649844Y26069843D01*
X2479844Y27149843D02*
X2649844Y26979843D01*
X1239844Y27149843D02*
X2479844Y27149843D01*
X949844Y27439843D02*
X1239844Y27149843D01*
X6759844Y-640157D02*
X6759844Y-70157D01*
X7929844Y619843D02*
X9129844Y619843D01*
X7439844Y129843D02*
X7929844Y619843D01*
X6959844Y129843D02*
X7439844Y129843D01*
X6759844Y-70157D02*
X6959844Y129843D01*
X7059844Y25909843D02*
X7849844Y25909843D01*
X7989844Y25769843D02*
X7989844Y25259843D01*
X7849844Y25909843D02*
X7989844Y25769843D01*
X8859844Y25259843D02*
X7989844Y25259843D01*
X7989844Y25259843D02*
X7059844Y25259843D01*
X12779844Y-2105157D02*
X12779844Y229843D01*
X9129844Y-550157D02*
X9129844Y619843D01*
X12779844Y229843D02*
X12799844Y209843D01*
D49*
X12734844Y-2150157D02*
X12779844Y-2105157D01*
X13120560Y-2920560D02*
X13120000Y-2920000D01*
D48*
X10289844Y26739843D02*
X10289844Y25759843D01*
X10139844Y26889843D02*
X10289844Y26739843D01*
X6460000Y19095000D02*
X8660000Y19095000D01*
X6460000Y21295000D02*
X6460000Y19095000D01*
X6460000Y19095000D02*
X6460000Y21295000D01*
X1930587Y21499100D02*
X-187460Y21499100D01*
X2249844Y21179843D02*
X1930587Y21499100D01*
X13439844Y10419843D02*
X13439844Y11489843D01*
X10799844Y12589843D02*
X10799844Y12294843D01*
X12069844Y13859843D02*
X10799844Y12589843D01*
X13439844Y11489843D02*
X13639844Y11689843D01*
X6780000Y25900000D02*
X7459687Y25900000D01*
X8780000Y25250000D02*
X9250001Y25250000D01*
X9250001Y25250000D02*
X9759844Y25759843D01*
X9759844Y25759843D02*
X10289844Y25759843D01*
X11489844Y25759843D02*
X12709844Y25759843D01*
X12779844Y25689843D02*
X12779844Y25099843D01*
X12709844Y25759843D02*
X12779844Y25689843D01*
X14179844Y22569843D02*
X14179844Y24459843D01*
X13539844Y25099843D02*
X12779844Y25099843D01*
X14179844Y24459843D02*
X13539844Y25099843D01*
X7969844Y7809843D02*
X8439844Y7809843D01*
X9169844Y6769843D02*
X11429844Y6769843D01*
X8619844Y7319843D02*
X9169844Y6769843D01*
X8619844Y7629843D02*
X8619844Y7319843D01*
X8439844Y7809843D02*
X8619844Y7629843D01*
X25309844Y17199843D02*
X25599844Y16909843D01*
X22929844Y13469843D02*
X22889844Y13509843D01*
X24909844Y13469843D02*
X22929844Y13469843D01*
X25599844Y14159843D02*
X24909844Y13469843D01*
X25599844Y16909843D02*
X25599844Y14159843D01*
X22709844Y17359843D02*
X23649844Y17359843D01*
X23809844Y17519843D02*
X23809844Y18319843D01*
X23649844Y17359843D02*
X23809844Y17519843D01*
X8739844Y3469843D02*
X8739844Y2749843D01*
X7249844Y2169843D02*
X6589844Y2169843D01*
X7639844Y2559843D02*
X7249844Y2169843D01*
X8549844Y2559843D02*
X7639844Y2559843D01*
X8739844Y2749843D02*
X8549844Y2559843D01*
X8474844Y9319843D02*
X8474844Y8774843D01*
X7969844Y8269843D02*
X7969844Y7809843D01*
X8474844Y8774843D02*
X7969844Y8269843D01*
X8660000Y21295000D02*
X8660000Y19095000D01*
X6460000Y21295000D02*
X8660000Y21295000D01*
X20309844Y23249843D02*
X20309844Y25359843D01*
X20599844Y25649843D02*
X21009844Y25649843D01*
X20309844Y25359843D02*
X20599844Y25649843D01*
X10799844Y12294843D02*
X9774844Y12294843D01*
X9774844Y12294843D02*
X9424844Y11944843D01*
X8474844Y9319843D02*
X8474844Y10394843D01*
X8474844Y10394843D02*
X8174844Y10694843D01*
X23809844Y18319843D02*
X24309844Y18319843D01*
X25309844Y17319843D02*
X25309844Y17199843D01*
X24309844Y18319843D02*
X25309844Y17319843D01*
D49*
X5294844Y-4585157D02*
X5804844Y-4585157D01*
X8179844Y-2620157D02*
X8179844Y-2050157D01*
X8009844Y-2790157D02*
X8179844Y-2620157D01*
X7599844Y-2790157D02*
X8009844Y-2790157D01*
X5804844Y-4585157D02*
X7599844Y-2790157D01*
X10389844Y-3320157D02*
X10399844Y-3310157D01*
X10399844Y-3310157D02*
X10389844Y-3320157D01*
X10389844Y-3320157D02*
X10389844Y-3300157D01*
X8179844Y-2150157D02*
X9239844Y-2150157D01*
X14779844Y-4290157D02*
X14779844Y-2105157D01*
X14289844Y-4780157D02*
X14779844Y-4290157D01*
X11869844Y-4780157D02*
X14289844Y-4780157D01*
X9239844Y-2150157D02*
X10389844Y-3300157D01*
X10389844Y-3300157D02*
X11869844Y-4780157D01*
X8179844Y-550157D02*
X8179844Y-2150157D01*
X7609844Y-6060157D02*
X7039844Y-6060157D01*
X6839844Y-5860157D02*
X6839844Y-4920157D01*
X7039844Y-6060157D02*
X6839844Y-5860157D01*
X7609844Y-6060157D02*
X8249844Y-6060157D01*
X8249844Y-6060157D02*
X8889844Y-6700157D01*
X5294844Y-5235157D02*
X5854844Y-5235157D01*
X5854844Y-5235157D02*
X6169844Y-4920157D01*
X6169844Y-4920157D02*
X6839844Y-4920157D01*
X8939844Y-5670157D02*
X8939844Y-5570157D01*
X8889844Y-5620157D02*
X8939844Y-5670157D01*
X8889844Y-6700157D02*
X8889844Y-5620157D01*
X15809844Y949843D02*
X15804844Y944843D01*
X15804844Y944843D02*
X15804844Y-4395157D01*
X8939844Y-5570157D02*
X9164844Y-5345157D01*
X9164844Y-5345157D02*
X9529844Y-5345157D01*
X15804844Y-4395157D02*
X14854844Y-5345157D01*
X14854844Y-5345157D02*
X9529844Y-5345157D01*
X15804844Y2179843D02*
X15809844Y2174843D01*
X15809844Y2174843D02*
X15809844Y949843D01*
X6904844Y-4765157D02*
X6909844Y-4770157D01*
X15829844Y3354843D02*
X15804844Y3329843D01*
X15804844Y3329843D02*
X15804844Y2179843D01*
D48*
X20309844Y21349843D02*
X20309844Y20819843D01*
X20309844Y20819843D02*
X20709844Y20419843D01*
D49*
X15099844Y10149843D02*
X19849844Y10149843D01*
X19849844Y10149843D02*
X22399844Y12699843D01*
X25089844Y12699843D02*
X25439844Y13049843D01*
X15029844Y10079843D02*
X15099844Y10149843D01*
X22399844Y12699843D02*
X25089844Y12699843D01*
D48*
X25349844Y18269843D02*
X25249844Y18269843D01*
X25389844Y18229843D02*
X25349844Y18269843D01*
D49*
X13439844Y9319843D02*
X13879844Y9319843D01*
X14639844Y10079843D02*
X15029844Y10079843D01*
X13879844Y9319843D02*
X14639844Y10079843D01*
X13439844Y9319843D02*
X12119844Y9319843D01*
X12119844Y9319843D02*
X11069844Y9319843D01*
X6589844Y6569843D02*
X6589844Y8329843D01*
X23809844Y19419843D02*
X24099844Y19419843D01*
X24099844Y19419843D02*
X25249844Y18269843D01*
X25249844Y18269843D02*
X25309844Y18269843D01*
D48*
X20709844Y21349843D02*
X20709844Y20419843D01*
X21709844Y19419843D02*
X22809844Y19419843D01*
X22809844Y19419843D02*
X23809844Y19419843D01*
X20709844Y20419843D02*
X21709844Y19419843D01*
D49*
X9774844Y9319843D02*
X11069844Y9319843D01*
D48*
X-3200000Y-2575700D02*
X-3200000Y-1480313D01*
X11299844Y-550157D02*
X10079844Y-550157D01*
X-3200000Y-1480313D02*
X-3200156Y-1480157D01*
X10079844Y1649843D02*
X10599844Y1649843D01*
X10849844Y1399843D02*
X11479844Y1399843D01*
X10599844Y1649843D02*
X10849844Y1399843D01*
X-1730156Y-4070157D02*
X-3195857Y-4070157D01*
X-3195857Y-4070157D02*
X-3200000Y-4074300D01*
X4785000Y21195000D02*
X3464687Y21195000D01*
X17799844Y26419843D02*
X17779844Y26399843D01*
X17779844Y26399843D02*
X17799844Y26419843D01*
X17799844Y26419843D02*
X17799844Y26379843D01*
X10199844Y29539843D02*
X10199844Y29189843D01*
X16789844Y27389843D02*
X17359844Y26819843D01*
X15069844Y27389843D02*
X16789844Y27389843D01*
X10199844Y29119843D02*
X10569844Y28749843D01*
X10199844Y29189843D02*
X10199844Y29119843D01*
X12444844Y29539843D02*
X11469844Y29539843D01*
X19509844Y24669843D02*
X19509844Y23249843D01*
X17359844Y26819843D02*
X17799844Y26379843D01*
X17799844Y26379843D02*
X17859844Y26319843D01*
X17859844Y26319843D02*
X19509844Y24669843D01*
X12444844Y29539843D02*
X10199844Y29539843D01*
X12444844Y33349843D02*
X10209844Y33349843D01*
X10209844Y33349843D02*
X10199844Y33339843D01*
X10335000Y21195000D02*
X11595001Y21195000D01*
X15439844Y21989843D02*
X15439844Y22589843D01*
X15179844Y21729843D02*
X15439844Y21989843D01*
X12129844Y21729843D02*
X15179844Y21729843D01*
X11595001Y21195000D02*
X12129844Y21729843D01*
X949844Y26069843D02*
X949844Y25169843D01*
X2674264Y24939843D02*
X3754264Y23859843D01*
X1179844Y24939843D02*
X2674264Y24939843D01*
X949844Y25169843D02*
X1179844Y24939843D01*
X949844Y26069843D02*
X-500156Y26069843D01*
X6060000Y23519687D02*
X5719844Y23859843D01*
X5719844Y23859843D02*
X3754264Y23859843D01*
X6060000Y22970000D02*
X6060000Y23519687D01*
X4719844Y24199843D02*
X3849844Y24199843D01*
X5859844Y24199843D02*
X4719844Y24199843D01*
X3539844Y25379843D02*
X3539844Y28089843D01*
X3539844Y28089843D02*
X3359844Y28269843D01*
X2649844Y28269843D02*
X3359844Y28269843D01*
X6560000Y23499687D02*
X6560000Y22970000D01*
X6560000Y23499687D02*
X5859844Y24199843D01*
X3539844Y24509843D02*
X3539844Y25379843D01*
X3849844Y24199843D02*
X3539844Y24509843D01*
X2649844Y28269843D02*
X2649844Y29799843D01*
X2649844Y29799843D02*
X2659844Y29809843D01*
X6560000Y23279687D02*
X6560000Y22970000D01*
D50*
X7500000Y36159843D02*
X7500000Y34079687D01*
X7500000Y34079687D02*
X7509844Y34069843D01*
X7509844Y32639843D02*
X7509844Y34069843D01*
D48*
X4785000Y20695000D02*
X4155001Y20695000D01*
X3539844Y20079843D02*
X2429844Y20079843D01*
X4155001Y20695000D02*
X3539844Y20079843D01*
X18969844Y26149843D02*
X18969844Y26419843D01*
X18119844Y29539843D02*
X18949844Y28709843D01*
X18949844Y28709843D02*
X18949844Y27989843D01*
X18119844Y29539843D02*
X16514844Y29539843D01*
X19229844Y27709843D02*
X18949844Y27989843D01*
X19229844Y26679843D02*
X19229844Y27709843D01*
X18969844Y26419843D02*
X19229844Y26679843D01*
X19389844Y26149843D02*
X19909844Y25629843D01*
X18969844Y26149843D02*
X19389844Y26149843D01*
X19909844Y25629843D02*
X19909844Y23249843D01*
X13619844Y26149843D02*
X13289844Y26149843D01*
X13889844Y30809843D02*
X14469844Y30229843D01*
X13889844Y30809843D02*
X12444844Y30809843D01*
X13619844Y26149843D02*
X14619844Y26149843D01*
X14619844Y26149843D02*
X15629844Y26149843D01*
X16609844Y25169843D02*
X15629844Y26149843D01*
X16609844Y25169843D02*
X18499844Y25169843D01*
X18499844Y25169843D02*
X19109844Y24559843D01*
X11419107Y18695000D02*
X10335000Y18695000D01*
X11854264Y18259843D02*
X11419107Y18695000D01*
X14149844Y18259843D02*
X11854264Y18259843D01*
X14259844Y18369843D02*
X14149844Y18259843D01*
X19109844Y24559843D02*
X19109844Y24579843D01*
X19109844Y24559843D02*
X19109844Y23249843D01*
X11354687Y19195000D02*
X11949844Y18599843D01*
X11949844Y18599843D02*
X13529844Y18599843D01*
X13529844Y18599843D02*
X14089844Y19159843D01*
X14089844Y19159843D02*
X14089844Y19439843D01*
X10335000Y19195000D02*
X11354687Y19195000D01*
X16514844Y30809843D02*
X20349844Y30809843D01*
X20349844Y30809843D02*
X22443840Y30809843D01*
X21509844Y24249843D02*
X21509844Y23249843D01*
X23393840Y26133839D02*
X21509844Y24249843D01*
X23393840Y29859843D02*
X23393840Y26133839D01*
X22443840Y30809843D02*
X23393840Y29859843D01*
X14489844Y31329843D02*
X13739844Y32079843D01*
X12444844Y32079843D02*
X13739844Y32079843D01*
X12444844Y32079843D02*
X11319844Y32079843D01*
X15399844Y25339843D02*
X17189844Y23549843D01*
X17189844Y23249843D02*
X17189844Y23549843D01*
X15249844Y25489843D02*
X15399844Y25339843D01*
X14119844Y25489843D02*
X15249844Y25489843D01*
X18709844Y23249843D02*
X17189844Y23249843D01*
X17189844Y23249843D02*
X15361842Y21421841D01*
X15361842Y21421841D02*
X13191842Y21421841D01*
X13191842Y21421841D02*
X12979844Y21209843D01*
X12979844Y21209843D02*
X12979844Y20689843D01*
X10335000Y20695000D02*
X12974687Y20695000D01*
X12974687Y20695000D02*
X12979844Y20689843D01*
X11354687Y19695000D02*
X11719844Y19329843D01*
X11719844Y19329843D02*
X13069844Y19329843D01*
X10335000Y19695000D02*
X11354687Y19695000D01*
X19419844Y32079843D02*
X21869844Y32079843D01*
X21909844Y24149843D02*
X21909844Y23249843D01*
X23701842Y25941841D02*
X21909844Y24149843D01*
X23701842Y30247845D02*
X23701842Y25941841D01*
X21869844Y32079843D02*
X23701842Y30247845D01*
X19419844Y32079843D02*
X16514844Y32079843D01*
X12034687Y20195000D02*
X10335000Y20195000D01*
X12034687Y20195000D02*
X12239844Y19989843D01*
X19009844Y33349843D02*
X21069844Y33349843D01*
X23119844Y23249843D02*
X22309844Y23249843D01*
X24009844Y24139843D02*
X23119844Y23249843D01*
X24009844Y30409843D02*
X24009844Y24139843D01*
X21069844Y33349843D02*
X24009844Y30409843D01*
X19009844Y33349843D02*
X18729844Y33349843D01*
X18729844Y33349843D02*
X16514844Y33349843D01*
X9560000Y22970000D02*
X12200001Y22970000D01*
X12779844Y23549843D02*
X12779844Y24199843D01*
X12200001Y22970000D02*
X12779844Y23549843D01*
X7560000Y22970000D02*
X7560000Y23699687D01*
X7059844Y24199843D02*
X7059844Y24609843D01*
X7560000Y23699687D02*
X7059844Y24199843D01*
X7200000Y24600000D02*
X6780000Y24600000D01*
X8060000Y22970000D02*
X8060000Y23579999D01*
X8859844Y24379843D02*
X8859844Y24609843D01*
X8060000Y23579999D02*
X8859844Y24379843D01*
X8460000Y24600000D02*
X8780000Y24600000D01*
X21009844Y9749843D02*
X15999844Y9749843D01*
X4429844Y6179843D02*
X4429844Y6839843D01*
X4429844Y6839843D02*
X2949844Y8319843D01*
X-187460Y8149100D02*
X1029101Y8149100D01*
X21009844Y9749843D02*
X23159844Y11899843D01*
X1199844Y8319843D02*
X2949844Y8319843D01*
X1029101Y8149100D02*
X1199844Y8319843D01*
X14919844Y8669843D02*
X14489844Y8669843D01*
X15999844Y9749843D02*
X14919844Y8669843D01*
X24429844Y9299843D02*
X23967846Y8837845D01*
X23967846Y8837845D02*
X22577846Y8837845D01*
X13849844Y5025423D02*
X13849844Y5019843D01*
X17662266Y8837845D02*
X22577846Y8837845D01*
X17662266Y8837845D02*
X13849844Y5025423D01*
X5879844Y5669843D02*
X6589844Y5669843D01*
X5519844Y5309843D02*
X5879844Y5669843D01*
X7789844Y5669843D02*
X6589844Y5669843D01*
X25319844Y8779843D02*
X25069844Y8529843D01*
X25069844Y8529843D02*
X24529844Y8529843D01*
X6589844Y3629843D02*
X6589844Y3069843D01*
X24529844Y8529843D02*
X17789844Y8529843D01*
X14699844Y5439843D02*
X17789844Y8529843D01*
X14699844Y4409843D02*
X14699844Y5439843D01*
X6589844Y3629843D02*
X6839844Y3879843D01*
X7789844Y3469843D02*
X7529844Y3469843D01*
X7529844Y3469843D02*
X7129844Y3069843D01*
X7129844Y3069843D02*
X6589844Y3069843D01*
X-187460Y7499100D02*
X1519101Y7499100D01*
X1519101Y7499100D02*
X1539844Y7519843D01*
X-186560Y7500000D02*
X-187460Y7499100D01*
X2029101Y6849100D02*
X-187460Y6849100D01*
X2519844Y7339843D02*
X2029101Y6849100D01*
X-138360Y6800000D02*
X-187460Y6849100D01*
D49*
X429844Y-1770157D02*
X-970156Y-1770157D01*
X759844Y-1770157D02*
X1689844Y-840157D01*
X1689844Y-840157D02*
X2229844Y-840157D01*
X3119844Y-840157D02*
X2229844Y-840157D01*
X429844Y-1770157D02*
X759844Y-1770157D01*
X-1690156Y-2490157D02*
X-1690156Y-3180157D01*
X-970156Y-1770157D02*
X-1690156Y-2490157D01*
X3109844Y2489843D02*
X3109844Y4409843D01*
X3329844Y4629843D02*
X3904844Y4629843D01*
X3109844Y4409843D02*
X3329844Y4629843D01*
X3119844Y1059843D02*
X3119844Y2479843D01*
X3119844Y2479843D02*
X3109844Y2489843D01*
X3119844Y-840157D02*
X3759844Y-840157D01*
X4589844Y-10157D02*
X4589844Y229843D01*
X3759844Y-840157D02*
X4589844Y-10157D01*
X3119844Y1059843D02*
X3759844Y1059843D01*
X3759844Y1059843D02*
X4589844Y229843D01*
X6129844Y229843D02*
X6759844Y859843D01*
X4589844Y229843D02*
X6129844Y229843D01*
X11169844Y3469843D02*
X11169844Y3929843D01*
X13009844Y5399843D02*
X13689844Y6079843D01*
X13009844Y4949843D02*
X13009844Y5399843D01*
X12439844Y4379843D02*
X13009844Y4949843D01*
X11619844Y4379843D02*
X12439844Y4379843D01*
X11169844Y3929843D02*
X11619844Y4379843D01*
X16399844Y14849843D02*
X16139844Y15109843D01*
X16399844Y10949843D02*
X16399844Y14849843D01*
X8179844Y1649843D02*
X7809844Y1649843D01*
X7809844Y1649843D02*
X7479844Y1319843D01*
X7479844Y1319843D02*
X7479844Y969843D01*
X7479844Y969843D02*
X7369844Y859843D01*
X7369844Y859843D02*
X6759844Y859843D01*
X8559844Y15649843D02*
X8569844Y15649843D01*
X11169844Y3469843D02*
X9689844Y3469843D01*
X8179844Y1649843D02*
X8749844Y1649843D01*
X9689844Y2809843D02*
X9689844Y3469843D01*
X9109844Y2229843D02*
X9689844Y2809843D01*
X9109844Y2009843D02*
X9109844Y2229843D01*
X8749844Y1649843D02*
X9109844Y2009843D01*
X-187460Y17699100D02*
X1180587Y17699100D01*
X1180587Y17699100D02*
X3229844Y15649843D01*
X3229844Y15649843D02*
X8569844Y15649843D01*
X8939844Y15279843D02*
X8939844Y14629843D01*
X8569844Y15649843D02*
X8939844Y15279843D01*
X8474844Y13319843D02*
X8474844Y13834843D01*
X8939844Y14299843D02*
X8939844Y14629843D01*
X8474844Y13834843D02*
X8939844Y14299843D01*
D48*
X18219844Y21349843D02*
X18709844Y21349843D01*
X17629844Y21939843D02*
X18219844Y21349843D01*
X24289844Y14619843D02*
X24239844Y14669843D01*
X20589844Y16434263D02*
X21384264Y15639843D01*
X20589844Y16434263D02*
X20589844Y18573103D01*
X20589844Y18573103D02*
X19109844Y20053103D01*
X19109844Y21349843D02*
X19109844Y20053103D01*
X23269844Y15639843D02*
X24239844Y14669843D01*
X21384264Y15639843D02*
X23269844Y15639843D01*
X24519844Y14389843D02*
X24289844Y14619843D01*
X24849844Y14389843D02*
X24519844Y14389843D01*
X24819844Y19759843D02*
X24407846Y20171841D01*
X25299844Y19279843D02*
X24819844Y19759843D01*
X21509844Y20469843D02*
X21509844Y21349843D01*
X21807846Y20171841D02*
X21509844Y20469843D01*
X24407846Y20171841D02*
X21807846Y20171841D01*
X24369844Y20489843D02*
X24369844Y20479843D01*
X24379844Y20479843D02*
X24369844Y20489843D01*
X25109844Y20479843D02*
X24379844Y20479843D01*
X25289844Y20299843D02*
X25109844Y20479843D01*
X21909844Y20629843D02*
X21909844Y21349843D01*
X22059844Y20479843D02*
X21909844Y20629843D01*
X24459844Y20479843D02*
X24369844Y20479843D01*
X24369844Y20479843D02*
X22059844Y20479843D01*
X25299844Y21349843D02*
X22309844Y21349843D01*
X21619844Y16299843D02*
X21614844Y16294843D01*
X24229844Y16299843D02*
X21619844Y16299843D01*
X19909844Y20124263D02*
X19909844Y21349843D01*
X21239844Y18794263D02*
X19909844Y20124263D01*
X21239844Y16669843D02*
X21239844Y18794263D01*
X21614844Y16294843D02*
X21239844Y16669843D01*
X24599844Y15359843D02*
X24149844Y15359843D01*
X23559844Y15949843D02*
X21509844Y15949843D01*
X24149844Y15359843D02*
X23559844Y15949843D01*
X21509844Y15949843D02*
X20909844Y16549843D01*
X20909844Y16549843D02*
X20909844Y18688683D01*
X20909844Y18688683D02*
X19509844Y20088683D01*
X19509844Y21349843D02*
X19509844Y20088683D01*
X25429844Y11979843D02*
X25429844Y11179843D01*
X25429844Y11179843D02*
X25419844Y11169843D01*
X10029844Y7969843D02*
X14819844Y7969843D01*
X16259844Y9409843D02*
X22079844Y9409843D01*
X14819844Y7969843D02*
X16259844Y9409843D01*
X23539844Y9409843D02*
X22079844Y9409843D01*
X24169844Y10039843D02*
X23539844Y9409843D01*
X24289844Y10039843D02*
X24169844Y10039843D01*
X25419844Y11169843D02*
X24289844Y10039843D01*
X12179844Y11909843D02*
X12179844Y12809843D01*
X15339844Y15969843D02*
X13049844Y13679843D01*
X12179844Y12809843D02*
X13049844Y13679843D01*
D49*
X4070000Y22970000D02*
X3020001Y22970000D01*
X3020001Y22970000D02*
X3019844Y22969843D01*
D48*
X5549844Y24959843D02*
X5289844Y24959843D01*
X5289844Y24959843D02*
X5199844Y24869843D01*
X7060000Y23489687D02*
X7020000Y23489687D01*
X7060000Y22970000D02*
X7060000Y23489687D01*
X5549844Y24959843D02*
X5549844Y25739843D01*
X7020000Y23489687D02*
X5549844Y24959843D01*
X249844Y13249843D02*
X249844Y13639843D01*
X-520156Y14409843D02*
X-910156Y14409843D01*
X249844Y13639843D02*
X-520156Y14409843D01*
X16019844Y17659843D02*
X16069844Y17609843D01*
X15999844Y17639843D02*
X16019844Y17659843D01*
X17369844Y28269843D02*
X18559844Y27079843D01*
X21362054Y24537633D02*
X21022054Y24537633D01*
X21637054Y24812633D02*
X21362054Y24537633D01*
X22449844Y25625423D02*
X21637054Y24812633D01*
X22449844Y26109843D02*
X22449844Y25625423D01*
X21022054Y24537633D02*
X21009844Y24549843D01*
X16514844Y28269843D02*
X17369844Y28269843D01*
D49*
X15089844Y20689843D02*
X15089844Y18589843D01*
X15089844Y18589843D02*
X16069844Y17609843D01*
X11529844Y17609843D02*
X16069844Y17609843D01*
X16069844Y17609843D02*
X17199844Y16479843D01*
X17199844Y11579843D02*
X17199844Y16479843D01*
X10199844Y31479843D02*
X10199844Y32439843D01*
X10199844Y31479843D02*
X10199844Y30439843D01*
X9100000Y23795000D02*
X11034687Y23795000D01*
X11034687Y23795000D02*
X11189844Y23639843D01*
X11489844Y24659843D02*
X10289844Y24659843D01*
X11489844Y23939843D02*
X11489844Y24659843D01*
X11189844Y23639843D02*
X11489844Y23939843D01*
X8789844Y16429843D02*
X10349844Y16429843D01*
X11549844Y22149843D02*
X11595001Y22195000D01*
X10349844Y16429843D02*
X11529844Y17609843D01*
X3650000Y18200000D02*
X3650000Y17159687D01*
X9060000Y16699999D02*
X9060000Y17420000D01*
X8739844Y16379843D02*
X8789844Y16429843D01*
X8789844Y16429843D02*
X9060000Y16699999D01*
X4429844Y16379843D02*
X8739844Y16379843D01*
X3650000Y17159687D02*
X4429844Y16379843D01*
X5560000Y22970000D02*
X4070000Y22970000D01*
X3650000Y18200000D02*
X2540001Y18200000D01*
X2539844Y18199843D02*
X2540001Y18200000D01*
D48*
X16514844Y28269843D02*
X17619844Y28269843D01*
X20709844Y23249843D02*
X20709844Y23899843D01*
X21009844Y24199843D02*
X21009844Y24549843D01*
X20709844Y23899843D02*
X21009844Y24199843D01*
D49*
X15249844Y20689843D02*
X13879844Y20689843D01*
X10335000Y21695000D02*
X11095001Y21695000D01*
X11095001Y21695000D02*
X11595001Y22195000D01*
X10335000Y22195000D02*
X11595001Y22195000D01*
X11969844Y22569843D02*
X13079844Y22569843D01*
X11595001Y22195000D02*
X11969844Y22569843D01*
X4785000Y18195000D02*
X3655000Y18195000D01*
X3655000Y18195000D02*
X3650000Y18200000D01*
X8560000Y23255000D02*
X9100000Y23795000D01*
X9060000Y22970000D02*
X9060000Y23755000D01*
X9060000Y23755000D02*
X9100000Y23795000D01*
X8560000Y22970000D02*
X8560000Y23255000D01*
D48*
X-2000700Y28340000D02*
X-2000700Y27799299D01*
X-2770156Y27329843D02*
X-2770156Y26869843D01*
X-2580156Y27519843D02*
X-2770156Y27329843D01*
X-2280156Y27519843D02*
X-2580156Y27519843D01*
X-2000700Y27799299D02*
X-2280156Y27519843D01*
X-2000700Y25300000D02*
X-2000700Y24650387D01*
X-1660156Y24309843D02*
X-850156Y24309843D01*
X-2000700Y24650387D02*
X-1660156Y24309843D01*
X7969844Y6909843D02*
X8459844Y6909843D01*
X8739844Y6629843D02*
X8739844Y5669843D01*
X8459844Y6909843D02*
X8739844Y6629843D01*
X10799844Y10994843D02*
X12164844Y10994843D01*
X12164844Y10994843D02*
X12179844Y11009843D01*
X9124844Y9319843D02*
X9124844Y7974843D01*
X9124844Y7974843D02*
X9129844Y7969843D01*
D50*
X8859844Y25909843D02*
X8859844Y26159843D01*
X9159844Y26459843D02*
X9159844Y27139843D01*
X8859844Y26159843D02*
X9159844Y26459843D01*
D48*
X6799844Y11644843D02*
X6234844Y11644843D01*
X5979844Y11899843D02*
X5549844Y11899843D01*
X6234844Y11644843D02*
X5979844Y11899843D01*
X6799844Y10994843D02*
X6294844Y10994843D01*
X6059844Y10759843D02*
X5559844Y10759843D01*
X6294844Y10994843D02*
X6059844Y10759843D01*
X-1870156Y26869843D02*
X-1480156Y26869843D01*
X3884687Y22195000D02*
X4785000Y22195000D01*
X1484687Y22195000D02*
X3884687Y22195000D01*
X719844Y22959843D02*
X1484687Y22195000D01*
X719844Y24679843D02*
X719844Y22959843D01*
X379844Y25019843D02*
X719844Y24679843D01*
X-810156Y25019843D02*
X379844Y25019843D01*
X-1230156Y25439843D02*
X-810156Y25019843D01*
X-1230156Y26619843D02*
X-1230156Y25439843D01*
X-1480156Y26869843D02*
X-1230156Y26619843D01*
X3949107Y21695000D02*
X3757109Y21886998D01*
X4785000Y21695000D02*
X3949107Y21695000D01*
X49844Y23194263D02*
X49844Y24309843D01*
X1357109Y21886998D02*
X49844Y23194263D01*
X3757109Y21886998D02*
X1357109Y21886998D01*
X-187460Y18999100D02*
X-1120899Y18999100D01*
X2919844Y10749843D02*
X3529844Y10749843D01*
X2579844Y11089843D02*
X2919844Y10749843D01*
X2579844Y11974263D02*
X2579844Y11089843D01*
X-1820156Y16374263D02*
X2579844Y11974263D01*
X-1820156Y18299843D02*
X-1820156Y16374263D01*
X-1120899Y18999100D02*
X-1820156Y18299843D01*
X4659844Y10759843D02*
X3539844Y10759843D01*
X3539844Y10759843D02*
X3529844Y10749843D01*
X3529844Y11899843D02*
X3089844Y11899843D01*
X-1080899Y18349100D02*
X-187460Y18349100D01*
X-1470156Y17959843D02*
X-1080899Y18349100D01*
X-1470156Y16459843D02*
X-1470156Y17959843D01*
X3089844Y11899843D02*
X-1470156Y16459843D01*
X4649844Y11899843D02*
X3529844Y11899843D01*
D49*
X2099844Y5389843D02*
X1794844Y5694843D01*
X4309844Y5389843D02*
X2099844Y5389843D01*
X5189844Y4509843D02*
X4309844Y5389843D01*
X5959844Y4509843D02*
X5189844Y4509843D01*
X1290587Y6199100D02*
X1794844Y5694843D01*
X1794844Y5694843D02*
X1794844Y4629843D01*
X6199844Y4749843D02*
X5959844Y4509843D01*
X9479844Y4749843D02*
X6199844Y4749843D01*
X9689844Y4959843D02*
X9479844Y4749843D01*
X9689844Y5669843D02*
X9689844Y4959843D01*
X-187460Y6199100D02*
X1290587Y6199100D01*
X11429844Y5269843D02*
X10829844Y5269843D01*
X10829844Y5269843D02*
X10429844Y5669843D01*
X10429844Y5669843D02*
X9689844Y5669843D01*
X-187460Y6199100D02*
X287540Y6199100D01*
X5294844Y-5885157D02*
X5294844Y-6375157D01*
X-650156Y-3680157D02*
X1029844Y-3680157D01*
X-940156Y-3970157D02*
X-650156Y-3680157D01*
X-940156Y-6160157D02*
X-940156Y-3970157D01*
X-240156Y-6860157D02*
X-940156Y-6160157D01*
X4809844Y-6860157D02*
X-240156Y-6860157D01*
X5294844Y-6375157D02*
X4809844Y-6860157D01*
X5319844Y-1610157D02*
X1859844Y-1610157D01*
X1029844Y-2440157D02*
X1029844Y-3680157D01*
X1859844Y-1610157D02*
X1029844Y-2440157D01*
X5319844Y-840157D02*
X5319844Y-1610157D01*
X5539844Y-1830157D02*
X5539844Y-2620157D01*
X5319844Y-1610157D02*
X5539844Y-1830157D01*
D48*
X7824844Y13319843D02*
X7259844Y13319843D01*
X7259844Y13319843D02*
X6799844Y12859843D01*
X6799844Y12294843D02*
X6799844Y12859843D01*
X6509844Y13149843D02*
X5709844Y13149843D01*
X6799844Y12859843D02*
X6509844Y13149843D01*
X8379844Y-8170157D02*
X8379844Y-9250157D01*
X8379844Y-9250157D02*
X8389844Y-9260157D01*
D50*
X9159844Y28639843D02*
X9159844Y29259843D01*
X8814844Y29604843D02*
X6009844Y29604843D01*
X9159844Y29259843D02*
X8814844Y29604843D01*
X6009844Y31239843D02*
X6009844Y29604843D01*
X6009844Y32639843D02*
X6009844Y31239843D01*
D48*
X-650156Y13249843D02*
X-1910856Y13249843D01*
X7479844Y-8170157D02*
X7479844Y-7510157D01*
X7609844Y-7380157D02*
X7609844Y-6960157D01*
X7479844Y-7510157D02*
X7609844Y-7380157D01*
X6199844Y-8180157D02*
X7469844Y-8180157D01*
X7469844Y-8180157D02*
X7479844Y-8170157D01*
X1939844Y-2720157D02*
X1939844Y-3150157D01*
X2344844Y-3555157D02*
X2344844Y-3935157D01*
X1939844Y-3150157D02*
X2344844Y-3555157D01*
X1029844Y-4580157D02*
X-170156Y-4580157D01*
X-170156Y-4580157D02*
X-180156Y-4570157D01*
X2344844Y-4585157D02*
X1034844Y-4585157D01*
X1034844Y-4585157D02*
X1029844Y-4580157D01*
D10*
G36*
X5051844Y34555836D02*
X5051844Y34396843D01*
X5191344Y34257343D01*
X5809844Y34257343D01*
X5809844Y34293843D01*
X6209844Y34293843D01*
X6209844Y34257343D01*
X6233844Y34257343D01*
X6233844Y33882343D01*
X6209844Y33882343D01*
X6209844Y33845843D01*
X5809844Y33845843D01*
X5809844Y33882343D01*
X5191344Y33882343D01*
X5051844Y33742843D01*
X5051844Y33583850D01*
X5136795Y33378761D01*
X5293762Y33221793D01*
X5414502Y33171781D01*
X5375029Y33114012D01*
X5354947Y33014843D01*
X5354947Y32264843D01*
X5372379Y32172199D01*
X5427132Y32087111D01*
X5509844Y32030596D01*
X5509844Y31847575D01*
X5436869Y31800616D01*
X5382893Y31930925D01*
X5225926Y32087893D01*
X5020837Y32172843D01*
X4849344Y32172843D01*
X4709844Y32033343D01*
X4709844Y31427343D01*
X4733844Y31427343D01*
X4733844Y31052343D01*
X4709844Y31052343D01*
X4709844Y30446343D01*
X4849344Y30306843D01*
X5020837Y30306843D01*
X5225926Y30391793D01*
X5382893Y30548761D01*
X5437317Y30680152D01*
X5509844Y30630596D01*
X5509844Y30384740D01*
X5417200Y30367308D01*
X5332112Y30312555D01*
X5275029Y30229012D01*
X5254947Y30129843D01*
X5254947Y29703004D01*
X5170837Y29737843D01*
X4878344Y29737843D01*
X4738844Y29598343D01*
X4738844Y28283843D01*
X5478344Y28283843D01*
X5617844Y28423343D01*
X5617844Y28824946D01*
X6401844Y28824946D01*
X6401844Y28423343D01*
X6541344Y28283843D01*
X7280844Y28283843D01*
X7280844Y28303843D01*
X7688844Y28303843D01*
X7688844Y28283843D01*
X8428344Y28283843D01*
X8529947Y28385446D01*
X8529947Y28239843D01*
X8547379Y28147199D01*
X8602132Y28062111D01*
X8685675Y28005028D01*
X8784844Y27984946D01*
X9534844Y27984946D01*
X9627488Y28002378D01*
X9712576Y28057131D01*
X9769659Y28140674D01*
X9789741Y28239843D01*
X9789741Y29039843D01*
X9774053Y29123218D01*
X9800675Y29105028D01*
X9878943Y29089178D01*
X9897735Y28994705D01*
X9928137Y28949206D01*
X9900861Y28883519D01*
X9900629Y28617335D01*
X10002278Y28371324D01*
X10190335Y28182939D01*
X10436168Y28080860D01*
X10491844Y28080811D01*
X10491844Y28045841D01*
X10639406Y28045841D01*
X10550607Y27924863D01*
X10619399Y27737898D01*
X10876242Y27470550D01*
X11215844Y27321843D01*
X12240844Y27321843D01*
X12240844Y28064843D01*
X12220844Y28064843D01*
X12220844Y28434843D01*
X12240844Y28434843D01*
X12240844Y28473843D01*
X12648844Y28473843D01*
X12648844Y28434843D01*
X12668844Y28434843D01*
X12668844Y28064843D01*
X12648844Y28064843D01*
X12648844Y27321843D01*
X13673844Y27321843D01*
X14013446Y27470550D01*
X14270289Y27737898D01*
X14339081Y27924863D01*
X14250282Y28045841D01*
X14397844Y28045841D01*
X14397844Y28149913D01*
X14625403Y28149715D01*
X14839904Y28238346D01*
X14880258Y28035474D01*
X14691325Y27957409D01*
X14502940Y27769352D01*
X14400861Y27523519D01*
X14400629Y27257335D01*
X14502278Y27011324D01*
X14690335Y26822939D01*
X14936168Y26720860D01*
X15202352Y26720628D01*
X15448363Y26822277D01*
X15636748Y27010334D01*
X15658552Y27062843D01*
X16654396Y27062843D01*
X17140502Y26576737D01*
X17130861Y26553519D01*
X17130629Y26287335D01*
X17232278Y26041324D01*
X17420335Y25852939D01*
X17666168Y25750860D01*
X17932352Y25750628D01*
X17956594Y25760645D01*
X18220396Y25496843D01*
X17198697Y25496843D01*
X17177410Y25548362D01*
X16989353Y25736747D01*
X16743520Y25838826D01*
X16477336Y25839058D01*
X16424789Y25817346D01*
X15861068Y26381067D01*
X15754982Y26451952D01*
X15629844Y26476843D01*
X13878697Y26476843D01*
X13857410Y26528362D01*
X13669353Y26716747D01*
X13423520Y26818826D01*
X13157336Y26819058D01*
X12911325Y26717409D01*
X12722940Y26529352D01*
X12620861Y26283519D01*
X12620629Y26017335D01*
X12686529Y25857843D01*
X12575842Y25857843D01*
X12575842Y25772345D01*
X12490344Y25857843D01*
X12368851Y25857843D01*
X12297844Y25828431D01*
X12297844Y25963845D01*
X12212346Y25963845D01*
X12297844Y26049343D01*
X12297844Y26170836D01*
X12212894Y26375925D01*
X12055926Y26532892D01*
X11850837Y26617843D01*
X11754344Y26617843D01*
X11614844Y26478343D01*
X11614844Y25909843D01*
X11713844Y25909843D01*
X11713844Y25609843D01*
X11614844Y25609843D01*
X11614844Y25535843D01*
X11364844Y25535843D01*
X11364844Y25609843D01*
X10414844Y25609843D01*
X10414844Y25535843D01*
X10164844Y25535843D01*
X10164844Y25609843D01*
X10065844Y25609843D01*
X10065844Y25909843D01*
X10164844Y25909843D01*
X10164844Y26478343D01*
X10414844Y26478343D01*
X10414844Y25909843D01*
X11364844Y25909843D01*
X11364844Y26478343D01*
X11225344Y26617843D01*
X11128851Y26617843D01*
X10923762Y26532892D01*
X10889844Y26498974D01*
X10855926Y26532892D01*
X10650837Y26617843D01*
X10554344Y26617843D01*
X10414844Y26478343D01*
X10164844Y26478343D01*
X10025344Y26617843D01*
X9928851Y26617843D01*
X9723762Y26532892D01*
X9659844Y26468974D01*
X9659844Y26523199D01*
X9712576Y26557131D01*
X9769659Y26640674D01*
X9789741Y26739843D01*
X9789741Y27539843D01*
X9772309Y27632487D01*
X9717556Y27717575D01*
X9634013Y27774658D01*
X9534844Y27794740D01*
X8784844Y27794740D01*
X8692200Y27777308D01*
X8607112Y27722555D01*
X8567844Y27665085D01*
X8567844Y27736343D01*
X8428344Y27875843D01*
X7688844Y27875843D01*
X7688844Y27855843D01*
X7280844Y27855843D01*
X7280844Y27875843D01*
X6541344Y27875843D01*
X6401844Y27736343D01*
X6401844Y26868850D01*
X6486795Y26663761D01*
X6507713Y26642843D01*
X6448851Y26642843D01*
X6243762Y26557892D01*
X6086794Y26400925D01*
X6001844Y26195836D01*
X6001844Y26188560D01*
X5949013Y26224658D01*
X5849844Y26244740D01*
X5249844Y26244740D01*
X5248353Y26244459D01*
X5222893Y26305925D01*
X5106976Y26421843D01*
X5170837Y26421843D01*
X5375926Y26506793D01*
X5532893Y26663761D01*
X5617844Y26868850D01*
X5617844Y27736343D01*
X5478344Y27875843D01*
X4738844Y27875843D01*
X4738844Y26561343D01*
X4752344Y26547843D01*
X4739344Y26547843D01*
X4599844Y26408343D01*
X4599844Y25864843D01*
X4673844Y25864843D01*
X4673844Y25614843D01*
X4599844Y25614843D01*
X4599844Y25169648D01*
X4530861Y25003519D01*
X4530629Y24737335D01*
X4617602Y24526843D01*
X3985292Y24526843D01*
X3866844Y24645291D01*
X3866844Y25003090D01*
X4038851Y24931843D01*
X4160344Y24931843D01*
X4299844Y25071343D01*
X4299844Y25614843D01*
X4225844Y25614843D01*
X4225844Y25864843D01*
X4299844Y25864843D01*
X4299844Y26408343D01*
X4238844Y26469343D01*
X4330844Y26561343D01*
X4330844Y27875843D01*
X4310844Y27875843D01*
X4310844Y28283843D01*
X4330844Y28283843D01*
X4330844Y29598343D01*
X4191344Y29737843D01*
X3898851Y29737843D01*
X3693762Y29652893D01*
X3536795Y29495925D01*
X3451844Y29290836D01*
X3451844Y29117601D01*
X3432556Y29147575D01*
X3349013Y29204658D01*
X3249844Y29224740D01*
X3037239Y29224740D01*
X3087576Y29257131D01*
X3144659Y29340674D01*
X3164741Y29439843D01*
X3164741Y30039843D01*
X3164460Y30041334D01*
X3225926Y30066794D01*
X3382894Y30223761D01*
X3467844Y30428850D01*
X3467844Y30550343D01*
X3328344Y30689843D01*
X2784844Y30689843D01*
X2784844Y30615843D01*
X2534844Y30615843D01*
X2534844Y30689843D01*
X1991344Y30689843D01*
X1851844Y30550343D01*
X1851844Y30428850D01*
X1936794Y30223761D01*
X2093762Y30066794D01*
X2155247Y30041326D01*
X2154947Y30039843D01*
X2154947Y29439843D01*
X2172379Y29347199D01*
X2227132Y29262111D01*
X2281826Y29224740D01*
X2049844Y29224740D01*
X2048354Y29224460D01*
X2022894Y29285925D01*
X1865926Y29442892D01*
X1660837Y29527843D01*
X1293344Y29527843D01*
X1153844Y29388343D01*
X1153844Y28473843D01*
X1173844Y28473843D01*
X1173844Y28065843D01*
X1153844Y28065843D01*
X1153844Y28045843D01*
X745844Y28045843D01*
X745844Y28065843D01*
X-68656Y28065843D01*
X-116177Y28018322D01*
X-139163Y28027843D01*
X-235656Y28027843D01*
X-375156Y27888343D01*
X-375156Y27319843D01*
X-276156Y27319843D01*
X-276156Y27019843D01*
X-375156Y27019843D01*
X-375156Y26945843D01*
X-625156Y26945843D01*
X-625156Y27019843D01*
X-1167708Y27019843D01*
X-1248932Y27101067D01*
X-1355018Y27171952D01*
X-1418014Y27184482D01*
X-1432691Y27262487D01*
X-1487444Y27347575D01*
X-1570987Y27404658D01*
X-1670156Y27424740D01*
X-1912811Y27424740D01*
X-1769476Y27568075D01*
X-1760950Y27580836D01*
X-1308156Y27580836D01*
X-1308156Y27459343D01*
X-1168656Y27319843D01*
X-625156Y27319843D01*
X-625156Y27888343D01*
X-764656Y28027843D01*
X-861149Y28027843D01*
X-1066238Y27942892D01*
X-1223206Y27785925D01*
X-1308156Y27580836D01*
X-1760950Y27580836D01*
X-1726795Y27631952D01*
X-1698591Y27674162D01*
X-1696172Y27686323D01*
X-1601920Y27686323D01*
X-1509276Y27703755D01*
X-1424188Y27758508D01*
X-1367105Y27842051D01*
X-1347023Y27941220D01*
X-1347023Y28738780D01*
X-1364455Y28831424D01*
X-1419208Y28916512D01*
X-1502751Y28973595D01*
X-1601920Y28993677D01*
X-2399480Y28993677D01*
X-2492124Y28976245D01*
X-2573276Y28924025D01*
X-2627471Y29054862D01*
X-2653444Y29080836D01*
X-208156Y29080836D01*
X-208156Y28613343D01*
X-68656Y28473843D01*
X745844Y28473843D01*
X745844Y29388343D01*
X606344Y29527843D01*
X238851Y29527843D01*
X33762Y29442892D01*
X-123206Y29285925D01*
X-208156Y29080836D01*
X-2653444Y29080836D01*
X-2784438Y29211830D01*
X-2989527Y29296780D01*
X-3160410Y29296780D01*
X-3299910Y29157280D01*
X-3299910Y28539390D01*
X-3275300Y28539390D01*
X-3275300Y28140610D01*
X-3299910Y28140610D01*
X-3299910Y27522720D01*
X-3160410Y27383220D01*
X-3100234Y27383220D01*
X-3147888Y27352555D01*
X-3204971Y27269012D01*
X-3225053Y27169843D01*
X-3225053Y26569843D01*
X-3207621Y26477199D01*
X-3152868Y26392111D01*
X-3069325Y26335028D01*
X-2970156Y26314946D01*
X-2570156Y26314946D01*
X-2477512Y26332378D01*
X-2392424Y26387131D01*
X-2335341Y26470674D01*
X-2320336Y26544773D01*
X-2307621Y26477199D01*
X-2252868Y26392111D01*
X-2169325Y26335028D01*
X-2070156Y26314946D01*
X-1670156Y26314946D01*
X-1577512Y26332378D01*
X-1557156Y26345477D01*
X-1557156Y25944612D01*
X-1601920Y25953677D01*
X-2399480Y25953677D01*
X-2492124Y25936245D01*
X-2573276Y25884025D01*
X-2627471Y26014862D01*
X-2784438Y26171830D01*
X-2989527Y26256780D01*
X-3160410Y26256780D01*
X-3299910Y26117280D01*
X-3299910Y25499390D01*
X-3275300Y25499390D01*
X-3275300Y25100610D01*
X-3299910Y25100610D01*
X-3299910Y24482720D01*
X-3160410Y24343220D01*
X-2989527Y24343220D01*
X-2784438Y24428170D01*
X-2627471Y24585138D01*
X-2572818Y24717083D01*
X-2498649Y24666405D01*
X-2399480Y24646323D01*
X-2326892Y24646323D01*
X-2302809Y24525249D01*
X-2231924Y24419163D01*
X-1891380Y24078619D01*
X-1785294Y24007734D01*
X-1660156Y23982843D01*
X-1299973Y23982843D01*
X-1287621Y23917199D01*
X-1232868Y23832111D01*
X-1149325Y23775028D01*
X-1050156Y23754946D01*
X-650156Y23754946D01*
X-557512Y23772378D01*
X-472424Y23827131D01*
X-415341Y23910674D01*
X-400336Y23984773D01*
X-387621Y23917199D01*
X-332868Y23832111D01*
X-277156Y23794044D01*
X-277156Y23194263D01*
X-252265Y23069125D01*
X-181380Y22963039D01*
X167440Y22614219D01*
X16540Y22519000D01*
X16540Y21703100D01*
X700700Y21703100D01*
X819100Y21863197D01*
X744205Y22037454D01*
X1125885Y21655774D01*
X1231971Y21584889D01*
X1357109Y21559998D01*
X2891757Y21559998D01*
X2795704Y21328676D01*
X2795472Y21062492D01*
X2897121Y20816481D01*
X3085178Y20628096D01*
X3331011Y20526017D01*
X3523402Y20525849D01*
X3404396Y20406843D01*
X3018697Y20406843D01*
X2997410Y20458362D01*
X2809353Y20646747D01*
X2563520Y20748826D01*
X2297336Y20749058D01*
X2051325Y20647409D01*
X1862940Y20459352D01*
X1760861Y20213519D01*
X1760629Y19947335D01*
X1862278Y19701324D01*
X2050335Y19512939D01*
X2296168Y19410860D01*
X2562352Y19410628D01*
X2808363Y19512277D01*
X2863841Y19567659D01*
X2981500Y19450000D01*
X3525000Y19450000D01*
X3525000Y19524000D01*
X3775000Y19524000D01*
X3775000Y19450000D01*
X3874000Y19450000D01*
X3874000Y19150000D01*
X3775000Y19150000D01*
X3775000Y19076000D01*
X3525000Y19076000D01*
X3525000Y19150000D01*
X2981500Y19150000D01*
X2842000Y19010500D01*
X2842000Y18889007D01*
X2887093Y18780143D01*
X2673520Y18868826D01*
X2407336Y18869058D01*
X2161325Y18767409D01*
X1972940Y18579352D01*
X1870861Y18333519D01*
X1870629Y18067335D01*
X1972278Y17821324D01*
X2160335Y17632939D01*
X2406168Y17530860D01*
X2672352Y17530628D01*
X2918363Y17632277D01*
X3086379Y17800000D01*
X3167268Y17800000D01*
X3217288Y17722268D01*
X3250000Y17699917D01*
X3250000Y17159687D01*
X3280448Y17006613D01*
X3367157Y16876844D01*
X4147001Y16097000D01*
X4217576Y16049843D01*
X3395530Y16049843D01*
X1463430Y17981943D01*
X1333661Y18068652D01*
X1180587Y18099100D01*
X732312Y18099100D01*
X742437Y18149100D01*
X742437Y18549100D01*
X725005Y18641744D01*
X704437Y18673707D01*
X722355Y18699931D01*
X742437Y18799100D01*
X742437Y19199100D01*
X725005Y19291744D01*
X704437Y19323707D01*
X722355Y19349931D01*
X742437Y19449100D01*
X742437Y19600707D01*
X803622Y19626050D01*
X960589Y19783018D01*
X1045540Y19988107D01*
X1045540Y20059600D01*
X906040Y20199100D01*
X16540Y20199100D01*
X16540Y20103997D01*
X-391460Y20103997D01*
X-391460Y20199100D01*
X-1280960Y20199100D01*
X-1420460Y20059600D01*
X-1420460Y19988107D01*
X-1335509Y19783018D01*
X-1178542Y19626050D01*
X-1117357Y19600707D01*
X-1117357Y19449100D01*
X-1099925Y19356456D01*
X-1080391Y19326100D01*
X-1120899Y19326100D01*
X-1246037Y19301209D01*
X-1352123Y19230324D01*
X-2051380Y18531067D01*
X-2122265Y18424981D01*
X-2136189Y18354981D01*
X-2147156Y18299843D01*
X-2147156Y16453105D01*
X-2516012Y16561912D01*
X-2683460Y16424415D01*
X-2683460Y15703100D01*
X-1716901Y15703100D01*
X-1676853Y15768512D01*
X-987351Y15079010D01*
X-1042664Y15079058D01*
X-1288675Y14977409D01*
X-1477060Y14789352D01*
X-1579139Y14543519D01*
X-1579371Y14277335D01*
X-1477722Y14031324D01*
X-1289665Y13842939D01*
X-1043832Y13740860D01*
X-1015021Y13740835D01*
X-1027888Y13732555D01*
X-1084971Y13649012D01*
X-1099585Y13576843D01*
X-1257179Y13576843D01*
X-1257179Y13648623D01*
X-1274611Y13741267D01*
X-1329364Y13826355D01*
X-1412907Y13883438D01*
X-1512076Y13903520D01*
X-2309636Y13903520D01*
X-2402280Y13886088D01*
X-2483432Y13833868D01*
X-2537627Y13964705D01*
X-2694594Y14121673D01*
X-2899683Y14206623D01*
X-3070566Y14206623D01*
X-3210066Y14067123D01*
X-3210066Y13449233D01*
X-3185456Y13449233D01*
X-3185456Y13050453D01*
X-3210066Y13050453D01*
X-3210066Y12432563D01*
X-3070566Y12293063D01*
X-2899683Y12293063D01*
X-2694594Y12378013D01*
X-2537627Y12534981D01*
X-2482974Y12666926D01*
X-2408805Y12616248D01*
X-2309636Y12596166D01*
X-1512076Y12596166D01*
X-1419432Y12613598D01*
X-1334344Y12668351D01*
X-1277261Y12751894D01*
X-1257179Y12851063D01*
X-1257179Y12922843D01*
X-1099973Y12922843D01*
X-1087621Y12857199D01*
X-1032868Y12772111D01*
X-949325Y12715028D01*
X-850156Y12694946D01*
X-450156Y12694946D01*
X-357512Y12712378D01*
X-272424Y12767131D01*
X-215341Y12850674D01*
X-200336Y12924773D01*
X-187621Y12857199D01*
X-132868Y12772111D01*
X-49325Y12715028D01*
X49844Y12694946D01*
X449844Y12694946D01*
X542488Y12712378D01*
X627576Y12767131D01*
X684659Y12850674D01*
X704741Y12949843D01*
X704741Y13386918D01*
X2252844Y11838815D01*
X2252844Y11089843D01*
X2277735Y10964705D01*
X2348620Y10858619D01*
X2688620Y10518619D01*
X2794706Y10447734D01*
X2919844Y10422843D01*
X2963713Y10422843D01*
X2806794Y10265925D01*
X2721844Y10060836D01*
X2721844Y9939343D01*
X2861344Y9799843D01*
X3404844Y9799843D01*
X3404844Y9873843D01*
X3654844Y9873843D01*
X3654844Y9799843D01*
X4198344Y9799843D01*
X4337844Y9939343D01*
X4337844Y10060836D01*
X4252894Y10265925D01*
X4095926Y10422892D01*
X4071902Y10432843D01*
X4210027Y10432843D01*
X4222379Y10367199D01*
X4277132Y10282111D01*
X4360675Y10225028D01*
X4459844Y10204946D01*
X4859844Y10204946D01*
X4952488Y10222378D01*
X5037576Y10277131D01*
X5094659Y10360674D01*
X5109664Y10434773D01*
X5122379Y10367199D01*
X5177132Y10282111D01*
X5260675Y10225028D01*
X5359844Y10204946D01*
X5759844Y10204946D01*
X5852488Y10222378D01*
X5937576Y10277131D01*
X5994659Y10360674D01*
X6009273Y10432843D01*
X6059844Y10432843D01*
X6144947Y10449771D01*
X6144947Y10169843D01*
X6162379Y10077199D01*
X6217132Y9992111D01*
X6300675Y9935028D01*
X6399844Y9914946D01*
X7010029Y9914946D01*
X7076794Y9753761D01*
X7233762Y9596794D01*
X7394947Y9530029D01*
X7394947Y8919843D01*
X7412379Y8827199D01*
X7467132Y8742111D01*
X7550675Y8685028D01*
X7649844Y8664946D01*
X7801451Y8664946D01*
X7826794Y8603761D01*
X7862712Y8567843D01*
X7765842Y8567843D01*
X7765842Y8482345D01*
X7680344Y8567843D01*
X7558851Y8567843D01*
X7353762Y8482892D01*
X7258994Y8388125D01*
X7259059Y8462351D01*
X7157410Y8708362D01*
X6969353Y8896747D01*
X6723520Y8998826D01*
X6457336Y8999058D01*
X6211325Y8897409D01*
X6022940Y8709352D01*
X5920861Y8463519D01*
X5920629Y8197335D01*
X6022278Y7951324D01*
X6189844Y7783466D01*
X6189844Y7002575D01*
X6112112Y6952555D01*
X6055029Y6869012D01*
X6034947Y6769843D01*
X6034947Y6369843D01*
X6052379Y6277199D01*
X6107132Y6192111D01*
X6190675Y6135028D01*
X6264774Y6120023D01*
X6197200Y6107308D01*
X6112112Y6052555D01*
X6074045Y5996843D01*
X5879844Y5996843D01*
X5754706Y5971952D01*
X5722270Y5950279D01*
X5653520Y5978826D01*
X5387336Y5979058D01*
X5141325Y5877409D01*
X4952940Y5689352D01*
X4850861Y5443519D01*
X4850836Y5414537D01*
X4698493Y5566880D01*
X4808363Y5612277D01*
X4996748Y5800334D01*
X5098827Y6046167D01*
X5099059Y6312351D01*
X4997410Y6558362D01*
X4809353Y6746747D01*
X4756844Y6768551D01*
X4756844Y6839843D01*
X4731953Y6964980D01*
X4661068Y7071067D01*
X3181068Y8551067D01*
X3074982Y8621952D01*
X2949844Y8646843D01*
X1199844Y8646843D01*
X1074707Y8621952D01*
X1021747Y8586565D01*
X1019845Y8585295D01*
X906040Y8699100D01*
X16540Y8699100D01*
X16540Y8603997D01*
X-391460Y8603997D01*
X-391460Y8699100D01*
X-1280960Y8699100D01*
X-1420460Y8559600D01*
X-1420460Y8488107D01*
X-1335509Y8283018D01*
X-1178542Y8126050D01*
X-1117357Y8100707D01*
X-1117357Y7949100D01*
X-1099925Y7856456D01*
X-1079357Y7824493D01*
X-1097275Y7798269D01*
X-1117357Y7699100D01*
X-1117357Y7299100D01*
X-1099925Y7206456D01*
X-1079357Y7174493D01*
X-1097275Y7148269D01*
X-1117357Y7049100D01*
X-1117357Y6649100D01*
X-1099925Y6556456D01*
X-1079357Y6524493D01*
X-1097275Y6498269D01*
X-1117357Y6399100D01*
X-1117357Y5999100D01*
X-1099925Y5906456D01*
X-1045172Y5821368D01*
X-985598Y5780663D01*
X-1035469Y5732094D01*
X-1194020Y5363197D01*
X-1075620Y5203100D01*
X-391460Y5203100D01*
X-391460Y5223100D01*
X16540Y5223100D01*
X16540Y5203100D01*
X700700Y5203100D01*
X819100Y5363197D01*
X660549Y5732094D01*
X610310Y5781021D01*
X638406Y5799100D01*
X1124901Y5799100D01*
X1394844Y5529157D01*
X1394844Y5084357D01*
X1322112Y5037555D01*
X1265029Y4954012D01*
X1244947Y4854843D01*
X1244947Y4404843D01*
X1262379Y4312199D01*
X1317132Y4227111D01*
X1400675Y4170028D01*
X1499844Y4149946D01*
X2089844Y4149946D01*
X2182488Y4167378D01*
X2267576Y4222131D01*
X2324659Y4305674D01*
X2344741Y4404843D01*
X2344741Y4854843D01*
X2327309Y4947487D01*
X2300053Y4989843D01*
X3162474Y4989843D01*
X3047001Y4912686D01*
X2827001Y4692686D01*
X2740292Y4562917D01*
X2723156Y4476769D01*
X2709844Y4409843D01*
X2709844Y3119740D01*
X2617200Y3102308D01*
X2532112Y3047555D01*
X2475029Y2964012D01*
X2454947Y2864843D01*
X2454947Y2114843D01*
X2472379Y2022199D01*
X2527132Y1937111D01*
X2610675Y1880028D01*
X2709844Y1859946D01*
X2719844Y1859946D01*
X2719844Y1639740D01*
X2589844Y1639740D01*
X2497200Y1622308D01*
X2412112Y1567555D01*
X2355029Y1484012D01*
X2334947Y1384843D01*
X2334947Y933236D01*
X2273762Y907893D01*
X2116795Y750925D01*
X2031844Y545836D01*
X2031844Y411843D01*
X2171344Y272343D01*
X2915844Y272343D01*
X2915844Y333843D01*
X3323844Y333843D01*
X3323844Y272343D01*
X3343844Y272343D01*
X3343844Y-52657D01*
X3323844Y-52657D01*
X3323844Y-114157D01*
X2915844Y-114157D01*
X2915844Y-52657D01*
X2171344Y-52657D01*
X2031844Y-192157D01*
X2031844Y-326150D01*
X2079067Y-440157D01*
X1689849Y-440157D01*
X1689844Y-440156D01*
X1536771Y-470605D01*
X1407001Y-557314D01*
X1406999Y-557317D01*
X1382645Y-581671D01*
X1499739Y-299677D01*
X1500260Y297059D01*
X1272380Y848572D01*
X850791Y1270897D01*
X299677Y1499739D01*
X-297059Y1500260D01*
X-848572Y1272380D01*
X-1270897Y850791D01*
X-1499739Y299677D01*
X-1500260Y-297059D01*
X-1272380Y-848572D01*
X-850791Y-1270897D01*
X-611746Y-1370157D01*
X-970151Y-1370157D01*
X-970156Y-1370156D01*
X-1123230Y-1400605D01*
X-1252999Y-1487314D01*
X-1972999Y-2207314D01*
X-2059708Y-2337083D01*
X-2078321Y-2430657D01*
X-2090156Y-2490157D01*
X-2090156Y-2747425D01*
X-2167888Y-2797445D01*
X-2224971Y-2880988D01*
X-2245053Y-2980157D01*
X-2245053Y-3380157D01*
X-2227621Y-3472801D01*
X-2172868Y-3557889D01*
X-2089325Y-3614972D01*
X-2015226Y-3629977D01*
X-2082800Y-3642692D01*
X-2167888Y-3697445D01*
X-2199122Y-3743157D01*
X-2546323Y-3743157D01*
X-2546323Y-3675520D01*
X-2563755Y-3582876D01*
X-2618508Y-3497788D01*
X-2702051Y-3440705D01*
X-2801220Y-3420623D01*
X-3598780Y-3420623D01*
X-3691424Y-3438055D01*
X-3776512Y-3492808D01*
X-3833595Y-3576351D01*
X-3853677Y-3675520D01*
X-3853677Y-4473080D01*
X-3836245Y-4565724D01*
X-3781492Y-4650812D01*
X-3697949Y-4707895D01*
X-3598780Y-4727977D01*
X-2801220Y-4727977D01*
X-2708576Y-4710545D01*
X-2623488Y-4655792D01*
X-2566405Y-4572249D01*
X-2546323Y-4473080D01*
X-2546323Y-4397157D01*
X-2211948Y-4397157D01*
X-2172868Y-4457889D01*
X-2089325Y-4514972D01*
X-1990156Y-4535054D01*
X-1390156Y-4535054D01*
X-1340156Y-4525646D01*
X-1340156Y-6160157D01*
X-1309708Y-6313231D01*
X-1222999Y-6443000D01*
X-523001Y-7142997D01*
X-522999Y-7143000D01*
X-393229Y-7229709D01*
X-240156Y-7260157D01*
X1791844Y-7260157D01*
X1791844Y-7836657D01*
X1931344Y-7976157D01*
X2595844Y-7976157D01*
X2595844Y-7956157D01*
X3003844Y-7956157D01*
X3003844Y-7976157D01*
X3668344Y-7976157D01*
X3807844Y-7836657D01*
X3807844Y-7260157D01*
X4809844Y-7260157D01*
X4962918Y-7229709D01*
X5092687Y-7143000D01*
X5577684Y-6658002D01*
X5577687Y-6658000D01*
X5664396Y-6528230D01*
X5668965Y-6505260D01*
X5694845Y-6375157D01*
X5694844Y-6375152D01*
X5694844Y-6315054D01*
X5719844Y-6315054D01*
X5812488Y-6297622D01*
X5897576Y-6242869D01*
X5954659Y-6159326D01*
X5974741Y-6060157D01*
X5974741Y-5710157D01*
X5957309Y-5617513D01*
X5955747Y-5615086D01*
X6007918Y-5604709D01*
X6137687Y-5518000D01*
X6228027Y-5427660D01*
X6257132Y-5472889D01*
X6340675Y-5529972D01*
X6439844Y-5550054D01*
X6439844Y-5860157D01*
X6470292Y-6013231D01*
X6557001Y-6143000D01*
X6757001Y-6343000D01*
X6886770Y-6429709D01*
X7039844Y-6460158D01*
X7039849Y-6460157D01*
X7159722Y-6460157D01*
X7210675Y-6494972D01*
X7284774Y-6509977D01*
X7217200Y-6522692D01*
X7132112Y-6577445D01*
X7075029Y-6660988D01*
X7054947Y-6760157D01*
X7054947Y-7160157D01*
X7072379Y-7252801D01*
X7127132Y-7337889D01*
X7183494Y-7376400D01*
X7177735Y-7385019D01*
X7177735Y-7385020D01*
X7152844Y-7510157D01*
X7152844Y-7654800D01*
X7102112Y-7687445D01*
X7045029Y-7770988D01*
X7028390Y-7853157D01*
X6904741Y-7853157D01*
X6904741Y-7330157D01*
X6887309Y-7237513D01*
X6832556Y-7152425D01*
X6749013Y-7095342D01*
X6649844Y-7075260D01*
X5749844Y-7075260D01*
X5657200Y-7092692D01*
X5572112Y-7147445D01*
X5515029Y-7230988D01*
X5494947Y-7330157D01*
X5494947Y-9030157D01*
X5512379Y-9122801D01*
X5567132Y-9207889D01*
X5650675Y-9264972D01*
X5749844Y-9285054D01*
X6649844Y-9285054D01*
X6742488Y-9267622D01*
X6827576Y-9212869D01*
X6884659Y-9129326D01*
X6904741Y-9030157D01*
X6904741Y-8507157D01*
X7031909Y-8507157D01*
X7042379Y-8562801D01*
X7097132Y-8647889D01*
X7180675Y-8704972D01*
X7279844Y-8725054D01*
X7679844Y-8725054D01*
X7772488Y-8707622D01*
X7857576Y-8652869D01*
X7914659Y-8569326D01*
X7929664Y-8495227D01*
X7942379Y-8562801D01*
X7997132Y-8647889D01*
X8043250Y-8679400D01*
X8011325Y-8692591D01*
X7822940Y-8880648D01*
X7720861Y-9126481D01*
X7720629Y-9392665D01*
X7808363Y-9605000D01*
X-2470451Y-9605000D01*
X-3111958Y-9477397D01*
X-3630749Y-9130751D01*
X-3977397Y-8611958D01*
X-4040033Y-8297059D01*
X-4000260Y-8297059D01*
X-3772380Y-8848572D01*
X-3350791Y-9270897D01*
X-2799677Y-9499739D01*
X-2202941Y-9500260D01*
X-1651428Y-9272380D01*
X-1229103Y-8850791D01*
X-1093266Y-8523657D01*
X1791844Y-8523657D01*
X1791844Y-9141150D01*
X1876795Y-9346239D01*
X2033762Y-9503207D01*
X2238851Y-9588157D01*
X2456344Y-9588157D01*
X2595844Y-9448657D01*
X2595844Y-8384157D01*
X3003844Y-8384157D01*
X3003844Y-9448657D01*
X3143344Y-9588157D01*
X3360837Y-9588157D01*
X3565926Y-9503207D01*
X3722893Y-9346239D01*
X3807844Y-9141150D01*
X3807844Y-8523657D01*
X3668344Y-8384157D01*
X3003844Y-8384157D01*
X2595844Y-8384157D01*
X1931344Y-8384157D01*
X1791844Y-8523657D01*
X-1093266Y-8523657D01*
X-1000261Y-8299677D01*
X-999740Y-7702941D01*
X-1227620Y-7151428D01*
X-1649209Y-6729103D01*
X-2200323Y-6500261D01*
X-2797059Y-6499740D01*
X-3348572Y-6727620D01*
X-3770897Y-7149209D01*
X-3999739Y-7700323D01*
X-4000260Y-8297059D01*
X-4040033Y-8297059D01*
X-4105000Y-7970451D01*
X-4105000Y-1612665D01*
X-3869371Y-1612665D01*
X-3767722Y-1858676D01*
X-3687770Y-1938767D01*
X-3691424Y-1939455D01*
X-3776512Y-1994208D01*
X-3833595Y-2077751D01*
X-3853677Y-2176920D01*
X-3853677Y-2974480D01*
X-3836245Y-3067124D01*
X-3781492Y-3152212D01*
X-3697949Y-3209295D01*
X-3598780Y-3229377D01*
X-2801220Y-3229377D01*
X-2708576Y-3211945D01*
X-2623488Y-3157192D01*
X-2566405Y-3073649D01*
X-2546323Y-2974480D01*
X-2546323Y-2176920D01*
X-2563755Y-2084276D01*
X-2618508Y-1999188D01*
X-2702051Y-1942105D01*
X-2713510Y-1939784D01*
X-2633252Y-1859666D01*
X-2531173Y-1613833D01*
X-2530941Y-1347649D01*
X-2632590Y-1101638D01*
X-2820647Y-913253D01*
X-3066480Y-811174D01*
X-3332664Y-810942D01*
X-3578675Y-912591D01*
X-3767060Y-1100648D01*
X-3869139Y-1346481D01*
X-3869371Y-1612665D01*
X-4105000Y-1612665D01*
X-4105000Y3541600D01*
X-3982181Y3315778D01*
X-3658287Y3054099D01*
X-3258908Y2936288D01*
X-3091460Y3073785D01*
X-3091460Y3795100D01*
X-2683460Y3795100D01*
X-2683460Y3073785D01*
X-2516012Y2936288D01*
X-2116633Y3054099D01*
X-1792739Y3315778D01*
X-1619008Y3635210D01*
X-1716901Y3795100D01*
X-2683460Y3795100D01*
X-3091460Y3795100D01*
X-3111460Y3795100D01*
X-3111460Y4203100D01*
X-3091460Y4203100D01*
X-3091460Y4924415D01*
X-2683460Y4924415D01*
X-2683460Y4203100D01*
X-1716901Y4203100D01*
X-1619008Y4362990D01*
X-1766949Y4635003D01*
X-1194020Y4635003D01*
X-1035469Y4266106D01*
X-747816Y3985965D01*
X-547363Y3880824D01*
X-391460Y3979200D01*
X-391460Y4795100D01*
X16540Y4795100D01*
X16540Y3979200D01*
X172443Y3880824D01*
X372896Y3985965D01*
X660549Y4266106D01*
X819100Y4635003D01*
X700700Y4795100D01*
X16540Y4795100D01*
X-391460Y4795100D01*
X-1075620Y4795100D01*
X-1194020Y4635003D01*
X-1766949Y4635003D01*
X-1792739Y4682422D01*
X-2116633Y4944101D01*
X-2516012Y5061912D01*
X-2683460Y4924415D01*
X-3091460Y4924415D01*
X-3258908Y5061912D01*
X-3658287Y4944101D01*
X-3982181Y4682422D01*
X-4105000Y4456600D01*
X-4105000Y9110093D01*
X-1420460Y9110093D01*
X-1420460Y9038600D01*
X-1280960Y8899100D01*
X-582206Y8899100D01*
X-547363Y8880824D01*
X-518400Y8899100D01*
X-391460Y8899100D01*
X-391460Y9795100D01*
X16540Y9795100D01*
X16540Y8899100D01*
X143480Y8899100D01*
X172443Y8880824D01*
X207286Y8899100D01*
X906040Y8899100D01*
X1045540Y9038600D01*
X1045540Y9110093D01*
X960589Y9315182D01*
X915429Y9360343D01*
X2721844Y9360343D01*
X2721844Y9238850D01*
X2806794Y9033761D01*
X2963762Y8876794D01*
X3168851Y8791843D01*
X3265344Y8791843D01*
X3404844Y8931343D01*
X3404844Y9499843D01*
X3654844Y9499843D01*
X3654844Y8931343D01*
X3794344Y8791843D01*
X3890837Y8791843D01*
X4095926Y8876794D01*
X4252894Y9033761D01*
X4337844Y9238850D01*
X4337844Y9360343D01*
X4198344Y9499843D01*
X3654844Y9499843D01*
X3404844Y9499843D01*
X2861344Y9499843D01*
X2721844Y9360343D01*
X915429Y9360343D01*
X803622Y9472150D01*
X757345Y9491319D01*
X819100Y9635003D01*
X700700Y9795100D01*
X16540Y9795100D01*
X-391460Y9795100D01*
X-1075620Y9795100D01*
X-1194020Y9635003D01*
X-1132265Y9491319D01*
X-1178542Y9472150D01*
X-1335509Y9315182D01*
X-1420460Y9110093D01*
X-4105000Y9110093D01*
X-4105000Y10541600D01*
X-3982181Y10315778D01*
X-3658287Y10054099D01*
X-3258908Y9936288D01*
X-3091460Y10073785D01*
X-3091460Y10795100D01*
X-2683460Y10795100D01*
X-2683460Y10073785D01*
X-2516012Y9936288D01*
X-2116633Y10054099D01*
X-1792739Y10315778D01*
X-1766950Y10363197D01*
X-1194020Y10363197D01*
X-1075620Y10203100D01*
X-391460Y10203100D01*
X-391460Y11019000D01*
X16540Y11019000D01*
X16540Y10203100D01*
X700700Y10203100D01*
X819100Y10363197D01*
X660549Y10732094D01*
X372896Y11012235D01*
X172443Y11117376D01*
X16540Y11019000D01*
X-391460Y11019000D01*
X-547363Y11117376D01*
X-747816Y11012235D01*
X-1035469Y10732094D01*
X-1194020Y10363197D01*
X-1766950Y10363197D01*
X-1619008Y10635210D01*
X-1716901Y10795100D01*
X-2683460Y10795100D01*
X-3091460Y10795100D01*
X-3111460Y10795100D01*
X-3111460Y11203100D01*
X-3091460Y11203100D01*
X-3091460Y11924415D01*
X-2683460Y11924415D01*
X-2683460Y11203100D01*
X-1716901Y11203100D01*
X-1619008Y11362990D01*
X-1792739Y11682422D01*
X-2116633Y11944101D01*
X-2516012Y12061912D01*
X-2683460Y11924415D01*
X-3091460Y11924415D01*
X-3258908Y12061912D01*
X-3658287Y11944101D01*
X-3982181Y11682422D01*
X-4105000Y11456600D01*
X-4105000Y12370011D01*
X-3919229Y12293063D01*
X-3748346Y12293063D01*
X-3608846Y12432563D01*
X-3608846Y13050453D01*
X-3633456Y13050453D01*
X-3633456Y13449233D01*
X-3608846Y13449233D01*
X-3608846Y14067123D01*
X-3748346Y14206623D01*
X-3919229Y14206623D01*
X-4105000Y14129675D01*
X-4105000Y15041600D01*
X-3982181Y14815778D01*
X-3658287Y14554099D01*
X-3258908Y14436288D01*
X-3091460Y14573785D01*
X-3091460Y15295100D01*
X-2683460Y15295100D01*
X-2683460Y14573785D01*
X-2516012Y14436288D01*
X-2116633Y14554099D01*
X-1792739Y14815778D01*
X-1619008Y15135210D01*
X-1716901Y15295100D01*
X-2683460Y15295100D01*
X-3091460Y15295100D01*
X-3111460Y15295100D01*
X-3111460Y15703100D01*
X-3091460Y15703100D01*
X-3091460Y16424415D01*
X-3258908Y16561912D01*
X-3658287Y16444101D01*
X-3982181Y16182422D01*
X-4105000Y15956600D01*
X-4105000Y20610093D01*
X-1420460Y20610093D01*
X-1420460Y20538600D01*
X-1280960Y20399100D01*
X-582206Y20399100D01*
X-547363Y20380824D01*
X-518400Y20399100D01*
X-391460Y20399100D01*
X-391460Y21295100D01*
X16540Y21295100D01*
X16540Y20399100D01*
X143480Y20399100D01*
X172443Y20380824D01*
X207286Y20399100D01*
X906040Y20399100D01*
X1045540Y20538600D01*
X1045540Y20610093D01*
X960589Y20815182D01*
X803622Y20972150D01*
X757345Y20991319D01*
X819100Y21135003D01*
X700700Y21295100D01*
X16540Y21295100D01*
X-391460Y21295100D01*
X-1075620Y21295100D01*
X-1194020Y21135003D01*
X-1132265Y20991319D01*
X-1178542Y20972150D01*
X-1335509Y20815182D01*
X-1420460Y20610093D01*
X-4105000Y20610093D01*
X-4105000Y22041600D01*
X-3982181Y21815778D01*
X-3658287Y21554099D01*
X-3258908Y21436288D01*
X-3091460Y21573785D01*
X-3091460Y22295100D01*
X-2683460Y22295100D01*
X-2683460Y21573785D01*
X-2516012Y21436288D01*
X-2116633Y21554099D01*
X-1792739Y21815778D01*
X-1766950Y21863197D01*
X-1194020Y21863197D01*
X-1075620Y21703100D01*
X-391460Y21703100D01*
X-391460Y22519000D01*
X-547363Y22617376D01*
X-747816Y22512235D01*
X-1035469Y22232094D01*
X-1194020Y21863197D01*
X-1766950Y21863197D01*
X-1619008Y22135210D01*
X-1716901Y22295100D01*
X-2683460Y22295100D01*
X-3091460Y22295100D01*
X-3111460Y22295100D01*
X-3111460Y22703100D01*
X-3091460Y22703100D01*
X-3091460Y23424415D01*
X-2683460Y23424415D01*
X-2683460Y22703100D01*
X-1716901Y22703100D01*
X-1619008Y22862990D01*
X-1792739Y23182422D01*
X-2116633Y23444101D01*
X-2516012Y23561912D01*
X-2683460Y23424415D01*
X-3091460Y23424415D01*
X-3258908Y23561912D01*
X-3658287Y23444101D01*
X-3982181Y23182422D01*
X-4105000Y22956600D01*
X-4105000Y24382954D01*
X-4009073Y24343220D01*
X-3838190Y24343220D01*
X-3698690Y24482720D01*
X-3698690Y25100610D01*
X-3723300Y25100610D01*
X-3723300Y25499390D01*
X-3698690Y25499390D01*
X-3698690Y26117280D01*
X-3838190Y26256780D01*
X-4009073Y26256780D01*
X-4105000Y26217046D01*
X-4105000Y27422954D01*
X-4009073Y27383220D01*
X-3838190Y27383220D01*
X-3698690Y27522720D01*
X-3698690Y28140610D01*
X-3723300Y28140610D01*
X-3723300Y28539390D01*
X-3698690Y28539390D01*
X-3698690Y29157280D01*
X-3838190Y29296780D01*
X-4009073Y29296780D01*
X-4105000Y29257046D01*
X-4105000Y30912843D01*
X3551844Y30912843D01*
X3551844Y30753850D01*
X3636795Y30548761D01*
X3793762Y30391793D01*
X3998851Y30306843D01*
X4170344Y30306843D01*
X4309844Y30446343D01*
X4309844Y31052343D01*
X3691344Y31052343D01*
X3551844Y30912843D01*
X-4105000Y30912843D01*
X-4105000Y32342941D01*
X-4000260Y32342941D01*
X-3772380Y31791428D01*
X-3350791Y31369103D01*
X-2799677Y31140261D01*
X-2202941Y31139740D01*
X-1934068Y31250836D01*
X1851844Y31250836D01*
X1851844Y31129343D01*
X1991344Y30989843D01*
X2534844Y30989843D01*
X2534844Y31558343D01*
X2784844Y31558343D01*
X2784844Y30989843D01*
X3328344Y30989843D01*
X3467844Y31129343D01*
X3467844Y31250836D01*
X3382894Y31455925D01*
X3225926Y31612892D01*
X3020837Y31697843D01*
X2924344Y31697843D01*
X2784844Y31558343D01*
X2534844Y31558343D01*
X2395344Y31697843D01*
X2298851Y31697843D01*
X2093762Y31612892D01*
X1936794Y31455925D01*
X1851844Y31250836D01*
X-1934068Y31250836D01*
X-1651428Y31367620D01*
X-1292587Y31725836D01*
X3551844Y31725836D01*
X3551844Y31566843D01*
X3691344Y31427343D01*
X4309844Y31427343D01*
X4309844Y32033343D01*
X4170344Y32172843D01*
X3998851Y32172843D01*
X3793762Y32087893D01*
X3636795Y31930925D01*
X3551844Y31725836D01*
X-1292587Y31725836D01*
X-1229103Y31789209D01*
X-1000261Y32340323D01*
X-999740Y32937059D01*
X-1227620Y33488572D01*
X-1649209Y33910897D01*
X-2200323Y34139739D01*
X-2797059Y34140260D01*
X-3348572Y33912380D01*
X-3770897Y33490791D01*
X-3999739Y32939677D01*
X-4000260Y32342941D01*
X-4105000Y32342941D01*
X-4105000Y34560000D01*
X5053569Y34560000D01*
X5051844Y34555836D01*
X5051844Y34555836D01*
G37*
X5051844Y34555836D02*
X5051844Y34396843D01*
X5191344Y34257343D01*
X5809844Y34257343D01*
X5809844Y34293843D01*
X6209844Y34293843D01*
X6209844Y34257343D01*
X6233844Y34257343D01*
X6233844Y33882343D01*
X6209844Y33882343D01*
X6209844Y33845843D01*
X5809844Y33845843D01*
X5809844Y33882343D01*
X5191344Y33882343D01*
X5051844Y33742843D01*
X5051844Y33583850D01*
X5136795Y33378761D01*
X5293762Y33221793D01*
X5414502Y33171781D01*
X5375029Y33114012D01*
X5354947Y33014843D01*
X5354947Y32264843D01*
X5372379Y32172199D01*
X5427132Y32087111D01*
X5509844Y32030596D01*
X5509844Y31847575D01*
X5436869Y31800616D01*
X5382893Y31930925D01*
X5225926Y32087893D01*
X5020837Y32172843D01*
X4849344Y32172843D01*
X4709844Y32033343D01*
X4709844Y31427343D01*
X4733844Y31427343D01*
X4733844Y31052343D01*
X4709844Y31052343D01*
X4709844Y30446343D01*
X4849344Y30306843D01*
X5020837Y30306843D01*
X5225926Y30391793D01*
X5382893Y30548761D01*
X5437317Y30680152D01*
X5509844Y30630596D01*
X5509844Y30384740D01*
X5417200Y30367308D01*
X5332112Y30312555D01*
X5275029Y30229012D01*
X5254947Y30129843D01*
X5254947Y29703004D01*
X5170837Y29737843D01*
X4878344Y29737843D01*
X4738844Y29598343D01*
X4738844Y28283843D01*
X5478344Y28283843D01*
X5617844Y28423343D01*
X5617844Y28824946D01*
X6401844Y28824946D01*
X6401844Y28423343D01*
X6541344Y28283843D01*
X7280844Y28283843D01*
X7280844Y28303843D01*
X7688844Y28303843D01*
X7688844Y28283843D01*
X8428344Y28283843D01*
X8529947Y28385446D01*
X8529947Y28239843D01*
X8547379Y28147199D01*
X8602132Y28062111D01*
X8685675Y28005028D01*
X8784844Y27984946D01*
X9534844Y27984946D01*
X9627488Y28002378D01*
X9712576Y28057131D01*
X9769659Y28140674D01*
X9789741Y28239843D01*
X9789741Y29039843D01*
X9774053Y29123218D01*
X9800675Y29105028D01*
X9878943Y29089178D01*
X9897735Y28994705D01*
X9928137Y28949206D01*
X9900861Y28883519D01*
X9900629Y28617335D01*
X10002278Y28371324D01*
X10190335Y28182939D01*
X10436168Y28080860D01*
X10491844Y28080811D01*
X10491844Y28045841D01*
X10639406Y28045841D01*
X10550607Y27924863D01*
X10619399Y27737898D01*
X10876242Y27470550D01*
X11215844Y27321843D01*
X12240844Y27321843D01*
X12240844Y28064843D01*
X12220844Y28064843D01*
X12220844Y28434843D01*
X12240844Y28434843D01*
X12240844Y28473843D01*
X12648844Y28473843D01*
X12648844Y28434843D01*
X12668844Y28434843D01*
X12668844Y28064843D01*
X12648844Y28064843D01*
X12648844Y27321843D01*
X13673844Y27321843D01*
X14013446Y27470550D01*
X14270289Y27737898D01*
X14339081Y27924863D01*
X14250282Y28045841D01*
X14397844Y28045841D01*
X14397844Y28149913D01*
X14625403Y28149715D01*
X14839904Y28238346D01*
X14880258Y28035474D01*
X14691325Y27957409D01*
X14502940Y27769352D01*
X14400861Y27523519D01*
X14400629Y27257335D01*
X14502278Y27011324D01*
X14690335Y26822939D01*
X14936168Y26720860D01*
X15202352Y26720628D01*
X15448363Y26822277D01*
X15636748Y27010334D01*
X15658552Y27062843D01*
X16654396Y27062843D01*
X17140502Y26576737D01*
X17130861Y26553519D01*
X17130629Y26287335D01*
X17232278Y26041324D01*
X17420335Y25852939D01*
X17666168Y25750860D01*
X17932352Y25750628D01*
X17956594Y25760645D01*
X18220396Y25496843D01*
X17198697Y25496843D01*
X17177410Y25548362D01*
X16989353Y25736747D01*
X16743520Y25838826D01*
X16477336Y25839058D01*
X16424789Y25817346D01*
X15861068Y26381067D01*
X15754982Y26451952D01*
X15629844Y26476843D01*
X13878697Y26476843D01*
X13857410Y26528362D01*
X13669353Y26716747D01*
X13423520Y26818826D01*
X13157336Y26819058D01*
X12911325Y26717409D01*
X12722940Y26529352D01*
X12620861Y26283519D01*
X12620629Y26017335D01*
X12686529Y25857843D01*
X12575842Y25857843D01*
X12575842Y25772345D01*
X12490344Y25857843D01*
X12368851Y25857843D01*
X12297844Y25828431D01*
X12297844Y25963845D01*
X12212346Y25963845D01*
X12297844Y26049343D01*
X12297844Y26170836D01*
X12212894Y26375925D01*
X12055926Y26532892D01*
X11850837Y26617843D01*
X11754344Y26617843D01*
X11614844Y26478343D01*
X11614844Y25909843D01*
X11713844Y25909843D01*
X11713844Y25609843D01*
X11614844Y25609843D01*
X11614844Y25535843D01*
X11364844Y25535843D01*
X11364844Y25609843D01*
X10414844Y25609843D01*
X10414844Y25535843D01*
X10164844Y25535843D01*
X10164844Y25609843D01*
X10065844Y25609843D01*
X10065844Y25909843D01*
X10164844Y25909843D01*
X10164844Y26478343D01*
X10414844Y26478343D01*
X10414844Y25909843D01*
X11364844Y25909843D01*
X11364844Y26478343D01*
X11225344Y26617843D01*
X11128851Y26617843D01*
X10923762Y26532892D01*
X10889844Y26498974D01*
X10855926Y26532892D01*
X10650837Y26617843D01*
X10554344Y26617843D01*
X10414844Y26478343D01*
X10164844Y26478343D01*
X10025344Y26617843D01*
X9928851Y26617843D01*
X9723762Y26532892D01*
X9659844Y26468974D01*
X9659844Y26523199D01*
X9712576Y26557131D01*
X9769659Y26640674D01*
X9789741Y26739843D01*
X9789741Y27539843D01*
X9772309Y27632487D01*
X9717556Y27717575D01*
X9634013Y27774658D01*
X9534844Y27794740D01*
X8784844Y27794740D01*
X8692200Y27777308D01*
X8607112Y27722555D01*
X8567844Y27665085D01*
X8567844Y27736343D01*
X8428344Y27875843D01*
X7688844Y27875843D01*
X7688844Y27855843D01*
X7280844Y27855843D01*
X7280844Y27875843D01*
X6541344Y27875843D01*
X6401844Y27736343D01*
X6401844Y26868850D01*
X6486795Y26663761D01*
X6507713Y26642843D01*
X6448851Y26642843D01*
X6243762Y26557892D01*
X6086794Y26400925D01*
X6001844Y26195836D01*
X6001844Y26188560D01*
X5949013Y26224658D01*
X5849844Y26244740D01*
X5249844Y26244740D01*
X5248353Y26244459D01*
X5222893Y26305925D01*
X5106976Y26421843D01*
X5170837Y26421843D01*
X5375926Y26506793D01*
X5532893Y26663761D01*
X5617844Y26868850D01*
X5617844Y27736343D01*
X5478344Y27875843D01*
X4738844Y27875843D01*
X4738844Y26561343D01*
X4752344Y26547843D01*
X4739344Y26547843D01*
X4599844Y26408343D01*
X4599844Y25864843D01*
X4673844Y25864843D01*
X4673844Y25614843D01*
X4599844Y25614843D01*
X4599844Y25169648D01*
X4530861Y25003519D01*
X4530629Y24737335D01*
X4617602Y24526843D01*
X3985292Y24526843D01*
X3866844Y24645291D01*
X3866844Y25003090D01*
X4038851Y24931843D01*
X4160344Y24931843D01*
X4299844Y25071343D01*
X4299844Y25614843D01*
X4225844Y25614843D01*
X4225844Y25864843D01*
X4299844Y25864843D01*
X4299844Y26408343D01*
X4238844Y26469343D01*
X4330844Y26561343D01*
X4330844Y27875843D01*
X4310844Y27875843D01*
X4310844Y28283843D01*
X4330844Y28283843D01*
X4330844Y29598343D01*
X4191344Y29737843D01*
X3898851Y29737843D01*
X3693762Y29652893D01*
X3536795Y29495925D01*
X3451844Y29290836D01*
X3451844Y29117601D01*
X3432556Y29147575D01*
X3349013Y29204658D01*
X3249844Y29224740D01*
X3037239Y29224740D01*
X3087576Y29257131D01*
X3144659Y29340674D01*
X3164741Y29439843D01*
X3164741Y30039843D01*
X3164460Y30041334D01*
X3225926Y30066794D01*
X3382894Y30223761D01*
X3467844Y30428850D01*
X3467844Y30550343D01*
X3328344Y30689843D01*
X2784844Y30689843D01*
X2784844Y30615843D01*
X2534844Y30615843D01*
X2534844Y30689843D01*
X1991344Y30689843D01*
X1851844Y30550343D01*
X1851844Y30428850D01*
X1936794Y30223761D01*
X2093762Y30066794D01*
X2155247Y30041326D01*
X2154947Y30039843D01*
X2154947Y29439843D01*
X2172379Y29347199D01*
X2227132Y29262111D01*
X2281826Y29224740D01*
X2049844Y29224740D01*
X2048354Y29224460D01*
X2022894Y29285925D01*
X1865926Y29442892D01*
X1660837Y29527843D01*
X1293344Y29527843D01*
X1153844Y29388343D01*
X1153844Y28473843D01*
X1173844Y28473843D01*
X1173844Y28065843D01*
X1153844Y28065843D01*
X1153844Y28045843D01*
X745844Y28045843D01*
X745844Y28065843D01*
X-68656Y28065843D01*
X-116177Y28018322D01*
X-139163Y28027843D01*
X-235656Y28027843D01*
X-375156Y27888343D01*
X-375156Y27319843D01*
X-276156Y27319843D01*
X-276156Y27019843D01*
X-375156Y27019843D01*
X-375156Y26945843D01*
X-625156Y26945843D01*
X-625156Y27019843D01*
X-1167708Y27019843D01*
X-1248932Y27101067D01*
X-1355018Y27171952D01*
X-1418014Y27184482D01*
X-1432691Y27262487D01*
X-1487444Y27347575D01*
X-1570987Y27404658D01*
X-1670156Y27424740D01*
X-1912811Y27424740D01*
X-1769476Y27568075D01*
X-1760950Y27580836D01*
X-1308156Y27580836D01*
X-1308156Y27459343D01*
X-1168656Y27319843D01*
X-625156Y27319843D01*
X-625156Y27888343D01*
X-764656Y28027843D01*
X-861149Y28027843D01*
X-1066238Y27942892D01*
X-1223206Y27785925D01*
X-1308156Y27580836D01*
X-1760950Y27580836D01*
X-1726795Y27631952D01*
X-1698591Y27674162D01*
X-1696172Y27686323D01*
X-1601920Y27686323D01*
X-1509276Y27703755D01*
X-1424188Y27758508D01*
X-1367105Y27842051D01*
X-1347023Y27941220D01*
X-1347023Y28738780D01*
X-1364455Y28831424D01*
X-1419208Y28916512D01*
X-1502751Y28973595D01*
X-1601920Y28993677D01*
X-2399480Y28993677D01*
X-2492124Y28976245D01*
X-2573276Y28924025D01*
X-2627471Y29054862D01*
X-2653444Y29080836D01*
X-208156Y29080836D01*
X-208156Y28613343D01*
X-68656Y28473843D01*
X745844Y28473843D01*
X745844Y29388343D01*
X606344Y29527843D01*
X238851Y29527843D01*
X33762Y29442892D01*
X-123206Y29285925D01*
X-208156Y29080836D01*
X-2653444Y29080836D01*
X-2784438Y29211830D01*
X-2989527Y29296780D01*
X-3160410Y29296780D01*
X-3299910Y29157280D01*
X-3299910Y28539390D01*
X-3275300Y28539390D01*
X-3275300Y28140610D01*
X-3299910Y28140610D01*
X-3299910Y27522720D01*
X-3160410Y27383220D01*
X-3100234Y27383220D01*
X-3147888Y27352555D01*
X-3204971Y27269012D01*
X-3225053Y27169843D01*
X-3225053Y26569843D01*
X-3207621Y26477199D01*
X-3152868Y26392111D01*
X-3069325Y26335028D01*
X-2970156Y26314946D01*
X-2570156Y26314946D01*
X-2477512Y26332378D01*
X-2392424Y26387131D01*
X-2335341Y26470674D01*
X-2320336Y26544773D01*
X-2307621Y26477199D01*
X-2252868Y26392111D01*
X-2169325Y26335028D01*
X-2070156Y26314946D01*
X-1670156Y26314946D01*
X-1577512Y26332378D01*
X-1557156Y26345477D01*
X-1557156Y25944612D01*
X-1601920Y25953677D01*
X-2399480Y25953677D01*
X-2492124Y25936245D01*
X-2573276Y25884025D01*
X-2627471Y26014862D01*
X-2784438Y26171830D01*
X-2989527Y26256780D01*
X-3160410Y26256780D01*
X-3299910Y26117280D01*
X-3299910Y25499390D01*
X-3275300Y25499390D01*
X-3275300Y25100610D01*
X-3299910Y25100610D01*
X-3299910Y24482720D01*
X-3160410Y24343220D01*
X-2989527Y24343220D01*
X-2784438Y24428170D01*
X-2627471Y24585138D01*
X-2572818Y24717083D01*
X-2498649Y24666405D01*
X-2399480Y24646323D01*
X-2326892Y24646323D01*
X-2302809Y24525249D01*
X-2231924Y24419163D01*
X-1891380Y24078619D01*
X-1785294Y24007734D01*
X-1660156Y23982843D01*
X-1299973Y23982843D01*
X-1287621Y23917199D01*
X-1232868Y23832111D01*
X-1149325Y23775028D01*
X-1050156Y23754946D01*
X-650156Y23754946D01*
X-557512Y23772378D01*
X-472424Y23827131D01*
X-415341Y23910674D01*
X-400336Y23984773D01*
X-387621Y23917199D01*
X-332868Y23832111D01*
X-277156Y23794044D01*
X-277156Y23194263D01*
X-252265Y23069125D01*
X-181380Y22963039D01*
X167440Y22614219D01*
X16540Y22519000D01*
X16540Y21703100D01*
X700700Y21703100D01*
X819100Y21863197D01*
X744205Y22037454D01*
X1125885Y21655774D01*
X1231971Y21584889D01*
X1357109Y21559998D01*
X2891757Y21559998D01*
X2795704Y21328676D01*
X2795472Y21062492D01*
X2897121Y20816481D01*
X3085178Y20628096D01*
X3331011Y20526017D01*
X3523402Y20525849D01*
X3404396Y20406843D01*
X3018697Y20406843D01*
X2997410Y20458362D01*
X2809353Y20646747D01*
X2563520Y20748826D01*
X2297336Y20749058D01*
X2051325Y20647409D01*
X1862940Y20459352D01*
X1760861Y20213519D01*
X1760629Y19947335D01*
X1862278Y19701324D01*
X2050335Y19512939D01*
X2296168Y19410860D01*
X2562352Y19410628D01*
X2808363Y19512277D01*
X2863841Y19567659D01*
X2981500Y19450000D01*
X3525000Y19450000D01*
X3525000Y19524000D01*
X3775000Y19524000D01*
X3775000Y19450000D01*
X3874000Y19450000D01*
X3874000Y19150000D01*
X3775000Y19150000D01*
X3775000Y19076000D01*
X3525000Y19076000D01*
X3525000Y19150000D01*
X2981500Y19150000D01*
X2842000Y19010500D01*
X2842000Y18889007D01*
X2887093Y18780143D01*
X2673520Y18868826D01*
X2407336Y18869058D01*
X2161325Y18767409D01*
X1972940Y18579352D01*
X1870861Y18333519D01*
X1870629Y18067335D01*
X1972278Y17821324D01*
X2160335Y17632939D01*
X2406168Y17530860D01*
X2672352Y17530628D01*
X2918363Y17632277D01*
X3086379Y17800000D01*
X3167268Y17800000D01*
X3217288Y17722268D01*
X3250000Y17699917D01*
X3250000Y17159687D01*
X3280448Y17006613D01*
X3367157Y16876844D01*
X4147001Y16097000D01*
X4217576Y16049843D01*
X3395530Y16049843D01*
X1463430Y17981943D01*
X1333661Y18068652D01*
X1180587Y18099100D01*
X732312Y18099100D01*
X742437Y18149100D01*
X742437Y18549100D01*
X725005Y18641744D01*
X704437Y18673707D01*
X722355Y18699931D01*
X742437Y18799100D01*
X742437Y19199100D01*
X725005Y19291744D01*
X704437Y19323707D01*
X722355Y19349931D01*
X742437Y19449100D01*
X742437Y19600707D01*
X803622Y19626050D01*
X960589Y19783018D01*
X1045540Y19988107D01*
X1045540Y20059600D01*
X906040Y20199100D01*
X16540Y20199100D01*
X16540Y20103997D01*
X-391460Y20103997D01*
X-391460Y20199100D01*
X-1280960Y20199100D01*
X-1420460Y20059600D01*
X-1420460Y19988107D01*
X-1335509Y19783018D01*
X-1178542Y19626050D01*
X-1117357Y19600707D01*
X-1117357Y19449100D01*
X-1099925Y19356456D01*
X-1080391Y19326100D01*
X-1120899Y19326100D01*
X-1246037Y19301209D01*
X-1352123Y19230324D01*
X-2051380Y18531067D01*
X-2122265Y18424981D01*
X-2136189Y18354981D01*
X-2147156Y18299843D01*
X-2147156Y16453105D01*
X-2516012Y16561912D01*
X-2683460Y16424415D01*
X-2683460Y15703100D01*
X-1716901Y15703100D01*
X-1676853Y15768512D01*
X-987351Y15079010D01*
X-1042664Y15079058D01*
X-1288675Y14977409D01*
X-1477060Y14789352D01*
X-1579139Y14543519D01*
X-1579371Y14277335D01*
X-1477722Y14031324D01*
X-1289665Y13842939D01*
X-1043832Y13740860D01*
X-1015021Y13740835D01*
X-1027888Y13732555D01*
X-1084971Y13649012D01*
X-1099585Y13576843D01*
X-1257179Y13576843D01*
X-1257179Y13648623D01*
X-1274611Y13741267D01*
X-1329364Y13826355D01*
X-1412907Y13883438D01*
X-1512076Y13903520D01*
X-2309636Y13903520D01*
X-2402280Y13886088D01*
X-2483432Y13833868D01*
X-2537627Y13964705D01*
X-2694594Y14121673D01*
X-2899683Y14206623D01*
X-3070566Y14206623D01*
X-3210066Y14067123D01*
X-3210066Y13449233D01*
X-3185456Y13449233D01*
X-3185456Y13050453D01*
X-3210066Y13050453D01*
X-3210066Y12432563D01*
X-3070566Y12293063D01*
X-2899683Y12293063D01*
X-2694594Y12378013D01*
X-2537627Y12534981D01*
X-2482974Y12666926D01*
X-2408805Y12616248D01*
X-2309636Y12596166D01*
X-1512076Y12596166D01*
X-1419432Y12613598D01*
X-1334344Y12668351D01*
X-1277261Y12751894D01*
X-1257179Y12851063D01*
X-1257179Y12922843D01*
X-1099973Y12922843D01*
X-1087621Y12857199D01*
X-1032868Y12772111D01*
X-949325Y12715028D01*
X-850156Y12694946D01*
X-450156Y12694946D01*
X-357512Y12712378D01*
X-272424Y12767131D01*
X-215341Y12850674D01*
X-200336Y12924773D01*
X-187621Y12857199D01*
X-132868Y12772111D01*
X-49325Y12715028D01*
X49844Y12694946D01*
X449844Y12694946D01*
X542488Y12712378D01*
X627576Y12767131D01*
X684659Y12850674D01*
X704741Y12949843D01*
X704741Y13386918D01*
X2252844Y11838815D01*
X2252844Y11089843D01*
X2277735Y10964705D01*
X2348620Y10858619D01*
X2688620Y10518619D01*
X2794706Y10447734D01*
X2919844Y10422843D01*
X2963713Y10422843D01*
X2806794Y10265925D01*
X2721844Y10060836D01*
X2721844Y9939343D01*
X2861344Y9799843D01*
X3404844Y9799843D01*
X3404844Y9873843D01*
X3654844Y9873843D01*
X3654844Y9799843D01*
X4198344Y9799843D01*
X4337844Y9939343D01*
X4337844Y10060836D01*
X4252894Y10265925D01*
X4095926Y10422892D01*
X4071902Y10432843D01*
X4210027Y10432843D01*
X4222379Y10367199D01*
X4277132Y10282111D01*
X4360675Y10225028D01*
X4459844Y10204946D01*
X4859844Y10204946D01*
X4952488Y10222378D01*
X5037576Y10277131D01*
X5094659Y10360674D01*
X5109664Y10434773D01*
X5122379Y10367199D01*
X5177132Y10282111D01*
X5260675Y10225028D01*
X5359844Y10204946D01*
X5759844Y10204946D01*
X5852488Y10222378D01*
X5937576Y10277131D01*
X5994659Y10360674D01*
X6009273Y10432843D01*
X6059844Y10432843D01*
X6144947Y10449771D01*
X6144947Y10169843D01*
X6162379Y10077199D01*
X6217132Y9992111D01*
X6300675Y9935028D01*
X6399844Y9914946D01*
X7010029Y9914946D01*
X7076794Y9753761D01*
X7233762Y9596794D01*
X7394947Y9530029D01*
X7394947Y8919843D01*
X7412379Y8827199D01*
X7467132Y8742111D01*
X7550675Y8685028D01*
X7649844Y8664946D01*
X7801451Y8664946D01*
X7826794Y8603761D01*
X7862712Y8567843D01*
X7765842Y8567843D01*
X7765842Y8482345D01*
X7680344Y8567843D01*
X7558851Y8567843D01*
X7353762Y8482892D01*
X7258994Y8388125D01*
X7259059Y8462351D01*
X7157410Y8708362D01*
X6969353Y8896747D01*
X6723520Y8998826D01*
X6457336Y8999058D01*
X6211325Y8897409D01*
X6022940Y8709352D01*
X5920861Y8463519D01*
X5920629Y8197335D01*
X6022278Y7951324D01*
X6189844Y7783466D01*
X6189844Y7002575D01*
X6112112Y6952555D01*
X6055029Y6869012D01*
X6034947Y6769843D01*
X6034947Y6369843D01*
X6052379Y6277199D01*
X6107132Y6192111D01*
X6190675Y6135028D01*
X6264774Y6120023D01*
X6197200Y6107308D01*
X6112112Y6052555D01*
X6074045Y5996843D01*
X5879844Y5996843D01*
X5754706Y5971952D01*
X5722270Y5950279D01*
X5653520Y5978826D01*
X5387336Y5979058D01*
X5141325Y5877409D01*
X4952940Y5689352D01*
X4850861Y5443519D01*
X4850836Y5414537D01*
X4698493Y5566880D01*
X4808363Y5612277D01*
X4996748Y5800334D01*
X5098827Y6046167D01*
X5099059Y6312351D01*
X4997410Y6558362D01*
X4809353Y6746747D01*
X4756844Y6768551D01*
X4756844Y6839843D01*
X4731953Y6964980D01*
X4661068Y7071067D01*
X3181068Y8551067D01*
X3074982Y8621952D01*
X2949844Y8646843D01*
X1199844Y8646843D01*
X1074707Y8621952D01*
X1021747Y8586565D01*
X1019845Y8585295D01*
X906040Y8699100D01*
X16540Y8699100D01*
X16540Y8603997D01*
X-391460Y8603997D01*
X-391460Y8699100D01*
X-1280960Y8699100D01*
X-1420460Y8559600D01*
X-1420460Y8488107D01*
X-1335509Y8283018D01*
X-1178542Y8126050D01*
X-1117357Y8100707D01*
X-1117357Y7949100D01*
X-1099925Y7856456D01*
X-1079357Y7824493D01*
X-1097275Y7798269D01*
X-1117357Y7699100D01*
X-1117357Y7299100D01*
X-1099925Y7206456D01*
X-1079357Y7174493D01*
X-1097275Y7148269D01*
X-1117357Y7049100D01*
X-1117357Y6649100D01*
X-1099925Y6556456D01*
X-1079357Y6524493D01*
X-1097275Y6498269D01*
X-1117357Y6399100D01*
X-1117357Y5999100D01*
X-1099925Y5906456D01*
X-1045172Y5821368D01*
X-985598Y5780663D01*
X-1035469Y5732094D01*
X-1194020Y5363197D01*
X-1075620Y5203100D01*
X-391460Y5203100D01*
X-391460Y5223100D01*
X16540Y5223100D01*
X16540Y5203100D01*
X700700Y5203100D01*
X819100Y5363197D01*
X660549Y5732094D01*
X610310Y5781021D01*
X638406Y5799100D01*
X1124901Y5799100D01*
X1394844Y5529157D01*
X1394844Y5084357D01*
X1322112Y5037555D01*
X1265029Y4954012D01*
X1244947Y4854843D01*
X1244947Y4404843D01*
X1262379Y4312199D01*
X1317132Y4227111D01*
X1400675Y4170028D01*
X1499844Y4149946D01*
X2089844Y4149946D01*
X2182488Y4167378D01*
X2267576Y4222131D01*
X2324659Y4305674D01*
X2344741Y4404843D01*
X2344741Y4854843D01*
X2327309Y4947487D01*
X2300053Y4989843D01*
X3162474Y4989843D01*
X3047001Y4912686D01*
X2827001Y4692686D01*
X2740292Y4562917D01*
X2723156Y4476769D01*
X2709844Y4409843D01*
X2709844Y3119740D01*
X2617200Y3102308D01*
X2532112Y3047555D01*
X2475029Y2964012D01*
X2454947Y2864843D01*
X2454947Y2114843D01*
X2472379Y2022199D01*
X2527132Y1937111D01*
X2610675Y1880028D01*
X2709844Y1859946D01*
X2719844Y1859946D01*
X2719844Y1639740D01*
X2589844Y1639740D01*
X2497200Y1622308D01*
X2412112Y1567555D01*
X2355029Y1484012D01*
X2334947Y1384843D01*
X2334947Y933236D01*
X2273762Y907893D01*
X2116795Y750925D01*
X2031844Y545836D01*
X2031844Y411843D01*
X2171344Y272343D01*
X2915844Y272343D01*
X2915844Y333843D01*
X3323844Y333843D01*
X3323844Y272343D01*
X3343844Y272343D01*
X3343844Y-52657D01*
X3323844Y-52657D01*
X3323844Y-114157D01*
X2915844Y-114157D01*
X2915844Y-52657D01*
X2171344Y-52657D01*
X2031844Y-192157D01*
X2031844Y-326150D01*
X2079067Y-440157D01*
X1689849Y-440157D01*
X1689844Y-440156D01*
X1536771Y-470605D01*
X1407001Y-557314D01*
X1406999Y-557317D01*
X1382645Y-581671D01*
X1499739Y-299677D01*
X1500260Y297059D01*
X1272380Y848572D01*
X850791Y1270897D01*
X299677Y1499739D01*
X-297059Y1500260D01*
X-848572Y1272380D01*
X-1270897Y850791D01*
X-1499739Y299677D01*
X-1500260Y-297059D01*
X-1272380Y-848572D01*
X-850791Y-1270897D01*
X-611746Y-1370157D01*
X-970151Y-1370157D01*
X-970156Y-1370156D01*
X-1123230Y-1400605D01*
X-1252999Y-1487314D01*
X-1972999Y-2207314D01*
X-2059708Y-2337083D01*
X-2078321Y-2430657D01*
X-2090156Y-2490157D01*
X-2090156Y-2747425D01*
X-2167888Y-2797445D01*
X-2224971Y-2880988D01*
X-2245053Y-2980157D01*
X-2245053Y-3380157D01*
X-2227621Y-3472801D01*
X-2172868Y-3557889D01*
X-2089325Y-3614972D01*
X-2015226Y-3629977D01*
X-2082800Y-3642692D01*
X-2167888Y-3697445D01*
X-2199122Y-3743157D01*
X-2546323Y-3743157D01*
X-2546323Y-3675520D01*
X-2563755Y-3582876D01*
X-2618508Y-3497788D01*
X-2702051Y-3440705D01*
X-2801220Y-3420623D01*
X-3598780Y-3420623D01*
X-3691424Y-3438055D01*
X-3776512Y-3492808D01*
X-3833595Y-3576351D01*
X-3853677Y-3675520D01*
X-3853677Y-4473080D01*
X-3836245Y-4565724D01*
X-3781492Y-4650812D01*
X-3697949Y-4707895D01*
X-3598780Y-4727977D01*
X-2801220Y-4727977D01*
X-2708576Y-4710545D01*
X-2623488Y-4655792D01*
X-2566405Y-4572249D01*
X-2546323Y-4473080D01*
X-2546323Y-4397157D01*
X-2211948Y-4397157D01*
X-2172868Y-4457889D01*
X-2089325Y-4514972D01*
X-1990156Y-4535054D01*
X-1390156Y-4535054D01*
X-1340156Y-4525646D01*
X-1340156Y-6160157D01*
X-1309708Y-6313231D01*
X-1222999Y-6443000D01*
X-523001Y-7142997D01*
X-522999Y-7143000D01*
X-393229Y-7229709D01*
X-240156Y-7260157D01*
X1791844Y-7260157D01*
X1791844Y-7836657D01*
X1931344Y-7976157D01*
X2595844Y-7976157D01*
X2595844Y-7956157D01*
X3003844Y-7956157D01*
X3003844Y-7976157D01*
X3668344Y-7976157D01*
X3807844Y-7836657D01*
X3807844Y-7260157D01*
X4809844Y-7260157D01*
X4962918Y-7229709D01*
X5092687Y-7143000D01*
X5577684Y-6658002D01*
X5577687Y-6658000D01*
X5664396Y-6528230D01*
X5668965Y-6505260D01*
X5694845Y-6375157D01*
X5694844Y-6375152D01*
X5694844Y-6315054D01*
X5719844Y-6315054D01*
X5812488Y-6297622D01*
X5897576Y-6242869D01*
X5954659Y-6159326D01*
X5974741Y-6060157D01*
X5974741Y-5710157D01*
X5957309Y-5617513D01*
X5955747Y-5615086D01*
X6007918Y-5604709D01*
X6137687Y-5518000D01*
X6228027Y-5427660D01*
X6257132Y-5472889D01*
X6340675Y-5529972D01*
X6439844Y-5550054D01*
X6439844Y-5860157D01*
X6470292Y-6013231D01*
X6557001Y-6143000D01*
X6757001Y-6343000D01*
X6886770Y-6429709D01*
X7039844Y-6460158D01*
X7039849Y-6460157D01*
X7159722Y-6460157D01*
X7210675Y-6494972D01*
X7284774Y-6509977D01*
X7217200Y-6522692D01*
X7132112Y-6577445D01*
X7075029Y-6660988D01*
X7054947Y-6760157D01*
X7054947Y-7160157D01*
X7072379Y-7252801D01*
X7127132Y-7337889D01*
X7183494Y-7376400D01*
X7177735Y-7385019D01*
X7177735Y-7385020D01*
X7152844Y-7510157D01*
X7152844Y-7654800D01*
X7102112Y-7687445D01*
X7045029Y-7770988D01*
X7028390Y-7853157D01*
X6904741Y-7853157D01*
X6904741Y-7330157D01*
X6887309Y-7237513D01*
X6832556Y-7152425D01*
X6749013Y-7095342D01*
X6649844Y-7075260D01*
X5749844Y-7075260D01*
X5657200Y-7092692D01*
X5572112Y-7147445D01*
X5515029Y-7230988D01*
X5494947Y-7330157D01*
X5494947Y-9030157D01*
X5512379Y-9122801D01*
X5567132Y-9207889D01*
X5650675Y-9264972D01*
X5749844Y-9285054D01*
X6649844Y-9285054D01*
X6742488Y-9267622D01*
X6827576Y-9212869D01*
X6884659Y-9129326D01*
X6904741Y-9030157D01*
X6904741Y-8507157D01*
X7031909Y-8507157D01*
X7042379Y-8562801D01*
X7097132Y-8647889D01*
X7180675Y-8704972D01*
X7279844Y-8725054D01*
X7679844Y-8725054D01*
X7772488Y-8707622D01*
X7857576Y-8652869D01*
X7914659Y-8569326D01*
X7929664Y-8495227D01*
X7942379Y-8562801D01*
X7997132Y-8647889D01*
X8043250Y-8679400D01*
X8011325Y-8692591D01*
X7822940Y-8880648D01*
X7720861Y-9126481D01*
X7720629Y-9392665D01*
X7808363Y-9605000D01*
X-2470451Y-9605000D01*
X-3111958Y-9477397D01*
X-3630749Y-9130751D01*
X-3977397Y-8611958D01*
X-4040033Y-8297059D01*
X-4000260Y-8297059D01*
X-3772380Y-8848572D01*
X-3350791Y-9270897D01*
X-2799677Y-9499739D01*
X-2202941Y-9500260D01*
X-1651428Y-9272380D01*
X-1229103Y-8850791D01*
X-1093266Y-8523657D01*
X1791844Y-8523657D01*
X1791844Y-9141150D01*
X1876795Y-9346239D01*
X2033762Y-9503207D01*
X2238851Y-9588157D01*
X2456344Y-9588157D01*
X2595844Y-9448657D01*
X2595844Y-8384157D01*
X3003844Y-8384157D01*
X3003844Y-9448657D01*
X3143344Y-9588157D01*
X3360837Y-9588157D01*
X3565926Y-9503207D01*
X3722893Y-9346239D01*
X3807844Y-9141150D01*
X3807844Y-8523657D01*
X3668344Y-8384157D01*
X3003844Y-8384157D01*
X2595844Y-8384157D01*
X1931344Y-8384157D01*
X1791844Y-8523657D01*
X-1093266Y-8523657D01*
X-1000261Y-8299677D01*
X-999740Y-7702941D01*
X-1227620Y-7151428D01*
X-1649209Y-6729103D01*
X-2200323Y-6500261D01*
X-2797059Y-6499740D01*
X-3348572Y-6727620D01*
X-3770897Y-7149209D01*
X-3999739Y-7700323D01*
X-4000260Y-8297059D01*
X-4040033Y-8297059D01*
X-4105000Y-7970451D01*
X-4105000Y-1612665D01*
X-3869371Y-1612665D01*
X-3767722Y-1858676D01*
X-3687770Y-1938767D01*
X-3691424Y-1939455D01*
X-3776512Y-1994208D01*
X-3833595Y-2077751D01*
X-3853677Y-2176920D01*
X-3853677Y-2974480D01*
X-3836245Y-3067124D01*
X-3781492Y-3152212D01*
X-3697949Y-3209295D01*
X-3598780Y-3229377D01*
X-2801220Y-3229377D01*
X-2708576Y-3211945D01*
X-2623488Y-3157192D01*
X-2566405Y-3073649D01*
X-2546323Y-2974480D01*
X-2546323Y-2176920D01*
X-2563755Y-2084276D01*
X-2618508Y-1999188D01*
X-2702051Y-1942105D01*
X-2713510Y-1939784D01*
X-2633252Y-1859666D01*
X-2531173Y-1613833D01*
X-2530941Y-1347649D01*
X-2632590Y-1101638D01*
X-2820647Y-913253D01*
X-3066480Y-811174D01*
X-3332664Y-810942D01*
X-3578675Y-912591D01*
X-3767060Y-1100648D01*
X-3869139Y-1346481D01*
X-3869371Y-1612665D01*
X-4105000Y-1612665D01*
X-4105000Y3541600D01*
X-3982181Y3315778D01*
X-3658287Y3054099D01*
X-3258908Y2936288D01*
X-3091460Y3073785D01*
X-3091460Y3795100D01*
X-2683460Y3795100D01*
X-2683460Y3073785D01*
X-2516012Y2936288D01*
X-2116633Y3054099D01*
X-1792739Y3315778D01*
X-1619008Y3635210D01*
X-1716901Y3795100D01*
X-2683460Y3795100D01*
X-3091460Y3795100D01*
X-3111460Y3795100D01*
X-3111460Y4203100D01*
X-3091460Y4203100D01*
X-3091460Y4924415D01*
X-2683460Y4924415D01*
X-2683460Y4203100D01*
X-1716901Y4203100D01*
X-1619008Y4362990D01*
X-1766949Y4635003D01*
X-1194020Y4635003D01*
X-1035469Y4266106D01*
X-747816Y3985965D01*
X-547363Y3880824D01*
X-391460Y3979200D01*
X-391460Y4795100D01*
X16540Y4795100D01*
X16540Y3979200D01*
X172443Y3880824D01*
X372896Y3985965D01*
X660549Y4266106D01*
X819100Y4635003D01*
X700700Y4795100D01*
X16540Y4795100D01*
X-391460Y4795100D01*
X-1075620Y4795100D01*
X-1194020Y4635003D01*
X-1766949Y4635003D01*
X-1792739Y4682422D01*
X-2116633Y4944101D01*
X-2516012Y5061912D01*
X-2683460Y4924415D01*
X-3091460Y4924415D01*
X-3258908Y5061912D01*
X-3658287Y4944101D01*
X-3982181Y4682422D01*
X-4105000Y4456600D01*
X-4105000Y9110093D01*
X-1420460Y9110093D01*
X-1420460Y9038600D01*
X-1280960Y8899100D01*
X-582206Y8899100D01*
X-547363Y8880824D01*
X-518400Y8899100D01*
X-391460Y8899100D01*
X-391460Y9795100D01*
X16540Y9795100D01*
X16540Y8899100D01*
X143480Y8899100D01*
X172443Y8880824D01*
X207286Y8899100D01*
X906040Y8899100D01*
X1045540Y9038600D01*
X1045540Y9110093D01*
X960589Y9315182D01*
X915429Y9360343D01*
X2721844Y9360343D01*
X2721844Y9238850D01*
X2806794Y9033761D01*
X2963762Y8876794D01*
X3168851Y8791843D01*
X3265344Y8791843D01*
X3404844Y8931343D01*
X3404844Y9499843D01*
X3654844Y9499843D01*
X3654844Y8931343D01*
X3794344Y8791843D01*
X3890837Y8791843D01*
X4095926Y8876794D01*
X4252894Y9033761D01*
X4337844Y9238850D01*
X4337844Y9360343D01*
X4198344Y9499843D01*
X3654844Y9499843D01*
X3404844Y9499843D01*
X2861344Y9499843D01*
X2721844Y9360343D01*
X915429Y9360343D01*
X803622Y9472150D01*
X757345Y9491319D01*
X819100Y9635003D01*
X700700Y9795100D01*
X16540Y9795100D01*
X-391460Y9795100D01*
X-1075620Y9795100D01*
X-1194020Y9635003D01*
X-1132265Y9491319D01*
X-1178542Y9472150D01*
X-1335509Y9315182D01*
X-1420460Y9110093D01*
X-4105000Y9110093D01*
X-4105000Y10541600D01*
X-3982181Y10315778D01*
X-3658287Y10054099D01*
X-3258908Y9936288D01*
X-3091460Y10073785D01*
X-3091460Y10795100D01*
X-2683460Y10795100D01*
X-2683460Y10073785D01*
X-2516012Y9936288D01*
X-2116633Y10054099D01*
X-1792739Y10315778D01*
X-1766950Y10363197D01*
X-1194020Y10363197D01*
X-1075620Y10203100D01*
X-391460Y10203100D01*
X-391460Y11019000D01*
X16540Y11019000D01*
X16540Y10203100D01*
X700700Y10203100D01*
X819100Y10363197D01*
X660549Y10732094D01*
X372896Y11012235D01*
X172443Y11117376D01*
X16540Y11019000D01*
X-391460Y11019000D01*
X-547363Y11117376D01*
X-747816Y11012235D01*
X-1035469Y10732094D01*
X-1194020Y10363197D01*
X-1766950Y10363197D01*
X-1619008Y10635210D01*
X-1716901Y10795100D01*
X-2683460Y10795100D01*
X-3091460Y10795100D01*
X-3111460Y10795100D01*
X-3111460Y11203100D01*
X-3091460Y11203100D01*
X-3091460Y11924415D01*
X-2683460Y11924415D01*
X-2683460Y11203100D01*
X-1716901Y11203100D01*
X-1619008Y11362990D01*
X-1792739Y11682422D01*
X-2116633Y11944101D01*
X-2516012Y12061912D01*
X-2683460Y11924415D01*
X-3091460Y11924415D01*
X-3258908Y12061912D01*
X-3658287Y11944101D01*
X-3982181Y11682422D01*
X-4105000Y11456600D01*
X-4105000Y12370011D01*
X-3919229Y12293063D01*
X-3748346Y12293063D01*
X-3608846Y12432563D01*
X-3608846Y13050453D01*
X-3633456Y13050453D01*
X-3633456Y13449233D01*
X-3608846Y13449233D01*
X-3608846Y14067123D01*
X-3748346Y14206623D01*
X-3919229Y14206623D01*
X-4105000Y14129675D01*
X-4105000Y15041600D01*
X-3982181Y14815778D01*
X-3658287Y14554099D01*
X-3258908Y14436288D01*
X-3091460Y14573785D01*
X-3091460Y15295100D01*
X-2683460Y15295100D01*
X-2683460Y14573785D01*
X-2516012Y14436288D01*
X-2116633Y14554099D01*
X-1792739Y14815778D01*
X-1619008Y15135210D01*
X-1716901Y15295100D01*
X-2683460Y15295100D01*
X-3091460Y15295100D01*
X-3111460Y15295100D01*
X-3111460Y15703100D01*
X-3091460Y15703100D01*
X-3091460Y16424415D01*
X-3258908Y16561912D01*
X-3658287Y16444101D01*
X-3982181Y16182422D01*
X-4105000Y15956600D01*
X-4105000Y20610093D01*
X-1420460Y20610093D01*
X-1420460Y20538600D01*
X-1280960Y20399100D01*
X-582206Y20399100D01*
X-547363Y20380824D01*
X-518400Y20399100D01*
X-391460Y20399100D01*
X-391460Y21295100D01*
X16540Y21295100D01*
X16540Y20399100D01*
X143480Y20399100D01*
X172443Y20380824D01*
X207286Y20399100D01*
X906040Y20399100D01*
X1045540Y20538600D01*
X1045540Y20610093D01*
X960589Y20815182D01*
X803622Y20972150D01*
X757345Y20991319D01*
X819100Y21135003D01*
X700700Y21295100D01*
X16540Y21295100D01*
X-391460Y21295100D01*
X-1075620Y21295100D01*
X-1194020Y21135003D01*
X-1132265Y20991319D01*
X-1178542Y20972150D01*
X-1335509Y20815182D01*
X-1420460Y20610093D01*
X-4105000Y20610093D01*
X-4105000Y22041600D01*
X-3982181Y21815778D01*
X-3658287Y21554099D01*
X-3258908Y21436288D01*
X-3091460Y21573785D01*
X-3091460Y22295100D01*
X-2683460Y22295100D01*
X-2683460Y21573785D01*
X-2516012Y21436288D01*
X-2116633Y21554099D01*
X-1792739Y21815778D01*
X-1766950Y21863197D01*
X-1194020Y21863197D01*
X-1075620Y21703100D01*
X-391460Y21703100D01*
X-391460Y22519000D01*
X-547363Y22617376D01*
X-747816Y22512235D01*
X-1035469Y22232094D01*
X-1194020Y21863197D01*
X-1766950Y21863197D01*
X-1619008Y22135210D01*
X-1716901Y22295100D01*
X-2683460Y22295100D01*
X-3091460Y22295100D01*
X-3111460Y22295100D01*
X-3111460Y22703100D01*
X-3091460Y22703100D01*
X-3091460Y23424415D01*
X-2683460Y23424415D01*
X-2683460Y22703100D01*
X-1716901Y22703100D01*
X-1619008Y22862990D01*
X-1792739Y23182422D01*
X-2116633Y23444101D01*
X-2516012Y23561912D01*
X-2683460Y23424415D01*
X-3091460Y23424415D01*
X-3258908Y23561912D01*
X-3658287Y23444101D01*
X-3982181Y23182422D01*
X-4105000Y22956600D01*
X-4105000Y24382954D01*
X-4009073Y24343220D01*
X-3838190Y24343220D01*
X-3698690Y24482720D01*
X-3698690Y25100610D01*
X-3723300Y25100610D01*
X-3723300Y25499390D01*
X-3698690Y25499390D01*
X-3698690Y26117280D01*
X-3838190Y26256780D01*
X-4009073Y26256780D01*
X-4105000Y26217046D01*
X-4105000Y27422954D01*
X-4009073Y27383220D01*
X-3838190Y27383220D01*
X-3698690Y27522720D01*
X-3698690Y28140610D01*
X-3723300Y28140610D01*
X-3723300Y28539390D01*
X-3698690Y28539390D01*
X-3698690Y29157280D01*
X-3838190Y29296780D01*
X-4009073Y29296780D01*
X-4105000Y29257046D01*
X-4105000Y30912843D01*
X3551844Y30912843D01*
X3551844Y30753850D01*
X3636795Y30548761D01*
X3793762Y30391793D01*
X3998851Y30306843D01*
X4170344Y30306843D01*
X4309844Y30446343D01*
X4309844Y31052343D01*
X3691344Y31052343D01*
X3551844Y30912843D01*
X-4105000Y30912843D01*
X-4105000Y32342941D01*
X-4000260Y32342941D01*
X-3772380Y31791428D01*
X-3350791Y31369103D01*
X-2799677Y31140261D01*
X-2202941Y31139740D01*
X-1934068Y31250836D01*
X1851844Y31250836D01*
X1851844Y31129343D01*
X1991344Y30989843D01*
X2534844Y30989843D01*
X2534844Y31558343D01*
X2784844Y31558343D01*
X2784844Y30989843D01*
X3328344Y30989843D01*
X3467844Y31129343D01*
X3467844Y31250836D01*
X3382894Y31455925D01*
X3225926Y31612892D01*
X3020837Y31697843D01*
X2924344Y31697843D01*
X2784844Y31558343D01*
X2534844Y31558343D01*
X2395344Y31697843D01*
X2298851Y31697843D01*
X2093762Y31612892D01*
X1936794Y31455925D01*
X1851844Y31250836D01*
X-1934068Y31250836D01*
X-1651428Y31367620D01*
X-1292587Y31725836D01*
X3551844Y31725836D01*
X3551844Y31566843D01*
X3691344Y31427343D01*
X4309844Y31427343D01*
X4309844Y32033343D01*
X4170344Y32172843D01*
X3998851Y32172843D01*
X3793762Y32087893D01*
X3636795Y31930925D01*
X3551844Y31725836D01*
X-1292587Y31725836D01*
X-1229103Y31789209D01*
X-1000261Y32340323D01*
X-999740Y32937059D01*
X-1227620Y33488572D01*
X-1649209Y33910897D01*
X-2200323Y34139739D01*
X-2797059Y34140260D01*
X-3348572Y33912380D01*
X-3770897Y33490791D01*
X-3999739Y32939677D01*
X-4000260Y32342941D01*
X-4105000Y32342941D01*
X-4105000Y34560000D01*
X5053569Y34560000D01*
X5051844Y34555836D01*
G36*
X17690000Y940068D02*
X17690000Y-5700260D01*
X16379844Y-5700260D01*
X16287200Y-5717692D01*
X16202112Y-5772445D01*
X16145029Y-5855988D01*
X16124947Y-5955157D01*
X16124947Y-9355157D01*
X16142379Y-9447801D01*
X16197132Y-9532889D01*
X16280675Y-9589972D01*
X16354886Y-9605000D01*
X11206704Y-9605000D01*
X11272488Y-9592622D01*
X11357576Y-9537869D01*
X11414659Y-9454326D01*
X11434741Y-9355157D01*
X11434741Y-5955157D01*
X11417309Y-5862513D01*
X11362556Y-5777425D01*
X11315331Y-5745157D01*
X14854844Y-5745157D01*
X15007918Y-5714709D01*
X15137687Y-5628000D01*
X16087687Y-4678000D01*
X16174396Y-4548231D01*
X16204844Y-4395157D01*
X16204844Y319946D01*
X16209844Y319946D01*
X16302488Y337378D01*
X16387576Y392131D01*
X16444659Y475674D01*
X16464741Y574843D01*
X16464741Y1324843D01*
X16447309Y1417487D01*
X16392556Y1502575D01*
X16309013Y1559658D01*
X16283701Y1564784D01*
X16297488Y1567378D01*
X16382576Y1622131D01*
X16439659Y1705674D01*
X16459741Y1804843D01*
X16459741Y2554843D01*
X16442309Y2647487D01*
X16387556Y2732575D01*
X16304013Y2789658D01*
X16226477Y2805359D01*
X16396748Y2975334D01*
X16498827Y3221167D01*
X16499059Y3487351D01*
X16397410Y3733362D01*
X16209353Y3921747D01*
X15963520Y4023826D01*
X15697336Y4024058D01*
X15451325Y3922409D01*
X15262940Y3734352D01*
X15160861Y3488519D01*
X15160629Y3222335D01*
X15262278Y2976324D01*
X15404844Y2833509D01*
X15404844Y2809740D01*
X15312200Y2792308D01*
X15231869Y2740616D01*
X15177893Y2870925D01*
X15020926Y3027893D01*
X14815837Y3112843D01*
X14644344Y3112843D01*
X14504844Y2973343D01*
X14504844Y2367343D01*
X14528844Y2367343D01*
X14528844Y1992343D01*
X14504844Y1992343D01*
X14504844Y1386343D01*
X14509844Y1381343D01*
X14509844Y1137343D01*
X14533844Y1137343D01*
X14533844Y762343D01*
X14509844Y762343D01*
X14509844Y156343D01*
X14649344Y16843D01*
X14820837Y16843D01*
X15025926Y101793D01*
X15182893Y258761D01*
X15237317Y390152D01*
X15310675Y340028D01*
X15404844Y320959D01*
X15404844Y-137992D01*
X15379013Y-120342D01*
X15279844Y-100260D01*
X14279844Y-100260D01*
X14187200Y-117692D01*
X14102112Y-172445D01*
X14045029Y-255988D01*
X14024947Y-355157D01*
X14024947Y-3855157D01*
X14042379Y-3947801D01*
X14097132Y-4032889D01*
X14180675Y-4089972D01*
X14279844Y-4110054D01*
X14379844Y-4110054D01*
X14379844Y-4124472D01*
X14124158Y-4380157D01*
X13470507Y-4380157D01*
X13595926Y-4328207D01*
X13752893Y-4171239D01*
X13837844Y-3966150D01*
X13837844Y-2448657D01*
X13698344Y-2309157D01*
X12983844Y-2309157D01*
X12983844Y-2329157D01*
X12575844Y-2329157D01*
X12575844Y-2309157D01*
X11861344Y-2309157D01*
X11721844Y-2448657D01*
X11721844Y-3966150D01*
X11792782Y-4137409D01*
X10672687Y-3017314D01*
X10672684Y-3017312D01*
X9522687Y-1867314D01*
X9392918Y-1780605D01*
X9239844Y-1750157D01*
X8809741Y-1750157D01*
X8809741Y-1650157D01*
X8807483Y-1638157D01*
X8827844Y-1638157D01*
X8967344Y-1498657D01*
X8967344Y-754157D01*
X8905844Y-754157D01*
X8905844Y-346157D01*
X8967344Y-346157D01*
X8967344Y398343D01*
X9292344Y398343D01*
X9292344Y-346157D01*
X9353844Y-346157D01*
X9353844Y-754157D01*
X9292344Y-754157D01*
X9292344Y-1498657D01*
X9431844Y-1638157D01*
X9565837Y-1638157D01*
X9770926Y-1553206D01*
X9927894Y-1396239D01*
X9953237Y-1335054D01*
X10404844Y-1335054D01*
X10497488Y-1317622D01*
X10582576Y-1262869D01*
X10639659Y-1179326D01*
X10659741Y-1080157D01*
X10659741Y-877157D01*
X10710991Y-877157D01*
X10732278Y-928676D01*
X10920335Y-1117061D01*
X11166168Y-1219140D01*
X11432352Y-1219372D01*
X11678363Y-1117723D01*
X11721844Y-1074318D01*
X11721844Y-1761657D01*
X11861344Y-1901157D01*
X12575844Y-1901157D01*
X12575844Y63343D01*
X12983844Y63343D01*
X12983844Y-1901157D01*
X13698344Y-1901157D01*
X13837844Y-1761657D01*
X13837844Y-244164D01*
X13752893Y-39075D01*
X13624940Y88879D01*
X13798851Y16843D01*
X13970344Y16843D01*
X14109844Y156343D01*
X14109844Y762343D01*
X13491344Y762343D01*
X13351844Y622843D01*
X13351844Y463850D01*
X13436795Y258761D01*
X13564748Y130807D01*
X13390837Y202843D01*
X13123344Y202843D01*
X12983844Y63343D01*
X12575844Y63343D01*
X12436344Y202843D01*
X12168851Y202843D01*
X11963762Y117893D01*
X11806795Y-39075D01*
X11785764Y-89849D01*
X11679353Y16747D01*
X11433520Y118826D01*
X11167336Y119058D01*
X10921325Y17409D01*
X10732940Y-170648D01*
X10711136Y-223157D01*
X10659741Y-223157D01*
X10659741Y-20157D01*
X10642309Y72487D01*
X10587556Y157575D01*
X10504013Y214658D01*
X10404844Y234740D01*
X9953237Y234740D01*
X9927894Y295925D01*
X9770926Y452892D01*
X9565837Y537843D01*
X9431844Y537843D01*
X9292344Y398343D01*
X8967344Y398343D01*
X8827844Y537843D01*
X8693851Y537843D01*
X8488762Y452892D01*
X8331794Y295925D01*
X8306451Y234740D01*
X7854844Y234740D01*
X7762200Y217308D01*
X7677112Y162555D01*
X7620029Y79012D01*
X7615625Y57262D01*
X7607894Y75925D01*
X7450926Y232892D01*
X7319535Y287316D01*
X7369659Y360674D01*
X7389741Y459843D01*
X7389741Y463801D01*
X7522918Y490291D01*
X7652687Y577000D01*
X7762684Y686998D01*
X7762687Y687000D01*
X7849396Y816770D01*
X7858979Y864946D01*
X8504844Y864946D01*
X8597488Y882378D01*
X8682576Y937131D01*
X8739659Y1020674D01*
X8759741Y1119843D01*
X8759741Y1251812D01*
X8902918Y1280291D01*
X9032687Y1367000D01*
X9392687Y1727000D01*
X9479396Y1856769D01*
X9499947Y1960087D01*
X9499947Y1119843D01*
X9517379Y1027199D01*
X9572132Y942111D01*
X9655675Y885028D01*
X9754844Y864946D01*
X10404844Y864946D01*
X10497488Y882378D01*
X10582576Y937131D01*
X10639659Y1020674D01*
X10659741Y1119843D01*
X10659741Y1141143D01*
X10724707Y1097734D01*
X10849844Y1072843D01*
X10964487Y1072843D01*
X10997132Y1022111D01*
X11080675Y965028D01*
X11179844Y944946D01*
X11779844Y944946D01*
X11872488Y962378D01*
X11957576Y1017131D01*
X12014659Y1100674D01*
X12034741Y1199843D01*
X12034741Y1599843D01*
X12034460Y1601334D01*
X12095926Y1626794D01*
X12252894Y1783761D01*
X12281508Y1852843D01*
X13346844Y1852843D01*
X13346844Y1693850D01*
X13402781Y1558807D01*
X13351844Y1435836D01*
X13351844Y1276843D01*
X13491344Y1137343D01*
X14109844Y1137343D01*
X14109844Y1743343D01*
X14104844Y1748343D01*
X14104844Y1992343D01*
X13486344Y1992343D01*
X13346844Y1852843D01*
X12281508Y1852843D01*
X12337844Y1988850D01*
X12337844Y2060343D01*
X12198344Y2199843D01*
X11629844Y2199843D01*
X11629844Y2099843D01*
X11329844Y2099843D01*
X11329844Y2199843D01*
X11255844Y2199843D01*
X11255844Y2399843D01*
X11329844Y2399843D01*
X11329844Y2499843D01*
X11629844Y2499843D01*
X11629844Y2399843D01*
X12198344Y2399843D01*
X12337844Y2539343D01*
X12337844Y2610836D01*
X12316716Y2661843D01*
X12473846Y2661843D01*
X12473846Y2747341D01*
X12559344Y2661843D01*
X12680837Y2661843D01*
X12690477Y2665836D01*
X13346844Y2665836D01*
X13346844Y2506843D01*
X13486344Y2367343D01*
X14104844Y2367343D01*
X14104844Y2973343D01*
X13965344Y3112843D01*
X13793851Y3112843D01*
X13588762Y3027893D01*
X13431795Y2870925D01*
X13346844Y2665836D01*
X12690477Y2665836D01*
X12885926Y2746793D01*
X13042893Y2903761D01*
X13127844Y3108850D01*
X13127844Y3205343D01*
X12988344Y3344843D01*
X12419844Y3344843D01*
X12419844Y3245843D01*
X12119844Y3245843D01*
X12119844Y3344843D01*
X12045844Y3344843D01*
X12045844Y3594843D01*
X12119844Y3594843D01*
X12119844Y3693843D01*
X12419844Y3693843D01*
X12419844Y3594843D01*
X12988344Y3594843D01*
X13127844Y3734343D01*
X13127844Y3830836D01*
X13042893Y4035925D01*
X12885926Y4192893D01*
X12838305Y4212618D01*
X13277814Y4652127D01*
X13282278Y4641324D01*
X13470335Y4452939D01*
X13716168Y4350860D01*
X13982352Y4350628D01*
X14030710Y4370609D01*
X14030629Y4277335D01*
X14132278Y4031324D01*
X14320335Y3842939D01*
X14566168Y3740860D01*
X14832352Y3740628D01*
X15078363Y3842277D01*
X15266748Y4030334D01*
X15368827Y4276167D01*
X15369059Y4542351D01*
X15267410Y4788362D01*
X15079353Y4976747D01*
X15026844Y4998551D01*
X15026844Y5304395D01*
X17699587Y7977138D01*
X17690000Y940068D01*
X17690000Y940068D01*
G37*
X17690000Y940068D02*
X17690000Y-5700260D01*
X16379844Y-5700260D01*
X16287200Y-5717692D01*
X16202112Y-5772445D01*
X16145029Y-5855988D01*
X16124947Y-5955157D01*
X16124947Y-9355157D01*
X16142379Y-9447801D01*
X16197132Y-9532889D01*
X16280675Y-9589972D01*
X16354886Y-9605000D01*
X11206704Y-9605000D01*
X11272488Y-9592622D01*
X11357576Y-9537869D01*
X11414659Y-9454326D01*
X11434741Y-9355157D01*
X11434741Y-5955157D01*
X11417309Y-5862513D01*
X11362556Y-5777425D01*
X11315331Y-5745157D01*
X14854844Y-5745157D01*
X15007918Y-5714709D01*
X15137687Y-5628000D01*
X16087687Y-4678000D01*
X16174396Y-4548231D01*
X16204844Y-4395157D01*
X16204844Y319946D01*
X16209844Y319946D01*
X16302488Y337378D01*
X16387576Y392131D01*
X16444659Y475674D01*
X16464741Y574843D01*
X16464741Y1324843D01*
X16447309Y1417487D01*
X16392556Y1502575D01*
X16309013Y1559658D01*
X16283701Y1564784D01*
X16297488Y1567378D01*
X16382576Y1622131D01*
X16439659Y1705674D01*
X16459741Y1804843D01*
X16459741Y2554843D01*
X16442309Y2647487D01*
X16387556Y2732575D01*
X16304013Y2789658D01*
X16226477Y2805359D01*
X16396748Y2975334D01*
X16498827Y3221167D01*
X16499059Y3487351D01*
X16397410Y3733362D01*
X16209353Y3921747D01*
X15963520Y4023826D01*
X15697336Y4024058D01*
X15451325Y3922409D01*
X15262940Y3734352D01*
X15160861Y3488519D01*
X15160629Y3222335D01*
X15262278Y2976324D01*
X15404844Y2833509D01*
X15404844Y2809740D01*
X15312200Y2792308D01*
X15231869Y2740616D01*
X15177893Y2870925D01*
X15020926Y3027893D01*
X14815837Y3112843D01*
X14644344Y3112843D01*
X14504844Y2973343D01*
X14504844Y2367343D01*
X14528844Y2367343D01*
X14528844Y1992343D01*
X14504844Y1992343D01*
X14504844Y1386343D01*
X14509844Y1381343D01*
X14509844Y1137343D01*
X14533844Y1137343D01*
X14533844Y762343D01*
X14509844Y762343D01*
X14509844Y156343D01*
X14649344Y16843D01*
X14820837Y16843D01*
X15025926Y101793D01*
X15182893Y258761D01*
X15237317Y390152D01*
X15310675Y340028D01*
X15404844Y320959D01*
X15404844Y-137992D01*
X15379013Y-120342D01*
X15279844Y-100260D01*
X14279844Y-100260D01*
X14187200Y-117692D01*
X14102112Y-172445D01*
X14045029Y-255988D01*
X14024947Y-355157D01*
X14024947Y-3855157D01*
X14042379Y-3947801D01*
X14097132Y-4032889D01*
X14180675Y-4089972D01*
X14279844Y-4110054D01*
X14379844Y-4110054D01*
X14379844Y-4124472D01*
X14124158Y-4380157D01*
X13470507Y-4380157D01*
X13595926Y-4328207D01*
X13752893Y-4171239D01*
X13837844Y-3966150D01*
X13837844Y-2448657D01*
X13698344Y-2309157D01*
X12983844Y-2309157D01*
X12983844Y-2329157D01*
X12575844Y-2329157D01*
X12575844Y-2309157D01*
X11861344Y-2309157D01*
X11721844Y-2448657D01*
X11721844Y-3966150D01*
X11792782Y-4137409D01*
X10672687Y-3017314D01*
X10672684Y-3017312D01*
X9522687Y-1867314D01*
X9392918Y-1780605D01*
X9239844Y-1750157D01*
X8809741Y-1750157D01*
X8809741Y-1650157D01*
X8807483Y-1638157D01*
X8827844Y-1638157D01*
X8967344Y-1498657D01*
X8967344Y-754157D01*
X8905844Y-754157D01*
X8905844Y-346157D01*
X8967344Y-346157D01*
X8967344Y398343D01*
X9292344Y398343D01*
X9292344Y-346157D01*
X9353844Y-346157D01*
X9353844Y-754157D01*
X9292344Y-754157D01*
X9292344Y-1498657D01*
X9431844Y-1638157D01*
X9565837Y-1638157D01*
X9770926Y-1553206D01*
X9927894Y-1396239D01*
X9953237Y-1335054D01*
X10404844Y-1335054D01*
X10497488Y-1317622D01*
X10582576Y-1262869D01*
X10639659Y-1179326D01*
X10659741Y-1080157D01*
X10659741Y-877157D01*
X10710991Y-877157D01*
X10732278Y-928676D01*
X10920335Y-1117061D01*
X11166168Y-1219140D01*
X11432352Y-1219372D01*
X11678363Y-1117723D01*
X11721844Y-1074318D01*
X11721844Y-1761657D01*
X11861344Y-1901157D01*
X12575844Y-1901157D01*
X12575844Y63343D01*
X12983844Y63343D01*
X12983844Y-1901157D01*
X13698344Y-1901157D01*
X13837844Y-1761657D01*
X13837844Y-244164D01*
X13752893Y-39075D01*
X13624940Y88879D01*
X13798851Y16843D01*
X13970344Y16843D01*
X14109844Y156343D01*
X14109844Y762343D01*
X13491344Y762343D01*
X13351844Y622843D01*
X13351844Y463850D01*
X13436795Y258761D01*
X13564748Y130807D01*
X13390837Y202843D01*
X13123344Y202843D01*
X12983844Y63343D01*
X12575844Y63343D01*
X12436344Y202843D01*
X12168851Y202843D01*
X11963762Y117893D01*
X11806795Y-39075D01*
X11785764Y-89849D01*
X11679353Y16747D01*
X11433520Y118826D01*
X11167336Y119058D01*
X10921325Y17409D01*
X10732940Y-170648D01*
X10711136Y-223157D01*
X10659741Y-223157D01*
X10659741Y-20157D01*
X10642309Y72487D01*
X10587556Y157575D01*
X10504013Y214658D01*
X10404844Y234740D01*
X9953237Y234740D01*
X9927894Y295925D01*
X9770926Y452892D01*
X9565837Y537843D01*
X9431844Y537843D01*
X9292344Y398343D01*
X8967344Y398343D01*
X8827844Y537843D01*
X8693851Y537843D01*
X8488762Y452892D01*
X8331794Y295925D01*
X8306451Y234740D01*
X7854844Y234740D01*
X7762200Y217308D01*
X7677112Y162555D01*
X7620029Y79012D01*
X7615625Y57262D01*
X7607894Y75925D01*
X7450926Y232892D01*
X7319535Y287316D01*
X7369659Y360674D01*
X7389741Y459843D01*
X7389741Y463801D01*
X7522918Y490291D01*
X7652687Y577000D01*
X7762684Y686998D01*
X7762687Y687000D01*
X7849396Y816770D01*
X7858979Y864946D01*
X8504844Y864946D01*
X8597488Y882378D01*
X8682576Y937131D01*
X8739659Y1020674D01*
X8759741Y1119843D01*
X8759741Y1251812D01*
X8902918Y1280291D01*
X9032687Y1367000D01*
X9392687Y1727000D01*
X9479396Y1856769D01*
X9499947Y1960087D01*
X9499947Y1119843D01*
X9517379Y1027199D01*
X9572132Y942111D01*
X9655675Y885028D01*
X9754844Y864946D01*
X10404844Y864946D01*
X10497488Y882378D01*
X10582576Y937131D01*
X10639659Y1020674D01*
X10659741Y1119843D01*
X10659741Y1141143D01*
X10724707Y1097734D01*
X10849844Y1072843D01*
X10964487Y1072843D01*
X10997132Y1022111D01*
X11080675Y965028D01*
X11179844Y944946D01*
X11779844Y944946D01*
X11872488Y962378D01*
X11957576Y1017131D01*
X12014659Y1100674D01*
X12034741Y1199843D01*
X12034741Y1599843D01*
X12034460Y1601334D01*
X12095926Y1626794D01*
X12252894Y1783761D01*
X12281508Y1852843D01*
X13346844Y1852843D01*
X13346844Y1693850D01*
X13402781Y1558807D01*
X13351844Y1435836D01*
X13351844Y1276843D01*
X13491344Y1137343D01*
X14109844Y1137343D01*
X14109844Y1743343D01*
X14104844Y1748343D01*
X14104844Y1992343D01*
X13486344Y1992343D01*
X13346844Y1852843D01*
X12281508Y1852843D01*
X12337844Y1988850D01*
X12337844Y2060343D01*
X12198344Y2199843D01*
X11629844Y2199843D01*
X11629844Y2099843D01*
X11329844Y2099843D01*
X11329844Y2199843D01*
X11255844Y2199843D01*
X11255844Y2399843D01*
X11329844Y2399843D01*
X11329844Y2499843D01*
X11629844Y2499843D01*
X11629844Y2399843D01*
X12198344Y2399843D01*
X12337844Y2539343D01*
X12337844Y2610836D01*
X12316716Y2661843D01*
X12473846Y2661843D01*
X12473846Y2747341D01*
X12559344Y2661843D01*
X12680837Y2661843D01*
X12690477Y2665836D01*
X13346844Y2665836D01*
X13346844Y2506843D01*
X13486344Y2367343D01*
X14104844Y2367343D01*
X14104844Y2973343D01*
X13965344Y3112843D01*
X13793851Y3112843D01*
X13588762Y3027893D01*
X13431795Y2870925D01*
X13346844Y2665836D01*
X12690477Y2665836D01*
X12885926Y2746793D01*
X13042893Y2903761D01*
X13127844Y3108850D01*
X13127844Y3205343D01*
X12988344Y3344843D01*
X12419844Y3344843D01*
X12419844Y3245843D01*
X12119844Y3245843D01*
X12119844Y3344843D01*
X12045844Y3344843D01*
X12045844Y3594843D01*
X12119844Y3594843D01*
X12119844Y3693843D01*
X12419844Y3693843D01*
X12419844Y3594843D01*
X12988344Y3594843D01*
X13127844Y3734343D01*
X13127844Y3830836D01*
X13042893Y4035925D01*
X12885926Y4192893D01*
X12838305Y4212618D01*
X13277814Y4652127D01*
X13282278Y4641324D01*
X13470335Y4452939D01*
X13716168Y4350860D01*
X13982352Y4350628D01*
X14030710Y4370609D01*
X14030629Y4277335D01*
X14132278Y4031324D01*
X14320335Y3842939D01*
X14566168Y3740860D01*
X14832352Y3740628D01*
X15078363Y3842277D01*
X15266748Y4030334D01*
X15368827Y4276167D01*
X15369059Y4542351D01*
X15267410Y4788362D01*
X15079353Y4976747D01*
X15026844Y4998551D01*
X15026844Y5304395D01*
X17699587Y7977138D01*
X17690000Y940068D01*
G36*
X630675Y-5014972D02*
X729844Y-5035054D01*
X1329844Y-5035054D01*
X1379414Y-5025727D01*
X1501344Y-5147657D01*
X2140844Y-5147657D01*
X2140844Y-5060157D01*
X2436844Y-5060157D01*
X2436844Y-5114159D01*
X2548844Y-5114159D01*
X2548844Y-5141657D01*
X2436844Y-5253657D01*
X2436844Y-5410157D01*
X2140844Y-5410157D01*
X2140844Y-5322657D01*
X1501344Y-5322657D01*
X1361844Y-5462157D01*
X1361844Y-5521150D01*
X1446794Y-5726239D01*
X1603762Y-5883206D01*
X1664947Y-5908550D01*
X1664947Y-6060157D01*
X1682379Y-6152801D01*
X1737132Y-6237889D01*
X1820675Y-6294972D01*
X1919844Y-6315054D01*
X2475740Y-6315054D01*
X2521794Y-6426239D01*
X2555712Y-6460157D01*
X-74471Y-6460157D01*
X-388063Y-6146564D01*
X-330156Y-6088657D01*
X-330156Y-5570157D01*
X-30156Y-5570157D01*
X-30156Y-6088657D01*
X109344Y-6228157D01*
X230837Y-6228157D01*
X435926Y-6143206D01*
X592894Y-5986239D01*
X677844Y-5781150D01*
X677844Y-5709657D01*
X538344Y-5570157D01*
X-30156Y-5570157D01*
X-330156Y-5570157D01*
X-404156Y-5570157D01*
X-404156Y-5370157D01*
X-330156Y-5370157D01*
X-330156Y-5270157D01*
X-30156Y-5270157D01*
X-30156Y-5370157D01*
X538344Y-5370157D01*
X677844Y-5230657D01*
X677844Y-5159164D01*
X613161Y-5003005D01*
X630675Y-5014972D01*
X630675Y-5014972D01*
G37*
X630675Y-5014972D02*
X729844Y-5035054D01*
X1329844Y-5035054D01*
X1379414Y-5025727D01*
X1501344Y-5147657D01*
X2140844Y-5147657D01*
X2140844Y-5060157D01*
X2436844Y-5060157D01*
X2436844Y-5114159D01*
X2548844Y-5114159D01*
X2548844Y-5141657D01*
X2436844Y-5253657D01*
X2436844Y-5410157D01*
X2140844Y-5410157D01*
X2140844Y-5322657D01*
X1501344Y-5322657D01*
X1361844Y-5462157D01*
X1361844Y-5521150D01*
X1446794Y-5726239D01*
X1603762Y-5883206D01*
X1664947Y-5908550D01*
X1664947Y-6060157D01*
X1682379Y-6152801D01*
X1737132Y-6237889D01*
X1820675Y-6294972D01*
X1919844Y-6315054D01*
X2475740Y-6315054D01*
X2521794Y-6426239D01*
X2555712Y-6460157D01*
X-74471Y-6460157D01*
X-388063Y-6146564D01*
X-330156Y-6088657D01*
X-330156Y-5570157D01*
X-30156Y-5570157D01*
X-30156Y-6088657D01*
X109344Y-6228157D01*
X230837Y-6228157D01*
X435926Y-6143206D01*
X592894Y-5986239D01*
X677844Y-5781150D01*
X677844Y-5709657D01*
X538344Y-5570157D01*
X-30156Y-5570157D01*
X-330156Y-5570157D01*
X-404156Y-5570157D01*
X-404156Y-5370157D01*
X-330156Y-5370157D01*
X-330156Y-5270157D01*
X-30156Y-5270157D01*
X-30156Y-5370157D01*
X538344Y-5370157D01*
X677844Y-5230657D01*
X677844Y-5159164D01*
X613161Y-5003005D01*
X630675Y-5014972D01*
G36*
X10066725Y-3542724D02*
X10107001Y-3603000D01*
X10167275Y-3643274D01*
X11469158Y-4945157D01*
X9164844Y-4945157D01*
X9011770Y-4975605D01*
X8882001Y-5062314D01*
X8836658Y-5107657D01*
X8539844Y-5107657D01*
X8539844Y-5144157D01*
X8139844Y-5144157D01*
X8139844Y-5107657D01*
X8115844Y-5107657D01*
X8115844Y-4732657D01*
X8139844Y-4732657D01*
X8139844Y-4126657D01*
X8000344Y-3987157D01*
X7992344Y-3987157D01*
X7992344Y-3750157D01*
X8367344Y-3750157D01*
X8367344Y-4368657D01*
X8506844Y-4508157D01*
X8539844Y-4508157D01*
X8539844Y-4732657D01*
X9158344Y-4732657D01*
X9297844Y-4593157D01*
X9297844Y-4434164D01*
X9212893Y-4229075D01*
X9092964Y-4109145D01*
X9112844Y-4061150D01*
X9112844Y-3889657D01*
X8973344Y-3750157D01*
X8367344Y-3750157D01*
X7992344Y-3750157D01*
X7955844Y-3750157D01*
X7955844Y-3350157D01*
X7992344Y-3350157D01*
X7992344Y-3326157D01*
X8367344Y-3326157D01*
X8367344Y-3350157D01*
X8973344Y-3350157D01*
X9112844Y-3210657D01*
X9112844Y-3039164D01*
X9027894Y-2834075D01*
X8870926Y-2677108D01*
X8739535Y-2622684D01*
X8789091Y-2550157D01*
X9074158Y-2550157D01*
X10066725Y-3542724D01*
X10066725Y-3542724D01*
G37*
X10066725Y-3542724D02*
X10107001Y-3603000D01*
X10167275Y-3643274D01*
X11469158Y-4945157D01*
X9164844Y-4945157D01*
X9011770Y-4975605D01*
X8882001Y-5062314D01*
X8836658Y-5107657D01*
X8539844Y-5107657D01*
X8539844Y-5144157D01*
X8139844Y-5144157D01*
X8139844Y-5107657D01*
X8115844Y-5107657D01*
X8115844Y-4732657D01*
X8139844Y-4732657D01*
X8139844Y-4126657D01*
X8000344Y-3987157D01*
X7992344Y-3987157D01*
X7992344Y-3750157D01*
X8367344Y-3750157D01*
X8367344Y-4368657D01*
X8506844Y-4508157D01*
X8539844Y-4508157D01*
X8539844Y-4732657D01*
X9158344Y-4732657D01*
X9297844Y-4593157D01*
X9297844Y-4434164D01*
X9212893Y-4229075D01*
X9092964Y-4109145D01*
X9112844Y-4061150D01*
X9112844Y-3889657D01*
X8973344Y-3750157D01*
X8367344Y-3750157D01*
X7992344Y-3750157D01*
X7955844Y-3750157D01*
X7955844Y-3350157D01*
X7992344Y-3350157D01*
X7992344Y-3326157D01*
X8367344Y-3326157D01*
X8367344Y-3350157D01*
X8973344Y-3350157D01*
X9112844Y-3210657D01*
X9112844Y-3039164D01*
X9027894Y-2834075D01*
X8870926Y-2677108D01*
X8739535Y-2622684D01*
X8789091Y-2550157D01*
X9074158Y-2550157D01*
X10066725Y-3542724D01*
G36*
X4023844Y-4706157D02*
X4043844Y-4706157D01*
X4043844Y-5114157D01*
X4023844Y-5114157D01*
X4023844Y-5134157D01*
X3615844Y-5134157D01*
X3615844Y-5114157D01*
X3595844Y-5114157D01*
X3595844Y-4706157D01*
X3615844Y-4706157D01*
X3615844Y-4686157D01*
X4023844Y-4686157D01*
X4023844Y-4706157D01*
X4023844Y-4706157D01*
G37*
X4023844Y-4706157D02*
X4043844Y-4706157D01*
X4043844Y-5114157D01*
X4023844Y-5114157D01*
X4023844Y-5134157D01*
X3615844Y-5134157D01*
X3615844Y-5114157D01*
X3595844Y-5114157D01*
X3595844Y-4706157D01*
X3615844Y-4706157D01*
X3615844Y-4686157D01*
X4023844Y-4686157D01*
X4023844Y-4706157D01*
G36*
X5498844Y-3847657D02*
X5518844Y-3847657D01*
X5518844Y-4022657D01*
X5498844Y-4022657D01*
X5498844Y-4110157D01*
X5202844Y-4110157D01*
X5202844Y-3760157D01*
X5498844Y-3760157D01*
X5498844Y-3847657D01*
X5498844Y-3847657D01*
G37*
X5498844Y-3847657D02*
X5518844Y-3847657D01*
X5518844Y-4022657D01*
X5498844Y-4022657D01*
X5498844Y-4110157D01*
X5202844Y-4110157D01*
X5202844Y-3760157D01*
X5498844Y-3760157D01*
X5498844Y-3847657D01*
G36*
X6947344Y-440157D02*
X6983844Y-440157D01*
X6983844Y-840157D01*
X6947344Y-840157D01*
X6947344Y-1458657D01*
X7086844Y-1598157D01*
X7245837Y-1598157D01*
X7450926Y-1513206D01*
X7607894Y-1356239D01*
X7657835Y-1235671D01*
X7672132Y-1257889D01*
X7755675Y-1314972D01*
X7779844Y-1319866D01*
X7779844Y-1399964D01*
X7712200Y-1412692D01*
X7627112Y-1467445D01*
X7570029Y-1550988D01*
X7549947Y-1650157D01*
X7549947Y-2400082D01*
X7446771Y-2420605D01*
X7317001Y-2507314D01*
X7316999Y-2507317D01*
X6247766Y-3576549D01*
X6192894Y-3444075D01*
X6035926Y-3287108D01*
X5944400Y-3249197D01*
X6032488Y-3232622D01*
X6117576Y-3177869D01*
X6174659Y-3094326D01*
X6194741Y-2995157D01*
X6194741Y-2245157D01*
X6177309Y-2152513D01*
X6122556Y-2067425D01*
X6039013Y-2010342D01*
X5939844Y-1990260D01*
X5939844Y-1830157D01*
X5926532Y-1763231D01*
X5909396Y-1677083D01*
X5822687Y-1547314D01*
X5719844Y-1444471D01*
X5719844Y-1420054D01*
X5849844Y-1420054D01*
X5942488Y-1402622D01*
X5952034Y-1396479D01*
X6068762Y-1513206D01*
X6273851Y-1598157D01*
X6432844Y-1598157D01*
X6572344Y-1458657D01*
X6572344Y-840157D01*
X6535844Y-840157D01*
X6535844Y-440157D01*
X6572344Y-440157D01*
X6572344Y-416157D01*
X6947344Y-416157D01*
X6947344Y-440157D01*
X6947344Y-440157D01*
G37*
X6947344Y-440157D02*
X6983844Y-440157D01*
X6983844Y-840157D01*
X6947344Y-840157D01*
X6947344Y-1458657D01*
X7086844Y-1598157D01*
X7245837Y-1598157D01*
X7450926Y-1513206D01*
X7607894Y-1356239D01*
X7657835Y-1235671D01*
X7672132Y-1257889D01*
X7755675Y-1314972D01*
X7779844Y-1319866D01*
X7779844Y-1399964D01*
X7712200Y-1412692D01*
X7627112Y-1467445D01*
X7570029Y-1550988D01*
X7549947Y-1650157D01*
X7549947Y-2400082D01*
X7446771Y-2420605D01*
X7317001Y-2507314D01*
X7316999Y-2507317D01*
X6247766Y-3576549D01*
X6192894Y-3444075D01*
X6035926Y-3287108D01*
X5944400Y-3249197D01*
X6032488Y-3232622D01*
X6117576Y-3177869D01*
X6174659Y-3094326D01*
X6194741Y-2995157D01*
X6194741Y-2245157D01*
X6177309Y-2152513D01*
X6122556Y-2067425D01*
X6039013Y-2010342D01*
X5939844Y-1990260D01*
X5939844Y-1830157D01*
X5926532Y-1763231D01*
X5909396Y-1677083D01*
X5822687Y-1547314D01*
X5719844Y-1444471D01*
X5719844Y-1420054D01*
X5849844Y-1420054D01*
X5942488Y-1402622D01*
X5952034Y-1396479D01*
X6068762Y-1513206D01*
X6273851Y-1598157D01*
X6432844Y-1598157D01*
X6572344Y-1458657D01*
X6572344Y-840157D01*
X6535844Y-840157D01*
X6535844Y-440157D01*
X6572344Y-440157D01*
X6572344Y-416157D01*
X6947344Y-416157D01*
X6947344Y-440157D01*
G36*
X4239844Y-2432657D02*
X4263844Y-2432657D01*
X4263844Y-2807657D01*
X4239844Y-2807657D01*
X4239844Y-2844157D01*
X3839844Y-2844157D01*
X3839844Y-2807657D01*
X3221344Y-2807657D01*
X3158844Y-2870157D01*
X2939844Y-2870157D01*
X2939844Y-2944157D01*
X2739844Y-2944157D01*
X2739844Y-2870157D01*
X2639844Y-2870157D01*
X2639844Y-2570157D01*
X2739844Y-2570157D01*
X2739844Y-2496157D01*
X2939844Y-2496157D01*
X2939844Y-2570157D01*
X3458344Y-2570157D01*
X3595844Y-2432657D01*
X3839844Y-2432657D01*
X3839844Y-2396157D01*
X4239844Y-2396157D01*
X4239844Y-2432657D01*
X4239844Y-2432657D01*
G37*
X4239844Y-2432657D02*
X4263844Y-2432657D01*
X4263844Y-2807657D01*
X4239844Y-2807657D01*
X4239844Y-2844157D01*
X3839844Y-2844157D01*
X3839844Y-2807657D01*
X3221344Y-2807657D01*
X3158844Y-2870157D01*
X2939844Y-2870157D01*
X2939844Y-2944157D01*
X2739844Y-2944157D01*
X2739844Y-2870157D01*
X2639844Y-2870157D01*
X2639844Y-2570157D01*
X2739844Y-2570157D01*
X2739844Y-2496157D01*
X2939844Y-2496157D01*
X2939844Y-2570157D01*
X3458344Y-2570157D01*
X3595844Y-2432657D01*
X3839844Y-2432657D01*
X3839844Y-2396157D01*
X4239844Y-2396157D01*
X4239844Y-2432657D01*
G36*
X4907001Y4227000D02*
X5036770Y4140291D01*
X5189844Y4109843D01*
X5959844Y4109843D01*
X6112918Y4140291D01*
X6242687Y4227000D01*
X6271450Y4255763D01*
X6170861Y4013519D01*
X6170629Y3747335D01*
X6262844Y3524156D01*
X6262844Y3519660D01*
X6197200Y3507308D01*
X6112112Y3452555D01*
X6055029Y3369012D01*
X6034947Y3269843D01*
X6034947Y2869843D01*
X6035228Y2868352D01*
X5973762Y2842892D01*
X5816794Y2685925D01*
X5731844Y2480836D01*
X5731844Y2409343D01*
X5871344Y2269843D01*
X6439844Y2269843D01*
X6439844Y2369843D01*
X6739844Y2369843D01*
X6739844Y2269843D01*
X7308344Y2269843D01*
X7447844Y2409343D01*
X7447844Y2480836D01*
X7362894Y2685925D01*
X7296579Y2752240D01*
X7365675Y2705028D01*
X7464844Y2684946D01*
X7916451Y2684946D01*
X7941794Y2623761D01*
X8098762Y2466794D01*
X8176147Y2434740D01*
X7854844Y2434740D01*
X7762200Y2417308D01*
X7677112Y2362555D01*
X7620029Y2279012D01*
X7599947Y2179843D01*
X7599947Y1981427D01*
X7527001Y1932686D01*
X7526999Y1932683D01*
X7444081Y1849765D01*
X7447844Y1858850D01*
X7447844Y1930343D01*
X7308344Y2069843D01*
X6739844Y2069843D01*
X6739844Y1969843D01*
X6439844Y1969843D01*
X6439844Y2069843D01*
X5871344Y2069843D01*
X5731844Y1930343D01*
X5731844Y1858850D01*
X5816794Y1653761D01*
X5830815Y1639740D01*
X5320970Y1639740D01*
X5325926Y1641793D01*
X5482893Y1798761D01*
X5567844Y2003850D01*
X5567844Y2162843D01*
X5428344Y2302343D01*
X4809844Y2302343D01*
X4809844Y2265843D01*
X4409844Y2265843D01*
X4409844Y2302343D01*
X4385844Y2302343D01*
X4385844Y2677343D01*
X4409844Y2677343D01*
X4409844Y3283343D01*
X4809844Y3283343D01*
X4809844Y2677343D01*
X5428344Y2677343D01*
X5567844Y2816843D01*
X5567844Y2975836D01*
X5482893Y3180925D01*
X5325926Y3337893D01*
X5120837Y3422843D01*
X4949344Y3422843D01*
X4809844Y3283343D01*
X4409844Y3283343D01*
X4270344Y3422843D01*
X4098851Y3422843D01*
X3893762Y3337893D01*
X3736795Y3180925D01*
X3682371Y3049534D01*
X3609013Y3099658D01*
X3509844Y3119740D01*
X3509844Y4170596D01*
X3510675Y4170028D01*
X3609844Y4149946D01*
X4199844Y4149946D01*
X4292488Y4167378D01*
X4377576Y4222131D01*
X4434659Y4305674D01*
X4454741Y4404843D01*
X4454741Y4679260D01*
X4907001Y4227000D01*
X4907001Y4227000D01*
G37*
X4907001Y4227000D02*
X5036770Y4140291D01*
X5189844Y4109843D01*
X5959844Y4109843D01*
X6112918Y4140291D01*
X6242687Y4227000D01*
X6271450Y4255763D01*
X6170861Y4013519D01*
X6170629Y3747335D01*
X6262844Y3524156D01*
X6262844Y3519660D01*
X6197200Y3507308D01*
X6112112Y3452555D01*
X6055029Y3369012D01*
X6034947Y3269843D01*
X6034947Y2869843D01*
X6035228Y2868352D01*
X5973762Y2842892D01*
X5816794Y2685925D01*
X5731844Y2480836D01*
X5731844Y2409343D01*
X5871344Y2269843D01*
X6439844Y2269843D01*
X6439844Y2369843D01*
X6739844Y2369843D01*
X6739844Y2269843D01*
X7308344Y2269843D01*
X7447844Y2409343D01*
X7447844Y2480836D01*
X7362894Y2685925D01*
X7296579Y2752240D01*
X7365675Y2705028D01*
X7464844Y2684946D01*
X7916451Y2684946D01*
X7941794Y2623761D01*
X8098762Y2466794D01*
X8176147Y2434740D01*
X7854844Y2434740D01*
X7762200Y2417308D01*
X7677112Y2362555D01*
X7620029Y2279012D01*
X7599947Y2179843D01*
X7599947Y1981427D01*
X7527001Y1932686D01*
X7526999Y1932683D01*
X7444081Y1849765D01*
X7447844Y1858850D01*
X7447844Y1930343D01*
X7308344Y2069843D01*
X6739844Y2069843D01*
X6739844Y1969843D01*
X6439844Y1969843D01*
X6439844Y2069843D01*
X5871344Y2069843D01*
X5731844Y1930343D01*
X5731844Y1858850D01*
X5816794Y1653761D01*
X5830815Y1639740D01*
X5320970Y1639740D01*
X5325926Y1641793D01*
X5482893Y1798761D01*
X5567844Y2003850D01*
X5567844Y2162843D01*
X5428344Y2302343D01*
X4809844Y2302343D01*
X4809844Y2265843D01*
X4409844Y2265843D01*
X4409844Y2302343D01*
X4385844Y2302343D01*
X4385844Y2677343D01*
X4409844Y2677343D01*
X4409844Y3283343D01*
X4809844Y3283343D01*
X4809844Y2677343D01*
X5428344Y2677343D01*
X5567844Y2816843D01*
X5567844Y2975836D01*
X5482893Y3180925D01*
X5325926Y3337893D01*
X5120837Y3422843D01*
X4949344Y3422843D01*
X4809844Y3283343D01*
X4409844Y3283343D01*
X4270344Y3422843D01*
X4098851Y3422843D01*
X3893762Y3337893D01*
X3736795Y3180925D01*
X3682371Y3049534D01*
X3609013Y3099658D01*
X3509844Y3119740D01*
X3509844Y4170596D01*
X3510675Y4170028D01*
X3609844Y4149946D01*
X4199844Y4149946D01*
X4292488Y4167378D01*
X4377576Y4222131D01*
X4434659Y4305674D01*
X4454741Y4404843D01*
X4454741Y4679260D01*
X4907001Y4227000D01*
G36*
X8902344Y3673843D02*
X8963844Y3673843D01*
X8963844Y3265843D01*
X8902344Y3265843D01*
X8902344Y2588029D01*
X8827001Y2512686D01*
X8740292Y2382917D01*
X8729352Y2327917D01*
X8723989Y2300956D01*
X8687556Y2357575D01*
X8604013Y2414658D01*
X8504844Y2434740D01*
X8490741Y2434740D01*
X8577344Y2521343D01*
X8577344Y3265843D01*
X8515844Y3265843D01*
X8515844Y3673843D01*
X8577344Y3673843D01*
X8577344Y3693843D01*
X8902344Y3693843D01*
X8902344Y3673843D01*
X8902344Y3673843D01*
G37*
X8902344Y3673843D02*
X8963844Y3673843D01*
X8963844Y3265843D01*
X8902344Y3265843D01*
X8902344Y2588029D01*
X8827001Y2512686D01*
X8740292Y2382917D01*
X8729352Y2327917D01*
X8723989Y2300956D01*
X8687556Y2357575D01*
X8604013Y2414658D01*
X8504844Y2434740D01*
X8490741Y2434740D01*
X8577344Y2521343D01*
X8577344Y3265843D01*
X8515844Y3265843D01*
X8515844Y3673843D01*
X8577344Y3673843D01*
X8577344Y3693843D01*
X8902344Y3693843D01*
X8902344Y3673843D01*
G36*
X17431042Y9069069D02*
X14358871Y5996898D01*
X14359059Y6212351D01*
X14257410Y6458362D01*
X14069353Y6646747D01*
X13823520Y6748826D01*
X13557336Y6749058D01*
X13311325Y6647409D01*
X13122940Y6459352D01*
X13020861Y6213519D01*
X13020654Y5976339D01*
X12727001Y5682686D01*
X12640292Y5552917D01*
X12631880Y5510628D01*
X12609844Y5399843D01*
X12609844Y5115529D01*
X12274158Y4779843D01*
X12041516Y4779843D01*
X12059741Y4869843D01*
X12059741Y5669843D01*
X12042309Y5762487D01*
X11990617Y5842818D01*
X12120926Y5896794D01*
X12277894Y6053761D01*
X12362844Y6258850D01*
X12362844Y6430343D01*
X12223344Y6569843D01*
X11617344Y6569843D01*
X11617344Y6545843D01*
X11242344Y6545843D01*
X11242344Y6569843D01*
X10636344Y6569843D01*
X10496844Y6430343D01*
X10496844Y6258850D01*
X10581794Y6053761D01*
X10622826Y6012729D01*
X10582918Y6039395D01*
X10429844Y6069843D01*
X10269741Y6069843D01*
X10269741Y6199843D01*
X10252309Y6292487D01*
X10197556Y6377575D01*
X10114013Y6434658D01*
X10014844Y6454740D01*
X9364844Y6454740D01*
X9272200Y6437308D01*
X9214487Y6400170D01*
X9164013Y6434658D01*
X9066844Y6454335D01*
X9066844Y6629843D01*
X9062040Y6653997D01*
X9041953Y6754981D01*
X8971068Y6861067D01*
X8691068Y7141067D01*
X8630602Y7181470D01*
X8742894Y7293761D01*
X8807864Y7450614D01*
X8830675Y7435028D01*
X8929844Y7414946D01*
X9329844Y7414946D01*
X9422488Y7432378D01*
X9507576Y7487131D01*
X9564659Y7570674D01*
X9579664Y7644773D01*
X9592379Y7577199D01*
X9647132Y7492111D01*
X9730675Y7435028D01*
X9829844Y7414946D01*
X10229844Y7414946D01*
X10322488Y7432378D01*
X10407576Y7487131D01*
X10464659Y7570674D01*
X10479273Y7642843D01*
X10738713Y7642843D01*
X10581794Y7485925D01*
X10496844Y7280836D01*
X10496844Y7109343D01*
X10636344Y6969843D01*
X11242344Y6969843D01*
X11242344Y6993843D01*
X11617344Y6993843D01*
X11617344Y6969843D01*
X12223344Y6969843D01*
X12362844Y7109343D01*
X12362844Y7280836D01*
X12277894Y7485925D01*
X12120975Y7642843D01*
X14819844Y7642843D01*
X14944982Y7667734D01*
X15051068Y7738619D01*
X16395292Y9082843D01*
X17451656Y9082843D01*
X17431042Y9069069D01*
X17431042Y9069069D01*
G37*
X17431042Y9069069D02*
X14358871Y5996898D01*
X14359059Y6212351D01*
X14257410Y6458362D01*
X14069353Y6646747D01*
X13823520Y6748826D01*
X13557336Y6749058D01*
X13311325Y6647409D01*
X13122940Y6459352D01*
X13020861Y6213519D01*
X13020654Y5976339D01*
X12727001Y5682686D01*
X12640292Y5552917D01*
X12631880Y5510628D01*
X12609844Y5399843D01*
X12609844Y5115529D01*
X12274158Y4779843D01*
X12041516Y4779843D01*
X12059741Y4869843D01*
X12059741Y5669843D01*
X12042309Y5762487D01*
X11990617Y5842818D01*
X12120926Y5896794D01*
X12277894Y6053761D01*
X12362844Y6258850D01*
X12362844Y6430343D01*
X12223344Y6569843D01*
X11617344Y6569843D01*
X11617344Y6545843D01*
X11242344Y6545843D01*
X11242344Y6569843D01*
X10636344Y6569843D01*
X10496844Y6430343D01*
X10496844Y6258850D01*
X10581794Y6053761D01*
X10622826Y6012729D01*
X10582918Y6039395D01*
X10429844Y6069843D01*
X10269741Y6069843D01*
X10269741Y6199843D01*
X10252309Y6292487D01*
X10197556Y6377575D01*
X10114013Y6434658D01*
X10014844Y6454740D01*
X9364844Y6454740D01*
X9272200Y6437308D01*
X9214487Y6400170D01*
X9164013Y6434658D01*
X9066844Y6454335D01*
X9066844Y6629843D01*
X9062040Y6653997D01*
X9041953Y6754981D01*
X8971068Y6861067D01*
X8691068Y7141067D01*
X8630602Y7181470D01*
X8742894Y7293761D01*
X8807864Y7450614D01*
X8830675Y7435028D01*
X8929844Y7414946D01*
X9329844Y7414946D01*
X9422488Y7432378D01*
X9507576Y7487131D01*
X9564659Y7570674D01*
X9579664Y7644773D01*
X9592379Y7577199D01*
X9647132Y7492111D01*
X9730675Y7435028D01*
X9829844Y7414946D01*
X10229844Y7414946D01*
X10322488Y7432378D01*
X10407576Y7487131D01*
X10464659Y7570674D01*
X10479273Y7642843D01*
X10738713Y7642843D01*
X10581794Y7485925D01*
X10496844Y7280836D01*
X10496844Y7109343D01*
X10636344Y6969843D01*
X11242344Y6969843D01*
X11242344Y6993843D01*
X11617344Y6993843D01*
X11617344Y6969843D01*
X12223344Y6969843D01*
X12362844Y7109343D01*
X12362844Y7280836D01*
X12277894Y7485925D01*
X12120975Y7642843D01*
X14819844Y7642843D01*
X14944982Y7667734D01*
X15051068Y7738619D01*
X16395292Y9082843D01*
X17451656Y9082843D01*
X17431042Y9069069D01*
G36*
X8119844Y7909843D02*
X8193844Y7909843D01*
X8193844Y7709843D01*
X8119844Y7709843D01*
X8119844Y7609843D01*
X7819844Y7609843D01*
X7819844Y7709843D01*
X7251344Y7709843D01*
X7111844Y7570343D01*
X7111844Y7498850D01*
X7196794Y7293761D01*
X7353762Y7136794D01*
X7415247Y7111326D01*
X7414947Y7109843D01*
X7414947Y6709843D01*
X7432379Y6617199D01*
X7487132Y6532111D01*
X7570675Y6475028D01*
X7669844Y6454946D01*
X8269844Y6454946D01*
X8362488Y6472378D01*
X8406524Y6500715D01*
X8412844Y6494395D01*
X8412844Y6454364D01*
X8322200Y6437308D01*
X8264487Y6400170D01*
X8214013Y6434658D01*
X8114844Y6454740D01*
X7464844Y6454740D01*
X7372200Y6437308D01*
X7287112Y6382555D01*
X7230029Y6299012D01*
X7209947Y6199843D01*
X7209947Y5996843D01*
X7105201Y5996843D01*
X7072556Y6047575D01*
X6989013Y6104658D01*
X6914914Y6119663D01*
X6982488Y6132378D01*
X7067576Y6187131D01*
X7124659Y6270674D01*
X7144741Y6369843D01*
X7144741Y6769843D01*
X7127309Y6862487D01*
X7072556Y6947575D01*
X6989844Y7004090D01*
X6989844Y7783721D01*
X7156748Y7950334D01*
X7172623Y7988564D01*
X7251344Y7909843D01*
X7819844Y7909843D01*
X7819844Y8009843D01*
X8119844Y8009843D01*
X8119844Y7909843D01*
X8119844Y7909843D01*
G37*
X8119844Y7909843D02*
X8193844Y7909843D01*
X8193844Y7709843D01*
X8119844Y7709843D01*
X8119844Y7609843D01*
X7819844Y7609843D01*
X7819844Y7709843D01*
X7251344Y7709843D01*
X7111844Y7570343D01*
X7111844Y7498850D01*
X7196794Y7293761D01*
X7353762Y7136794D01*
X7415247Y7111326D01*
X7414947Y7109843D01*
X7414947Y6709843D01*
X7432379Y6617199D01*
X7487132Y6532111D01*
X7570675Y6475028D01*
X7669844Y6454946D01*
X8269844Y6454946D01*
X8362488Y6472378D01*
X8406524Y6500715D01*
X8412844Y6494395D01*
X8412844Y6454364D01*
X8322200Y6437308D01*
X8264487Y6400170D01*
X8214013Y6434658D01*
X8114844Y6454740D01*
X7464844Y6454740D01*
X7372200Y6437308D01*
X7287112Y6382555D01*
X7230029Y6299012D01*
X7209947Y6199843D01*
X7209947Y5996843D01*
X7105201Y5996843D01*
X7072556Y6047575D01*
X6989013Y6104658D01*
X6914914Y6119663D01*
X6982488Y6132378D01*
X7067576Y6187131D01*
X7124659Y6270674D01*
X7144741Y6369843D01*
X7144741Y6769843D01*
X7127309Y6862487D01*
X7072556Y6947575D01*
X6989844Y7004090D01*
X6989844Y7783721D01*
X7156748Y7950334D01*
X7172623Y7988564D01*
X7251344Y7909843D01*
X7819844Y7909843D01*
X7819844Y8009843D01*
X8119844Y8009843D01*
X8119844Y7909843D01*
G36*
X8518344Y9511843D02*
X8649844Y9511843D01*
X8649844Y9119843D01*
X8562344Y9119843D01*
X8562344Y9095843D01*
X8387344Y9095843D01*
X8387344Y9119843D01*
X8299844Y9119843D01*
X8299844Y9511843D01*
X8378846Y9511843D01*
X8378846Y9519843D01*
X8387344Y9519843D01*
X8387344Y9543843D01*
X8486344Y9543843D01*
X8518344Y9511843D01*
X8518344Y9511843D01*
G37*
X8518344Y9511843D02*
X8649844Y9511843D01*
X8649844Y9119843D01*
X8562344Y9119843D01*
X8562344Y9095843D01*
X8387344Y9095843D01*
X8387344Y9119843D01*
X8299844Y9119843D01*
X8299844Y9511843D01*
X8378846Y9511843D01*
X8378846Y9519843D01*
X8387344Y9519843D01*
X8387344Y9543843D01*
X8486344Y9543843D01*
X8518344Y9511843D01*
G36*
X15206168Y15300860D02*
X15472352Y15300628D01*
X15499177Y15311712D01*
X15470861Y15243519D01*
X15470629Y14977335D01*
X15572278Y14731324D01*
X15760335Y14542939D01*
X15999844Y14443486D01*
X15999844Y11495965D01*
X15832940Y11329352D01*
X15730861Y11083519D01*
X15730629Y10817335D01*
X15832278Y10571324D01*
X15853722Y10549843D01*
X15506088Y10549843D01*
X15409353Y10646747D01*
X15163520Y10748826D01*
X14897336Y10749058D01*
X14651325Y10647409D01*
X14462940Y10459352D01*
X14448067Y10423534D01*
X14357001Y10362686D01*
X14356999Y10362683D01*
X14186251Y10191936D01*
X14108344Y10269843D01*
X13564844Y10269843D01*
X13564844Y10195843D01*
X13314844Y10195843D01*
X13314844Y10269843D01*
X12771344Y10269843D01*
X12631844Y10130343D01*
X12631844Y10008850D01*
X12716794Y9803761D01*
X12800713Y9719843D01*
X11615966Y9719843D01*
X11449353Y9886747D01*
X11310911Y9944233D01*
X11377576Y9987131D01*
X11434659Y10070674D01*
X11454741Y10169843D01*
X11454741Y10519843D01*
X11437309Y10612487D01*
X11401688Y10667843D01*
X11674139Y10667843D01*
X11697132Y10632111D01*
X11780675Y10575028D01*
X11879844Y10554946D01*
X12479844Y10554946D01*
X12572488Y10572378D01*
X12657576Y10627131D01*
X12680502Y10660685D01*
X12771344Y10569843D01*
X13314844Y10569843D01*
X13314844Y11138343D01*
X13564844Y11138343D01*
X13564844Y10569843D01*
X14108344Y10569843D01*
X14247844Y10709343D01*
X14247844Y10830836D01*
X14162894Y11035925D01*
X14005926Y11192892D01*
X13800837Y11277843D01*
X13704344Y11277843D01*
X13564844Y11138343D01*
X13314844Y11138343D01*
X13175344Y11277843D01*
X13078851Y11277843D01*
X12873762Y11192892D01*
X12734741Y11053872D01*
X12734741Y11209843D01*
X12717309Y11302487D01*
X12662556Y11387575D01*
X12579013Y11444658D01*
X12504914Y11459663D01*
X12572488Y11472378D01*
X12657576Y11527131D01*
X12714659Y11610674D01*
X12734741Y11709843D01*
X12734741Y12109843D01*
X12717309Y12202487D01*
X12662556Y12287575D01*
X12579013Y12344658D01*
X12506844Y12359272D01*
X12506844Y12674395D01*
X15154686Y15322237D01*
X15206168Y15300860D01*
X15206168Y15300860D01*
G37*
X15206168Y15300860D02*
X15472352Y15300628D01*
X15499177Y15311712D01*
X15470861Y15243519D01*
X15470629Y14977335D01*
X15572278Y14731324D01*
X15760335Y14542939D01*
X15999844Y14443486D01*
X15999844Y11495965D01*
X15832940Y11329352D01*
X15730861Y11083519D01*
X15730629Y10817335D01*
X15832278Y10571324D01*
X15853722Y10549843D01*
X15506088Y10549843D01*
X15409353Y10646747D01*
X15163520Y10748826D01*
X14897336Y10749058D01*
X14651325Y10647409D01*
X14462940Y10459352D01*
X14448067Y10423534D01*
X14357001Y10362686D01*
X14356999Y10362683D01*
X14186251Y10191936D01*
X14108344Y10269843D01*
X13564844Y10269843D01*
X13564844Y10195843D01*
X13314844Y10195843D01*
X13314844Y10269843D01*
X12771344Y10269843D01*
X12631844Y10130343D01*
X12631844Y10008850D01*
X12716794Y9803761D01*
X12800713Y9719843D01*
X11615966Y9719843D01*
X11449353Y9886747D01*
X11310911Y9944233D01*
X11377576Y9987131D01*
X11434659Y10070674D01*
X11454741Y10169843D01*
X11454741Y10519843D01*
X11437309Y10612487D01*
X11401688Y10667843D01*
X11674139Y10667843D01*
X11697132Y10632111D01*
X11780675Y10575028D01*
X11879844Y10554946D01*
X12479844Y10554946D01*
X12572488Y10572378D01*
X12657576Y10627131D01*
X12680502Y10660685D01*
X12771344Y10569843D01*
X13314844Y10569843D01*
X13314844Y11138343D01*
X13564844Y11138343D01*
X13564844Y10569843D01*
X14108344Y10569843D01*
X14247844Y10709343D01*
X14247844Y10830836D01*
X14162894Y11035925D01*
X14005926Y11192892D01*
X13800837Y11277843D01*
X13704344Y11277843D01*
X13564844Y11138343D01*
X13314844Y11138343D01*
X13175344Y11277843D01*
X13078851Y11277843D01*
X12873762Y11192892D01*
X12734741Y11053872D01*
X12734741Y11209843D01*
X12717309Y11302487D01*
X12662556Y11387575D01*
X12579013Y11444658D01*
X12504914Y11459663D01*
X12572488Y11472378D01*
X12657576Y11527131D01*
X12714659Y11610674D01*
X12734741Y11709843D01*
X12734741Y12109843D01*
X12717309Y12202487D01*
X12662556Y12287575D01*
X12579013Y12344658D01*
X12506844Y12359272D01*
X12506844Y12674395D01*
X15154686Y15322237D01*
X15206168Y15300860D01*
G36*
X24760861Y12113519D02*
X24760629Y11847335D01*
X24862278Y11601324D01*
X25050335Y11412939D01*
X25102844Y11391135D01*
X25102844Y11315291D01*
X24150560Y10363007D01*
X24044706Y10341952D01*
X23938620Y10271067D01*
X23404396Y9736843D01*
X21459292Y9736843D01*
X22974686Y11252237D01*
X23026168Y11230860D01*
X23292352Y11230628D01*
X23538363Y11332277D01*
X23726748Y11520334D01*
X23828827Y11766167D01*
X23829059Y12032351D01*
X23727410Y12278362D01*
X23705966Y12299843D01*
X24838230Y12299843D01*
X24760861Y12113519D01*
X24760861Y12113519D01*
G37*
X24760861Y12113519D02*
X24760629Y11847335D01*
X24862278Y11601324D01*
X25050335Y11412939D01*
X25102844Y11391135D01*
X25102844Y11315291D01*
X24150560Y10363007D01*
X24044706Y10341952D01*
X23938620Y10271067D01*
X23404396Y9736843D01*
X21459292Y9736843D01*
X22974686Y11252237D01*
X23026168Y11230860D01*
X23292352Y11230628D01*
X23538363Y11332277D01*
X23726748Y11520334D01*
X23828827Y11766167D01*
X23829059Y12032351D01*
X23727410Y12278362D01*
X23705966Y12299843D01*
X24838230Y12299843D01*
X24760861Y12113519D01*
G36*
X8378844Y12151343D02*
X8378844Y12148843D01*
X9220844Y12148843D01*
X9220844Y12151343D01*
X9238344Y12168843D01*
X9628844Y12168843D01*
X9628844Y12148843D01*
X9648844Y12148843D01*
X9648844Y11758343D01*
X9631344Y11740843D01*
X9628844Y11740843D01*
X9628844Y10898843D01*
X9631344Y10898843D01*
X9648844Y10881343D01*
X9648844Y10490843D01*
X9628844Y10490843D01*
X9628844Y10470843D01*
X9238344Y10470843D01*
X9220844Y10488343D01*
X9220844Y10490843D01*
X8378844Y10490843D01*
X8378844Y10488343D01*
X8361344Y10470843D01*
X7970844Y10470843D01*
X7970844Y10490843D01*
X7950844Y10490843D01*
X7950844Y10881343D01*
X7968344Y10898843D01*
X7970844Y10898843D01*
X7970844Y11601343D01*
X8241844Y11601343D01*
X8241844Y11038343D01*
X8378844Y10901343D01*
X8378844Y10898843D01*
X8381344Y10898843D01*
X8518344Y10761843D01*
X9081344Y10761843D01*
X9218344Y10898843D01*
X9220844Y10898843D01*
X9220844Y10901343D01*
X9357844Y11038343D01*
X9357844Y11601343D01*
X9220844Y11738343D01*
X9220844Y11740843D01*
X9218344Y11740843D01*
X9081344Y11877843D01*
X8518344Y11877843D01*
X8381344Y11740843D01*
X8378844Y11740843D01*
X8378844Y11738343D01*
X8241844Y11601343D01*
X7970844Y11601343D01*
X7970844Y11740843D01*
X7968344Y11740843D01*
X7950844Y11758343D01*
X7950844Y12148843D01*
X7970844Y12148843D01*
X7970844Y12168843D01*
X8361344Y12168843D01*
X8378844Y12151343D01*
X8378844Y12151343D01*
G37*
X8378844Y12151343D02*
X8378844Y12148843D01*
X9220844Y12148843D01*
X9220844Y12151343D01*
X9238344Y12168843D01*
X9628844Y12168843D01*
X9628844Y12148843D01*
X9648844Y12148843D01*
X9648844Y11758343D01*
X9631344Y11740843D01*
X9628844Y11740843D01*
X9628844Y10898843D01*
X9631344Y10898843D01*
X9648844Y10881343D01*
X9648844Y10490843D01*
X9628844Y10490843D01*
X9628844Y10470843D01*
X9238344Y10470843D01*
X9220844Y10488343D01*
X9220844Y10490843D01*
X8378844Y10490843D01*
X8378844Y10488343D01*
X8361344Y10470843D01*
X7970844Y10470843D01*
X7970844Y10490843D01*
X7950844Y10490843D01*
X7950844Y10881343D01*
X7968344Y10898843D01*
X7970844Y10898843D01*
X7970844Y11601343D01*
X8241844Y11601343D01*
X8241844Y11038343D01*
X8378844Y10901343D01*
X8378844Y10898843D01*
X8381344Y10898843D01*
X8518344Y10761843D01*
X9081344Y10761843D01*
X9218344Y10898843D01*
X9220844Y10898843D01*
X9220844Y10901343D01*
X9357844Y11038343D01*
X9357844Y11601343D01*
X9220844Y11738343D01*
X9220844Y11740843D01*
X9218344Y11740843D01*
X9081344Y11877843D01*
X8518344Y11877843D01*
X8381344Y11740843D01*
X8378844Y11740843D01*
X8378844Y11738343D01*
X8241844Y11601343D01*
X7970844Y11601343D01*
X7970844Y11740843D01*
X7968344Y11740843D01*
X7950844Y11758343D01*
X7950844Y12148843D01*
X7970844Y12148843D01*
X7970844Y12168843D01*
X8361344Y12168843D01*
X8378844Y12151343D01*
G36*
X25775000Y21820933D02*
X25679353Y21916747D01*
X25433520Y22018826D01*
X25167336Y22019058D01*
X24921325Y21917409D01*
X24732940Y21729352D01*
X24711136Y21676843D01*
X22664741Y21676843D01*
X22664741Y21874843D01*
X22647309Y21967487D01*
X22592556Y22052575D01*
X22509013Y22109658D01*
X22409844Y22129740D01*
X22209844Y22129740D01*
X22117200Y22112308D01*
X22110986Y22108310D01*
X22109013Y22109658D01*
X22009844Y22129740D01*
X21809844Y22129740D01*
X21717200Y22112308D01*
X21710986Y22108310D01*
X21709013Y22109658D01*
X21609844Y22129740D01*
X21409844Y22129740D01*
X21317200Y22112308D01*
X21310986Y22108310D01*
X21309013Y22109658D01*
X21209844Y22129740D01*
X21009844Y22129740D01*
X20917200Y22112308D01*
X20910986Y22108310D01*
X20909013Y22109658D01*
X20809844Y22129740D01*
X20609844Y22129740D01*
X20517200Y22112308D01*
X20510986Y22108310D01*
X20509013Y22109658D01*
X20409844Y22129740D01*
X20209844Y22129740D01*
X20117200Y22112308D01*
X20110986Y22108310D01*
X20109013Y22109658D01*
X20009844Y22129740D01*
X19809844Y22129740D01*
X19717200Y22112308D01*
X19710986Y22108310D01*
X19709013Y22109658D01*
X19609844Y22129740D01*
X19409844Y22129740D01*
X19317200Y22112308D01*
X19310986Y22108310D01*
X19309013Y22109658D01*
X19209844Y22129740D01*
X19009844Y22129740D01*
X18917200Y22112308D01*
X18910986Y22108310D01*
X18909013Y22109658D01*
X18809844Y22129740D01*
X18609844Y22129740D01*
X18517200Y22112308D01*
X18432112Y22057555D01*
X18375029Y21974012D01*
X18354947Y21874843D01*
X18354947Y21677188D01*
X18277450Y21754685D01*
X18298827Y21806167D01*
X18299059Y22072351D01*
X18197410Y22318362D01*
X18009353Y22506747D01*
X17763520Y22608826D01*
X17497336Y22609058D01*
X17251325Y22507409D01*
X17062940Y22319352D01*
X16960861Y22073519D01*
X16960629Y21807335D01*
X17036859Y21622843D01*
X16929344Y21622843D01*
X16789844Y21483343D01*
X16789844Y20877343D01*
X17408344Y20877343D01*
X17547844Y21016843D01*
X17547844Y21175836D01*
X17508488Y21270849D01*
X17762352Y21270628D01*
X17814899Y21292340D01*
X17988620Y21118619D01*
X18094706Y21047734D01*
X18219844Y21022843D01*
X18354947Y21022843D01*
X18354947Y20824843D01*
X18372379Y20732199D01*
X18427132Y20647111D01*
X18510675Y20590028D01*
X18609844Y20569946D01*
X18782844Y20569946D01*
X18782844Y20053103D01*
X18807735Y19927965D01*
X18878620Y19821879D01*
X20262844Y18437655D01*
X20262844Y16434263D01*
X20287735Y16309125D01*
X20358620Y16203039D01*
X21153040Y15408619D01*
X21259126Y15337734D01*
X21384264Y15312843D01*
X23134396Y15312843D01*
X24180637Y14266602D01*
X24180629Y14257335D01*
X24282278Y14011324D01*
X24470335Y13822939D01*
X24716168Y13720860D01*
X24982352Y13720628D01*
X25228363Y13822277D01*
X25416748Y14010334D01*
X25518827Y14256167D01*
X25519059Y14522351D01*
X25417410Y14768362D01*
X25229353Y14956747D01*
X25167601Y14982389D01*
X25268827Y15226167D01*
X25269059Y15492351D01*
X25167410Y15738362D01*
X24979353Y15926747D01*
X24825874Y15990477D01*
X24898827Y16166167D01*
X24899059Y16432351D01*
X24797410Y16678362D01*
X24609353Y16866747D01*
X24363520Y16968826D01*
X24097336Y16969058D01*
X23851325Y16867409D01*
X23662940Y16679352D01*
X23641136Y16626843D01*
X21745292Y16626843D01*
X21566844Y16805291D01*
X21566844Y18030343D01*
X23001844Y18030343D01*
X23001844Y17908850D01*
X23086794Y17703761D01*
X23243762Y17546794D01*
X23448851Y17461843D01*
X23545344Y17461843D01*
X23684844Y17601343D01*
X23684844Y18169843D01*
X23934844Y18169843D01*
X23934844Y17601343D01*
X24074344Y17461843D01*
X24170837Y17461843D01*
X24375926Y17546794D01*
X24532894Y17703761D01*
X24617844Y17908850D01*
X24617844Y18030343D01*
X24478344Y18169843D01*
X23934844Y18169843D01*
X23684844Y18169843D01*
X23141344Y18169843D01*
X23001844Y18030343D01*
X21566844Y18030343D01*
X21566844Y18794263D01*
X21554219Y18857734D01*
X21541953Y18919401D01*
X21471068Y19025487D01*
X20236844Y20259711D01*
X20236844Y20430395D01*
X21478620Y19188619D01*
X21584706Y19117734D01*
X21709844Y19092843D01*
X23243713Y19092843D01*
X23086794Y18935925D01*
X23001844Y18730836D01*
X23001844Y18609343D01*
X23141344Y18469843D01*
X23684844Y18469843D01*
X23684844Y18543843D01*
X23934844Y18543843D01*
X23934844Y18469843D01*
X24478344Y18469843D01*
X24481251Y18472750D01*
X24720747Y18233254D01*
X24720629Y18097335D01*
X24822278Y17851324D01*
X25010335Y17662939D01*
X25256168Y17560860D01*
X25522352Y17560628D01*
X25768363Y17662277D01*
X25775000Y17668902D01*
X25775000Y13635164D01*
X25573520Y13718826D01*
X25307336Y13719058D01*
X25061325Y13617409D01*
X24872940Y13429352D01*
X24770861Y13183519D01*
X24770788Y13099843D01*
X22399849Y13099843D01*
X22399844Y13099844D01*
X22246771Y13069395D01*
X22117001Y12982686D01*
X22116999Y12982683D01*
X19684158Y10549843D01*
X16946221Y10549843D01*
X16966748Y10570334D01*
X17068827Y10816167D01*
X17068910Y10910858D01*
X17332352Y10910628D01*
X17578363Y11012277D01*
X17766748Y11200334D01*
X17868827Y11446167D01*
X17869059Y11712351D01*
X17767410Y11958362D01*
X17599844Y12126220D01*
X17599844Y16479843D01*
X17569396Y16632916D01*
X17482687Y16762686D01*
X17482684Y16762688D01*
X16668888Y17576484D01*
X16669059Y17772351D01*
X16567410Y18018362D01*
X16379353Y18206747D01*
X16133520Y18308826D01*
X15936375Y18308998D01*
X15489844Y18755529D01*
X15489844Y20059946D01*
X15582488Y20077378D01*
X15662819Y20129070D01*
X15716795Y19998761D01*
X15873762Y19841793D01*
X16078851Y19756843D01*
X16250344Y19756843D01*
X16389844Y19896343D01*
X16389844Y20502343D01*
X16789844Y20502343D01*
X16789844Y19896343D01*
X16929344Y19756843D01*
X17100837Y19756843D01*
X17305926Y19841793D01*
X17462893Y19998761D01*
X17547844Y20203850D01*
X17547844Y20362843D01*
X17408344Y20502343D01*
X16789844Y20502343D01*
X16389844Y20502343D01*
X16365844Y20502343D01*
X16365844Y20877343D01*
X16389844Y20877343D01*
X16389844Y21483343D01*
X16250344Y21622843D01*
X16078851Y21622843D01*
X15987421Y21584972D01*
X17325292Y22922843D01*
X18354947Y22922843D01*
X18354947Y22724843D01*
X18372379Y22632199D01*
X18427132Y22547111D01*
X18510675Y22490028D01*
X18609844Y22469946D01*
X18809844Y22469946D01*
X18902488Y22487378D01*
X18908702Y22491376D01*
X18910675Y22490028D01*
X19009844Y22469946D01*
X19209844Y22469946D01*
X19302488Y22487378D01*
X19308702Y22491376D01*
X19310675Y22490028D01*
X19409844Y22469946D01*
X19609844Y22469946D01*
X19702488Y22487378D01*
X19703863Y22488263D01*
X19736794Y22408761D01*
X19893762Y22251794D01*
X20098851Y22166843D01*
X20120344Y22166843D01*
X20259844Y22306343D01*
X20259844Y22700661D01*
X20264741Y22724843D01*
X20264741Y23774843D01*
X20259844Y23800869D01*
X20259844Y24193343D01*
X20236844Y24216343D01*
X20236844Y25154352D01*
X20286794Y25033761D01*
X20443762Y24876794D01*
X20505247Y24851326D01*
X20504947Y24849843D01*
X20504947Y24332843D01*
X20499344Y24332843D01*
X20359844Y24193343D01*
X20359844Y23799025D01*
X20354947Y23774843D01*
X20354947Y22724843D01*
X20359844Y22698817D01*
X20359844Y22306343D01*
X20499344Y22166843D01*
X20520837Y22166843D01*
X20725926Y22251794D01*
X20882894Y22408761D01*
X20916101Y22488929D01*
X21009844Y22469946D01*
X21209844Y22469946D01*
X21302488Y22487378D01*
X21308702Y22491376D01*
X21310675Y22490028D01*
X21409844Y22469946D01*
X21609844Y22469946D01*
X21702488Y22487378D01*
X21708702Y22491376D01*
X21710675Y22490028D01*
X21809844Y22469946D01*
X22009844Y22469946D01*
X22102488Y22487378D01*
X22108702Y22491376D01*
X22110675Y22490028D01*
X22209844Y22469946D01*
X22409844Y22469946D01*
X22502488Y22487378D01*
X22587576Y22542131D01*
X22644659Y22625674D01*
X22664741Y22724843D01*
X22664741Y22922843D01*
X23119844Y22922843D01*
X23244982Y22947734D01*
X23351068Y23018619D01*
X24241068Y23908619D01*
X24273766Y23957555D01*
X24311953Y24014706D01*
X24336844Y24139843D01*
X24336844Y30409843D01*
X24311953Y30534980D01*
X24311953Y30534981D01*
X24241068Y30641067D01*
X23650664Y31231471D01*
X23870323Y31140261D01*
X24467059Y31139740D01*
X25018572Y31367620D01*
X25440897Y31789209D01*
X25669739Y32340323D01*
X25670260Y32937059D01*
X25442380Y33488572D01*
X25020791Y33910897D01*
X24469677Y34139739D01*
X23872941Y34140260D01*
X23321428Y33912380D01*
X22899103Y33490791D01*
X22670261Y32939677D01*
X22669740Y32342941D01*
X22761661Y32120474D01*
X21301068Y33581067D01*
X21194982Y33651952D01*
X21069844Y33676843D01*
X19318697Y33676843D01*
X19297410Y33728362D01*
X19109353Y33916747D01*
X18863520Y34018826D01*
X18597336Y34019058D01*
X18351325Y33917409D01*
X18162940Y33729352D01*
X18141136Y33676843D01*
X18071553Y33676843D01*
X18010477Y33768249D01*
X17809335Y33902648D01*
X17572071Y33949843D01*
X15457617Y33949843D01*
X15220353Y33902648D01*
X15019211Y33768249D01*
X14884812Y33567107D01*
X14839875Y33341192D01*
X14626686Y33429716D01*
X14334285Y33429971D01*
X14119784Y33341340D01*
X14074876Y33567107D01*
X13940477Y33768249D01*
X13739335Y33902648D01*
X13502071Y33949843D01*
X11387617Y33949843D01*
X11150353Y33902648D01*
X10949211Y33768249D01*
X10888135Y33676843D01*
X10708767Y33676843D01*
X10682556Y33717575D01*
X10599013Y33774658D01*
X10499844Y33794740D01*
X9899844Y33794740D01*
X9807200Y33777308D01*
X9722112Y33722555D01*
X9665029Y33639012D01*
X9644947Y33539843D01*
X9644947Y33139843D01*
X9662379Y33047199D01*
X9717132Y32962111D01*
X9800675Y32905028D01*
X9874774Y32890023D01*
X9807200Y32877308D01*
X9722112Y32822555D01*
X9665029Y32739012D01*
X9644947Y32639843D01*
X9644947Y32239843D01*
X9662379Y32147199D01*
X9717132Y32062111D01*
X9787730Y32013873D01*
X9632940Y31859352D01*
X9530861Y31613519D01*
X9530629Y31347335D01*
X9632278Y31101324D01*
X9799844Y30933466D01*
X9799844Y30872575D01*
X9722112Y30822555D01*
X9665029Y30739012D01*
X9644947Y30639843D01*
X9644947Y30239843D01*
X9662379Y30147199D01*
X9717132Y30062111D01*
X9800675Y30005028D01*
X9874774Y29990023D01*
X9807200Y29977308D01*
X9722112Y29922555D01*
X9665029Y29839012D01*
X9644947Y29739843D01*
X9644947Y29339843D01*
X9660635Y29256468D01*
X9659844Y29257008D01*
X9659844Y29259843D01*
X9621784Y29451185D01*
X9567221Y29532843D01*
X9513398Y29613396D01*
X9168397Y29958396D01*
X9006186Y30066783D01*
X9006131Y30066794D01*
X8814844Y30104843D01*
X6764741Y30104843D01*
X6764741Y30129843D01*
X6747309Y30222487D01*
X6692556Y30307575D01*
X6609013Y30364658D01*
X6509844Y30384740D01*
X6509844Y30632111D01*
X6587576Y30682131D01*
X6644659Y30765674D01*
X6664741Y30864843D01*
X6664741Y31614843D01*
X6647309Y31707487D01*
X6592556Y31792575D01*
X6509844Y31849090D01*
X6509844Y32032111D01*
X6587576Y32082131D01*
X6644659Y32165674D01*
X6664741Y32264843D01*
X6664741Y33014843D01*
X6647309Y33107487D01*
X6605779Y33172027D01*
X6725926Y33221793D01*
X6882893Y33378761D01*
X6937317Y33510152D01*
X7009844Y33460596D01*
X7009844Y33247575D01*
X6932112Y33197555D01*
X6875029Y33114012D01*
X6854947Y33014843D01*
X6854947Y32264843D01*
X6872379Y32172199D01*
X6927132Y32087111D01*
X7010675Y32030028D01*
X7109844Y32009946D01*
X7909844Y32009946D01*
X8002488Y32027378D01*
X8087576Y32082131D01*
X8144659Y32165674D01*
X8164741Y32264843D01*
X8164741Y33014843D01*
X8147309Y33107487D01*
X8092556Y33192575D01*
X8009844Y33249090D01*
X8009844Y33462111D01*
X8087576Y33512131D01*
X8144659Y33595674D01*
X8164741Y33694843D01*
X8164741Y34444843D01*
X8147309Y34537487D01*
X8132822Y34560000D01*
X25775000Y34560000D01*
X25775000Y21820933D01*
X25775000Y21820933D01*
G37*
X25775000Y21820933D02*
X25679353Y21916747D01*
X25433520Y22018826D01*
X25167336Y22019058D01*
X24921325Y21917409D01*
X24732940Y21729352D01*
X24711136Y21676843D01*
X22664741Y21676843D01*
X22664741Y21874843D01*
X22647309Y21967487D01*
X22592556Y22052575D01*
X22509013Y22109658D01*
X22409844Y22129740D01*
X22209844Y22129740D01*
X22117200Y22112308D01*
X22110986Y22108310D01*
X22109013Y22109658D01*
X22009844Y22129740D01*
X21809844Y22129740D01*
X21717200Y22112308D01*
X21710986Y22108310D01*
X21709013Y22109658D01*
X21609844Y22129740D01*
X21409844Y22129740D01*
X21317200Y22112308D01*
X21310986Y22108310D01*
X21309013Y22109658D01*
X21209844Y22129740D01*
X21009844Y22129740D01*
X20917200Y22112308D01*
X20910986Y22108310D01*
X20909013Y22109658D01*
X20809844Y22129740D01*
X20609844Y22129740D01*
X20517200Y22112308D01*
X20510986Y22108310D01*
X20509013Y22109658D01*
X20409844Y22129740D01*
X20209844Y22129740D01*
X20117200Y22112308D01*
X20110986Y22108310D01*
X20109013Y22109658D01*
X20009844Y22129740D01*
X19809844Y22129740D01*
X19717200Y22112308D01*
X19710986Y22108310D01*
X19709013Y22109658D01*
X19609844Y22129740D01*
X19409844Y22129740D01*
X19317200Y22112308D01*
X19310986Y22108310D01*
X19309013Y22109658D01*
X19209844Y22129740D01*
X19009844Y22129740D01*
X18917200Y22112308D01*
X18910986Y22108310D01*
X18909013Y22109658D01*
X18809844Y22129740D01*
X18609844Y22129740D01*
X18517200Y22112308D01*
X18432112Y22057555D01*
X18375029Y21974012D01*
X18354947Y21874843D01*
X18354947Y21677188D01*
X18277450Y21754685D01*
X18298827Y21806167D01*
X18299059Y22072351D01*
X18197410Y22318362D01*
X18009353Y22506747D01*
X17763520Y22608826D01*
X17497336Y22609058D01*
X17251325Y22507409D01*
X17062940Y22319352D01*
X16960861Y22073519D01*
X16960629Y21807335D01*
X17036859Y21622843D01*
X16929344Y21622843D01*
X16789844Y21483343D01*
X16789844Y20877343D01*
X17408344Y20877343D01*
X17547844Y21016843D01*
X17547844Y21175836D01*
X17508488Y21270849D01*
X17762352Y21270628D01*
X17814899Y21292340D01*
X17988620Y21118619D01*
X18094706Y21047734D01*
X18219844Y21022843D01*
X18354947Y21022843D01*
X18354947Y20824843D01*
X18372379Y20732199D01*
X18427132Y20647111D01*
X18510675Y20590028D01*
X18609844Y20569946D01*
X18782844Y20569946D01*
X18782844Y20053103D01*
X18807735Y19927965D01*
X18878620Y19821879D01*
X20262844Y18437655D01*
X20262844Y16434263D01*
X20287735Y16309125D01*
X20358620Y16203039D01*
X21153040Y15408619D01*
X21259126Y15337734D01*
X21384264Y15312843D01*
X23134396Y15312843D01*
X24180637Y14266602D01*
X24180629Y14257335D01*
X24282278Y14011324D01*
X24470335Y13822939D01*
X24716168Y13720860D01*
X24982352Y13720628D01*
X25228363Y13822277D01*
X25416748Y14010334D01*
X25518827Y14256167D01*
X25519059Y14522351D01*
X25417410Y14768362D01*
X25229353Y14956747D01*
X25167601Y14982389D01*
X25268827Y15226167D01*
X25269059Y15492351D01*
X25167410Y15738362D01*
X24979353Y15926747D01*
X24825874Y15990477D01*
X24898827Y16166167D01*
X24899059Y16432351D01*
X24797410Y16678362D01*
X24609353Y16866747D01*
X24363520Y16968826D01*
X24097336Y16969058D01*
X23851325Y16867409D01*
X23662940Y16679352D01*
X23641136Y16626843D01*
X21745292Y16626843D01*
X21566844Y16805291D01*
X21566844Y18030343D01*
X23001844Y18030343D01*
X23001844Y17908850D01*
X23086794Y17703761D01*
X23243762Y17546794D01*
X23448851Y17461843D01*
X23545344Y17461843D01*
X23684844Y17601343D01*
X23684844Y18169843D01*
X23934844Y18169843D01*
X23934844Y17601343D01*
X24074344Y17461843D01*
X24170837Y17461843D01*
X24375926Y17546794D01*
X24532894Y17703761D01*
X24617844Y17908850D01*
X24617844Y18030343D01*
X24478344Y18169843D01*
X23934844Y18169843D01*
X23684844Y18169843D01*
X23141344Y18169843D01*
X23001844Y18030343D01*
X21566844Y18030343D01*
X21566844Y18794263D01*
X21554219Y18857734D01*
X21541953Y18919401D01*
X21471068Y19025487D01*
X20236844Y20259711D01*
X20236844Y20430395D01*
X21478620Y19188619D01*
X21584706Y19117734D01*
X21709844Y19092843D01*
X23243713Y19092843D01*
X23086794Y18935925D01*
X23001844Y18730836D01*
X23001844Y18609343D01*
X23141344Y18469843D01*
X23684844Y18469843D01*
X23684844Y18543843D01*
X23934844Y18543843D01*
X23934844Y18469843D01*
X24478344Y18469843D01*
X24481251Y18472750D01*
X24720747Y18233254D01*
X24720629Y18097335D01*
X24822278Y17851324D01*
X25010335Y17662939D01*
X25256168Y17560860D01*
X25522352Y17560628D01*
X25768363Y17662277D01*
X25775000Y17668902D01*
X25775000Y13635164D01*
X25573520Y13718826D01*
X25307336Y13719058D01*
X25061325Y13617409D01*
X24872940Y13429352D01*
X24770861Y13183519D01*
X24770788Y13099843D01*
X22399849Y13099843D01*
X22399844Y13099844D01*
X22246771Y13069395D01*
X22117001Y12982686D01*
X22116999Y12982683D01*
X19684158Y10549843D01*
X16946221Y10549843D01*
X16966748Y10570334D01*
X17068827Y10816167D01*
X17068910Y10910858D01*
X17332352Y10910628D01*
X17578363Y11012277D01*
X17766748Y11200334D01*
X17868827Y11446167D01*
X17869059Y11712351D01*
X17767410Y11958362D01*
X17599844Y12126220D01*
X17599844Y16479843D01*
X17569396Y16632916D01*
X17482687Y16762686D01*
X17482684Y16762688D01*
X16668888Y17576484D01*
X16669059Y17772351D01*
X16567410Y18018362D01*
X16379353Y18206747D01*
X16133520Y18308826D01*
X15936375Y18308998D01*
X15489844Y18755529D01*
X15489844Y20059946D01*
X15582488Y20077378D01*
X15662819Y20129070D01*
X15716795Y19998761D01*
X15873762Y19841793D01*
X16078851Y19756843D01*
X16250344Y19756843D01*
X16389844Y19896343D01*
X16389844Y20502343D01*
X16789844Y20502343D01*
X16789844Y19896343D01*
X16929344Y19756843D01*
X17100837Y19756843D01*
X17305926Y19841793D01*
X17462893Y19998761D01*
X17547844Y20203850D01*
X17547844Y20362843D01*
X17408344Y20502343D01*
X16789844Y20502343D01*
X16389844Y20502343D01*
X16365844Y20502343D01*
X16365844Y20877343D01*
X16389844Y20877343D01*
X16389844Y21483343D01*
X16250344Y21622843D01*
X16078851Y21622843D01*
X15987421Y21584972D01*
X17325292Y22922843D01*
X18354947Y22922843D01*
X18354947Y22724843D01*
X18372379Y22632199D01*
X18427132Y22547111D01*
X18510675Y22490028D01*
X18609844Y22469946D01*
X18809844Y22469946D01*
X18902488Y22487378D01*
X18908702Y22491376D01*
X18910675Y22490028D01*
X19009844Y22469946D01*
X19209844Y22469946D01*
X19302488Y22487378D01*
X19308702Y22491376D01*
X19310675Y22490028D01*
X19409844Y22469946D01*
X19609844Y22469946D01*
X19702488Y22487378D01*
X19703863Y22488263D01*
X19736794Y22408761D01*
X19893762Y22251794D01*
X20098851Y22166843D01*
X20120344Y22166843D01*
X20259844Y22306343D01*
X20259844Y22700661D01*
X20264741Y22724843D01*
X20264741Y23774843D01*
X20259844Y23800869D01*
X20259844Y24193343D01*
X20236844Y24216343D01*
X20236844Y25154352D01*
X20286794Y25033761D01*
X20443762Y24876794D01*
X20505247Y24851326D01*
X20504947Y24849843D01*
X20504947Y24332843D01*
X20499344Y24332843D01*
X20359844Y24193343D01*
X20359844Y23799025D01*
X20354947Y23774843D01*
X20354947Y22724843D01*
X20359844Y22698817D01*
X20359844Y22306343D01*
X20499344Y22166843D01*
X20520837Y22166843D01*
X20725926Y22251794D01*
X20882894Y22408761D01*
X20916101Y22488929D01*
X21009844Y22469946D01*
X21209844Y22469946D01*
X21302488Y22487378D01*
X21308702Y22491376D01*
X21310675Y22490028D01*
X21409844Y22469946D01*
X21609844Y22469946D01*
X21702488Y22487378D01*
X21708702Y22491376D01*
X21710675Y22490028D01*
X21809844Y22469946D01*
X22009844Y22469946D01*
X22102488Y22487378D01*
X22108702Y22491376D01*
X22110675Y22490028D01*
X22209844Y22469946D01*
X22409844Y22469946D01*
X22502488Y22487378D01*
X22587576Y22542131D01*
X22644659Y22625674D01*
X22664741Y22724843D01*
X22664741Y22922843D01*
X23119844Y22922843D01*
X23244982Y22947734D01*
X23351068Y23018619D01*
X24241068Y23908619D01*
X24273766Y23957555D01*
X24311953Y24014706D01*
X24336844Y24139843D01*
X24336844Y30409843D01*
X24311953Y30534980D01*
X24311953Y30534981D01*
X24241068Y30641067D01*
X23650664Y31231471D01*
X23870323Y31140261D01*
X24467059Y31139740D01*
X25018572Y31367620D01*
X25440897Y31789209D01*
X25669739Y32340323D01*
X25670260Y32937059D01*
X25442380Y33488572D01*
X25020791Y33910897D01*
X24469677Y34139739D01*
X23872941Y34140260D01*
X23321428Y33912380D01*
X22899103Y33490791D01*
X22670261Y32939677D01*
X22669740Y32342941D01*
X22761661Y32120474D01*
X21301068Y33581067D01*
X21194982Y33651952D01*
X21069844Y33676843D01*
X19318697Y33676843D01*
X19297410Y33728362D01*
X19109353Y33916747D01*
X18863520Y34018826D01*
X18597336Y34019058D01*
X18351325Y33917409D01*
X18162940Y33729352D01*
X18141136Y33676843D01*
X18071553Y33676843D01*
X18010477Y33768249D01*
X17809335Y33902648D01*
X17572071Y33949843D01*
X15457617Y33949843D01*
X15220353Y33902648D01*
X15019211Y33768249D01*
X14884812Y33567107D01*
X14839875Y33341192D01*
X14626686Y33429716D01*
X14334285Y33429971D01*
X14119784Y33341340D01*
X14074876Y33567107D01*
X13940477Y33768249D01*
X13739335Y33902648D01*
X13502071Y33949843D01*
X11387617Y33949843D01*
X11150353Y33902648D01*
X10949211Y33768249D01*
X10888135Y33676843D01*
X10708767Y33676843D01*
X10682556Y33717575D01*
X10599013Y33774658D01*
X10499844Y33794740D01*
X9899844Y33794740D01*
X9807200Y33777308D01*
X9722112Y33722555D01*
X9665029Y33639012D01*
X9644947Y33539843D01*
X9644947Y33139843D01*
X9662379Y33047199D01*
X9717132Y32962111D01*
X9800675Y32905028D01*
X9874774Y32890023D01*
X9807200Y32877308D01*
X9722112Y32822555D01*
X9665029Y32739012D01*
X9644947Y32639843D01*
X9644947Y32239843D01*
X9662379Y32147199D01*
X9717132Y32062111D01*
X9787730Y32013873D01*
X9632940Y31859352D01*
X9530861Y31613519D01*
X9530629Y31347335D01*
X9632278Y31101324D01*
X9799844Y30933466D01*
X9799844Y30872575D01*
X9722112Y30822555D01*
X9665029Y30739012D01*
X9644947Y30639843D01*
X9644947Y30239843D01*
X9662379Y30147199D01*
X9717132Y30062111D01*
X9800675Y30005028D01*
X9874774Y29990023D01*
X9807200Y29977308D01*
X9722112Y29922555D01*
X9665029Y29839012D01*
X9644947Y29739843D01*
X9644947Y29339843D01*
X9660635Y29256468D01*
X9659844Y29257008D01*
X9659844Y29259843D01*
X9621784Y29451185D01*
X9567221Y29532843D01*
X9513398Y29613396D01*
X9168397Y29958396D01*
X9006186Y30066783D01*
X9006131Y30066794D01*
X8814844Y30104843D01*
X6764741Y30104843D01*
X6764741Y30129843D01*
X6747309Y30222487D01*
X6692556Y30307575D01*
X6609013Y30364658D01*
X6509844Y30384740D01*
X6509844Y30632111D01*
X6587576Y30682131D01*
X6644659Y30765674D01*
X6664741Y30864843D01*
X6664741Y31614843D01*
X6647309Y31707487D01*
X6592556Y31792575D01*
X6509844Y31849090D01*
X6509844Y32032111D01*
X6587576Y32082131D01*
X6644659Y32165674D01*
X6664741Y32264843D01*
X6664741Y33014843D01*
X6647309Y33107487D01*
X6605779Y33172027D01*
X6725926Y33221793D01*
X6882893Y33378761D01*
X6937317Y33510152D01*
X7009844Y33460596D01*
X7009844Y33247575D01*
X6932112Y33197555D01*
X6875029Y33114012D01*
X6854947Y33014843D01*
X6854947Y32264843D01*
X6872379Y32172199D01*
X6927132Y32087111D01*
X7010675Y32030028D01*
X7109844Y32009946D01*
X7909844Y32009946D01*
X8002488Y32027378D01*
X8087576Y32082131D01*
X8144659Y32165674D01*
X8164741Y32264843D01*
X8164741Y33014843D01*
X8147309Y33107487D01*
X8092556Y33192575D01*
X8009844Y33249090D01*
X8009844Y33462111D01*
X8087576Y33512131D01*
X8144659Y33595674D01*
X8164741Y33694843D01*
X8164741Y34444843D01*
X8147309Y34537487D01*
X8132822Y34560000D01*
X25775000Y34560000D01*
X25775000Y21820933D01*
G36*
X15620335Y17072939D02*
X15866168Y16970860D01*
X16132352Y16970628D01*
X16140151Y16973850D01*
X16799844Y16314158D01*
X16799844Y15264653D01*
X16707410Y15488362D01*
X16519353Y15676747D01*
X16273520Y15778826D01*
X16007336Y15779058D01*
X15980511Y15767974D01*
X16008827Y15836167D01*
X16009059Y16102351D01*
X15907410Y16348362D01*
X15719353Y16536747D01*
X15473520Y16638826D01*
X15207336Y16639058D01*
X14961325Y16537409D01*
X14772940Y16349352D01*
X14670861Y16103519D01*
X14670629Y15837335D01*
X14692341Y15784788D01*
X11948620Y13041067D01*
X11877735Y12934981D01*
X11874225Y12917335D01*
X11852844Y12809843D01*
X11852844Y12359660D01*
X11787200Y12347308D01*
X11757844Y12328418D01*
X11757844Y12498845D01*
X11734846Y12498845D01*
X11757844Y12521843D01*
X11757844Y12580836D01*
X11672893Y12785925D01*
X11515926Y12942893D01*
X11310837Y13027843D01*
X11139344Y13027843D01*
X10999844Y12888343D01*
X10999844Y12382343D01*
X11023844Y12382343D01*
X11023844Y12207343D01*
X10999844Y12207343D01*
X10999844Y12119843D01*
X10607844Y12119843D01*
X10607844Y12148845D01*
X10599844Y12148845D01*
X10599844Y12207343D01*
X10575844Y12207343D01*
X10575844Y12256343D01*
X10607844Y12288343D01*
X10607844Y12680836D01*
X10599844Y12700150D01*
X10599844Y12888343D01*
X10460344Y13027843D01*
X10380975Y13027843D01*
X10365926Y13042892D01*
X10204741Y13109657D01*
X10204741Y13719843D01*
X10187309Y13812487D01*
X10181289Y13821843D01*
X10243846Y13821843D01*
X10243846Y13907341D01*
X10329344Y13821843D01*
X10450837Y13821843D01*
X10655926Y13906793D01*
X10812893Y14063761D01*
X10897844Y14268850D01*
X10897844Y14365343D01*
X10758344Y14504843D01*
X10189844Y14504843D01*
X10189844Y14405843D01*
X9889844Y14405843D01*
X9889844Y14504843D01*
X9815844Y14504843D01*
X9815844Y14754843D01*
X9889844Y14754843D01*
X9889844Y15298343D01*
X10189844Y15298343D01*
X10189844Y14754843D01*
X10758344Y14754843D01*
X10897844Y14894343D01*
X10897844Y14990836D01*
X10812893Y15195925D01*
X10655926Y15352893D01*
X10450837Y15437843D01*
X10329344Y15437843D01*
X10189844Y15298343D01*
X9889844Y15298343D01*
X9750344Y15437843D01*
X9628851Y15437843D01*
X9423762Y15352893D01*
X9339844Y15268974D01*
X9339844Y15279843D01*
X9335710Y15300628D01*
X9309396Y15432917D01*
X9228859Y15553448D01*
X9229059Y15782351D01*
X9127410Y16028362D01*
X9125932Y16029843D01*
X10349844Y16029843D01*
X10502918Y16060291D01*
X10632687Y16147000D01*
X11426521Y16940834D01*
X11662352Y16940628D01*
X11908363Y17042277D01*
X12076221Y17209843D01*
X15483669Y17209843D01*
X15620335Y17072939D01*
X15620335Y17072939D01*
G37*
X15620335Y17072939D02*
X15866168Y16970860D01*
X16132352Y16970628D01*
X16140151Y16973850D01*
X16799844Y16314158D01*
X16799844Y15264653D01*
X16707410Y15488362D01*
X16519353Y15676747D01*
X16273520Y15778826D01*
X16007336Y15779058D01*
X15980511Y15767974D01*
X16008827Y15836167D01*
X16009059Y16102351D01*
X15907410Y16348362D01*
X15719353Y16536747D01*
X15473520Y16638826D01*
X15207336Y16639058D01*
X14961325Y16537409D01*
X14772940Y16349352D01*
X14670861Y16103519D01*
X14670629Y15837335D01*
X14692341Y15784788D01*
X11948620Y13041067D01*
X11877735Y12934981D01*
X11874225Y12917335D01*
X11852844Y12809843D01*
X11852844Y12359660D01*
X11787200Y12347308D01*
X11757844Y12328418D01*
X11757844Y12498845D01*
X11734846Y12498845D01*
X11757844Y12521843D01*
X11757844Y12580836D01*
X11672893Y12785925D01*
X11515926Y12942893D01*
X11310837Y13027843D01*
X11139344Y13027843D01*
X10999844Y12888343D01*
X10999844Y12382343D01*
X11023844Y12382343D01*
X11023844Y12207343D01*
X10999844Y12207343D01*
X10999844Y12119843D01*
X10607844Y12119843D01*
X10607844Y12148845D01*
X10599844Y12148845D01*
X10599844Y12207343D01*
X10575844Y12207343D01*
X10575844Y12256343D01*
X10607844Y12288343D01*
X10607844Y12680836D01*
X10599844Y12700150D01*
X10599844Y12888343D01*
X10460344Y13027843D01*
X10380975Y13027843D01*
X10365926Y13042892D01*
X10204741Y13109657D01*
X10204741Y13719843D01*
X10187309Y13812487D01*
X10181289Y13821843D01*
X10243846Y13821843D01*
X10243846Y13907341D01*
X10329344Y13821843D01*
X10450837Y13821843D01*
X10655926Y13906793D01*
X10812893Y14063761D01*
X10897844Y14268850D01*
X10897844Y14365343D01*
X10758344Y14504843D01*
X10189844Y14504843D01*
X10189844Y14405843D01*
X9889844Y14405843D01*
X9889844Y14504843D01*
X9815844Y14504843D01*
X9815844Y14754843D01*
X9889844Y14754843D01*
X9889844Y15298343D01*
X10189844Y15298343D01*
X10189844Y14754843D01*
X10758344Y14754843D01*
X10897844Y14894343D01*
X10897844Y14990836D01*
X10812893Y15195925D01*
X10655926Y15352893D01*
X10450837Y15437843D01*
X10329344Y15437843D01*
X10189844Y15298343D01*
X9889844Y15298343D01*
X9750344Y15437843D01*
X9628851Y15437843D01*
X9423762Y15352893D01*
X9339844Y15268974D01*
X9339844Y15279843D01*
X9335710Y15300628D01*
X9309396Y15432917D01*
X9228859Y15553448D01*
X9229059Y15782351D01*
X9127410Y16028362D01*
X9125932Y16029843D01*
X10349844Y16029843D01*
X10502918Y16060291D01*
X10632687Y16147000D01*
X11426521Y16940834D01*
X11662352Y16940628D01*
X11908363Y17042277D01*
X12076221Y17209843D01*
X15483669Y17209843D01*
X15620335Y17072939D01*
G36*
X2947001Y15367000D02*
X3076770Y15280291D01*
X3229844Y15249843D01*
X8013722Y15249843D01*
X8180335Y15082939D01*
X8410685Y14987289D01*
X8405029Y14979012D01*
X8384947Y14879843D01*
X8384947Y14379843D01*
X8395908Y14321592D01*
X8192001Y14117686D01*
X8105292Y13987917D01*
X8098689Y13954724D01*
X7999844Y13974740D01*
X7649844Y13974740D01*
X7557200Y13957308D01*
X7472112Y13902555D01*
X7415029Y13819012D01*
X7394947Y13719843D01*
X7394947Y13646843D01*
X7259844Y13646843D01*
X7134707Y13621952D01*
X7028620Y13551067D01*
X6799844Y13322291D01*
X6741068Y13381067D01*
X6634982Y13451952D01*
X6509844Y13476843D01*
X6250253Y13476843D01*
X6247309Y13492487D01*
X6192556Y13577575D01*
X6109013Y13634658D01*
X6009844Y13654740D01*
X5409844Y13654740D01*
X5408353Y13654459D01*
X5382893Y13715925D01*
X5225926Y13872893D01*
X5020837Y13957843D01*
X4899344Y13957843D01*
X4759844Y13818343D01*
X4759844Y13274843D01*
X4833844Y13274843D01*
X4833844Y13024843D01*
X4759844Y13024843D01*
X4759844Y12925843D01*
X4459844Y12925843D01*
X4459844Y13024843D01*
X4337844Y13024843D01*
X4337844Y13203845D01*
X4252346Y13203845D01*
X4323344Y13274843D01*
X4459844Y13274843D01*
X4459844Y13818343D01*
X4320344Y13957843D01*
X4198851Y13957843D01*
X3993762Y13872893D01*
X3952974Y13832105D01*
X3890837Y13857843D01*
X3794344Y13857843D01*
X3654844Y13718343D01*
X3654844Y13149843D01*
X3753844Y13149843D01*
X3753844Y12887343D01*
X3751844Y12885343D01*
X3751844Y12849843D01*
X3654844Y12849843D01*
X3654844Y12775843D01*
X3404844Y12775843D01*
X3404844Y12849843D01*
X2861344Y12849843D01*
X2731818Y12720317D01*
X2041299Y13410836D01*
X2721844Y13410836D01*
X2721844Y13289343D01*
X2861344Y13149843D01*
X3404844Y13149843D01*
X3404844Y13718343D01*
X3265344Y13857843D01*
X3168851Y13857843D01*
X2963762Y13772892D01*
X2806794Y13615925D01*
X2721844Y13410836D01*
X2041299Y13410836D01*
X16542Y15435593D01*
X16542Y15479199D01*
X172443Y15380824D01*
X372896Y15485965D01*
X660549Y15766106D01*
X819100Y16135003D01*
X700700Y16295100D01*
X16540Y16295100D01*
X16540Y16275100D01*
X-391460Y16275100D01*
X-391460Y16295100D01*
X-411460Y16295100D01*
X-411460Y16703100D01*
X-391460Y16703100D01*
X-391460Y16723100D01*
X16540Y16723100D01*
X16540Y16703100D01*
X700700Y16703100D01*
X819100Y16863197D01*
X660549Y17232094D01*
X610310Y17281021D01*
X638406Y17299100D01*
X1014901Y17299100D01*
X2947001Y15367000D01*
X2947001Y15367000D01*
G37*
X2947001Y15367000D02*
X3076770Y15280291D01*
X3229844Y15249843D01*
X8013722Y15249843D01*
X8180335Y15082939D01*
X8410685Y14987289D01*
X8405029Y14979012D01*
X8384947Y14879843D01*
X8384947Y14379843D01*
X8395908Y14321592D01*
X8192001Y14117686D01*
X8105292Y13987917D01*
X8098689Y13954724D01*
X7999844Y13974740D01*
X7649844Y13974740D01*
X7557200Y13957308D01*
X7472112Y13902555D01*
X7415029Y13819012D01*
X7394947Y13719843D01*
X7394947Y13646843D01*
X7259844Y13646843D01*
X7134707Y13621952D01*
X7028620Y13551067D01*
X6799844Y13322291D01*
X6741068Y13381067D01*
X6634982Y13451952D01*
X6509844Y13476843D01*
X6250253Y13476843D01*
X6247309Y13492487D01*
X6192556Y13577575D01*
X6109013Y13634658D01*
X6009844Y13654740D01*
X5409844Y13654740D01*
X5408353Y13654459D01*
X5382893Y13715925D01*
X5225926Y13872893D01*
X5020837Y13957843D01*
X4899344Y13957843D01*
X4759844Y13818343D01*
X4759844Y13274843D01*
X4833844Y13274843D01*
X4833844Y13024843D01*
X4759844Y13024843D01*
X4759844Y12925843D01*
X4459844Y12925843D01*
X4459844Y13024843D01*
X4337844Y13024843D01*
X4337844Y13203845D01*
X4252346Y13203845D01*
X4323344Y13274843D01*
X4459844Y13274843D01*
X4459844Y13818343D01*
X4320344Y13957843D01*
X4198851Y13957843D01*
X3993762Y13872893D01*
X3952974Y13832105D01*
X3890837Y13857843D01*
X3794344Y13857843D01*
X3654844Y13718343D01*
X3654844Y13149843D01*
X3753844Y13149843D01*
X3753844Y12887343D01*
X3751844Y12885343D01*
X3751844Y12849843D01*
X3654844Y12849843D01*
X3654844Y12775843D01*
X3404844Y12775843D01*
X3404844Y12849843D01*
X2861344Y12849843D01*
X2731818Y12720317D01*
X2041299Y13410836D01*
X2721844Y13410836D01*
X2721844Y13289343D01*
X2861344Y13149843D01*
X3404844Y13149843D01*
X3404844Y13718343D01*
X3265344Y13857843D01*
X3168851Y13857843D01*
X2963762Y13772892D01*
X2806794Y13615925D01*
X2721844Y13410836D01*
X2041299Y13410836D01*
X16542Y15435593D01*
X16542Y15479199D01*
X172443Y15380824D01*
X372896Y15485965D01*
X660549Y15766106D01*
X819100Y16135003D01*
X700700Y16295100D01*
X16540Y16295100D01*
X16540Y16275100D01*
X-391460Y16275100D01*
X-391460Y16295100D01*
X-411460Y16295100D01*
X-411460Y16703100D01*
X-391460Y16703100D01*
X-391460Y16723100D01*
X16540Y16723100D01*
X16540Y16703100D01*
X700700Y16703100D01*
X819100Y16863197D01*
X660549Y17232094D01*
X610310Y17281021D01*
X638406Y17299100D01*
X1014901Y17299100D01*
X2947001Y15367000D01*
G36*
X6664000Y21499000D02*
X8456000Y21499000D01*
X8456000Y21519000D01*
X8864000Y21519000D01*
X8864000Y21499000D01*
X8884000Y21499000D01*
X8884000Y21091000D01*
X8864000Y21091000D01*
X8864000Y19299000D01*
X8884000Y19299000D01*
X8884000Y18891000D01*
X8864000Y18891000D01*
X8864000Y18871000D01*
X8456000Y18871000D01*
X8456000Y18891000D01*
X6664000Y18891000D01*
X6664000Y18871000D01*
X6256000Y18871000D01*
X6256000Y18891000D01*
X6236000Y18891000D01*
X6236000Y19299000D01*
X6256000Y19299000D01*
X6256000Y21091000D01*
X6664000Y21091000D01*
X6664000Y19299000D01*
X8456000Y19299000D01*
X8456000Y21091000D01*
X6664000Y21091000D01*
X6256000Y21091000D01*
X6236000Y21091000D01*
X6236000Y21499000D01*
X6256000Y21499000D01*
X6256000Y21519000D01*
X6664000Y21519000D01*
X6664000Y21499000D01*
X6664000Y21499000D01*
G37*
X6664000Y21499000D02*
X8456000Y21499000D01*
X8456000Y21519000D01*
X8864000Y21519000D01*
X8864000Y21499000D01*
X8884000Y21499000D01*
X8884000Y21091000D01*
X8864000Y21091000D01*
X8864000Y19299000D01*
X8884000Y19299000D01*
X8884000Y18891000D01*
X8864000Y18891000D01*
X8864000Y18871000D01*
X8456000Y18871000D01*
X8456000Y18891000D01*
X6664000Y18891000D01*
X6664000Y18871000D01*
X6256000Y18871000D01*
X6256000Y18891000D01*
X6236000Y18891000D01*
X6236000Y19299000D01*
X6256000Y19299000D01*
X6256000Y21091000D01*
X6664000Y21091000D01*
X6664000Y19299000D01*
X8456000Y19299000D01*
X8456000Y21091000D01*
X6664000Y21091000D01*
X6256000Y21091000D01*
X6236000Y21091000D01*
X6236000Y21499000D01*
X6256000Y21499000D01*
X6256000Y21519000D01*
X6664000Y21519000D01*
X6664000Y21499000D01*
G36*
X15729396Y24547843D02*
X15704344Y24547843D01*
X15564844Y24408343D01*
X15564844Y23839843D01*
X16108344Y23839843D01*
X16247844Y23979343D01*
X16247844Y24029395D01*
X16862844Y23414395D01*
X16862844Y23385291D01*
X15944741Y22467188D01*
X15944741Y22889843D01*
X15944460Y22891334D01*
X16005926Y22916794D01*
X16162894Y23073761D01*
X16247844Y23278850D01*
X16247844Y23400343D01*
X16108344Y23539843D01*
X15564844Y23539843D01*
X15564844Y23465843D01*
X15314844Y23465843D01*
X15314844Y23539843D01*
X14771344Y23539843D01*
X14631844Y23400343D01*
X14631844Y23360857D01*
X14590837Y23377843D01*
X14469344Y23377843D01*
X14329844Y23238343D01*
X14329844Y22694843D01*
X14403844Y22694843D01*
X14403844Y22444843D01*
X14329844Y22444843D01*
X14329844Y22345843D01*
X14029844Y22345843D01*
X14029844Y22444843D01*
X13955844Y22444843D01*
X13955844Y22694843D01*
X14029844Y22694843D01*
X14029844Y23238343D01*
X13890344Y23377843D01*
X13768851Y23377843D01*
X13563762Y23292893D01*
X13406795Y23135925D01*
X13381327Y23074440D01*
X13379844Y23074740D01*
X12779844Y23074740D01*
X12764256Y23071807D01*
X13011068Y23318619D01*
X13081953Y23424705D01*
X13106844Y23549843D01*
X13106844Y23750026D01*
X13172488Y23762378D01*
X13257576Y23817131D01*
X13314659Y23900674D01*
X13334741Y23999843D01*
X13334741Y24100836D01*
X14631844Y24100836D01*
X14631844Y23979343D01*
X14771344Y23839843D01*
X15314844Y23839843D01*
X15314844Y24408343D01*
X15175344Y24547843D01*
X15078851Y24547843D01*
X14873762Y24462892D01*
X14716794Y24305925D01*
X14631844Y24100836D01*
X13334741Y24100836D01*
X13334741Y24399843D01*
X13334460Y24401334D01*
X13395926Y24426794D01*
X13552894Y24583761D01*
X13637844Y24788850D01*
X13637844Y24860343D01*
X13602346Y24895841D01*
X13637844Y24895841D01*
X13637844Y25025609D01*
X13740335Y24922939D01*
X13986168Y24820860D01*
X14252352Y24820628D01*
X14498363Y24922277D01*
X14686748Y25110334D01*
X14708552Y25162843D01*
X15114396Y25162843D01*
X15729396Y24547843D01*
X15729396Y24547843D01*
G37*
X15729396Y24547843D02*
X15704344Y24547843D01*
X15564844Y24408343D01*
X15564844Y23839843D01*
X16108344Y23839843D01*
X16247844Y23979343D01*
X16247844Y24029395D01*
X16862844Y23414395D01*
X16862844Y23385291D01*
X15944741Y22467188D01*
X15944741Y22889843D01*
X15944460Y22891334D01*
X16005926Y22916794D01*
X16162894Y23073761D01*
X16247844Y23278850D01*
X16247844Y23400343D01*
X16108344Y23539843D01*
X15564844Y23539843D01*
X15564844Y23465843D01*
X15314844Y23465843D01*
X15314844Y23539843D01*
X14771344Y23539843D01*
X14631844Y23400343D01*
X14631844Y23360857D01*
X14590837Y23377843D01*
X14469344Y23377843D01*
X14329844Y23238343D01*
X14329844Y22694843D01*
X14403844Y22694843D01*
X14403844Y22444843D01*
X14329844Y22444843D01*
X14329844Y22345843D01*
X14029844Y22345843D01*
X14029844Y22444843D01*
X13955844Y22444843D01*
X13955844Y22694843D01*
X14029844Y22694843D01*
X14029844Y23238343D01*
X13890344Y23377843D01*
X13768851Y23377843D01*
X13563762Y23292893D01*
X13406795Y23135925D01*
X13381327Y23074440D01*
X13379844Y23074740D01*
X12779844Y23074740D01*
X12764256Y23071807D01*
X13011068Y23318619D01*
X13081953Y23424705D01*
X13106844Y23549843D01*
X13106844Y23750026D01*
X13172488Y23762378D01*
X13257576Y23817131D01*
X13314659Y23900674D01*
X13334741Y23999843D01*
X13334741Y24100836D01*
X14631844Y24100836D01*
X14631844Y23979343D01*
X14771344Y23839843D01*
X15314844Y23839843D01*
X15314844Y24408343D01*
X15175344Y24547843D01*
X15078851Y24547843D01*
X14873762Y24462892D01*
X14716794Y24305925D01*
X14631844Y24100836D01*
X13334741Y24100836D01*
X13334741Y24399843D01*
X13334460Y24401334D01*
X13395926Y24426794D01*
X13552894Y24583761D01*
X13637844Y24788850D01*
X13637844Y24860343D01*
X13602346Y24895841D01*
X13637844Y24895841D01*
X13637844Y25025609D01*
X13740335Y24922939D01*
X13986168Y24820860D01*
X14252352Y24820628D01*
X14498363Y24922277D01*
X14686748Y25110334D01*
X14708552Y25162843D01*
X15114396Y25162843D01*
X15729396Y24547843D01*
G36*
X1054707Y24637734D02*
X1179844Y24612843D01*
X2538816Y24612843D01*
X3523040Y23628619D01*
X3629126Y23557734D01*
X3704167Y23542808D01*
X3691481Y23537566D01*
X3523623Y23370000D01*
X3520300Y23370000D01*
X3502556Y23397575D01*
X3419013Y23454658D01*
X3319844Y23474740D01*
X2719844Y23474740D01*
X2718353Y23474459D01*
X2692893Y23535925D01*
X2535926Y23692893D01*
X2330837Y23777843D01*
X2209344Y23777843D01*
X2069844Y23638343D01*
X2069844Y23094843D01*
X2143844Y23094843D01*
X2143844Y22844843D01*
X2069844Y22844843D01*
X2069844Y22745843D01*
X1769844Y22745843D01*
X1769844Y22844843D01*
X1695844Y22844843D01*
X1695844Y23094843D01*
X1769844Y23094843D01*
X1769844Y23638343D01*
X1630344Y23777843D01*
X1508851Y23777843D01*
X1303762Y23692893D01*
X1146795Y23535925D01*
X1061844Y23330836D01*
X1061844Y23234343D01*
X1122342Y23173845D01*
X1061844Y23173845D01*
X1061844Y23080291D01*
X1046844Y23095291D01*
X1046844Y24642988D01*
X1054707Y24637734D01*
X1054707Y24637734D01*
G37*
X1054707Y24637734D02*
X1179844Y24612843D01*
X2538816Y24612843D01*
X3523040Y23628619D01*
X3629126Y23557734D01*
X3704167Y23542808D01*
X3691481Y23537566D01*
X3523623Y23370000D01*
X3520300Y23370000D01*
X3502556Y23397575D01*
X3419013Y23454658D01*
X3319844Y23474740D01*
X2719844Y23474740D01*
X2718353Y23474459D01*
X2692893Y23535925D01*
X2535926Y23692893D01*
X2330837Y23777843D01*
X2209344Y23777843D01*
X2069844Y23638343D01*
X2069844Y23094843D01*
X2143844Y23094843D01*
X2143844Y22844843D01*
X2069844Y22844843D01*
X2069844Y22745843D01*
X1769844Y22745843D01*
X1769844Y22844843D01*
X1695844Y22844843D01*
X1695844Y23094843D01*
X1769844Y23094843D01*
X1769844Y23638343D01*
X1630344Y23777843D01*
X1508851Y23777843D01*
X1303762Y23692893D01*
X1146795Y23535925D01*
X1061844Y23330836D01*
X1061844Y23234343D01*
X1122342Y23173845D01*
X1061844Y23173845D01*
X1061844Y23080291D01*
X1046844Y23095291D01*
X1046844Y24642988D01*
X1054707Y24637734D01*
G36*
X12929844Y25199843D02*
X13003844Y25199843D01*
X13003844Y24999843D01*
X12929844Y24999843D01*
X12929844Y24899843D01*
X12629844Y24899843D01*
X12629844Y24999843D01*
X12555844Y24999843D01*
X12555844Y25199843D01*
X12629844Y25199843D01*
X12629844Y25299843D01*
X12929844Y25299843D01*
X12929844Y25199843D01*
X12929844Y25199843D01*
G37*
X12929844Y25199843D02*
X13003844Y25199843D01*
X13003844Y24999843D01*
X12929844Y24999843D01*
X12929844Y24899843D01*
X12629844Y24899843D01*
X12629844Y24999843D01*
X12555844Y24999843D01*
X12555844Y25199843D01*
X12629844Y25199843D01*
X12629844Y25299843D01*
X12929844Y25299843D01*
X12929844Y25199843D01*
G36*
X7263844Y25997343D02*
X7283844Y25997343D01*
X7283844Y25873343D01*
X7263844Y25853343D01*
X7263844Y25316343D01*
X7403344Y25176843D01*
X7670837Y25176843D01*
X7801844Y25231108D01*
X7801844Y25172343D01*
X7263844Y25172343D01*
X7263844Y25084843D01*
X6855844Y25084843D01*
X6855844Y25172343D01*
X6141344Y25172343D01*
X6001844Y25032843D01*
X6001844Y24973850D01*
X6004361Y24967774D01*
X5876844Y25095291D01*
X5876844Y25240026D01*
X5942488Y25252378D01*
X6027576Y25307131D01*
X6084659Y25390674D01*
X6086908Y25401779D01*
X6141344Y25347343D01*
X6158212Y25347343D01*
X6243762Y25261794D01*
X6448851Y25176843D01*
X6716344Y25176843D01*
X6855844Y25316343D01*
X6855844Y25853343D01*
X6835844Y25873343D01*
X6835844Y25997343D01*
X6855844Y25997343D01*
X6855844Y26084843D01*
X7263844Y26084843D01*
X7263844Y25997343D01*
X7263844Y25997343D01*
G37*
X7263844Y25997343D02*
X7283844Y25997343D01*
X7283844Y25873343D01*
X7263844Y25853343D01*
X7263844Y25316343D01*
X7403344Y25176843D01*
X7670837Y25176843D01*
X7801844Y25231108D01*
X7801844Y25172343D01*
X7263844Y25172343D01*
X7263844Y25084843D01*
X6855844Y25084843D01*
X6855844Y25172343D01*
X6141344Y25172343D01*
X6001844Y25032843D01*
X6001844Y24973850D01*
X6004361Y24967774D01*
X5876844Y25095291D01*
X5876844Y25240026D01*
X5942488Y25252378D01*
X6027576Y25307131D01*
X6084659Y25390674D01*
X6086908Y25401779D01*
X6141344Y25347343D01*
X6158212Y25347343D01*
X6243762Y25261794D01*
X6448851Y25176843D01*
X6716344Y25176843D01*
X6855844Y25316343D01*
X6855844Y25853343D01*
X6835844Y25873343D01*
X6835844Y25997343D01*
X6855844Y25997343D01*
X6855844Y26084843D01*
X7263844Y26084843D01*
X7263844Y25997343D01*
G36*
X8859844Y25409843D02*
X8985528Y25434843D01*
X9063844Y25434843D01*
X9063844Y25347343D01*
X9083844Y25347343D01*
X9083844Y25172343D01*
X9063844Y25172343D01*
X9063844Y25084843D01*
X8655844Y25084843D01*
X8655844Y25172343D01*
X8635844Y25172343D01*
X8635844Y25347343D01*
X8655844Y25347343D01*
X8655844Y25434843D01*
X8734160Y25434843D01*
X8859844Y25409843D01*
X8859844Y25409843D01*
G37*
X8859844Y25409843D02*
X8985528Y25434843D01*
X9063844Y25434843D01*
X9063844Y25347343D01*
X9083844Y25347343D01*
X9083844Y25172343D01*
X9063844Y25172343D01*
X9063844Y25084843D01*
X8655844Y25084843D01*
X8655844Y25172343D01*
X8635844Y25172343D01*
X8635844Y25347343D01*
X8655844Y25347343D01*
X8655844Y25434843D01*
X8734160Y25434843D01*
X8859844Y25409843D01*
G36*
X23066840Y29724395D02*
X23066840Y26368731D01*
X23017410Y26488362D01*
X22829353Y26676747D01*
X22583520Y26778826D01*
X22317336Y26779058D01*
X22071325Y26677409D01*
X21882940Y26489352D01*
X21780861Y26243519D01*
X21780780Y26150318D01*
X21732894Y26265925D01*
X21575926Y26422892D01*
X21370837Y26507843D01*
X21274344Y26507843D01*
X21134844Y26368343D01*
X21134844Y25799843D01*
X21678344Y25799843D01*
X21802618Y25924117D01*
X21882278Y25731324D01*
X21987696Y25625723D01*
X21770080Y25408107D01*
X21678344Y25499843D01*
X21134844Y25499843D01*
X21134844Y25425843D01*
X20884844Y25425843D01*
X20884844Y25499843D01*
X20785844Y25499843D01*
X20785844Y25799843D01*
X20884844Y25799843D01*
X20884844Y26368343D01*
X20745344Y26507843D01*
X20648851Y26507843D01*
X20443762Y26422892D01*
X20286794Y26265925D01*
X20201844Y26060836D01*
X20201844Y25939343D01*
X20287342Y25853845D01*
X20201844Y25853845D01*
X20201844Y25770110D01*
X20141068Y25861067D01*
X19621068Y26381067D01*
X19589576Y26402109D01*
X19537410Y26528362D01*
X19523597Y26542199D01*
X19531953Y26554705D01*
X19556844Y26679843D01*
X19556844Y27611804D01*
X19749209Y27419103D01*
X20300323Y27190261D01*
X20897059Y27189740D01*
X21448572Y27417620D01*
X21870897Y27839209D01*
X22099739Y28390323D01*
X22100260Y28987059D01*
X21872380Y29538572D01*
X21450791Y29960897D01*
X20899677Y30189739D01*
X20601840Y30189999D01*
X20728363Y30242277D01*
X20916748Y30430334D01*
X20938552Y30482843D01*
X22308392Y30482843D01*
X23066840Y29724395D01*
X23066840Y29724395D01*
G37*
X23066840Y29724395D02*
X23066840Y26368731D01*
X23017410Y26488362D01*
X22829353Y26676747D01*
X22583520Y26778826D01*
X22317336Y26779058D01*
X22071325Y26677409D01*
X21882940Y26489352D01*
X21780861Y26243519D01*
X21780780Y26150318D01*
X21732894Y26265925D01*
X21575926Y26422892D01*
X21370837Y26507843D01*
X21274344Y26507843D01*
X21134844Y26368343D01*
X21134844Y25799843D01*
X21678344Y25799843D01*
X21802618Y25924117D01*
X21882278Y25731324D01*
X21987696Y25625723D01*
X21770080Y25408107D01*
X21678344Y25499843D01*
X21134844Y25499843D01*
X21134844Y25425843D01*
X20884844Y25425843D01*
X20884844Y25499843D01*
X20785844Y25499843D01*
X20785844Y25799843D01*
X20884844Y25799843D01*
X20884844Y26368343D01*
X20745344Y26507843D01*
X20648851Y26507843D01*
X20443762Y26422892D01*
X20286794Y26265925D01*
X20201844Y26060836D01*
X20201844Y25939343D01*
X20287342Y25853845D01*
X20201844Y25853845D01*
X20201844Y25770110D01*
X20141068Y25861067D01*
X19621068Y26381067D01*
X19589576Y26402109D01*
X19537410Y26528362D01*
X19523597Y26542199D01*
X19531953Y26554705D01*
X19556844Y26679843D01*
X19556844Y27611804D01*
X19749209Y27419103D01*
X20300323Y27190261D01*
X20897059Y27189740D01*
X21448572Y27417620D01*
X21870897Y27839209D01*
X22099739Y28390323D01*
X22100260Y28987059D01*
X21872380Y29538572D01*
X21450791Y29960897D01*
X20899677Y30189739D01*
X20601840Y30189999D01*
X20728363Y30242277D01*
X20916748Y30430334D01*
X20938552Y30482843D01*
X22308392Y30482843D01*
X23066840Y29724395D01*
G36*
X2853844Y26273843D02*
X2873844Y26273843D01*
X2873844Y25865843D01*
X2853844Y25865843D01*
X2853844Y25845843D01*
X2445844Y25845843D01*
X2445844Y25865843D01*
X2425844Y25865843D01*
X2425844Y26273843D01*
X2445844Y26273843D01*
X2445844Y26293843D01*
X2853844Y26293843D01*
X2853844Y26273843D01*
X2853844Y26273843D01*
G37*
X2853844Y26273843D02*
X2873844Y26273843D01*
X2873844Y25865843D01*
X2853844Y25865843D01*
X2853844Y25845843D01*
X2445844Y25845843D01*
X2445844Y25865843D01*
X2425844Y25865843D01*
X2425844Y26273843D01*
X2445844Y26273843D01*
X2445844Y26293843D01*
X2853844Y26293843D01*
X2853844Y26273843D01*
M02*
