M48
;DRILL file {KiCad 4.0.2-stable} date 11/7/2016 10:49:41 PM
;FORMAT={2:4/ absolute / inch / keep zeros}
FMAT,2
INCH,TZ
T1C0.013
T2C0.020
T3C0.022
T4C0.038
T5C0.098
%
G90
G05
M72
T1
X-001260Y-000583
X-001169Y007453
X-001169Y002925
X-001169Y000366
X-000358Y005673
X000209Y013358
X000209Y012374
X000319Y-003378
X000433Y-002284
X000461Y004898
X000606Y002961
X000730Y005986
X000760Y009429
X000886Y008339
X000957Y007905
X000992Y002890
X001000Y007165
X001291Y012579
X001364Y008344
X001390Y013358
X001504Y-001933
X001602Y009043
X001653Y003268
X001744Y002433
X001783Y-003374
X001980Y001374
X002047Y009791
X002173Y002090
X002305Y005789
X002358Y011004
X002496Y-002575
X002543Y008384
X002543Y007518
X002594Y003279
X002665Y-000831
X002693Y001527
X003303Y-003646
X003370Y006161
X003409Y008384
X003409Y007518
X003500Y-002638
X003516Y012453
X003526Y013152
X003594Y000244
X003965Y-001717
X003992Y010587
X004016Y012394
X004161Y011319
X004342Y-000815
X004358Y003669
X004405Y009307
X004449Y-000217
X004539Y006933
X004547Y008720
X004752Y005457
X004819Y007870
X004864Y010514
X005031Y000090
X005067Y000701
X005146Y007610
X005232Y010295
X005370Y004602
X005390Y002394
X005453Y001976
X005524Y-002587
X005547Y007653
X005559Y010035
X005614Y007232
X005691Y013388
X005697Y011902
X005705Y012335
X005705Y003413
X005787Y001736
X005848Y005199
X005917Y003968
X005933Y010783
X006039Y006287
X006232Y001321
X006299Y006945
X006354Y005949
X006457Y004311
X006539Y009909
X006705Y000366
X006705Y-001012
X006772Y004559
X006774Y001852
X006827Y007090
X006941Y008638
X007008Y010402
X007307Y010661
X007374Y013130
X007468Y010295
X007646Y012630
X008012Y012130
X008839Y010279
X008870Y013358
X009012Y005319
X009016Y004031
X009118Y004685
X009539Y006417
X009618Y003661
X009685Y006047
X009783Y005665
X009785Y011104
X009785Y009333
X009957Y007992
X009961Y008405
X009961Y007590
X009968Y003457
X009996Y007177
X010012Y004716
X010016Y005138
T4
X005701Y012872
X005701Y011372
T5
X-000984Y012850
X-000984Y-003150
X000000Y000000
X008110Y011295
X009516Y012850
X009516Y-003150
T2
X-001265Y008858G85X-001009Y008858
G05
X-001265Y006102G85X-001009Y006102
G05
X-001265Y004330G85X-001009Y004330
G05
X-001265Y001574G85X-001009Y001574
G05
T3
X-000074Y008523G85X-000074Y008405
G05
X-000074Y006555G85X-000074Y006437
G05
X-000074Y003996G85X-000074Y003878
G05
X-000074Y002027G85X-000074Y001909
G05
T0
M30
