G04 #@! TF.FileFunction,Copper,L1,Top,Signal*
%FSLAX46Y46*%
G04 Gerber Fmt 4.6, Leading zero omitted, Abs format (unit mm)*
G04 Created by KiCad (PCBNEW 4.0.2-stable) date 7/26/2016 9:47:51 PM*
%MOMM*%
G01*
G04 APERTURE LIST*
%ADD10C,0.100000*%
%ADD11C,0.838200*%
%ADD12O,1.300000X1.300000*%
%ADD13O,1.550000X1.300000*%
%ADD14R,0.800100X0.800100*%
%ADD15R,1.430000X0.200000*%
%ADD16C,0.970000*%
%ADD17R,0.750000X0.800000*%
%ADD18C,0.154000*%
%ADD19C,0.300000*%
G04 APERTURE END LIST*
D10*
D11*
X8929844Y31629843D03*
X8954844Y33404843D03*
X14454844Y34004843D03*
X24854844Y28204843D03*
X24854844Y23704843D03*
X12354844Y26704843D03*
X5854844Y14704843D03*
X1854844Y15204843D03*
X-645156Y13204843D03*
X14854844Y13204843D03*
X17204844Y4704843D03*
X22529844Y33929843D03*
X11029844Y-2070157D03*
X17029844Y929843D03*
X17029844Y-2570157D03*
X7854844Y-3720157D03*
X14029844Y-6570157D03*
X4529844Y-8570157D03*
X-2970156Y7429843D03*
X-2970156Y18929843D03*
X529844Y31429843D03*
X3529844Y31429843D03*
X3529844Y33929843D03*
X529844Y33929843D03*
D12*
X-187460Y16499100D03*
X-187460Y21499100D03*
D13*
X-2887460Y15499100D03*
X-2887460Y22499100D03*
D12*
X-187460Y4999100D03*
X-187460Y9999100D03*
D13*
X-2887460Y3999100D03*
X-2887460Y10999100D03*
D14*
X-1370156Y28720603D03*
X-3270156Y28720603D03*
X-2320156Y26721623D03*
D15*
X21405000Y11500000D03*
X21405000Y11900000D03*
X21405000Y12300000D03*
X21405000Y12700000D03*
X21405000Y13100000D03*
X21405000Y13500000D03*
X21405000Y13900000D03*
X21405000Y14300000D03*
X21405000Y14700000D03*
X21405000Y15100000D03*
X21405000Y15500000D03*
X21405000Y15900000D03*
X21405000Y16300000D03*
X21405000Y16700000D03*
X21405000Y17100000D03*
X21405000Y17500000D03*
X21405000Y17900000D03*
X21405000Y18300000D03*
X21405000Y18700000D03*
X21405000Y19100000D03*
X21405000Y19500000D03*
X21405000Y19900000D03*
X21405000Y20300000D03*
X21405000Y20700000D03*
X21405000Y21100000D03*
X21405000Y21500000D03*
X21405000Y21900000D03*
X21405000Y22300000D03*
X21405000Y22700000D03*
X21405000Y23100000D03*
X21405000Y23500000D03*
X21405000Y23900000D03*
X21405000Y24300000D03*
X21405000Y24700000D03*
X21405000Y25100000D03*
X19055000Y11500000D03*
X19055000Y11900000D03*
X19055000Y12300000D03*
X19055000Y12700000D03*
X19055000Y13100000D03*
X19055000Y13500000D03*
X19055000Y13900000D03*
X19055000Y14300000D03*
X19055000Y14700000D03*
X19055000Y15100000D03*
X19055000Y15500000D03*
X19055000Y15900000D03*
X19055000Y16300000D03*
X19055000Y16700000D03*
X19055000Y17100000D03*
X19055000Y17500000D03*
X19055000Y17900000D03*
X19055000Y18300000D03*
X19055000Y18700000D03*
X19055000Y19100000D03*
X19055000Y19500000D03*
X19055000Y19900000D03*
X19055000Y20300000D03*
X19055000Y20700000D03*
X19055000Y21100000D03*
X19055000Y21500000D03*
X19055000Y21900000D03*
X19055000Y22300000D03*
X19055000Y22700000D03*
X19055000Y23100000D03*
X19055000Y23500000D03*
X19055000Y23900000D03*
X19055000Y24300000D03*
X19055000Y24700000D03*
X19055000Y25100000D03*
D16*
X14479844Y32714843D03*
X14479844Y28904843D03*
D17*
X-1445156Y25654843D03*
X-1445156Y24154843D03*
X-3020156Y25654843D03*
X-3020156Y24154843D03*
D11*
X-2970156Y929843D03*
X4689844Y3949843D03*
X4099844Y-600157D03*
X12779844Y229843D03*
X9129844Y619843D03*
X8660000Y21295000D03*
X10139844Y26889843D03*
X8660000Y19095000D03*
X6460000Y19095000D03*
X6460000Y21295000D03*
X2249844Y21179843D03*
X12069844Y13859843D03*
X13639844Y11689843D03*
X22889844Y13509843D03*
X9054844Y-4495157D03*
X4019844Y-4720157D03*
X5854844Y-6345157D03*
X15829844Y3354843D03*
X7129844Y14479843D03*
X25439844Y13049843D03*
X25389844Y18229843D03*
X15029844Y10079843D03*
X11069844Y9319843D03*
X6589844Y8329843D03*
X11299844Y-550157D03*
X-3200156Y-1480157D03*
X17799844Y26419843D03*
X15069844Y27389843D03*
X10569844Y28749843D03*
X3249844Y21409843D03*
X2429844Y20079843D03*
X18969844Y26149843D03*
X14469844Y30229843D03*
X13289844Y26149843D03*
X14259844Y18369843D03*
X16609844Y25169843D03*
X20349844Y30809843D03*
X14089844Y19439843D03*
X14489844Y31329843D03*
X14119844Y25489843D03*
X13069844Y19329843D03*
X19419844Y32079843D03*
X18729844Y33349843D03*
X12239844Y19989843D03*
X4429844Y6179843D03*
X23159844Y11899843D03*
X14489844Y8669843D03*
X24429844Y9299843D03*
X13849844Y5019843D03*
X5519844Y5309843D03*
X25319844Y8779843D03*
X14699844Y4409843D03*
X6839844Y3879843D03*
X1539844Y7519843D03*
X2519844Y7339843D03*
X13689844Y6079843D03*
X16399844Y10949843D03*
X16139844Y15109843D03*
X8559844Y15649843D03*
X17629844Y21939843D03*
X24849844Y14389843D03*
X25299844Y19279843D03*
X25289844Y20299843D03*
X25299844Y21349843D03*
X24229844Y16299843D03*
X24599844Y15359843D03*
X25429844Y11979843D03*
X15339844Y15969843D03*
X15999844Y17639843D03*
X18559844Y27079843D03*
X22449844Y26109843D03*
X5749844Y25309843D03*
X10199844Y31479843D03*
X17199844Y11579843D03*
X11189844Y23639843D03*
X11549844Y22149843D03*
X11529844Y17609843D03*
X4070000Y22970000D03*
X2539844Y18199843D03*
X7399844Y-4730157D03*
X2469844Y-3820157D03*
D18*
X4689844Y-10157D02*
X4689844Y3949843D01*
X4099844Y-600157D02*
X4689844Y-10157D01*
X9509844Y239843D02*
X12779844Y229843D01*
X9129844Y619843D02*
X9509844Y239843D01*
X7819844Y22135156D02*
X7819844Y24569843D01*
X8660000Y21295000D02*
X7819844Y22135156D01*
X7819844Y24569843D02*
X10139844Y26889843D01*
X8660000Y19095000D02*
X8694843Y19129843D01*
X8694843Y19129843D02*
X8709844Y19129843D01*
X6460000Y19095000D02*
X6495157Y19059843D01*
X6495157Y19059843D02*
X7789844Y19059843D01*
X2249844Y21619843D02*
X2249844Y21179843D01*
X2849844Y22219843D02*
X2249844Y21619843D01*
X5535157Y22219843D02*
X2849844Y22219843D01*
X6460000Y21295000D02*
X5535157Y22219843D01*
X12069844Y13259843D02*
X12069844Y13859843D01*
X13639844Y11689843D02*
X12069844Y13259843D01*
X22719844Y13679843D02*
X22649844Y13679843D01*
X22889844Y13509843D02*
X22719844Y13679843D01*
X21405000Y11500000D02*
X22139687Y11500000D01*
X23119687Y13100000D02*
X22620001Y13100000D01*
X23879844Y12339843D02*
X23119687Y13100000D01*
X23879844Y11359843D02*
X23879844Y12339843D01*
X23489844Y10969843D02*
X23879844Y11359843D01*
X22669844Y10969843D02*
X23489844Y10969843D01*
X22139687Y11500000D02*
X22669844Y10969843D01*
X21405000Y12300000D02*
X22490001Y12300000D01*
X22719844Y12529843D02*
X22719844Y13199843D01*
X22490001Y12300000D02*
X22719844Y12529843D01*
X21405000Y13500000D02*
X22470001Y13500000D01*
X22470001Y13500000D02*
X22649844Y13679843D01*
X22649844Y13679843D02*
X22719844Y13749843D01*
X21405000Y13900000D02*
X22620001Y13900000D01*
X22620001Y13900000D02*
X22719844Y13999843D01*
X21405000Y14300000D02*
X22419687Y14300000D01*
X22620001Y13100000D02*
X21405000Y13100000D01*
X22719844Y13199843D02*
X22620001Y13100000D01*
X22719844Y13999843D02*
X22719844Y13749843D01*
X22719844Y13749843D02*
X22719844Y13199843D01*
X22419687Y14300000D02*
X22719844Y13999843D01*
D19*
X7989844Y-5560157D02*
X9054844Y-4495157D01*
X4859844Y-5560157D02*
X4019844Y-4720157D01*
X4859844Y-5560157D02*
X7989844Y-5560157D01*
X-4010156Y23364843D02*
X-4010156Y25314843D01*
X5849844Y-6340157D02*
X5854844Y-6345157D01*
X-690156Y-6340157D02*
X4939844Y-6340157D01*
X-4010156Y23364843D02*
X-4010156Y-3020157D01*
X-4010156Y-3020157D02*
X-690156Y-6340157D01*
X4939844Y-6340157D02*
X5849844Y-6340157D01*
X-3670156Y25654843D02*
X-3020156Y25654843D01*
X-4010156Y25314843D02*
X-3670156Y25654843D01*
X-3020156Y25654843D02*
X-3020156Y26504843D01*
X-3020156Y26504843D02*
X-2803376Y26721623D01*
X-2803376Y26721623D02*
X-2320156Y26721623D01*
X15839844Y5589843D02*
X15839844Y3364843D01*
D18*
X17939844Y11339843D02*
X17939844Y10949843D01*
D19*
X15839844Y5589843D02*
X17059844Y6809843D01*
X17059844Y10069843D02*
X17059844Y6809843D01*
X17939844Y10949843D02*
X17059844Y10069843D01*
X15839844Y3364843D02*
X15829844Y3354843D01*
D18*
X19055000Y11500000D02*
X18100001Y11500000D01*
X18100001Y11500000D02*
X17939844Y11339843D01*
X19055000Y11900000D02*
X17990001Y11900000D01*
X17990001Y11900000D02*
X17939844Y11849843D01*
X17939844Y12049843D02*
X17939844Y11849843D01*
X17939844Y11849843D02*
X17939844Y11339843D01*
X18190001Y12300000D02*
X17939844Y12049843D01*
X18300000Y12300000D02*
X19055000Y12300000D01*
X18300000Y12300000D02*
X18190001Y12300000D01*
D19*
X6589844Y8329843D02*
X6589844Y13939843D01*
X6589844Y13939843D02*
X7129844Y14479843D01*
D18*
X25649844Y17969843D02*
X25389844Y18229843D01*
X25649844Y13259843D02*
X25649844Y17969843D01*
X25439844Y13049843D02*
X25649844Y13259843D01*
D19*
X15029844Y10079843D02*
X15029844Y10619843D01*
X15029844Y10619843D02*
X17909844Y13499843D01*
D18*
X17909844Y13499843D02*
X19054843Y13499843D01*
X19054843Y13499843D02*
X19055000Y13500000D01*
D19*
X6599844Y8319843D02*
X6589844Y8329843D01*
X10069844Y8319843D02*
X6599844Y8319843D01*
X10069844Y8319843D02*
X11069844Y9319843D01*
D18*
X8869844Y-2980157D02*
X11299844Y-550157D01*
X-1700156Y-2980157D02*
X8869844Y-2980157D01*
X-3200156Y-1480157D02*
X-1700156Y-2980157D01*
X17269844Y25719843D02*
X17269844Y25889843D01*
X17269844Y25889843D02*
X17799844Y26419843D01*
X14409844Y27389843D02*
X15069844Y27389843D01*
X13049844Y28749843D02*
X14409844Y27389843D01*
X10569844Y28749843D02*
X13049844Y28749843D01*
X3249844Y21409843D02*
X3249844Y19695423D01*
X3249844Y19695423D02*
X6087422Y16857845D01*
X6087422Y16857845D02*
X13767846Y16857845D01*
X13767846Y16857845D02*
X15289844Y18379843D01*
X15289844Y18379843D02*
X15289844Y22869843D01*
X15289844Y22909843D02*
X15289844Y22869843D01*
X17269844Y24889843D02*
X15289844Y22909843D01*
X17269844Y25729843D02*
X17269844Y25719843D01*
X17269844Y25719843D02*
X17269844Y24889843D01*
X17629844Y25069843D02*
X17629844Y25435423D01*
X17629844Y24739843D02*
X17629844Y25069843D01*
X5959844Y16549843D02*
X10389844Y16549843D01*
X2429844Y20079843D02*
X5959844Y16549843D01*
X15597846Y22707845D02*
X17539844Y24649843D01*
X15597846Y18252265D02*
X15597846Y22707845D01*
X13895424Y16549843D02*
X15597846Y18252265D01*
X10389844Y16549843D02*
X13895424Y16549843D01*
X17539844Y24649843D02*
X17629844Y24739843D01*
X18617846Y25797845D02*
X18969844Y26149843D01*
X17992266Y25797845D02*
X18617846Y25797845D01*
X17629844Y25435423D02*
X17992266Y25797845D01*
X15999052Y30229843D02*
X16579052Y29649843D01*
X16579052Y29649843D02*
X16579052Y27880211D01*
X16579052Y27880211D02*
X14858684Y26159843D01*
X14858684Y26159843D02*
X14469844Y26159843D01*
X14469844Y30229843D02*
X15999052Y30229843D01*
X13299844Y26159843D02*
X14469844Y26159843D01*
X13289844Y26149843D02*
X13299844Y26159843D01*
X14859844Y18969843D02*
X14259844Y18369843D01*
X14859844Y23419843D02*
X14859844Y18969843D01*
X16609844Y25169843D02*
X14859844Y23419843D01*
X19009844Y29469843D02*
X19009844Y28559843D01*
X20349844Y30809843D02*
X19009844Y29469843D01*
X14069844Y23529843D02*
X14089844Y23529843D01*
X14089844Y23549843D02*
X14069844Y23529843D01*
X14089844Y23639843D02*
X14089844Y23549843D01*
X19009844Y28559843D02*
X14089844Y23639843D01*
X14089844Y21954263D02*
X14089844Y23529843D01*
X14089844Y19439843D02*
X14089844Y21954263D01*
X14089844Y23529843D02*
X14089844Y23648683D01*
X14754264Y25619843D02*
X14624264Y25489843D01*
X15819844Y31329843D02*
X16887054Y30262633D01*
X16887054Y30262633D02*
X16887054Y27752633D01*
X16887054Y27752633D02*
X14754264Y25619843D01*
X14489844Y31329843D02*
X15819844Y31329843D01*
X14624264Y25489843D02*
X14119844Y25489843D01*
X13069844Y21369843D02*
X13069844Y23064263D01*
X13069844Y19329843D02*
X13069844Y21169843D01*
X13069844Y21169843D02*
X13069844Y21369843D01*
X18701842Y28696261D02*
X18701842Y28689843D01*
X13069844Y23064263D02*
X18701842Y28696261D01*
X19039844Y31699843D02*
X18701842Y31361841D01*
X19419844Y32079843D02*
X19039844Y31699843D01*
X18701842Y31361841D02*
X18701842Y28689843D01*
X18349844Y28779843D02*
X18349844Y32969843D01*
X18729844Y33349843D02*
X18393840Y33013839D01*
X12239844Y22669843D02*
X18349844Y28779843D01*
X12239844Y19989843D02*
X12239844Y21089843D01*
X12239844Y21089843D02*
X12239844Y22669843D01*
X18349844Y32969843D02*
X18393840Y33013839D01*
X4629844Y5979843D02*
X4429844Y6179843D01*
X23159844Y11899843D02*
X21405157Y11899843D01*
X11619844Y5979843D02*
X11709844Y5979843D01*
X5289844Y5979843D02*
X11619844Y5979843D01*
X5289844Y5979843D02*
X4629844Y5979843D01*
X11799844Y5979843D02*
X11709844Y5979843D01*
X14489844Y8669843D02*
X11799844Y5979843D01*
X21405157Y11899843D02*
X21405000Y11900000D01*
X23581842Y13407845D02*
X23581842Y13073425D01*
X6329844Y5019843D02*
X5809844Y5019843D01*
X13849844Y5019843D02*
X6329844Y5019843D01*
X21405000Y15100000D02*
X22434107Y15100000D01*
X23581842Y13952265D02*
X22434107Y15100000D01*
X23581842Y13407845D02*
X23581842Y13952265D01*
X5809844Y5019843D02*
X5519844Y5309843D01*
X24187846Y9541841D02*
X24429844Y9299843D01*
X24187846Y12467421D02*
X24187846Y9541841D01*
X23581842Y13073425D02*
X24187846Y12467421D01*
X23889844Y13579843D02*
X23889844Y13201003D01*
X21405000Y15500000D02*
X22469687Y15500000D01*
X23889844Y14079843D02*
X23889844Y13579843D01*
X22469687Y15500000D02*
X23889844Y14079843D01*
X14169844Y3879843D02*
X14699844Y4409843D01*
X6839844Y3879843D02*
X14169844Y3879843D01*
X25319844Y8779843D02*
X25319844Y10539843D01*
X24495848Y11363839D02*
X25319844Y10539843D01*
X24495848Y12594999D02*
X24495848Y11363839D01*
X23889844Y13201003D02*
X24495848Y12594999D01*
X18150001Y14300000D02*
X19055000Y14300000D01*
X10881842Y7031841D02*
X18150001Y14300000D01*
X3821842Y7031841D02*
X10881842Y7031841D01*
X3429844Y6639843D02*
X3821842Y7031841D01*
X2249844Y6639843D02*
X3429844Y6639843D01*
X1539844Y7349843D02*
X2249844Y6639843D01*
X1539844Y7519843D02*
X1539844Y7349843D01*
X19055000Y14700000D02*
X18100001Y14700000D01*
X10739844Y7339843D02*
X2519844Y7339843D01*
X18100001Y14700000D02*
X10739844Y7339843D01*
D19*
X16399844Y10419843D02*
X16399844Y10949843D01*
X16399844Y8789843D02*
X16399844Y10419843D01*
X13689844Y6079843D02*
X16399844Y8789843D01*
X16139844Y15109843D02*
X16139844Y15100000D01*
X16139844Y15100000D02*
X16139844Y15109843D01*
X16139844Y15109843D02*
X16139844Y15100000D01*
X17520001Y15100000D02*
X16139844Y15100000D01*
X16139844Y15100000D02*
X12529687Y15100000D01*
X11979844Y15649843D02*
X8559844Y15649843D01*
X12529687Y15100000D02*
X11979844Y15649843D01*
D18*
X19055000Y15100000D02*
X17520001Y15100000D01*
X17520001Y15100000D02*
X17519844Y15099843D01*
X19055000Y20700000D02*
X18129687Y20700000D01*
X17629844Y21199843D02*
X17629844Y21939843D01*
X18129687Y20700000D02*
X17629844Y21199843D01*
X25319844Y16149843D02*
X25319844Y14859843D01*
X24407846Y19011841D02*
X24407846Y17061841D01*
X24407846Y17061841D02*
X25279844Y16189843D01*
X23279687Y21900000D02*
X21405000Y21900000D01*
X23899844Y21279843D02*
X23899844Y19519843D01*
X23279687Y21900000D02*
X23899844Y21279843D01*
X23899844Y19519843D02*
X24407846Y19011841D01*
X25279844Y16189843D02*
X25319844Y16149843D01*
X25319844Y14859843D02*
X24849844Y14389843D01*
X24281842Y21367845D02*
X24281842Y20297845D01*
X24281842Y20297845D02*
X25299844Y19279843D01*
X21405000Y22300000D02*
X23349687Y22300000D01*
X23349687Y22300000D02*
X23909844Y21739843D01*
X23909844Y21739843D02*
X24281842Y21367845D01*
X24589844Y21569843D02*
X24589844Y20999843D01*
X23459687Y22700000D02*
X24589844Y21569843D01*
X21405000Y22700000D02*
X23459687Y22700000D01*
X24589844Y20999843D02*
X25289844Y20299843D01*
X21405000Y23100000D02*
X23549687Y23100000D01*
X23549687Y23100000D02*
X25299844Y21349843D01*
X24099844Y18779843D02*
X24099844Y16429843D01*
X22979687Y19900000D02*
X24099844Y18779843D01*
X21405000Y19900000D02*
X22979687Y19900000D01*
X24099844Y16429843D02*
X24229844Y16299843D01*
X23759844Y18359843D02*
X23759844Y16799843D01*
X23759844Y16799843D02*
X23559844Y16599843D01*
X23559844Y16599843D02*
X23559844Y15979843D01*
X23559844Y15979843D02*
X24179844Y15359843D01*
X24179844Y15359843D02*
X24599844Y15359843D01*
X21405000Y19500000D02*
X22619687Y19500000D01*
X22619687Y19500000D02*
X23419844Y18699843D01*
X23419844Y18699843D02*
X23759844Y18359843D01*
X24197846Y13707421D02*
X24197846Y13328581D01*
X23179844Y15225423D02*
X24197846Y14207421D01*
X24197846Y14207421D02*
X24197846Y13707421D01*
X22599687Y16700000D02*
X23179844Y16119843D01*
X23179844Y16119843D02*
X23179844Y15629843D01*
X21405000Y16700000D02*
X22599687Y16700000D01*
X23179844Y15629843D02*
X23179844Y15225423D01*
X24803850Y12605837D02*
X25429844Y11979843D01*
X24803850Y12722577D02*
X24803850Y12605837D01*
X24197846Y13328581D02*
X24803850Y12722577D01*
X18159687Y15500000D02*
X19055000Y15500000D01*
X18159687Y15500000D02*
X17689844Y15969843D01*
X17689844Y15969843D02*
X15339844Y15969843D01*
D19*
X-1445156Y25654843D02*
X1204844Y25654843D01*
X1549844Y25309843D02*
X5749844Y25309843D01*
X1204844Y25654843D02*
X1549844Y25309843D01*
X-3020156Y27719843D02*
X-1635156Y27719843D01*
X-3270156Y28720603D02*
X-3270156Y27969843D01*
X-3020156Y27719843D02*
X-3270156Y27969843D01*
X-1445156Y27529843D02*
X-1445156Y25654843D01*
X-1635156Y27719843D02*
X-1445156Y27529843D01*
D18*
X19349844Y25489843D02*
X18119844Y25489843D01*
X19929844Y26069843D02*
X19349844Y25489843D01*
X19929844Y26729843D02*
X19929844Y26069843D01*
X15905848Y17733839D02*
X15999844Y17639843D01*
X15905848Y22580267D02*
X15905848Y17733839D01*
X17937846Y24612265D02*
X15905848Y22580267D01*
X17937846Y25307845D02*
X17937846Y24612265D01*
X18119844Y25489843D02*
X17937846Y25307845D01*
X18559844Y27079843D02*
X19579844Y27079843D01*
X21829844Y26729843D02*
X22449844Y26109843D01*
X19929844Y26729843D02*
X21829844Y26729843D01*
X19579844Y27079843D02*
X19929844Y26729843D01*
D19*
X4070000Y22970000D02*
X4070000Y23629999D01*
X4070000Y23629999D02*
X5749844Y25309843D01*
X10199844Y31479843D02*
X9819844Y31099843D01*
X11189844Y27569843D02*
X11189844Y23639843D01*
X10949844Y27809843D02*
X11189844Y27569843D01*
X10339844Y27809843D02*
X10949844Y27809843D01*
X9819844Y28329843D02*
X10339844Y27809843D01*
X9819844Y31099843D02*
X9819844Y28329843D01*
X17199844Y12069843D02*
X17199844Y11579843D01*
D18*
X17809844Y12679843D02*
X17609844Y12479843D01*
D19*
X17609844Y12479843D02*
X17199844Y12069843D01*
D18*
X19055000Y12700000D02*
X17830001Y12700000D01*
X17809844Y12699843D02*
X17809844Y12679843D01*
X17829844Y12699843D02*
X17809844Y12699843D01*
X17830001Y12700000D02*
X17829844Y12699843D01*
X19055000Y13100000D02*
X18230001Y13100000D01*
X18230001Y13100000D02*
X17809844Y12679843D01*
D19*
X11549844Y22149843D02*
X11549844Y23279843D01*
X11549844Y23279843D02*
X11189844Y23639843D01*
X11129844Y21729843D02*
X11549844Y22149843D01*
X11129844Y18009843D02*
X11129844Y21729843D01*
X11529844Y17609843D02*
X11129844Y18009843D01*
X1499844Y19239843D02*
X2539844Y18199843D01*
X1499844Y21769843D02*
X1499844Y19239843D01*
X2700001Y22970000D02*
X1499844Y21769843D01*
X2700001Y22970000D02*
X4070000Y22970000D01*
D18*
X6489844Y-3820157D02*
X7399844Y-4730157D01*
X2469844Y-3820157D02*
X6489844Y-3820157D01*
D10*
G36*
X21743236Y26283292D02*
X21730869Y26253508D01*
X21730619Y25967433D01*
X21839865Y25703038D01*
X22036682Y25505877D01*
X20690000Y25505877D01*
X20578827Y25484958D01*
X20476721Y25419255D01*
X20408222Y25319003D01*
X20384123Y25200000D01*
X20384123Y25000000D01*
X20403630Y24896329D01*
X20384123Y24800000D01*
X20384123Y24600000D01*
X20403630Y24496329D01*
X20384123Y24400000D01*
X20384123Y24200000D01*
X20403630Y24096329D01*
X20384123Y24000000D01*
X20384123Y23800000D01*
X20403630Y23696329D01*
X20384123Y23600000D01*
X20384123Y23400000D01*
X20403630Y23296329D01*
X20384123Y23200000D01*
X20384123Y23000000D01*
X20403630Y22896329D01*
X20384123Y22800000D01*
X20384123Y22600000D01*
X20403630Y22496329D01*
X20384123Y22400000D01*
X20384123Y22200000D01*
X20403630Y22096329D01*
X20384123Y22000000D01*
X20384123Y21800000D01*
X20403630Y21696329D01*
X20384123Y21600000D01*
X20384123Y21400000D01*
X20403630Y21296329D01*
X20384123Y21200000D01*
X20384123Y21000000D01*
X20403630Y20896329D01*
X20384123Y20800000D01*
X20384123Y20600000D01*
X20403630Y20496329D01*
X20384123Y20400000D01*
X20384123Y20200000D01*
X20403630Y20096329D01*
X20384123Y20000000D01*
X20384123Y19800000D01*
X20403630Y19696329D01*
X20384123Y19600000D01*
X20384123Y19400000D01*
X20403630Y19296329D01*
X20384123Y19200000D01*
X20384123Y19000000D01*
X20403630Y18896329D01*
X20384123Y18800000D01*
X20384123Y18600000D01*
X20403630Y18496329D01*
X20384123Y18400000D01*
X20384123Y18200000D01*
X20403630Y18096329D01*
X20384123Y18000000D01*
X20384123Y17800000D01*
X20403630Y17696329D01*
X20384123Y17600000D01*
X20384123Y17400000D01*
X20403630Y17296329D01*
X20384123Y17200000D01*
X20384123Y17000000D01*
X20403630Y16896329D01*
X20384123Y16800000D01*
X20384123Y16600000D01*
X20403630Y16496329D01*
X20384123Y16400000D01*
X20384123Y16200000D01*
X20403630Y16096329D01*
X20384123Y16000000D01*
X20384123Y15800000D01*
X20403630Y15696329D01*
X20384123Y15600000D01*
X20384123Y15400000D01*
X20403630Y15296329D01*
X20384123Y15200000D01*
X20384123Y15000000D01*
X20403630Y14896329D01*
X20401205Y14884353D01*
X20373918Y14873050D01*
X20216951Y14716082D01*
X20132000Y14510993D01*
X20132000Y14489500D01*
X20261184Y14360316D01*
X20216951Y14316082D01*
X20132000Y14110993D01*
X20132000Y14089007D01*
X20210290Y13900000D01*
X20132000Y13710993D01*
X20132000Y13689007D01*
X20210290Y13500000D01*
X20132000Y13310993D01*
X20132000Y13289007D01*
X20216951Y13083918D01*
X20261184Y13039684D01*
X20132000Y12910500D01*
X20132000Y12889007D01*
X20210290Y12700000D01*
X20132000Y12510993D01*
X20132000Y12489500D01*
X20271500Y12350000D01*
X20524488Y12350000D01*
X20570997Y12318222D01*
X20659914Y12300216D01*
X20578827Y12284958D01*
X20524500Y12250000D01*
X20271500Y12250000D01*
X20132000Y12110500D01*
X20132000Y12089007D01*
X20210290Y11900000D01*
X20132000Y11710993D01*
X20132000Y11689500D01*
X20271500Y11550000D01*
X20524488Y11550000D01*
X20570997Y11518222D01*
X20690000Y11494123D01*
X21629000Y11494123D01*
X21629000Y11450000D01*
X21609000Y11450000D01*
X21609000Y10981500D01*
X21748500Y10842000D01*
X22230993Y10842000D01*
X22436082Y10926950D01*
X22593049Y11083918D01*
X22678000Y11289007D01*
X22678000Y11364679D01*
X22751975Y11290575D01*
X23016179Y11180868D01*
X23302254Y11180618D01*
X23566649Y11289864D01*
X23769112Y11491974D01*
X23810846Y11592481D01*
X23810846Y9684280D01*
X23710869Y9443508D01*
X23710619Y9157433D01*
X23819865Y8893038D01*
X24021975Y8690575D01*
X24286179Y8580868D01*
X24572254Y8580618D01*
X24616535Y8598914D01*
X24709865Y8373038D01*
X24752828Y8330000D01*
X17750000Y8330000D01*
X17731891Y8326605D01*
X17715185Y8315888D01*
X17703966Y8299516D01*
X17700000Y8280068D01*
X17690000Y940068D01*
X17690000Y-9555000D01*
X-2465528Y-9555000D01*
X-2490623Y-9550008D01*
X-2193039Y-9550268D01*
X-1623143Y-9314792D01*
X-1186740Y-8879151D01*
X-950270Y-8309667D01*
X-950204Y-8233530D01*
X2429870Y-8233530D01*
X2543811Y-8509286D01*
X2754605Y-8720448D01*
X3030161Y-8834869D01*
X3328530Y-8835130D01*
X3604286Y-8721189D01*
X3815448Y-8510395D01*
X3929869Y-8234839D01*
X3929870Y-8233530D01*
X5429870Y-8233530D01*
X5543811Y-8509286D01*
X5754605Y-8720448D01*
X6030161Y-8834869D01*
X6328530Y-8835130D01*
X6604286Y-8721189D01*
X6815448Y-8510395D01*
X6929869Y-8234839D01*
X6930130Y-7936470D01*
X6816189Y-7660714D01*
X6605395Y-7449552D01*
X6329839Y-7335131D01*
X6031470Y-7334870D01*
X5755714Y-7448811D01*
X5544552Y-7659605D01*
X5430131Y-7935161D01*
X5429870Y-8233530D01*
X3929870Y-8233530D01*
X3930130Y-7936470D01*
X3816189Y-7660714D01*
X3605395Y-7449552D01*
X3329839Y-7335131D01*
X3031470Y-7334870D01*
X2755714Y-7448811D01*
X2544552Y-7659605D01*
X2430131Y-7935161D01*
X2429870Y-8233530D01*
X-950204Y-8233530D01*
X-949732Y-7693039D01*
X-1185208Y-7123143D01*
X-1620849Y-6686740D01*
X-2190333Y-6450270D01*
X-2806961Y-6449732D01*
X-3376857Y-6685208D01*
X-3813260Y-7120849D01*
X-4049730Y-7690333D01*
X-4049992Y-7990705D01*
X-4055000Y-7965528D01*
X-4055000Y-3611709D01*
X-1008354Y-6658355D01*
X-862364Y-6755903D01*
X-690156Y-6790157D01*
X5282993Y-6790157D01*
X5446975Y-6954425D01*
X5711179Y-7064132D01*
X5997254Y-7064382D01*
X6261649Y-6955136D01*
X6464112Y-6753026D01*
X6573819Y-6488822D01*
X6574069Y-6202747D01*
X6494492Y-6010157D01*
X7989844Y-6010157D01*
X8162052Y-5975903D01*
X8308042Y-5878355D01*
X8972212Y-5214185D01*
X9197254Y-5214382D01*
X9461649Y-5105136D01*
X9664112Y-4903026D01*
X9773819Y-4638822D01*
X9774069Y-4352747D01*
X9664823Y-4088352D01*
X9462713Y-3885889D01*
X9198509Y-3776182D01*
X8912434Y-3775932D01*
X8648039Y-3885178D01*
X8445576Y-4087288D01*
X8335869Y-4351492D01*
X8335671Y-4577934D01*
X8118888Y-4794717D01*
X8119069Y-4587747D01*
X8009823Y-4323352D01*
X7807713Y-4120889D01*
X7543509Y-4011182D01*
X7257434Y-4010932D01*
X7226542Y-4023697D01*
X6756423Y-3553578D01*
X6634116Y-3471854D01*
X6489844Y-3443157D01*
X3092138Y-3443157D01*
X3079823Y-3413352D01*
X3023726Y-3357157D01*
X8869844Y-3357157D01*
X9014116Y-3328460D01*
X9136423Y-3246736D01*
X11126395Y-1256764D01*
X11156179Y-1269132D01*
X11442254Y-1269382D01*
X11706649Y-1160136D01*
X11909112Y-958026D01*
X12018819Y-693822D01*
X12019069Y-407747D01*
X11909823Y-143352D01*
X11707713Y59111D01*
X11443509Y168818D01*
X11157434Y169068D01*
X10893039Y59822D01*
X10690576Y-142288D01*
X10580869Y-406492D01*
X10580619Y-692567D01*
X10593384Y-723459D01*
X8713686Y-2603157D01*
X-1543998Y-2603157D01*
X-2493549Y-1653606D01*
X-2481181Y-1623822D01*
X-2480931Y-1337747D01*
X-2590177Y-1073352D01*
X-2792287Y-870889D01*
X-3056491Y-761182D01*
X-3342566Y-760932D01*
X-3560156Y-850839D01*
X-3560156Y-306961D01*
X-1550268Y-306961D01*
X-1314792Y-876857D01*
X-879151Y-1313260D01*
X-309667Y-1549730D01*
X306961Y-1550268D01*
X876857Y-1314792D01*
X1313260Y-879151D01*
X1549730Y-309667D01*
X1550268Y306961D01*
X1314792Y876857D01*
X879151Y1313260D01*
X309667Y1549730D01*
X-306961Y1550268D01*
X-876857Y1314792D01*
X-1313260Y879151D01*
X-1549730Y309667D01*
X-1550268Y-306961D01*
X-3560156Y-306961D01*
X-3560156Y2950444D01*
X-3278415Y2824931D01*
X-3091460Y2937282D01*
X-3091460Y3795100D01*
X-2683460Y3795100D01*
X-2683460Y2937282D01*
X-2496505Y2824931D01*
X-2067415Y3016086D01*
X-1744139Y3356896D01*
X-1618382Y3611353D01*
X-1713615Y3795100D01*
X-2683460Y3795100D01*
X-3091460Y3795100D01*
X-3111460Y3795100D01*
X-3111460Y4203100D01*
X-3091460Y4203100D01*
X-3091460Y5060918D01*
X-2683460Y5060918D01*
X-2683460Y4203100D01*
X-1713615Y4203100D01*
X-1618382Y4386847D01*
X-1729336Y4611353D01*
X-1331538Y4611353D01*
X-1270640Y4464282D01*
X-983522Y4090477D01*
X-575210Y3855002D01*
X-391460Y3947930D01*
X-391460Y4795100D01*
X16540Y4795100D01*
X16540Y3947930D01*
X200290Y3855002D01*
X608602Y4090477D01*
X895720Y4464282D01*
X956618Y4611353D01*
X861385Y4795100D01*
X16540Y4795100D01*
X-391460Y4795100D01*
X-1236305Y4795100D01*
X-1331538Y4611353D01*
X-1729336Y4611353D01*
X-1744139Y4641304D01*
X-2067415Y4982114D01*
X-2496505Y5173269D01*
X-2683460Y5060918D01*
X-3091460Y5060918D01*
X-3278415Y5173269D01*
X-3560156Y5047756D01*
X-3560156Y5386847D01*
X-1331538Y5386847D01*
X-1236305Y5203100D01*
X-391460Y5203100D01*
X-391460Y6050270D01*
X16540Y6050270D01*
X16540Y5203100D01*
X861385Y5203100D01*
X956618Y5386847D01*
X895720Y5533918D01*
X608602Y5907723D01*
X200290Y6143198D01*
X16540Y6050270D01*
X-391460Y6050270D01*
X-575210Y6143198D01*
X-983522Y5907723D01*
X-1270640Y5533918D01*
X-1331538Y5386847D01*
X-3560156Y5386847D01*
X-3560156Y9611353D01*
X-1331538Y9611353D01*
X-1270640Y9464282D01*
X-983522Y9090477D01*
X-575210Y8855002D01*
X-391460Y8947930D01*
X-391460Y9795100D01*
X16540Y9795100D01*
X16540Y8947930D01*
X200290Y8855002D01*
X608602Y9090477D01*
X895720Y9464282D01*
X956618Y9611353D01*
X861385Y9795100D01*
X16540Y9795100D01*
X-391460Y9795100D01*
X-1236305Y9795100D01*
X-1331538Y9611353D01*
X-3560156Y9611353D01*
X-3560156Y9950444D01*
X-3278415Y9824931D01*
X-3091460Y9937282D01*
X-3091460Y10795100D01*
X-2683460Y10795100D01*
X-2683460Y9937282D01*
X-2496505Y9824931D01*
X-2067415Y10016086D01*
X-1744139Y10356896D01*
X-1729337Y10386847D01*
X-1331538Y10386847D01*
X-1236305Y10203100D01*
X-391460Y10203100D01*
X-391460Y11050270D01*
X16540Y11050270D01*
X16540Y10203100D01*
X861385Y10203100D01*
X956618Y10386847D01*
X895720Y10533918D01*
X608602Y10907723D01*
X200290Y11143198D01*
X16540Y11050270D01*
X-391460Y11050270D01*
X-575210Y11143198D01*
X-983522Y10907723D01*
X-1270640Y10533918D01*
X-1331538Y10386847D01*
X-1729337Y10386847D01*
X-1618382Y10611353D01*
X-1713615Y10795100D01*
X-2683460Y10795100D01*
X-3091460Y10795100D01*
X-3111460Y10795100D01*
X-3111460Y11203100D01*
X-3091460Y11203100D01*
X-3091460Y12060918D01*
X-2683460Y12060918D01*
X-2683460Y11203100D01*
X-1713615Y11203100D01*
X-1618382Y11386847D01*
X-1744139Y11641304D01*
X-2067415Y11982114D01*
X-2496505Y12173269D01*
X-2683460Y12060918D01*
X-3091460Y12060918D01*
X-3278415Y12173269D01*
X-3560156Y12047756D01*
X-3560156Y14450444D01*
X-3278415Y14324931D01*
X-3091460Y14437282D01*
X-3091460Y15295100D01*
X-2683460Y15295100D01*
X-2683460Y14437282D01*
X-2496505Y14324931D01*
X-2067415Y14516086D01*
X-1744139Y14856896D01*
X-1618382Y15111353D01*
X-1713615Y15295100D01*
X-2683460Y15295100D01*
X-3091460Y15295100D01*
X-3111460Y15295100D01*
X-3111460Y15703100D01*
X-3091460Y15703100D01*
X-3091460Y16560918D01*
X-2683460Y16560918D01*
X-2683460Y15703100D01*
X-1713615Y15703100D01*
X-1618382Y15886847D01*
X-1729336Y16111353D01*
X-1331538Y16111353D01*
X-1270640Y15964282D01*
X-983522Y15590477D01*
X-575210Y15355002D01*
X-391460Y15447930D01*
X-391460Y16295100D01*
X16540Y16295100D01*
X16540Y15447930D01*
X200290Y15355002D01*
X608602Y15590477D01*
X895720Y15964282D01*
X956618Y16111353D01*
X861385Y16295100D01*
X16540Y16295100D01*
X-391460Y16295100D01*
X-1236305Y16295100D01*
X-1331538Y16111353D01*
X-1729336Y16111353D01*
X-1744139Y16141304D01*
X-2067415Y16482114D01*
X-2496505Y16673269D01*
X-2683460Y16560918D01*
X-3091460Y16560918D01*
X-3278415Y16673269D01*
X-3560156Y16547756D01*
X-3560156Y16886847D01*
X-1331538Y16886847D01*
X-1236305Y16703100D01*
X-391460Y16703100D01*
X-391460Y17550270D01*
X16540Y17550270D01*
X16540Y16703100D01*
X861385Y16703100D01*
X956618Y16886847D01*
X895720Y17033918D01*
X608602Y17407723D01*
X200290Y17643198D01*
X16540Y17550270D01*
X-391460Y17550270D01*
X-575210Y17643198D01*
X-983522Y17407723D01*
X-1270640Y17033918D01*
X-1331538Y16886847D01*
X-3560156Y16886847D01*
X-3560156Y21111353D01*
X-1331538Y21111353D01*
X-1270640Y20964282D01*
X-983522Y20590477D01*
X-575210Y20355002D01*
X-391460Y20447930D01*
X-391460Y21295100D01*
X16540Y21295100D01*
X16540Y20447930D01*
X200290Y20355002D01*
X608602Y20590477D01*
X895720Y20964282D01*
X956618Y21111353D01*
X861385Y21295100D01*
X16540Y21295100D01*
X-391460Y21295100D01*
X-1236305Y21295100D01*
X-1331538Y21111353D01*
X-3560156Y21111353D01*
X-3560156Y21450444D01*
X-3278415Y21324931D01*
X-3091460Y21437282D01*
X-3091460Y22295100D01*
X-2683460Y22295100D01*
X-2683460Y21437282D01*
X-2496505Y21324931D01*
X-2067415Y21516086D01*
X-1744139Y21856896D01*
X-1729337Y21886847D01*
X-1331538Y21886847D01*
X-1236305Y21703100D01*
X-391460Y21703100D01*
X-391460Y22550270D01*
X16540Y22550270D01*
X16540Y21703100D01*
X861385Y21703100D01*
X956618Y21886847D01*
X895720Y22033918D01*
X608602Y22407723D01*
X200290Y22643198D01*
X16540Y22550270D01*
X-391460Y22550270D01*
X-575210Y22643198D01*
X-983522Y22407723D01*
X-1270640Y22033918D01*
X-1331538Y21886847D01*
X-1729337Y21886847D01*
X-1618382Y22111353D01*
X-1713615Y22295100D01*
X-2683460Y22295100D01*
X-3091460Y22295100D01*
X-3111460Y22295100D01*
X-3111460Y22703100D01*
X-3091460Y22703100D01*
X-3091460Y23560918D01*
X-3207656Y23630746D01*
X-3207656Y23954843D01*
X-2832656Y23954843D01*
X-2832656Y23336343D01*
X-2693156Y23196843D01*
X-2683460Y23196843D01*
X-2683460Y22703100D01*
X-1713615Y22703100D01*
X-1618382Y22886847D01*
X-1744139Y23141304D01*
X-1796821Y23196843D01*
X-1772156Y23196843D01*
X-1632656Y23336343D01*
X-1632656Y23954843D01*
X-1257656Y23954843D01*
X-1257656Y23336343D01*
X-1118156Y23196843D01*
X-959163Y23196843D01*
X-754074Y23281794D01*
X-597106Y23438761D01*
X-512156Y23643850D01*
X-512156Y23815343D01*
X-651656Y23954843D01*
X-1257656Y23954843D01*
X-1632656Y23954843D01*
X-2832656Y23954843D01*
X-3207656Y23954843D01*
X-3244156Y23954843D01*
X-3244156Y24354843D01*
X-3207656Y24354843D01*
X-3207656Y24378843D01*
X-2832656Y24378843D01*
X-2832656Y24354843D01*
X-1632656Y24354843D01*
X-1632656Y24378843D01*
X-1257656Y24378843D01*
X-1257656Y24354843D01*
X-651656Y24354843D01*
X-512156Y24494343D01*
X-512156Y24665836D01*
X-597106Y24870925D01*
X-754074Y25027892D01*
X-838298Y25062779D01*
X-788378Y25135840D01*
X-774404Y25204843D01*
X1018448Y25204843D01*
X1231646Y24991645D01*
X1377636Y24894097D01*
X1549844Y24859843D01*
X4663448Y24859843D01*
X3751802Y23948197D01*
X3654254Y23802207D01*
X3620000Y23629999D01*
X3620000Y23536859D01*
X3502937Y23420000D01*
X2700001Y23420000D01*
X2527793Y23385746D01*
X2381803Y23288198D01*
X1181646Y22088041D01*
X1084098Y21942051D01*
X1049844Y21769843D01*
X1049844Y19239843D01*
X1084098Y19067635D01*
X1175034Y18931540D01*
X1181646Y18921645D01*
X1820816Y18282475D01*
X1820619Y18057433D01*
X1929865Y17793038D01*
X2131975Y17590575D01*
X2396179Y17480868D01*
X2682254Y17480618D01*
X2946649Y17589864D01*
X3149112Y17791974D01*
X3258819Y18056178D01*
X3259069Y18342253D01*
X3149823Y18606648D01*
X2947713Y18809111D01*
X2683509Y18918818D01*
X2457067Y18919016D01*
X1949844Y19426239D01*
X1949844Y19542832D01*
X2021975Y19470575D01*
X2286179Y19360868D01*
X2572254Y19360618D01*
X2603146Y19373383D01*
X5693265Y16283264D01*
X5815572Y16201540D01*
X5959844Y16172843D01*
X8065908Y16172843D01*
X7950576Y16057712D01*
X7840869Y15793508D01*
X7840619Y15507433D01*
X7949865Y15243038D01*
X8151975Y15040575D01*
X8416179Y14930868D01*
X8702254Y14930618D01*
X8966649Y15039864D01*
X9126907Y15199843D01*
X11793448Y15199843D01*
X12211489Y14781802D01*
X12357479Y14684254D01*
X12529687Y14650000D01*
X15582811Y14650000D01*
X15731975Y14500575D01*
X15996179Y14390868D01*
X16282254Y14390618D01*
X16546649Y14499864D01*
X16697047Y14650000D01*
X17516843Y14650000D01*
X10583686Y7716843D01*
X6989338Y7716843D01*
X6996649Y7719864D01*
X7146890Y7869843D01*
X10069844Y7869843D01*
X10242052Y7904097D01*
X10388042Y8001645D01*
X10987212Y8600815D01*
X11212254Y8600618D01*
X11476649Y8709864D01*
X11679112Y8911974D01*
X11788819Y9176178D01*
X11789069Y9462253D01*
X11679823Y9726648D01*
X11477713Y9929111D01*
X11213509Y10038818D01*
X10927434Y10039068D01*
X10663039Y9929822D01*
X10460576Y9727712D01*
X10350869Y9463508D01*
X10350671Y9237066D01*
X9883448Y8769843D01*
X7166686Y8769843D01*
X7039844Y8896906D01*
X7039844Y13753447D01*
X7047212Y13760815D01*
X7272254Y13760618D01*
X7536649Y13869864D01*
X7739112Y14071974D01*
X7848819Y14336178D01*
X7849069Y14622253D01*
X7739823Y14886648D01*
X7537713Y15089111D01*
X7273509Y15198818D01*
X6987434Y15199068D01*
X6723039Y15089822D01*
X6520576Y14887712D01*
X6410869Y14623508D01*
X6410671Y14397066D01*
X6271646Y14258041D01*
X6174098Y14112051D01*
X6139844Y13939843D01*
X6139844Y8896702D01*
X5980576Y8737712D01*
X5870869Y8473508D01*
X5870619Y8187433D01*
X5979865Y7923038D01*
X6181975Y7720575D01*
X6190963Y7716843D01*
X3142138Y7716843D01*
X3129823Y7746648D01*
X2927713Y7949111D01*
X2663509Y8058818D01*
X2377434Y8059068D01*
X2122703Y7953815D01*
X1947713Y8129111D01*
X1683509Y8238818D01*
X1397434Y8239068D01*
X1133039Y8129822D01*
X930576Y7927712D01*
X820869Y7663508D01*
X820619Y7377433D01*
X929865Y7113038D01*
X1131975Y6910575D01*
X1396179Y6800868D01*
X1555800Y6800729D01*
X1983265Y6373263D01*
X2050788Y6328146D01*
X2105572Y6291540D01*
X2249844Y6262843D01*
X3429844Y6262843D01*
X3574116Y6291540D01*
X3696423Y6373264D01*
X3756458Y6433299D01*
X3710869Y6323508D01*
X3710619Y6037433D01*
X3819865Y5773038D01*
X4021975Y5570575D01*
X4286179Y5460868D01*
X4572254Y5460618D01*
X4836649Y5569864D01*
X4858059Y5591236D01*
X4800869Y5453508D01*
X4800619Y5167433D01*
X4909865Y4903038D01*
X5111975Y4700575D01*
X5376179Y4590868D01*
X5662254Y4590618D01*
X5795536Y4645689D01*
X5809844Y4642843D01*
X13227550Y4642843D01*
X13239865Y4613038D01*
X13441975Y4410575D01*
X13706179Y4300868D01*
X13980648Y4300628D01*
X13980619Y4267433D01*
X13984995Y4256843D01*
X7462138Y4256843D01*
X7449823Y4286648D01*
X7247713Y4489111D01*
X6983509Y4598818D01*
X6697434Y4599068D01*
X6433039Y4489822D01*
X6230576Y4287712D01*
X6120869Y4023508D01*
X6120619Y3737433D01*
X6229865Y3473038D01*
X6431975Y3270575D01*
X6696179Y3160868D01*
X6982254Y3160618D01*
X7246649Y3269864D01*
X7449112Y3471974D01*
X7461930Y3502843D01*
X14169844Y3502843D01*
X14314116Y3531540D01*
X14436423Y3613264D01*
X14526395Y3703236D01*
X14556179Y3690868D01*
X14842254Y3690618D01*
X15106649Y3799864D01*
X15309112Y4001974D01*
X15389844Y4196398D01*
X15389844Y3931685D01*
X15220576Y3762712D01*
X15110869Y3498508D01*
X15110619Y3212433D01*
X15219865Y2948038D01*
X15421975Y2745575D01*
X15686179Y2635868D01*
X15972254Y2635618D01*
X16236649Y2744864D01*
X16439112Y2946974D01*
X16548819Y3211178D01*
X16549069Y3497253D01*
X16439823Y3761648D01*
X16289844Y3911889D01*
X16289844Y5403447D01*
X17378042Y6491645D01*
X17475591Y6637636D01*
X17509844Y6809843D01*
X17509844Y9883447D01*
X18258042Y10631645D01*
X18355590Y10777636D01*
X18389844Y10949843D01*
X18361145Y11094123D01*
X19770000Y11094123D01*
X19881173Y11115042D01*
X19983279Y11180745D01*
X20051778Y11280997D01*
X20057752Y11310500D01*
X20132000Y11310500D01*
X20132000Y11289007D01*
X20216951Y11083918D01*
X20373918Y10926950D01*
X20579007Y10842000D01*
X21061500Y10842000D01*
X21201000Y10981500D01*
X21201000Y11450000D01*
X20271500Y11450000D01*
X20132000Y11310500D01*
X20057752Y11310500D01*
X20075877Y11400000D01*
X20075877Y11600000D01*
X20056370Y11703671D01*
X20075877Y11800000D01*
X20075877Y12000000D01*
X20056370Y12103671D01*
X20075877Y12200000D01*
X20075877Y12400000D01*
X20056370Y12503671D01*
X20075877Y12600000D01*
X20075877Y12800000D01*
X20056370Y12903671D01*
X20075877Y13000000D01*
X20075877Y13200000D01*
X20056370Y13303671D01*
X20075877Y13400000D01*
X20075877Y13600000D01*
X20056370Y13703671D01*
X20075877Y13800000D01*
X20075877Y14000000D01*
X20056370Y14103671D01*
X20075877Y14200000D01*
X20075877Y14400000D01*
X20056370Y14503671D01*
X20075877Y14600000D01*
X20075877Y14800000D01*
X20056370Y14903671D01*
X20075877Y15000000D01*
X20075877Y15200000D01*
X20056370Y15303671D01*
X20075877Y15400000D01*
X20075877Y15600000D01*
X20056370Y15703671D01*
X20075877Y15800000D01*
X20075877Y16000000D01*
X20056370Y16103671D01*
X20075877Y16200000D01*
X20075877Y16400000D01*
X20056370Y16503671D01*
X20075877Y16600000D01*
X20075877Y16800000D01*
X20056370Y16903671D01*
X20075877Y17000000D01*
X20075877Y17200000D01*
X20056370Y17303671D01*
X20075877Y17400000D01*
X20075877Y17600000D01*
X20056370Y17703671D01*
X20075877Y17800000D01*
X20075877Y18000000D01*
X20056370Y18103671D01*
X20075877Y18200000D01*
X20075877Y18400000D01*
X20056370Y18503671D01*
X20075877Y18600000D01*
X20075877Y18800000D01*
X20056370Y18903671D01*
X20075877Y19000000D01*
X20075877Y19200000D01*
X20056370Y19303671D01*
X20075877Y19400000D01*
X20075877Y19600000D01*
X20056370Y19703671D01*
X20075877Y19800000D01*
X20075877Y20000000D01*
X20056370Y20103671D01*
X20075877Y20200000D01*
X20075877Y20400000D01*
X20056370Y20503671D01*
X20075877Y20600000D01*
X20075877Y20800000D01*
X20056370Y20903671D01*
X20075877Y21000000D01*
X20075877Y21200000D01*
X20056370Y21303671D01*
X20075877Y21400000D01*
X20075877Y21600000D01*
X20056370Y21703671D01*
X20075877Y21800000D01*
X20075877Y22000000D01*
X20056370Y22103671D01*
X20075877Y22200000D01*
X20075877Y22400000D01*
X20056370Y22503671D01*
X20075877Y22600000D01*
X20075877Y22800000D01*
X20056370Y22903671D01*
X20075877Y23000000D01*
X20075877Y23200000D01*
X20056370Y23303671D01*
X20075877Y23400000D01*
X20075877Y23600000D01*
X20056370Y23703671D01*
X20075877Y23800000D01*
X20075877Y24000000D01*
X20056370Y24103671D01*
X20075877Y24200000D01*
X20075877Y24400000D01*
X20056370Y24503671D01*
X20075877Y24600000D01*
X20075877Y24800000D01*
X20056370Y24903671D01*
X20075877Y25000000D01*
X20075877Y25200000D01*
X20054958Y25311173D01*
X19989255Y25413279D01*
X19889003Y25481778D01*
X19877306Y25484147D01*
X20196423Y25803264D01*
X20278147Y25925571D01*
X20306844Y26069843D01*
X20306844Y26352843D01*
X21673686Y26352843D01*
X21743236Y26283292D01*
X21743236Y26283292D01*
G37*
X21743236Y26283292D02*
X21730869Y26253508D01*
X21730619Y25967433D01*
X21839865Y25703038D01*
X22036682Y25505877D01*
X20690000Y25505877D01*
X20578827Y25484958D01*
X20476721Y25419255D01*
X20408222Y25319003D01*
X20384123Y25200000D01*
X20384123Y25000000D01*
X20403630Y24896329D01*
X20384123Y24800000D01*
X20384123Y24600000D01*
X20403630Y24496329D01*
X20384123Y24400000D01*
X20384123Y24200000D01*
X20403630Y24096329D01*
X20384123Y24000000D01*
X20384123Y23800000D01*
X20403630Y23696329D01*
X20384123Y23600000D01*
X20384123Y23400000D01*
X20403630Y23296329D01*
X20384123Y23200000D01*
X20384123Y23000000D01*
X20403630Y22896329D01*
X20384123Y22800000D01*
X20384123Y22600000D01*
X20403630Y22496329D01*
X20384123Y22400000D01*
X20384123Y22200000D01*
X20403630Y22096329D01*
X20384123Y22000000D01*
X20384123Y21800000D01*
X20403630Y21696329D01*
X20384123Y21600000D01*
X20384123Y21400000D01*
X20403630Y21296329D01*
X20384123Y21200000D01*
X20384123Y21000000D01*
X20403630Y20896329D01*
X20384123Y20800000D01*
X20384123Y20600000D01*
X20403630Y20496329D01*
X20384123Y20400000D01*
X20384123Y20200000D01*
X20403630Y20096329D01*
X20384123Y20000000D01*
X20384123Y19800000D01*
X20403630Y19696329D01*
X20384123Y19600000D01*
X20384123Y19400000D01*
X20403630Y19296329D01*
X20384123Y19200000D01*
X20384123Y19000000D01*
X20403630Y18896329D01*
X20384123Y18800000D01*
X20384123Y18600000D01*
X20403630Y18496329D01*
X20384123Y18400000D01*
X20384123Y18200000D01*
X20403630Y18096329D01*
X20384123Y18000000D01*
X20384123Y17800000D01*
X20403630Y17696329D01*
X20384123Y17600000D01*
X20384123Y17400000D01*
X20403630Y17296329D01*
X20384123Y17200000D01*
X20384123Y17000000D01*
X20403630Y16896329D01*
X20384123Y16800000D01*
X20384123Y16600000D01*
X20403630Y16496329D01*
X20384123Y16400000D01*
X20384123Y16200000D01*
X20403630Y16096329D01*
X20384123Y16000000D01*
X20384123Y15800000D01*
X20403630Y15696329D01*
X20384123Y15600000D01*
X20384123Y15400000D01*
X20403630Y15296329D01*
X20384123Y15200000D01*
X20384123Y15000000D01*
X20403630Y14896329D01*
X20401205Y14884353D01*
X20373918Y14873050D01*
X20216951Y14716082D01*
X20132000Y14510993D01*
X20132000Y14489500D01*
X20261184Y14360316D01*
X20216951Y14316082D01*
X20132000Y14110993D01*
X20132000Y14089007D01*
X20210290Y13900000D01*
X20132000Y13710993D01*
X20132000Y13689007D01*
X20210290Y13500000D01*
X20132000Y13310993D01*
X20132000Y13289007D01*
X20216951Y13083918D01*
X20261184Y13039684D01*
X20132000Y12910500D01*
X20132000Y12889007D01*
X20210290Y12700000D01*
X20132000Y12510993D01*
X20132000Y12489500D01*
X20271500Y12350000D01*
X20524488Y12350000D01*
X20570997Y12318222D01*
X20659914Y12300216D01*
X20578827Y12284958D01*
X20524500Y12250000D01*
X20271500Y12250000D01*
X20132000Y12110500D01*
X20132000Y12089007D01*
X20210290Y11900000D01*
X20132000Y11710993D01*
X20132000Y11689500D01*
X20271500Y11550000D01*
X20524488Y11550000D01*
X20570997Y11518222D01*
X20690000Y11494123D01*
X21629000Y11494123D01*
X21629000Y11450000D01*
X21609000Y11450000D01*
X21609000Y10981500D01*
X21748500Y10842000D01*
X22230993Y10842000D01*
X22436082Y10926950D01*
X22593049Y11083918D01*
X22678000Y11289007D01*
X22678000Y11364679D01*
X22751975Y11290575D01*
X23016179Y11180868D01*
X23302254Y11180618D01*
X23566649Y11289864D01*
X23769112Y11491974D01*
X23810846Y11592481D01*
X23810846Y9684280D01*
X23710869Y9443508D01*
X23710619Y9157433D01*
X23819865Y8893038D01*
X24021975Y8690575D01*
X24286179Y8580868D01*
X24572254Y8580618D01*
X24616535Y8598914D01*
X24709865Y8373038D01*
X24752828Y8330000D01*
X17750000Y8330000D01*
X17731891Y8326605D01*
X17715185Y8315888D01*
X17703966Y8299516D01*
X17700000Y8280068D01*
X17690000Y940068D01*
X17690000Y-9555000D01*
X-2465528Y-9555000D01*
X-2490623Y-9550008D01*
X-2193039Y-9550268D01*
X-1623143Y-9314792D01*
X-1186740Y-8879151D01*
X-950270Y-8309667D01*
X-950204Y-8233530D01*
X2429870Y-8233530D01*
X2543811Y-8509286D01*
X2754605Y-8720448D01*
X3030161Y-8834869D01*
X3328530Y-8835130D01*
X3604286Y-8721189D01*
X3815448Y-8510395D01*
X3929869Y-8234839D01*
X3929870Y-8233530D01*
X5429870Y-8233530D01*
X5543811Y-8509286D01*
X5754605Y-8720448D01*
X6030161Y-8834869D01*
X6328530Y-8835130D01*
X6604286Y-8721189D01*
X6815448Y-8510395D01*
X6929869Y-8234839D01*
X6930130Y-7936470D01*
X6816189Y-7660714D01*
X6605395Y-7449552D01*
X6329839Y-7335131D01*
X6031470Y-7334870D01*
X5755714Y-7448811D01*
X5544552Y-7659605D01*
X5430131Y-7935161D01*
X5429870Y-8233530D01*
X3929870Y-8233530D01*
X3930130Y-7936470D01*
X3816189Y-7660714D01*
X3605395Y-7449552D01*
X3329839Y-7335131D01*
X3031470Y-7334870D01*
X2755714Y-7448811D01*
X2544552Y-7659605D01*
X2430131Y-7935161D01*
X2429870Y-8233530D01*
X-950204Y-8233530D01*
X-949732Y-7693039D01*
X-1185208Y-7123143D01*
X-1620849Y-6686740D01*
X-2190333Y-6450270D01*
X-2806961Y-6449732D01*
X-3376857Y-6685208D01*
X-3813260Y-7120849D01*
X-4049730Y-7690333D01*
X-4049992Y-7990705D01*
X-4055000Y-7965528D01*
X-4055000Y-3611709D01*
X-1008354Y-6658355D01*
X-862364Y-6755903D01*
X-690156Y-6790157D01*
X5282993Y-6790157D01*
X5446975Y-6954425D01*
X5711179Y-7064132D01*
X5997254Y-7064382D01*
X6261649Y-6955136D01*
X6464112Y-6753026D01*
X6573819Y-6488822D01*
X6574069Y-6202747D01*
X6494492Y-6010157D01*
X7989844Y-6010157D01*
X8162052Y-5975903D01*
X8308042Y-5878355D01*
X8972212Y-5214185D01*
X9197254Y-5214382D01*
X9461649Y-5105136D01*
X9664112Y-4903026D01*
X9773819Y-4638822D01*
X9774069Y-4352747D01*
X9664823Y-4088352D01*
X9462713Y-3885889D01*
X9198509Y-3776182D01*
X8912434Y-3775932D01*
X8648039Y-3885178D01*
X8445576Y-4087288D01*
X8335869Y-4351492D01*
X8335671Y-4577934D01*
X8118888Y-4794717D01*
X8119069Y-4587747D01*
X8009823Y-4323352D01*
X7807713Y-4120889D01*
X7543509Y-4011182D01*
X7257434Y-4010932D01*
X7226542Y-4023697D01*
X6756423Y-3553578D01*
X6634116Y-3471854D01*
X6489844Y-3443157D01*
X3092138Y-3443157D01*
X3079823Y-3413352D01*
X3023726Y-3357157D01*
X8869844Y-3357157D01*
X9014116Y-3328460D01*
X9136423Y-3246736D01*
X11126395Y-1256764D01*
X11156179Y-1269132D01*
X11442254Y-1269382D01*
X11706649Y-1160136D01*
X11909112Y-958026D01*
X12018819Y-693822D01*
X12019069Y-407747D01*
X11909823Y-143352D01*
X11707713Y59111D01*
X11443509Y168818D01*
X11157434Y169068D01*
X10893039Y59822D01*
X10690576Y-142288D01*
X10580869Y-406492D01*
X10580619Y-692567D01*
X10593384Y-723459D01*
X8713686Y-2603157D01*
X-1543998Y-2603157D01*
X-2493549Y-1653606D01*
X-2481181Y-1623822D01*
X-2480931Y-1337747D01*
X-2590177Y-1073352D01*
X-2792287Y-870889D01*
X-3056491Y-761182D01*
X-3342566Y-760932D01*
X-3560156Y-850839D01*
X-3560156Y-306961D01*
X-1550268Y-306961D01*
X-1314792Y-876857D01*
X-879151Y-1313260D01*
X-309667Y-1549730D01*
X306961Y-1550268D01*
X876857Y-1314792D01*
X1313260Y-879151D01*
X1549730Y-309667D01*
X1550268Y306961D01*
X1314792Y876857D01*
X879151Y1313260D01*
X309667Y1549730D01*
X-306961Y1550268D01*
X-876857Y1314792D01*
X-1313260Y879151D01*
X-1549730Y309667D01*
X-1550268Y-306961D01*
X-3560156Y-306961D01*
X-3560156Y2950444D01*
X-3278415Y2824931D01*
X-3091460Y2937282D01*
X-3091460Y3795100D01*
X-2683460Y3795100D01*
X-2683460Y2937282D01*
X-2496505Y2824931D01*
X-2067415Y3016086D01*
X-1744139Y3356896D01*
X-1618382Y3611353D01*
X-1713615Y3795100D01*
X-2683460Y3795100D01*
X-3091460Y3795100D01*
X-3111460Y3795100D01*
X-3111460Y4203100D01*
X-3091460Y4203100D01*
X-3091460Y5060918D01*
X-2683460Y5060918D01*
X-2683460Y4203100D01*
X-1713615Y4203100D01*
X-1618382Y4386847D01*
X-1729336Y4611353D01*
X-1331538Y4611353D01*
X-1270640Y4464282D01*
X-983522Y4090477D01*
X-575210Y3855002D01*
X-391460Y3947930D01*
X-391460Y4795100D01*
X16540Y4795100D01*
X16540Y3947930D01*
X200290Y3855002D01*
X608602Y4090477D01*
X895720Y4464282D01*
X956618Y4611353D01*
X861385Y4795100D01*
X16540Y4795100D01*
X-391460Y4795100D01*
X-1236305Y4795100D01*
X-1331538Y4611353D01*
X-1729336Y4611353D01*
X-1744139Y4641304D01*
X-2067415Y4982114D01*
X-2496505Y5173269D01*
X-2683460Y5060918D01*
X-3091460Y5060918D01*
X-3278415Y5173269D01*
X-3560156Y5047756D01*
X-3560156Y5386847D01*
X-1331538Y5386847D01*
X-1236305Y5203100D01*
X-391460Y5203100D01*
X-391460Y6050270D01*
X16540Y6050270D01*
X16540Y5203100D01*
X861385Y5203100D01*
X956618Y5386847D01*
X895720Y5533918D01*
X608602Y5907723D01*
X200290Y6143198D01*
X16540Y6050270D01*
X-391460Y6050270D01*
X-575210Y6143198D01*
X-983522Y5907723D01*
X-1270640Y5533918D01*
X-1331538Y5386847D01*
X-3560156Y5386847D01*
X-3560156Y9611353D01*
X-1331538Y9611353D01*
X-1270640Y9464282D01*
X-983522Y9090477D01*
X-575210Y8855002D01*
X-391460Y8947930D01*
X-391460Y9795100D01*
X16540Y9795100D01*
X16540Y8947930D01*
X200290Y8855002D01*
X608602Y9090477D01*
X895720Y9464282D01*
X956618Y9611353D01*
X861385Y9795100D01*
X16540Y9795100D01*
X-391460Y9795100D01*
X-1236305Y9795100D01*
X-1331538Y9611353D01*
X-3560156Y9611353D01*
X-3560156Y9950444D01*
X-3278415Y9824931D01*
X-3091460Y9937282D01*
X-3091460Y10795100D01*
X-2683460Y10795100D01*
X-2683460Y9937282D01*
X-2496505Y9824931D01*
X-2067415Y10016086D01*
X-1744139Y10356896D01*
X-1729337Y10386847D01*
X-1331538Y10386847D01*
X-1236305Y10203100D01*
X-391460Y10203100D01*
X-391460Y11050270D01*
X16540Y11050270D01*
X16540Y10203100D01*
X861385Y10203100D01*
X956618Y10386847D01*
X895720Y10533918D01*
X608602Y10907723D01*
X200290Y11143198D01*
X16540Y11050270D01*
X-391460Y11050270D01*
X-575210Y11143198D01*
X-983522Y10907723D01*
X-1270640Y10533918D01*
X-1331538Y10386847D01*
X-1729337Y10386847D01*
X-1618382Y10611353D01*
X-1713615Y10795100D01*
X-2683460Y10795100D01*
X-3091460Y10795100D01*
X-3111460Y10795100D01*
X-3111460Y11203100D01*
X-3091460Y11203100D01*
X-3091460Y12060918D01*
X-2683460Y12060918D01*
X-2683460Y11203100D01*
X-1713615Y11203100D01*
X-1618382Y11386847D01*
X-1744139Y11641304D01*
X-2067415Y11982114D01*
X-2496505Y12173269D01*
X-2683460Y12060918D01*
X-3091460Y12060918D01*
X-3278415Y12173269D01*
X-3560156Y12047756D01*
X-3560156Y14450444D01*
X-3278415Y14324931D01*
X-3091460Y14437282D01*
X-3091460Y15295100D01*
X-2683460Y15295100D01*
X-2683460Y14437282D01*
X-2496505Y14324931D01*
X-2067415Y14516086D01*
X-1744139Y14856896D01*
X-1618382Y15111353D01*
X-1713615Y15295100D01*
X-2683460Y15295100D01*
X-3091460Y15295100D01*
X-3111460Y15295100D01*
X-3111460Y15703100D01*
X-3091460Y15703100D01*
X-3091460Y16560918D01*
X-2683460Y16560918D01*
X-2683460Y15703100D01*
X-1713615Y15703100D01*
X-1618382Y15886847D01*
X-1729336Y16111353D01*
X-1331538Y16111353D01*
X-1270640Y15964282D01*
X-983522Y15590477D01*
X-575210Y15355002D01*
X-391460Y15447930D01*
X-391460Y16295100D01*
X16540Y16295100D01*
X16540Y15447930D01*
X200290Y15355002D01*
X608602Y15590477D01*
X895720Y15964282D01*
X956618Y16111353D01*
X861385Y16295100D01*
X16540Y16295100D01*
X-391460Y16295100D01*
X-1236305Y16295100D01*
X-1331538Y16111353D01*
X-1729336Y16111353D01*
X-1744139Y16141304D01*
X-2067415Y16482114D01*
X-2496505Y16673269D01*
X-2683460Y16560918D01*
X-3091460Y16560918D01*
X-3278415Y16673269D01*
X-3560156Y16547756D01*
X-3560156Y16886847D01*
X-1331538Y16886847D01*
X-1236305Y16703100D01*
X-391460Y16703100D01*
X-391460Y17550270D01*
X16540Y17550270D01*
X16540Y16703100D01*
X861385Y16703100D01*
X956618Y16886847D01*
X895720Y17033918D01*
X608602Y17407723D01*
X200290Y17643198D01*
X16540Y17550270D01*
X-391460Y17550270D01*
X-575210Y17643198D01*
X-983522Y17407723D01*
X-1270640Y17033918D01*
X-1331538Y16886847D01*
X-3560156Y16886847D01*
X-3560156Y21111353D01*
X-1331538Y21111353D01*
X-1270640Y20964282D01*
X-983522Y20590477D01*
X-575210Y20355002D01*
X-391460Y20447930D01*
X-391460Y21295100D01*
X16540Y21295100D01*
X16540Y20447930D01*
X200290Y20355002D01*
X608602Y20590477D01*
X895720Y20964282D01*
X956618Y21111353D01*
X861385Y21295100D01*
X16540Y21295100D01*
X-391460Y21295100D01*
X-1236305Y21295100D01*
X-1331538Y21111353D01*
X-3560156Y21111353D01*
X-3560156Y21450444D01*
X-3278415Y21324931D01*
X-3091460Y21437282D01*
X-3091460Y22295100D01*
X-2683460Y22295100D01*
X-2683460Y21437282D01*
X-2496505Y21324931D01*
X-2067415Y21516086D01*
X-1744139Y21856896D01*
X-1729337Y21886847D01*
X-1331538Y21886847D01*
X-1236305Y21703100D01*
X-391460Y21703100D01*
X-391460Y22550270D01*
X16540Y22550270D01*
X16540Y21703100D01*
X861385Y21703100D01*
X956618Y21886847D01*
X895720Y22033918D01*
X608602Y22407723D01*
X200290Y22643198D01*
X16540Y22550270D01*
X-391460Y22550270D01*
X-575210Y22643198D01*
X-983522Y22407723D01*
X-1270640Y22033918D01*
X-1331538Y21886847D01*
X-1729337Y21886847D01*
X-1618382Y22111353D01*
X-1713615Y22295100D01*
X-2683460Y22295100D01*
X-3091460Y22295100D01*
X-3111460Y22295100D01*
X-3111460Y22703100D01*
X-3091460Y22703100D01*
X-3091460Y23560918D01*
X-3207656Y23630746D01*
X-3207656Y23954843D01*
X-2832656Y23954843D01*
X-2832656Y23336343D01*
X-2693156Y23196843D01*
X-2683460Y23196843D01*
X-2683460Y22703100D01*
X-1713615Y22703100D01*
X-1618382Y22886847D01*
X-1744139Y23141304D01*
X-1796821Y23196843D01*
X-1772156Y23196843D01*
X-1632656Y23336343D01*
X-1632656Y23954843D01*
X-1257656Y23954843D01*
X-1257656Y23336343D01*
X-1118156Y23196843D01*
X-959163Y23196843D01*
X-754074Y23281794D01*
X-597106Y23438761D01*
X-512156Y23643850D01*
X-512156Y23815343D01*
X-651656Y23954843D01*
X-1257656Y23954843D01*
X-1632656Y23954843D01*
X-2832656Y23954843D01*
X-3207656Y23954843D01*
X-3244156Y23954843D01*
X-3244156Y24354843D01*
X-3207656Y24354843D01*
X-3207656Y24378843D01*
X-2832656Y24378843D01*
X-2832656Y24354843D01*
X-1632656Y24354843D01*
X-1632656Y24378843D01*
X-1257656Y24378843D01*
X-1257656Y24354843D01*
X-651656Y24354843D01*
X-512156Y24494343D01*
X-512156Y24665836D01*
X-597106Y24870925D01*
X-754074Y25027892D01*
X-838298Y25062779D01*
X-788378Y25135840D01*
X-774404Y25204843D01*
X1018448Y25204843D01*
X1231646Y24991645D01*
X1377636Y24894097D01*
X1549844Y24859843D01*
X4663448Y24859843D01*
X3751802Y23948197D01*
X3654254Y23802207D01*
X3620000Y23629999D01*
X3620000Y23536859D01*
X3502937Y23420000D01*
X2700001Y23420000D01*
X2527793Y23385746D01*
X2381803Y23288198D01*
X1181646Y22088041D01*
X1084098Y21942051D01*
X1049844Y21769843D01*
X1049844Y19239843D01*
X1084098Y19067635D01*
X1175034Y18931540D01*
X1181646Y18921645D01*
X1820816Y18282475D01*
X1820619Y18057433D01*
X1929865Y17793038D01*
X2131975Y17590575D01*
X2396179Y17480868D01*
X2682254Y17480618D01*
X2946649Y17589864D01*
X3149112Y17791974D01*
X3258819Y18056178D01*
X3259069Y18342253D01*
X3149823Y18606648D01*
X2947713Y18809111D01*
X2683509Y18918818D01*
X2457067Y18919016D01*
X1949844Y19426239D01*
X1949844Y19542832D01*
X2021975Y19470575D01*
X2286179Y19360868D01*
X2572254Y19360618D01*
X2603146Y19373383D01*
X5693265Y16283264D01*
X5815572Y16201540D01*
X5959844Y16172843D01*
X8065908Y16172843D01*
X7950576Y16057712D01*
X7840869Y15793508D01*
X7840619Y15507433D01*
X7949865Y15243038D01*
X8151975Y15040575D01*
X8416179Y14930868D01*
X8702254Y14930618D01*
X8966649Y15039864D01*
X9126907Y15199843D01*
X11793448Y15199843D01*
X12211489Y14781802D01*
X12357479Y14684254D01*
X12529687Y14650000D01*
X15582811Y14650000D01*
X15731975Y14500575D01*
X15996179Y14390868D01*
X16282254Y14390618D01*
X16546649Y14499864D01*
X16697047Y14650000D01*
X17516843Y14650000D01*
X10583686Y7716843D01*
X6989338Y7716843D01*
X6996649Y7719864D01*
X7146890Y7869843D01*
X10069844Y7869843D01*
X10242052Y7904097D01*
X10388042Y8001645D01*
X10987212Y8600815D01*
X11212254Y8600618D01*
X11476649Y8709864D01*
X11679112Y8911974D01*
X11788819Y9176178D01*
X11789069Y9462253D01*
X11679823Y9726648D01*
X11477713Y9929111D01*
X11213509Y10038818D01*
X10927434Y10039068D01*
X10663039Y9929822D01*
X10460576Y9727712D01*
X10350869Y9463508D01*
X10350671Y9237066D01*
X9883448Y8769843D01*
X7166686Y8769843D01*
X7039844Y8896906D01*
X7039844Y13753447D01*
X7047212Y13760815D01*
X7272254Y13760618D01*
X7536649Y13869864D01*
X7739112Y14071974D01*
X7848819Y14336178D01*
X7849069Y14622253D01*
X7739823Y14886648D01*
X7537713Y15089111D01*
X7273509Y15198818D01*
X6987434Y15199068D01*
X6723039Y15089822D01*
X6520576Y14887712D01*
X6410869Y14623508D01*
X6410671Y14397066D01*
X6271646Y14258041D01*
X6174098Y14112051D01*
X6139844Y13939843D01*
X6139844Y8896702D01*
X5980576Y8737712D01*
X5870869Y8473508D01*
X5870619Y8187433D01*
X5979865Y7923038D01*
X6181975Y7720575D01*
X6190963Y7716843D01*
X3142138Y7716843D01*
X3129823Y7746648D01*
X2927713Y7949111D01*
X2663509Y8058818D01*
X2377434Y8059068D01*
X2122703Y7953815D01*
X1947713Y8129111D01*
X1683509Y8238818D01*
X1397434Y8239068D01*
X1133039Y8129822D01*
X930576Y7927712D01*
X820869Y7663508D01*
X820619Y7377433D01*
X929865Y7113038D01*
X1131975Y6910575D01*
X1396179Y6800868D01*
X1555800Y6800729D01*
X1983265Y6373263D01*
X2050788Y6328146D01*
X2105572Y6291540D01*
X2249844Y6262843D01*
X3429844Y6262843D01*
X3574116Y6291540D01*
X3696423Y6373264D01*
X3756458Y6433299D01*
X3710869Y6323508D01*
X3710619Y6037433D01*
X3819865Y5773038D01*
X4021975Y5570575D01*
X4286179Y5460868D01*
X4572254Y5460618D01*
X4836649Y5569864D01*
X4858059Y5591236D01*
X4800869Y5453508D01*
X4800619Y5167433D01*
X4909865Y4903038D01*
X5111975Y4700575D01*
X5376179Y4590868D01*
X5662254Y4590618D01*
X5795536Y4645689D01*
X5809844Y4642843D01*
X13227550Y4642843D01*
X13239865Y4613038D01*
X13441975Y4410575D01*
X13706179Y4300868D01*
X13980648Y4300628D01*
X13980619Y4267433D01*
X13984995Y4256843D01*
X7462138Y4256843D01*
X7449823Y4286648D01*
X7247713Y4489111D01*
X6983509Y4598818D01*
X6697434Y4599068D01*
X6433039Y4489822D01*
X6230576Y4287712D01*
X6120869Y4023508D01*
X6120619Y3737433D01*
X6229865Y3473038D01*
X6431975Y3270575D01*
X6696179Y3160868D01*
X6982254Y3160618D01*
X7246649Y3269864D01*
X7449112Y3471974D01*
X7461930Y3502843D01*
X14169844Y3502843D01*
X14314116Y3531540D01*
X14436423Y3613264D01*
X14526395Y3703236D01*
X14556179Y3690868D01*
X14842254Y3690618D01*
X15106649Y3799864D01*
X15309112Y4001974D01*
X15389844Y4196398D01*
X15389844Y3931685D01*
X15220576Y3762712D01*
X15110869Y3498508D01*
X15110619Y3212433D01*
X15219865Y2948038D01*
X15421975Y2745575D01*
X15686179Y2635868D01*
X15972254Y2635618D01*
X16236649Y2744864D01*
X16439112Y2946974D01*
X16548819Y3211178D01*
X16549069Y3497253D01*
X16439823Y3761648D01*
X16289844Y3911889D01*
X16289844Y5403447D01*
X17378042Y6491645D01*
X17475591Y6637636D01*
X17509844Y6809843D01*
X17509844Y9883447D01*
X18258042Y10631645D01*
X18355590Y10777636D01*
X18389844Y10949843D01*
X18361145Y11094123D01*
X19770000Y11094123D01*
X19881173Y11115042D01*
X19983279Y11180745D01*
X20051778Y11280997D01*
X20057752Y11310500D01*
X20132000Y11310500D01*
X20132000Y11289007D01*
X20216951Y11083918D01*
X20373918Y10926950D01*
X20579007Y10842000D01*
X21061500Y10842000D01*
X21201000Y10981500D01*
X21201000Y11450000D01*
X20271500Y11450000D01*
X20132000Y11310500D01*
X20057752Y11310500D01*
X20075877Y11400000D01*
X20075877Y11600000D01*
X20056370Y11703671D01*
X20075877Y11800000D01*
X20075877Y12000000D01*
X20056370Y12103671D01*
X20075877Y12200000D01*
X20075877Y12400000D01*
X20056370Y12503671D01*
X20075877Y12600000D01*
X20075877Y12800000D01*
X20056370Y12903671D01*
X20075877Y13000000D01*
X20075877Y13200000D01*
X20056370Y13303671D01*
X20075877Y13400000D01*
X20075877Y13600000D01*
X20056370Y13703671D01*
X20075877Y13800000D01*
X20075877Y14000000D01*
X20056370Y14103671D01*
X20075877Y14200000D01*
X20075877Y14400000D01*
X20056370Y14503671D01*
X20075877Y14600000D01*
X20075877Y14800000D01*
X20056370Y14903671D01*
X20075877Y15000000D01*
X20075877Y15200000D01*
X20056370Y15303671D01*
X20075877Y15400000D01*
X20075877Y15600000D01*
X20056370Y15703671D01*
X20075877Y15800000D01*
X20075877Y16000000D01*
X20056370Y16103671D01*
X20075877Y16200000D01*
X20075877Y16400000D01*
X20056370Y16503671D01*
X20075877Y16600000D01*
X20075877Y16800000D01*
X20056370Y16903671D01*
X20075877Y17000000D01*
X20075877Y17200000D01*
X20056370Y17303671D01*
X20075877Y17400000D01*
X20075877Y17600000D01*
X20056370Y17703671D01*
X20075877Y17800000D01*
X20075877Y18000000D01*
X20056370Y18103671D01*
X20075877Y18200000D01*
X20075877Y18400000D01*
X20056370Y18503671D01*
X20075877Y18600000D01*
X20075877Y18800000D01*
X20056370Y18903671D01*
X20075877Y19000000D01*
X20075877Y19200000D01*
X20056370Y19303671D01*
X20075877Y19400000D01*
X20075877Y19600000D01*
X20056370Y19703671D01*
X20075877Y19800000D01*
X20075877Y20000000D01*
X20056370Y20103671D01*
X20075877Y20200000D01*
X20075877Y20400000D01*
X20056370Y20503671D01*
X20075877Y20600000D01*
X20075877Y20800000D01*
X20056370Y20903671D01*
X20075877Y21000000D01*
X20075877Y21200000D01*
X20056370Y21303671D01*
X20075877Y21400000D01*
X20075877Y21600000D01*
X20056370Y21703671D01*
X20075877Y21800000D01*
X20075877Y22000000D01*
X20056370Y22103671D01*
X20075877Y22200000D01*
X20075877Y22400000D01*
X20056370Y22503671D01*
X20075877Y22600000D01*
X20075877Y22800000D01*
X20056370Y22903671D01*
X20075877Y23000000D01*
X20075877Y23200000D01*
X20056370Y23303671D01*
X20075877Y23400000D01*
X20075877Y23600000D01*
X20056370Y23703671D01*
X20075877Y23800000D01*
X20075877Y24000000D01*
X20056370Y24103671D01*
X20075877Y24200000D01*
X20075877Y24400000D01*
X20056370Y24503671D01*
X20075877Y24600000D01*
X20075877Y24800000D01*
X20056370Y24903671D01*
X20075877Y25000000D01*
X20075877Y25200000D01*
X20054958Y25311173D01*
X19989255Y25413279D01*
X19889003Y25481778D01*
X19877306Y25484147D01*
X20196423Y25803264D01*
X20278147Y25925571D01*
X20306844Y26069843D01*
X20306844Y26352843D01*
X21673686Y26352843D01*
X21743236Y26283292D01*
G36*
X23204842Y13796106D02*
X23204842Y13073425D01*
X23233539Y12929153D01*
X23315263Y12806846D01*
X23810846Y12311263D01*
X23810846Y12207365D01*
X23769823Y12306648D01*
X23567713Y12509111D01*
X23303509Y12618818D01*
X23017434Y12619068D01*
X22753039Y12509822D01*
X22678000Y12434914D01*
X22678000Y12510993D01*
X22599710Y12700000D01*
X22678000Y12889007D01*
X22678000Y12910500D01*
X22548816Y13039684D01*
X22593049Y13083918D01*
X22678000Y13289007D01*
X22678000Y13310993D01*
X22599710Y13500000D01*
X22678000Y13689007D01*
X22678000Y13710993D01*
X22599710Y13900000D01*
X22678000Y14089007D01*
X22678000Y14110993D01*
X22593049Y14316082D01*
X22548816Y14360316D01*
X22594724Y14406224D01*
X23204842Y13796106D01*
X23204842Y13796106D01*
G37*
X23204842Y13796106D02*
X23204842Y13073425D01*
X23233539Y12929153D01*
X23315263Y12806846D01*
X23810846Y12311263D01*
X23810846Y12207365D01*
X23769823Y12306648D01*
X23567713Y12509111D01*
X23303509Y12618818D01*
X23017434Y12619068D01*
X22753039Y12509822D01*
X22678000Y12434914D01*
X22678000Y12510993D01*
X22599710Y12700000D01*
X22678000Y12889007D01*
X22678000Y12910500D01*
X22548816Y13039684D01*
X22593049Y13083918D01*
X22678000Y13289007D01*
X22678000Y13310993D01*
X22599710Y13500000D01*
X22678000Y13689007D01*
X22678000Y13710993D01*
X22599710Y13900000D01*
X22678000Y14089007D01*
X22678000Y14110993D01*
X22593049Y14316082D01*
X22548816Y14360316D01*
X22594724Y14406224D01*
X23204842Y13796106D01*
G36*
X21609000Y13400000D02*
X21201000Y13400000D01*
X21201000Y14000000D01*
X21609000Y14000000D01*
X21609000Y13400000D01*
X21609000Y13400000D01*
G37*
X21609000Y13400000D02*
X21201000Y13400000D01*
X21201000Y14000000D01*
X21609000Y14000000D01*
X21609000Y13400000D01*
G36*
X25725000Y21941794D02*
X25707713Y21959111D01*
X25443509Y22068818D01*
X25157434Y22069068D01*
X25126542Y22056303D01*
X23816266Y23366579D01*
X23693959Y23448303D01*
X23549687Y23477000D01*
X22425877Y23477000D01*
X22425877Y23600000D01*
X22406370Y23703671D01*
X22425877Y23800000D01*
X22425877Y24000000D01*
X22406370Y24103671D01*
X22425877Y24200000D01*
X22425877Y24400000D01*
X22406370Y24503671D01*
X22425877Y24600000D01*
X22425877Y24800000D01*
X22406370Y24903671D01*
X22425877Y25000000D01*
X22425877Y25200000D01*
X22404958Y25311173D01*
X22353703Y25390826D01*
X22592254Y25390618D01*
X22856649Y25499864D01*
X23059112Y25701974D01*
X23168819Y25966178D01*
X23169069Y26252253D01*
X23059823Y26516648D01*
X22857713Y26719111D01*
X22593509Y26828818D01*
X22307434Y26829068D01*
X22276542Y26816304D01*
X22096423Y26996422D01*
X21974116Y27078146D01*
X21829844Y27106843D01*
X20086002Y27106843D01*
X19883745Y27309100D01*
X20290333Y27140270D01*
X20906961Y27139732D01*
X21476857Y27375208D01*
X21913260Y27810849D01*
X22149730Y28380333D01*
X22150268Y28996961D01*
X21914792Y29566857D01*
X21479151Y30003260D01*
X20909667Y30239730D01*
X20796683Y30239829D01*
X20959112Y30401974D01*
X21068819Y30666178D01*
X21069069Y30952253D01*
X20959823Y31216648D01*
X20757713Y31419111D01*
X20493509Y31528818D01*
X20207434Y31529068D01*
X19943039Y31419822D01*
X19740576Y31217712D01*
X19630869Y30953508D01*
X19630619Y30667433D01*
X19643384Y30636541D01*
X19078842Y30071999D01*
X19078842Y31205683D01*
X19246395Y31373236D01*
X19276179Y31360868D01*
X19562254Y31360618D01*
X19826649Y31469864D01*
X20029112Y31671974D01*
X20138819Y31936178D01*
X20139069Y32222253D01*
X20093294Y32333039D01*
X22619732Y32333039D01*
X22855208Y31763143D01*
X23290849Y31326740D01*
X23860333Y31090270D01*
X24476961Y31089732D01*
X25046857Y31325208D01*
X25483260Y31760849D01*
X25719730Y32330333D01*
X25720268Y32946961D01*
X25484792Y33516857D01*
X25049151Y33953260D01*
X24479667Y34189730D01*
X23863039Y34190268D01*
X23293143Y33954792D01*
X22856740Y33519151D01*
X22620270Y32949667D01*
X22619732Y32333039D01*
X20093294Y32333039D01*
X20029823Y32486648D01*
X19827713Y32689111D01*
X19563509Y32798818D01*
X19277434Y32799068D01*
X19138414Y32741626D01*
X19339112Y32941974D01*
X19448819Y33206178D01*
X19449069Y33492253D01*
X19339823Y33756648D01*
X19137713Y33959111D01*
X18873509Y34068818D01*
X18587434Y34069068D01*
X18323039Y33959822D01*
X18120576Y33757712D01*
X18010869Y33493508D01*
X18010619Y33207433D01*
X18030976Y33158166D01*
X18001541Y33114115D01*
X17972844Y32969843D01*
X17972844Y28936001D01*
X17264054Y28227211D01*
X17264054Y30262633D01*
X17235357Y30406905D01*
X17153633Y30529212D01*
X16086423Y31596422D01*
X15964116Y31678146D01*
X15819844Y31706843D01*
X15112138Y31706843D01*
X15099823Y31736648D01*
X14897713Y31939111D01*
X14778185Y31988743D01*
X14923930Y32048964D01*
X15144947Y32269596D01*
X15264707Y32558012D01*
X15264980Y32870304D01*
X15145723Y33158929D01*
X14925091Y33379946D01*
X14636675Y33499706D01*
X14324383Y33499979D01*
X14035758Y33380722D01*
X13814741Y33160090D01*
X13694981Y32871674D01*
X13694708Y32559382D01*
X13813965Y32270757D01*
X14034597Y32049740D01*
X14191441Y31984613D01*
X14083039Y31939822D01*
X13880576Y31737712D01*
X13770869Y31473508D01*
X13770619Y31187433D01*
X13879865Y30923038D01*
X14012900Y30789771D01*
X13860576Y30637712D01*
X13750869Y30373508D01*
X13750619Y30087433D01*
X13859865Y29823038D01*
X14061975Y29620575D01*
X14109077Y29601017D01*
X14035758Y29570722D01*
X13814741Y29350090D01*
X13694981Y29061674D01*
X13694708Y28749382D01*
X13773039Y28559807D01*
X13316423Y29016422D01*
X13194116Y29098146D01*
X13049844Y29126843D01*
X11192138Y29126843D01*
X11179823Y29156648D01*
X10977713Y29359111D01*
X10713509Y29468818D01*
X10427434Y29469068D01*
X10269844Y29403953D01*
X10269844Y30760681D01*
X10342254Y30760618D01*
X10606649Y30869864D01*
X10809112Y31071974D01*
X10918819Y31336178D01*
X10919069Y31622253D01*
X10809823Y31886648D01*
X10607713Y32089111D01*
X10343509Y32198818D01*
X10057434Y32199068D01*
X9793039Y32089822D01*
X9590576Y31887712D01*
X9480869Y31623508D01*
X9480662Y31386636D01*
X9404098Y31272051D01*
X9369844Y31099843D01*
X9369844Y28329843D01*
X9404098Y28157635D01*
X9483518Y28038775D01*
X9501646Y28011645D01*
X10021646Y27491645D01*
X10167636Y27394097D01*
X10339844Y27359843D01*
X10739844Y27359843D01*
X10739844Y24206702D01*
X10580576Y24047712D01*
X10470869Y23783508D01*
X10470619Y23497433D01*
X10579865Y23233038D01*
X10781975Y23030575D01*
X11046179Y22920868D01*
X11099844Y22920821D01*
X11099844Y22716702D01*
X10940576Y22557712D01*
X10830869Y22293508D01*
X10830671Y22067066D01*
X10811646Y22048041D01*
X10714098Y21902051D01*
X10679844Y21729843D01*
X10679844Y18009843D01*
X10714098Y17837635D01*
X10770310Y17753508D01*
X10810816Y17692887D01*
X10810619Y17467433D01*
X10906723Y17234845D01*
X6243580Y17234845D01*
X3626844Y19851581D01*
X3626844Y20787549D01*
X3656649Y20799864D01*
X3859112Y21001974D01*
X3968819Y21266178D01*
X3969069Y21552253D01*
X3859823Y21816648D01*
X3657713Y22019111D01*
X3393509Y22128818D01*
X3107434Y22129068D01*
X2843039Y22019822D01*
X2640576Y21817712D01*
X2530869Y21553508D01*
X2530619Y21267433D01*
X2639865Y21003038D01*
X2841975Y20800575D01*
X2872844Y20787757D01*
X2872844Y20653919D01*
X2837713Y20689111D01*
X2573509Y20798818D01*
X2287434Y20799068D01*
X2023039Y20689822D01*
X1949844Y20616755D01*
X1949844Y21583447D01*
X2886397Y22520000D01*
X3503141Y22520000D01*
X3662131Y22360732D01*
X3926335Y22251025D01*
X4212410Y22250775D01*
X4476805Y22360021D01*
X4679268Y22562131D01*
X4788975Y22826335D01*
X4789225Y23112410D01*
X4679979Y23376805D01*
X4566689Y23490292D01*
X5667212Y24590815D01*
X5892254Y24590618D01*
X6156649Y24699864D01*
X6359112Y24901974D01*
X6468819Y25166178D01*
X6469069Y25452253D01*
X6359823Y25716648D01*
X6157713Y25919111D01*
X5893509Y26028818D01*
X5607434Y26029068D01*
X5343039Y25919822D01*
X5182781Y25759843D01*
X1736240Y25759843D01*
X1523042Y25973041D01*
X1487420Y25996843D01*
X1377052Y26070589D01*
X1204844Y26104843D01*
X-773687Y26104843D01*
X-785198Y26166016D01*
X-850901Y26268122D01*
X-951153Y26336621D01*
X-995156Y26345532D01*
X-995156Y27529843D01*
X-1010774Y27608362D01*
X-1029409Y27702050D01*
X-1126958Y27848041D01*
X-1166154Y27887237D01*
X-1166154Y27898076D01*
X-1030631Y27762553D01*
X-859113Y27762553D01*
X-654024Y27847503D01*
X-497057Y28004471D01*
X-412106Y28209560D01*
X-412106Y28381078D01*
X-551606Y28520578D01*
X-1170131Y28520578D01*
X-1170131Y28496603D01*
X-1570181Y28496603D01*
X-1570181Y28520578D01*
X-2188706Y28520578D01*
X-2328206Y28381078D01*
X-2328206Y28209560D01*
X-2311755Y28169843D01*
X-2609992Y28169843D01*
X-2588328Y28201550D01*
X-2564229Y28320553D01*
X-2564229Y29120653D01*
X-2585114Y29231646D01*
X-2328206Y29231646D01*
X-2328206Y29060128D01*
X-2188706Y28920628D01*
X-1570181Y28920628D01*
X-1570181Y29539153D01*
X-1170131Y29539153D01*
X-1170131Y28920628D01*
X-551606Y28920628D01*
X-412106Y29060128D01*
X-412106Y29231646D01*
X-497057Y29436735D01*
X-654024Y29593703D01*
X-859113Y29678653D01*
X-1030631Y29678653D01*
X-1170131Y29539153D01*
X-1570181Y29539153D01*
X-1709681Y29678653D01*
X-1881199Y29678653D01*
X-2086288Y29593703D01*
X-2243255Y29436735D01*
X-2328206Y29231646D01*
X-2585114Y29231646D01*
X-2585148Y29231826D01*
X-2650851Y29333932D01*
X-2751103Y29402431D01*
X-2870106Y29426530D01*
X-3670206Y29426530D01*
X-3781379Y29405611D01*
X-3883485Y29339908D01*
X-3951984Y29239656D01*
X-3976083Y29120653D01*
X-3976083Y28320553D01*
X-3955164Y28209380D01*
X-3889461Y28107274D01*
X-3789209Y28038775D01*
X-3720156Y28024791D01*
X-3720156Y27969843D01*
X-3685902Y27797635D01*
X-3622034Y27702051D01*
X-3588354Y27651645D01*
X-3338354Y27401645D01*
X-3192364Y27304097D01*
X-3020156Y27269843D01*
X-2982055Y27269843D01*
X-3001984Y27240676D01*
X-3026083Y27121673D01*
X-3026083Y27103626D01*
X-3121574Y27039821D01*
X-3338354Y26823041D01*
X-3435902Y26677051D01*
X-3470156Y26504843D01*
X-3470156Y26346608D01*
X-3506329Y26339801D01*
X-3608435Y26274098D01*
X-3676934Y26173846D01*
X-3691779Y26100542D01*
X-3842363Y26070590D01*
X-3988354Y25973041D01*
X-4055000Y25906395D01*
X-4055000Y32333039D01*
X-4050268Y32333039D01*
X-3814792Y31763143D01*
X-3379151Y31326740D01*
X-2809667Y31090270D01*
X-2193039Y31089732D01*
X-1623143Y31325208D01*
X-1186740Y31760849D01*
X-950270Y32330333D01*
X-949732Y32946961D01*
X-1185208Y33516857D01*
X-1620849Y33953260D01*
X-2190333Y34189730D01*
X-2806961Y34190268D01*
X-3376857Y33954792D01*
X-3813260Y33519151D01*
X-4049730Y32949667D01*
X-4050268Y32333039D01*
X-4055000Y32333039D01*
X-4055000Y34560000D01*
X25725000Y34560000D01*
X25725000Y21941794D01*
X25725000Y21941794D01*
G37*
X25725000Y21941794D02*
X25707713Y21959111D01*
X25443509Y22068818D01*
X25157434Y22069068D01*
X25126542Y22056303D01*
X23816266Y23366579D01*
X23693959Y23448303D01*
X23549687Y23477000D01*
X22425877Y23477000D01*
X22425877Y23600000D01*
X22406370Y23703671D01*
X22425877Y23800000D01*
X22425877Y24000000D01*
X22406370Y24103671D01*
X22425877Y24200000D01*
X22425877Y24400000D01*
X22406370Y24503671D01*
X22425877Y24600000D01*
X22425877Y24800000D01*
X22406370Y24903671D01*
X22425877Y25000000D01*
X22425877Y25200000D01*
X22404958Y25311173D01*
X22353703Y25390826D01*
X22592254Y25390618D01*
X22856649Y25499864D01*
X23059112Y25701974D01*
X23168819Y25966178D01*
X23169069Y26252253D01*
X23059823Y26516648D01*
X22857713Y26719111D01*
X22593509Y26828818D01*
X22307434Y26829068D01*
X22276542Y26816304D01*
X22096423Y26996422D01*
X21974116Y27078146D01*
X21829844Y27106843D01*
X20086002Y27106843D01*
X19883745Y27309100D01*
X20290333Y27140270D01*
X20906961Y27139732D01*
X21476857Y27375208D01*
X21913260Y27810849D01*
X22149730Y28380333D01*
X22150268Y28996961D01*
X21914792Y29566857D01*
X21479151Y30003260D01*
X20909667Y30239730D01*
X20796683Y30239829D01*
X20959112Y30401974D01*
X21068819Y30666178D01*
X21069069Y30952253D01*
X20959823Y31216648D01*
X20757713Y31419111D01*
X20493509Y31528818D01*
X20207434Y31529068D01*
X19943039Y31419822D01*
X19740576Y31217712D01*
X19630869Y30953508D01*
X19630619Y30667433D01*
X19643384Y30636541D01*
X19078842Y30071999D01*
X19078842Y31205683D01*
X19246395Y31373236D01*
X19276179Y31360868D01*
X19562254Y31360618D01*
X19826649Y31469864D01*
X20029112Y31671974D01*
X20138819Y31936178D01*
X20139069Y32222253D01*
X20093294Y32333039D01*
X22619732Y32333039D01*
X22855208Y31763143D01*
X23290849Y31326740D01*
X23860333Y31090270D01*
X24476961Y31089732D01*
X25046857Y31325208D01*
X25483260Y31760849D01*
X25719730Y32330333D01*
X25720268Y32946961D01*
X25484792Y33516857D01*
X25049151Y33953260D01*
X24479667Y34189730D01*
X23863039Y34190268D01*
X23293143Y33954792D01*
X22856740Y33519151D01*
X22620270Y32949667D01*
X22619732Y32333039D01*
X20093294Y32333039D01*
X20029823Y32486648D01*
X19827713Y32689111D01*
X19563509Y32798818D01*
X19277434Y32799068D01*
X19138414Y32741626D01*
X19339112Y32941974D01*
X19448819Y33206178D01*
X19449069Y33492253D01*
X19339823Y33756648D01*
X19137713Y33959111D01*
X18873509Y34068818D01*
X18587434Y34069068D01*
X18323039Y33959822D01*
X18120576Y33757712D01*
X18010869Y33493508D01*
X18010619Y33207433D01*
X18030976Y33158166D01*
X18001541Y33114115D01*
X17972844Y32969843D01*
X17972844Y28936001D01*
X17264054Y28227211D01*
X17264054Y30262633D01*
X17235357Y30406905D01*
X17153633Y30529212D01*
X16086423Y31596422D01*
X15964116Y31678146D01*
X15819844Y31706843D01*
X15112138Y31706843D01*
X15099823Y31736648D01*
X14897713Y31939111D01*
X14778185Y31988743D01*
X14923930Y32048964D01*
X15144947Y32269596D01*
X15264707Y32558012D01*
X15264980Y32870304D01*
X15145723Y33158929D01*
X14925091Y33379946D01*
X14636675Y33499706D01*
X14324383Y33499979D01*
X14035758Y33380722D01*
X13814741Y33160090D01*
X13694981Y32871674D01*
X13694708Y32559382D01*
X13813965Y32270757D01*
X14034597Y32049740D01*
X14191441Y31984613D01*
X14083039Y31939822D01*
X13880576Y31737712D01*
X13770869Y31473508D01*
X13770619Y31187433D01*
X13879865Y30923038D01*
X14012900Y30789771D01*
X13860576Y30637712D01*
X13750869Y30373508D01*
X13750619Y30087433D01*
X13859865Y29823038D01*
X14061975Y29620575D01*
X14109077Y29601017D01*
X14035758Y29570722D01*
X13814741Y29350090D01*
X13694981Y29061674D01*
X13694708Y28749382D01*
X13773039Y28559807D01*
X13316423Y29016422D01*
X13194116Y29098146D01*
X13049844Y29126843D01*
X11192138Y29126843D01*
X11179823Y29156648D01*
X10977713Y29359111D01*
X10713509Y29468818D01*
X10427434Y29469068D01*
X10269844Y29403953D01*
X10269844Y30760681D01*
X10342254Y30760618D01*
X10606649Y30869864D01*
X10809112Y31071974D01*
X10918819Y31336178D01*
X10919069Y31622253D01*
X10809823Y31886648D01*
X10607713Y32089111D01*
X10343509Y32198818D01*
X10057434Y32199068D01*
X9793039Y32089822D01*
X9590576Y31887712D01*
X9480869Y31623508D01*
X9480662Y31386636D01*
X9404098Y31272051D01*
X9369844Y31099843D01*
X9369844Y28329843D01*
X9404098Y28157635D01*
X9483518Y28038775D01*
X9501646Y28011645D01*
X10021646Y27491645D01*
X10167636Y27394097D01*
X10339844Y27359843D01*
X10739844Y27359843D01*
X10739844Y24206702D01*
X10580576Y24047712D01*
X10470869Y23783508D01*
X10470619Y23497433D01*
X10579865Y23233038D01*
X10781975Y23030575D01*
X11046179Y22920868D01*
X11099844Y22920821D01*
X11099844Y22716702D01*
X10940576Y22557712D01*
X10830869Y22293508D01*
X10830671Y22067066D01*
X10811646Y22048041D01*
X10714098Y21902051D01*
X10679844Y21729843D01*
X10679844Y18009843D01*
X10714098Y17837635D01*
X10770310Y17753508D01*
X10810816Y17692887D01*
X10810619Y17467433D01*
X10906723Y17234845D01*
X6243580Y17234845D01*
X3626844Y19851581D01*
X3626844Y20787549D01*
X3656649Y20799864D01*
X3859112Y21001974D01*
X3968819Y21266178D01*
X3969069Y21552253D01*
X3859823Y21816648D01*
X3657713Y22019111D01*
X3393509Y22128818D01*
X3107434Y22129068D01*
X2843039Y22019822D01*
X2640576Y21817712D01*
X2530869Y21553508D01*
X2530619Y21267433D01*
X2639865Y21003038D01*
X2841975Y20800575D01*
X2872844Y20787757D01*
X2872844Y20653919D01*
X2837713Y20689111D01*
X2573509Y20798818D01*
X2287434Y20799068D01*
X2023039Y20689822D01*
X1949844Y20616755D01*
X1949844Y21583447D01*
X2886397Y22520000D01*
X3503141Y22520000D01*
X3662131Y22360732D01*
X3926335Y22251025D01*
X4212410Y22250775D01*
X4476805Y22360021D01*
X4679268Y22562131D01*
X4788975Y22826335D01*
X4789225Y23112410D01*
X4679979Y23376805D01*
X4566689Y23490292D01*
X5667212Y24590815D01*
X5892254Y24590618D01*
X6156649Y24699864D01*
X6359112Y24901974D01*
X6468819Y25166178D01*
X6469069Y25452253D01*
X6359823Y25716648D01*
X6157713Y25919111D01*
X5893509Y26028818D01*
X5607434Y26029068D01*
X5343039Y25919822D01*
X5182781Y25759843D01*
X1736240Y25759843D01*
X1523042Y25973041D01*
X1487420Y25996843D01*
X1377052Y26070589D01*
X1204844Y26104843D01*
X-773687Y26104843D01*
X-785198Y26166016D01*
X-850901Y26268122D01*
X-951153Y26336621D01*
X-995156Y26345532D01*
X-995156Y27529843D01*
X-1010774Y27608362D01*
X-1029409Y27702050D01*
X-1126958Y27848041D01*
X-1166154Y27887237D01*
X-1166154Y27898076D01*
X-1030631Y27762553D01*
X-859113Y27762553D01*
X-654024Y27847503D01*
X-497057Y28004471D01*
X-412106Y28209560D01*
X-412106Y28381078D01*
X-551606Y28520578D01*
X-1170131Y28520578D01*
X-1170131Y28496603D01*
X-1570181Y28496603D01*
X-1570181Y28520578D01*
X-2188706Y28520578D01*
X-2328206Y28381078D01*
X-2328206Y28209560D01*
X-2311755Y28169843D01*
X-2609992Y28169843D01*
X-2588328Y28201550D01*
X-2564229Y28320553D01*
X-2564229Y29120653D01*
X-2585114Y29231646D01*
X-2328206Y29231646D01*
X-2328206Y29060128D01*
X-2188706Y28920628D01*
X-1570181Y28920628D01*
X-1570181Y29539153D01*
X-1170131Y29539153D01*
X-1170131Y28920628D01*
X-551606Y28920628D01*
X-412106Y29060128D01*
X-412106Y29231646D01*
X-497057Y29436735D01*
X-654024Y29593703D01*
X-859113Y29678653D01*
X-1030631Y29678653D01*
X-1170131Y29539153D01*
X-1570181Y29539153D01*
X-1709681Y29678653D01*
X-1881199Y29678653D01*
X-2086288Y29593703D01*
X-2243255Y29436735D01*
X-2328206Y29231646D01*
X-2585114Y29231646D01*
X-2585148Y29231826D01*
X-2650851Y29333932D01*
X-2751103Y29402431D01*
X-2870106Y29426530D01*
X-3670206Y29426530D01*
X-3781379Y29405611D01*
X-3883485Y29339908D01*
X-3951984Y29239656D01*
X-3976083Y29120653D01*
X-3976083Y28320553D01*
X-3955164Y28209380D01*
X-3889461Y28107274D01*
X-3789209Y28038775D01*
X-3720156Y28024791D01*
X-3720156Y27969843D01*
X-3685902Y27797635D01*
X-3622034Y27702051D01*
X-3588354Y27651645D01*
X-3338354Y27401645D01*
X-3192364Y27304097D01*
X-3020156Y27269843D01*
X-2982055Y27269843D01*
X-3001984Y27240676D01*
X-3026083Y27121673D01*
X-3026083Y27103626D01*
X-3121574Y27039821D01*
X-3338354Y26823041D01*
X-3435902Y26677051D01*
X-3470156Y26504843D01*
X-3470156Y26346608D01*
X-3506329Y26339801D01*
X-3608435Y26274098D01*
X-3676934Y26173846D01*
X-3691779Y26100542D01*
X-3842363Y26070590D01*
X-3988354Y25973041D01*
X-4055000Y25906395D01*
X-4055000Y32333039D01*
X-4050268Y32333039D01*
X-3814792Y31763143D01*
X-3379151Y31326740D01*
X-2809667Y31090270D01*
X-2193039Y31089732D01*
X-1623143Y31325208D01*
X-1186740Y31760849D01*
X-950270Y32330333D01*
X-949732Y32946961D01*
X-1185208Y33516857D01*
X-1620849Y33953260D01*
X-2190333Y34189730D01*
X-2806961Y34190268D01*
X-3376857Y33954792D01*
X-3813260Y33519151D01*
X-4049730Y32949667D01*
X-4050268Y32333039D01*
X-4055000Y32333039D01*
X-4055000Y34560000D01*
X25725000Y34560000D01*
X25725000Y21941794D01*
G36*
X14143264Y27123264D02*
X14167840Y27106843D01*
X14265572Y27041540D01*
X14409844Y27012843D01*
X14447550Y27012843D01*
X14459865Y26983038D01*
X14661975Y26780575D01*
X14862848Y26697165D01*
X14702526Y26536843D01*
X13908006Y26536843D01*
X13899823Y26556648D01*
X13697713Y26759111D01*
X13433509Y26868818D01*
X13147434Y26869068D01*
X12883039Y26759822D01*
X12680576Y26557712D01*
X12570869Y26293508D01*
X12570619Y26007433D01*
X12679865Y25743038D01*
X12881975Y25540575D01*
X13146179Y25430868D01*
X13400692Y25430646D01*
X13400619Y25347433D01*
X13509865Y25083038D01*
X13711975Y24880575D01*
X13857140Y24820297D01*
X11999844Y22963001D01*
X11999844Y23279843D01*
X11965590Y23452051D01*
X11908855Y23536961D01*
X11909069Y23782253D01*
X11799823Y24046648D01*
X11639844Y24206906D01*
X11639844Y27569843D01*
X11605590Y27742051D01*
X11508042Y27888041D01*
X11268042Y28128041D01*
X11239982Y28146790D01*
X11122052Y28225589D01*
X11072414Y28235462D01*
X11179112Y28341974D01*
X11191930Y28372843D01*
X12893686Y28372843D01*
X14143264Y27123264D01*
X14143264Y27123264D01*
G37*
X14143264Y27123264D02*
X14167840Y27106843D01*
X14265572Y27041540D01*
X14409844Y27012843D01*
X14447550Y27012843D01*
X14459865Y26983038D01*
X14661975Y26780575D01*
X14862848Y26697165D01*
X14702526Y26536843D01*
X13908006Y26536843D01*
X13899823Y26556648D01*
X13697713Y26759111D01*
X13433509Y26868818D01*
X13147434Y26869068D01*
X12883039Y26759822D01*
X12680576Y26557712D01*
X12570869Y26293508D01*
X12570619Y26007433D01*
X12679865Y25743038D01*
X12881975Y25540575D01*
X13146179Y25430868D01*
X13400692Y25430646D01*
X13400619Y25347433D01*
X13509865Y25083038D01*
X13711975Y24880575D01*
X13857140Y24820297D01*
X11999844Y22963001D01*
X11999844Y23279843D01*
X11965590Y23452051D01*
X11908855Y23536961D01*
X11909069Y23782253D01*
X11799823Y24046648D01*
X11639844Y24206906D01*
X11639844Y27569843D01*
X11605590Y27742051D01*
X11508042Y27888041D01*
X11268042Y28128041D01*
X11239982Y28146790D01*
X11122052Y28225589D01*
X11072414Y28235462D01*
X11179112Y28341974D01*
X11191930Y28372843D01*
X12893686Y28372843D01*
X14143264Y27123264D01*
M02*
