G04 #@! TF.FileFunction,Paste,Top*
%FSLAX46Y46*%
G04 Gerber Fmt 4.6, Leading zero omitted, Abs format (unit mm)*
G04 Created by KiCad (PCBNEW 4.0.2-stable) date 1/27/2017 1:12:26 PM*
%MOMM*%
G01*
G04 APERTURE LIST*
%ADD10C,0.100000*%
%ADD11R,0.800100X0.800100*%
%ADD12R,1.430000X0.200000*%
%ADD13R,0.750000X0.800000*%
G04 APERTURE END LIST*
D10*
D11*
X2900000Y38590760D03*
X1000000Y38590760D03*
X1950000Y36591780D03*
D12*
X25675156Y21370157D03*
X25675156Y21770157D03*
X25675156Y22170157D03*
X25675156Y22570157D03*
X25675156Y22970157D03*
X25675156Y23370157D03*
X25675156Y23770157D03*
X25675156Y24170157D03*
X25675156Y24570157D03*
X25675156Y24970157D03*
X25675156Y25370157D03*
X25675156Y25770157D03*
X25675156Y26170157D03*
X25675156Y26570157D03*
X25675156Y26970157D03*
X25675156Y27370157D03*
X25675156Y27770157D03*
X25675156Y28170157D03*
X25675156Y28570157D03*
X25675156Y28970157D03*
X25675156Y29370157D03*
X25675156Y29770157D03*
X25675156Y30170157D03*
X25675156Y30570157D03*
X25675156Y30970157D03*
X25675156Y31370157D03*
X25675156Y31770157D03*
X25675156Y32170157D03*
X25675156Y32570157D03*
X25675156Y32970157D03*
X25675156Y33370157D03*
X25675156Y33770157D03*
X25675156Y34170157D03*
X25675156Y34570157D03*
X25675156Y34970157D03*
X23325156Y21370157D03*
X23325156Y21770157D03*
X23325156Y22170157D03*
X23325156Y22570157D03*
X23325156Y22970157D03*
X23325156Y23370157D03*
X23325156Y23770157D03*
X23325156Y24170157D03*
X23325156Y24570157D03*
X23325156Y24970157D03*
X23325156Y25370157D03*
X23325156Y25770157D03*
X23325156Y26170157D03*
X23325156Y26570157D03*
X23325156Y26970157D03*
X23325156Y27370157D03*
X23325156Y27770157D03*
X23325156Y28170157D03*
X23325156Y28570157D03*
X23325156Y28970157D03*
X23325156Y29370157D03*
X23325156Y29770157D03*
X23325156Y30170157D03*
X23325156Y30570157D03*
X23325156Y30970157D03*
X23325156Y31370157D03*
X23325156Y31770157D03*
X23325156Y32170157D03*
X23325156Y32570157D03*
X23325156Y32970157D03*
X23325156Y33370157D03*
X23325156Y33770157D03*
X23325156Y34170157D03*
X23325156Y34570157D03*
X23325156Y34970157D03*
D13*
X2825000Y35525000D03*
X2825000Y34025000D03*
X1250000Y35525000D03*
X1250000Y34025000D03*
M02*
